<svg xmlns="http://www.w3.org/2000/svg" width="3888" height="2834" viewBox="0 0 3888 2834">
  <defs>
    <style>
      .bg { fill: #f7f5ef; }
      .panel { fill: none; stroke: #c8c2b7; stroke-width: 2; stroke-dasharray: 10 7; }
      .panel-label { font: 700 18px Georgia, serif; fill: #6b7280; }
      .box { fill: #fffdf8; stroke: #334155; stroke-width: 2; }
      .title { font: 700 16px 'Courier New', monospace; fill: #111827; }
      .line { font: 13px 'Courier New', monospace; fill: #1f2937; }
    </style>
  </defs>
  <rect class="bg" x="0" y="0" width="3888" height="2834"/>
  <rect x="24" y="24" width="236" height="1578" rx="14" ry="14" class="panel"/>
  <text x="44" y="62" class="panel-label">lexer</text>
  <rect x="44" y="88" width="172" height="1360" rx="10" ry="10" class="box"/>
  <text x="58" y="126" class="title">TokenType: EnumDef</text>
  <text x="58" y="144" class="line">Eof</text>
  <text x="58" y="162" class="line">LParen</text>
  <text x="58" y="180" class="line">RParen</text>
  <text x="58" y="198" class="line">LBrace</text>
  <text x="58" y="216" class="line">RBrace</text>
  <text x="58" y="234" class="line">LBracket</text>
  <text x="58" y="252" class="line">RBracket</text>
  <text x="58" y="270" class="line">Comma</text>
  <text x="58" y="288" class="line">Colon</text>
  <text x="58" y="306" class="line">Question</text>
  <text x="58" y="324" class="line">Bang</text>
  <text x="58" y="342" class="line">Minus</text>
  <text x="58" y="360" class="line">Plus</text>
  <text x="58" y="378" class="line">Star</text>
  <text x="58" y="396" class="line">Slash</text>
  <text x="58" y="414" class="line">Percent</text>
  <text x="58" y="432" class="line">Ampersand</text>
  <text x="58" y="450" class="line">Pipe</text>
  <text x="58" y="468" class="line">Caret</text>
  <text x="58" y="486" class="line">Dot</text>
  <text x="58" y="504" class="line">DotDot</text>
  <text x="58" y="522" class="line">DotDotDot</text>
  <text x="58" y="540" class="line">Eq</text>
  <text x="58" y="558" class="line">EqEq</text>
  <text x="58" y="576" class="line">Neq</text>
  <text x="58" y="594" class="line">Lt</text>
  <text x="58" y="612" class="line">LtEq</text>
  <text x="58" y="630" class="line">Gt</text>
  <text x="58" y="648" class="line">GtEq</text>
  <text x="58" y="666" class="line">PlusPlus</text>
  <text x="58" y="684" class="line">MinusMinus</text>
  <text x="58" y="702" class="line">ColonEq</text>
  <text x="58" y="720" class="line">Ident</text>
  <text x="58" y="738" class="line">StringTok</text>
  <text x="58" y="756" class="line">Number</text>
  <text x="58" y="774" class="line">Char</text>
  <text x="58" y="792" class="line">DocComment</text>
  <text x="58" y="810" class="line">KwMut</text>
  <text x="58" y="828" class="line">KwOwn</text>
  <text x="58" y="846" class="line">KwRef</text>
  <text x="58" y="864" class="line">KwShallow</text>
  <text x="58" y="882" class="line">KwStruct</text>
  <text x="58" y="900" class="line">KwEnum</text>
  <text x="58" y="918" class="line">KwNamespace</text>
  <text x="58" y="936" class="line">KwFunc</text>
  <text x="58" y="954" class="line">KwProc</text>
  <text x="58" y="972" class="line">KwTest</text>
  <text x="58" y="990" class="line">KwMacro</text>
  <text x="58" y="1008" class="line">KwExtFunc</text>
  <text x="58" y="1026" class="line">KwExtProc</text>
  <text x="58" y="1044" class="line">KwExtStruct</text>
  <text x="58" y="1062" class="line">KwReturns</text>
  <text x="58" y="1080" class="line">KwThrows</text>
  <text x="58" y="1098" class="line">KwIf</text>
  <text x="58" y="1116" class="line">KwElse</text>
  <text x="58" y="1134" class="line">KwWhile</text>
  <text x="58" y="1152" class="line">KwFor</text>
  <text x="58" y="1170" class="line">KwIn</text>
  <text x="58" y="1188" class="line">KwSwitch</text>
  <text x="58" y="1206" class="line">KwMatch</text>
  <text x="58" y="1224" class="line">KwCase</text>
  <text x="58" y="1242" class="line">KwDefault</text>
  <text x="58" y="1260" class="line">KwReturn</text>
  <text x="58" y="1278" class="line">KwThrow</text>
  <text x="58" y="1296" class="line">KwCatch</text>
  <text x="58" y="1314" class="line">KwBreak</text>
  <text x="58" y="1332" class="line">KwContinue</text>
  <text x="58" y="1350" class="line">KwDefer</text>
  <text x="58" y="1368" class="line">KwTrue</text>
  <text x="58" y="1386" class="line">KwFalse</text>
  <text x="58" y="1404" class="line">KwNull</text>
  <text x="58" y="1422" class="line">KwPriv</text>
  <text x="58" y="1440" class="line">Error</text>
  <rect x="44" y="1466" width="196" height="118" rx="10" ry="10" class="box"/>
  <text x="58" y="1504" class="title">Token: StructDef</text>
  <text x="58" y="1522" class="line">type := TokenType.Eof</text>
  <text x="58" y="1540" class="line">text := &quot;&quot;</text>
  <text x="58" y="1558" class="line">line : U32 = 0</text>
  <text x="58" y="1576" class="line">col : U32 = 0</text>
  <rect x="294" y="24" width="612" height="2786" rx="14" ry="14" class="panel"/>
  <text x="314" y="62" class="panel-label">ast</text>
  <rect x="314" y="88" width="172" height="64" rx="10" ry="10" class="box"/>
  <text x="328" y="126" class="title">Primitive: EnumDef</text>
  <text x="328" y="144" class="line">I16</text>
  <rect x="314" y="170" width="180" height="388" rx="10" ry="10" class="box"/>
  <text x="328" y="208" class="title">Type: EnumDef</text>
  <text x="328" y="226" class="line">Unknown</text>
  <text x="328" y="244" class="line">None</text>
  <text x="328" y="262" class="line">I64</text>
  <text x="328" y="280" class="line">U8</text>
  <text x="328" y="298" class="line">I32</text>
  <text x="328" y="316" class="line">U32</text>
  <text x="328" y="334" class="line">U64</text>
  <text x="328" y="352" class="line">F32</text>
  <text x="328" y="370" class="line">Bool</text>
  <text x="328" y="388" class="line">Struct:Str</text>
  <text x="328" y="406" class="line">StructDef</text>
  <text x="328" y="424" class="line">Enum:Str</text>
  <text x="328" y="442" class="line">EnumDef</text>
  <text x="328" y="460" class="line">FuncDef</text>
  <text x="328" y="478" class="line">FuncPtr</text>
  <text x="328" y="496" class="line">Dynamic</text>
  <text x="328" y="514" class="line">Custom:Str</text>
  <text x="328" y="532" class="line">I8</text>
  <text x="328" y="550" class="line">Primitive:Primitive</text>
  <rect x="314" y="576" width="164" height="172" rx="10" ry="10" class="box"/>
  <text x="328" y="614" class="title">FuncType: EnumDef</text>
  <text x="328" y="632" class="line">None</text>
  <text x="328" y="650" class="line">Func</text>
  <text x="328" y="668" class="line">Proc</text>
  <text x="328" y="686" class="line">Test</text>
  <text x="328" y="704" class="line">Macro</text>
  <text x="328" y="722" class="line">ExtFunc</text>
  <text x="328" y="740" class="line">ExtProc</text>
  <rect x="314" y="766" width="156" height="100" rx="10" ry="10" class="box"/>
  <text x="328" y="804" class="title">OwnType: EnumDef</text>
  <text x="328" y="822" class="line">Own</text>
  <text x="328" y="840" class="line">Ref</text>
  <text x="328" y="858" class="line">Shallow</text>
  <rect x="314" y="884" width="572" height="280" rx="10" ry="10" class="box"/>
  <text x="328" y="922" class="title">Declaration: StructDef</text>
  <text x="328" y="940" class="line">mut name := &quot;&quot;</text>
  <text x="328" y="958" class="line">mut doc := &quot;&quot;</text>
  <text x="328" y="976" class="line">mut explicit_type := &quot;&quot;</text>
  <text x="328" y="994" class="line">mut is_mut := false</text>
  <text x="328" y="1012" class="line">mut is_priv := false</text>
  <text x="328" y="1030" class="line">mut used := false</text>
  <text x="328" y="1048" class="line">mut own_type := OwnType.Shallow</text>
  <text x="328" y="1066" class="line">mut til_type := Type.Unknown</text>
  <text x="328" y="1084" class="line">mut field_offset : I32 = 0</text>
  <text x="328" y="1102" class="line">mut field_size : I32 = 0</text>
  <text x="328" y="1120" class="line">ref mut field_struct_def : Expr = NULL</text>
  <text x="328" y="1138" class="line">own mut default_value : Expr = Expr.new(NodeType.NoDefaultArg, 0, 0)</text>
  <text x="328" y="1156" class="line">mut orig_name := &quot;&quot;</text>
  <rect x="314" y="1182" width="332" height="190" rx="10" ry="10" class="box"/>
  <text x="328" y="1220" class="title">FunctionDef: StructDef</text>
  <text x="328" y="1238" class="line">mut func_type := FuncType.Func</text>
  <text x="328" y="1256" class="line">mut params := Vec.new(Declaration)</text>
  <text x="328" y="1274" class="line">mut return_type := &quot;&quot;</text>
  <text x="328" y="1292" class="line">mut throw_types := Vec.new(Str)</text>
  <text x="328" y="1310" class="line">mut variadic_index : I32 = -1.to_i32()</text>
  <text x="328" y="1328" class="line">mut kwargs_index : I32 = -1.to_i32()</text>
  <text x="328" y="1346" class="line">mut return_own_type := OwnType.Own</text>
  <text x="328" y="1364" class="line">mut auto_generated := false</text>
  <rect x="314" y="1390" width="332" height="190" rx="10" ry="10" class="box"/>
  <text x="328" y="1428" class="title">FCallData: StructDef</text>
  <text x="328" y="1446" class="line">mut variadic_index : I32 = -1.to_i32()</text>
  <text x="328" y="1464" class="line">mut variadic_count : USize = 0</text>
  <text x="328" y="1482" class="line">mut kwargs_index : I32 = -1.to_i32()</text>
  <text x="328" y="1500" class="line">mut kwargs_count : USize = 0</text>
  <text x="328" y="1518" class="line">mut is_splat := false</text>
  <text x="328" y="1536" class="line">mut does_throw := false</text>
  <text x="328" y="1554" class="line">mut is_bang := false</text>
  <text x="328" y="1572" class="line">mut own_args : U64 = 0</text>
  <rect x="314" y="1598" width="316" height="118" rx="10" ry="10" class="box"/>
  <text x="328" y="1636" class="title">StructDef: StructDef</text>
  <text x="328" y="1654" class="line">mut total_struct_size : I32 = 0</text>
  <text x="328" y="1672" class="line">mut fields := Vec.new(Declaration)</text>
  <text x="328" y="1690" class="line">mut ns_decls := Vec.new(Declaration)</text>
  <text x="328" y="1708" class="line">mut c_tag := &quot;&quot;</text>
  <rect x="314" y="1734" width="332" height="118" rx="10" ry="10" class="box"/>
  <text x="328" y="1772" class="title">EnumDef: StructDef</text>
  <text x="328" y="1790" class="line">mut ns_decls := Vec.new(Declaration)</text>
  <text x="328" y="1808" class="line">mut variants := Vec.new(Str)</text>
  <text x="328" y="1826" class="line">mut payload_types := Map.new(I64, Str)</text>
  <text x="328" y="1844" class="line">mut total_enum_size : I32 = 0</text>
  <rect x="314" y="1870" width="252" height="82" rx="10" ry="10" class="box"/>
  <text x="328" y="1908" class="title">AssignData: StructDef</text>
  <text x="328" y="1926" class="line">mut name := &quot;&quot;</text>
  <text x="328" y="1944" class="line">mut save_old_delete := false</text>
  <rect x="314" y="1970" width="188" height="82" rx="10" ry="10" class="box"/>
  <text x="328" y="2008" class="title">ForInData: StructDef</text>
  <text x="328" y="2026" class="line">mut name := &quot;&quot;</text>
  <text x="328" y="2044" class="line">mut is_mut := false</text>
  <rect x="314" y="2070" width="180" height="568" rx="10" ry="10" class="box"/>
  <text x="328" y="2108" class="title">NodeType: EnumDef</text>
  <text x="328" y="2126" class="line">Body</text>
  <text x="328" y="2144" class="line">LiteralStr:Str</text>
  <text x="328" y="2162" class="line">LiteralNum:Str</text>
  <text x="328" y="2180" class="line">LiteralBool:Bool</text>
  <text x="328" y="2198" class="line">LiteralNull</text>
  <text x="328" y="2216" class="line">Ident:Str</text>
  <text x="328" y="2234" class="line">Decl:Declaration</text>
  <text x="328" y="2252" class="line">Assign:AssignData</text>
  <text x="328" y="2270" class="line">FCall:FCallData</text>
  <text x="328" y="2288" class="line">FuncDef:FunctionDef</text>
  <text x="328" y="2306" class="line">StructDef:StructDef</text>
  <text x="328" y="2324" class="line">EnumDef:EnumDef</text>
  <text x="328" y="2342" class="line">FieldAccess:Str</text>
  <text x="328" y="2360" class="line">FieldAssign:Str</text>
  <text x="328" y="2378" class="line">Return</text>
  <text x="328" y="2396" class="line">If</text>
  <text x="328" y="2414" class="line">While</text>
  <text x="328" y="2432" class="line">ForIn:ForInData</text>
  <text x="328" y="2450" class="line">NamedArg:Str</text>
  <text x="328" y="2468" class="line">Break</text>
  <text x="328" y="2486" class="line">Continue</text>
  <text x="328" y="2504" class="line">MapLit</text>
  <text x="328" y="2522" class="line">SetLit</text>
  <text x="328" y="2540" class="line">Switch</text>
  <text x="328" y="2558" class="line">Case</text>
  <text x="328" y="2576" class="line">NoDefaultArg</text>
  <text x="328" y="2594" class="line">Throw</text>
  <text x="328" y="2612" class="line">Catch</text>
  <text x="328" y="2630" class="line">RestPattern</text>
  <rect x="314" y="2656" width="268" height="136" rx="10" ry="10" class="box"/>
  <text x="328" y="2694" class="title">Expr: StructDef</text>
  <text x="328" y="2712" class="line">mut node_type := NodeType.Body</text>
  <text x="328" y="2730" class="line">mut til_type := Type.Unknown</text>
  <text x="328" y="2748" class="line">mut children := Vec.new(Expr)</text>
  <text x="328" y="2766" class="line">mut line : U32 = 0</text>
  <text x="328" y="2784" class="line">mut col : U32 = 0</text>
  <rect x="940" y="24" width="332" height="218" rx="14" ry="14" class="panel"/>
  <text x="960" y="62" class="panel-label">parser</text>
  <rect x="960" y="88" width="292" height="136" rx="10" ry="10" class="box"/>
  <text x="974" y="126" class="title">Parser: StructDef</text>
  <text x="974" y="144" class="line">mut tokens := Vec.new(Token)</text>
  <text x="974" y="162" class="line">mut pos : USize = 0</text>
  <text x="974" y="180" class="line">mut path := &quot;&quot;</text>
  <text x="974" y="198" class="line">mut fn_sig_decls := Vec.new(Expr)</text>
  <text x="974" y="216" class="line">mut pending_doc := &quot;&quot;</text>
  <rect x="1306" y="24" width="428" height="1410" rx="14" ry="14" class="panel"/>
  <text x="1326" y="62" class="panel-label">initer</text>
  <rect x="1326" y="88" width="284" height="370" rx="10" ry="10" class="box"/>
  <text x="1340" y="126" class="title">TypeBinding: StructDef</text>
  <text x="1340" y="144" class="line">mut name := &quot;&quot;</text>
  <text x="1340" y="162" class="line">mut type := Type.Unknown</text>
  <text x="1340" y="180" class="line">mut func_type := FuncType.None</text>
  <text x="1340" y="198" class="line">mut is_mut := false</text>
  <text x="1340" y="216" class="line">mut is_priv := false</text>
  <text x="1340" y="234" class="line">mut path := &quot;&quot;</text>
  <text x="1340" y="252" class="line">mut line : U32 = 0</text>
  <text x="1340" y="270" class="line">mut col : U32 = 0</text>
  <text x="1340" y="288" class="line">mut is_param := false</text>
  <text x="1340" y="306" class="line">mut own_type := OwnType.Shallow</text>
  <text x="1340" y="324" class="line">mut is_alias := false</text>
  <text x="1340" y="342" class="line">mut is_type_alias := false</text>
  <text x="1340" y="360" class="line">mut alias_target := &quot;&quot;</text>
  <text x="1340" y="378" class="line">ref mut struct_def : Expr = NULL</text>
  <text x="1340" y="396" class="line">ref mut func_def : Expr = NULL</text>
  <text x="1340" y="414" class="line">mut is_builtin := false</text>
  <text x="1340" y="432" class="line">mut used := false</text>
  <text x="1340" y="450" class="line">mut orig_name := &quot;&quot;</text>
  <rect x="1326" y="476" width="180" height="82" rx="10" ry="10" class="box"/>
  <text x="1340" y="514" class="title">ScopeFind: EnumDef</text>
  <text x="1340" y="532" class="line">NotFound</text>
  <text x="1340" y="550" class="line">Found:TypeBinding }</text>
  <rect x="1326" y="576" width="356" height="82" rx="10" ry="10" class="box"/>
  <text x="1340" y="614" class="title">TypeScope: StructDef</text>
  <text x="1340" y="632" class="line">mut bindings := Map.new(Str, TypeBinding)</text>
  <text x="1340" y="650" class="line">ref mut parent : TypeScope = NULL</text>
  <rect x="1326" y="676" width="380" height="100" rx="10" ry="10" class="box"/>
  <text x="1340" y="714" class="title">ImportUnit: StructDef</text>
  <text x="1340" y="732" class="line">mut mode := Mode()</text>
  <text x="1340" y="750" class="line">own mut ast := Expr.new(NodeType.Body, 0, 0)</text>
  <text x="1340" y="768" class="line">mut imports := Vec.new(Str)</text>
  <rect x="1326" y="794" width="388" height="622" rx="10" ry="10" class="box"/>
  <text x="1340" y="832" class="title">Context: StructDef</text>
  <text x="1340" y="850" class="line">mut mode := Mode()</text>
  <text x="1340" y="868" class="line">mut path := &quot;&quot;</text>
  <text x="1340" y="886" class="line">mut path_modes := Map.new(Str, Mode)</text>
  <text x="1340" y="904" class="line">mut imported := Map.new(Str, ImportUnit)</text>
  <text x="1340" y="922" class="line">mut imports_init_done := Set.new(Str)</text>
  <text x="1340" y="940" class="line">mut imports_typer_done := Set.new(Str)</text>
  <text x="1340" y="958" class="line">mut imports_precomp_done := Set.new(Str)</text>
  <text x="1340" y="976" class="line">mut imports_eval_done := Set.new(Str)</text>
  <text x="1340" y="994" class="line">mut scope := TypeScope()</text>
  <text x="1340" y="1012" class="line">mut is_repl := false</text>
  <text x="1340" y="1030" class="line">mut typing_namespace_member := false</text>
  <text x="1340" y="1048" class="line">mut local_fn_sigs := Map.new(Str, Dynamic)</text>
  <text x="1340" y="1066" class="line">mut func_defs := Map.new(Str, Dynamic)</text>
  <text x="1340" y="1084" class="line">mut struct_def_exprs := Map.new(Str, Dynamic)</text>
  <text x="1340" y="1102" class="line">mut funcsig_names := Set.new(Str)</text>
  <text x="1340" y="1120" class="line">mut script_globals := Set.new(Str)</text>
  <text x="1340" y="1138" class="line">mut ref_globals := Set.new(Str)</text>
  <text x="1340" y="1156" class="line">mut throw_type_registry := Vec.new(Str)</text>
  <text x="1340" y="1174" class="line">mut throws_names_global := Vec.new(Str)</text>
  <text x="1340" y="1192" class="line">mut throws_per_global := Vec.new(Vec)</text>
  <text x="1340" y="1210" class="line">mut stack_locals := Set.new(Str)</text>
  <text x="1340" y="1228" class="line">mut stack_local_types := Map.new(Str, Str)</text>
  <text x="1340" y="1246" class="line">mut unsafe_to_hoist := Set.new(Str)</text>
  <text x="1340" y="1264" class="line">mut ref_locals := Set.new(Str)</text>
  <text x="1340" y="1282" class="line">mut ref_dyn_locals := Set.new(Str)</text>
  <text x="1340" y="1300" class="line">ref mut current_fdef : Expr = NULL</text>
  <text x="1340" y="1318" class="line">ref mut cached_str_def : Expr = NULL</text>
  <text x="1340" y="1336" class="line">ref mut cached_str_name : Str = NULL</text>
  <text x="1340" y="1354" class="line">ref mut cached_array_def : Expr = NULL</text>
  <text x="1340" y="1372" class="line">ref mut cached_array_name : Str = NULL</text>
  <text x="1340" y="1390" class="line">ref mut cached_vec_def : Expr = NULL</text>
  <text x="1340" y="1408" class="line">ref mut cached_vec_name : Str = NULL</text>
  <rect x="1768" y="24" width="372" height="282" rx="14" ry="14" class="panel"/>
  <text x="1788" y="62" class="panel-label">typer</text>
  <rect x="1788" y="88" width="156" height="82" rx="10" ry="10" class="box"/>
  <text x="1802" y="126" class="title">CtorArg: EnumDef</text>
  <text x="1802" y="144" class="line">Unfilled</text>
  <text x="1802" y="162" class="line">Filled:Expr</text>
  <rect x="1788" y="188" width="332" height="100" rx="10" ry="10" class="box"/>
  <text x="1802" y="226" class="title">CoverageNode: StructDef</text>
  <text x="1802" y="244" class="line">mut fully_covered := false</text>
  <text x="1802" y="262" class="line">mut sub_names := Vec.new(Str)</text>
  <text x="1802" y="280" class="line">mut sub_nodes := Vec.new(CoverageNode)</text>
  <rect x="2174" y="24" width="120" height="82" rx="14" ry="14" class="panel"/>
  <text x="2194" y="62" class="panel-label">precomp</text>
  <rect x="2328" y="24" width="120" height="82" rx="14" ry="14" class="panel"/>
  <text x="2348" y="62" class="panel-label">scavenger</text>
  <rect x="2482" y="24" width="308" height="490" rx="14" ry="14" class="panel"/>
  <text x="2502" y="62" class="panel-label">builder</text>
  <rect x="2502" y="88" width="268" height="82" rx="10" ry="10" class="box"/>
  <text x="2516" y="126" class="title">CollectionInfo: StructDef</text>
  <text x="2516" y="144" class="line">ref mut type_name : Str = NULL</text>
  <text x="2516" y="162" class="line">mut is_vec : I32 = 0</text>
  <rect x="2502" y="188" width="244" height="100" rx="10" ry="10" class="box"/>
  <text x="2516" y="226" class="title">DynCallInfo: StructDef</text>
  <text x="2516" y="244" class="line">ref mut method : Str = NULL</text>
  <text x="2516" y="262" class="line">mut nargs : I32 = 1</text>
  <text x="2516" y="280" class="line">mut has_return := false</text>
  <rect x="2502" y="306" width="196" height="190" rx="10" ry="10" class="box"/>
  <text x="2516" y="344" class="title">BuildPaths: StructDef</text>
  <text x="2516" y="362" class="line">mut name := &quot;&quot;</text>
  <text x="2516" y="380" class="line">mut c_path := &quot;&quot;</text>
  <text x="2516" y="398" class="line">mut bin_path := &quot;&quot;</text>
  <text x="2516" y="416" class="line">mut fwd_path := &quot;&quot;</text>
  <text x="2516" y="434" class="line">mut h_path := &quot;&quot;</text>
  <text x="2516" y="452" class="line">mut til_path := &quot;&quot;</text>
  <text x="2516" y="470" class="line">mut py_path := &quot;&quot;</text>
  <text x="2516" y="488" class="line">mut do_lib := false</text>
  <rect x="2824" y="24" width="340" height="536" rx="14" ry="14" class="panel"/>
  <text x="2844" y="62" class="panel-label">dispatch</text>
  <rect x="2844" y="88" width="220" height="100" rx="10" ry="10" class="box"/>
  <text x="2858" y="126" class="title">ExtStr: StructDef</text>
  <text x="2858" y="144" class="line">ref mut data : U8 = NULL</text>
  <text x="2858" y="162" class="line">mut count : U64 = 0</text>
  <text x="2858" y="180" class="line">mut cap : U64 = 0</text>
  <rect x="2844" y="206" width="300" height="172" rx="10" ry="10" class="box"/>
  <text x="2858" y="244" class="title">FFIEntry: StructDef</text>
  <text x="2858" y="262" class="line">ref mut fn : U8 = NULL</text>
  <text x="2858" y="280" class="line">ref mut return_type : Str = NULL</text>
  <text x="2858" y="298" class="line">mut nparam : I32 = 0</text>
  <text x="2858" y="316" class="line">ref mut param_shallows : U8 = NULL</text>
  <text x="2858" y="334" class="line">mut return_is_shallow := false</text>
  <text x="2858" y="352" class="line">ref mut cif : ffi_cif = NULL</text>
  <text x="2858" y="370" class="line">ref mut arg_types : Dynamic = NULL</text>
  <rect x="2844" y="396" width="228" height="64" rx="10" ry="10" class="box"/>
  <text x="2858" y="434" class="title">ExprPtrBox: StructDef</text>
  <text x="2858" y="452" class="line">ref mut ptr : Expr = NULL</text>
  <rect x="2844" y="478" width="260" height="64" rx="10" ry="10" class="box"/>
  <text x="2858" y="516" class="title">FFITypePtrBox: StructDef</text>
  <text x="2858" y="534" class="line">ref mut ptr : ffi_type = NULL</text>
  <rect x="3198" y="24" width="364" height="934" rx="14" ry="14" class="panel"/>
  <text x="3218" y="62" class="panel-label">interpreter</text>
  <rect x="3218" y="88" width="284" height="118" rx="10" ry="10" class="box"/>
  <text x="3232" y="126" class="title">StructInstance: StructDef</text>
  <text x="3232" y="144" class="line">ref mut struct_name : Str = NULL</text>
  <text x="3232" y="162" class="line">ref mut struct_def : Expr = NULL</text>
  <text x="3232" y="180" class="line">own mut data : U8 = 0</text>
  <text x="3232" y="198" class="line">mut borrowed := false</text>
  <rect x="3218" y="224" width="268" height="118" rx="10" ry="10" class="box"/>
  <text x="3232" y="262" class="title">EnumInstance: StructDef</text>
  <text x="3232" y="280" class="line">ref mut enum_name : Str = NULL</text>
  <text x="3232" y="298" class="line">ref mut enum_def : Expr = NULL</text>
  <text x="3232" y="316" class="line">own mut data : U8 = 0</text>
  <text x="3232" y="334" class="line">mut data_size : I32 = 0</text>
  <rect x="3218" y="360" width="196" height="280" rx="10" ry="10" class="box"/>
  <text x="3232" y="398" class="title">Value: EnumDef</text>
  <text x="3232" y="416" class="line">None</text>
  <text x="3232" y="434" class="line">Int:I64</text>
  <text x="3232" y="452" class="line">Byte:U8</text>
  <text x="3232" y="470" class="line">Short:I16</text>
  <text x="3232" y="488" class="line">Int32:I32</text>
  <text x="3232" y="506" class="line">Uint32:U32</text>
  <text x="3232" y="524" class="line">Uint64:U64</text>
  <text x="3232" y="542" class="line">Float:F32</text>
  <text x="3232" y="560" class="line">Boolean:Bool</text>
  <text x="3232" y="578" class="line">Func:Dynamic</text>
  <text x="3232" y="596" class="line">Struct:StructInstance</text>
  <text x="3232" y="614" class="line">Enum:EnumInstance</text>
  <text x="3232" y="632" class="line">Ptr:Dynamic</text>
  <rect x="3218" y="658" width="196" height="64" rx="10" ry="10" class="box"/>
  <text x="3232" y="696" class="title">Cell: StructDef</text>
  <text x="3232" y="714" class="line">mut val := Value.None</text>
  <rect x="3218" y="740" width="236" height="100" rx="10" ry="10" class="box"/>
  <text x="3232" y="778" class="title">Binding: StructDef</text>
  <text x="3232" y="796" class="line">ref mut name : Str = NULL</text>
  <text x="3232" y="814" class="line">ref mut cell : Cell = NULL</text>
  <text x="3232" y="832" class="line">mut cell_is_local := false</text>
  <rect x="3218" y="858" width="324" height="82" rx="10" ry="10" class="box"/>
  <text x="3232" y="896" class="title">Scope: StructDef</text>
  <text x="3232" y="914" class="line">mut bindings := Map.new(Str, Binding)</text>
  <text x="3232" y="932" class="line">ref mut parent : Scope = NULL</text>
  <rect x="3596" y="24" width="268" height="254" rx="14" ry="14" class="panel"/>
  <text x="3616" y="62" class="panel-label">modes</text>
  <rect x="3616" y="88" width="228" height="172" rx="10" ry="10" class="box"/>
  <text x="3630" y="126" class="title">Mode: StructDef</text>
  <text x="3630" y="144" class="line">mut needs_main := false</text>
  <text x="3630" y="162" class="line">mut decls_only := true</text>
  <text x="3630" y="180" class="line">mut auto_import := &quot;&quot;</text>
  <text x="3630" y="198" class="line">mut is_library := false</text>
  <text x="3630" y="216" class="line">mut is_pure := false</text>
  <text x="3630" y="234" class="line">mut run_tests := false</text>
  <text x="3630" y="252" class="line">mut debug_prints := false</text>
</svg>
