<svg xmlns="http://www.w3.org/2000/svg" width="3628" height="2608" viewBox="0 0 3628 2608">
  <defs>
    <style>
      .bg { fill: #f7f5ef; }
      .panel { fill: none; stroke: #c8c2b7; stroke-width: 2; stroke-dasharray: 10 7; }
      .panel-label { font: 700 18px Georgia, serif; fill: #6b7280; }
      .box { fill: #fffdf8; stroke: #334155; stroke-width: 2; }
      .title { font: 700 16px 'Courier New', monospace; fill: #111827; }
      .line { font: 13px 'Courier New', monospace; fill: #1f2937; }
    </style>
  </defs>
  <rect class="bg" x="0" y="0" width="3628" height="2608"/>
  <rect x="24" y="24" width="356" height="2058" rx="14" ry="14" class="panel"/>
  <text x="44" y="62" class="panel-label">hôb´“il</text>
  <rect x="44" y="88" width="172" height="1360" rx="10" ry="10" class="box"/>
  <text x="58" y="126" class="title">TokenType: EnumDef</text>
  <text x="58" y="144" class="line">Eof</text>
  <text x="58" y="162" class="line">LParen</text>
  <text x="58" y="180" class="line">RParen</text>
  <text x="58" y="198" class="line">LBrace</text>
  <text x="58" y="216" class="line">RBrace</text>
  <text x="58" y="234" class="line">LBracket</text>
  <text x="58" y="252" class="line">RBracket</text>
  <text x="58" y="270" class="line">Comma</text>
  <text x="58" y="288" class="line">Colon</text>
  <text x="58" y="306" class="line">Question</text>
  <text x="58" y="324" class="line">Bang</text>
  <text x="58" y="342" class="line">Minus</text>
  <text x="58" y="360" class="line">Plus</text>
  <text x="58" y="378" class="line">Star</text>
  <text x="58" y="396" class="line">Slash</text>
  <text x="58" y="414" class="line">Percent</text>
  <text x="58" y="432" class="line">Ampersand</text>
  <text x="58" y="450" class="line">Pipe</text>
  <text x="58" y="468" class="line">Caret</text>
  <text x="58" y="486" class="line">Dot</text>
  <text x="58" y="504" class="line">DotDot</text>
  <text x="58" y="522" class="line">DotDotDot</text>
  <text x="58" y="540" class="line">Eq</text>
  <text x="58" y="558" class="line">EqEq</text>
  <text x="58" y="576" class="line">Neq</text>
  <text x="58" y="594" class="line">Lt</text>
  <text x="58" y="612" class="line">LtEq</text>
  <text x="58" y="630" class="line">Gt</text>
  <text x="58" y="648" class="line">GtEq</text>
  <text x="58" y="666" class="line">PlusPlus</text>
  <text x="58" y="684" class="line">MinusMinus</text>
  <text x="58" y="702" class="line">ColonEq</text>
  <text x="58" y="720" class="line">Ident</text>
  <text x="58" y="738" class="line">StringTok</text>
  <text x="58" y="756" class="line">Number</text>
  <text x="58" y="774" class="line">Char</text>
  <text x="58" y="792" class="line">DocComment</text>
  <text x="58" y="810" class="line">KwMut</text>
  <text x="58" y="828" class="line">KwOwn</text>
  <text x="58" y="846" class="line">KwRef</text>
  <text x="58" y="864" class="line">KwShallow</text>
  <text x="58" y="882" class="line">KwStruct</text>
  <text x="58" y="900" class="line">KwEnum</text>
  <text x="58" y="918" class="line">KwNamespace</text>
  <text x="58" y="936" class="line">KwFunc</text>
  <text x="58" y="954" class="line">KwProc</text>
  <text x="58" y="972" class="line">KwTest</text>
  <text x="58" y="990" class="line">KwMacro</text>
  <text x="58" y="1008" class="line">KwExtFunc</text>
  <text x="58" y="1026" class="line">KwExtProc</text>
  <text x="58" y="1044" class="line">KwExtStruct</text>
  <text x="58" y="1062" class="line">KwReturns</text>
  <text x="58" y="1080" class="line">KwThrows</text>
  <text x="58" y="1098" class="line">KwIf</text>
  <text x="58" y="1116" class="line">KwElse</text>
  <text x="58" y="1134" class="line">KwWhile</text>
  <text x="58" y="1152" class="line">KwFor</text>
  <text x="58" y="1170" class="line">KwIn</text>
  <text x="58" y="1188" class="line">KwSwitch</text>
  <text x="58" y="1206" class="line">KwMatch</text>
  <text x="58" y="1224" class="line">KwCase</text>
  <text x="58" y="1242" class="line">KwDefault</text>
  <text x="58" y="1260" class="line">KwReturn</text>
  <text x="58" y="1278" class="line">KwThrow</text>
  <text x="58" y="1296" class="line">KwCatch</text>
  <text x="58" y="1314" class="line">KwBreak</text>
  <text x="58" y="1332" class="line">KwContinue</text>
  <text x="58" y="1350" class="line">KwDefer</text>
  <text x="58" y="1368" class="line">KwTrue</text>
  <text x="58" y="1386" class="line">KwFalse</text>
  <text x="58" y="1404" class="line">KwNull</text>
  <text x="58" y="1422" class="line">KwPriv</text>
  <text x="58" y="1440" class="line">Error</text>
  <rect x="44" y="1466" width="196" height="118" rx="10" ry="10" class="box"/>
  <text x="58" y="1504" class="title">Token: StructDef</text>
  <text x="58" y="1522" class="line">type := TokenType.Eof</text>
  <text x="58" y="1540" class="line">text := &quot;&quot;</text>
  <text x="58" y="1558" class="line">line : U32 = 0</text>
  <text x="58" y="1576" class="line">col : U32 = 0</text>
  <rect x="44" y="1602" width="316" height="172" rx="10" ry="10" class="box"/>
  <text x="58" y="1640" class="title">LocalInfo: StructDef</text>
  <text x="58" y="1658" class="line">ref mut name : Str = NULL</text>
  <text x="58" y="1676" class="line">mut type := Type.Unknown</text>
  <text x="58" y="1694" class="line">mut decl_index : I32 = 0</text>
  <text x="58" y="1712" class="line">mut last_use : I32 = 0</text>
  <text x="58" y="1730" class="line">mut own_transfer : I32 = -1.to_i32()</text>
  <text x="58" y="1748" class="line">mut skip_scope_delete := false</text>
  <text x="58" y="1766" class="line">mut is_heap := false</text>
  <rect x="44" y="1792" width="156" height="82" rx="10" ry="10" class="box"/>
  <text x="58" y="1830" class="title">CtorArg: EnumDef</text>
  <text x="58" y="1848" class="line">Unfilled</text>
  <text x="58" y="1866" class="line">Filled:Expr</text>
  <rect x="44" y="1892" width="228" height="172" rx="10" ry="10" class="box"/>
  <text x="58" y="1930" class="title">Mode: StructDef</text>
  <text x="58" y="1948" class="line">mut needs_main := false</text>
  <text x="58" y="1966" class="line">mut decls_only := true</text>
  <text x="58" y="1984" class="line">mut auto_import := &quot;&quot;</text>
  <text x="58" y="2002" class="line">mut is_library := false</text>
  <text x="58" y="2020" class="line">mut is_pure := false</text>
  <text x="58" y="2038" class="line">mut run_tests := false</text>
  <text x="58" y="2056" class="line">mut debug_prints := false</text>
  <rect x="414" y="24" width="612" height="2560" rx="14" ry="14" class="panel"/>
  <text x="434" y="62" class="panel-label">hôb´“</text>
  <rect x="434" y="88" width="132" height="370" rx="10" ry="10" class="box"/>
  <text x="448" y="126" class="title">Type: EnumDef</text>
  <text x="448" y="144" class="line">Unknown</text>
  <text x="448" y="162" class="line">None</text>
  <text x="448" y="180" class="line">I64</text>
  <text x="448" y="198" class="line">U8</text>
  <text x="448" y="216" class="line">I16</text>
  <text x="448" y="234" class="line">I32</text>
  <text x="448" y="252" class="line">U32</text>
  <text x="448" y="270" class="line">U64</text>
  <text x="448" y="288" class="line">F32</text>
  <text x="448" y="306" class="line">Bool</text>
  <text x="448" y="324" class="line">Struct:Str</text>
  <text x="448" y="342" class="line">StructDef</text>
  <text x="448" y="360" class="line">Enum:Str</text>
  <text x="448" y="378" class="line">EnumDef</text>
  <text x="448" y="396" class="line">FuncDef</text>
  <text x="448" y="414" class="line">FuncPtr</text>
  <text x="448" y="432" class="line">Dynamic</text>
  <text x="448" y="450" class="line">Custom:Str</text>
  <rect x="434" y="476" width="164" height="172" rx="10" ry="10" class="box"/>
  <text x="448" y="514" class="title">FuncType: EnumDef</text>
  <text x="448" y="532" class="line">None</text>
  <text x="448" y="550" class="line">Func</text>
  <text x="448" y="568" class="line">Proc</text>
  <text x="448" y="586" class="line">Test</text>
  <text x="448" y="604" class="line">Macro</text>
  <text x="448" y="622" class="line">ExtFunc</text>
  <text x="448" y="640" class="line">ExtProc</text>
  <rect x="434" y="666" width="156" height="100" rx="10" ry="10" class="box"/>
  <text x="448" y="704" class="title">OwnType: EnumDef</text>
  <text x="448" y="722" class="line">Own</text>
  <text x="448" y="740" class="line">Ref</text>
  <text x="448" y="758" class="line">Shallow</text>
  <rect x="434" y="784" width="572" height="262" rx="10" ry="10" class="box"/>
  <text x="448" y="822" class="title">Declaration: StructDef</text>
  <text x="448" y="840" class="line">mut name := &quot;&quot;</text>
  <text x="448" y="858" class="line">mut doc := &quot;&quot;</text>
  <text x="448" y="876" class="line">mut explicit_type := &quot;&quot;</text>
  <text x="448" y="894" class="line">mut is_mut := false</text>
  <text x="448" y="912" class="line">mut is_priv := false</text>
  <text x="448" y="930" class="line">mut used := false</text>
  <text x="448" y="948" class="line">mut own_type := OwnType.Shallow</text>
  <text x="448" y="966" class="line">mut til_type := Type.Unknown</text>
  <text x="448" y="984" class="line">mut field_offset : I32 = 0</text>
  <text x="448" y="1002" class="line">mut field_size : I32 = 0</text>
  <text x="448" y="1020" class="line">ref mut field_struct_def : Expr = NULL</text>
  <text x="448" y="1038" class="line">own mut default_value : Expr = Expr.new(NodeType.NoDefaultArg, 0, 0)</text>
  <rect x="434" y="1064" width="332" height="172" rx="10" ry="10" class="box"/>
  <text x="448" y="1102" class="title">FunctionDef: StructDef</text>
  <text x="448" y="1120" class="line">mut func_type := FuncType.Func</text>
  <text x="448" y="1138" class="line">mut params := Vec.new(Declaration)</text>
  <text x="448" y="1156" class="line">mut return_type := &quot;&quot;</text>
  <text x="448" y="1174" class="line">mut variadic_index : I32 = -1.to_i32()</text>
  <text x="448" y="1192" class="line">mut kwargs_index : I32 = -1.to_i32()</text>
  <text x="448" y="1210" class="line">mut return_own_type := OwnType.Own</text>
  <text x="448" y="1228" class="line">mut auto_generated := false</text>
  <rect x="434" y="1254" width="332" height="154" rx="10" ry="10" class="box"/>
  <text x="448" y="1292" class="title">FCallData: StructDef</text>
  <text x="448" y="1310" class="line">mut variadic_index : I32 = -1.to_i32()</text>
  <text x="448" y="1328" class="line">mut variadic_count : USize = 0</text>
  <text x="448" y="1346" class="line">mut kwargs_index : I32 = -1.to_i32()</text>
  <text x="448" y="1364" class="line">mut kwargs_count : USize = 0</text>
  <text x="448" y="1382" class="line">mut is_splat := false</text>
  <text x="448" y="1400" class="line">mut own_args : U64 = 0</text>
  <rect x="434" y="1426" width="316" height="118" rx="10" ry="10" class="box"/>
  <text x="448" y="1464" class="title">StructDef: StructDef</text>
  <text x="448" y="1482" class="line">mut total_struct_size : I32 = 0</text>
  <text x="448" y="1500" class="line">mut fields := Vec.new(Declaration)</text>
  <text x="448" y="1518" class="line">mut ns_decls := Vec.new(Declaration)</text>
  <text x="448" y="1536" class="line">mut c_tag := &quot;&quot;</text>
  <rect x="434" y="1562" width="332" height="118" rx="10" ry="10" class="box"/>
  <text x="448" y="1600" class="title">EnumDef: StructDef</text>
  <text x="448" y="1618" class="line">mut ns_decls := Vec.new(Declaration)</text>
  <text x="448" y="1636" class="line">mut variants := Vec.new(Str)</text>
  <text x="448" y="1654" class="line">mut payload_types := Map.new(I64, Str)</text>
  <text x="448" y="1672" class="line">mut total_enum_size : I32 = 0</text>
  <rect x="434" y="1698" width="252" height="82" rx="10" ry="10" class="box"/>
  <text x="448" y="1736" class="title">AssignData: StructDef</text>
  <text x="448" y="1754" class="line">mut name := &quot;&quot;</text>
  <text x="448" y="1772" class="line">mut save_old_delete := false</text>
  <rect x="434" y="1798" width="188" height="82" rx="10" ry="10" class="box"/>
  <text x="448" y="1836" class="title">ForInData: StructDef</text>
  <text x="448" y="1854" class="line">mut name := &quot;&quot;</text>
  <text x="448" y="1872" class="line">mut is_mut := false</text>
  <rect x="434" y="1898" width="180" height="514" rx="10" ry="10" class="box"/>
  <text x="448" y="1936" class="title">NodeType: EnumDef</text>
  <text x="448" y="1954" class="line">Body</text>
  <text x="448" y="1972" class="line">LiteralStr:Str</text>
  <text x="448" y="1990" class="line">LiteralNum:Str</text>
  <text x="448" y="2008" class="line">LiteralBool:Bool</text>
  <text x="448" y="2026" class="line">LiteralNull</text>
  <text x="448" y="2044" class="line">Ident:Str</text>
  <text x="448" y="2062" class="line">Decl:Declaration</text>
  <text x="448" y="2080" class="line">Assign:AssignData</text>
  <text x="448" y="2098" class="line">FCall:FCallData</text>
  <text x="448" y="2116" class="line">FuncDef:FunctionDef</text>
  <text x="448" y="2134" class="line">StructDef:StructDef</text>
  <text x="448" y="2152" class="line">EnumDef:EnumDef</text>
  <text x="448" y="2170" class="line">FieldAccess:Str</text>
  <text x="448" y="2188" class="line">FieldAssign:Str</text>
  <text x="448" y="2206" class="line">Return</text>
  <text x="448" y="2224" class="line">If</text>
  <text x="448" y="2242" class="line">While</text>
  <text x="448" y="2260" class="line">ForIn:ForInData</text>
  <text x="448" y="2278" class="line">NamedArg:Str</text>
  <text x="448" y="2296" class="line">Break</text>
  <text x="448" y="2314" class="line">Continue</text>
  <text x="448" y="2332" class="line">MapLit</text>
  <text x="448" y="2350" class="line">SetLit</text>
  <text x="448" y="2368" class="line">Switch</text>
  <text x="448" y="2386" class="line">Case</text>
  <text x="448" y="2404" class="line">NoDefaultArg</text>
  <rect x="434" y="2430" width="268" height="136" rx="10" ry="10" class="box"/>
  <text x="448" y="2468" class="title">Expr: StructDef</text>
  <text x="448" y="2486" class="line">mut node_type := NodeType.Body</text>
  <text x="448" y="2504" class="line">mut til_type := Type.Unknown</text>
  <text x="448" y="2522" class="line">mut children := Vec.new(Expr)</text>
  <text x="448" y="2540" class="line">mut line : U32 = 0</text>
  <text x="448" y="2558" class="line">mut col : U32 = 0</text>
  <rect x="1060" y="24" width="428" height="1510" rx="14" ry="14" class="panel"/>
  <text x="1080" y="62" class="panel-label">hôb´“til</text>
  <rect x="1080" y="88" width="292" height="154" rx="10" ry="10" class="box"/>
  <text x="1094" y="126" class="title">Parser: StructDef</text>
  <text x="1094" y="144" class="line">mut tokens := Vec.new(Token)</text>
  <text x="1094" y="162" class="line">mut pos : USize = 0</text>
  <text x="1094" y="180" class="line">mut path := &quot;&quot;</text>
  <text x="1094" y="198" class="line">mut fn_sig_decls := Vec.new(Expr)</text>
  <text x="1094" y="216" class="line">mut lambda_decls := Vec.new(Expr)</text>
  <text x="1094" y="234" class="line">mut pending_doc := &quot;&quot;</text>
  <rect x="1080" y="260" width="284" height="370" rx="10" ry="10" class="box"/>
  <text x="1094" y="298" class="title">TypeBinding: StructDef</text>
  <text x="1094" y="316" class="line">mut name := &quot;&quot;</text>
  <text x="1094" y="334" class="line">mut type := Type.Unknown</text>
  <text x="1094" y="352" class="line">mut func_type := FuncType.None</text>
  <text x="1094" y="370" class="line">mut is_mut := false</text>
  <text x="1094" y="388" class="line">mut is_priv := false</text>
  <text x="1094" y="406" class="line">mut priv_err_reported := false</text>
  <text x="1094" y="424" class="line">mut path := &quot;&quot;</text>
  <text x="1094" y="442" class="line">mut line : U32 = 0</text>
  <text x="1094" y="460" class="line">mut col : U32 = 0</text>
  <text x="1094" y="478" class="line">mut is_param := false</text>
  <text x="1094" y="496" class="line">mut own_type := OwnType.Shallow</text>
  <text x="1094" y="514" class="line">mut is_alias := false</text>
  <text x="1094" y="532" class="line">mut is_type_alias := false</text>
  <text x="1094" y="550" class="line">mut alias_target := &quot;&quot;</text>
  <text x="1094" y="568" class="line">ref mut struct_def : Expr = NULL</text>
  <text x="1094" y="586" class="line">ref mut func_def : Expr = NULL</text>
  <text x="1094" y="604" class="line">mut is_builtin := false</text>
  <text x="1094" y="622" class="line">mut used := false</text>
  <rect x="1080" y="648" width="180" height="82" rx="10" ry="10" class="box"/>
  <text x="1094" y="686" class="title">ScopeFind: EnumDef</text>
  <text x="1094" y="704" class="line">NotFound</text>
  <text x="1094" y="722" class="line">Found:TypeBinding }</text>
  <rect x="1080" y="748" width="356" height="82" rx="10" ry="10" class="box"/>
  <text x="1094" y="786" class="title">TypeScope: StructDef</text>
  <text x="1094" y="804" class="line">mut bindings := Map.new(Str, TypeBinding)</text>
  <text x="1094" y="822" class="line">ref mut parent : TypeScope = NULL</text>
  <rect x="1080" y="848" width="380" height="100" rx="10" ry="10" class="box"/>
  <text x="1094" y="886" class="title">ImportUnit: StructDef</text>
  <text x="1094" y="904" class="line">mut mode := Mode()</text>
  <text x="1094" y="922" class="line">own mut ast := Expr.new(NodeType.Body, 0, 0)</text>
  <text x="1094" y="940" class="line">mut imports := Vec.new(Str)</text>
  <rect x="1080" y="966" width="388" height="550" rx="10" ry="10" class="box"/>
  <text x="1094" y="1004" class="title">Context: StructDef</text>
  <text x="1094" y="1022" class="line">mut mode := Mode()</text>
  <text x="1094" y="1040" class="line">mut path := &quot;&quot;</text>
  <text x="1094" y="1058" class="line">mut path_modes := Map.new(Str, Mode)</text>
  <text x="1094" y="1076" class="line">mut imported := Map.new(Str, ImportUnit)</text>
  <text x="1094" y="1094" class="line">mut imports_init_done := Set.new(Str)</text>
  <text x="1094" y="1112" class="line">mut imports_typer_done := Set.new(Str)</text>
  <text x="1094" y="1130" class="line">mut imports_precomp_done := Set.new(Str)</text>
  <text x="1094" y="1148" class="line">mut imports_eval_done := Set.new(Str)</text>
  <text x="1094" y="1166" class="line">mut scope := TypeScope()</text>
  <text x="1094" y="1184" class="line">mut is_repl := false</text>
  <text x="1094" y="1202" class="line">mut local_fn_sigs := Map.new(Str, Dynamic)</text>
  <text x="1094" y="1220" class="line">mut func_defs := Map.new(Str, Dynamic)</text>
  <text x="1094" y="1238" class="line">mut struct_def_exprs := Map.new(Str, Dynamic)</text>
  <text x="1094" y="1256" class="line">mut funcsig_names := Set.new(Str)</text>
  <text x="1094" y="1274" class="line">mut script_globals := Set.new(Str)</text>
  <text x="1094" y="1292" class="line">mut ref_globals := Set.new(Str)</text>
  <text x="1094" y="1310" class="line">mut stack_locals := Set.new(Str)</text>
  <text x="1094" y="1328" class="line">mut stack_local_types := Map.new(Str, Str)</text>
  <text x="1094" y="1346" class="line">mut unsafe_to_hoist := Set.new(Str)</text>
  <text x="1094" y="1364" class="line">mut ref_locals := Set.new(Str)</text>
  <text x="1094" y="1382" class="line">mut ref_dyn_locals := Set.new(Str)</text>
  <text x="1094" y="1400" class="line">ref mut current_fdef : Expr = NULL</text>
  <text x="1094" y="1418" class="line">ref mut cached_str_def : Expr = NULL</text>
  <text x="1094" y="1436" class="line">ref mut cached_str_name : Str = NULL</text>
  <text x="1094" y="1454" class="line">ref mut cached_array_def : Expr = NULL</text>
  <text x="1094" y="1472" class="line">ref mut cached_array_name : Str = NULL</text>
  <text x="1094" y="1490" class="line">ref mut cached_vec_def : Expr = NULL</text>
  <text x="1094" y="1508" class="line">ref mut cached_vec_name : Str = NULL</text>
  <rect x="1522" y="24" width="428" height="1510" rx="14" ry="14" class="panel"/>
  <text x="1542" y="62" class="panel-label">hôb´“til</text>
  <rect x="1542" y="88" width="292" height="154" rx="10" ry="10" class="box"/>
  <text x="1556" y="126" class="title">Parser: StructDef</text>
  <text x="1556" y="144" class="line">mut tokens := Vec.new(Token)</text>
  <text x="1556" y="162" class="line">mut pos : USize = 0</text>
  <text x="1556" y="180" class="line">mut path := &quot;&quot;</text>
  <text x="1556" y="198" class="line">mut fn_sig_decls := Vec.new(Expr)</text>
  <text x="1556" y="216" class="line">mut lambda_decls := Vec.new(Expr)</text>
  <text x="1556" y="234" class="line">mut pending_doc := &quot;&quot;</text>
  <rect x="1542" y="260" width="284" height="370" rx="10" ry="10" class="box"/>
  <text x="1556" y="298" class="title">TypeBinding: StructDef</text>
  <text x="1556" y="316" class="line">mut name := &quot;&quot;</text>
  <text x="1556" y="334" class="line">mut type := Type.Unknown</text>
  <text x="1556" y="352" class="line">mut func_type := FuncType.None</text>
  <text x="1556" y="370" class="line">mut is_mut := false</text>
  <text x="1556" y="388" class="line">mut is_priv := false</text>
  <text x="1556" y="406" class="line">mut priv_err_reported := false</text>
  <text x="1556" y="424" class="line">mut path := &quot;&quot;</text>
  <text x="1556" y="442" class="line">mut line : U32 = 0</text>
  <text x="1556" y="460" class="line">mut col : U32 = 0</text>
  <text x="1556" y="478" class="line">mut is_param := false</text>
  <text x="1556" y="496" class="line">mut own_type := OwnType.Shallow</text>
  <text x="1556" y="514" class="line">mut is_alias := false</text>
  <text x="1556" y="532" class="line">mut is_type_alias := false</text>
  <text x="1556" y="550" class="line">mut alias_target := &quot;&quot;</text>
  <text x="1556" y="568" class="line">ref mut struct_def : Expr = NULL</text>
  <text x="1556" y="586" class="line">ref mut func_def : Expr = NULL</text>
  <text x="1556" y="604" class="line">mut is_builtin := false</text>
  <text x="1556" y="622" class="line">mut used := false</text>
  <rect x="1542" y="648" width="180" height="82" rx="10" ry="10" class="box"/>
  <text x="1556" y="686" class="title">ScopeFind: EnumDef</text>
  <text x="1556" y="704" class="line">NotFound</text>
  <text x="1556" y="722" class="line">Found:TypeBinding }</text>
  <rect x="1542" y="748" width="356" height="82" rx="10" ry="10" class="box"/>
  <text x="1556" y="786" class="title">TypeScope: StructDef</text>
  <text x="1556" y="804" class="line">mut bindings := Map.new(Str, TypeBinding)</text>
  <text x="1556" y="822" class="line">ref mut parent : TypeScope = NULL</text>
  <rect x="1542" y="848" width="380" height="100" rx="10" ry="10" class="box"/>
  <text x="1556" y="886" class="title">ImportUnit: StructDef</text>
  <text x="1556" y="904" class="line">mut mode := Mode()</text>
  <text x="1556" y="922" class="line">own mut ast := Expr.new(NodeType.Body, 0, 0)</text>
  <text x="1556" y="940" class="line">mut imports := Vec.new(Str)</text>
  <rect x="1542" y="966" width="388" height="550" rx="10" ry="10" class="box"/>
  <text x="1556" y="1004" class="title">Context: StructDef</text>
  <text x="1556" y="1022" class="line">mut mode := Mode()</text>
  <text x="1556" y="1040" class="line">mut path := &quot;&quot;</text>
  <text x="1556" y="1058" class="line">mut path_modes := Map.new(Str, Mode)</text>
  <text x="1556" y="1076" class="line">mut imported := Map.new(Str, ImportUnit)</text>
  <text x="1556" y="1094" class="line">mut imports_init_done := Set.new(Str)</text>
  <text x="1556" y="1112" class="line">mut imports_typer_done := Set.new(Str)</text>
  <text x="1556" y="1130" class="line">mut imports_precomp_done := Set.new(Str)</text>
  <text x="1556" y="1148" class="line">mut imports_eval_done := Set.new(Str)</text>
  <text x="1556" y="1166" class="line">mut scope := TypeScope()</text>
  <text x="1556" y="1184" class="line">mut is_repl := false</text>
  <text x="1556" y="1202" class="line">mut local_fn_sigs := Map.new(Str, Dynamic)</text>
  <text x="1556" y="1220" class="line">mut func_defs := Map.new(Str, Dynamic)</text>
  <text x="1556" y="1238" class="line">mut struct_def_exprs := Map.new(Str, Dynamic)</text>
  <text x="1556" y="1256" class="line">mut funcsig_names := Set.new(Str)</text>
  <text x="1556" y="1274" class="line">mut script_globals := Set.new(Str)</text>
  <text x="1556" y="1292" class="line">mut ref_globals := Set.new(Str)</text>
  <text x="1556" y="1310" class="line">mut stack_locals := Set.new(Str)</text>
  <text x="1556" y="1328" class="line">mut stack_local_types := Map.new(Str, Str)</text>
  <text x="1556" y="1346" class="line">mut unsafe_to_hoist := Set.new(Str)</text>
  <text x="1556" y="1364" class="line">mut ref_locals := Set.new(Str)</text>
  <text x="1556" y="1382" class="line">mut ref_dyn_locals := Set.new(Str)</text>
  <text x="1556" y="1400" class="line">ref mut current_fdef : Expr = NULL</text>
  <text x="1556" y="1418" class="line">ref mut cached_str_def : Expr = NULL</text>
  <text x="1556" y="1436" class="line">ref mut cached_str_name : Str = NULL</text>
  <text x="1556" y="1454" class="line">ref mut cached_array_def : Expr = NULL</text>
  <text x="1556" y="1472" class="line">ref mut cached_array_name : Str = NULL</text>
  <text x="1556" y="1490" class="line">ref mut cached_vec_def : Expr = NULL</text>
  <text x="1556" y="1508" class="line">ref mut cached_vec_name : Str = NULL</text>
  <rect x="1984" y="24" width="356" height="2058" rx="14" ry="14" class="panel"/>
  <text x="2004" y="62" class="panel-label">hôb´“il</text>
  <rect x="2004" y="88" width="172" height="1360" rx="10" ry="10" class="box"/>
  <text x="2018" y="126" class="title">TokenType: EnumDef</text>
  <text x="2018" y="144" class="line">Eof</text>
  <text x="2018" y="162" class="line">LParen</text>
  <text x="2018" y="180" class="line">RParen</text>
  <text x="2018" y="198" class="line">LBrace</text>
  <text x="2018" y="216" class="line">RBrace</text>
  <text x="2018" y="234" class="line">LBracket</text>
  <text x="2018" y="252" class="line">RBracket</text>
  <text x="2018" y="270" class="line">Comma</text>
  <text x="2018" y="288" class="line">Colon</text>
  <text x="2018" y="306" class="line">Question</text>
  <text x="2018" y="324" class="line">Bang</text>
  <text x="2018" y="342" class="line">Minus</text>
  <text x="2018" y="360" class="line">Plus</text>
  <text x="2018" y="378" class="line">Star</text>
  <text x="2018" y="396" class="line">Slash</text>
  <text x="2018" y="414" class="line">Percent</text>
  <text x="2018" y="432" class="line">Ampersand</text>
  <text x="2018" y="450" class="line">Pipe</text>
  <text x="2018" y="468" class="line">Caret</text>
  <text x="2018" y="486" class="line">Dot</text>
  <text x="2018" y="504" class="line">DotDot</text>
  <text x="2018" y="522" class="line">DotDotDot</text>
  <text x="2018" y="540" class="line">Eq</text>
  <text x="2018" y="558" class="line">EqEq</text>
  <text x="2018" y="576" class="line">Neq</text>
  <text x="2018" y="594" class="line">Lt</text>
  <text x="2018" y="612" class="line">LtEq</text>
  <text x="2018" y="630" class="line">Gt</text>
  <text x="2018" y="648" class="line">GtEq</text>
  <text x="2018" y="666" class="line">PlusPlus</text>
  <text x="2018" y="684" class="line">MinusMinus</text>
  <text x="2018" y="702" class="line">ColonEq</text>
  <text x="2018" y="720" class="line">Ident</text>
  <text x="2018" y="738" class="line">StringTok</text>
  <text x="2018" y="756" class="line">Number</text>
  <text x="2018" y="774" class="line">Char</text>
  <text x="2018" y="792" class="line">DocComment</text>
  <text x="2018" y="810" class="line">KwMut</text>
  <text x="2018" y="828" class="line">KwOwn</text>
  <text x="2018" y="846" class="line">KwRef</text>
  <text x="2018" y="864" class="line">KwShallow</text>
  <text x="2018" y="882" class="line">KwStruct</text>
  <text x="2018" y="900" class="line">KwEnum</text>
  <text x="2018" y="918" class="line">KwNamespace</text>
  <text x="2018" y="936" class="line">KwFunc</text>
  <text x="2018" y="954" class="line">KwProc</text>
  <text x="2018" y="972" class="line">KwTest</text>
  <text x="2018" y="990" class="line">KwMacro</text>
  <text x="2018" y="1008" class="line">KwExtFunc</text>
  <text x="2018" y="1026" class="line">KwExtProc</text>
  <text x="2018" y="1044" class="line">KwExtStruct</text>
  <text x="2018" y="1062" class="line">KwReturns</text>
  <text x="2018" y="1080" class="line">KwThrows</text>
  <text x="2018" y="1098" class="line">KwIf</text>
  <text x="2018" y="1116" class="line">KwElse</text>
  <text x="2018" y="1134" class="line">KwWhile</text>
  <text x="2018" y="1152" class="line">KwFor</text>
  <text x="2018" y="1170" class="line">KwIn</text>
  <text x="2018" y="1188" class="line">KwSwitch</text>
  <text x="2018" y="1206" class="line">KwMatch</text>
  <text x="2018" y="1224" class="line">KwCase</text>
  <text x="2018" y="1242" class="line">KwDefault</text>
  <text x="2018" y="1260" class="line">KwReturn</text>
  <text x="2018" y="1278" class="line">KwThrow</text>
  <text x="2018" y="1296" class="line">KwCatch</text>
  <text x="2018" y="1314" class="line">KwBreak</text>
  <text x="2018" y="1332" class="line">KwContinue</text>
  <text x="2018" y="1350" class="line">KwDefer</text>
  <text x="2018" y="1368" class="line">KwTrue</text>
  <text x="2018" y="1386" class="line">KwFalse</text>
  <text x="2018" y="1404" class="line">KwNull</text>
  <text x="2018" y="1422" class="line">KwPriv</text>
  <text x="2018" y="1440" class="line">Error</text>
  <rect x="2004" y="1466" width="196" height="118" rx="10" ry="10" class="box"/>
  <text x="2018" y="1504" class="title">Token: StructDef</text>
  <text x="2018" y="1522" class="line">type := TokenType.Eof</text>
  <text x="2018" y="1540" class="line">text := &quot;&quot;</text>
  <text x="2018" y="1558" class="line">line : U32 = 0</text>
  <text x="2018" y="1576" class="line">col : U32 = 0</text>
  <rect x="2004" y="1602" width="316" height="172" rx="10" ry="10" class="box"/>
  <text x="2018" y="1640" class="title">LocalInfo: StructDef</text>
  <text x="2018" y="1658" class="line">ref mut name : Str = NULL</text>
  <text x="2018" y="1676" class="line">mut type := Type.Unknown</text>
  <text x="2018" y="1694" class="line">mut decl_index : I32 = 0</text>
  <text x="2018" y="1712" class="line">mut last_use : I32 = 0</text>
  <text x="2018" y="1730" class="line">mut own_transfer : I32 = -1.to_i32()</text>
  <text x="2018" y="1748" class="line">mut skip_scope_delete := false</text>
  <text x="2018" y="1766" class="line">mut is_heap := false</text>
  <rect x="2004" y="1792" width="156" height="82" rx="10" ry="10" class="box"/>
  <text x="2018" y="1830" class="title">CtorArg: EnumDef</text>
  <text x="2018" y="1848" class="line">Unfilled</text>
  <text x="2018" y="1866" class="line">Filled:Expr</text>
  <rect x="2004" y="1892" width="228" height="172" rx="10" ry="10" class="box"/>
  <text x="2018" y="1930" class="title">Mode: StructDef</text>
  <text x="2018" y="1948" class="line">mut needs_main := false</text>
  <text x="2018" y="1966" class="line">mut decls_only := true</text>
  <text x="2018" y="1984" class="line">mut auto_import := &quot;&quot;</text>
  <text x="2018" y="2002" class="line">mut is_library := false</text>
  <text x="2018" y="2020" class="line">mut is_pure := false</text>
  <text x="2018" y="2038" class="line">mut run_tests := false</text>
  <text x="2018" y="2056" class="line">mut debug_prints := false</text>
  <rect x="2374" y="24" width="172" height="452" rx="14" ry="14" class="panel"/>
  <text x="2394" y="62" class="panel-label">       </text>
  <rect x="2394" y="88" width="132" height="370" rx="10" ry="10" class="box"/>
  <text x="2408" y="126" class="title">Type: EnumDef</text>
  <text x="2408" y="144" class="line">Unknown</text>
  <text x="2408" y="162" class="line">None</text>
  <text x="2408" y="180" class="line">I64</text>
  <text x="2408" y="198" class="line">U8</text>
  <text x="2408" y="216" class="line">I16</text>
  <text x="2408" y="234" class="line">I32</text>
  <text x="2408" y="252" class="line">U32</text>
  <text x="2408" y="270" class="line">U64</text>
  <text x="2408" y="288" class="line">F32</text>
  <text x="2408" y="306" class="line">Bool</text>
  <text x="2408" y="324" class="line">Struct:Str</text>
  <text x="2408" y="342" class="line">StructDef</text>
  <text x="2408" y="360" class="line">Enum:Str</text>
  <text x="2408" y="378" class="line">EnumDef</text>
  <text x="2408" y="396" class="line">FuncDef</text>
  <text x="2408" y="414" class="line">FuncPtr</text>
  <text x="2408" y="432" class="line">Dynamic</text>
  <text x="2408" y="450" class="line">Custom:Str</text>
  <rect x="2580" y="24" width="120" height="82" rx="14" ry="14" class="panel"/>
  <text x="2600" y="62" class="panel-label">       er</text>
  <rect x="2734" y="24" width="172" height="452" rx="14" ry="14" class="panel"/>
  <text x="2754" y="62" class="panel-label">       </text>
  <rect x="2754" y="88" width="132" height="370" rx="10" ry="10" class="box"/>
  <text x="2768" y="126" class="title">Type: EnumDef</text>
  <text x="2768" y="144" class="line">Unknown</text>
  <text x="2768" y="162" class="line">None</text>
  <text x="2768" y="180" class="line">I64</text>
  <text x="2768" y="198" class="line">U8</text>
  <text x="2768" y="216" class="line">I16</text>
  <text x="2768" y="234" class="line">I32</text>
  <text x="2768" y="252" class="line">U32</text>
  <text x="2768" y="270" class="line">U64</text>
  <text x="2768" y="288" class="line">F32</text>
  <text x="2768" y="306" class="line">Bool</text>
  <text x="2768" y="324" class="line">Struct:Str</text>
  <text x="2768" y="342" class="line">StructDef</text>
  <text x="2768" y="360" class="line">Enum:Str</text>
  <text x="2768" y="378" class="line">EnumDef</text>
  <text x="2768" y="396" class="line">FuncDef</text>
  <text x="2768" y="414" class="line">FuncPtr</text>
  <text x="2768" y="432" class="line">Dynamic</text>
  <text x="2768" y="450" class="line">Custom:Str</text>
  <rect x="2940" y="24" width="120" height="82" rx="14" ry="14" class="panel"/>
  <text x="2960" y="62" class="panel-label">       h</text>
  <rect x="3094" y="24" width="120" height="82" rx="14" ry="14" class="panel"/>
  <text x="3114" y="62" class="panel-label">hôb´“eter</text>
  <rect x="3248" y="24" width="356" height="2058" rx="14" ry="14" class="panel"/>
  <text x="3268" y="62" class="panel-label">hôb´“il</text>
  <rect x="3268" y="88" width="172" height="1360" rx="10" ry="10" class="box"/>
  <text x="3282" y="126" class="title">TokenType: EnumDef</text>
  <text x="3282" y="144" class="line">Eof</text>
  <text x="3282" y="162" class="line">LParen</text>
  <text x="3282" y="180" class="line">RParen</text>
  <text x="3282" y="198" class="line">LBrace</text>
  <text x="3282" y="216" class="line">RBrace</text>
  <text x="3282" y="234" class="line">LBracket</text>
  <text x="3282" y="252" class="line">RBracket</text>
  <text x="3282" y="270" class="line">Comma</text>
  <text x="3282" y="288" class="line">Colon</text>
  <text x="3282" y="306" class="line">Question</text>
  <text x="3282" y="324" class="line">Bang</text>
  <text x="3282" y="342" class="line">Minus</text>
  <text x="3282" y="360" class="line">Plus</text>
  <text x="3282" y="378" class="line">Star</text>
  <text x="3282" y="396" class="line">Slash</text>
  <text x="3282" y="414" class="line">Percent</text>
  <text x="3282" y="432" class="line">Ampersand</text>
  <text x="3282" y="450" class="line">Pipe</text>
  <text x="3282" y="468" class="line">Caret</text>
  <text x="3282" y="486" class="line">Dot</text>
  <text x="3282" y="504" class="line">DotDot</text>
  <text x="3282" y="522" class="line">DotDotDot</text>
  <text x="3282" y="540" class="line">Eq</text>
  <text x="3282" y="558" class="line">EqEq</text>
  <text x="3282" y="576" class="line">Neq</text>
  <text x="3282" y="594" class="line">Lt</text>
  <text x="3282" y="612" class="line">LtEq</text>
  <text x="3282" y="630" class="line">Gt</text>
  <text x="3282" y="648" class="line">GtEq</text>
  <text x="3282" y="666" class="line">PlusPlus</text>
  <text x="3282" y="684" class="line">MinusMinus</text>
  <text x="3282" y="702" class="line">ColonEq</text>
  <text x="3282" y="720" class="line">Ident</text>
  <text x="3282" y="738" class="line">StringTok</text>
  <text x="3282" y="756" class="line">Number</text>
  <text x="3282" y="774" class="line">Char</text>
  <text x="3282" y="792" class="line">DocComment</text>
  <text x="3282" y="810" class="line">KwMut</text>
  <text x="3282" y="828" class="line">KwOwn</text>
  <text x="3282" y="846" class="line">KwRef</text>
  <text x="3282" y="864" class="line">KwShallow</text>
  <text x="3282" y="882" class="line">KwStruct</text>
  <text x="3282" y="900" class="line">KwEnum</text>
  <text x="3282" y="918" class="line">KwNamespace</text>
  <text x="3282" y="936" class="line">KwFunc</text>
  <text x="3282" y="954" class="line">KwProc</text>
  <text x="3282" y="972" class="line">KwTest</text>
  <text x="3282" y="990" class="line">KwMacro</text>
  <text x="3282" y="1008" class="line">KwExtFunc</text>
  <text x="3282" y="1026" class="line">KwExtProc</text>
  <text x="3282" y="1044" class="line">KwExtStruct</text>
  <text x="3282" y="1062" class="line">KwReturns</text>
  <text x="3282" y="1080" class="line">KwThrows</text>
  <text x="3282" y="1098" class="line">KwIf</text>
  <text x="3282" y="1116" class="line">KwElse</text>
  <text x="3282" y="1134" class="line">KwWhile</text>
  <text x="3282" y="1152" class="line">KwFor</text>
  <text x="3282" y="1170" class="line">KwIn</text>
  <text x="3282" y="1188" class="line">KwSwitch</text>
  <text x="3282" y="1206" class="line">KwMatch</text>
  <text x="3282" y="1224" class="line">KwCase</text>
  <text x="3282" y="1242" class="line">KwDefault</text>
  <text x="3282" y="1260" class="line">KwReturn</text>
  <text x="3282" y="1278" class="line">KwThrow</text>
  <text x="3282" y="1296" class="line">KwCatch</text>
  <text x="3282" y="1314" class="line">KwBreak</text>
  <text x="3282" y="1332" class="line">KwContinue</text>
  <text x="3282" y="1350" class="line">KwDefer</text>
  <text x="3282" y="1368" class="line">KwTrue</text>
  <text x="3282" y="1386" class="line">KwFalse</text>
  <text x="3282" y="1404" class="line">KwNull</text>
  <text x="3282" y="1422" class="line">KwPriv</text>
  <text x="3282" y="1440" class="line">Error</text>
  <rect x="3268" y="1466" width="196" height="118" rx="10" ry="10" class="box"/>
  <text x="3282" y="1504" class="title">Token: StructDef</text>
  <text x="3282" y="1522" class="line">type := TokenType.Eof</text>
  <text x="3282" y="1540" class="line">text := &quot;&quot;</text>
  <text x="3282" y="1558" class="line">line : U32 = 0</text>
  <text x="3282" y="1576" class="line">col : U32 = 0</text>
  <rect x="3268" y="1602" width="316" height="172" rx="10" ry="10" class="box"/>
  <text x="3282" y="1640" class="title">LocalInfo: StructDef</text>
  <text x="3282" y="1658" class="line">ref mut name : Str = NULL</text>
  <text x="3282" y="1676" class="line">mut type := Type.Unknown</text>
  <text x="3282" y="1694" class="line">mut decl_index : I32 = 0</text>
  <text x="3282" y="1712" class="line">mut last_use : I32 = 0</text>
  <text x="3282" y="1730" class="line">mut own_transfer : I32 = -1.to_i32()</text>
  <text x="3282" y="1748" class="line">mut skip_scope_delete := false</text>
  <text x="3282" y="1766" class="line">mut is_heap := false</text>
  <rect x="3268" y="1792" width="156" height="82" rx="10" ry="10" class="box"/>
  <text x="3282" y="1830" class="title">CtorArg: EnumDef</text>
  <text x="3282" y="1848" class="line">Unfilled</text>
  <text x="3282" y="1866" class="line">Filled:Expr</text>
  <rect x="3268" y="1892" width="228" height="172" rx="10" ry="10" class="box"/>
  <text x="3282" y="1930" class="title">Mode: StructDef</text>
  <text x="3282" y="1948" class="line">mut needs_main := false</text>
  <text x="3282" y="1966" class="line">mut decls_only := true</text>
  <text x="3282" y="1984" class="line">mut auto_import := &quot;&quot;</text>
  <text x="3282" y="2002" class="line">mut is_library := false</text>
  <text x="3282" y="2020" class="line">mut is_pure := false</text>
  <text x="3282" y="2038" class="line">mut run_tests := false</text>
  <text x="3282" y="2056" class="line">mut debug_prints := false</text>
</svg>
