<svg xmlns="http://www.w3.org/2000/svg" width="4536" height="2490" viewBox="0 0 4536 2490">
  <defs>
    <style>
      .bg { fill: #f7f5ef; }
      .panel { fill: none; stroke: #c8c2b7; stroke-width: 2; stroke-dasharray: 10 7; }
      .panel-label { font: 700 18px Georgia, serif; fill: #6b7280; }
      .box { fill: #fffdf8; stroke: #334155; stroke-width: 2; }
      .title { font: 700 16px 'Courier New', monospace; fill: #111827; }
      .line { font: 13px 'Courier New', monospace; fill: #1f2937; }
    </style>
  </defs>
  <rect class="bg" x="0" y="0" width="4536" height="2490"/>
  <rect x="24" y="24" width="236" height="1560" rx="14" ry="14" class="panel"/>
  <text x="44" y="62" class="panel-label">lexer</text>
  <rect x="44" y="88" width="172" height="1342" rx="10" ry="10" class="box"/>
  <text x="58" y="126" class="title">TokenType: EnumDef</text>
  <text x="58" y="144" class="line">Eof</text>
  <text x="58" y="162" class="line">LParen</text>
  <text x="58" y="180" class="line">RParen</text>
  <text x="58" y="198" class="line">LBrace</text>
  <text x="58" y="216" class="line">RBrace</text>
  <text x="58" y="234" class="line">LBracket</text>
  <text x="58" y="252" class="line">RBracket</text>
  <text x="58" y="270" class="line">Comma</text>
  <text x="58" y="288" class="line">Colon</text>
  <text x="58" y="306" class="line">Question</text>
  <text x="58" y="324" class="line">Bang</text>
  <text x="58" y="342" class="line">Minus</text>
  <text x="58" y="360" class="line">Plus</text>
  <text x="58" y="378" class="line">Star</text>
  <text x="58" y="396" class="line">Slash</text>
  <text x="58" y="414" class="line">Percent</text>
  <text x="58" y="432" class="line">Ampersand</text>
  <text x="58" y="450" class="line">Pipe</text>
  <text x="58" y="468" class="line">Caret</text>
  <text x="58" y="486" class="line">Dot</text>
  <text x="58" y="504" class="line">DotDot</text>
  <text x="58" y="522" class="line">DotDotDot</text>
  <text x="58" y="540" class="line">Eq</text>
  <text x="58" y="558" class="line">EqEq</text>
  <text x="58" y="576" class="line">Neq</text>
  <text x="58" y="594" class="line">Lt</text>
  <text x="58" y="612" class="line">LtEq</text>
  <text x="58" y="630" class="line">Gt</text>
  <text x="58" y="648" class="line">GtEq</text>
  <text x="58" y="666" class="line">PlusPlus</text>
  <text x="58" y="684" class="line">MinusMinus</text>
  <text x="58" y="702" class="line">ColonEq</text>
  <text x="58" y="720" class="line">Ident</text>
  <text x="58" y="738" class="line">StringTok</text>
  <text x="58" y="756" class="line">Number</text>
  <text x="58" y="774" class="line">Char</text>
  <text x="58" y="792" class="line">DocComment</text>
  <text x="58" y="810" class="line">KwMut</text>
  <text x="58" y="828" class="line">KwOwn</text>
  <text x="58" y="846" class="line">KwRef</text>
  <text x="58" y="864" class="line">KwShallow</text>
  <text x="58" y="882" class="line">KwStruct</text>
  <text x="58" y="900" class="line">KwEnum</text>
  <text x="58" y="918" class="line">KwNamespace</text>
  <text x="58" y="936" class="line">KwFunc</text>
  <text x="58" y="954" class="line">KwProc</text>
  <text x="58" y="972" class="line">KwTest</text>
  <text x="58" y="990" class="line">KwMacro</text>
  <text x="58" y="1008" class="line">KwExtFunc</text>
  <text x="58" y="1026" class="line">KwExtProc</text>
  <text x="58" y="1044" class="line">KwExtStruct</text>
  <text x="58" y="1062" class="line">KwReturns</text>
  <text x="58" y="1080" class="line">KwThrows</text>
  <text x="58" y="1098" class="line">KwIf</text>
  <text x="58" y="1116" class="line">KwElse</text>
  <text x="58" y="1134" class="line">KwWhile</text>
  <text x="58" y="1152" class="line">KwFor</text>
  <text x="58" y="1170" class="line">KwIn</text>
  <text x="58" y="1188" class="line">KwSwitch</text>
  <text x="58" y="1206" class="line">KwMatch</text>
  <text x="58" y="1224" class="line">KwCase</text>
  <text x="58" y="1242" class="line">KwDefault</text>
  <text x="58" y="1260" class="line">KwReturn</text>
  <text x="58" y="1278" class="line">KwThrow</text>
  <text x="58" y="1296" class="line">KwCatch</text>
  <text x="58" y="1314" class="line">KwBreak</text>
  <text x="58" y="1332" class="line">KwContinue</text>
  <text x="58" y="1350" class="line">KwDefer</text>
  <text x="58" y="1368" class="line">KwTrue</text>
  <text x="58" y="1386" class="line">KwFalse</text>
  <text x="58" y="1404" class="line">KwNull</text>
  <text x="58" y="1422" class="line">Error</text>
  <rect x="44" y="1448" width="196" height="118" rx="10" ry="10" class="box"/>
  <text x="58" y="1486" class="title">Token: StructDef</text>
  <text x="58" y="1504" class="line">type := TokenType.Eof</text>
  <text x="58" y="1522" class="line">text := &quot;&quot;</text>
  <text x="58" y="1540" class="line">line : U32 = 0</text>
  <text x="58" y="1558" class="line">col : U32 = 0</text>
  <rect x="294" y="24" width="644" height="2442" rx="14" ry="14" class="panel"/>
  <text x="314" y="62" class="panel-label">ast</text>
  <rect x="314" y="88" width="156" height="370" rx="10" ry="10" class="box"/>
  <text x="328" y="126" class="title">TilType: EnumDef</text>
  <text x="328" y="144" class="line">Unknown</text>
  <text x="328" y="162" class="line">None</text>
  <text x="328" y="180" class="line">I64</text>
  <text x="328" y="198" class="line">U8</text>
  <text x="328" y="216" class="line">I16</text>
  <text x="328" y="234" class="line">I32</text>
  <text x="328" y="252" class="line">U32</text>
  <text x="328" y="270" class="line">U64</text>
  <text x="328" y="288" class="line">F32</text>
  <text x="328" y="306" class="line">Bool</text>
  <text x="328" y="324" class="line">Struct:Str</text>
  <text x="328" y="342" class="line">StructDef</text>
  <text x="328" y="360" class="line">Enum:Str</text>
  <text x="328" y="378" class="line">EnumDef</text>
  <text x="328" y="396" class="line">FuncDef</text>
  <text x="328" y="414" class="line">FuncPtr</text>
  <text x="328" y="432" class="line">Dynamic</text>
  <text x="328" y="450" class="line">Custom:Str</text>
  <rect x="314" y="476" width="164" height="172" rx="10" ry="10" class="box"/>
  <text x="328" y="514" class="title">FuncType: EnumDef</text>
  <text x="328" y="532" class="line">None</text>
  <text x="328" y="550" class="line">Func</text>
  <text x="328" y="568" class="line">Proc</text>
  <text x="328" y="586" class="line">Test</text>
  <text x="328" y="604" class="line">Macro</text>
  <text x="328" y="622" class="line">ExtFunc</text>
  <text x="328" y="640" class="line">ExtProc</text>
  <rect x="314" y="666" width="156" height="100" rx="10" ry="10" class="box"/>
  <text x="328" y="704" class="title">OwnType: EnumDef</text>
  <text x="328" y="722" class="line">Own</text>
  <text x="328" y="740" class="line">Ref</text>
  <text x="328" y="758" class="line">Shallow</text>
  <rect x="314" y="784" width="604" height="226" rx="10" ry="10" class="box"/>
  <text x="328" y="822" class="title">Declaration: StructDef</text>
  <text x="328" y="840" class="line">mut name := &quot;&quot;</text>
  <text x="328" y="858" class="line">mut doc := &quot;&quot;</text>
  <text x="328" y="876" class="line">mut explicit_type := &quot;&quot;</text>
  <text x="328" y="894" class="line">mut is_mut := false</text>
  <text x="328" y="912" class="line">mut own_type := OwnType.Shallow</text>
  <text x="328" y="930" class="line">mut til_type := TilType.Unknown</text>
  <text x="328" y="948" class="line">mut field_offset : I32 = 0</text>
  <text x="328" y="966" class="line">mut field_size : I32 = 0</text>
  <text x="328" y="984" class="line">ref mut field_struct_def : Expr = NULL</text>
  <text x="328" y="1002" class="line">own mut default_value : Expr = Expr.new(NodeType.NoDefaultArg, 0, 0, &quot;&quot;)</text>
  <rect x="314" y="1028" width="476" height="154" rx="10" ry="10" class="box"/>
  <text x="328" y="1066" class="title">FunctionDef: StructDef</text>
  <text x="328" y="1084" class="line">mut func_type := FuncType.Func</text>
  <text x="328" y="1102" class="line">mut params := Vec.new(&quot;Declaration&quot;, Declaration.size())</text>
  <text x="328" y="1120" class="line">mut return_type := &quot;&quot;</text>
  <text x="328" y="1138" class="line">mut variadic_index : I32 = -1.to_i32()</text>
  <text x="328" y="1156" class="line">mut kwargs_index : I32 = -1.to_i32()</text>
  <text x="328" y="1174" class="line">mut return_own_type := OwnType.Own</text>
  <rect x="314" y="1200" width="332" height="172" rx="10" ry="10" class="box"/>
  <text x="328" y="1238" class="title">FCallData: StructDef</text>
  <text x="328" y="1256" class="line">mut variadic_index : I32 = -1.to_i32()</text>
  <text x="328" y="1274" class="line">mut variadic_count : USize = 0</text>
  <text x="328" y="1292" class="line">mut kwargs_index : I32 = -1.to_i32()</text>
  <text x="328" y="1310" class="line">mut kwargs_count : USize = 0</text>
  <text x="328" y="1328" class="line">mut is_splat := false</text>
  <text x="328" y="1346" class="line">mut own_args : U64 = 0</text>
  <text x="328" y="1364" class="line">ref mut fn_sig : Expr = NULL</text>
  <rect x="314" y="1390" width="492" height="118" rx="10" ry="10" class="box"/>
  <text x="328" y="1428" class="title">StructDef: StructDef</text>
  <text x="328" y="1446" class="line">mut total_struct_size : I32 = 0</text>
  <text x="328" y="1464" class="line">mut fields := Vec.new(&quot;Declaration&quot;, Declaration.size())</text>
  <text x="328" y="1482" class="line">mut ns_decls := Vec.new(&quot;Declaration&quot;, Declaration.size())</text>
  <text x="328" y="1500" class="line">mut c_tag := &quot;&quot;</text>
  <rect x="314" y="1526" width="556" height="118" rx="10" ry="10" class="box"/>
  <text x="328" y="1564" class="title">EnumDef: StructDef</text>
  <text x="328" y="1582" class="line">mut ns_decls := Vec.new(&quot;Declaration&quot;, Declaration.size())</text>
  <text x="328" y="1600" class="line">mut variants := Vec.new(&quot;Str&quot;, Str.size())</text>
  <text x="328" y="1618" class="line">mut payload_types := Map.new(&quot;I64&quot;, I64.size(), &quot;Str&quot;, Str.size())</text>
  <text x="328" y="1636" class="line">mut total_enum_size : I32 = 0</text>
  <rect x="314" y="1662" width="252" height="82" rx="10" ry="10" class="box"/>
  <text x="328" y="1700" class="title">AssignData: StructDef</text>
  <text x="328" y="1718" class="line">mut name := &quot;&quot;</text>
  <text x="328" y="1736" class="line">mut save_old_delete := false</text>
  <rect x="314" y="1762" width="180" height="514" rx="10" ry="10" class="box"/>
  <text x="328" y="1800" class="title">NodeType: EnumDef</text>
  <text x="328" y="1818" class="line">Body</text>
  <text x="328" y="1836" class="line">LiteralStr:Str</text>
  <text x="328" y="1854" class="line">LiteralNum:Str</text>
  <text x="328" y="1872" class="line">LiteralBool:Bool</text>
  <text x="328" y="1890" class="line">LiteralNull</text>
  <text x="328" y="1908" class="line">Ident:Str</text>
  <text x="328" y="1926" class="line">Decl:Declaration</text>
  <text x="328" y="1944" class="line">Assign:AssignData</text>
  <text x="328" y="1962" class="line">FCall:FCallData</text>
  <text x="328" y="1980" class="line">FuncDef:FunctionDef</text>
  <text x="328" y="1998" class="line">StructDef:StructDef</text>
  <text x="328" y="2016" class="line">EnumDef:EnumDef</text>
  <text x="328" y="2034" class="line">FieldAccess:Str</text>
  <text x="328" y="2052" class="line">FieldAssign:Str</text>
  <text x="328" y="2070" class="line">Return</text>
  <text x="328" y="2088" class="line">If</text>
  <text x="328" y="2106" class="line">While</text>
  <text x="328" y="2124" class="line">ForIn:Str</text>
  <text x="328" y="2142" class="line">NamedArg:Str</text>
  <text x="328" y="2160" class="line">Break</text>
  <text x="328" y="2178" class="line">Continue</text>
  <text x="328" y="2196" class="line">MapLit</text>
  <text x="328" y="2214" class="line">SetLit</text>
  <text x="328" y="2232" class="line">Switch</text>
  <text x="328" y="2250" class="line">Case</text>
  <text x="328" y="2268" class="line">NoDefaultArg</text>
  <rect x="314" y="2294" width="380" height="154" rx="10" ry="10" class="box"/>
  <text x="328" y="2332" class="title">Expr: StructDef</text>
  <text x="328" y="2350" class="line">mut data := NodeType.Body</text>
  <text x="328" y="2368" class="line">mut til_type := TilType.Unknown</text>
  <text x="328" y="2386" class="line">mut children := Vec.new(&quot;Expr&quot;, Expr.size())</text>
  <text x="328" y="2404" class="line">mut line : U32 = 0</text>
  <text x="328" y="2422" class="line">mut col : U32 = 0</text>
  <text x="328" y="2440" class="line">mut path := &quot;&quot;</text>
  <rect x="972" y="24" width="452" height="236" rx="14" ry="14" class="panel"/>
  <text x="992" y="62" class="panel-label">parser</text>
  <rect x="992" y="88" width="412" height="154" rx="10" ry="10" class="box"/>
  <text x="1006" y="126" class="title">Parser: StructDef</text>
  <text x="1006" y="144" class="line">mut tokens := Vec.new(&quot;Token&quot;, Token.size())</text>
  <text x="1006" y="162" class="line">mut pos : USize = 0</text>
  <text x="1006" y="180" class="line">mut path := &quot;&quot;</text>
  <text x="1006" y="198" class="line">mut fn_sig_decls := Vec.new(&quot;Expr&quot;, Expr.size())</text>
  <text x="1006" y="216" class="line">mut lambda_decls := Vec.new(&quot;Expr&quot;, Expr.size())</text>
  <text x="1006" y="234" class="line">mut pending_doc := &quot;&quot;</text>
  <rect x="1458" y="24" width="684" height="734" rx="14" ry="14" class="panel"/>
  <text x="1478" y="62" class="panel-label">initer</text>
  <rect x="1478" y="88" width="292" height="316" rx="10" ry="10" class="box"/>
  <text x="1492" y="126" class="title">TypeBinding: StructDef</text>
  <text x="1492" y="144" class="line">mut name := &quot;&quot;</text>
  <text x="1492" y="162" class="line">mut type := TilType.Unknown</text>
  <text x="1492" y="180" class="line">mut func_type := FuncType.None</text>
  <text x="1492" y="198" class="line">mut is_mut := false</text>
  <text x="1492" y="216" class="line">mut line : U32 = 0</text>
  <text x="1492" y="234" class="line">mut col : U32 = 0</text>
  <text x="1492" y="252" class="line">mut is_param := false</text>
  <text x="1492" y="270" class="line">mut own_type := OwnType.Shallow</text>
  <text x="1492" y="288" class="line">mut is_alias := false</text>
  <text x="1492" y="306" class="line">mut is_type_alias := false</text>
  <text x="1492" y="324" class="line">ref mut alias_target : Str = NULL</text>
  <text x="1492" y="342" class="line">ref mut struct_def : Expr = NULL</text>
  <text x="1492" y="360" class="line">ref mut func_def : Expr = NULL</text>
  <text x="1492" y="378" class="line">mut is_builtin := false</text>
  <text x="1492" y="396" class="line">mut used := false</text>
  <rect x="1478" y="422" width="180" height="82" rx="10" ry="10" class="box"/>
  <text x="1492" y="460" class="title">ScopeFind: EnumDef</text>
  <text x="1492" y="478" class="line">NotFound</text>
  <text x="1492" y="496" class="line">Found:TypeBinding }</text>
  <rect x="1478" y="522" width="644" height="82" rx="10" ry="10" class="box"/>
  <text x="1492" y="560" class="title">TypeScope: StructDef</text>
  <text x="1492" y="578" class="line">mut bindings := Map.new(&quot;Str&quot;, Str.size(), &quot;TypeBinding&quot;, TypeBinding.size())</text>
  <text x="1492" y="596" class="line">ref mut parent : TypeScope = NULL</text>
  <rect x="1478" y="622" width="548" height="118" rx="10" ry="10" class="box"/>
  <text x="1492" y="660" class="title">Context: StructDef</text>
  <text x="1492" y="678" class="line">mut mode := Mode()</text>
  <text x="1492" y="696" class="line">mut path_modes := Map.new(&quot;Str&quot;, Str.size(), &quot;Mode&quot;, Mode.size())</text>
  <text x="1492" y="714" class="line">mut scope := TypeScope()</text>
  <text x="1492" y="732" class="line">mut is_repl := false</text>
  <rect x="2176" y="24" width="356" height="354" rx="14" ry="14" class="panel"/>
  <text x="2196" y="62" class="panel-label">typer</text>
  <rect x="2196" y="88" width="316" height="172" rx="10" ry="10" class="box"/>
  <text x="2210" y="126" class="title">LocalInfo: StructDef</text>
  <text x="2210" y="144" class="line">ref mut name : Str = NULL</text>
  <text x="2210" y="162" class="line">mut type := TilType.Unknown</text>
  <text x="2210" y="180" class="line">mut decl_index : I32 = 0</text>
  <text x="2210" y="198" class="line">mut last_use : I32 = 0</text>
  <text x="2210" y="216" class="line">mut own_transfer : I32 = -1.to_i32()</text>
  <text x="2210" y="234" class="line">mut skip_scope_delete := false</text>
  <text x="2210" y="252" class="line">mut is_heap := false</text>
  <rect x="2196" y="278" width="156" height="82" rx="10" ry="10" class="box"/>
  <text x="2210" y="316" class="title">CtorArg: EnumDef</text>
  <text x="2210" y="334" class="line">Unfilled</text>
  <text x="2210" y="352" class="line">Filled:Expr</text>
  <rect x="2566" y="24" width="120" height="82" rx="14" ry="14" class="panel"/>
  <text x="2586" y="62" class="panel-label">precomp</text>
  <rect x="2720" y="24" width="120" height="82" rx="14" ry="14" class="panel"/>
  <text x="2740" y="62" class="panel-label">scavenger</text>
  <rect x="2874" y="24" width="308" height="490" rx="14" ry="14" class="panel"/>
  <text x="2894" y="62" class="panel-label">builder</text>
  <rect x="2894" y="88" width="268" height="82" rx="10" ry="10" class="box"/>
  <text x="2908" y="126" class="title">CollectionInfo: StructDef</text>
  <text x="2908" y="144" class="line">ref mut type_name : Str = NULL</text>
  <text x="2908" y="162" class="line">mut is_vec : I32 = 0</text>
  <rect x="2894" y="188" width="244" height="100" rx="10" ry="10" class="box"/>
  <text x="2908" y="226" class="title">DynCallInfo: StructDef</text>
  <text x="2908" y="244" class="line">ref mut method : Str = NULL</text>
  <text x="2908" y="262" class="line">mut nargs : I32 = 1</text>
  <text x="2908" y="280" class="line">mut has_return := false</text>
  <rect x="2894" y="306" width="196" height="190" rx="10" ry="10" class="box"/>
  <text x="2908" y="344" class="title">BuildPaths: StructDef</text>
  <text x="2908" y="362" class="line">mut name := &quot;&quot;</text>
  <text x="2908" y="380" class="line">mut c_path := &quot;&quot;</text>
  <text x="2908" y="398" class="line">mut bin_path := &quot;&quot;</text>
  <text x="2908" y="416" class="line">mut fwd_path := &quot;&quot;</text>
  <text x="2908" y="434" class="line">mut h_path := &quot;&quot;</text>
  <text x="2908" y="452" class="line">mut til_path := &quot;&quot;</text>
  <text x="2908" y="470" class="line">mut py_path := &quot;&quot;</text>
  <text x="2908" y="488" class="line">mut do_lib := false</text>
  <rect x="3216" y="24" width="340" height="844" rx="14" ry="14" class="panel"/>
  <text x="3236" y="62" class="panel-label">dispatch</text>
  <rect x="3236" y="88" width="220" height="100" rx="10" ry="10" class="box"/>
  <text x="3250" y="126" class="title">ExtStr: StructDef</text>
  <text x="3250" y="144" class="line">ref mut data : U8 = NULL</text>
  <text x="3250" y="162" class="line">mut count : U64 = 0</text>
  <text x="3250" y="180" class="line">mut cap : U64 = 0</text>
  <rect x="3236" y="206" width="292" height="118" rx="10" ry="10" class="box"/>
  <text x="3250" y="244" class="title">ffi_type: StructDef</text>
  <text x="3250" y="262" class="line">mut size : USize = 0</text>
  <text x="3250" y="280" class="line">mut alignment : I16 = 0</text>
  <text x="3250" y="298" class="line">mut type : I16 = 0</text>
  <text x="3250" y="316" class="line">ref mut elements : Dynamic = NULL</text>
  <rect x="3236" y="342" width="300" height="154" rx="10" ry="10" class="box"/>
  <text x="3250" y="380" class="title">ffi_cif: StructDef</text>
  <text x="3250" y="398" class="line">mut abi : I32 = 0</text>
  <text x="3250" y="416" class="line">mut nargs : U32 = 0</text>
  <text x="3250" y="434" class="line">ref mut arg_types : Dynamic = NULL</text>
  <text x="3250" y="452" class="line">ref mut rtype : Dynamic = NULL</text>
  <text x="3250" y="470" class="line">mut bytes : U32 = 0</text>
  <text x="3250" y="488" class="line">mut flags : U32 = 0</text>
  <rect x="3236" y="514" width="300" height="172" rx="10" ry="10" class="box"/>
  <text x="3250" y="552" class="title">FFIEntry: StructDef</text>
  <text x="3250" y="570" class="line">ref mut fn : U8 = NULL</text>
  <text x="3250" y="588" class="line">ref mut return_type : Str = NULL</text>
  <text x="3250" y="606" class="line">mut nparam : I32 = 0</text>
  <text x="3250" y="624" class="line">ref mut param_shallows : U8 = NULL</text>
  <text x="3250" y="642" class="line">mut return_is_shallow := false</text>
  <text x="3250" y="660" class="line">ref mut cif : ffi_cif = NULL</text>
  <text x="3250" y="678" class="line">ref mut arg_types : Dynamic = NULL</text>
  <rect x="3236" y="704" width="228" height="64" rx="10" ry="10" class="box"/>
  <text x="3250" y="742" class="title">ExprPtrBox: StructDef</text>
  <text x="3250" y="760" class="line">ref mut ptr : Expr = NULL</text>
  <rect x="3236" y="786" width="260" height="64" rx="10" ry="10" class="box"/>
  <text x="3250" y="824" class="title">FFITypePtrBox: StructDef</text>
  <text x="3250" y="842" class="line">ref mut ptr : ffi_type = NULL</text>
  <rect x="3590" y="24" width="620" height="934" rx="14" ry="14" class="panel"/>
  <text x="3610" y="62" class="panel-label">interpreter</text>
  <rect x="3610" y="88" width="284" height="118" rx="10" ry="10" class="box"/>
  <text x="3624" y="126" class="title">StructInstance: StructDef</text>
  <text x="3624" y="144" class="line">ref mut struct_name : Str = NULL</text>
  <text x="3624" y="162" class="line">ref mut struct_def : Expr = NULL</text>
  <text x="3624" y="180" class="line">own mut data : U8 = 0</text>
  <text x="3624" y="198" class="line">mut borrowed := false</text>
  <rect x="3610" y="224" width="268" height="118" rx="10" ry="10" class="box"/>
  <text x="3624" y="262" class="title">EnumInstance: StructDef</text>
  <text x="3624" y="280" class="line">ref mut enum_name : Str = NULL</text>
  <text x="3624" y="298" class="line">ref mut enum_def : Expr = NULL</text>
  <text x="3624" y="316" class="line">own mut data : U8 = 0</text>
  <text x="3624" y="334" class="line">mut data_size : I32 = 0</text>
  <rect x="3610" y="360" width="196" height="280" rx="10" ry="10" class="box"/>
  <text x="3624" y="398" class="title">Value: EnumDef</text>
  <text x="3624" y="416" class="line">None</text>
  <text x="3624" y="434" class="line">Int:I64</text>
  <text x="3624" y="452" class="line">Byte:U8</text>
  <text x="3624" y="470" class="line">Short:I16</text>
  <text x="3624" y="488" class="line">Int32:I32</text>
  <text x="3624" y="506" class="line">Uint32:U32</text>
  <text x="3624" y="524" class="line">Uint64:U64</text>
  <text x="3624" y="542" class="line">Float:F32</text>
  <text x="3624" y="560" class="line">Boolean:Bool</text>
  <text x="3624" y="578" class="line">Func:Dynamic</text>
  <text x="3624" y="596" class="line">Struct:StructInstance</text>
  <text x="3624" y="614" class="line">Enum:EnumInstance</text>
  <text x="3624" y="632" class="line">Ptr:Dynamic</text>
  <rect x="3610" y="658" width="196" height="64" rx="10" ry="10" class="box"/>
  <text x="3624" y="696" class="title">Cell: StructDef</text>
  <text x="3624" y="714" class="line">mut val := Value.None</text>
  <rect x="3610" y="740" width="236" height="100" rx="10" ry="10" class="box"/>
  <text x="3624" y="778" class="title">Binding: StructDef</text>
  <text x="3624" y="796" class="line">ref mut name : Str = NULL</text>
  <text x="3624" y="814" class="line">ref mut cell : Cell = NULL</text>
  <text x="3624" y="832" class="line">mut cell_is_local := false</text>
  <rect x="3610" y="858" width="580" height="82" rx="10" ry="10" class="box"/>
  <text x="3624" y="896" class="title">Scope: StructDef</text>
  <text x="3624" y="914" class="line">mut bindings := Map.new(&quot;Str&quot;, Str.size(), &quot;Binding&quot;, Binding.size())</text>
  <text x="3624" y="932" class="line">ref mut parent : Scope = NULL</text>
  <rect x="4244" y="24" width="268" height="254" rx="14" ry="14" class="panel"/>
  <text x="4264" y="62" class="panel-label">modes</text>
  <rect x="4264" y="88" width="228" height="172" rx="10" ry="10" class="box"/>
  <text x="4278" y="126" class="title">Mode: StructDef</text>
  <text x="4278" y="144" class="line">mut needs_main := false</text>
  <text x="4278" y="162" class="line">mut decls_only := true</text>
  <text x="4278" y="180" class="line">mut auto_import := &quot;&quot;</text>
  <text x="4278" y="198" class="line">mut is_library := false</text>
  <text x="4278" y="216" class="line">mut is_pure := false</text>
  <text x="4278" y="234" class="line">mut run_tests := false</text>
  <text x="4278" y="252" class="line">mut debug_prints := false</text>
</svg>
