<svg xmlns="http://www.w3.org/2000/svg" width="4478" height="3860" viewBox="0 0 4478 3860">
  <defs>
    <style>
      .bg { fill: #f7f5ef; }
      .panel { fill: none; stroke: #c8c2b7; stroke-width: 2; stroke-dasharray: 10 7; }
      .panel-label { font: 700 18px Georgia, serif; fill: #6b7280; }
      .box { fill: #fffdf8; stroke: #334155; stroke-width: 2; }
      .title { font: 700 16px 'Courier New', monospace; fill: #111827; }
      .line { font: 13px 'Courier New', monospace; fill: #1f2937; }
    </style>
  </defs>
  <rect class="bg" x="0" y="0" width="4478" height="3860"/>
  <rect x="24" y="24" width="284" height="786" rx="14" ry="14" class="panel"/>
  <text x="44" y="62" class="panel-label">lexer</text>
  <rect x="44" y="88" width="172" height="550" rx="10" ry="10" class="box"/>
  <text x="58" y="126" class="title">TokenType: EnumDef</text>
  <text x="58" y="144" class="line">Eof</text>
  <text x="58" y="162" class="line">LParen</text>
  <text x="58" y="180" class="line">RParen</text>
  <text x="58" y="198" class="line">LBrace</text>
  <text x="58" y="216" class="line">RBrace</text>
  <text x="58" y="234" class="line">LBracket</text>
  <text x="58" y="252" class="line">RBracket</text>
  <text x="58" y="270" class="line">Comma</text>
  <text x="58" y="288" class="line">Colon</text>
  <text x="58" y="306" class="line">Question</text>
  <text x="58" y="324" class="line">Bang</text>
  <text x="58" y="342" class="line">Minus</text>
  <text x="58" y="360" class="line">Plus</text>
  <text x="58" y="378" class="line">Star</text>
  <text x="58" y="396" class="line">Slash</text>
  <text x="58" y="414" class="line">Percent</text>
  <text x="58" y="432" class="line">Ampersand</text>
  <text x="58" y="450" class="line">Pipe</text>
  <text x="58" y="468" class="line">Caret</text>
  <text x="58" y="486" class="line">Dot</text>
  <text x="58" y="504" class="line">DotDot</text>
  <text x="58" y="522" class="line">DotDotDot</text>
  <text x="58" y="540" class="line">Eq</text>
  <text x="58" y="558" class="line">EqEq</text>
  <text x="58" y="576" class="line">Neq</text>
  <text x="58" y="594" class="line">Lt</text>
  <text x="58" y="612" class="line">LtEq</text>
  <text x="58" y="630" class="line">... (53 more)</text>
  <rect x="44" y="656" width="244" height="136" rx="10" ry="10" class="box"/>
  <text x="58" y="694" class="title">Token: StructDef</text>
  <text x="58" y="712" class="line">const type := TokenType.Eof</text>
  <text x="58" y="730" class="line">const start : USize = 0</text>
  <text x="58" y="748" class="line">const len : USize = 0</text>
  <text x="58" y="766" class="line">const line : U32 = 0</text>
  <text x="58" y="784" class="line">const col : U32 = 0</text>
  <rect x="342" y="24" width="580" height="3812" rx="14" ry="14" class="panel"/>
  <text x="362" y="62" class="panel-label">ast</text>
  <rect x="362" y="88" width="172" height="226" rx="10" ry="10" class="box"/>
  <text x="376" y="126" class="title">Primitive: EnumDef</text>
  <text x="376" y="144" class="line">I16</text>
  <text x="376" y="162" class="line">U16</text>
  <text x="376" y="180" class="line">I8</text>
  <text x="376" y="198" class="line">U8</text>
  <text x="376" y="216" class="line">U32</text>
  <text x="376" y="234" class="line">I32</text>
  <text x="376" y="252" class="line">U64</text>
  <text x="376" y="270" class="line">I64</text>
  <text x="376" y="288" class="line">F32</text>
  <text x="376" y="306" class="line">Bool</text>
  <rect x="362" y="332" width="180" height="262" rx="10" ry="10" class="box"/>
  <text x="376" y="370" class="title">Type: EnumDef</text>
  <text x="376" y="388" class="line">Unknown</text>
  <text x="376" y="406" class="line">None</text>
  <text x="376" y="424" class="line">Struct:Str</text>
  <text x="376" y="442" class="line">StructDef</text>
  <text x="376" y="460" class="line">Enum:Str</text>
  <text x="376" y="478" class="line">EnumDef</text>
  <text x="376" y="496" class="line">FuncDef</text>
  <text x="376" y="514" class="line">FuncPtr</text>
  <text x="376" y="532" class="line">Dynamic</text>
  <text x="376" y="550" class="line">Custom:Str</text>
  <text x="376" y="568" class="line">Primitive:Primitive</text>
  <text x="376" y="586" class="line">FuncPtrSig:Str</text>
  <rect x="362" y="612" width="164" height="190" rx="10" ry="10" class="box"/>
  <text x="376" y="650" class="title">FuncType: EnumDef</text>
  <text x="376" y="668" class="line">Func</text>
  <text x="376" y="686" class="line">Proc</text>
  <text x="376" y="704" class="line">Test</text>
  <text x="376" y="722" class="line">Macro</text>
  <text x="376" y="740" class="line">ExtFunc</text>
  <text x="376" y="758" class="line">ExtProc</text>
  <text x="376" y="776" class="line">LazyFunc</text>
  <text x="376" y="794" class="line">LazyProc</text>
  <rect x="362" y="820" width="156" height="100" rx="10" ry="10" class="box"/>
  <text x="376" y="858" class="title">OwnType: EnumDef</text>
  <text x="376" y="876" class="line">Own</text>
  <text x="376" y="894" class="line">Ref</text>
  <text x="376" y="912" class="line">Shallow</text>
  <rect x="362" y="938" width="540" height="244" rx="10" ry="10" class="box"/>
  <text x="376" y="976" class="title">Declaration: StructDef</text>
  <text x="376" y="994" class="line">name := &quot;&quot;</text>
  <text x="376" y="1012" class="line">doc := &quot;&quot;</text>
  <text x="376" y="1030" class="line">explicit_type := &quot;&quot;</text>
  <text x="376" y="1048" class="line">is_mut := false</text>
  <text x="376" y="1066" class="line">redundant_mut := false</text>
  <text x="376" y="1084" class="line">is_priv := false</text>
  <text x="376" y="1102" class="line">used := false</text>
  <text x="376" y="1120" class="line">own_type := OwnType.Shallow</text>
  <text x="376" y="1138" class="line">til_type := Type.Unknown</text>
  <text x="376" y="1156" class="line">own default_value : Expr = Expr.new(NodeType.NoDefaultArg, 0, 0)</text>
  <text x="376" y="1174" class="line">orig_name := &quot;&quot;</text>
  <rect x="362" y="1200" width="284" height="226" rx="10" ry="10" class="box"/>
  <text x="376" y="1238" class="title">FunctionDef: StructDef</text>
  <text x="376" y="1256" class="line">func_type := FuncType.Func</text>
  <text x="376" y="1274" class="line">params := Vec.new(Declaration)</text>
  <text x="376" y="1292" class="line">return_type := &quot;&quot;</text>
  <text x="376" y="1310" class="line">throw_types := Vec.new(Str)</text>
  <text x="376" y="1328" class="line">variadic_index : I32 = -1</text>
  <text x="376" y="1346" class="line">kwargs_index : I32 = -1</text>
  <text x="376" y="1364" class="line">return_own_type := OwnType.Own</text>
  <text x="376" y="1382" class="line">auto_generated := false</text>
  <text x="376" y="1400" class="line">is_enum_variant_ctor := false</text>
  <text x="376" y="1418" class="line">captures := Vec.new(Declaration)</text>
  <rect x="362" y="1444" width="220" height="154" rx="10" ry="10" class="box"/>
  <text x="376" y="1482" class="title">FCallData: StructDef</text>
  <text x="376" y="1500" class="line">is_splat := false</text>
  <text x="376" y="1518" class="line">does_throw := false</text>
  <text x="376" y="1536" class="line">is_bang := false</text>
  <text x="376" y="1554" class="line">own_args : U64 = 0</text>
  <text x="376" y="1572" class="line">swap_replace := false</text>
  <text x="376" y="1590" class="line">til_type := Type.Unknown</text>
  <rect x="362" y="1616" width="228" height="82" rx="10" ry="10" class="box"/>
  <text x="376" y="1654" class="title">LiteralNumData: StructDef</text>
  <text x="376" y="1672" class="line">text := &quot;&quot;</text>
  <text x="376" y="1690" class="line">til_type := Type.Unknown</text>
  <rect x="362" y="1716" width="220" height="82" rx="10" ry="10" class="box"/>
  <text x="376" y="1754" class="title">IdentData: StructDef</text>
  <text x="376" y="1772" class="line">name := &quot;&quot;</text>
  <text x="376" y="1790" class="line">til_type := Type.Unknown</text>
  <rect x="362" y="1816" width="236" height="82" rx="10" ry="10" class="box"/>
  <text x="376" y="1854" class="title">FieldAccessData: StructDef</text>
  <text x="376" y="1872" class="line">name := &quot;&quot;</text>
  <text x="376" y="1890" class="line">til_type := Type.Unknown</text>
  <rect x="362" y="1916" width="284" height="154" rx="10" ry="10" class="box"/>
  <text x="376" y="1954" class="title">StructDef: StructDef</text>
  <text x="376" y="1972" class="line">fields := Vec.new(Declaration)</text>
  <text x="376" y="1990" class="line">ns_decls := Vec.new(Declaration)</text>
  <text x="376" y="2008" class="line">c_tag := &quot;&quot;</text>
  <text x="376" y="2026" class="line">is_interface := false</text>
  <text x="376" y="2044" class="line">interface_ns_marker := false</text>
  <text x="376" y="2062" class="line">implements_name := &quot;&quot;</text>
  <rect x="362" y="2088" width="340" height="136" rx="10" ry="10" class="box"/>
  <text x="376" y="2126" class="title">EnumDef: StructDef</text>
  <text x="376" y="2144" class="line">ns_decls := Vec.new(Declaration)</text>
  <text x="376" y="2162" class="line">variants := Vec.new(Str)</text>
  <text x="376" y="2180" class="line">payload_types : Map = Map.new(I64, Str)</text>
  <text x="376" y="2198" class="line">payload_consts := Vec.new(Bool)</text>
  <text x="376" y="2216" class="line">implements_name := &quot;&quot;</text>
  <rect x="362" y="2242" width="204" height="100" rx="10" ry="10" class="box"/>
  <text x="376" y="2280" class="title">FieldLayout: StructDef</text>
  <text x="376" y="2298" class="line">offset : USize = 0</text>
  <text x="376" y="2316" class="line">size : USize = 0</text>
  <text x="376" y="2334" class="line">struct_name := &quot;&quot;</text>
  <rect x="362" y="2360" width="268" height="82" rx="10" ry="10" class="box"/>
  <text x="376" y="2398" class="title">StructLayout: StructDef</text>
  <text x="376" y="2416" class="line">total_size : USize = 0</text>
  <text x="376" y="2434" class="line">fields := Vec.new(FieldLayout)</text>
  <rect x="362" y="2460" width="228" height="118" rx="10" ry="10" class="box"/>
  <text x="376" y="2498" class="title">AssignData: StructDef</text>
  <text x="376" y="2516" class="line">name := &quot;&quot;</text>
  <text x="376" y="2534" class="line">save_old_delete := false</text>
  <text x="376" y="2552" class="line">is_payload_alias := false</text>
  <text x="376" y="2570" class="line">swap_replace := false</text>
  <rect x="362" y="2596" width="236" height="82" rx="10" ry="10" class="box"/>
  <text x="376" y="2634" class="title">FieldAssignData: StructDef</text>
  <text x="376" y="2652" class="line">name := &quot;&quot;</text>
  <text x="376" y="2670" class="line">save_old_delete := false</text>
  <rect x="362" y="2696" width="220" height="100" rx="10" ry="10" class="box"/>
  <text x="376" y="2734" class="title">ForInData: StructDef</text>
  <text x="376" y="2752" class="line">name := &quot;&quot;</text>
  <text x="376" y="2770" class="line">is_mut := false</text>
  <text x="376" y="2788" class="line">til_type := Type.Unknown</text>
  <rect x="362" y="2814" width="172" height="154" rx="10" ry="10" class="box"/>
  <text x="376" y="2852" class="title">Literal: EnumDef</text>
  <text x="376" y="2870" class="line">Str:Str</text>
  <text x="376" y="2888" class="line">Num:LiteralNumData</text>
  <text x="376" y="2906" class="line">Bool:Bool</text>
  <text x="376" y="2924" class="line">Null</text>
  <text x="376" y="2942" class="line">MapLit</text>
  <text x="376" y="2960" class="line">SetLit</text>
  <rect x="362" y="2986" width="220" height="82" rx="10" ry="10" class="box"/>
  <text x="376" y="3024" class="title">MatchData: StructDef</text>
  <text x="376" y="3042" class="line">til_type := Type.Unknown</text>
  <text x="376" y="3060" class="line">result_temp := &quot;&quot;</text>
  <rect x="362" y="3086" width="284" height="64" rx="10" ry="10" class="box"/>
  <text x="376" y="3124" class="title">CaptureBlockData: StructDef</text>
  <text x="376" y="3142" class="line">captures := Vec.new(Declaration)</text>
  <rect x="362" y="3168" width="260" height="514" rx="10" ry="10" class="box"/>
  <text x="376" y="3206" class="title">NodeType: EnumDef</text>
  <text x="376" y="3224" class="line">Body</text>
  <text x="376" y="3242" class="line">Literal:Literal</text>
  <text x="376" y="3260" class="line">Ident:IdentData</text>
  <text x="376" y="3278" class="line">Decl:Declaration</text>
  <text x="376" y="3296" class="line">Assign:AssignData</text>
  <text x="376" y="3314" class="line">FCall:FCallData</text>
  <text x="376" y="3332" class="line">FuncDef:FunctionDef</text>
  <text x="376" y="3350" class="line">StructDef:StructDef</text>
  <text x="376" y="3368" class="line">EnumDef:EnumDef</text>
  <text x="376" y="3386" class="line">FieldAccess:FieldAccessData</text>
  <text x="376" y="3404" class="line">FieldAssign:FieldAssignData</text>
  <text x="376" y="3422" class="line">Return</text>
  <text x="376" y="3440" class="line">If</text>
  <text x="376" y="3458" class="line">While</text>
  <text x="376" y="3476" class="line">ForIn:ForInData</text>
  <text x="376" y="3494" class="line">NamedArg:Str</text>
  <text x="376" y="3512" class="line">Break</text>
  <text x="376" y="3530" class="line">Continue</text>
  <text x="376" y="3548" class="line">Switch</text>
  <text x="376" y="3566" class="line">Match:MatchData</text>
  <text x="376" y="3584" class="line">Case</text>
  <text x="376" y="3602" class="line">NoDefaultArg</text>
  <text x="376" y="3620" class="line">Throw</text>
  <text x="376" y="3638" class="line">Catch</text>
  <text x="376" y="3656" class="line">RestPattern</text>
  <text x="376" y="3674" class="line">CaptureBlock:CaptureBlockData</text>
  <rect x="362" y="3700" width="236" height="118" rx="10" ry="10" class="box"/>
  <text x="376" y="3738" class="title">Expr: StructDef</text>
  <text x="376" y="3756" class="line">node_type := NodeType.Body</text>
  <text x="376" y="3774" class="line">children := Vec.new(Expr)</text>
  <text x="376" y="3792" class="line">line : U32 = 0</text>
  <text x="376" y="3810" class="line">col : U32 = 0</text>
  <rect x="956" y="24" width="316" height="272" rx="14" ry="14" class="panel"/>
  <text x="976" y="62" class="panel-label">parser</text>
  <rect x="976" y="88" width="276" height="190" rx="10" ry="10" class="box"/>
  <text x="990" y="126" class="title">Parser: StructDef</text>
  <text x="990" y="144" class="line">tokens := Vec.new(Token)</text>
  <text x="990" y="162" class="line">pos : USize = 0</text>
  <text x="990" y="180" class="line">path := &quot;&quot;</text>
  <text x="990" y="198" class="line">fn_sig_decls := Vec.new(Expr)</text>
  <text x="990" y="216" class="line">anon_decls := Vec.new(Expr)</text>
  <text x="990" y="234" class="line">anon_cache := Map.new(Str, Str)</text>
  <text x="990" y="252" class="line">pending_doc := &quot;&quot;</text>
  <text x="990" y="270" class="line">source := &quot;&quot;</text>
  <rect x="1306" y="24" width="420" height="1410" rx="14" ry="14" class="panel"/>
  <text x="1326" y="62" class="panel-label">context</text>
  <rect x="1326" y="88" width="244" height="388" rx="10" ry="10" class="box"/>
  <text x="1340" y="126" class="title">TypeBinding: StructDef</text>
  <text x="1340" y="144" class="line">name := &quot;&quot;</text>
  <text x="1340" y="162" class="line">type := Type.Unknown</text>
  <text x="1340" y="180" class="line">is_mut := false</text>
  <text x="1340" y="198" class="line">is_priv := false</text>
  <text x="1340" y="216" class="line">path := &quot;&quot;</text>
  <text x="1340" y="234" class="line">line : U32 = 0</text>
  <text x="1340" y="252" class="line">col : U32 = 0</text>
  <text x="1340" y="270" class="line">is_param := false</text>
  <text x="1340" y="288" class="line">own_type := OwnType.Shallow</text>
  <text x="1340" y="306" class="line">is_alias := false</text>
  <text x="1340" y="324" class="line">is_type_alias := false</text>
  <text x="1340" y="342" class="line">is_func_decl := false</text>
  <text x="1340" y="360" class="line">alias_target := &quot;&quot;</text>
  <text x="1340" y="378" class="line">func_type := FuncType.Func</text>
  <text x="1340" y="396" class="line">is_builtin := false</text>
  <text x="1340" y="414" class="line">used := false</text>
  <text x="1340" y="432" class="line">written := false</text>
  <text x="1340" y="450" class="line">mut_explicit := false</text>
  <text x="1340" y="468" class="line">orig_name := &quot;&quot;</text>
  <rect x="1326" y="494" width="180" height="82" rx="10" ry="10" class="box"/>
  <text x="1340" y="532" class="title">ScopeFind: EnumDef</text>
  <text x="1340" y="550" class="line">NotFound</text>
  <text x="1340" y="568" class="line">Found:TypeBinding }</text>
  <rect x="1326" y="594" width="324" height="118" rx="10" ry="10" class="box"/>
  <text x="1340" y="632" class="title">TypeScope: StructDef</text>
  <text x="1340" y="650" class="line">bindings := Map.new(Str, TypeBinding)</text>
  <text x="1340" y="668" class="line">func_defs := Map.new(Str, Dynamic)</text>
  <text x="1340" y="686" class="line">struct_defs := Map.new(Str, Dynamic)</text>
  <text x="1340" y="704" class="line">ref parent : TypeScope = NULL</text>
  <rect x="1326" y="730" width="348" height="118" rx="10" ry="10" class="box"/>
  <text x="1340" y="768" class="title">ImportUnit: StructDef</text>
  <text x="1340" y="786" class="line">mode_str := &quot;&quot;</text>
  <text x="1340" y="804" class="line">mode := Mode()</text>
  <text x="1340" y="822" class="line">own ast := Expr.new(NodeType.Body, 0, 0)</text>
  <text x="1340" y="840" class="line">imports := Vec.new(Str)</text>
  <rect x="1326" y="866" width="380" height="550" rx="10" ry="10" class="box"/>
  <text x="1340" y="904" class="title">Context: StructDef</text>
  <text x="1340" y="922" class="line">mode := Mode()</text>
  <text x="1340" y="940" class="line">path := &quot;&quot;</text>
  <text x="1340" y="958" class="line">path_modes := Map.new(Str, Mode)</text>
  <text x="1340" y="976" class="line">compile_mode := false</text>
  <text x="1340" y="994" class="line">imported := Map.new(Str, ImportUnit)</text>
  <text x="1340" y="1012" class="line">imports_init_done := Set.new(Str)</text>
  <text x="1340" y="1030" class="line">imports_typer_decls_done := Set.new(Str)</text>
  <text x="1340" y="1048" class="line">imports_typer_bodies_done := Set.new(Str)</text>
  <text x="1340" y="1066" class="line">imports_precomp_done := Set.new(Str)</text>
  <text x="1340" y="1084" class="line">imports_eval_done := Set.new(Str)</text>
  <text x="1340" y="1102" class="line">type_gen_synths := Set.new(Str)</text>
  <text x="1340" y="1120" class="line">scope := TypeScope()</text>
  <text x="1340" y="1138" class="line">is_repl := false</text>
  <text x="1340" y="1156" class="line">struct_layouts := Map.new(Str, StructLayout)</text>
  <text x="1340" y="1174" class="line">precomp_macros := Set.new(Str)</text>
  <text x="1340" y="1192" class="line">precomp_funcs := Set.new(Str)</text>
  <text x="1340" y="1210" class="line">precomp_known := Map.new(Str, Value)</text>
  <text x="1340" y="1228" class="line">precomp_assigned := Set.new(Str)</text>
  <text x="1340" y="1246" class="line">has_return := false</text>
  <text x="1340" y="1264" class="line">has_break := false</text>
  <text x="1340" y="1282" class="line">has_continue := false</text>
  <text x="1340" y="1300" class="line">return_value := Value.None</text>
  <text x="1340" y="1318" class="line">ns_fields := Map.new(Str, Value)</text>
  <text x="1340" y="1336" class="line">ns_keys := Vec.new(Dynamic)</text>
  <text x="1340" y="1354" class="line">ns_inited := false</text>
  <text x="1340" y="1372" class="line">typing_namespace_member := false</text>
  <text x="1340" y="1390" class="line">local_fn_sigs := Map.new(Str, Dynamic)</text>
  <text x="1340" y="1408" class="line">... (49 more)</text>
  <rect x="1760" y="24" width="188" height="444" rx="14" ry="14" class="panel"/>
  <text x="1780" y="62" class="panel-label">targets</text>
  <rect x="1780" y="88" width="132" height="100" rx="10" ry="10" class="box"/>
  <text x="1794" y="126" class="title">Lang: EnumDef</text>
  <text x="1794" y="144" class="line">C</text>
  <text x="1794" y="162" class="line">HolyC</text>
  <text x="1794" y="180" class="line">TIL</text>
  <rect x="1780" y="206" width="148" height="244" rx="10" ry="10" class="box"/>
  <text x="1794" y="244" class="title">Target: EnumDef</text>
  <text x="1794" y="262" class="line">LinuxX64</text>
  <text x="1794" y="280" class="line">LinuxArm64</text>
  <text x="1794" y="298" class="line">LinuxRiscv64</text>
  <text x="1794" y="316" class="line">LinuxX86</text>
  <text x="1794" y="334" class="line">LinuxArm32</text>
  <text x="1794" y="352" class="line">LinuxRiscv32</text>
  <text x="1794" y="370" class="line">WindowsX64</text>
  <text x="1794" y="388" class="line">MacosX64</text>
  <text x="1794" y="406" class="line">MacosArm64</text>
  <text x="1794" y="424" class="line">Wasm32</text>
  <text x="1794" y="442" class="line">TempleosX86</text>
  <rect x="1982" y="24" width="372" height="598" rx="14" ry="14" class="panel"/>
  <text x="2002" y="62" class="panel-label">loader</text>
  <rect x="2002" y="88" width="212" height="100" rx="10" ry="10" class="box"/>
  <text x="2016" y="126" class="title">ProgramUnit: StructDef</text>
  <text x="2016" y="144" class="line">path := &quot;&quot;</text>
  <text x="2016" y="162" class="line">mode := Mode()</text>
  <text x="2016" y="180" class="line">imports := Vec.new(Str)</text>
  <rect x="2002" y="206" width="332" height="298" rx="10" ry="10" class="box"/>
  <text x="2016" y="244" class="title">LoadedProgram: StructDef</text>
  <text x="2016" y="262" class="line">own core_units := Vec.new(ProgramUnit)</text>
  <text x="2016" y="280" class="line">own units := Vec.new(ProgramUnit)</text>
  <text x="2016" y="298" class="line">mode_files := Vec.new(Str)</text>
  <text x="2016" y="316" class="line">target := Target.LinuxX64</text>
  <text x="2016" y="334" class="line">cur_mode := Mode()</text>
  <text x="2016" y="352" class="line">ctx := Context()</text>
  <text x="2016" y="370" class="line">skip_core := false</text>
  <text x="2016" y="388" class="line">mode_str := &quot;&quot;</text>
  <text x="2016" y="406" class="line">path := &quot;&quot;</text>
  <text x="2016" y="424" class="line">ext_c_path := &quot;&quot;</text>
  <text x="2016" y="442" class="line">link_flags := &quot;&quot;</text>
  <text x="2016" y="460" class="line">include_flags := &quot;&quot;</text>
  <text x="2016" y="478" class="line">link_c_paths := &quot;&quot;</text>
  <text x="2016" y="496" class="line">run_tests := false</text>
  <rect x="2002" y="522" width="172" height="82" rx="10" ry="10" class="box"/>
  <text x="2016" y="560" class="title">DeclRef: StructDef</text>
  <text x="2016" y="578" class="line">path := &quot;&quot;</text>
  <text x="2016" y="596" class="line">idx : U32 = 0</text>
  <rect x="2388" y="24" width="340" height="282" rx="14" ry="14" class="panel"/>
  <text x="2408" y="62" class="panel-label">typer</text>
  <rect x="2408" y="88" width="156" height="82" rx="10" ry="10" class="box"/>
  <text x="2422" y="126" class="title">CtorArg: EnumDef</text>
  <text x="2422" y="144" class="line">Unfilled</text>
  <text x="2422" y="162" class="line">Filled:Expr</text>
  <rect x="2408" y="188" width="300" height="100" rx="10" ry="10" class="box"/>
  <text x="2422" y="226" class="title">CoverageNode: StructDef</text>
  <text x="2422" y="244" class="line">fully_covered := false</text>
  <text x="2422" y="262" class="line">sub_names := Vec.new(Str)</text>
  <text x="2422" y="280" class="line">sub_nodes := Vec.new(CoverageNode)</text>
  <rect x="2762" y="24" width="276" height="254" rx="14" ry="14" class="panel"/>
  <text x="2782" y="62" class="panel-label">garbager</text>
  <rect x="2782" y="88" width="236" height="172" rx="10" ry="10" class="box"/>
  <text x="2796" y="126" class="title">LocalInfo: StructDef</text>
  <text x="2796" y="144" class="line">ref name : Str = NULL</text>
  <text x="2796" y="162" class="line">type := Type.Unknown</text>
  <text x="2796" y="180" class="line">decl_index : I32 = 0</text>
  <text x="2796" y="198" class="line">last_use : I32 = 0</text>
  <text x="2796" y="216" class="line">own_transfer : I32 = -1</text>
  <text x="2796" y="234" class="line">skip_scope_delete := false</text>
  <text x="2796" y="252" class="line">is_heap := false</text>
  <rect x="3072" y="24" width="276" height="490" rx="14" ry="14" class="panel"/>
  <text x="3092" y="62" class="panel-label">builder</text>
  <rect x="3092" y="88" width="236" height="82" rx="10" ry="10" class="box"/>
  <text x="3106" y="126" class="title">CollectionInfo: StructDef</text>
  <text x="3106" y="144" class="line">ref type_name : Str = NULL</text>
  <text x="3106" y="162" class="line">is_vec : I32 = 0</text>
  <rect x="3092" y="188" width="212" height="100" rx="10" ry="10" class="box"/>
  <text x="3106" y="226" class="title">DynCallInfo: StructDef</text>
  <text x="3106" y="244" class="line">ref method : Str = NULL</text>
  <text x="3106" y="262" class="line">nargs : I32 = 1</text>
  <text x="3106" y="280" class="line">has_return := false</text>
  <rect x="3092" y="306" width="196" height="190" rx="10" ry="10" class="box"/>
  <text x="3106" y="344" class="title">BuildPaths: StructDef</text>
  <text x="3106" y="362" class="line">name := &quot;&quot;</text>
  <text x="3106" y="380" class="line">c_path := &quot;&quot;</text>
  <text x="3106" y="398" class="line">bin_path := &quot;&quot;</text>
  <text x="3106" y="416" class="line">fwd_path := &quot;&quot;</text>
  <text x="3106" y="434" class="line">h_path := &quot;&quot;</text>
  <text x="3106" y="452" class="line">til_path := &quot;&quot;</text>
  <text x="3106" y="470" class="line">py_path := &quot;&quot;</text>
  <text x="3106" y="488" class="line">do_lib := false</text>
  <rect x="3382" y="24" width="308" height="536" rx="14" ry="14" class="panel"/>
  <text x="3402" y="62" class="panel-label">dispatch</text>
  <rect x="3402" y="88" width="188" height="100" rx="10" ry="10" class="box"/>
  <text x="3416" y="126" class="title">ExtStr: StructDef</text>
  <text x="3416" y="144" class="line">ref data : U8 = NULL</text>
  <text x="3416" y="162" class="line">count : USize = 0</text>
  <text x="3416" y="180" class="line">cap : USize = 0</text>
  <rect x="3402" y="206" width="268" height="172" rx="10" ry="10" class="box"/>
  <text x="3416" y="244" class="title">FFIEntry: StructDef</text>
  <text x="3416" y="262" class="line">ref fn : U8 = NULL</text>
  <text x="3416" y="280" class="line">ref return_type : Str = NULL</text>
  <text x="3416" y="298" class="line">nparam : USize = 0</text>
  <text x="3416" y="316" class="line">ref param_shallows : U8 = NULL</text>
  <text x="3416" y="334" class="line">return_is_shallow := false</text>
  <text x="3416" y="352" class="line">ref cif : ffi_cif = NULL</text>
  <text x="3416" y="370" class="line">ref arg_types : Dynamic = NULL</text>
  <rect x="3402" y="396" width="196" height="64" rx="10" ry="10" class="box"/>
  <text x="3416" y="434" class="title">ExprPtrBox: StructDef</text>
  <text x="3416" y="452" class="line">ref ptr : Expr = NULL</text>
  <rect x="3402" y="478" width="228" height="64" rx="10" ry="10" class="box"/>
  <text x="3416" y="516" class="title">FFITypePtrBox: StructDef</text>
  <text x="3416" y="534" class="line">ref ptr : ffi_type = NULL</text>
  <rect x="3724" y="24" width="428" height="1160" rx="14" ry="14" class="panel"/>
  <text x="3744" y="62" class="panel-label">interpreter</text>
  <rect x="3744" y="88" width="252" height="154" rx="10" ry="10" class="box"/>
  <text x="3758" y="126" class="title">StructInstance: StructDef</text>
  <text x="3758" y="144" class="line">ref struct_name : Str = NULL</text>
  <text x="3758" y="162" class="line">is_str := false</text>
  <text x="3758" y="180" class="line">ref struct_def : Expr = NULL</text>
  <text x="3758" y="198" class="line">ref ctx : Context = NULL</text>
  <text x="3758" y="216" class="line">own data : U8 = 0</text>
  <text x="3758" y="234" class="line">borrowed := false</text>
  <rect x="3744" y="260" width="236" height="118" rx="10" ry="10" class="box"/>
  <text x="3758" y="298" class="title">EnumInstance: StructDef</text>
  <text x="3758" y="316" class="line">ref enum_name : Str = NULL</text>
  <text x="3758" y="334" class="line">own data : U8 = 0</text>
  <text x="3758" y="352" class="line">data_size : USize = 0</text>
  <text x="3758" y="370" class="line">borrowed := false</text>
  <rect x="3744" y="396" width="196" height="334" rx="10" ry="10" class="box"/>
  <text x="3758" y="434" class="title">Value: EnumDef</text>
  <text x="3758" y="452" class="line">None</text>
  <text x="3758" y="470" class="line">Int:I64</text>
  <text x="3758" y="488" class="line">Byte:U8</text>
  <text x="3758" y="506" class="line">Short:I16</text>
  <text x="3758" y="524" class="line">Int32:I32</text>
  <text x="3758" y="542" class="line">Uint32:U32</text>
  <text x="3758" y="560" class="line">Uint64:U64</text>
  <text x="3758" y="578" class="line">Float:F32</text>
  <text x="3758" y="596" class="line">Boolean:Bool</text>
  <text x="3758" y="614" class="line">Func:Dynamic</text>
  <text x="3758" y="632" class="line">Struct:StructInstance</text>
  <text x="3758" y="650" class="line">Enum:EnumInstance</text>
  <text x="3758" y="668" class="line">Ref:Dynamic</text>
  <text x="3758" y="686" class="line">Dynamic:Dynamic</text>
  <text x="3758" y="704" class="line">Sbyte:I8</text>
  <text x="3758" y="722" class="line">Ushort:U16</text>
  <rect x="3744" y="748" width="164" height="64" rx="10" ry="10" class="box"/>
  <text x="3758" y="786" class="title">Cell: StructDef</text>
  <text x="3758" y="804" class="line">val := Value.None</text>
  <rect x="3744" y="830" width="204" height="100" rx="10" ry="10" class="box"/>
  <text x="3758" y="868" class="title">Binding: StructDef</text>
  <text x="3758" y="886" class="line">ref name : Str = NULL</text>
  <text x="3758" y="904" class="line">ref cell : Cell = NULL</text>
  <text x="3758" y="922" class="line">cell_is_local := false</text>
  <rect x="3744" y="948" width="388" height="136" rx="10" ry="10" class="box"/>
  <text x="3758" y="986" class="title">Scope: StructDef</text>
  <text x="3758" y="1004" class="line">bindings := Map.new(Str, Binding)</text>
  <text x="3758" y="1022" class="line">ref parent : Scope = NULL</text>
  <text x="3758" y="1040" class="line">payload_aliases := Map.new(Str, Str)</text>
  <text x="3758" y="1058" class="line">ref_primitive_ptrs := Map.new(Str, Dynamic)</text>
  <text x="3758" y="1076" class="line">box_owned_dynamics := Vec.new_type_name(&quot;Fn&quot;)</text>
  <rect x="3744" y="1102" width="188" height="64" rx="10" ry="10" class="box"/>
  <text x="3758" y="1140" class="title">DynPtrBox: StructDef</text>
  <text x="3758" y="1158" class="line">own p : U8 = 0</text>
  <rect x="4186" y="24" width="268" height="164" rx="14" ry="14" class="panel"/>
  <text x="4206" y="62" class="panel-label">binder</text>
  <rect x="4206" y="88" width="228" height="82" rx="10" ry="10" class="box"/>
  <text x="4220" y="126" class="title">BinderState: StructDef</text>
  <text x="4220" y="144" class="line">alias_to_primitive := &quot;|&quot;</text>
  <text x="4220" y="162" class="line">alias_to_dynamic := &quot;|&quot;</text>
</svg>
