<svg xmlns="http://www.w3.org/2000/svg" width="4566" height="4004" viewBox="0 0 4566 4004">
  <defs>
    <style>
      .bg { fill: #f7f5ef; }
      .panel { fill: none; stroke: #c8c2b7; stroke-width: 2; stroke-dasharray: 10 7; }
      .panel-label { font: 700 18px Georgia, serif; fill: #6b7280; }
      .box { fill: #fffdf8; stroke: #334155; stroke-width: 2; }
      .title { font: 700 16px 'Courier New', monospace; fill: #111827; }
      .line { font: 13px 'Courier New', monospace; fill: #1f2937; }
    </style>
  </defs>
  <rect class="bg" x="0" y="0" width="4566" height="4004"/>
  <rect x="24" y="24" width="284" height="786" rx="14" ry="14" class="panel"/>
  <text x="44" y="62" class="panel-label">lexer</text>
  <rect x="44" y="88" width="172" height="550" rx="10" ry="10" class="box"/>
  <text x="58" y="126" class="title">TokenType: EnumDef</text>
  <text x="58" y="144" class="line">Eof</text>
  <text x="58" y="162" class="line">LParen</text>
  <text x="58" y="180" class="line">RParen</text>
  <text x="58" y="198" class="line">LBrace</text>
  <text x="58" y="216" class="line">RBrace</text>
  <text x="58" y="234" class="line">LBracket</text>
  <text x="58" y="252" class="line">RBracket</text>
  <text x="58" y="270" class="line">Comma</text>
  <text x="58" y="288" class="line">Colon</text>
  <text x="58" y="306" class="line">Question</text>
  <text x="58" y="324" class="line">Bang</text>
  <text x="58" y="342" class="line">Minus</text>
  <text x="58" y="360" class="line">Plus</text>
  <text x="58" y="378" class="line">Star</text>
  <text x="58" y="396" class="line">Slash</text>
  <text x="58" y="414" class="line">Percent</text>
  <text x="58" y="432" class="line">Ampersand</text>
  <text x="58" y="450" class="line">Pipe</text>
  <text x="58" y="468" class="line">Caret</text>
  <text x="58" y="486" class="line">Dot</text>
  <text x="58" y="504" class="line">DotDot</text>
  <text x="58" y="522" class="line">DotDotDot</text>
  <text x="58" y="540" class="line">Eq</text>
  <text x="58" y="558" class="line">EqEq</text>
  <text x="58" y="576" class="line">Neq</text>
  <text x="58" y="594" class="line">Lt</text>
  <text x="58" y="612" class="line">LtEq</text>
  <text x="58" y="630" class="line">... (55 more)</text>
  <rect x="44" y="656" width="244" height="136" rx="10" ry="10" class="box"/>
  <text x="58" y="694" class="title">Token: StructDef</text>
  <text x="58" y="712" class="line">const type := TokenType.Eof</text>
  <text x="58" y="730" class="line">const start : USize = 0</text>
  <text x="58" y="748" class="line">const len : USize = 0</text>
  <text x="58" y="766" class="line">const line : U32 = 0</text>
  <text x="58" y="784" class="line">const col : U32 = 0</text>
  <rect x="342" y="24" width="580" height="3956" rx="14" ry="14" class="panel"/>
  <text x="362" y="62" class="panel-label">ast</text>
  <rect x="362" y="88" width="172" height="226" rx="10" ry="10" class="box"/>
  <text x="376" y="126" class="title">Primitive: EnumDef</text>
  <text x="376" y="144" class="line">I16</text>
  <text x="376" y="162" class="line">U16</text>
  <text x="376" y="180" class="line">I8</text>
  <text x="376" y="198" class="line">U8</text>
  <text x="376" y="216" class="line">U32</text>
  <text x="376" y="234" class="line">I32</text>
  <text x="376" y="252" class="line">U64</text>
  <text x="376" y="270" class="line">I64</text>
  <text x="376" y="288" class="line">F32</text>
  <text x="376" y="306" class="line">Bool</text>
  <rect x="362" y="332" width="180" height="262" rx="10" ry="10" class="box"/>
  <text x="376" y="370" class="title">Type: EnumDef</text>
  <text x="376" y="388" class="line">Unknown</text>
  <text x="376" y="406" class="line">None</text>
  <text x="376" y="424" class="line">Struct:Str</text>
  <text x="376" y="442" class="line">StructDef</text>
  <text x="376" y="460" class="line">Enum:Str</text>
  <text x="376" y="478" class="line">EnumDef</text>
  <text x="376" y="496" class="line">FuncDef</text>
  <text x="376" y="514" class="line">FuncPtr</text>
  <text x="376" y="532" class="line">Dynamic</text>
  <text x="376" y="550" class="line">Custom:Str</text>
  <text x="376" y="568" class="line">Primitive:Primitive</text>
  <text x="376" y="586" class="line">FuncPtrSig:Str</text>
  <rect x="362" y="612" width="164" height="226" rx="10" ry="10" class="box"/>
  <text x="376" y="650" class="title">FuncType: EnumDef</text>
  <text x="376" y="668" class="line">Func</text>
  <text x="376" y="686" class="line">Proc</text>
  <text x="376" y="704" class="line">Test</text>
  <text x="376" y="722" class="line">Macro</text>
  <text x="376" y="740" class="line">ExtFunc</text>
  <text x="376" y="758" class="line">ExtProc</text>
  <text x="376" y="776" class="line">LazyFunc</text>
  <text x="376" y="794" class="line">LazyProc</text>
  <text x="376" y="812" class="line">CoreFunc</text>
  <text x="376" y="830" class="line">CoreProc</text>
  <rect x="362" y="856" width="156" height="100" rx="10" ry="10" class="box"/>
  <text x="376" y="894" class="title">OwnType: EnumDef</text>
  <text x="376" y="912" class="line">Own</text>
  <text x="376" y="930" class="line">Ref</text>
  <text x="376" y="948" class="line">Shallow</text>
  <rect x="362" y="974" width="540" height="244" rx="10" ry="10" class="box"/>
  <text x="376" y="1012" class="title">Declaration: StructDef</text>
  <text x="376" y="1030" class="line">name := &quot;&quot;</text>
  <text x="376" y="1048" class="line">doc := &quot;&quot;</text>
  <text x="376" y="1066" class="line">explicit_type := &quot;&quot;</text>
  <text x="376" y="1084" class="line">is_mut := false</text>
  <text x="376" y="1102" class="line">redundant_mut := false</text>
  <text x="376" y="1120" class="line">is_priv := false</text>
  <text x="376" y="1138" class="line">used := false</text>
  <text x="376" y="1156" class="line">own_type := OwnType.Shallow</text>
  <text x="376" y="1174" class="line">til_type := Type.Unknown</text>
  <text x="376" y="1192" class="line">own default_value : Expr = Expr.new(NodeType.NoDefaultArg, 0, 0)</text>
  <text x="376" y="1210" class="line">orig_name := &quot;&quot;</text>
  <rect x="362" y="1236" width="300" height="244" rx="10" ry="10" class="box"/>
  <text x="376" y="1274" class="title">FunctionDef: StructDef</text>
  <text x="376" y="1292" class="line">func_type := FuncType.Func</text>
  <text x="376" y="1310" class="line">params := Vec(Declaration).new()</text>
  <text x="376" y="1328" class="line">return_type := &quot;&quot;</text>
  <text x="376" y="1346" class="line">throw_types := Vec(Str).new()</text>
  <text x="376" y="1364" class="line">variadic_index : I32 = -1</text>
  <text x="376" y="1382" class="line">kwargs_index : I32 = -1</text>
  <text x="376" y="1400" class="line">return_own_type := OwnType.Own</text>
  <text x="376" y="1418" class="line">auto_generated := false</text>
  <text x="376" y="1436" class="line">is_enum_variant_ctor := false</text>
  <text x="376" y="1454" class="line">captures := Vec(Declaration).new()</text>
  <text x="376" y="1472" class="line">closure_name := &quot;&quot;</text>
  <rect x="362" y="1498" width="220" height="154" rx="10" ry="10" class="box"/>
  <text x="376" y="1536" class="title">FCallData: StructDef</text>
  <text x="376" y="1554" class="line">is_splat := false</text>
  <text x="376" y="1572" class="line">does_throw := false</text>
  <text x="376" y="1590" class="line">is_bang := false</text>
  <text x="376" y="1608" class="line">own_args : U64 = 0</text>
  <text x="376" y="1626" class="line">swap_replace := false</text>
  <text x="376" y="1644" class="line">til_type := Type.Unknown</text>
  <rect x="362" y="1670" width="228" height="82" rx="10" ry="10" class="box"/>
  <text x="376" y="1708" class="title">LiteralNumData: StructDef</text>
  <text x="376" y="1726" class="line">text := &quot;&quot;</text>
  <text x="376" y="1744" class="line">til_type := Type.Unknown</text>
  <rect x="362" y="1770" width="220" height="82" rx="10" ry="10" class="box"/>
  <text x="376" y="1808" class="title">IdentData: StructDef</text>
  <text x="376" y="1826" class="line">name := &quot;&quot;</text>
  <text x="376" y="1844" class="line">til_type := Type.Unknown</text>
  <rect x="362" y="1870" width="236" height="82" rx="10" ry="10" class="box"/>
  <text x="376" y="1908" class="title">FieldAccessData: StructDef</text>
  <text x="376" y="1926" class="line">name := &quot;&quot;</text>
  <text x="376" y="1944" class="line">til_type := Type.Unknown</text>
  <rect x="362" y="1970" width="300" height="154" rx="10" ry="10" class="box"/>
  <text x="376" y="2008" class="title">StructDef: StructDef</text>
  <text x="376" y="2026" class="line">fields := Vec(Declaration).new()</text>
  <text x="376" y="2044" class="line">ns_decls := Vec(Declaration).new()</text>
  <text x="376" y="2062" class="line">c_tag := &quot;&quot;</text>
  <text x="376" y="2080" class="line">is_interface := false</text>
  <text x="376" y="2098" class="line">interface_ns_marker := false</text>
  <text x="376" y="2116" class="line">implements_name := &quot;&quot;</text>
  <rect x="362" y="2142" width="436" height="154" rx="10" ry="10" class="box"/>
  <text x="376" y="2180" class="title">EnumDef: StructDef</text>
  <text x="376" y="2198" class="line">ns_decls := Vec(Declaration).new()</text>
  <text x="376" y="2216" class="line">variants := Vec(Str).new()</text>
  <text x="376" y="2234" class="line">payload_types : Map(I64, Str) = Map(I64, Str).new()</text>
  <text x="376" y="2252" class="line">payload_consts := Vec(Bool).new()</text>
  <text x="376" y="2270" class="line">implements_name := &quot;&quot;</text>
  <text x="376" y="2288" class="line">tag_type := &quot;&quot;</text>
  <rect x="362" y="2314" width="204" height="100" rx="10" ry="10" class="box"/>
  <text x="376" y="2352" class="title">FieldLayout: StructDef</text>
  <text x="376" y="2370" class="line">offset : USize = 0</text>
  <text x="376" y="2388" class="line">size : USize = 0</text>
  <text x="376" y="2406" class="line">struct_name := &quot;&quot;</text>
  <rect x="362" y="2432" width="284" height="100" rx="10" ry="10" class="box"/>
  <text x="376" y="2470" class="title">StructLayout: StructDef</text>
  <text x="376" y="2488" class="line">total_size : USize = 0</text>
  <text x="376" y="2506" class="line">align : USize = 1</text>
  <text x="376" y="2524" class="line">fields := Vec(FieldLayout).new()</text>
  <rect x="362" y="2550" width="228" height="118" rx="10" ry="10" class="box"/>
  <text x="376" y="2588" class="title">AssignData: StructDef</text>
  <text x="376" y="2606" class="line">name := &quot;&quot;</text>
  <text x="376" y="2624" class="line">save_old_delete := false</text>
  <text x="376" y="2642" class="line">is_payload_alias := false</text>
  <text x="376" y="2660" class="line">swap_replace := false</text>
  <rect x="362" y="2686" width="236" height="82" rx="10" ry="10" class="box"/>
  <text x="376" y="2724" class="title">FieldAssignData: StructDef</text>
  <text x="376" y="2742" class="line">name := &quot;&quot;</text>
  <text x="376" y="2760" class="line">save_old_delete := false</text>
  <rect x="362" y="2786" width="220" height="136" rx="10" ry="10" class="box"/>
  <text x="376" y="2824" class="title">ForInData: StructDef</text>
  <text x="376" y="2842" class="line">name := &quot;&quot;</text>
  <text x="376" y="2860" class="line">is_mut := false</text>
  <text x="376" y="2878" class="line">til_type := Type.Unknown</text>
  <text x="376" y="2896" class="line">name2 := &quot;&quot;</text>
  <text x="376" y="2914" class="line">is_mut2 := false</text>
  <rect x="362" y="2940" width="172" height="154" rx="10" ry="10" class="box"/>
  <text x="376" y="2978" class="title">Literal: EnumDef</text>
  <text x="376" y="2996" class="line">Str:Str</text>
  <text x="376" y="3014" class="line">Num:LiteralNumData</text>
  <text x="376" y="3032" class="line">Bool:Bool</text>
  <text x="376" y="3050" class="line">Null</text>
  <text x="376" y="3068" class="line">MapLit</text>
  <text x="376" y="3086" class="line">SetLit</text>
  <rect x="362" y="3112" width="220" height="82" rx="10" ry="10" class="box"/>
  <text x="376" y="3150" class="title">MatchData: StructDef</text>
  <text x="376" y="3168" class="line">til_type := Type.Unknown</text>
  <text x="376" y="3186" class="line">result_temp := &quot;&quot;</text>
  <rect x="362" y="3212" width="300" height="64" rx="10" ry="10" class="box"/>
  <text x="376" y="3250" class="title">CaptureBlockData: StructDef</text>
  <text x="376" y="3268" class="line">captures := Vec(Declaration).new()</text>
  <rect x="362" y="3294" width="260" height="532" rx="10" ry="10" class="box"/>
  <text x="376" y="3332" class="title">NodeType: EnumDef</text>
  <text x="376" y="3350" class="line">Body</text>
  <text x="376" y="3368" class="line">Literal:Literal</text>
  <text x="376" y="3386" class="line">Ident:IdentData</text>
  <text x="376" y="3404" class="line">Decl:Declaration</text>
  <text x="376" y="3422" class="line">Assign:AssignData</text>
  <text x="376" y="3440" class="line">FCall:FCallData</text>
  <text x="376" y="3458" class="line">FuncDef:FunctionDef</text>
  <text x="376" y="3476" class="line">StructDef:StructDef</text>
  <text x="376" y="3494" class="line">EnumDef:EnumDef</text>
  <text x="376" y="3512" class="line">FieldAccess:FieldAccessData</text>
  <text x="376" y="3530" class="line">FieldAssign:FieldAssignData</text>
  <text x="376" y="3548" class="line">Return</text>
  <text x="376" y="3566" class="line">If</text>
  <text x="376" y="3584" class="line">While</text>
  <text x="376" y="3602" class="line">ForIn:ForInData</text>
  <text x="376" y="3620" class="line">NamedArg:Str</text>
  <text x="376" y="3638" class="line">Break</text>
  <text x="376" y="3656" class="line">Continue</text>
  <text x="376" y="3674" class="line">Switch</text>
  <text x="376" y="3692" class="line">Match:MatchData</text>
  <text x="376" y="3710" class="line">Case</text>
  <text x="376" y="3728" class="line">NoDefaultArg</text>
  <text x="376" y="3746" class="line">Throw</text>
  <text x="376" y="3764" class="line">Catch</text>
  <text x="376" y="3782" class="line">RestPattern</text>
  <text x="376" y="3800" class="line">CaptureBlock:CaptureBlockData</text>
  <text x="376" y="3818" class="line">Loc</text>
  <rect x="362" y="3844" width="244" height="118" rx="10" ry="10" class="box"/>
  <text x="376" y="3882" class="title">Expr: StructDef</text>
  <text x="376" y="3900" class="line">node_type := NodeType.Body</text>
  <text x="376" y="3918" class="line">children := Vec(Expr).new()</text>
  <text x="376" y="3936" class="line">line : U32 = 0</text>
  <text x="376" y="3954" class="line">col : U32 = 0</text>
  <rect x="956" y="24" width="356" height="344" rx="14" ry="14" class="panel"/>
  <text x="976" y="62" class="panel-label">parser</text>
  <rect x="976" y="88" width="316" height="262" rx="10" ry="10" class="box"/>
  <text x="990" y="126" class="title">Parser: StructDef</text>
  <text x="990" y="144" class="line">tokens := Vec(Token).new()</text>
  <text x="990" y="162" class="line">pos : USize = 0</text>
  <text x="990" y="180" class="line">path := &quot;&quot;</text>
  <text x="990" y="198" class="line">fn_sig_decls := Vec(Expr).new()</text>
  <text x="990" y="216" class="line">type_gen_decls := Vec(Expr).new()</text>
  <text x="990" y="234" class="line">type_gen_seen := Set(Str).new()</text>
  <text x="990" y="252" class="line">active_type_params := Vec(Str).new()</text>
  <text x="990" y="270" class="line">anon_decls := Vec(Expr).new()</text>
  <text x="990" y="288" class="line">anon_cache := Map(Str, Str).new()</text>
  <text x="990" y="306" class="line">anon_type_counter : I64 = 0</text>
  <text x="990" y="324" class="line">pending_doc := &quot;&quot;</text>
  <text x="990" y="342" class="line">source := &quot;&quot;</text>
  <rect x="1346" y="24" width="460" height="1672" rx="14" ry="14" class="panel"/>
  <text x="1366" y="62" class="panel-label">context</text>
  <rect x="1366" y="88" width="244" height="388" rx="10" ry="10" class="box"/>
  <text x="1380" y="126" class="title">TypeBinding: StructDef</text>
  <text x="1380" y="144" class="line">name := &quot;&quot;</text>
  <text x="1380" y="162" class="line">type := Type.Unknown</text>
  <text x="1380" y="180" class="line">is_mut := false</text>
  <text x="1380" y="198" class="line">is_priv := false</text>
  <text x="1380" y="216" class="line">path := &quot;&quot;</text>
  <text x="1380" y="234" class="line">line : U32 = 0</text>
  <text x="1380" y="252" class="line">col : U32 = 0</text>
  <text x="1380" y="270" class="line">is_param := false</text>
  <text x="1380" y="288" class="line">own_type := OwnType.Shallow</text>
  <text x="1380" y="306" class="line">is_alias := false</text>
  <text x="1380" y="324" class="line">is_type_alias := false</text>
  <text x="1380" y="342" class="line">is_func_decl := false</text>
  <text x="1380" y="360" class="line">alias_target := &quot;&quot;</text>
  <text x="1380" y="378" class="line">func_type := FuncType.Func</text>
  <text x="1380" y="396" class="line">is_builtin := false</text>
  <text x="1380" y="414" class="line">used := false</text>
  <text x="1380" y="432" class="line">written := false</text>
  <text x="1380" y="450" class="line">mut_explicit := false</text>
  <text x="1380" y="468" class="line">orig_name := &quot;&quot;</text>
  <rect x="1366" y="494" width="180" height="82" rx="10" ry="10" class="box"/>
  <text x="1380" y="532" class="title">ScopeFind: EnumDef</text>
  <text x="1380" y="550" class="line">NotFound</text>
  <text x="1380" y="568" class="line">Found:TypeBinding }</text>
  <rect x="1366" y="594" width="340" height="154" rx="10" ry="10" class="box"/>
  <text x="1380" y="632" class="title">TypeScope: StructDef</text>
  <text x="1380" y="650" class="line">bindings := Map(Str, TypeBinding).new()</text>
  <text x="1380" y="668" class="line">target_usize_pname := &quot;U32&quot;</text>
  <text x="1380" y="686" class="line">target_uptr_pname := &quot;U64&quot;</text>
  <text x="1380" y="704" class="line">func_defs := Map(Str, Dynamic).new()</text>
  <text x="1380" y="722" class="line">struct_defs := Map(Str, Dynamic).new()</text>
  <text x="1380" y="740" class="line">ref parent : TypeScope = NULL</text>
  <rect x="1366" y="766" width="348" height="118" rx="10" ry="10" class="box"/>
  <text x="1380" y="804" class="title">ImportUnit: StructDef</text>
  <text x="1380" y="822" class="line">mode_str := &quot;&quot;</text>
  <text x="1380" y="840" class="line">mode := Mode()</text>
  <text x="1380" y="858" class="line">own ast := Expr.new(NodeType.Body, 0, 0)</text>
  <text x="1380" y="876" class="line">imports := Vec(Str).new()</text>
  <rect x="1366" y="902" width="372" height="208" rx="10" ry="10" class="box"/>
  <text x="1380" y="940" class="title">BuilderFuncScratch: StructDef</text>
  <text x="1380" y="958" class="line">local_fn_sigs := Map(Str, Dynamic).new()</text>
  <text x="1380" y="976" class="line">stack_locals := Set(Str).new()</text>
  <text x="1380" y="994" class="line">stack_local_types := Map(Str, Str).new()</text>
  <text x="1380" y="1012" class="line">stack_lit_str_locals := Set(Str).new()</text>
  <text x="1380" y="1030" class="line">force_heap_stack_lit_str_own : Bool = false</text>
  <text x="1380" y="1048" class="line">unsafe_to_hoist := Set(Str).new()</text>
  <text x="1380" y="1066" class="line">ref_locals := Set(Str).new()</text>
  <text x="1380" y="1084" class="line">ref_dyn_locals := Set(Str).new()</text>
  <text x="1380" y="1102" class="line">ptr_locals := Set(Str).new()</text>
  <rect x="1366" y="1128" width="420" height="550" rx="10" ry="10" class="box"/>
  <text x="1380" y="1166" class="title">Context: StructDef</text>
  <text x="1380" y="1184" class="line">mode := Mode()</text>
  <text x="1380" y="1202" class="line">path := &quot;&quot;</text>
  <text x="1380" y="1220" class="line">path_modes := Map(Str, Mode).new()</text>
  <text x="1380" y="1238" class="line">mode_registry := Map(Str, Mode).new()</text>
  <text x="1380" y="1256" class="line">eval_heap := EvalHeap.new()</text>
  <text x="1380" y="1274" class="line">target_usize_pname := &quot;U32&quot;</text>
  <text x="1380" y="1292" class="line">target_uptr_pname := &quot;U64&quot;</text>
  <text x="1380" y="1310" class="line">anon_type_counter : I64 = 0</text>
  <text x="1380" y="1328" class="line">compile_mode := false</text>
  <text x="1380" y="1346" class="line">imported := Map(Str, ImportUnit).new()</text>
  <text x="1380" y="1364" class="line">imports_init_seed_done := Set(Str).new()</text>
  <text x="1380" y="1382" class="line">imports_init_active := Set(Str).new()</text>
  <text x="1380" y="1400" class="line">imports_init_done := Set(Str).new()</text>
  <text x="1380" y="1418" class="line">imports_typer_decls_done := Set(Str).new()</text>
  <text x="1380" y="1436" class="line">imports_typer_bodies_done := Set(Str).new()</text>
  <text x="1380" y="1454" class="line">type_gen_synths := Set(Str).new()</text>
  <text x="1380" y="1472" class="line">generic_funcs := Map(Str, Expr).new()</text>
  <text x="1380" y="1490" class="line">generic_func_synths := Set(Str).new()</text>
  <text x="1380" y="1508" class="line">scope := TypeScope()</text>
  <text x="1380" y="1526" class="line">is_repl := false</text>
  <text x="1380" y="1544" class="line">struct_layouts := Map(Str, StructLayout).new()</text>
  <text x="1380" y="1562" class="line">constfolder_foldables := Map(Str, FuncType).new()</text>
  <text x="1380" y="1580" class="line">constfolder_known := Map(Str, Value).new()</text>
  <text x="1380" y="1598" class="line">constfolder_assigned := Set(Str).new()</text>
  <text x="1380" y="1616" class="line">has_return := false</text>
  <text x="1380" y="1634" class="line">has_break := false</text>
  <text x="1380" y="1652" class="line">has_continue := false</text>
  <text x="1380" y="1670" class="line">... (55 more)</text>
  <rect x="1840" y="24" width="188" height="444" rx="14" ry="14" class="panel"/>
  <text x="1860" y="62" class="panel-label">targets</text>
  <rect x="1860" y="88" width="132" height="100" rx="10" ry="10" class="box"/>
  <text x="1874" y="126" class="title">Lang: EnumDef</text>
  <text x="1874" y="144" class="line">C</text>
  <text x="1874" y="162" class="line">HolyC</text>
  <text x="1874" y="180" class="line">TIL</text>
  <rect x="1860" y="206" width="148" height="244" rx="10" ry="10" class="box"/>
  <text x="1874" y="244" class="title">Target: EnumDef</text>
  <text x="1874" y="262" class="line">LinuxX64</text>
  <text x="1874" y="280" class="line">LinuxArm64</text>
  <text x="1874" y="298" class="line">LinuxRiscv64</text>
  <text x="1874" y="316" class="line">LinuxX86</text>
  <text x="1874" y="334" class="line">LinuxArm32</text>
  <text x="1874" y="352" class="line">LinuxRiscv32</text>
  <text x="1874" y="370" class="line">WindowsX64</text>
  <text x="1874" y="388" class="line">MacosX64</text>
  <text x="1874" y="406" class="line">MacosArm64</text>
  <text x="1874" y="424" class="line">Wasm32</text>
  <text x="1874" y="442" class="line">TempleosX86</text>
  <rect x="2062" y="24" width="388" height="852" rx="14" ry="14" class="panel"/>
  <text x="2082" y="62" class="panel-label">loader</text>
  <rect x="2082" y="88" width="228" height="100" rx="10" ry="10" class="box"/>
  <text x="2096" y="126" class="title">ProgramUnit: StructDef</text>
  <text x="2096" y="144" class="line">path := &quot;&quot;</text>
  <text x="2096" y="162" class="line">mode := Mode()</text>
  <text x="2096" y="180" class="line">imports := Vec(Str).new()</text>
  <rect x="2082" y="206" width="348" height="298" rx="10" ry="10" class="box"/>
  <text x="2096" y="244" class="title">LoadedProgram: StructDef</text>
  <text x="2096" y="262" class="line">own core_units := Vec(ProgramUnit).new()</text>
  <text x="2096" y="280" class="line">own units := Vec(ProgramUnit).new()</text>
  <text x="2096" y="298" class="line">mode_files := Vec(Str).new()</text>
  <text x="2096" y="316" class="line">target := Target.LinuxX64</text>
  <text x="2096" y="334" class="line">cur_mode := Mode()</text>
  <text x="2096" y="352" class="line">ctx := Context()</text>
  <text x="2096" y="370" class="line">skip_core := false</text>
  <text x="2096" y="388" class="line">mode_str := &quot;&quot;</text>
  <text x="2096" y="406" class="line">path := &quot;&quot;</text>
  <text x="2096" y="424" class="line">ext_c_path := &quot;&quot;</text>
  <text x="2096" y="442" class="line">link_flags := &quot;&quot;</text>
  <text x="2096" y="460" class="line">include_flags := &quot;&quot;</text>
  <text x="2096" y="478" class="line">link_c_paths := &quot;&quot;</text>
  <text x="2096" y="496" class="line">run_tests := false</text>
  <rect x="2082" y="522" width="172" height="82" rx="10" ry="10" class="box"/>
  <text x="2096" y="560" class="title">DeclRef: StructDef</text>
  <text x="2096" y="578" class="line">path := &quot;&quot;</text>
  <text x="2096" y="596" class="line">idx : U32 = 0</text>
  <rect x="2082" y="622" width="172" height="136" rx="10" ry="10" class="box"/>
  <text x="2096" y="660" class="title">DocMeta: StructDef</text>
  <text x="2096" y="678" class="line">body := &quot;&quot;</text>
  <text x="2096" y="696" class="line">group := &quot;&quot;</text>
  <text x="2096" y="714" class="line">since := &quot;&quot;</text>
  <text x="2096" y="732" class="line">deprecated := &quot;&quot;</text>
  <text x="2096" y="750" class="line">hidden := false</text>
  <rect x="2082" y="776" width="244" height="82" rx="10" ry="10" class="box"/>
  <text x="2096" y="814" class="title">ReplCoreDocCache: StructDef</text>
  <text x="2096" y="832" class="line">escaped_info := &quot;&quot;</text>
  <text x="2096" y="850" class="line">escaped_docs := &quot;&quot;</text>
  <rect x="2484" y="24" width="356" height="282" rx="14" ry="14" class="panel"/>
  <text x="2504" y="62" class="panel-label">typer</text>
  <rect x="2504" y="88" width="156" height="82" rx="10" ry="10" class="box"/>
  <text x="2518" y="126" class="title">CtorArg: EnumDef</text>
  <text x="2518" y="144" class="line">Unfilled</text>
  <text x="2518" y="162" class="line">Filled:Expr</text>
  <rect x="2504" y="188" width="316" height="100" rx="10" ry="10" class="box"/>
  <text x="2518" y="226" class="title">CoverageNode: StructDef</text>
  <text x="2518" y="244" class="line">fully_covered := false</text>
  <text x="2518" y="262" class="line">sub_names := Vec(Str).new()</text>
  <text x="2518" y="280" class="line">sub_nodes := Vec(CoverageNode).new()</text>
  <rect x="2874" y="24" width="276" height="254" rx="14" ry="14" class="panel"/>
  <text x="2894" y="62" class="panel-label">garbager</text>
  <rect x="2894" y="88" width="236" height="172" rx="10" ry="10" class="box"/>
  <text x="2908" y="126" class="title">LocalInfo: StructDef</text>
  <text x="2908" y="144" class="line">ref name : Str = NULL</text>
  <text x="2908" y="162" class="line">type := Type.Unknown</text>
  <text x="2908" y="180" class="line">decl_index : I32 = 0</text>
  <text x="2908" y="198" class="line">last_use : I32 = 0</text>
  <text x="2908" y="216" class="line">own_transfer : I32 = -1</text>
  <text x="2908" y="234" class="line">skip_scope_delete := false</text>
  <text x="2908" y="252" class="line">is_heap := false</text>
  <rect x="3184" y="24" width="308" height="798" rx="14" ry="14" class="panel"/>
  <text x="3204" y="62" class="panel-label">builder</text>
  <rect x="3204" y="88" width="236" height="82" rx="10" ry="10" class="box"/>
  <text x="3218" y="126" class="title">CollectionInfo: StructDef</text>
  <text x="3218" y="144" class="line">ref type_name : Str = NULL</text>
  <text x="3218" y="162" class="line">is_vec : I32 = 0</text>
  <rect x="3204" y="188" width="212" height="100" rx="10" ry="10" class="box"/>
  <text x="3218" y="226" class="title">DynCallInfo: StructDef</text>
  <text x="3218" y="244" class="line">ref method : Str = NULL</text>
  <text x="3218" y="262" class="line">nargs : I32 = 1</text>
  <text x="3218" y="280" class="line">has_return := false</text>
  <rect x="3204" y="306" width="196" height="190" rx="10" ry="10" class="box"/>
  <text x="3218" y="344" class="title">BuildPaths: StructDef</text>
  <text x="3218" y="362" class="line">name := &quot;&quot;</text>
  <text x="3218" y="380" class="line">c_path := &quot;&quot;</text>
  <text x="3218" y="398" class="line">bin_path := &quot;&quot;</text>
  <text x="3218" y="416" class="line">fwd_path := &quot;&quot;</text>
  <text x="3218" y="434" class="line">h_path := &quot;&quot;</text>
  <text x="3218" y="452" class="line">til_path := &quot;&quot;</text>
  <text x="3218" y="470" class="line">py_path := &quot;&quot;</text>
  <text x="3218" y="488" class="line">do_lib := false</text>
  <rect x="3204" y="514" width="180" height="208" rx="10" ry="10" class="box"/>
  <text x="3218" y="552" class="title">DocEntry: StructDef</text>
  <text x="3218" y="570" class="line">name := &quot;&quot;</text>
  <text x="3218" y="588" class="line">id := &quot;&quot;</text>
  <text x="3218" y="606" class="line">unit_path := &quot;&quot;</text>
  <text x="3218" y="624" class="line">group := &quot;&quot;</text>
  <text x="3218" y="642" class="line">page := &quot;&quot;</text>
  <text x="3218" y="660" class="line">body := &quot;&quot;</text>
  <text x="3218" y="678" class="line">info := &quot;&quot;</text>
  <text x="3218" y="696" class="line">since := &quot;&quot;</text>
  <text x="3218" y="714" class="line">deprecated := &quot;&quot;</text>
  <rect x="3204" y="740" width="268" height="64" rx="10" ry="10" class="box"/>
  <text x="3218" y="778" class="title">DocCatalog: StructDef</text>
  <text x="3218" y="796" class="line">entries := Vec(DocEntry).new()</text>
  <rect x="3526" y="24" width="428" height="1822" rx="14" ry="14" class="panel"/>
  <text x="3546" y="62" class="panel-label">interpreter</text>
  <rect x="3546" y="88" width="252" height="154" rx="10" ry="10" class="box"/>
  <text x="3560" y="126" class="title">StructInstance: StructDef</text>
  <text x="3560" y="144" class="line">ref struct_name : Str = NULL</text>
  <text x="3560" y="162" class="line">is_str := false</text>
  <text x="3560" y="180" class="line">ref struct_def : Expr = NULL</text>
  <text x="3560" y="198" class="line">ref ctx : Context = NULL</text>
  <text x="3560" y="216" class="line">own data : U8 = 0</text>
  <text x="3560" y="234" class="line">borrowed := false</text>
  <rect x="3546" y="260" width="236" height="136" rx="10" ry="10" class="box"/>
  <text x="3560" y="298" class="title">EnumInstance: StructDef</text>
  <text x="3560" y="316" class="line">ref enum_name : Str = NULL</text>
  <text x="3560" y="334" class="line">own data : U8 = 0</text>
  <text x="3560" y="352" class="line">data_size : USize = 0</text>
  <text x="3560" y="370" class="line">borrowed := false</text>
  <text x="3560" y="388" class="line">is_str := false</text>
  <rect x="3546" y="414" width="236" height="100" rx="10" ry="10" class="box"/>
  <text x="3560" y="452" class="title">InterpClosure: StructDef</text>
  <text x="3560" y="470" class="line">ref func_def : Expr = NULL</text>
  <text x="3560" y="488" class="line">ref env : Scope = NULL</text>
  <text x="3560" y="506" class="line">borrowed := false</text>
  <rect x="3546" y="532" width="196" height="352" rx="10" ry="10" class="box"/>
  <text x="3560" y="570" class="title">Value: EnumDef</text>
  <text x="3560" y="588" class="line">None</text>
  <text x="3560" y="606" class="line">Int:I64</text>
  <text x="3560" y="624" class="line">Byte:U8</text>
  <text x="3560" y="642" class="line">Short:I16</text>
  <text x="3560" y="660" class="line">Int32:I32</text>
  <text x="3560" y="678" class="line">Uint32:U32</text>
  <text x="3560" y="696" class="line">Uint64:U64</text>
  <text x="3560" y="714" class="line">Float:F32</text>
  <text x="3560" y="732" class="line">Boolean:Bool</text>
  <text x="3560" y="750" class="line">Func:Dynamic</text>
  <text x="3560" y="768" class="line">Struct:StructInstance</text>
  <text x="3560" y="786" class="line">Enum:EnumInstance</text>
  <text x="3560" y="804" class="line">Ref:Dynamic</text>
  <text x="3560" y="822" class="line">Dynamic:Dynamic</text>
  <text x="3560" y="840" class="line">Sbyte:I8</text>
  <text x="3560" y="858" class="line">Ushort:U16</text>
  <text x="3560" y="876" class="line">Closure:InterpClosure</text>
  <rect x="3546" y="902" width="164" height="64" rx="10" ry="10" class="box"/>
  <text x="3560" y="940" class="title">Cell: StructDef</text>
  <text x="3560" y="958" class="line">val := Value.None</text>
  <rect x="3546" y="984" width="204" height="100" rx="10" ry="10" class="box"/>
  <text x="3560" y="1022" class="title">Binding: StructDef</text>
  <text x="3560" y="1040" class="line">ref name : Str = NULL</text>
  <text x="3560" y="1058" class="line">ref cell : Cell = NULL</text>
  <text x="3560" y="1076" class="line">cell_is_local := false</text>
  <rect x="3546" y="1102" width="388" height="154" rx="10" ry="10" class="box"/>
  <text x="3560" y="1140" class="title">Scope: StructDef</text>
  <text x="3560" y="1158" class="line">bindings := Map(Str, Binding).new()</text>
  <text x="3560" y="1176" class="line">heap_index := Map(Str, Dynamic).new()</text>
  <text x="3560" y="1194" class="line">ref parent : Scope = NULL</text>
  <text x="3560" y="1212" class="line">payload_aliases := Map(Str, Str).new()</text>
  <text x="3560" y="1230" class="line">ref_primitive_ptrs := Map(Str, Dynamic).new()</text>
  <text x="3560" y="1248" class="line">box_owned_dynamics := Vec(DynPtrBox).new()</text>
  <rect x="3546" y="1274" width="188" height="64" rx="10" ry="10" class="box"/>
  <text x="3560" y="1312" class="title">DynPtrBox: StructDef</text>
  <text x="3560" y="1330" class="line">own p : U8 = 0</text>
  <rect x="3546" y="1356" width="188" height="100" rx="10" ry="10" class="box"/>
  <text x="3560" y="1394" class="title">ExtStr: StructDef</text>
  <text x="3560" y="1412" class="line">ref data : U8 = NULL</text>
  <text x="3560" y="1430" class="line">count : USize = 0</text>
  <text x="3560" y="1448" class="line">cap : USize = 0</text>
  <rect x="3546" y="1474" width="268" height="190" rx="10" ry="10" class="box"/>
  <text x="3560" y="1512" class="title">FFIEntry: StructDef</text>
  <text x="3560" y="1530" class="line">ref fn : U8 = NULL</text>
  <text x="3560" y="1548" class="line">ref return_type : Str = NULL</text>
  <text x="3560" y="1566" class="line">nparam : USize = 0</text>
  <text x="3560" y="1584" class="line">ref param_shallows : U8 = NULL</text>
  <text x="3560" y="1602" class="line">return_is_shallow := false</text>
  <text x="3560" y="1620" class="line">return_is_ref := false</text>
  <text x="3560" y="1638" class="line">ref cif : ffi_cif = NULL</text>
  <text x="3560" y="1656" class="line">ref arg_types : Dynamic = NULL</text>
  <rect x="3546" y="1682" width="196" height="64" rx="10" ry="10" class="box"/>
  <text x="3560" y="1720" class="title">ExprPtrBox: StructDef</text>
  <text x="3560" y="1738" class="line">ref ptr : Expr = NULL</text>
  <rect x="3546" y="1764" width="228" height="64" rx="10" ry="10" class="box"/>
  <text x="3560" y="1802" class="title">FFITypePtrBox: StructDef</text>
  <text x="3560" y="1820" class="line">ref ptr : ffi_type = NULL</text>
  <rect x="3988" y="24" width="268" height="164" rx="14" ry="14" class="panel"/>
  <text x="4008" y="62" class="panel-label">binder</text>
  <rect x="4008" y="88" width="228" height="82" rx="10" ry="10" class="box"/>
  <text x="4022" y="126" class="title">BinderState: StructDef</text>
  <text x="4022" y="144" class="line">alias_to_primitive := &quot;|&quot;</text>
  <text x="4022" y="162" class="line">alias_to_dynamic := &quot;|&quot;</text>
  <rect x="4290" y="24" width="252" height="146" rx="14" ry="14" class="panel"/>
  <text x="4310" y="62" class="panel-label">eval_heap</text>
  <rect x="4310" y="88" width="212" height="64" rx="10" ry="10" class="box"/>
  <text x="4324" y="126" class="title">EvalHeap: StructDef</text>
  <text x="4324" y="144" class="line">live_blocks : USize = 0</text>
</svg>
