<?xml version="1.0" encoding="UTF-8"?>
<svg version="1.1" xmlns="http://www.w3.org/2000/svg" width="1024" height="1024">
<path d="M0 0 C337.92 0 675.84 0 1024 0 C1024 337.92 1024 675.84 1024 1024 C686.08 1024 348.16 1024 0 1024 C0 686.08 0 348.16 0 0 Z " fill="#0B0B0B" transform="translate(0,0)"/>
<path d="M0 0 C337.92 0 675.84 0 1024 0 C1024 337.92 1024 675.84 1024 1024 C686.08 1024 348.16 1024 0 1024 C0 686.08 0 348.16 0 0 Z M452 82 C450.45916995 82.20094001 448.91831959 82.40172438 447.37744141 82.60229492 C373.08915328 92.70253387 305.36287292 122.40063391 246 168 C245.39317383 168.46116211 244.78634766 168.92232422 244.16113281 169.39746094 C236.44962502 175.26120324 229.16968498 181.41858028 222.1328125 188.078125 C219.87909862 190.20778124 217.56599529 192.24810902 215.21484375 194.26953125 C210.41176936 198.44934955 205.92732495 202.92617549 201.4375 207.4375 C200.62603516 208.24509766 199.81457031 209.05269531 198.97851562 209.88476562 C194.11025292 214.7608867 189.4771904 219.76450321 185 225 C184.03900454 226.09484328 183.07681817 227.18864271 182.11328125 228.28125 C130.07927896 287.82474662 97.32917253 363.40247668 84.33001709 441.03796387 C84.01190723 442.92920846 83.68316041 444.81865448 83.35400391 446.70800781 C80.05770398 466.38124588 79.60941129 486.02184756 79.56743622 505.9300766 C79.56259594 507.8984833 79.55310403 509.8668768 79.54351807 511.83526611 C79.46978344 535.79214358 81.39632385 559.47312644 86 583 C86.19432617 583.99483398 86.38865234 584.98966797 86.58886719 586.01464844 C93.57320086 621.18687585 103.35345932 655.64010906 119 688 C119.32677734 688.67853027 119.65355469 689.35706055 119.99023438 690.05615234 C121.90772699 694.01268249 123.88344145 697.93626897 125.89599609 701.84521484 C127.10711623 704.20906852 128.29700456 706.58312021 129.48828125 708.95703125 C149.2725824 747.98738418 177.49451558 782.46954109 208.25 813.375 C209.2241687 814.35617798 209.2241687 814.35617798 210.21801758 815.35717773 C214.08250386 819.20890508 218.06210499 822.8715163 222.19189453 826.43701172 C224.43565915 828.37659869 226.62356613 830.37390809 228.8125 832.375 C234.06206554 837.10599143 239.49956378 841.56553979 245 846 C246.13349018 846.93668053 247.26627128 847.87421963 248.3984375 848.8125 C263.15568527 860.95365387 279.19181727 870.91621799 295.63623047 880.59472656 C297.81637783 881.89083566 299.97527042 883.21513543 302.12890625 884.5546875 C348.96838609 913.43855535 407.82495218 930.26522367 462 938 C462.7626416 938.11569336 463.5252832 938.23138672 464.31103516 938.35058594 C550.97741857 951.08508396 645.93094153 926.20877266 759.39697266 863.19628906 C762.441855 860.92398881 765.4004606 858.55659277 768.33203125 856.140625 C771.04806282 853.96143715 773.82589648 851.8937427 776.62963867 849.82983398 C785.47836256 843.30535671 793.8247914 836.34685367 802 829 C802.5578418 828.50000488 803.11568359 828.00000977 803.69042969 827.48486328 C814.39465005 817.85106496 825.06816134 807.90415592 834.37890625 796.8984375 C836.2809365 794.67099967 838.2660772 792.52977029 840.25 790.375 C845.29815828 784.77256758 849.92244425 778.88465799 854.52001953 772.91259766 C856.0097521 770.98739724 857.5169948 769.0770228 859.02734375 767.16796875 C917.27176799 693.00728242 946.32058012 599.55448297 946.1875 505.6875 C946.18656342 504.82248871 946.18562683 503.95747742 946.18466187 503.06625366 C945.97510547 412.98074713 915.37301543 321.98741236 860.66113281 250.19189453 C859.01191928 248.0157277 857.38910278 245.82225242 855.7734375 243.62109375 C850.86103624 236.94625137 845.89848926 230.47024001 840.23046875 224.40625 C838.43514766 222.46944126 836.71872816 220.50261754 835.00390625 218.49609375 C830.36385779 213.1777843 825.38356754 208.19752224 820.39501953 203.2097168 C818.76172552 201.57424118 817.1366153 199.93092292 815.51171875 198.28710938 C808.99580285 191.73669291 802.24126535 185.75417993 795 180 C793.89805931 179.06535312 792.80171976 178.12399821 791.71484375 177.171875 C744.12846499 135.67601729 683.3541894 105.47899075 622 91 C620.95811523 90.75056641 619.91623047 90.50113281 618.84277344 90.24414062 C600.72366343 85.96653086 582.51076892 82.97126099 564 81 C563.21123474 80.91279694 562.42246948 80.82559387 561.60980225 80.73574829 C545.15594413 78.95593182 528.79360135 78.65910749 512.25366211 78.68780518 C508.93205778 78.68729927 505.6105911 78.65969162 502.2890625 78.63867188 C485.32491621 78.59671037 468.8052972 79.71569846 452 82 Z " fill="#FBFBFB" transform="translate(0,0)"/>
<path d="M0 0 C34.13386562 8.62904834 66.35832315 23.50479752 95 44 C95.69367676 44.49435547 96.38735352 44.98871094 97.10205078 45.49804688 C107.29720434 52.7927633 117.15158402 60.34031058 126.515625 68.67871094 C127.87757656 69.89102703 129.2507608 71.0906932 130.625 72.2890625 C141.1120496 81.53245557 150.72738848 91.21411624 159.19140625 102.34375 C161.6438845 105.56844984 164.19988357 108.69475946 166.78515625 111.81347656 C209.81934852 163.87671036 234.24582675 229.58709089 243.56201172 295.90429688 C243.84763564 297.92308801 244.14556445 299.94018788 244.45751953 301.95507812 C247.09731283 319.25754206 247.29015967 336.46675994 247.3125 353.9375 C247.31608521 355.06812866 247.31967041 356.19875732 247.32336426 357.36364746 C247.35710316 377.15689567 245.96084338 396.51058596 242.875 416.0625 C242.71976868 417.04774155 242.71976868 417.04774155 242.56140137 418.05288696 C238.23125027 445.24364128 231.98035112 471.95770949 223 498 C222.39961914 499.74724365 222.39961914 499.74724365 221.78710938 501.52978516 C212.66655396 527.6526358 201.02616452 553.69818342 186 577 C185.41822998 577.91193115 185.41822998 577.91193115 184.82470703 578.84228516 C171.45312019 599.6940982 156.38824403 619.4375279 140 638 C139.55672363 638.50257324 139.11344727 639.00514648 138.65673828 639.52294922 C131.64212022 647.41668391 124.20280289 654.89839217 116.75 662.375 C116.2781427 662.84953613 115.8062854 663.32407227 115.32012939 663.81298828 C109.72289548 669.43431778 104.03949774 674.85766809 98 680 C96.91676439 680.94914809 95.83468308 681.89961559 94.75390625 682.8515625 C41.6689158 729.17998071 -24.11846048 760.69606822 -93 775 C-93.78826172 775.16725586 -94.57652344 775.33451172 -95.38867188 775.50683594 C-105.834647 777.70474473 -116.36680082 779.11161462 -127 780 C-128.06541016 780.09047607 -129.13082031 780.18095215 -130.22851562 780.27416992 C-142.97941634 781.21717061 -155.72096877 781.11174303 -168.5 781.0625 C-170.78775943 781.05747231 -173.07551994 781.05291166 -175.36328125 781.04882812 C-180.90887807 781.03792916 -186.45443384 781.0212927 -192 781 C-191.45630902 776.23387775 -190.79173957 771.66637675 -189.6171875 767.0078125 C-189.33617187 765.88761719 -189.05515625 764.76742187 -188.765625 763.61328125 C-188.47171875 762.46214844 -188.1778125 761.31101562 -187.875 760.125 C-187.46894531 758.50271484 -187.46894531 758.50271484 -187.0546875 756.84765625 C-185.58991295 751.0474106 -184.07713517 745.26295038 -182.50170898 739.49169922 C-177.67057617 721.78249273 -173.23167726 703.99112086 -168.87194824 686.16156006 C-167.74805825 681.56803063 -166.62011545 676.97549493 -165.49276257 672.38281441 C-164.61601738 668.81078416 -163.73979893 665.23862839 -162.86555481 661.66598511 C-159.50036226 647.91970745 -156.05786596 634.19372054 -152.5730381 620.477314 C-151.61667719 616.71247119 -150.66167097 612.94728465 -149.70654297 609.18212891 C-149.50363679 608.38230528 -149.30073061 607.58248165 -149.09167576 606.75842094 C-132.14894037 539.96557586 -115.44384842 473.11361131 -98.9885273 406.19904137 C-95.91910864 393.71840962 -92.83511633 381.24141789 -89.74609375 368.765625 C-80.22716096 330.31518721 -70.78255155 291.84932223 -61.49787903 253.34162903 C-58.60433703 241.34726793 -55.68387006 229.35955532 -52.75 217.375 C-52.507052 216.38207947 -52.264104 215.38915894 -52.01379395 214.3661499 C-49.39339842 203.66323429 -46.74834825 192.9669567 -44.05859375 182.28125 C-43.8160788 181.31659821 -43.57356384 180.35194641 -43.32369995 179.35806274 C-42.19283386 174.86151357 -41.05836696 170.36595538 -39.91503906 165.87255859 C-37.18637449 155.0908102 -34.68013073 144.26771417 -32.24883842 133.41513062 C-28.7142818 117.64123815 -25.01670852 101.90708715 -21.29452515 86.17655182 C-20.74131861 83.83830626 -20.18860826 81.49994384 -19.63598633 79.16156006 C-14.98101556 59.46887983 -10.29522115 39.78407955 -5.5 20.125 C-5.27066772 19.18203064 -5.04133545 18.23906128 -4.80505371 17.26751709 C-4.17499557 14.68023382 -3.54144088 12.09383979 -2.90625 9.5078125 C-2.72479431 8.76251282 -2.54333862 8.01721313 -2.35638428 7.24932861 C-1.1158834 2.23176679 -1.1158834 2.23176679 0 0 Z " fill="#E7D8BC" transform="translate(630,115)"/>
<path d="M0 0 C-1.44949683 9.36055797 -3.79863019 18.47109367 -6.13195801 27.63961792 C-11.56033849 48.993076 -16.79611242 70.39232856 -22.00109863 91.80102539 C-29.96885142 124.57317589 -38.01490087 157.32528533 -46.125 190.0625 C-46.38040684 191.09351711 -46.63581367 192.12453423 -46.89896011 193.18679428 C-48.93696303 201.41353509 -50.97514609 209.64023128 -53.01376534 217.86681938 C-56.23127499 230.85083491 -59.44365854 243.83609132 -62.64453125 256.82421875 C-62.82501511 257.55656235 -63.00549896 258.28890594 -63.19145203 259.04344177 C-64.6164193 264.82600396 -66.04074093 270.60872514 -67.46489716 276.39148712 C-72.35260206 296.23760838 -77.25647782 316.07965443 -82.17578125 335.91796875 C-84.36749318 344.75773673 -86.55889728 353.597581 -88.75 362.4375 C-89.02182854 363.53412334 -89.29365707 364.63074669 -89.57372284 365.76060104 C-95.97665062 391.59387344 -102.35618776 417.4311934 -108.5625 443.3125 C-113.19606224 462.62830526 -117.92841336 481.91786409 -122.75 501.1875 C-122.91486404 501.84646145 -123.07972809 502.5054229 -123.24958801 503.18435287 C-127.34188195 519.53653528 -131.47195646 535.87898414 -135.62890625 552.21484375 C-136.0198829 553.75153458 -136.41085377 555.28822688 -136.80181885 556.82492065 C-137.09203541 557.96559274 -137.09203541 557.96559274 -137.38811493 559.1293087 C-138.16842727 562.19634134 -138.94868148 565.26338876 -139.72884369 568.33045959 C-140.11807444 569.86065069 -140.50734143 571.39083257 -140.89664459 572.92100525 C-145.82011052 592.27589755 -150.66361861 611.64377765 -155.24884033 631.08218384 C-159.90019842 650.79535289 -164.82984079 670.4368228 -169.76106071 690.0813427 C-170.60791837 693.45519887 -171.45447967 696.8291293 -172.30078125 700.203125 C-172.46420391 700.85456608 -172.62762657 701.50600716 -172.79600143 702.17718887 C-175.8622201 714.40462948 -178.86413975 726.64659831 -181.79370117 738.9074707 C-183.0867836 744.30943468 -184.40870001 749.67764225 -186 755 C-191.20362093 754.41367652 -195.39568809 751.93296822 -199.9375 749.5 C-200.77853271 749.05221191 -201.61956543 748.60442383 -202.48608398 748.14306641 C-213.78523857 742.04940581 -224.11622644 735.21307888 -234 727 C-235.24833861 725.9966274 -236.49848338 724.99549958 -237.75 723.99609375 C-245.12085995 718.09534179 -252.2895805 712.07305518 -259.1875 705.625 C-262.02508659 702.97658585 -264.91500241 700.3950522 -267.8125 697.8125 C-271.60473893 694.37340653 -275.04131628 690.83399773 -278.33203125 686.91796875 C-280.08951331 684.89707018 -281.95155076 683.05048718 -283.875 681.1875 C-288.66558084 676.45198331 -292.80285747 671.25971026 -297 666 C-297.92604296 664.86373465 -298.85317056 663.72835261 -299.78125 662.59375 C-335.85179485 618.30133104 -359.85139574 570.28775129 -377 516 C-377.20536377 515.35504578 -377.41072754 514.71009155 -377.62231445 514.04559326 C-384.49692804 492.41073812 -388.10968781 470.46535268 -391 448 C-391.09401093 447.30803528 -391.18802185 446.61607056 -391.28488159 445.90313721 C-392.08194496 439.56494633 -392.17733052 433.27336805 -392.203125 426.890625 C-392.21009399 425.73817795 -392.21706299 424.5857309 -392.22424316 423.39836121 C-392.24160875 419.68220359 -392.24796679 415.96619654 -392.25 412.25 C-392.25100708 410.98568146 -392.25201416 409.72136292 -392.25305176 408.41873169 C-392.24313294 390.06294436 -391.78636855 372.16762272 -389 354 C-388.76486303 352.23968495 -388.53046733 350.47927069 -388.296875 348.71875 C-382.72758041 310.05748408 -371.69587329 267.97705845 -354 233 C-353.5457666 232.08879395 -353.0915332 231.17758789 -352.62353516 230.23876953 C-340.69551055 206.41742845 -327.96187575 181.69422749 -311 161 C-310.33613281 160.175 -309.67226563 159.35 -308.98828125 158.5 C-296.18854937 142.68991826 -282.71145173 127.65022042 -268.38616943 113.2109375 C-266.98146903 111.79434139 -265.58075592 110.37379492 -264.18017578 108.953125 C-258.09803377 102.86332699 -251.72433907 97.3645056 -245 92 C-243.96067321 91.12494865 -242.92553842 90.24483861 -241.8984375 89.35546875 C-233.67941087 82.2942307 -224.9306908 76.12010095 -216 70 C-215.37222656 69.566875 -214.74445313 69.13375 -214.09765625 68.6875 C-152.76067087 26.47710146 -75.31901319 -2.31882937 0 0 Z " fill="#E7D9BC" transform="translate(490,100)"/>
<path d="M0 0 C29.7 0 59.4 0 90 0 C89.34 1.98 88.68 3.96 88 6 C87.51817456 8.08396515 87.06800937 10.17542169 86.64428711 12.27197266 C84.86365273 20.78284385 82.7856617 29.21014321 80.69140625 37.6484375 C80.2791092 39.31641199 79.86699865 40.98443259 79.45506287 42.65249634 C78.37845816 47.00979533 77.29924705 51.36644458 76.21948242 55.72296143 C75.13096531 60.11697454 74.04514294 64.51165341 72.95898438 68.90625 C67.96321317 89.11212754 62.94226199 109.31101883 57.83203125 129.48828125 C57.43549919 131.05467807 57.03898481 132.62107936 56.64248657 134.18748474 C55.36618219 139.22924712 54.08935998 144.2708783 52.8125 149.3125 C52.37093853 151.05611099 51.92937971 152.79972265 51.48782349 154.54333496 C48.99559203 164.38442964 46.50281936 174.22538714 44.00973988 184.06626701 C42.48947359 190.06734692 40.96970066 196.0685516 39.45019531 202.06982422 C37.66810703 209.10809043 35.88527649 216.14616811 34.10146999 223.18399906 C33.18399942 226.80382961 32.26683516 230.42373703 31.35049438 234.04385376 C30.33764288 238.04514408 29.32319185 242.04602721 28.30859375 246.046875 C28.01570465 247.2048912 27.72281555 248.36290741 27.42105103 249.55601501 C27.00658218 251.18876122 27.00658218 251.18876122 26.58374023 252.85449219 C26.34872299 253.78203308 26.11370575 254.70957397 25.87156677 255.66522217 C24.62002902 260.4538402 23.30229054 265.22493468 22 270 C54.67 270 87.34 270 121 270 C118.74969698 283.5018181 118.74969698 283.5018181 117.59545898 288.19580078 C117.33856796 289.24953888 117.08167694 290.30327698 116.81700134 291.38894653 C116.54610184 292.4800473 116.27520233 293.57114807 115.99609375 294.6953125 C115.71274673 295.84998016 115.42939972 297.00464783 115.13746643 298.19430542 C114.54371772 300.6098773 113.94782208 303.0249224 113.34985352 305.43945312 C112.43169469 309.14845116 111.52100859 312.85922691 110.61132812 316.5703125 C110.03168431 318.92458614 109.45162146 321.27875666 108.87109375 323.6328125 C108.59817001 324.74415558 108.32524628 325.85549866 108.04405212 327.0005188 C107.79031326 328.02273529 107.5365744 329.04495178 107.27514648 330.09814453 C107.0524559 330.99904816 106.82976532 331.89995178 106.60032654 332.82815552 C106 335 106 335 105 337 C43.95 337 -17.1 337 -80 337 C-78.7519089 330.13549894 -77.46953052 323.41751664 -75.80786133 316.66308594 C-75.59727774 315.79580651 -75.38669415 314.92852709 -75.16972923 314.03496647 C-74.47677055 311.18404443 -73.77938308 308.33422531 -73.08203125 305.484375 C-72.58727735 303.45195508 -72.0928439 301.41945713 -71.59870911 299.3868866 C-70.55024859 295.07627053 -69.50000588 290.76609449 -68.44830322 286.45626831 C-65.97571202 276.32263768 -63.5130986 266.18658104 -61.0504303 256.0505352 C-60.50322089 253.79835995 -59.95590826 251.54620978 -59.40849304 249.29408455 C-54.76448035 230.18690198 -50.16685083 211.06920936 -45.625 191.9375 C-45.32336945 190.66749146 -45.02173889 189.39748291 -44.71096802 188.08898926 C-43.04413184 181.06903047 -41.37989896 174.04845784 -39.71716309 167.02752686 C-37.89868317 159.35075585 -36.0753001 151.67515186 -34.25 144 C-34.06584534 143.22509216 -33.88169067 142.45018433 -33.69195557 141.65179443 C-30.85829669 129.73247444 -27.99585012 117.82014776 -25.12548065 105.90962601 C-24.50963319 103.35404201 -23.89398241 100.7984107 -23.27838135 98.24276733 C-19.60401047 82.98975415 -19.60401047 82.98975415 -17.78559113 75.46482849 C-11.72023437 50.33951766 -5.85509271 25.17689864 0 0 Z " fill="#0B0B0B" transform="translate(638,297)"/>
<path d="M0 0 C68.64 0 137.28 0 208 0 C206.87519502 8.99843985 206.87519502 8.99843985 205.90844727 13.0480957 C205.69474991 13.95296219 205.48105255 14.85782867 205.26087952 15.79011536 C205.03170334 16.7423851 204.80252716 17.69465485 204.56640625 18.67578125 C204.32840805 19.68158737 204.09040985 20.68739349 203.84519958 21.72367859 C203.08827757 24.92091233 202.32588546 28.11680385 201.5625 31.3125 C200.80315514 34.49759026 200.04512065 37.68297053 199.29051208 40.8691864 C198.82256424 42.84448738 198.35193527 44.81915598 197.87806702 46.79304504 C196.53288354 52.46486835 195.3990227 58.1342179 194.44493103 63.88542175 C194 66 194 66 193 67 C191.06776005 67.12357078 189.13106201 67.17794458 187.19506836 67.20532227 C185.95385727 67.22526749 184.71264618 67.24521271 183.43382263 67.26576233 C182.0691643 67.28274793 180.70450463 67.29962669 179.33984375 67.31640625 C177.95121125 67.33696936 176.5625851 67.35796566 175.17396545 67.37937927 C171.51285941 67.43466647 167.85169627 67.48404626 164.19049072 67.53222656 C160.45702003 67.58239321 156.72363262 67.63810446 152.99023438 67.69335938 C145.6602267 67.80102218 138.33014995 67.90244894 131 68 C125.45381134 89.12323528 120.03868066 110.2800064 114.625 131.4375 C114.38337883 132.38161995 114.14175766 133.3257399 113.89281464 134.29846954 C105.78657922 165.9756443 97.77818356 197.67531798 89.88664246 229.40664673 C87.68362577 238.26295119 85.47074708 247.11673974 83.25218964 255.96916199 C82.7081237 258.140172 82.1642418 260.31122803 81.62042236 262.4822998 C81.44213646 263.19404987 81.26385056 263.90579994 81.08016205 264.63911819 C80.72245942 266.0671346 80.36475779 267.49515127 80.00705719 268.92316818 C79.15465598 272.3258414 78.30191182 275.7284278 77.44830322 279.13079834 C76.50473254 282.89289704 75.56277199 286.65539598 74.62109375 290.41796875 C74.35810989 291.46475296 74.09512604 292.51153717 73.82417297 293.59004211 C70.46158429 307.03932615 67.25318278 320.52252849 64 334 C37.6 334 11.2 334 -16 334 C-14.87504102 319.37553331 -14.87504102 319.37553331 -13.63989258 314.46191406 C-13.36422455 313.34309341 -13.08855652 312.22427277 -12.80453491 311.07154846 C-12.5042337 309.89809372 -12.2039325 308.72463898 -11.89453125 307.515625 C-11.41107992 305.57142944 -10.92762865 303.62723387 -10.44417953 301.68303776 C-9.93024735 299.62501079 -9.41112933 297.56835888 -8.89035034 295.51205444 C-7.78574704 291.15033977 -6.69566875 286.78507025 -5.60766602 282.41918945 C-4.29937292 277.17276937 -2.98798197 271.92714569 -1.67230511 266.68257236 C0.36645631 258.55369009 2.37990442 250.41899187 4.3671875 242.27734375 C4.63074539 241.19769348 4.89430328 240.11804321 5.16584778 239.00567627 C5.69722013 236.82836252 6.22853629 234.65103505 6.75979614 232.47369385 C13.08117042 206.59458405 19.53558912 180.74844465 25.99348068 154.90314102 C26.7348974 151.9354516 27.47590934 148.96766137 28.21682739 145.99984741 C34.71518504 119.97462868 41.31409591 93.97777644 48 68 C16.32 67.505 16.32 67.505 -16 67 C-14.87605268 56.88447409 -14.87605268 56.88447409 -13.4765625 51.70703125 C-13.17927246 50.58925293 -12.88198242 49.47147461 -12.57568359 48.31982422 C-12.26195801 47.16240723 -11.94823242 46.00499023 -11.625 44.8125 C-8.77814312 34.14617129 -8.77814312 34.14617129 -6.375 23.375 C-4.6722222 15.48030291 -2.27884368 7.74806853 0 0 Z " fill="#0B0B0B" transform="translate(213,300)"/>
<path d="M0 0 C23.1 0 46.2 0 70 0 C63.11096854 31.00064157 63.11096854 31.00064157 60.171875 42.2734375 C59.82523421 43.61741538 59.47900986 44.96150073 59.13314819 46.30567932 C58.39511509 49.17052463 57.65434313 52.03464047 56.91119385 54.89816284 C55.70963636 59.52805349 54.51437857 64.15955807 53.31982422 68.79125977 C51.7759323 74.77571337 50.23038836 80.7597364 48.68311882 86.7433176 C45.16005001 100.36888936 41.65331175 113.99864472 38.1484375 127.62890625 C37.56051847 129.91496084 36.97258715 132.20101227 36.38464355 134.48706055 C35.94817253 136.18415728 35.94817253 136.18415728 35.50288391 137.91553879 C35.21221542 139.04572056 34.92154694 140.17590233 34.62207031 141.34033203 C34.33184494 142.46881184 34.04161957 143.59729164 33.74259949 144.7599678 C30.92369502 155.72056295 28.10470015 166.68113439 25.28297806 177.64100456 C24.77688802 179.60704748 24.27097732 181.57313658 23.76527023 183.53927803 C23.06161353 186.27492815 22.35736369 189.01042471 21.65283203 191.74584961 C21.43176222 192.60495595 21.21069241 193.46406229 20.98292351 194.34920216 C19.86531361 198.68274702 18.73432441 203.01225581 17.58197021 207.33670044 C17.35288404 208.19816209 17.12379787 209.05962374 16.8877697 209.94719028 C16.45607216 211.56694802 16.02203934 213.18608603 15.58514595 214.80445004 C15.39131262 215.53172582 15.19747929 216.2590016 14.99777222 217.00831604 C14.82859221 217.63701882 14.65941219 218.26572161 14.48510551 218.91347599 C13.8644863 221.58286824 13.45054991 224.29670054 13 227 C-9.77 227 -32.54 227 -56 227 C-54.87536387 216.8782748 -54.87536387 216.8782748 -53.75097656 212.57568359 C-53.49766068 211.59238571 -53.24434479 210.60908783 -52.98335266 209.59599304 C-52.70525253 208.54079971 -52.4271524 207.48560638 -52.140625 206.3984375 C-51.52388982 204.00938901 -50.90727865 201.62030851 -50.29077148 199.23120117 C-49.95987518 197.95812103 -49.62897888 196.68504089 -49.28805542 195.37338257 C-47.46038586 188.34114495 -45.65912985 181.30214091 -43.86328125 174.26171875 C-43.67053682 173.50640429 -43.4777924 172.75108982 -43.27920723 171.97288704 C-38.36616035 152.69240701 -33.74422206 133.34225541 -29.10971832 113.99335098 C-22.72431272 87.34055681 -16.2634029 60.71531801 -9.375 34.1875 C-9.06480927 32.99144135 -8.75461853 31.79538269 -8.43502808 30.56307983 C-7.57220127 27.24293903 -6.70545653 23.92386266 -5.8359375 20.60546875 C-5.59004379 19.66485596 -5.34415009 18.72424316 -5.09080505 17.75512695 C-4.85765091 16.87195801 -4.62449677 15.98878906 -4.38427734 15.07885742 C-4.08957047 13.96023567 -4.08957047 13.96023567 -3.78890991 12.8190155 C-2.5880926 8.52812934 -1.28034899 4.26782998 0 0 Z " fill="#E8D9BD" transform="translate(454,406)"/>
<path d="M0 0 C10.34261857 -0.06036548 20.66743497 0.08525457 31.00585938 0.37231445 C33.3658073 0.43724707 35.72584751 0.49712403 38.0859375 0.55664062 C48.40618739 0.82953764 58.69801814 1.33098684 69 2 C67.75134513 10.10040651 66.15418522 18.04219484 64.21484375 26.00390625 C63.82311729 27.63246803 63.82311729 27.63246803 63.42347717 29.29393005 C62.87664207 31.56402018 62.32782921 33.83363475 61.77709961 36.1027832 C60.93233981 39.58376344 60.09358926 43.06615006 59.25585938 46.54882812 C58.72169834 48.76310389 58.18720518 50.97729956 57.65234375 53.19140625 C57.40129379 54.23196671 57.15024384 55.27252716 56.8915863 56.34461975 C56.54100914 57.78773781 56.54100914 57.78773781 56.18334961 59.26000977 C55.97842392 60.1053981 55.77349823 60.95078644 55.56236267 61.8217926 C55.11166782 63.56747542 54.57013457 65.28959628 54 67 C30.9 67 7.8 67 -16 67 C-14.87488827 56.87399441 -14.87488827 56.87399441 -13.6171875 51.86938477 C-13.3402002 50.75535782 -13.06321289 49.64133087 -12.77783203 48.49354553 C-12.47989746 47.32133957 -12.18196289 46.14913361 -11.875 44.94140625 C-11.56804199 43.71590561 -11.26108398 42.49040497 -10.94482422 41.22776794 C-10.29865961 38.65281061 -9.65035414 36.07852195 -8.99804688 33.50512695 C-8.16178228 30.20565133 -7.33285102 26.90438882 -6.50643921 23.6024332 C-5.71543139 20.44388428 -4.92022006 17.28639688 -4.125 14.12890625 C-3.82706543 12.94253067 -3.52913086 11.75615509 -3.22216797 10.53382874 C-2.94518066 9.44186691 -2.66819336 8.34990509 -2.3828125 7.22485352 C-2.13934082 6.2616066 -1.89586914 5.29835968 -1.64501953 4.30592346 C-1 2 -1 2 0 0 Z " fill="#E8D9BE" transform="translate(480,297)"/>
<path d="M0 0 C68.97 0 137.94 0 209 0 C210.26977059 3.80931176 209.52074507 5.81618993 208.5625 9.6875 C208.27503906 10.86699219 207.98757813 12.04648437 207.69140625 13.26171875 C207.46324219 14.16535156 207.23507812 15.06898438 207 16 C206.67 16 206.34 16 206 16 C206.14204741 14.41632253 206.28880153 12.83306682 206.4375 11.25 C206.55931641 9.92742187 206.55931641 9.92742187 206.68359375 8.578125 C207 6 207 6 208 2 C139.36 2 70.72 2 0 2 C-0.33 3.65 -0.66 5.3 -1 7 C-1.33 6.01 -1.66 5.02 -2 4 C-1.34 2.68 -0.68 1.36 0 0 Z " fill="#C6C2B4" transform="translate(213,298)"/>
<path d="M0 0 C1 4 1 4 -2 13 C87.595 13.495 87.595 13.495 179 14 C179 14.33 179 14.66 179 15 C118.28 15 57.56 15 -5 15 C-4.01 10.38 -3.02 5.76 -2 1 C-1.34 0.67 -0.68 0.34 0 0 Z " fill="#151512" transform="translate(563,618)"/>
<path d="M0 0 C32.34 0 64.68 0 98 0 C97.67 2.31 97.34 4.62 97 7 C96.34 7 95.68 7 95 7 C95.33 5.35 95.66 3.7 96 2 C63.99 2 31.98 2 -1 2 C-0.67 1.34 -0.34 0.68 0 0 Z " fill="#020102" transform="translate(661,567)"/>
<path d="M0 0 C15.84 0 31.68 0 48 0 C48 0.33 48 0.66 48 1 C43.545 1.495 43.545 1.495 39 2 C39 2.33 39 2.66 39 3 C33.76728431 3.07403712 28.53487199 3.12854783 23.30175781 3.16479492 C21.52077933 3.17990173 19.73983816 3.20038835 17.95898438 3.22631836 C15.40225022 3.26261943 12.8460069 3.27970688 10.2890625 3.29296875 C9.49005524 3.30845261 8.69104797 3.32393646 7.86782837 3.33988953 C5.62353516 3.34057617 5.62353516 3.34057617 2 3 C1.34 2.01 0.68 1.02 0 0 Z " fill="#111211" transform="translate(480,937)"/>
<path d="M0 0 C0.66 0.33 1.32 0.66 2 1 C1 6 0 11 -1 16 C-1.66 16 -2.32 16 -3 16 C-2.938125 17.546875 -2.938125 17.546875 -2.875 19.125 C-2.99650648 22.89170086 -3.72501053 25.49377895 -5 29 C-5 29.99 -5 30.98 -5 32 C-5.66 32 -6.32 32 -7 32 C-7.33 33.32 -7.66 34.64 -8 36 C-9.2757318 32.17280461 -8.36265633 29.51366922 -7.3828125 25.7421875 C-7.20620087 25.03853058 -7.02958923 24.33487366 -6.84762573 23.6098938 C-6.47309479 22.12452571 -6.09458718 20.64015547 -5.71240234 19.15673828 C-5.1259872 16.87883475 -4.55222617 14.59802808 -3.98046875 12.31640625 C-3.61532115 10.87481291 -3.24946015 9.43340005 -2.8828125 7.9921875 C-2.7098465 7.30679901 -2.53688049 6.62141052 -2.3586731 5.91525269 C-1.11643637 1.11643637 -1.11643637 1.11643637 0 0 Z " fill="#181613" transform="translate(319,794)"/>
<path d="M0 0 C1.14448217 3.43344652 0.82995991 4.15978796 -0.375 7.4375 C-2.50548614 13.32122573 -3.49187703 19.03301273 -4.40234375 25.22265625 C-5 28 -5 28 -7 31 C-7.66 31 -8.32 31 -9 31 C-7.68571379 24.99564675 -6.35291087 18.99576935 -5 13 C-4.71511719 11.73542969 -4.43023437 10.47085937 -4.13671875 9.16796875 C-3.88535156 8.10191406 -3.63398438 7.03585937 -3.375 5.9375 C-3.15585937 4.99777344 -2.93671875 4.05804688 -2.7109375 3.08984375 C-2 1 -2 1 0 0 Z " fill="#12110F" transform="translate(400,471)"/>
<path d="M0 0 C0.66 0.33 1.32 0.66 2 1 C2.33634597 4.47557505 1.71506209 7.0786122 0.5625 10.3125 C-0.95307047 14.57325472 -1.59117114 18.50288249 -2 23 C-2.66 23 -3.32 23 -4 23 C-4.12375 23.969375 -4.2475 24.93875 -4.375 25.9375 C-4.58125 26.948125 -4.7875 27.95875 -5 29 C-5.66 29.33 -6.32 29.66 -7 30 C-4.80315508 19.96365263 -2.57474538 9.94787986 0 0 Z " fill="#1A1714" transform="translate(248,419)"/>
<path d="M0 0 C0.66 0.33 1.32 0.66 2 1 C1.34 4.63 0.68 8.26 0 12 C-0.66 12 -1.32 12 -2 12 C-1.79503906 12.57234375 -1.59007812 13.1446875 -1.37890625 13.734375 C-0.89980546 16.59910136 -1.55411105 17.73474736 -2.9375 20.25 C-3.31777344 20.95640625 -3.69804687 21.6628125 -4.08984375 22.390625 C-4.39019531 22.92171875 -4.69054687 23.4528125 -5 24 C-6.31661494 21.36677013 -5.76135809 20.32438246 -5.0390625 17.5 C-4.81476563 16.613125 -4.59046875 15.72625 -4.359375 14.8125 C-4.11703125 13.884375 -3.8746875 12.95625 -3.625 12 C-3.39039063 11.071875 -3.15578125 10.14375 -2.9140625 9.1875 C-1.15438988 2.30877976 -1.15438988 2.30877976 0 0 Z " fill="#151411" transform="translate(473,170)"/>
<path d="M0 0 C0.66 0.33 1.32 0.66 2 1 C2.34781014 5.63746858 1.44895394 8.7673604 -0.265625 12.96484375 C-1.34553688 15.95757827 -1.67113258 18.8428728 -2 22 C-2.99 22.33 -3.98 22.66 -5 23 C-1.92482916 7.25512528 -1.92482916 7.25512528 0 0 Z " fill="#181613" transform="translate(453,249)"/>
<path d="M0 0 C0.66 0.33 1.32 0.66 2 1 C2.2436848 5.14264168 1.41832766 8.11826113 0 12 C-0.36158203 13.16208984 -0.36158203 13.16208984 -0.73046875 14.34765625 C-0.98441406 15.16105469 -1.23835938 15.97445313 -1.5 16.8125 C-1.7371875 17.58207031 -1.974375 18.35164063 -2.21875 19.14453125 C-3 21 -3 21 -5 22 C-4.35482025 19.08318736 -3.7088818 16.16654627 -3.0625 13.25 C-2.88009766 12.425 -2.69769531 11.6 -2.50976562 10.75 C-2.33251953 9.95078125 -2.15527344 9.1515625 -1.97265625 8.328125 C-1.72914429 7.22839355 -1.72914429 7.22839355 -1.48071289 6.10644531 C-1.01446454 4.06338247 -0.51579351 2.03106238 0 0 Z " fill="#110F0E" transform="translate(413,411)"/>
<path d="M0 0 C1.15456216 3.46368648 0.79384513 4.37328784 -0.3125 7.75 C-1.30860659 10.84245819 -2.25465343 13.9158073 -3.0625 17.0625 C-3.5265625 18.5165625 -3.5265625 18.5165625 -4 20 C-4.66 20.33 -5.32 20.66 -6 21 C-5.3476221 14.21526979 -4.16619751 7.47786336 -2 1 C-1.34 0.67 -0.68 0.34 0 0 Z " fill="#141311" transform="translate(584,531)"/>
<path d="M0 0 C1.27617187 0.00483398 1.27617187 0.00483398 2.578125 0.00976562 C3.46757812 0.01814453 4.35703125 0.02652344 5.2734375 0.03515625 C6.170625 0.03966797 7.0678125 0.04417969 7.9921875 0.04882812 C10.21100398 0.06063034 12.42968768 0.0770947 14.6484375 0.09765625 C11.97812466 2.77499623 10.61122309 3.10045854 6.7578125 3.390625 C5.30439741 3.3708057 3.85112583 3.3352047 2.3984375 3.28515625 C1.65335937 3.27162109 0.90828125 3.25808594 0.140625 3.24414062 C-1.69041666 3.20892829 -3.52108419 3.15512476 -5.3515625 3.09765625 C-5.6815625 2.43765625 -6.0115625 1.77765625 -6.3515625 1.09765625 C-4.00303722 -0.07660639 -2.61382185 -0.01742548 0 0 Z " fill="#D8C9AE" transform="translate(476.3515625,892.90234375)"/>
<path d="M0 0 C6.27 0 12.54 0 19 0 C16 3 16 3 12.71484375 3.3984375 C10.84505859 3.38683594 10.84505859 3.38683594 8.9375 3.375 C7.06384766 3.38660156 7.06384766 3.38660156 5.15234375 3.3984375 C4.11207031 3.26695313 3.07179688 3.13546875 2 3 C1.34 2.01 0.68 1.02 0 0 Z " fill="#DCD0B7" transform="translate(470,100)"/>
<path d="M0 0 C2 2 2 2 2 6 C1.34 6 0.68 6 0 6 C0.33 7.32 0.66 8.64 1 10 C0.34 10 -0.32 10 -1 10 C-1.144375 11.2375 -1.28875 12.475 -1.4375 13.75 C-1.78688502 16.56504499 -2.20379366 19.2701497 -3 22 C-3.66 22 -4.32 22 -5 22 C-3.77048326 14.52164523 -2.11170763 7.2783523 0 0 Z " fill="#1A1815" transform="translate(489,103)"/>
<path d="M0 0 C2.39763185 4.7952637 1.84784129 6.1705054 0.625 11.25 C0.18027344 13.14492188 0.18027344 13.14492188 -0.2734375 15.078125 C-0.51320313 16.04234375 -0.75296875 17.0065625 -1 18 C-1.99 18 -2.98 18 -4 18 C-2.68 12.06 -1.36 6.12 0 0 Z " fill="#13110F" transform="translate(403,452)"/>
<path d="M0 0 C0.66 0.33 1.32 0.66 2 1 C1.03644647 10.41002278 1.03644647 10.41002278 0 15 C-0.99 14.67 -1.98 14.34 -3 14 C-2.01 9.38 -1.02 4.76 0 0 Z " fill="#161513" transform="translate(209,576)"/>
<path d="M0 0 C0.66 0 1.32 0 2 0 C2.99 5.28 3.98 10.56 5 16 C4.01 16.33 3.02 16.66 2 17 C2 13.7 2 10.4 2 7 C1.34 7 0.68 7 0 7 C0 4.69 0 2.38 0 0 Z " fill="#131313" transform="translate(934,413)"/>
<path d="M0 0 C0.99 0 1.98 0 3 0 C2.71572583 1.58467728 2.42225182 3.1677057 2.125 4.75 C1.96257812 5.63171875 1.80015625 6.5134375 1.6328125 7.421875 C1.03203736 9.86947744 0.22002883 11.80599857 -1 14 C-1.66 14 -2.32 14 -3 14 C-2.01 9.38 -1.02 4.76 0 0 Z " fill="#141210" transform="translate(437,314)"/>
<path d="M0 0 C0.99 0 1.98 0 3 0 C2.86722656 0.59167969 2.73445313 1.18335938 2.59765625 1.79296875 C1.68994822 5.85446525 0.7908887 9.91374171 0 14 C-0.99 14 -1.98 14 -3 14 C-2.01 9.38 -1.02 4.76 0 0 Z " fill="#13110F" transform="translate(499,503)"/>
<path d="M0 0 C0.99 0 1.98 0 3 0 C2.125 5.875 2.125 5.875 1 7 C0.63239269 9.32817964 0.29758419 11.6618385 0 14 C-0.99 14 -1.98 14 -3 14 C-2.01 9.38 -1.02 4.76 0 0 Z " fill="#161512" transform="translate(237,463)"/>
<path d="M0 0 C0.66 0.66 1.32 1.32 2 2 C1.78597179 8.20681816 0.06078176 12.64719096 -3 18 C-4.66285211 14.67429578 -2.98079852 11.31639055 -2.0625 7.875 C-1.86720703 7.12089844 -1.67191406 6.36679688 -1.47070312 5.58984375 C-0.98676642 3.72491694 -0.49419231 1.86223541 0 0 Z " fill="#181713" transform="translate(480,139)"/>
<path d="M0 0 C1.125 1.6875 1.125 1.6875 2 4 C1.25 6.4375 1.25 6.4375 0 9 C-0.33 9.9075 -0.66 10.815 -1 11.75 C-2 14 -2 14 -4 15 C-3.5253725 12.6865641 -3.04517721 10.37426981 -2.5625 8.0625 C-2.29566406 6.77472656 -2.02882813 5.48695313 -1.75390625 4.16015625 C-1 1 -1 1 0 0 Z " fill="#161513" transform="translate(627,347)"/>
<path d="M0 0 C0.66 0 1.32 0 2 0 C3.60579941 1.92695929 5.094233 3.84772455 6.5625 5.875 C7.1802832 6.70837891 7.1802832 6.70837891 7.81054688 7.55859375 C9.35217763 9.65278937 10.83476123 11.66952245 12 14 C8.48144841 12.59257936 7.61387166 11.33533477 6 8 C5.01 7.67 4.02 7.34 3 7 C0 2.66666667 0 2.66666667 0 0 Z " fill="#14120F" transform="translate(176,745)"/>
<path d="M0 0 C0.99 0.33 1.98 0.66 3 1 C2.34 4.3 1.68 7.6 1 11 C0.34 11 -0.32 11 -1 11 C-1 12.32 -1 13.64 -1 15 C-1.66 15 -2.32 15 -3 15 C-2.01 10.05 -1.02 5.1 0 0 Z " fill="#13120F" transform="translate(204,334)"/>
<path d="M0 0 C7 2 7 2 14 4 C14 4.66 14 5.32 14 6 C9.38 5.01 4.76 4.02 0 3 C0 2.01 0 1.02 0 0 Z " fill="#161615" transform="translate(418,926)"/>
<path d="M0 0 C0.66 0.33 1.32 0.66 2 1 C1.76991867 2.58635022 1.51500488 4.16910884 1.25 5.75 C1.11078125 6.63171875 0.9715625 7.5134375 0.828125 8.421875 C-0.1600141 11.49815711 -1.58896214 12.90259308 -4 15 C-3.5253725 12.6865641 -3.04517721 10.37426981 -2.5625 8.0625 C-2.29566406 6.77472656 -2.02882813 5.48695313 -1.75390625 4.16015625 C-1 1 -1 1 0 0 Z " fill="#1B1915" transform="translate(568,593)"/>
<path d="M0 0 C1.38545753 3.84849313 0.91355473 7.06468732 0 11 C-2.05078125 13.21875 -2.05078125 13.21875 -4 15 C-3.5253725 12.6865641 -3.04517721 10.37426981 -2.5625 8.0625 C-2.29566406 6.77472656 -2.02882813 5.48695313 -1.75390625 4.16015625 C-1 1 -1 1 0 0 Z " fill="#191714" transform="translate(506,478)"/>
<path d="M0 0 C0.66 0.33 1.32 0.66 2 1 C2 1.99 2 2.98 2 4 C1.34 4 0.68 4 0 4 C0.20625 4.556875 0.4125 5.11375 0.625 5.6875 C1.10695211 8.659538 0.26565028 10.31979941 -1 13 C-1.66 13 -2.32 13 -3 13 C-2.69240822 11.02006459 -2.3787932 9.04106401 -2.0625 7.0625 C-1.88847656 5.96035156 -1.71445312 4.85820312 -1.53515625 3.72265625 C-1 1 -1 1 0 0 Z " fill="#13110F" transform="translate(623,363)"/>
<path d="M0 0 C3.93677426 1.31225809 4.8271782 3.1961394 7.1875 6.5625 C7.90292969 7.57441406 8.61835937 8.58632812 9.35546875 9.62890625 C9.89816406 10.41136719 10.44085937 11.19382813 11 12 C10.01 12 9.02 12 8 12 C7.67 11.01 7.34 10.02 7 9 C6.34 9 5.68 9 5 9 C3.7109375 7.5390625 3.7109375 7.5390625 2.375 5.625 C1.92898438 4.99851563 1.48296875 4.37203125 1.0234375 3.7265625 C0 2 0 2 0 0 Z " fill="#111111" transform="translate(846,233)"/>
<path d="M0 0 C0.66 0.33 1.32 0.66 2 1 C1.85769192 2.41702513 1.71099254 3.8336096 1.5625 5.25 C1.48128906 6.03890625 1.40007812 6.8278125 1.31640625 7.640625 C1.02365007 9.82364639 0.57935581 11.8773182 0 14 C-0.99 14 -1.98 14 -3 14 C-2.01 9.38 -1.02 4.76 0 0 Z " fill="#181613" transform="translate(484,561)"/>
<path d="M0 0 C2.14014979 4.28029958 2.15816979 4.88772754 1.125 9.25 C0.92132813 10.14203125 0.71765625 11.0340625 0.5078125 11.953125 C0.34023438 12.62859375 0.17265625 13.3040625 0 14 C-0.99 14 -1.98 14 -3 14 C-2.01 9.38 -1.02 4.76 0 0 Z " fill="#13110F" transform="translate(446,278)"/>
<path d="M0 0 C0 0.99 0 1.98 0 3 C-0.68707031 3.06058594 -1.37414062 3.12117188 -2.08203125 3.18359375 C-3.43361328 3.30927734 -3.43361328 3.30927734 -4.8125 3.4375 C-5.70582031 3.51871094 -6.59914063 3.59992188 -7.51953125 3.68359375 C-10.12743559 3.93489767 -10.12743559 3.93489767 -13 5 C-13 4.01 -13 3.02 -13 2 C-11.39658445 1.66307215 -9.79223445 1.33058907 -8.1875 1 C-7.29417969 0.814375 -6.40085937 0.62875 -5.48046875 0.4375 C-3 0 -3 0 0 0 Z " fill="#141414" transform="translate(423,87)"/>
<path d="M0 0 C1.38545753 3.84849313 0.91355473 7.06468732 0 11 C-2.05078125 13.21875 -2.05078125 13.21875 -4 15 C-3.5253725 12.6865641 -3.04517721 10.37426981 -2.5625 8.0625 C-2.29566406 6.77472656 -2.02882813 5.48695313 -1.75390625 4.16015625 C-1 1 -1 1 0 0 Z " fill="#1A1813" transform="translate(478,587)"/>
<path d="M0 0 C0 0.66 0 1.32 0 2 C-1.59915881 2.69906942 -3.20455045 3.38389468 -4.8125 4.0625 C-5.70582031 4.44535156 -6.59914063 4.82820312 -7.51953125 5.22265625 C-10 6 -10 6 -13 5 C-13 4.34 -13 3.68 -13 3 C-11.2092015 2.49689942 -9.41733089 1.99761372 -7.625 1.5 C-6.62726562 1.2215625 -5.62953125 0.943125 -4.6015625 0.65625 C-2 0 -2 0 0 0 Z " fill="#171512" transform="translate(568,882)"/>
<path d="M0 0 C1.22578535 3.67735605 0.46596728 4.55066523 -1 8 C-1 8.99 -1 9.98 -1 11 C-1.99 11 -2.98 11 -4 11 C-3.71890887 9.35232753 -3.42481474 7.70686855 -3.125 6.0625 C-2.96257812 5.14597656 -2.80015625 4.22945312 -2.6328125 3.28515625 C-2.42398437 2.53105469 -2.21515625 1.77695312 -2 1 C-1.34 0.67 -0.68 0.34 0 0 Z " fill="#12110F" transform="translate(360,633)"/>
<path d="M0 0 C1.37432457 3.81756824 0.67975039 7.07255329 0 11 C-0.99 11.33 -1.98 11.66 -3 12 C-2.69230293 10.18667846 -2.37870936 8.37435655 -2.0625 6.5625 C-1.80146484 5.04849609 -1.80146484 5.04849609 -1.53515625 3.50390625 C-1 1 -1 1 0 0 Z " fill="#131210" transform="translate(590,502)"/>
<path d="M0 0 C3 1 3 1 4.16796875 2.99609375 C4.50441406 3.80175781 4.84085938 4.60742188 5.1875 5.4375 C5.53167969 6.24058594 5.87585938 7.04367187 6.23046875 7.87109375 C7 10 7 10 7 12 C6.34 12 5.68 12 5 12 C4.16180842 10.37750059 3.3295884 8.75191503 2.5 7.125 C2.0359375 6.22007812 1.571875 5.31515625 1.09375 4.3828125 C0 2 0 2 0 0 Z " fill="#171512" transform="translate(832,281)"/>
<path d="M0 0 C2.13181214 3.74287627 1.95685425 5.78984129 1 10 C0.34 10 -0.32 10 -1 10 C-1.33 11.32 -1.66 12.64 -2 14 C-3.49341969 11.01316063 -2.40648676 9.04839022 -1.5625 5.875 C-1.27503906 4.77929688 -0.98757813 3.68359375 -0.69140625 2.5546875 C-0.46324219 1.71164063 -0.23507812 0.86859375 0 0 Z " fill="#161411" transform="translate(459,225)"/>
<path d="M0 0 C0.66 0.33 1.32 0.66 2 1 C1.34 4.3 0.68 7.6 0 11 C-0.99 11 -1.98 11 -3 11 C-2.69217504 9.35328588 -2.37860766 7.70764424 -2.0625 6.0625 C-1.88847656 5.14597656 -1.71445312 4.22945313 -1.53515625 3.28515625 C-1 1 -1 1 0 0 Z " fill="#141210" transform="translate(417,398)"/>
<path d="M0 0 C2 4 2 4 1.3125 7.0625 C0 10 0 10 -3 13 C-2.01 8.71 -1.02 4.42 0 0 Z " fill="#1D1B17" transform="translate(472,608)"/>
<path d="M0 0 C0.66 0.33 1.32 0.66 2 1 C0.25892857 8.09821429 0.25892857 8.09821429 -3 11 C-2.69217504 9.35328588 -2.37860766 7.70764424 -2.0625 6.0625 C-1.88847656 5.14597656 -1.71445313 4.22945312 -1.53515625 3.28515625 C-1 1 -1 1 0 0 Z " fill="#171613" transform="translate(205,595)"/>
<path d="M0 0 C1.45350668 3.87601781 1.12977046 8.07001276 0 12 C-1.546875 13.74609375 -1.546875 13.74609375 -3 15 C-2.5547115 9.72684667 -1.91626837 4.98229776 0 0 Z " fill="#F1ECD8" transform="translate(721,324)"/>
<path d="M0 0 C0.66 0 1.32 0 2 0 C2.08912219 3.83225427 1.87867729 7.26562152 1 11 C0.01 11 -0.98 11 -2 11 C-1.34 7.37 -0.68 3.74 0 0 Z " fill="#171613" transform="translate(466,196)"/>
<path d="M0 0 C2 4 2 4 1.6875 6 C1.3471875 6.99 1.3471875 6.99 1 8 C0.814375 8.7425 0.62875 9.485 0.4375 10.25 C0.293125 10.8275 0.14875 11.405 0 12 C-0.66 12 -1.32 12 -2 12 C-1.34 8.04 -0.68 4.08 0 0 Z " fill="#1B1815" transform="translate(334,729)"/>
<path d="M0 0 C0.66 0.33 1.32 0.66 2 1 C1.67 3.64 1.34 6.28 1 9 C0.01 9.33 -0.98 9.66 -2 10 C-1.34 6.7 -0.68 3.4 0 0 Z " fill="#141311" transform="translate(355,646)"/>
<path d="M0 0 C0.66 0.33 1.32 0.66 2 1 C2.39253254 5.44870215 1.15305957 8.14243493 -1 12 C-2.45606519 7.47907032 -1.27032841 4.48351204 0 0 Z " fill="#1B1815" transform="translate(573,569)"/>
<path d="M0 0 C0.66 0.33 1.32 0.66 2 1 C0.25892857 8.09821429 0.25892857 8.09821429 -3 11 C-2.69217504 9.35328588 -2.37860766 7.70764424 -2.0625 6.0625 C-1.88847656 5.14597656 -1.71445312 4.22945313 -1.53515625 3.28515625 C-1 1 -1 1 0 0 Z " fill="#1C1915" transform="translate(391,503)"/>
<path d="M0 0 C0.66 0.33 1.32 0.66 2 1 C2.07427838 4.34252724 2.06546953 6.8035914 1 10 C0.01 10.33 -0.98 10.66 -2 11 C-1.34 7.37 -0.68 3.74 0 0 Z " fill="#181613" transform="translate(427,354)"/>
<path d="M0 0 C2.97 0 5.94 0 9 0 C8.01 1.485 8.01 1.485 7 3 C5.0546875 3.29296875 5.0546875 3.29296875 2.875 3.1875 C1.59625 3.125625 0.3175 3.06375 -1 3 C-0.67 2.01 -0.34 1.02 0 0 Z " fill="#DED0B6" transform="translate(496,892)"/>
<path d="M0 0 C0.66 0 1.32 0 2 0 C3.5078125 2.1875 3.5078125 2.1875 5.125 5 C5.66382813 5.928125 6.20265625 6.85625 6.7578125 7.8125 C7.37269531 8.8953125 7.37269531 8.8953125 8 10 C3.86124946 8.19147035 2.27866791 5.90628784 0 2 C0 1.34 0 0.68 0 0 Z " fill="#181818" transform="translate(869,264)"/>
<path d="M0 0 C0.99 0 1.98 0 3 0 C3.1875 3.3125 3.1875 3.3125 3 7 C2.01 7.99 1.02 8.98 0 10 C0 6.7 0 3.4 0 0 Z " fill="#121313" transform="translate(942,536)"/>
<path d="M0 0 C1.04449911 3.13349732 0.93423645 3.98968256 0 7 C-0.66 7 -1.32 7 -2 7 C-2.33 8.32 -2.66 9.64 -3 11 C-4.25460729 8.49078542 -3.86211613 7.61169775 -3.1875 4.9375 C-3.01605469 4.22464844 -2.84460938 3.51179688 -2.66796875 2.77734375 C-2 1 -2 1 0 0 Z " fill="#161412" transform="translate(616,397)"/>
<path d="M0 0 C0.99 0 1.98 0 3 0 C2.67 1.98 2.34 3.96 2 6 C1.34 6 0.68 6 0 6 C-0.33 7.32 -0.66 8.64 -1 10 C-2.27351308 7.45297384 -1.80191925 6.5717055 -1.0625 3.875 C-0.86785156 3.15054687 -0.67320312 2.42609375 -0.47265625 1.6796875 C-0.31667969 1.12539063 -0.16070313 0.57109375 0 0 Z " fill="#1A1916" transform="translate(543,324)"/>
<path d="M0 0 C0.93065133 2.60582371 1.14917407 3.64198224 0.0625 6.25 C-0.4634375 7.11625 -0.4634375 7.11625 -1 8 C-1.66 8 -2.32 8 -3 8 C-2.74438677 5.6568787 -2.40729228 3.32156597 -2 1 C-1.34 0.67 -0.68 0.34 0 0 Z " fill="#131210" transform="translate(563,618)"/>
<path d="M0 0 C0.66 0 1.32 0 2 0 C2.25 2.75 2.25 2.75 2 6 C0 8.375 0 8.375 -2 10 C-1.34 6.7 -0.68 3.4 0 0 Z " fill="#1C1A17" transform="translate(385,525)"/>
<path d="M0 0 C0.99 0 1.98 0 3 0 C2.55090939 1.48199902 2.09043436 2.96055236 1.625 4.4375 C1.36976563 5.26121094 1.11453125 6.08492188 0.8515625 6.93359375 C0 9 0 9 -2 10 C-1.34 6.7 -0.68 3.4 0 0 Z " fill="#1E1B17" transform="translate(410,423)"/>
<path d="M0 0 C0.66 0 1.32 0 2 0 C1.67 2.31 1.34 4.62 1 7 C0.01 7.33 -0.98 7.66 -2 8 C-1.125 1.125 -1.125 1.125 0 0 Z " fill="#161512" transform="translate(523,411)"/>
<path d="M0 0 C-0.33 0.99 -0.66 1.98 -1 3 C-2.98 3.33 -4.96 3.66 -7 4 C-7 3.01 -7 2.02 -7 1 C-4.50935112 0.31292445 -2.62113708 0 0 0 Z " fill="#141311" transform="translate(554,886)"/>
<path d="M0 0 C0.66 0.33 1.32 0.66 2 1 C1.67 3.97 1.34 6.94 1 10 C0.01 10 -0.98 10 -2 10 C-1.34 6.7 -0.68 3.4 0 0 Z " fill="#12110F" transform="translate(576,557)"/>
<path d="M0 0 C2 4 2 4 2 6 C1.34 6 0.68 6 0 6 C0.33 7.32 0.66 8.64 1 10 C0.01 10 -0.98 10 -2 10 C-1.34 6.7 -0.68 3.4 0 0 Z " fill="#161512" transform="translate(377,558)"/>
<path d="M0 0 C0.99 0 1.98 0 3 0 C2.67 1.98 2.34 3.96 2 6 C1.01 6.33 0.02 6.66 -1 7 C-0.67 4.69 -0.34 2.38 0 0 Z " fill="#151411" transform="translate(231,487)"/>
<path d="M0 0 C0.66 0.33 1.32 0.66 2 1 C2.25 3.25 2.25 3.25 2 6 C0 8.3125 0 8.3125 -2 10 C-1.34 6.7 -0.68 3.4 0 0 Z " fill="#24211C" transform="translate(407,435)"/>
<path d="M0 0 C0.66 0.33 1.32 0.66 2 1 C2.25 3.25 2.25 3.25 2 6 C0 8.3125 0 8.3125 -2 10 C-1.34 6.7 -0.68 3.4 0 0 Z " fill="#1A191A" transform="translate(92,404)"/>
<path d="M0 0 C-0.33 0.66 -0.66 1.32 -1 2 C-3.3140622 2.73075648 -5.64828869 3.40138258 -8 4 C-8 3.34 -8 2.68 -8 2 C-7.34 2 -6.68 2 -6 2 C-6 1.34 -6 0.68 -6 0 C-2.25 -1.125 -2.25 -1.125 0 0 Z " fill="#111112" transform="translate(648,916)"/>
<path d="M0 0 C0.99 0.33 1.98 0.66 3 1 C3.33 3.31 3.66 5.62 4 8 C3.34 8 2.68 8 2 8 C1.34 5.36 0.68 2.72 0 0 Z " fill="#161617" transform="translate(103,647)"/>
<path d="M0 0 C0.33 0 0.66 0 1 0 C1 3.3 1 6.6 1 10 C0.01 10 -0.98 10 -2 10 C-1.34 6.7 -0.68 3.4 0 0 Z " fill="#161511" transform="translate(440,302)"/>
</svg>
