<?xml version="1.0" standalone="no"?>
<!DOCTYPE svg PUBLIC "-//W3C//DTD SVG 20010904//EN"
 "http://www.w3.org/TR/2001/REC-SVG-20010904/DTD/svg10.dtd">
<svg version="1.0" xmlns="http://www.w3.org/2000/svg"
 width="1024.000000pt" height="1024.000000pt" viewBox="0 0 1024.000000 1024.000000"
 preserveAspectRatio="xMidYMid meet">

<!-- Transparent background (no rect) -->

<!-- Beige circle interior -->
<circle cx="5120" cy="5120" r="4400" fill="#E7D8BC" transform="scale(0.1)"/>

<!-- Black circle border and TIL letters -->
<g transform="translate(0.000000,1024.000000) scale(0.100000,-0.100000)"
fill="#0B0B0B" stroke="none">
<path d="M4900 9450 c-533 -27 -1021 -134 -1463 -321 -847 -357 -1559 -974
-2026 -1754 -300 -500 -497 -1071 -582 -1685 -30 -219 -38 -731 -15 -940 47
-416 168 -900 307 -1227 90 -213 243 -503 355 -674 264 -402 597 -760 1025
-1103 187 -149 483 -337 704 -445 394 -194 937 -361 1399 -432 315 -48 833
-31 1271 42 336 56 850 226 1180 391 306 154 445 239 680 419 463 353 848 785
1155 1293 258 428 457 1021 534 1591 41 298 46 795 11 1060 -95 728 -369 1427
-790 2015 -154 214 -224 298 -390 469 -467 479 -1011 831 -1622 1050 -193 69
-320 106 -506 146 -391 86 -844 125 -1227 105z m0 -222 c0 -7 -11 -53 -25
-103 -14 -49 -50 -193 -81 -320 -66 -274 -309 -1264 -499 -2030 -75 -302 -203
-824 -286 -1160 -82 -335 -271 -1098 -419 -1695 -148 -597 -333 -1343 -411
-1657 -81 -325 -147 -573 -153 -573 -16 0 -250 129 -327 180 -162 107 -420
334 -610 537 -260 276 -552 695 -704 1008 -154 317 -303 787 -359 1131 -41
251 -49 382 -43 678 8 372 30 537 124 916 115 472 212 713 458 1139 168 293
327 494 629 796 247 247 424 388 729 580 491 309 1066 504 1677 569 169 19
300 20 300 4z m1594 -203 c105 -36 226 -82 270 -101 306 -135 726 -431 972
-685 73 -76 271 -319 362 -445 154 -213 409 -729 485 -984 66 -217 126 -511
164 -795 22 -166 25 -699 5 -880 -60 -545 -210 -1067 -437 -1522 -353 -711
-1028 -1418 -1733 -1818 -179 -101 -567 -267 -805 -344 -384 -124 -708 -171
-1199 -171 -152 0 -198 3 -198 13 0 6 23 100 51 207 122 473 855 3401 1013
4045 47 193 131 535 186 760 56 226 128 523 161 660 33 138 93 387 134 555 41
168 117 487 169 710 152 648 204 860 210 860 0 0 86 -29 190 -65z m-1196
-1771 c105 -4 192 -8 192 -10 0 -7 -63 -280 -105 -451 l-47 -193 -349 0 c-292
0 -349 2 -349 14 0 12 117 492 151 620 l11 39 151 -6 c84 -4 239 -10 345 -13z
m-78 -1158 c-11 -47 -43 -180 -74 -298 -30 -117 -109 -424 -175 -683 -67 -258
-155 -600 -196 -760 -42 -159 -84 -325 -93 -367 l-17 -78 -342 0 c-264 0 -343
3 -343 12 0 7 32 139 71 293 39 154 115 463 170 687 134 554 242 986 286 1146
l37 132 347 0 347 0 -18 -84z"/>
<path d="M2130 7225 c-18 -49 -160 -622 -160 -646 0 -5 129 -9 324 -9 l324 0
-94 -372 c-197 -774 -525 -2106 -543 -2200 l-18 -98 402 0 403 0 22 98 c61
272 639 2555 648 2564 4 4 147 9 317 10 l309 3 9 45 c4 25 22 104 38 175 70
299 99 427 99 438 0 10 -226 12 -1036 12 -1027 0 -1036 0 -1044 -20z"/>
<path d="M6366 7188 c-10 -46 -67 -288 -127 -538 -61 -250 -141 -588 -179
-750 -68 -291 -98 -415 -343 -1430 -69 -283 -128 -528 -131 -545 l-6 -30 925
0 924 0 75 305 c41 168 77 320 81 338 l7 32 -497 0 c-468 0 -496 1 -491 18 15
53 417 1654 522 2082 68 278 131 526 138 553 l14 47 -447 0 -446 0 -19 -82z"/>
</g>
</svg>
