<svg width="800" height="400" xmlns="http://www.w3.org/2000/svg">
<rect width="800" height="400" fill="white"/>
<line x1="70" y1="40" x2="70" y2="340" stroke="#333" stroke-width="1"/>
<line x1="70" y1="340" x2="730" y2="340" stroke="#333" stroke-width="1"/>
<line x1="730" y1="40" x2="730" y2="340" stroke="#333" stroke-width="1"/>
<text x="65" y="344" text-anchor="end" font-size="11" fill="#333">0</text>
<text x="65" y="194" text-anchor="end" font-size="11" fill="#333">293000</text>
<text x="65" y="44" text-anchor="end" font-size="11" fill="#333">586000</text>
<text x="15" y="190" text-anchor="middle" font-size="12" fill="#333" transform="rotate(-90 15 190)">ms</text>
<text x="735" y="344" text-anchor="start" font-size="11" fill="#333">0</text>
<text x="735" y="194" text-anchor="start" font-size="11" fill="#333">5508000000</text>
<text x="735" y="44" text-anchor="start" font-size="11" fill="#333">11016000000</text>
<text x="785" y="190" text-anchor="middle" font-size="12" fill="#333" transform="rotate(90 785 190)">bytes</text>
<polyline points="70,65 143,112 216,166 290,140 363,155 436,151 510,100 583,147 656,153 730,105" fill="none" stroke="#0072B2" stroke-width="2"/>
<polyline points="70,47 143,72 216,126 290,103 363,105 436,114 510,59 583,117 656,122 730,41" fill="none" stroke="#CC79A7" stroke-width="2"/>
<polyline points="70,340 143,340 216,340 290,340 363,340 436,340 510,340 583,340 656,340 730,340" fill="none" stroke="#D55E00" stroke-width="2"/>
<polyline points="70,254 143,261 216,277 290,271 363,272 436,271 510,258 583,271 656,275 730,254" fill="none" stroke="#009E73" stroke-width="2"/>
<polyline points="70,276 143,275 216,275 290,275 363,275 436,275 510,275 583,275 656,275 730,275" fill="none" stroke="#56B4E9" stroke-width="2"/>
<polyline points="70,196 143,192 216,192 290,192 363,192 436,192 510,192 583,192 656,193 730,192" fill="none" stroke="#E69F00" stroke-width="2"/>
<polyline points="70,340 143,340 216,340 290,340 363,340 436,340 510,340 583,340 656,340 730,340" fill="none" stroke="#C44E52" stroke-width="2"/>
<polyline points="70,46 143,41 216,41 290,41 363,41 436,41 510,41 583,41 656,41 730,41" fill="none" stroke="#000000" stroke-width="2"/>
<circle cx="70" cy="65" r="3" fill="#0072B2"/>
<circle cx="70" cy="47" r="3" fill="#CC79A7"/>
<circle cx="70" cy="340" r="3" fill="#D55E00"/>
<circle cx="70" cy="254" r="3" fill="#009E73"/>
<circle cx="70" cy="276" r="3" fill="#56B4E9"/>
<circle cx="70" cy="196" r="3" fill="#E69F00"/>
<circle cx="70" cy="340" r="3" fill="#C44E52"/>
<circle cx="70" cy="46" r="3" fill="#000000"/>
<circle cx="143" cy="112" r="3" fill="#0072B2"/>
<circle cx="143" cy="72" r="3" fill="#CC79A7"/>
<circle cx="143" cy="340" r="3" fill="#D55E00"/>
<circle cx="143" cy="261" r="3" fill="#009E73"/>
<circle cx="143" cy="275" r="3" fill="#56B4E9"/>
<circle cx="143" cy="192" r="3" fill="#E69F00"/>
<circle cx="143" cy="340" r="3" fill="#C44E52"/>
<circle cx="143" cy="41" r="3" fill="#000000"/>
<circle cx="216" cy="166" r="3" fill="#0072B2"/>
<circle cx="216" cy="126" r="3" fill="#CC79A7"/>
<circle cx="216" cy="340" r="3" fill="#D55E00"/>
<circle cx="216" cy="277" r="3" fill="#009E73"/>
<circle cx="216" cy="275" r="3" fill="#56B4E9"/>
<circle cx="216" cy="192" r="3" fill="#E69F00"/>
<circle cx="216" cy="340" r="3" fill="#C44E52"/>
<circle cx="216" cy="41" r="3" fill="#000000"/>
<circle cx="290" cy="140" r="3" fill="#0072B2"/>
<circle cx="290" cy="103" r="3" fill="#CC79A7"/>
<circle cx="290" cy="340" r="3" fill="#D55E00"/>
<circle cx="290" cy="271" r="3" fill="#009E73"/>
<circle cx="290" cy="275" r="3" fill="#56B4E9"/>
<circle cx="290" cy="192" r="3" fill="#E69F00"/>
<circle cx="290" cy="340" r="3" fill="#C44E52"/>
<circle cx="290" cy="41" r="3" fill="#000000"/>
<circle cx="363" cy="155" r="3" fill="#0072B2"/>
<circle cx="363" cy="105" r="3" fill="#CC79A7"/>
<circle cx="363" cy="340" r="3" fill="#D55E00"/>
<circle cx="363" cy="272" r="3" fill="#009E73"/>
<circle cx="363" cy="275" r="3" fill="#56B4E9"/>
<circle cx="363" cy="192" r="3" fill="#E69F00"/>
<circle cx="363" cy="340" r="3" fill="#C44E52"/>
<circle cx="363" cy="41" r="3" fill="#000000"/>
<circle cx="436" cy="151" r="3" fill="#0072B2"/>
<circle cx="436" cy="114" r="3" fill="#CC79A7"/>
<circle cx="436" cy="340" r="3" fill="#D55E00"/>
<circle cx="436" cy="271" r="3" fill="#009E73"/>
<circle cx="436" cy="275" r="3" fill="#56B4E9"/>
<circle cx="436" cy="192" r="3" fill="#E69F00"/>
<circle cx="436" cy="340" r="3" fill="#C44E52"/>
<circle cx="436" cy="41" r="3" fill="#000000"/>
<circle cx="510" cy="100" r="3" fill="#0072B2"/>
<circle cx="510" cy="59" r="3" fill="#CC79A7"/>
<circle cx="510" cy="340" r="3" fill="#D55E00"/>
<circle cx="510" cy="258" r="3" fill="#009E73"/>
<circle cx="510" cy="275" r="3" fill="#56B4E9"/>
<circle cx="510" cy="192" r="3" fill="#E69F00"/>
<circle cx="510" cy="340" r="3" fill="#C44E52"/>
<circle cx="510" cy="41" r="3" fill="#000000"/>
<circle cx="583" cy="147" r="3" fill="#0072B2"/>
<circle cx="583" cy="117" r="3" fill="#CC79A7"/>
<circle cx="583" cy="340" r="3" fill="#D55E00"/>
<circle cx="583" cy="271" r="3" fill="#009E73"/>
<circle cx="583" cy="275" r="3" fill="#56B4E9"/>
<circle cx="583" cy="192" r="3" fill="#E69F00"/>
<circle cx="583" cy="340" r="3" fill="#C44E52"/>
<circle cx="583" cy="41" r="3" fill="#000000"/>
<circle cx="656" cy="153" r="3" fill="#0072B2"/>
<circle cx="656" cy="122" r="3" fill="#CC79A7"/>
<circle cx="656" cy="340" r="3" fill="#D55E00"/>
<circle cx="656" cy="275" r="3" fill="#009E73"/>
<circle cx="656" cy="275" r="3" fill="#56B4E9"/>
<circle cx="656" cy="193" r="3" fill="#E69F00"/>
<circle cx="656" cy="340" r="3" fill="#C44E52"/>
<circle cx="656" cy="41" r="3" fill="#000000"/>
<circle cx="730" cy="105" r="3" fill="#0072B2"/>
<circle cx="730" cy="41" r="3" fill="#CC79A7"/>
<circle cx="730" cy="340" r="3" fill="#D55E00"/>
<circle cx="730" cy="254" r="3" fill="#009E73"/>
<circle cx="730" cy="275" r="3" fill="#56B4E9"/>
<circle cx="730" cy="192" r="3" fill="#E69F00"/>
<circle cx="730" cy="340" r="3" fill="#C44E52"/>
<circle cx="730" cy="41" r="3" fill="#000000"/>
<circle cx="90" cy="20" r="4" fill="#0072B2"/>
<text x="98" y="24" text-anchor="start" font-size="12" fill="#0072B2">inte</text>
<circle cx="150" cy="20" r="4" fill="#CC79A7"/>
<text x="158" y="24" text-anchor="start" font-size="12" fill="#CC79A7">comp</text>
<circle cx="215" cy="20" r="4" fill="#D55E00"/>
<text x="223" y="24" text-anchor="start" font-size="12" fill="#D55E00">run</text>
<circle cx="270" cy="20" r="4" fill="#009E73"/>
<text x="278" y="24" text-anchor="start" font-size="12" fill="#009E73">wall</text>
<circle cx="335" cy="20" r="4" fill="#56B4E9"/>
<text x="343" y="24" text-anchor="start" font-size="12" fill="#56B4E9">mem-inte</text>
<circle cx="425" cy="20" r="4" fill="#E69F00"/>
<text x="433" y="24" text-anchor="start" font-size="12" fill="#E69F00">mem-comp</text>
<circle cx="520" cy="20" r="4" fill="#C44E52"/>
<text x="528" y="24" text-anchor="start" font-size="12" fill="#C44E52">mem-run</text>
<circle cx="605" cy="20" r="4" fill="#000000"/>
<text x="613" y="24" text-anchor="start" font-size="12" fill="#000000">mem-total</text>
</svg>
