<svg width="800" height="400" xmlns="http://www.w3.org/2000/svg">
<rect width="800" height="400" fill="white"/>
<line x1="70" y1="40" x2="70" y2="340" stroke="#333" stroke-width="1"/>
<line x1="70" y1="340" x2="730" y2="340" stroke="#333" stroke-width="1"/>
<line x1="730" y1="40" x2="730" y2="340" stroke="#333" stroke-width="1"/>
<text x="65" y="344" text-anchor="end" font-size="11" fill="#333">0</text>
<text x="65" y="194" text-anchor="end" font-size="11" fill="#333">80500</text>
<text x="65" y="44" text-anchor="end" font-size="11" fill="#333">161000</text>
<text x="15" y="190" text-anchor="middle" font-size="12" fill="#333" transform="rotate(-90 15 190)">ms</text>
<text x="735" y="344" text-anchor="start" font-size="11" fill="#333">0</text>
<text x="735" y="194" text-anchor="start" font-size="11" fill="#333">6523000000</text>
<text x="735" y="44" text-anchor="start" font-size="11" fill="#333">13046000000</text>
<text x="785" y="190" text-anchor="middle" font-size="12" fill="#333" transform="rotate(90 785 190)">bytes</text>
<polyline points="70,73 143,72 216,75 290,72 363,74 436,93 510,93 583,96 656,86 730,96" fill="none" stroke="#0072B2" stroke-width="2"/>
<polyline points="70,47 143,47 216,51 290,48 363,41 436,62 510,61 583,63 656,54 730,65" fill="none" stroke="#CC79A7" stroke-width="2"/>
<polyline points="70,340 143,340 216,340 290,340 363,340 436,340 510,340 583,340 656,340 730,340" fill="none" stroke="#D55E00" stroke-width="2"/>
<polyline points="70,285 143,285 216,286 290,286 363,285 436,289 510,289 583,289 656,288 730,289" fill="none" stroke="#009E73" stroke-width="2"/>
<polyline points="70,292 143,292 216,300 290,300 363,300 436,300 510,300 583,300 656,300 730,291" fill="none" stroke="#56B4E9" stroke-width="2"/>
<polyline points="70,216 143,216 216,225 290,222 363,222 436,222 510,222 583,222 656,222 730,213" fill="none" stroke="#E69F00" stroke-width="2"/>
<polyline points="70,340 143,340 216,340 290,340 363,339 436,339 510,340 583,340 656,340 730,340" fill="none" stroke="#C44E52" stroke-width="2"/>
<polyline points="70,45 143,45 216,63 290,59 363,58 436,58 510,59 583,59 656,59 730,41" fill="none" stroke="#000000" stroke-width="2"/>
<circle cx="70" cy="73" r="3" fill="#0072B2"/>
<circle cx="70" cy="47" r="3" fill="#CC79A7"/>
<circle cx="70" cy="340" r="3" fill="#D55E00"/>
<circle cx="70" cy="285" r="3" fill="#009E73"/>
<circle cx="70" cy="292" r="3" fill="#56B4E9"/>
<circle cx="70" cy="216" r="3" fill="#E69F00"/>
<circle cx="70" cy="340" r="3" fill="#C44E52"/>
<circle cx="70" cy="45" r="3" fill="#000000"/>
<circle cx="143" cy="72" r="3" fill="#0072B2"/>
<circle cx="143" cy="47" r="3" fill="#CC79A7"/>
<circle cx="143" cy="340" r="3" fill="#D55E00"/>
<circle cx="143" cy="285" r="3" fill="#009E73"/>
<circle cx="143" cy="292" r="3" fill="#56B4E9"/>
<circle cx="143" cy="216" r="3" fill="#E69F00"/>
<circle cx="143" cy="340" r="3" fill="#C44E52"/>
<circle cx="143" cy="45" r="3" fill="#000000"/>
<circle cx="216" cy="75" r="3" fill="#0072B2"/>
<circle cx="216" cy="51" r="3" fill="#CC79A7"/>
<circle cx="216" cy="340" r="3" fill="#D55E00"/>
<circle cx="216" cy="286" r="3" fill="#009E73"/>
<circle cx="216" cy="300" r="3" fill="#56B4E9"/>
<circle cx="216" cy="225" r="3" fill="#E69F00"/>
<circle cx="216" cy="340" r="3" fill="#C44E52"/>
<circle cx="216" cy="63" r="3" fill="#000000"/>
<circle cx="290" cy="72" r="3" fill="#0072B2"/>
<circle cx="290" cy="48" r="3" fill="#CC79A7"/>
<circle cx="290" cy="340" r="3" fill="#D55E00"/>
<circle cx="290" cy="286" r="3" fill="#009E73"/>
<circle cx="290" cy="300" r="3" fill="#56B4E9"/>
<circle cx="290" cy="222" r="3" fill="#E69F00"/>
<circle cx="290" cy="340" r="3" fill="#C44E52"/>
<circle cx="290" cy="59" r="3" fill="#000000"/>
<circle cx="363" cy="74" r="3" fill="#0072B2"/>
<circle cx="363" cy="41" r="3" fill="#CC79A7"/>
<circle cx="363" cy="340" r="3" fill="#D55E00"/>
<circle cx="363" cy="285" r="3" fill="#009E73"/>
<circle cx="363" cy="300" r="3" fill="#56B4E9"/>
<circle cx="363" cy="222" r="3" fill="#E69F00"/>
<circle cx="363" cy="339" r="3" fill="#C44E52"/>
<circle cx="363" cy="58" r="3" fill="#000000"/>
<circle cx="436" cy="93" r="3" fill="#0072B2"/>
<circle cx="436" cy="62" r="3" fill="#CC79A7"/>
<circle cx="436" cy="340" r="3" fill="#D55E00"/>
<circle cx="436" cy="289" r="3" fill="#009E73"/>
<circle cx="436" cy="300" r="3" fill="#56B4E9"/>
<circle cx="436" cy="222" r="3" fill="#E69F00"/>
<circle cx="436" cy="339" r="3" fill="#C44E52"/>
<circle cx="436" cy="58" r="3" fill="#000000"/>
<circle cx="510" cy="93" r="3" fill="#0072B2"/>
<circle cx="510" cy="61" r="3" fill="#CC79A7"/>
<circle cx="510" cy="340" r="3" fill="#D55E00"/>
<circle cx="510" cy="289" r="3" fill="#009E73"/>
<circle cx="510" cy="300" r="3" fill="#56B4E9"/>
<circle cx="510" cy="222" r="3" fill="#E69F00"/>
<circle cx="510" cy="340" r="3" fill="#C44E52"/>
<circle cx="510" cy="59" r="3" fill="#000000"/>
<circle cx="583" cy="96" r="3" fill="#0072B2"/>
<circle cx="583" cy="63" r="3" fill="#CC79A7"/>
<circle cx="583" cy="340" r="3" fill="#D55E00"/>
<circle cx="583" cy="289" r="3" fill="#009E73"/>
<circle cx="583" cy="300" r="3" fill="#56B4E9"/>
<circle cx="583" cy="222" r="3" fill="#E69F00"/>
<circle cx="583" cy="340" r="3" fill="#C44E52"/>
<circle cx="583" cy="59" r="3" fill="#000000"/>
<circle cx="656" cy="86" r="3" fill="#0072B2"/>
<circle cx="656" cy="54" r="3" fill="#CC79A7"/>
<circle cx="656" cy="340" r="3" fill="#D55E00"/>
<circle cx="656" cy="288" r="3" fill="#009E73"/>
<circle cx="656" cy="300" r="3" fill="#56B4E9"/>
<circle cx="656" cy="222" r="3" fill="#E69F00"/>
<circle cx="656" cy="340" r="3" fill="#C44E52"/>
<circle cx="656" cy="59" r="3" fill="#000000"/>
<circle cx="730" cy="96" r="3" fill="#0072B2"/>
<circle cx="730" cy="65" r="3" fill="#CC79A7"/>
<circle cx="730" cy="340" r="3" fill="#D55E00"/>
<circle cx="730" cy="289" r="3" fill="#009E73"/>
<circle cx="730" cy="291" r="3" fill="#56B4E9"/>
<circle cx="730" cy="213" r="3" fill="#E69F00"/>
<circle cx="730" cy="340" r="3" fill="#C44E52"/>
<circle cx="730" cy="41" r="3" fill="#000000"/>
<circle cx="90" cy="20" r="4" fill="#0072B2"/>
<text x="98" y="24" text-anchor="start" font-size="12" fill="#0072B2">inte</text>
<circle cx="150" cy="20" r="4" fill="#CC79A7"/>
<text x="158" y="24" text-anchor="start" font-size="12" fill="#CC79A7">comp</text>
<circle cx="215" cy="20" r="4" fill="#D55E00"/>
<text x="223" y="24" text-anchor="start" font-size="12" fill="#D55E00">run</text>
<circle cx="270" cy="20" r="4" fill="#009E73"/>
<text x="278" y="24" text-anchor="start" font-size="12" fill="#009E73">wall</text>
<circle cx="335" cy="20" r="4" fill="#56B4E9"/>
<text x="343" y="24" text-anchor="start" font-size="12" fill="#56B4E9">mem-inte</text>
<circle cx="425" cy="20" r="4" fill="#E69F00"/>
<text x="433" y="24" text-anchor="start" font-size="12" fill="#E69F00">mem-comp</text>
<circle cx="520" cy="20" r="4" fill="#C44E52"/>
<text x="528" y="24" text-anchor="start" font-size="12" fill="#C44E52">mem-run</text>
<circle cx="605" cy="20" r="4" fill="#000000"/>
<text x="613" y="24" text-anchor="start" font-size="12" fill="#000000">mem-total</text>
</svg>
