<svg width="800" height="400" xmlns="http://www.w3.org/2000/svg">
<rect width="800" height="400" fill="white"/>
<line x1="70" y1="40" x2="70" y2="340" stroke="#333" stroke-width="1"/>
<line x1="70" y1="340" x2="780" y2="340" stroke="#333" stroke-width="1"/>
<text x="65" y="344" text-anchor="end" font-size="11" fill="#333">0</text>
<text x="65" y="194" text-anchor="end" font-size="11" fill="#333">4500</text>
<text x="65" y="44" text-anchor="end" font-size="11" fill="#333">9000</text>
<text x="15" y="190" text-anchor="middle" font-size="12" fill="#333" transform="rotate(-90 15 190)">ms</text>
<polyline points="70,276 84,274 99,277 114,273 129,277 143,275 158,272 173,273 188,269 203,269 217,274 232,270 247,270 262,273 277,268 291,270 306,271 321,274 336,273 351,271 365,272 380,274 395,273 410,273 425,271 439,271 454,273 469,273 484,273 498,271 513,272 528,269 543,272 558,273 572,270 587,271 602,270 617,271 632,271 646,272 661,273 676,274 691,270 706,274 720,271 735,270 750,269 765,269 780,266" fill="none" stroke="#2196F3" stroke-width="2"/>
<polyline points="70,154 84,155 99,156 114,151 129,153 143,158 158,151 173,151 188,151 203,151 217,151 232,147 247,146 262,151 277,151 291,159 306,153 321,150 336,149 351,152 365,152 380,156 395,152 410,158 425,123 439,129 454,128 469,131 484,129 498,131 513,131 528,131 543,126 558,126 572,129 587,127 602,128 617,129 632,127 646,131 661,127 676,126 691,133 706,126 720,133 735,131 750,118 765,119 780,119" fill="none" stroke="#F44336" stroke-width="2"/>
<polyline points="70,108 84,109 99,109 114,107 129,113 143,101 158,99 173,99 188,97 203,94 217,95 232,96 247,95 262,97 277,96 291,94 306,92 321,92 336,97 351,92 365,95 380,98 395,96 410,97 425,89 439,93 454,88 469,89 484,93 498,95 513,88 528,82 543,85 558,84 572,85 587,84 602,84 617,82 632,81 646,85 661,91 676,84 691,88 706,87 720,87 735,86 750,71 765,67 780,68" fill="none" stroke="#4CAF50" stroke-width="2"/>
<circle cx="70" cy="276" r="3" fill="#2196F3"/>
<circle cx="70" cy="154" r="3" fill="#F44336"/>
<circle cx="70" cy="108" r="3" fill="#4CAF50"/>
<circle cx="84" cy="274" r="3" fill="#2196F3"/>
<circle cx="84" cy="155" r="3" fill="#F44336"/>
<circle cx="84" cy="109" r="3" fill="#4CAF50"/>
<circle cx="99" cy="277" r="3" fill="#2196F3"/>
<circle cx="99" cy="156" r="3" fill="#F44336"/>
<circle cx="99" cy="109" r="3" fill="#4CAF50"/>
<circle cx="114" cy="273" r="3" fill="#2196F3"/>
<circle cx="114" cy="151" r="3" fill="#F44336"/>
<circle cx="114" cy="107" r="3" fill="#4CAF50"/>
<circle cx="129" cy="277" r="3" fill="#2196F3"/>
<circle cx="129" cy="153" r="3" fill="#F44336"/>
<circle cx="129" cy="113" r="3" fill="#4CAF50"/>
<circle cx="143" cy="275" r="3" fill="#2196F3"/>
<circle cx="143" cy="158" r="3" fill="#F44336"/>
<circle cx="143" cy="101" r="3" fill="#4CAF50"/>
<circle cx="158" cy="272" r="3" fill="#2196F3"/>
<circle cx="158" cy="151" r="3" fill="#F44336"/>
<circle cx="158" cy="99" r="3" fill="#4CAF50"/>
<circle cx="173" cy="273" r="3" fill="#2196F3"/>
<circle cx="173" cy="151" r="3" fill="#F44336"/>
<circle cx="173" cy="99" r="3" fill="#4CAF50"/>
<circle cx="188" cy="269" r="3" fill="#2196F3"/>
<circle cx="188" cy="151" r="3" fill="#F44336"/>
<circle cx="188" cy="97" r="3" fill="#4CAF50"/>
<circle cx="203" cy="269" r="3" fill="#2196F3"/>
<circle cx="203" cy="151" r="3" fill="#F44336"/>
<circle cx="203" cy="94" r="3" fill="#4CAF50"/>
<circle cx="217" cy="274" r="3" fill="#2196F3"/>
<circle cx="217" cy="151" r="3" fill="#F44336"/>
<circle cx="217" cy="95" r="3" fill="#4CAF50"/>
<circle cx="232" cy="270" r="3" fill="#2196F3"/>
<circle cx="232" cy="147" r="3" fill="#F44336"/>
<circle cx="232" cy="96" r="3" fill="#4CAF50"/>
<circle cx="247" cy="270" r="3" fill="#2196F3"/>
<circle cx="247" cy="146" r="3" fill="#F44336"/>
<circle cx="247" cy="95" r="3" fill="#4CAF50"/>
<circle cx="262" cy="273" r="3" fill="#2196F3"/>
<circle cx="262" cy="151" r="3" fill="#F44336"/>
<circle cx="262" cy="97" r="3" fill="#4CAF50"/>
<circle cx="277" cy="268" r="3" fill="#2196F3"/>
<circle cx="277" cy="151" r="3" fill="#F44336"/>
<circle cx="277" cy="96" r="3" fill="#4CAF50"/>
<circle cx="291" cy="270" r="3" fill="#2196F3"/>
<circle cx="291" cy="159" r="3" fill="#F44336"/>
<circle cx="291" cy="94" r="3" fill="#4CAF50"/>
<circle cx="306" cy="271" r="3" fill="#2196F3"/>
<circle cx="306" cy="153" r="3" fill="#F44336"/>
<circle cx="306" cy="92" r="3" fill="#4CAF50"/>
<circle cx="321" cy="274" r="3" fill="#2196F3"/>
<circle cx="321" cy="150" r="3" fill="#F44336"/>
<circle cx="321" cy="92" r="3" fill="#4CAF50"/>
<circle cx="336" cy="273" r="3" fill="#2196F3"/>
<circle cx="336" cy="149" r="3" fill="#F44336"/>
<circle cx="336" cy="97" r="3" fill="#4CAF50"/>
<circle cx="351" cy="271" r="3" fill="#2196F3"/>
<circle cx="351" cy="152" r="3" fill="#F44336"/>
<circle cx="351" cy="92" r="3" fill="#4CAF50"/>
<circle cx="365" cy="272" r="3" fill="#2196F3"/>
<circle cx="365" cy="152" r="3" fill="#F44336"/>
<circle cx="365" cy="95" r="3" fill="#4CAF50"/>
<circle cx="380" cy="274" r="3" fill="#2196F3"/>
<circle cx="380" cy="156" r="3" fill="#F44336"/>
<circle cx="380" cy="98" r="3" fill="#4CAF50"/>
<circle cx="395" cy="273" r="3" fill="#2196F3"/>
<circle cx="395" cy="152" r="3" fill="#F44336"/>
<circle cx="395" cy="96" r="3" fill="#4CAF50"/>
<circle cx="410" cy="273" r="3" fill="#2196F3"/>
<circle cx="410" cy="158" r="3" fill="#F44336"/>
<circle cx="410" cy="97" r="3" fill="#4CAF50"/>
<circle cx="425" cy="271" r="3" fill="#2196F3"/>
<circle cx="425" cy="123" r="3" fill="#F44336"/>
<circle cx="425" cy="89" r="3" fill="#4CAF50"/>
<circle cx="439" cy="271" r="3" fill="#2196F3"/>
<circle cx="439" cy="129" r="3" fill="#F44336"/>
<circle cx="439" cy="93" r="3" fill="#4CAF50"/>
<circle cx="454" cy="273" r="3" fill="#2196F3"/>
<circle cx="454" cy="128" r="3" fill="#F44336"/>
<circle cx="454" cy="88" r="3" fill="#4CAF50"/>
<circle cx="469" cy="273" r="3" fill="#2196F3"/>
<circle cx="469" cy="131" r="3" fill="#F44336"/>
<circle cx="469" cy="89" r="3" fill="#4CAF50"/>
<circle cx="484" cy="273" r="3" fill="#2196F3"/>
<circle cx="484" cy="129" r="3" fill="#F44336"/>
<circle cx="484" cy="93" r="3" fill="#4CAF50"/>
<circle cx="498" cy="271" r="3" fill="#2196F3"/>
<circle cx="498" cy="131" r="3" fill="#F44336"/>
<circle cx="498" cy="95" r="3" fill="#4CAF50"/>
<circle cx="513" cy="272" r="3" fill="#2196F3"/>
<circle cx="513" cy="131" r="3" fill="#F44336"/>
<circle cx="513" cy="88" r="3" fill="#4CAF50"/>
<circle cx="528" cy="269" r="3" fill="#2196F3"/>
<circle cx="528" cy="131" r="3" fill="#F44336"/>
<circle cx="528" cy="82" r="3" fill="#4CAF50"/>
<circle cx="543" cy="272" r="3" fill="#2196F3"/>
<circle cx="543" cy="126" r="3" fill="#F44336"/>
<circle cx="543" cy="85" r="3" fill="#4CAF50"/>
<circle cx="558" cy="273" r="3" fill="#2196F3"/>
<circle cx="558" cy="126" r="3" fill="#F44336"/>
<circle cx="558" cy="84" r="3" fill="#4CAF50"/>
<circle cx="572" cy="270" r="3" fill="#2196F3"/>
<circle cx="572" cy="129" r="3" fill="#F44336"/>
<circle cx="572" cy="85" r="3" fill="#4CAF50"/>
<circle cx="587" cy="271" r="3" fill="#2196F3"/>
<circle cx="587" cy="127" r="3" fill="#F44336"/>
<circle cx="587" cy="84" r="3" fill="#4CAF50"/>
<circle cx="602" cy="270" r="3" fill="#2196F3"/>
<circle cx="602" cy="128" r="3" fill="#F44336"/>
<circle cx="602" cy="84" r="3" fill="#4CAF50"/>
<circle cx="617" cy="271" r="3" fill="#2196F3"/>
<circle cx="617" cy="129" r="3" fill="#F44336"/>
<circle cx="617" cy="82" r="3" fill="#4CAF50"/>
<circle cx="632" cy="271" r="3" fill="#2196F3"/>
<circle cx="632" cy="127" r="3" fill="#F44336"/>
<circle cx="632" cy="81" r="3" fill="#4CAF50"/>
<circle cx="646" cy="272" r="3" fill="#2196F3"/>
<circle cx="646" cy="131" r="3" fill="#F44336"/>
<circle cx="646" cy="85" r="3" fill="#4CAF50"/>
<circle cx="661" cy="273" r="3" fill="#2196F3"/>
<circle cx="661" cy="127" r="3" fill="#F44336"/>
<circle cx="661" cy="91" r="3" fill="#4CAF50"/>
<circle cx="676" cy="274" r="3" fill="#2196F3"/>
<circle cx="676" cy="126" r="3" fill="#F44336"/>
<circle cx="676" cy="84" r="3" fill="#4CAF50"/>
<circle cx="691" cy="270" r="3" fill="#2196F3"/>
<circle cx="691" cy="133" r="3" fill="#F44336"/>
<circle cx="691" cy="88" r="3" fill="#4CAF50"/>
<circle cx="706" cy="274" r="3" fill="#2196F3"/>
<circle cx="706" cy="126" r="3" fill="#F44336"/>
<circle cx="706" cy="87" r="3" fill="#4CAF50"/>
<circle cx="720" cy="271" r="3" fill="#2196F3"/>
<circle cx="720" cy="133" r="3" fill="#F44336"/>
<circle cx="720" cy="87" r="3" fill="#4CAF50"/>
<circle cx="735" cy="270" r="3" fill="#2196F3"/>
<circle cx="735" cy="131" r="3" fill="#F44336"/>
<circle cx="735" cy="86" r="3" fill="#4CAF50"/>
<circle cx="750" cy="269" r="3" fill="#2196F3"/>
<circle cx="750" cy="118" r="3" fill="#F44336"/>
<circle cx="750" cy="71" r="3" fill="#4CAF50"/>
<circle cx="765" cy="269" r="3" fill="#2196F3"/>
<circle cx="765" cy="119" r="3" fill="#F44336"/>
<circle cx="765" cy="67" r="3" fill="#4CAF50"/>
<circle cx="780" cy="266" r="3" fill="#2196F3"/>
<circle cx="780" cy="119" r="3" fill="#F44336"/>
<circle cx="780" cy="68" r="3" fill="#4CAF50"/>
<text x="70" y="355" text-anchor="middle" font-size="10" fill="#666">d31c3d3</text>
<text x="84" y="355" text-anchor="middle" font-size="10" fill="#666">577b0f6</text>
<text x="99" y="355" text-anchor="middle" font-size="10" fill="#666">a0e3a8f</text>
<text x="114" y="355" text-anchor="middle" font-size="10" fill="#666">32b7787</text>
<text x="129" y="355" text-anchor="middle" font-size="10" fill="#666">940e369</text>
<text x="143" y="355" text-anchor="middle" font-size="10" fill="#666">78956c1</text>
<text x="158" y="355" text-anchor="middle" font-size="10" fill="#666">1a288e9</text>
<text x="173" y="355" text-anchor="middle" font-size="10" fill="#666">f1c0746</text>
<text x="188" y="355" text-anchor="middle" font-size="10" fill="#666">efad3b5</text>
<text x="203" y="355" text-anchor="middle" font-size="10" fill="#666">d3839be</text>
<text x="217" y="355" text-anchor="middle" font-size="10" fill="#666">a0c21b2</text>
<text x="232" y="355" text-anchor="middle" font-size="10" fill="#666">c3d3d81</text>
<text x="247" y="355" text-anchor="middle" font-size="10" fill="#666">e40d897</text>
<text x="262" y="355" text-anchor="middle" font-size="10" fill="#666">0b1ed97</text>
<text x="277" y="355" text-anchor="middle" font-size="10" fill="#666">6a5ae3f</text>
<text x="291" y="355" text-anchor="middle" font-size="10" fill="#666">59cf448</text>
<text x="306" y="355" text-anchor="middle" font-size="10" fill="#666">42b3e04</text>
<text x="321" y="355" text-anchor="middle" font-size="10" fill="#666">bd9421a</text>
<text x="336" y="355" text-anchor="middle" font-size="10" fill="#666">f80812f</text>
<text x="351" y="355" text-anchor="middle" font-size="10" fill="#666">448a5fe</text>
<text x="365" y="355" text-anchor="middle" font-size="10" fill="#666">b16c1cc</text>
<text x="380" y="355" text-anchor="middle" font-size="10" fill="#666">44c334c</text>
<text x="395" y="355" text-anchor="middle" font-size="10" fill="#666">aa51d1a</text>
<text x="410" y="355" text-anchor="middle" font-size="10" fill="#666">9bee79a</text>
<text x="425" y="355" text-anchor="middle" font-size="10" fill="#666">4380346</text>
<text x="439" y="355" text-anchor="middle" font-size="10" fill="#666">2a587a9</text>
<text x="454" y="355" text-anchor="middle" font-size="10" fill="#666">efb005a</text>
<text x="469" y="355" text-anchor="middle" font-size="10" fill="#666">1c3b72e</text>
<text x="484" y="355" text-anchor="middle" font-size="10" fill="#666">ff7c733</text>
<text x="498" y="355" text-anchor="middle" font-size="10" fill="#666">962897f</text>
<text x="513" y="355" text-anchor="middle" font-size="10" fill="#666">dfec04b</text>
<text x="528" y="355" text-anchor="middle" font-size="10" fill="#666">60e18de</text>
<text x="543" y="355" text-anchor="middle" font-size="10" fill="#666">80a0d41</text>
<text x="558" y="355" text-anchor="middle" font-size="10" fill="#666">e200726</text>
<text x="572" y="355" text-anchor="middle" font-size="10" fill="#666">775a89f</text>
<text x="587" y="355" text-anchor="middle" font-size="10" fill="#666">18e45a5</text>
<text x="602" y="355" text-anchor="middle" font-size="10" fill="#666">9d60b61</text>
<text x="617" y="355" text-anchor="middle" font-size="10" fill="#666">479229b</text>
<text x="632" y="355" text-anchor="middle" font-size="10" fill="#666">39769db</text>
<text x="646" y="355" text-anchor="middle" font-size="10" fill="#666">2834756</text>
<text x="661" y="355" text-anchor="middle" font-size="10" fill="#666">3628e6d</text>
<text x="676" y="355" text-anchor="middle" font-size="10" fill="#666">daa3fc2</text>
<text x="691" y="355" text-anchor="middle" font-size="10" fill="#666">8fc41b8</text>
<text x="706" y="355" text-anchor="middle" font-size="10" fill="#666">7d63976</text>
<text x="720" y="355" text-anchor="middle" font-size="10" fill="#666">4f6a400</text>
<text x="735" y="355" text-anchor="middle" font-size="10" fill="#666">443d8b3</text>
<text x="750" y="355" text-anchor="middle" font-size="10" fill="#666">86f53df</text>
<text x="765" y="355" text-anchor="middle" font-size="10" fill="#666">d665d11</text>
<text x="780" y="355" text-anchor="middle" font-size="10" fill="#666">23f76d5</text>
<circle cx="90" cy="20" r="4" fill="#2196F3"/>
<text x="98" y="24" text-anchor="start" font-size="12" fill="#2196F3">Interpreted</text>
<circle cx="200" cy="20" r="4" fill="#F44336"/>
<text x="208" y="24" text-anchor="start" font-size="12" fill="#F44336">Compiled</text>
<circle cx="300" cy="20" r="4" fill="#4CAF50"/>
<text x="308" y="24" text-anchor="start" font-size="12" fill="#4CAF50">Wall-clock</text>
</svg>
