<svg width="800" height="400" xmlns="http://www.w3.org/2000/svg">
<rect width="800" height="400" fill="white"/>
<line x1="70" y1="40" x2="70" y2="340" stroke="#333" stroke-width="1"/>
<line x1="70" y1="340" x2="730" y2="340" stroke="#333" stroke-width="1"/>
<line x1="730" y1="40" x2="730" y2="340" stroke="#333" stroke-width="1"/>
<text x="65" y="344" text-anchor="end" font-size="11" fill="#333">0</text>
<text x="65" y="194" text-anchor="end" font-size="11" fill="#333">264000</text>
<text x="65" y="44" text-anchor="end" font-size="11" fill="#333">528000</text>
<text x="15" y="190" text-anchor="middle" font-size="12" fill="#333" transform="rotate(-90 15 190)">ms</text>
<text x="735" y="344" text-anchor="start" font-size="11" fill="#333">0</text>
<text x="735" y="194" text-anchor="start" font-size="11" fill="#333">10287500000</text>
<text x="735" y="44" text-anchor="start" font-size="11" fill="#333">20575000000</text>
<text x="785" y="190" text-anchor="middle" font-size="12" fill="#333" transform="rotate(90 785 190)">bytes</text>
<polyline points="70,56 143,56 216,54 290,52 363,45 436,42 510,42 583,48 656,43 730,41" fill="none" stroke="#0072B2" stroke-width="2"/>
<polyline points="70,102 143,103 216,101 290,100 363,89 436,89 510,89 583,95 656,88 730,87" fill="none" stroke="#CC79A7" stroke-width="2"/>
<polyline points="70,340 143,340 216,340 290,340 363,340 436,340 510,340 583,340 656,340 730,340" fill="none" stroke="#D55E00" stroke-width="2"/>
<polyline points="70,294 143,294 216,294 290,293 363,294 436,294 510,293 583,295 656,294 730,293" fill="none" stroke="#009E73" stroke-width="2"/>
<polyline points="70,300 143,300 216,301 290,301 363,306 436,306 510,306 583,306 656,306 730,306" fill="none" stroke="#56B4E9" stroke-width="2"/>
<polyline points="70,183 143,183 216,183 290,183 363,192 436,192 510,192 583,192 656,192 730,192" fill="none" stroke="#E69F00" stroke-width="2"/>
<polyline points="70,339 143,339 216,337 290,337 363,337 436,338 510,338 583,337 656,337 730,337" fill="none" stroke="#C44E52" stroke-width="2"/>
<polyline points="70,43 143,44 216,41 290,42 363,58 436,58 510,59 583,57 656,58 730,58" fill="none" stroke="#000000" stroke-width="2"/>
<circle cx="70" cy="56" r="3" fill="#0072B2"/>
<circle cx="70" cy="102" r="3" fill="#CC79A7"/>
<circle cx="70" cy="340" r="3" fill="#D55E00"/>
<circle cx="70" cy="294" r="3" fill="#009E73"/>
<circle cx="70" cy="300" r="3" fill="#56B4E9"/>
<circle cx="70" cy="183" r="3" fill="#E69F00"/>
<circle cx="70" cy="339" r="3" fill="#C44E52"/>
<circle cx="70" cy="43" r="3" fill="#000000"/>
<circle cx="143" cy="56" r="3" fill="#0072B2"/>
<circle cx="143" cy="103" r="3" fill="#CC79A7"/>
<circle cx="143" cy="340" r="3" fill="#D55E00"/>
<circle cx="143" cy="294" r="3" fill="#009E73"/>
<circle cx="143" cy="300" r="3" fill="#56B4E9"/>
<circle cx="143" cy="183" r="3" fill="#E69F00"/>
<circle cx="143" cy="339" r="3" fill="#C44E52"/>
<circle cx="143" cy="44" r="3" fill="#000000"/>
<circle cx="216" cy="54" r="3" fill="#0072B2"/>
<circle cx="216" cy="101" r="3" fill="#CC79A7"/>
<circle cx="216" cy="340" r="3" fill="#D55E00"/>
<circle cx="216" cy="294" r="3" fill="#009E73"/>
<circle cx="216" cy="301" r="3" fill="#56B4E9"/>
<circle cx="216" cy="183" r="3" fill="#E69F00"/>
<circle cx="216" cy="337" r="3" fill="#C44E52"/>
<circle cx="216" cy="41" r="3" fill="#000000"/>
<circle cx="290" cy="52" r="3" fill="#0072B2"/>
<circle cx="290" cy="100" r="3" fill="#CC79A7"/>
<circle cx="290" cy="340" r="3" fill="#D55E00"/>
<circle cx="290" cy="293" r="3" fill="#009E73"/>
<circle cx="290" cy="301" r="3" fill="#56B4E9"/>
<circle cx="290" cy="183" r="3" fill="#E69F00"/>
<circle cx="290" cy="337" r="3" fill="#C44E52"/>
<circle cx="290" cy="42" r="3" fill="#000000"/>
<circle cx="363" cy="45" r="3" fill="#0072B2"/>
<circle cx="363" cy="89" r="3" fill="#CC79A7"/>
<circle cx="363" cy="340" r="3" fill="#D55E00"/>
<circle cx="363" cy="294" r="3" fill="#009E73"/>
<circle cx="363" cy="306" r="3" fill="#56B4E9"/>
<circle cx="363" cy="192" r="3" fill="#E69F00"/>
<circle cx="363" cy="337" r="3" fill="#C44E52"/>
<circle cx="363" cy="58" r="3" fill="#000000"/>
<circle cx="436" cy="42" r="3" fill="#0072B2"/>
<circle cx="436" cy="89" r="3" fill="#CC79A7"/>
<circle cx="436" cy="340" r="3" fill="#D55E00"/>
<circle cx="436" cy="294" r="3" fill="#009E73"/>
<circle cx="436" cy="306" r="3" fill="#56B4E9"/>
<circle cx="436" cy="192" r="3" fill="#E69F00"/>
<circle cx="436" cy="338" r="3" fill="#C44E52"/>
<circle cx="436" cy="58" r="3" fill="#000000"/>
<circle cx="510" cy="42" r="3" fill="#0072B2"/>
<circle cx="510" cy="89" r="3" fill="#CC79A7"/>
<circle cx="510" cy="340" r="3" fill="#D55E00"/>
<circle cx="510" cy="293" r="3" fill="#009E73"/>
<circle cx="510" cy="306" r="3" fill="#56B4E9"/>
<circle cx="510" cy="192" r="3" fill="#E69F00"/>
<circle cx="510" cy="338" r="3" fill="#C44E52"/>
<circle cx="510" cy="59" r="3" fill="#000000"/>
<circle cx="583" cy="48" r="3" fill="#0072B2"/>
<circle cx="583" cy="95" r="3" fill="#CC79A7"/>
<circle cx="583" cy="340" r="3" fill="#D55E00"/>
<circle cx="583" cy="295" r="3" fill="#009E73"/>
<circle cx="583" cy="306" r="3" fill="#56B4E9"/>
<circle cx="583" cy="192" r="3" fill="#E69F00"/>
<circle cx="583" cy="337" r="3" fill="#C44E52"/>
<circle cx="583" cy="57" r="3" fill="#000000"/>
<circle cx="656" cy="43" r="3" fill="#0072B2"/>
<circle cx="656" cy="88" r="3" fill="#CC79A7"/>
<circle cx="656" cy="340" r="3" fill="#D55E00"/>
<circle cx="656" cy="294" r="3" fill="#009E73"/>
<circle cx="656" cy="306" r="3" fill="#56B4E9"/>
<circle cx="656" cy="192" r="3" fill="#E69F00"/>
<circle cx="656" cy="337" r="3" fill="#C44E52"/>
<circle cx="656" cy="58" r="3" fill="#000000"/>
<circle cx="730" cy="41" r="3" fill="#0072B2"/>
<circle cx="730" cy="87" r="3" fill="#CC79A7"/>
<circle cx="730" cy="340" r="3" fill="#D55E00"/>
<circle cx="730" cy="293" r="3" fill="#009E73"/>
<circle cx="730" cy="306" r="3" fill="#56B4E9"/>
<circle cx="730" cy="192" r="3" fill="#E69F00"/>
<circle cx="730" cy="337" r="3" fill="#C44E52"/>
<circle cx="730" cy="58" r="3" fill="#000000"/>
<circle cx="90" cy="20" r="4" fill="#0072B2"/>
<text x="98" y="24" text-anchor="start" font-size="12" fill="#0072B2">inte</text>
<circle cx="150" cy="20" r="4" fill="#CC79A7"/>
<text x="158" y="24" text-anchor="start" font-size="12" fill="#CC79A7">comp</text>
<circle cx="215" cy="20" r="4" fill="#D55E00"/>
<text x="223" y="24" text-anchor="start" font-size="12" fill="#D55E00">run</text>
<circle cx="270" cy="20" r="4" fill="#009E73"/>
<text x="278" y="24" text-anchor="start" font-size="12" fill="#009E73">wall</text>
<circle cx="335" cy="20" r="4" fill="#56B4E9"/>
<text x="343" y="24" text-anchor="start" font-size="12" fill="#56B4E9">mem-inte</text>
<circle cx="425" cy="20" r="4" fill="#E69F00"/>
<text x="433" y="24" text-anchor="start" font-size="12" fill="#E69F00">mem-comp</text>
<circle cx="520" cy="20" r="4" fill="#C44E52"/>
<text x="528" y="24" text-anchor="start" font-size="12" fill="#C44E52">mem-run</text>
<circle cx="605" cy="20" r="4" fill="#000000"/>
<text x="613" y="24" text-anchor="start" font-size="12" fill="#000000">mem-total</text>
</svg>
