<svg width="800" height="400" xmlns="http://www.w3.org/2000/svg">
<rect width="800" height="400" fill="white"/>
<line x1="70" y1="40" x2="70" y2="340" stroke="#333" stroke-width="1"/>
<line x1="70" y1="340" x2="730" y2="340" stroke="#333" stroke-width="1"/>
<line x1="730" y1="40" x2="730" y2="340" stroke="#333" stroke-width="1"/>
<text x="65" y="344" text-anchor="end" font-size="11" fill="#333">0</text>
<text x="65" y="194" text-anchor="end" font-size="11" fill="#333">133000</text>
<text x="65" y="44" text-anchor="end" font-size="11" fill="#333">266000</text>
<text x="15" y="190" text-anchor="middle" font-size="12" fill="#333" transform="rotate(-90 15 190)">ms</text>
<text x="735" y="344" text-anchor="start" font-size="11" fill="#333">0</text>
<text x="735" y="194" text-anchor="start" font-size="11" fill="#333">9469500000</text>
<text x="735" y="44" text-anchor="start" font-size="11" fill="#333">18939000000</text>
<text x="785" y="190" text-anchor="middle" font-size="12" fill="#333" transform="rotate(90 785 190)">bytes</text>
<polyline points="70,158 143,194 216,203 290,212 363,198 436,198 510,206 583,205 656,114 730,203" fill="none" stroke="#0072B2" stroke-width="2"/>
<polyline points="70,98 143,151 216,158 290,160 363,157 436,148 510,165 583,160 656,41 730,162" fill="none" stroke="#CC79A7" stroke-width="2"/>
<polyline points="70,339 143,340 216,340 290,339 363,340 436,339 510,340 583,340 656,339 730,340" fill="none" stroke="#D55E00" stroke-width="2"/>
<polyline points="70,287 143,298 216,301 290,302 363,300 436,300 510,302 583,301 656,276 730,301" fill="none" stroke="#009E73" stroke-width="2"/>
<polyline points="70,264 143,262 216,266 290,268 363,232 436,234 510,232 583,226 656,224 730,226" fill="none" stroke="#56B4E9" stroke-width="2"/>
<polyline points="70,256 143,256 216,256 290,256 363,226 436,226 510,227 583,221 656,221 730,223" fill="none" stroke="#E69F00" stroke-width="2"/>
<polyline points="70,338 143,338 216,338 290,338 363,339 436,338 510,339 583,339 656,337 730,339" fill="none" stroke="#C44E52" stroke-width="2"/>
<polyline points="70,116 143,118 216,123 290,110 363,44 436,62 510,58 583,50 656,41 730,51" fill="none" stroke="#000000" stroke-width="2"/>
<circle cx="70" cy="158" r="3" fill="#0072B2"/>
<circle cx="70" cy="98" r="3" fill="#CC79A7"/>
<circle cx="70" cy="339" r="3" fill="#D55E00"/>
<circle cx="70" cy="287" r="3" fill="#009E73"/>
<circle cx="70" cy="264" r="3" fill="#56B4E9"/>
<circle cx="70" cy="256" r="3" fill="#E69F00"/>
<circle cx="70" cy="338" r="3" fill="#C44E52"/>
<circle cx="70" cy="116" r="3" fill="#000000"/>
<circle cx="143" cy="194" r="3" fill="#0072B2"/>
<circle cx="143" cy="151" r="3" fill="#CC79A7"/>
<circle cx="143" cy="340" r="3" fill="#D55E00"/>
<circle cx="143" cy="298" r="3" fill="#009E73"/>
<circle cx="143" cy="262" r="3" fill="#56B4E9"/>
<circle cx="143" cy="256" r="3" fill="#E69F00"/>
<circle cx="143" cy="338" r="3" fill="#C44E52"/>
<circle cx="143" cy="118" r="3" fill="#000000"/>
<circle cx="216" cy="203" r="3" fill="#0072B2"/>
<circle cx="216" cy="158" r="3" fill="#CC79A7"/>
<circle cx="216" cy="340" r="3" fill="#D55E00"/>
<circle cx="216" cy="301" r="3" fill="#009E73"/>
<circle cx="216" cy="266" r="3" fill="#56B4E9"/>
<circle cx="216" cy="256" r="3" fill="#E69F00"/>
<circle cx="216" cy="338" r="3" fill="#C44E52"/>
<circle cx="216" cy="123" r="3" fill="#000000"/>
<circle cx="290" cy="212" r="3" fill="#0072B2"/>
<circle cx="290" cy="160" r="3" fill="#CC79A7"/>
<circle cx="290" cy="339" r="3" fill="#D55E00"/>
<circle cx="290" cy="302" r="3" fill="#009E73"/>
<circle cx="290" cy="268" r="3" fill="#56B4E9"/>
<circle cx="290" cy="256" r="3" fill="#E69F00"/>
<circle cx="290" cy="338" r="3" fill="#C44E52"/>
<circle cx="290" cy="110" r="3" fill="#000000"/>
<circle cx="363" cy="198" r="3" fill="#0072B2"/>
<circle cx="363" cy="157" r="3" fill="#CC79A7"/>
<circle cx="363" cy="340" r="3" fill="#D55E00"/>
<circle cx="363" cy="300" r="3" fill="#009E73"/>
<circle cx="363" cy="232" r="3" fill="#56B4E9"/>
<circle cx="363" cy="226" r="3" fill="#E69F00"/>
<circle cx="363" cy="339" r="3" fill="#C44E52"/>
<circle cx="363" cy="44" r="3" fill="#000000"/>
<circle cx="436" cy="198" r="3" fill="#0072B2"/>
<circle cx="436" cy="148" r="3" fill="#CC79A7"/>
<circle cx="436" cy="339" r="3" fill="#D55E00"/>
<circle cx="436" cy="300" r="3" fill="#009E73"/>
<circle cx="436" cy="234" r="3" fill="#56B4E9"/>
<circle cx="436" cy="226" r="3" fill="#E69F00"/>
<circle cx="436" cy="338" r="3" fill="#C44E52"/>
<circle cx="436" cy="62" r="3" fill="#000000"/>
<circle cx="510" cy="206" r="3" fill="#0072B2"/>
<circle cx="510" cy="165" r="3" fill="#CC79A7"/>
<circle cx="510" cy="340" r="3" fill="#D55E00"/>
<circle cx="510" cy="302" r="3" fill="#009E73"/>
<circle cx="510" cy="232" r="3" fill="#56B4E9"/>
<circle cx="510" cy="227" r="3" fill="#E69F00"/>
<circle cx="510" cy="339" r="3" fill="#C44E52"/>
<circle cx="510" cy="58" r="3" fill="#000000"/>
<circle cx="583" cy="205" r="3" fill="#0072B2"/>
<circle cx="583" cy="160" r="3" fill="#CC79A7"/>
<circle cx="583" cy="340" r="3" fill="#D55E00"/>
<circle cx="583" cy="301" r="3" fill="#009E73"/>
<circle cx="583" cy="226" r="3" fill="#56B4E9"/>
<circle cx="583" cy="221" r="3" fill="#E69F00"/>
<circle cx="583" cy="339" r="3" fill="#C44E52"/>
<circle cx="583" cy="50" r="3" fill="#000000"/>
<circle cx="656" cy="114" r="3" fill="#0072B2"/>
<circle cx="656" cy="41" r="3" fill="#CC79A7"/>
<circle cx="656" cy="339" r="3" fill="#D55E00"/>
<circle cx="656" cy="276" r="3" fill="#009E73"/>
<circle cx="656" cy="224" r="3" fill="#56B4E9"/>
<circle cx="656" cy="221" r="3" fill="#E69F00"/>
<circle cx="656" cy="337" r="3" fill="#C44E52"/>
<circle cx="656" cy="41" r="3" fill="#000000"/>
<circle cx="730" cy="203" r="3" fill="#0072B2"/>
<circle cx="730" cy="162" r="3" fill="#CC79A7"/>
<circle cx="730" cy="340" r="3" fill="#D55E00"/>
<circle cx="730" cy="301" r="3" fill="#009E73"/>
<circle cx="730" cy="226" r="3" fill="#56B4E9"/>
<circle cx="730" cy="223" r="3" fill="#E69F00"/>
<circle cx="730" cy="339" r="3" fill="#C44E52"/>
<circle cx="730" cy="51" r="3" fill="#000000"/>
<circle cx="90" cy="20" r="4" fill="#0072B2"/>
<text x="98" y="24" text-anchor="start" font-size="12" fill="#0072B2">inte</text>
<circle cx="150" cy="20" r="4" fill="#CC79A7"/>
<text x="158" y="24" text-anchor="start" font-size="12" fill="#CC79A7">comp</text>
<circle cx="215" cy="20" r="4" fill="#D55E00"/>
<text x="223" y="24" text-anchor="start" font-size="12" fill="#D55E00">run</text>
<circle cx="270" cy="20" r="4" fill="#009E73"/>
<text x="278" y="24" text-anchor="start" font-size="12" fill="#009E73">wall</text>
<circle cx="335" cy="20" r="4" fill="#56B4E9"/>
<text x="343" y="24" text-anchor="start" font-size="12" fill="#56B4E9">mem-inte</text>
<circle cx="425" cy="20" r="4" fill="#E69F00"/>
<text x="433" y="24" text-anchor="start" font-size="12" fill="#E69F00">mem-comp</text>
<circle cx="520" cy="20" r="4" fill="#C44E52"/>
<text x="528" y="24" text-anchor="start" font-size="12" fill="#C44E52">mem-run</text>
<circle cx="605" cy="20" r="4" fill="#000000"/>
<text x="613" y="24" text-anchor="start" font-size="12" fill="#000000">mem-total</text>
</svg>
