<svg width="800" height="400" xmlns="http://www.w3.org/2000/svg">
<rect width="800" height="400" fill="white"/>
<line x1="70" y1="40" x2="70" y2="340" stroke="#333" stroke-width="1"/>
<line x1="70" y1="340" x2="730" y2="340" stroke="#333" stroke-width="1"/>
<line x1="730" y1="40" x2="730" y2="340" stroke="#333" stroke-width="1"/>
<text x="65" y="344" text-anchor="end" font-size="11" fill="#333">0</text>
<text x="65" y="194" text-anchor="end" font-size="11" fill="#333">98000</text>
<text x="65" y="44" text-anchor="end" font-size="11" fill="#333">196000</text>
<text x="15" y="190" text-anchor="middle" font-size="12" fill="#333" transform="rotate(-90 15 190)">ms</text>
<text x="735" y="344" text-anchor="start" font-size="11" fill="#333">0</text>
<text x="735" y="194" text-anchor="start" font-size="11" fill="#333">7428000000</text>
<text x="735" y="44" text-anchor="start" font-size="11" fill="#333">14856000000</text>
<text x="785" y="190" text-anchor="middle" font-size="12" fill="#333" transform="rotate(90 785 190)">bytes</text>
<polyline points="70,91 143,87 216,86 290,88 363,86 436,64 510,84 583,87 656,93 730,93" fill="none" stroke="#0072B2" stroke-width="2"/>
<polyline points="70,66 143,65 216,63 290,65 363,60 436,42 510,63 583,64 656,69 730,68" fill="none" stroke="#CC79A7" stroke-width="2"/>
<polyline points="70,340 143,340 216,340 290,340 363,340 436,340 510,340 583,340 656,340 730,340" fill="none" stroke="#D55E00" stroke-width="2"/>
<polyline points="70,304 143,303 216,303 290,303 363,303 436,300 510,303 583,304 656,304 730,304" fill="none" stroke="#009E73" stroke-width="2"/>
<polyline points="70,287 143,287 216,287 290,287 363,286 436,286 510,286 583,286 656,287 730,287" fill="none" stroke="#56B4E9" stroke-width="2"/>
<polyline points="70,211 143,211 216,210 290,210 363,209 436,209 510,209 583,209 656,210 730,210" fill="none" stroke="#E69F00" stroke-width="2"/>
<polyline points="70,340 143,340 216,340 290,340 363,340 436,337 510,340 583,340 656,340 730,340" fill="none" stroke="#C44E52" stroke-width="2"/>
<polyline points="70,47 143,47 216,48 290,45 363,46 436,41 510,46 583,43 656,47 730,46" fill="none" stroke="#000000" stroke-width="2"/>
<circle cx="70" cy="91" r="3" fill="#0072B2"/>
<circle cx="70" cy="66" r="3" fill="#CC79A7"/>
<circle cx="70" cy="340" r="3" fill="#D55E00"/>
<circle cx="70" cy="304" r="3" fill="#009E73"/>
<circle cx="70" cy="287" r="3" fill="#56B4E9"/>
<circle cx="70" cy="211" r="3" fill="#E69F00"/>
<circle cx="70" cy="340" r="3" fill="#C44E52"/>
<circle cx="70" cy="47" r="3" fill="#000000"/>
<circle cx="143" cy="87" r="3" fill="#0072B2"/>
<circle cx="143" cy="65" r="3" fill="#CC79A7"/>
<circle cx="143" cy="340" r="3" fill="#D55E00"/>
<circle cx="143" cy="303" r="3" fill="#009E73"/>
<circle cx="143" cy="287" r="3" fill="#56B4E9"/>
<circle cx="143" cy="211" r="3" fill="#E69F00"/>
<circle cx="143" cy="340" r="3" fill="#C44E52"/>
<circle cx="143" cy="47" r="3" fill="#000000"/>
<circle cx="216" cy="86" r="3" fill="#0072B2"/>
<circle cx="216" cy="63" r="3" fill="#CC79A7"/>
<circle cx="216" cy="340" r="3" fill="#D55E00"/>
<circle cx="216" cy="303" r="3" fill="#009E73"/>
<circle cx="216" cy="287" r="3" fill="#56B4E9"/>
<circle cx="216" cy="210" r="3" fill="#E69F00"/>
<circle cx="216" cy="340" r="3" fill="#C44E52"/>
<circle cx="216" cy="48" r="3" fill="#000000"/>
<circle cx="290" cy="88" r="3" fill="#0072B2"/>
<circle cx="290" cy="65" r="3" fill="#CC79A7"/>
<circle cx="290" cy="340" r="3" fill="#D55E00"/>
<circle cx="290" cy="303" r="3" fill="#009E73"/>
<circle cx="290" cy="287" r="3" fill="#56B4E9"/>
<circle cx="290" cy="210" r="3" fill="#E69F00"/>
<circle cx="290" cy="340" r="3" fill="#C44E52"/>
<circle cx="290" cy="45" r="3" fill="#000000"/>
<circle cx="363" cy="86" r="3" fill="#0072B2"/>
<circle cx="363" cy="60" r="3" fill="#CC79A7"/>
<circle cx="363" cy="340" r="3" fill="#D55E00"/>
<circle cx="363" cy="303" r="3" fill="#009E73"/>
<circle cx="363" cy="286" r="3" fill="#56B4E9"/>
<circle cx="363" cy="209" r="3" fill="#E69F00"/>
<circle cx="363" cy="340" r="3" fill="#C44E52"/>
<circle cx="363" cy="46" r="3" fill="#000000"/>
<circle cx="436" cy="64" r="3" fill="#0072B2"/>
<circle cx="436" cy="42" r="3" fill="#CC79A7"/>
<circle cx="436" cy="340" r="3" fill="#D55E00"/>
<circle cx="436" cy="300" r="3" fill="#009E73"/>
<circle cx="436" cy="286" r="3" fill="#56B4E9"/>
<circle cx="436" cy="209" r="3" fill="#E69F00"/>
<circle cx="436" cy="337" r="3" fill="#C44E52"/>
<circle cx="436" cy="41" r="3" fill="#000000"/>
<circle cx="510" cy="84" r="3" fill="#0072B2"/>
<circle cx="510" cy="63" r="3" fill="#CC79A7"/>
<circle cx="510" cy="340" r="3" fill="#D55E00"/>
<circle cx="510" cy="303" r="3" fill="#009E73"/>
<circle cx="510" cy="286" r="3" fill="#56B4E9"/>
<circle cx="510" cy="209" r="3" fill="#E69F00"/>
<circle cx="510" cy="340" r="3" fill="#C44E52"/>
<circle cx="510" cy="46" r="3" fill="#000000"/>
<circle cx="583" cy="87" r="3" fill="#0072B2"/>
<circle cx="583" cy="64" r="3" fill="#CC79A7"/>
<circle cx="583" cy="340" r="3" fill="#D55E00"/>
<circle cx="583" cy="304" r="3" fill="#009E73"/>
<circle cx="583" cy="286" r="3" fill="#56B4E9"/>
<circle cx="583" cy="209" r="3" fill="#E69F00"/>
<circle cx="583" cy="340" r="3" fill="#C44E52"/>
<circle cx="583" cy="43" r="3" fill="#000000"/>
<circle cx="656" cy="93" r="3" fill="#0072B2"/>
<circle cx="656" cy="69" r="3" fill="#CC79A7"/>
<circle cx="656" cy="340" r="3" fill="#D55E00"/>
<circle cx="656" cy="304" r="3" fill="#009E73"/>
<circle cx="656" cy="287" r="3" fill="#56B4E9"/>
<circle cx="656" cy="210" r="3" fill="#E69F00"/>
<circle cx="656" cy="340" r="3" fill="#C44E52"/>
<circle cx="656" cy="47" r="3" fill="#000000"/>
<circle cx="730" cy="93" r="3" fill="#0072B2"/>
<circle cx="730" cy="68" r="3" fill="#CC79A7"/>
<circle cx="730" cy="340" r="3" fill="#D55E00"/>
<circle cx="730" cy="304" r="3" fill="#009E73"/>
<circle cx="730" cy="287" r="3" fill="#56B4E9"/>
<circle cx="730" cy="210" r="3" fill="#E69F00"/>
<circle cx="730" cy="340" r="3" fill="#C44E52"/>
<circle cx="730" cy="46" r="3" fill="#000000"/>
<circle cx="90" cy="20" r="4" fill="#0072B2"/>
<text x="98" y="24" text-anchor="start" font-size="12" fill="#0072B2">inte</text>
<circle cx="150" cy="20" r="4" fill="#CC79A7"/>
<text x="158" y="24" text-anchor="start" font-size="12" fill="#CC79A7">comp</text>
<circle cx="215" cy="20" r="4" fill="#D55E00"/>
<text x="223" y="24" text-anchor="start" font-size="12" fill="#D55E00">run</text>
<circle cx="270" cy="20" r="4" fill="#009E73"/>
<text x="278" y="24" text-anchor="start" font-size="12" fill="#009E73">wall</text>
<circle cx="335" cy="20" r="4" fill="#56B4E9"/>
<text x="343" y="24" text-anchor="start" font-size="12" fill="#56B4E9">mem-inte</text>
<circle cx="425" cy="20" r="4" fill="#E69F00"/>
<text x="433" y="24" text-anchor="start" font-size="12" fill="#E69F00">mem-comp</text>
<circle cx="520" cy="20" r="4" fill="#C44E52"/>
<text x="528" y="24" text-anchor="start" font-size="12" fill="#C44E52">mem-run</text>
<circle cx="605" cy="20" r="4" fill="#000000"/>
<text x="613" y="24" text-anchor="start" font-size="12" fill="#000000">mem-total</text>
</svg>
