<svg width="800" height="400" xmlns="http://www.w3.org/2000/svg">
<rect width="800" height="400" fill="white"/>
<line x1="70" y1="40" x2="70" y2="340" stroke="#333" stroke-width="1"/>
<line x1="70" y1="340" x2="730" y2="340" stroke="#333" stroke-width="1"/>
<line x1="730" y1="40" x2="730" y2="340" stroke="#333" stroke-width="1"/>
<text x="65" y="344" text-anchor="end" font-size="11" fill="#333">0</text>
<text x="65" y="194" text-anchor="end" font-size="11" fill="#333">103500</text>
<text x="65" y="44" text-anchor="end" font-size="11" fill="#333">207000</text>
<text x="15" y="190" text-anchor="middle" font-size="12" fill="#333" transform="rotate(-90 15 190)">ms</text>
<text x="735" y="344" text-anchor="start" font-size="11" fill="#333">0</text>
<text x="735" y="194" text-anchor="start" font-size="11" fill="#333">10679500000</text>
<text x="735" y="44" text-anchor="start" font-size="11" fill="#333">21359000000</text>
<text x="785" y="190" text-anchor="middle" font-size="12" fill="#333" transform="rotate(90 785 190)">bytes</text>
<polyline points="70,139 143,155 216,153 290,153 363,156 436,155 510,155 583,154 656,154 730,154" fill="none" stroke="#0072B2" stroke-width="2"/>
<polyline points="70,41 143,53 216,48 290,55 363,57 436,56 510,59 583,58 656,55 730,51" fill="none" stroke="#CC79A7" stroke-width="2"/>
<polyline points="70,340 143,340 216,339 290,340 363,340 436,340 510,340 583,340 656,340 730,339" fill="none" stroke="#D55E00" stroke-width="2"/>
<polyline points="70,306 143,308 216,308 290,308 363,309 436,309 510,309 583,309 656,309 730,308" fill="none" stroke="#009E73" stroke-width="2"/>
<polyline points="70,204 143,221 216,229 290,228 363,229 436,229 510,228 583,231 656,230 730,224" fill="none" stroke="#984EA3" stroke-width="2"/>
<polyline points="70,297 143,297 216,296 290,296 363,296 436,296 510,296 583,296 656,296 730,296" fill="none" stroke="#56B4E9" stroke-width="2"/>
<polyline points="70,190 143,190 216,187 290,188 363,188 436,187 510,188 583,187 656,187 730,188" fill="none" stroke="#E69F00" stroke-width="2"/>
<polyline points="70,340 143,339 216,339 290,340 363,340 436,340 510,340 583,339 656,339 730,339" fill="none" stroke="#C44E52" stroke-width="2"/>
<polyline points="70,44 143,45 216,41 290,41 363,41 436,41 510,42 583,41 656,41 730,41" fill="none" stroke="#000000" stroke-width="2"/>
<polyline points="70,340 143,340 216,340 290,340 363,340 436,333 510,333 583,333 656,333 730,333" fill="none" stroke="#8C564B" stroke-width="2"/>
<circle cx="70" cy="139" r="3" fill="#0072B2"/>
<circle cx="70" cy="41" r="3" fill="#CC79A7"/>
<circle cx="70" cy="340" r="3" fill="#D55E00"/>
<circle cx="70" cy="306" r="3" fill="#009E73"/>
<circle cx="70" cy="204" r="3" fill="#984EA3"/>
<circle cx="70" cy="297" r="3" fill="#56B4E9"/>
<circle cx="70" cy="190" r="3" fill="#E69F00"/>
<circle cx="70" cy="340" r="3" fill="#C44E52"/>
<circle cx="70" cy="44" r="3" fill="#000000"/>
<circle cx="70" cy="340" r="3" fill="#8C564B"/>
<circle cx="143" cy="155" r="3" fill="#0072B2"/>
<circle cx="143" cy="53" r="3" fill="#CC79A7"/>
<circle cx="143" cy="340" r="3" fill="#D55E00"/>
<circle cx="143" cy="308" r="3" fill="#009E73"/>
<circle cx="143" cy="221" r="3" fill="#984EA3"/>
<circle cx="143" cy="297" r="3" fill="#56B4E9"/>
<circle cx="143" cy="190" r="3" fill="#E69F00"/>
<circle cx="143" cy="339" r="3" fill="#C44E52"/>
<circle cx="143" cy="45" r="3" fill="#000000"/>
<circle cx="143" cy="340" r="3" fill="#8C564B"/>
<circle cx="216" cy="153" r="3" fill="#0072B2"/>
<circle cx="216" cy="48" r="3" fill="#CC79A7"/>
<circle cx="216" cy="339" r="3" fill="#D55E00"/>
<circle cx="216" cy="308" r="3" fill="#009E73"/>
<circle cx="216" cy="229" r="3" fill="#984EA3"/>
<circle cx="216" cy="296" r="3" fill="#56B4E9"/>
<circle cx="216" cy="187" r="3" fill="#E69F00"/>
<circle cx="216" cy="339" r="3" fill="#C44E52"/>
<circle cx="216" cy="41" r="3" fill="#000000"/>
<circle cx="216" cy="340" r="3" fill="#8C564B"/>
<circle cx="290" cy="153" r="3" fill="#0072B2"/>
<circle cx="290" cy="55" r="3" fill="#CC79A7"/>
<circle cx="290" cy="340" r="3" fill="#D55E00"/>
<circle cx="290" cy="308" r="3" fill="#009E73"/>
<circle cx="290" cy="228" r="3" fill="#984EA3"/>
<circle cx="290" cy="296" r="3" fill="#56B4E9"/>
<circle cx="290" cy="188" r="3" fill="#E69F00"/>
<circle cx="290" cy="340" r="3" fill="#C44E52"/>
<circle cx="290" cy="41" r="3" fill="#000000"/>
<circle cx="290" cy="340" r="3" fill="#8C564B"/>
<circle cx="363" cy="156" r="3" fill="#0072B2"/>
<circle cx="363" cy="57" r="3" fill="#CC79A7"/>
<circle cx="363" cy="340" r="3" fill="#D55E00"/>
<circle cx="363" cy="309" r="3" fill="#009E73"/>
<circle cx="363" cy="229" r="3" fill="#984EA3"/>
<circle cx="363" cy="296" r="3" fill="#56B4E9"/>
<circle cx="363" cy="188" r="3" fill="#E69F00"/>
<circle cx="363" cy="340" r="3" fill="#C44E52"/>
<circle cx="363" cy="41" r="3" fill="#000000"/>
<circle cx="363" cy="340" r="3" fill="#8C564B"/>
<circle cx="436" cy="155" r="3" fill="#0072B2"/>
<circle cx="436" cy="56" r="3" fill="#CC79A7"/>
<circle cx="436" cy="340" r="3" fill="#D55E00"/>
<circle cx="436" cy="309" r="3" fill="#009E73"/>
<circle cx="436" cy="229" r="3" fill="#984EA3"/>
<circle cx="436" cy="296" r="3" fill="#56B4E9"/>
<circle cx="436" cy="187" r="3" fill="#E69F00"/>
<circle cx="436" cy="340" r="3" fill="#C44E52"/>
<circle cx="436" cy="41" r="3" fill="#000000"/>
<circle cx="436" cy="333" r="3" fill="#8C564B"/>
<circle cx="510" cy="155" r="3" fill="#0072B2"/>
<circle cx="510" cy="59" r="3" fill="#CC79A7"/>
<circle cx="510" cy="340" r="3" fill="#D55E00"/>
<circle cx="510" cy="309" r="3" fill="#009E73"/>
<circle cx="510" cy="228" r="3" fill="#984EA3"/>
<circle cx="510" cy="296" r="3" fill="#56B4E9"/>
<circle cx="510" cy="188" r="3" fill="#E69F00"/>
<circle cx="510" cy="340" r="3" fill="#C44E52"/>
<circle cx="510" cy="42" r="3" fill="#000000"/>
<circle cx="510" cy="333" r="3" fill="#8C564B"/>
<circle cx="583" cy="154" r="3" fill="#0072B2"/>
<circle cx="583" cy="58" r="3" fill="#CC79A7"/>
<circle cx="583" cy="340" r="3" fill="#D55E00"/>
<circle cx="583" cy="309" r="3" fill="#009E73"/>
<circle cx="583" cy="231" r="3" fill="#984EA3"/>
<circle cx="583" cy="296" r="3" fill="#56B4E9"/>
<circle cx="583" cy="187" r="3" fill="#E69F00"/>
<circle cx="583" cy="339" r="3" fill="#C44E52"/>
<circle cx="583" cy="41" r="3" fill="#000000"/>
<circle cx="583" cy="333" r="3" fill="#8C564B"/>
<circle cx="656" cy="154" r="3" fill="#0072B2"/>
<circle cx="656" cy="55" r="3" fill="#CC79A7"/>
<circle cx="656" cy="340" r="3" fill="#D55E00"/>
<circle cx="656" cy="309" r="3" fill="#009E73"/>
<circle cx="656" cy="230" r="3" fill="#984EA3"/>
<circle cx="656" cy="296" r="3" fill="#56B4E9"/>
<circle cx="656" cy="187" r="3" fill="#E69F00"/>
<circle cx="656" cy="339" r="3" fill="#C44E52"/>
<circle cx="656" cy="41" r="3" fill="#000000"/>
<circle cx="656" cy="333" r="3" fill="#8C564B"/>
<circle cx="730" cy="154" r="3" fill="#0072B2"/>
<circle cx="730" cy="51" r="3" fill="#CC79A7"/>
<circle cx="730" cy="339" r="3" fill="#D55E00"/>
<circle cx="730" cy="308" r="3" fill="#009E73"/>
<circle cx="730" cy="224" r="3" fill="#984EA3"/>
<circle cx="730" cy="296" r="3" fill="#56B4E9"/>
<circle cx="730" cy="188" r="3" fill="#E69F00"/>
<circle cx="730" cy="339" r="3" fill="#C44E52"/>
<circle cx="730" cy="41" r="3" fill="#000000"/>
<circle cx="730" cy="333" r="3" fill="#8C564B"/>
<circle cx="70" cy="20" r="4" fill="#0072B2"/>
<text x="78" y="24" text-anchor="start" font-size="12" fill="#0072B2">inte</text>
<circle cx="130" cy="20" r="4" fill="#CC79A7"/>
<text x="138" y="24" text-anchor="start" font-size="12" fill="#CC79A7">comp</text>
<circle cx="195" cy="20" r="4" fill="#D55E00"/>
<text x="203" y="24" text-anchor="start" font-size="12" fill="#D55E00">run</text>
<circle cx="250" cy="20" r="4" fill="#009E73"/>
<text x="258" y="24" text-anchor="start" font-size="12" fill="#009E73">wall</text>
<circle cx="315" cy="20" r="4" fill="#984EA3"/>
<text x="323" y="24" text-anchor="start" font-size="12" fill="#984EA3">self</text>
<circle cx="380" cy="20" r="4" fill="#56B4E9"/>
<text x="388" y="24" text-anchor="start" font-size="12" fill="#56B4E9">mem-inte</text>
<circle cx="470" cy="20" r="4" fill="#E69F00"/>
<text x="478" y="24" text-anchor="start" font-size="12" fill="#E69F00">mem-comp</text>
<circle cx="565" cy="20" r="4" fill="#C44E52"/>
<text x="573" y="24" text-anchor="start" font-size="12" fill="#C44E52">mem-run</text>
<circle cx="650" cy="20" r="4" fill="#000000"/>
<text x="658" y="24" text-anchor="start" font-size="12" fill="#000000">mem-total</text>
<circle cx="745" cy="20" r="4" fill="#8C564B"/>
<text x="753" y="24" text-anchor="start" font-size="12" fill="#8C564B">self-mem</text>
</svg>
