<svg width="800" height="400" xmlns="http://www.w3.org/2000/svg">
<rect width="800" height="400" fill="white"/>
<line x1="70" y1="40" x2="70" y2="340" stroke="#333" stroke-width="1"/>
<line x1="70" y1="340" x2="730" y2="340" stroke="#333" stroke-width="1"/>
<line x1="730" y1="40" x2="730" y2="340" stroke="#333" stroke-width="1"/>
<text x="65" y="344" text-anchor="end" font-size="11" fill="#333">0</text>
<text x="65" y="194" text-anchor="end" font-size="11" fill="#333">103500</text>
<text x="65" y="44" text-anchor="end" font-size="11" fill="#333">207000</text>
<text x="15" y="190" text-anchor="middle" font-size="12" fill="#333" transform="rotate(-90 15 190)">ms</text>
<text x="735" y="344" text-anchor="start" font-size="11" fill="#333">0</text>
<text x="735" y="194" text-anchor="start" font-size="11" fill="#333">11620000000</text>
<text x="735" y="44" text-anchor="start" font-size="11" fill="#333">23240000000</text>
<text x="785" y="190" text-anchor="middle" font-size="12" fill="#333" transform="rotate(90 785 190)">bytes</text>
<polyline points="70,147 143,150 216,145 290,145 363,144 436,147 510,136 583,134 656,135 730,135" fill="none" stroke="#0072B2" stroke-width="2"/>
<polyline points="70,55 143,57 216,47 290,50 363,49 436,50 510,46 583,44 656,45 730,41" fill="none" stroke="#CC79A7" stroke-width="2"/>
<polyline points="70,340 143,340 216,340 290,339 363,340 436,340 510,340 583,340 656,340 730,340" fill="none" stroke="#D55E00" stroke-width="2"/>
<polyline points="70,308 143,308 216,307 290,308 363,307 436,307 510,306 583,306 656,306 730,306" fill="none" stroke="#009E73" stroke-width="2"/>
<polyline points="70,213 143,210 216,202 290,201 363,200 436,207 510,179 583,182 656,181 730,174" fill="none" stroke="#984EA3" stroke-width="2"/>
<polyline points="70,288 143,288 216,288 290,288 363,288 436,288 510,288 583,288 656,288 730,288" fill="none" stroke="#56B4E9" stroke-width="2"/>
<polyline points="70,190 143,190 216,190 290,190 363,190 436,190 510,190 583,190 656,190 730,190" fill="none" stroke="#E69F00" stroke-width="2"/>
<polyline points="70,340 143,340 216,339 290,338 363,340 436,340 510,340 583,340 656,340 730,340" fill="none" stroke="#C44E52" stroke-width="2"/>
<polyline points="70,41 143,41 216,41 290,41 363,42 436,42 510,41 583,43 656,43 730,42" fill="none" stroke="#000000" stroke-width="2"/>
<polyline points="70,331 143,331 216,331 290,331 363,331 436,322 510,331 583,331 656,331 730,331" fill="none" stroke="#8C564B" stroke-width="2"/>
<circle cx="70" cy="147" r="3" fill="#0072B2"/>
<circle cx="70" cy="55" r="3" fill="#CC79A7"/>
<circle cx="70" cy="340" r="3" fill="#D55E00"/>
<circle cx="70" cy="308" r="3" fill="#009E73"/>
<circle cx="70" cy="213" r="3" fill="#984EA3"/>
<circle cx="70" cy="288" r="3" fill="#56B4E9"/>
<circle cx="70" cy="190" r="3" fill="#E69F00"/>
<circle cx="70" cy="340" r="3" fill="#C44E52"/>
<circle cx="70" cy="41" r="3" fill="#000000"/>
<circle cx="70" cy="331" r="3" fill="#8C564B"/>
<circle cx="143" cy="150" r="3" fill="#0072B2"/>
<circle cx="143" cy="57" r="3" fill="#CC79A7"/>
<circle cx="143" cy="340" r="3" fill="#D55E00"/>
<circle cx="143" cy="308" r="3" fill="#009E73"/>
<circle cx="143" cy="210" r="3" fill="#984EA3"/>
<circle cx="143" cy="288" r="3" fill="#56B4E9"/>
<circle cx="143" cy="190" r="3" fill="#E69F00"/>
<circle cx="143" cy="340" r="3" fill="#C44E52"/>
<circle cx="143" cy="41" r="3" fill="#000000"/>
<circle cx="143" cy="331" r="3" fill="#8C564B"/>
<circle cx="216" cy="145" r="3" fill="#0072B2"/>
<circle cx="216" cy="47" r="3" fill="#CC79A7"/>
<circle cx="216" cy="340" r="3" fill="#D55E00"/>
<circle cx="216" cy="307" r="3" fill="#009E73"/>
<circle cx="216" cy="202" r="3" fill="#984EA3"/>
<circle cx="216" cy="288" r="3" fill="#56B4E9"/>
<circle cx="216" cy="190" r="3" fill="#E69F00"/>
<circle cx="216" cy="339" r="3" fill="#C44E52"/>
<circle cx="216" cy="41" r="3" fill="#000000"/>
<circle cx="216" cy="331" r="3" fill="#8C564B"/>
<circle cx="290" cy="145" r="3" fill="#0072B2"/>
<circle cx="290" cy="50" r="3" fill="#CC79A7"/>
<circle cx="290" cy="339" r="3" fill="#D55E00"/>
<circle cx="290" cy="308" r="3" fill="#009E73"/>
<circle cx="290" cy="201" r="3" fill="#984EA3"/>
<circle cx="290" cy="288" r="3" fill="#56B4E9"/>
<circle cx="290" cy="190" r="3" fill="#E69F00"/>
<circle cx="290" cy="338" r="3" fill="#C44E52"/>
<circle cx="290" cy="41" r="3" fill="#000000"/>
<circle cx="290" cy="331" r="3" fill="#8C564B"/>
<circle cx="363" cy="144" r="3" fill="#0072B2"/>
<circle cx="363" cy="49" r="3" fill="#CC79A7"/>
<circle cx="363" cy="340" r="3" fill="#D55E00"/>
<circle cx="363" cy="307" r="3" fill="#009E73"/>
<circle cx="363" cy="200" r="3" fill="#984EA3"/>
<circle cx="363" cy="288" r="3" fill="#56B4E9"/>
<circle cx="363" cy="190" r="3" fill="#E69F00"/>
<circle cx="363" cy="340" r="3" fill="#C44E52"/>
<circle cx="363" cy="42" r="3" fill="#000000"/>
<circle cx="363" cy="331" r="3" fill="#8C564B"/>
<circle cx="436" cy="147" r="3" fill="#0072B2"/>
<circle cx="436" cy="50" r="3" fill="#CC79A7"/>
<circle cx="436" cy="340" r="3" fill="#D55E00"/>
<circle cx="436" cy="307" r="3" fill="#009E73"/>
<circle cx="436" cy="207" r="3" fill="#984EA3"/>
<circle cx="436" cy="288" r="3" fill="#56B4E9"/>
<circle cx="436" cy="190" r="3" fill="#E69F00"/>
<circle cx="436" cy="340" r="3" fill="#C44E52"/>
<circle cx="436" cy="42" r="3" fill="#000000"/>
<circle cx="436" cy="322" r="3" fill="#8C564B"/>
<circle cx="510" cy="136" r="3" fill="#0072B2"/>
<circle cx="510" cy="46" r="3" fill="#CC79A7"/>
<circle cx="510" cy="340" r="3" fill="#D55E00"/>
<circle cx="510" cy="306" r="3" fill="#009E73"/>
<circle cx="510" cy="179" r="3" fill="#984EA3"/>
<circle cx="510" cy="288" r="3" fill="#56B4E9"/>
<circle cx="510" cy="190" r="3" fill="#E69F00"/>
<circle cx="510" cy="340" r="3" fill="#C44E52"/>
<circle cx="510" cy="41" r="3" fill="#000000"/>
<circle cx="510" cy="331" r="3" fill="#8C564B"/>
<circle cx="583" cy="134" r="3" fill="#0072B2"/>
<circle cx="583" cy="44" r="3" fill="#CC79A7"/>
<circle cx="583" cy="340" r="3" fill="#D55E00"/>
<circle cx="583" cy="306" r="3" fill="#009E73"/>
<circle cx="583" cy="182" r="3" fill="#984EA3"/>
<circle cx="583" cy="288" r="3" fill="#56B4E9"/>
<circle cx="583" cy="190" r="3" fill="#E69F00"/>
<circle cx="583" cy="340" r="3" fill="#C44E52"/>
<circle cx="583" cy="43" r="3" fill="#000000"/>
<circle cx="583" cy="331" r="3" fill="#8C564B"/>
<circle cx="656" cy="135" r="3" fill="#0072B2"/>
<circle cx="656" cy="45" r="3" fill="#CC79A7"/>
<circle cx="656" cy="340" r="3" fill="#D55E00"/>
<circle cx="656" cy="306" r="3" fill="#009E73"/>
<circle cx="656" cy="181" r="3" fill="#984EA3"/>
<circle cx="656" cy="288" r="3" fill="#56B4E9"/>
<circle cx="656" cy="190" r="3" fill="#E69F00"/>
<circle cx="656" cy="340" r="3" fill="#C44E52"/>
<circle cx="656" cy="43" r="3" fill="#000000"/>
<circle cx="656" cy="331" r="3" fill="#8C564B"/>
<circle cx="730" cy="135" r="3" fill="#0072B2"/>
<circle cx="730" cy="41" r="3" fill="#CC79A7"/>
<circle cx="730" cy="340" r="3" fill="#D55E00"/>
<circle cx="730" cy="306" r="3" fill="#009E73"/>
<circle cx="730" cy="174" r="3" fill="#984EA3"/>
<circle cx="730" cy="288" r="3" fill="#56B4E9"/>
<circle cx="730" cy="190" r="3" fill="#E69F00"/>
<circle cx="730" cy="340" r="3" fill="#C44E52"/>
<circle cx="730" cy="42" r="3" fill="#000000"/>
<circle cx="730" cy="331" r="3" fill="#8C564B"/>
<circle cx="70" cy="20" r="4" fill="#0072B2"/>
<text x="78" y="24" text-anchor="start" font-size="12" fill="#0072B2">inte</text>
<circle cx="130" cy="20" r="4" fill="#CC79A7"/>
<text x="138" y="24" text-anchor="start" font-size="12" fill="#CC79A7">comp</text>
<circle cx="195" cy="20" r="4" fill="#D55E00"/>
<text x="203" y="24" text-anchor="start" font-size="12" fill="#D55E00">run</text>
<circle cx="250" cy="20" r="4" fill="#009E73"/>
<text x="258" y="24" text-anchor="start" font-size="12" fill="#009E73">wall</text>
<circle cx="315" cy="20" r="4" fill="#984EA3"/>
<text x="323" y="24" text-anchor="start" font-size="12" fill="#984EA3">self</text>
<circle cx="380" cy="20" r="4" fill="#56B4E9"/>
<text x="388" y="24" text-anchor="start" font-size="12" fill="#56B4E9">mem-inte</text>
<circle cx="470" cy="20" r="4" fill="#E69F00"/>
<text x="478" y="24" text-anchor="start" font-size="12" fill="#E69F00">mem-comp</text>
<circle cx="565" cy="20" r="4" fill="#C44E52"/>
<text x="573" y="24" text-anchor="start" font-size="12" fill="#C44E52">mem-run</text>
<circle cx="650" cy="20" r="4" fill="#000000"/>
<text x="658" y="24" text-anchor="start" font-size="12" fill="#000000">mem-total</text>
<circle cx="745" cy="20" r="4" fill="#8C564B"/>
<text x="753" y="24" text-anchor="start" font-size="12" fill="#8C564B">self-mem</text>
</svg>
