<svg width="800" height="400" xmlns="http://www.w3.org/2000/svg">
<rect width="800" height="400" fill="white"/>
<line x1="70" y1="40" x2="70" y2="340" stroke="#333" stroke-width="1"/>
<line x1="70" y1="340" x2="730" y2="340" stroke="#333" stroke-width="1"/>
<line x1="730" y1="40" x2="730" y2="340" stroke="#333" stroke-width="1"/>
<text x="65" y="344" text-anchor="end" font-size="11" fill="#333">0</text>
<text x="65" y="194" text-anchor="end" font-size="11" fill="#333">443500</text>
<text x="65" y="44" text-anchor="end" font-size="11" fill="#333">887000</text>
<text x="15" y="190" text-anchor="middle" font-size="12" fill="#333" transform="rotate(-90 15 190)">ms</text>
<text x="735" y="344" text-anchor="start" font-size="11" fill="#333">0</text>
<text x="735" y="194" text-anchor="start" font-size="11" fill="#333">5391500000</text>
<text x="735" y="44" text-anchor="start" font-size="11" fill="#333">10783000000</text>
<text x="785" y="190" text-anchor="middle" font-size="12" fill="#333" transform="rotate(90 785 190)">bytes</text>
<polyline points="70,200 143,210 216,182 290,121 363,135 436,72 510,133 583,150 656,113 730,125" fill="none" stroke="#0072B2" stroke-width="2"/>
<polyline points="70,186 143,199 216,172 290,98 363,95 436,41 510,117 583,104 656,126 730,112" fill="none" stroke="#CC79A7" stroke-width="2"/>
<polyline points="70,340 143,340 216,340 290,340 363,340 436,340 510,340 583,340 656,340 730,340" fill="none" stroke="#D55E00" stroke-width="2"/>
<polyline points="70,291 143,297 216,286 290,270 363,268 436,253 510,273 583,275 656,272 730,273" fill="none" stroke="#009E73" stroke-width="2"/>
<polyline points="70,276 143,276 216,276 290,264 363,264 436,264 510,269 583,268 656,268 730,268" fill="none" stroke="#56B4E9" stroke-width="2"/>
<polyline points="70,219 143,218 216,218 290,205 363,205 436,204 510,212 583,209 656,207 730,206" fill="none" stroke="#E69F00" stroke-width="2"/>
<polyline points="70,340 143,340 216,340 290,340 363,340 436,340 510,340 583,340 656,340 730,340" fill="none" stroke="#C44E52" stroke-width="2"/>
<polyline points="70,68 143,68 216,68 290,42 363,42 436,41 510,55 583,50 656,48 730,47" fill="none" stroke="#000000" stroke-width="2"/>
<circle cx="70" cy="200" r="3" fill="#0072B2"/>
<circle cx="70" cy="186" r="3" fill="#CC79A7"/>
<circle cx="70" cy="340" r="3" fill="#D55E00"/>
<circle cx="70" cy="291" r="3" fill="#009E73"/>
<circle cx="70" cy="276" r="3" fill="#56B4E9"/>
<circle cx="70" cy="219" r="3" fill="#E69F00"/>
<circle cx="70" cy="340" r="3" fill="#C44E52"/>
<circle cx="70" cy="68" r="3" fill="#000000"/>
<circle cx="143" cy="210" r="3" fill="#0072B2"/>
<circle cx="143" cy="199" r="3" fill="#CC79A7"/>
<circle cx="143" cy="340" r="3" fill="#D55E00"/>
<circle cx="143" cy="297" r="3" fill="#009E73"/>
<circle cx="143" cy="276" r="3" fill="#56B4E9"/>
<circle cx="143" cy="218" r="3" fill="#E69F00"/>
<circle cx="143" cy="340" r="3" fill="#C44E52"/>
<circle cx="143" cy="68" r="3" fill="#000000"/>
<circle cx="216" cy="182" r="3" fill="#0072B2"/>
<circle cx="216" cy="172" r="3" fill="#CC79A7"/>
<circle cx="216" cy="340" r="3" fill="#D55E00"/>
<circle cx="216" cy="286" r="3" fill="#009E73"/>
<circle cx="216" cy="276" r="3" fill="#56B4E9"/>
<circle cx="216" cy="218" r="3" fill="#E69F00"/>
<circle cx="216" cy="340" r="3" fill="#C44E52"/>
<circle cx="216" cy="68" r="3" fill="#000000"/>
<circle cx="290" cy="121" r="3" fill="#0072B2"/>
<circle cx="290" cy="98" r="3" fill="#CC79A7"/>
<circle cx="290" cy="340" r="3" fill="#D55E00"/>
<circle cx="290" cy="270" r="3" fill="#009E73"/>
<circle cx="290" cy="264" r="3" fill="#56B4E9"/>
<circle cx="290" cy="205" r="3" fill="#E69F00"/>
<circle cx="290" cy="340" r="3" fill="#C44E52"/>
<circle cx="290" cy="42" r="3" fill="#000000"/>
<circle cx="363" cy="135" r="3" fill="#0072B2"/>
<circle cx="363" cy="95" r="3" fill="#CC79A7"/>
<circle cx="363" cy="340" r="3" fill="#D55E00"/>
<circle cx="363" cy="268" r="3" fill="#009E73"/>
<circle cx="363" cy="264" r="3" fill="#56B4E9"/>
<circle cx="363" cy="205" r="3" fill="#E69F00"/>
<circle cx="363" cy="340" r="3" fill="#C44E52"/>
<circle cx="363" cy="42" r="3" fill="#000000"/>
<circle cx="436" cy="72" r="3" fill="#0072B2"/>
<circle cx="436" cy="41" r="3" fill="#CC79A7"/>
<circle cx="436" cy="340" r="3" fill="#D55E00"/>
<circle cx="436" cy="253" r="3" fill="#009E73"/>
<circle cx="436" cy="264" r="3" fill="#56B4E9"/>
<circle cx="436" cy="204" r="3" fill="#E69F00"/>
<circle cx="436" cy="340" r="3" fill="#C44E52"/>
<circle cx="436" cy="41" r="3" fill="#000000"/>
<circle cx="510" cy="133" r="3" fill="#0072B2"/>
<circle cx="510" cy="117" r="3" fill="#CC79A7"/>
<circle cx="510" cy="340" r="3" fill="#D55E00"/>
<circle cx="510" cy="273" r="3" fill="#009E73"/>
<circle cx="510" cy="269" r="3" fill="#56B4E9"/>
<circle cx="510" cy="212" r="3" fill="#E69F00"/>
<circle cx="510" cy="340" r="3" fill="#C44E52"/>
<circle cx="510" cy="55" r="3" fill="#000000"/>
<circle cx="583" cy="150" r="3" fill="#0072B2"/>
<circle cx="583" cy="104" r="3" fill="#CC79A7"/>
<circle cx="583" cy="340" r="3" fill="#D55E00"/>
<circle cx="583" cy="275" r="3" fill="#009E73"/>
<circle cx="583" cy="268" r="3" fill="#56B4E9"/>
<circle cx="583" cy="209" r="3" fill="#E69F00"/>
<circle cx="583" cy="340" r="3" fill="#C44E52"/>
<circle cx="583" cy="50" r="3" fill="#000000"/>
<circle cx="656" cy="113" r="3" fill="#0072B2"/>
<circle cx="656" cy="126" r="3" fill="#CC79A7"/>
<circle cx="656" cy="340" r="3" fill="#D55E00"/>
<circle cx="656" cy="272" r="3" fill="#009E73"/>
<circle cx="656" cy="268" r="3" fill="#56B4E9"/>
<circle cx="656" cy="207" r="3" fill="#E69F00"/>
<circle cx="656" cy="340" r="3" fill="#C44E52"/>
<circle cx="656" cy="48" r="3" fill="#000000"/>
<circle cx="730" cy="125" r="3" fill="#0072B2"/>
<circle cx="730" cy="112" r="3" fill="#CC79A7"/>
<circle cx="730" cy="340" r="3" fill="#D55E00"/>
<circle cx="730" cy="273" r="3" fill="#009E73"/>
<circle cx="730" cy="268" r="3" fill="#56B4E9"/>
<circle cx="730" cy="206" r="3" fill="#E69F00"/>
<circle cx="730" cy="340" r="3" fill="#C44E52"/>
<circle cx="730" cy="47" r="3" fill="#000000"/>
<circle cx="90" cy="20" r="4" fill="#0072B2"/>
<text x="98" y="24" text-anchor="start" font-size="12" fill="#0072B2">inte</text>
<circle cx="150" cy="20" r="4" fill="#CC79A7"/>
<text x="158" y="24" text-anchor="start" font-size="12" fill="#CC79A7">comp</text>
<circle cx="215" cy="20" r="4" fill="#D55E00"/>
<text x="223" y="24" text-anchor="start" font-size="12" fill="#D55E00">run</text>
<circle cx="270" cy="20" r="4" fill="#009E73"/>
<text x="278" y="24" text-anchor="start" font-size="12" fill="#009E73">wall</text>
<circle cx="335" cy="20" r="4" fill="#56B4E9"/>
<text x="343" y="24" text-anchor="start" font-size="12" fill="#56B4E9">mem-inte</text>
<circle cx="425" cy="20" r="4" fill="#E69F00"/>
<text x="433" y="24" text-anchor="start" font-size="12" fill="#E69F00">mem-comp</text>
<circle cx="520" cy="20" r="4" fill="#C44E52"/>
<text x="528" y="24" text-anchor="start" font-size="12" fill="#C44E52">mem-run</text>
<circle cx="605" cy="20" r="4" fill="#000000"/>
<text x="613" y="24" text-anchor="start" font-size="12" fill="#000000">mem-total</text>
</svg>
