<svg width="800" height="400" xmlns="http://www.w3.org/2000/svg">
<rect width="800" height="400" fill="white"/>
<line x1="70" y1="40" x2="70" y2="340" stroke="#333" stroke-width="1"/>
<line x1="70" y1="340" x2="780" y2="340" stroke="#333" stroke-width="1"/>
<text x="65" y="344" text-anchor="end" font-size="11" fill="#333">0</text>
<text x="65" y="194" text-anchor="end" font-size="11" fill="#333">33000</text>
<text x="65" y="44" text-anchor="end" font-size="11" fill="#333">66000</text>
<text x="15" y="190" text-anchor="middle" font-size="12" fill="#333" transform="rotate(-90 15 190)">ms</text>
<polyline points="70,54 148,49 227,44 306,48 385,45 464,47 543,43 622,47 701,42 780,41" fill="none" stroke="#0072B2" stroke-width="2"/>
<polyline points="70,236 148,230 227,230 306,231 385,230 464,231 543,230 622,231 701,227 780,229" fill="none" stroke="#D55E00" stroke-width="2"/>
<polyline points="70,72 148,65 227,65 306,65 385,63 464,65 543,62 622,64 701,58 780,59" fill="none" stroke="#CC79A7" stroke-width="2"/>
<polyline points="70,240 148,236 227,236 306,234 385,233 464,235 543,234 622,234 701,229 780,233" fill="none" stroke="#E69F00" stroke-width="2"/>
<polyline points="70,113 148,107 227,108 306,109 385,108 464,109 543,106 622,109 701,106 780,105" fill="none" stroke="#009E73" stroke-width="2"/>
<circle cx="70" cy="54" r="3" fill="#0072B2"/>
<circle cx="70" cy="236" r="3" fill="#D55E00"/>
<circle cx="70" cy="72" r="3" fill="#CC79A7"/>
<circle cx="70" cy="240" r="3" fill="#E69F00"/>
<circle cx="70" cy="113" r="3" fill="#009E73"/>
<circle cx="148" cy="49" r="3" fill="#0072B2"/>
<circle cx="148" cy="230" r="3" fill="#D55E00"/>
<circle cx="148" cy="65" r="3" fill="#CC79A7"/>
<circle cx="148" cy="236" r="3" fill="#E69F00"/>
<circle cx="148" cy="107" r="3" fill="#009E73"/>
<circle cx="227" cy="44" r="3" fill="#0072B2"/>
<circle cx="227" cy="230" r="3" fill="#D55E00"/>
<circle cx="227" cy="65" r="3" fill="#CC79A7"/>
<circle cx="227" cy="236" r="3" fill="#E69F00"/>
<circle cx="227" cy="108" r="3" fill="#009E73"/>
<circle cx="306" cy="48" r="3" fill="#0072B2"/>
<circle cx="306" cy="231" r="3" fill="#D55E00"/>
<circle cx="306" cy="65" r="3" fill="#CC79A7"/>
<circle cx="306" cy="234" r="3" fill="#E69F00"/>
<circle cx="306" cy="109" r="3" fill="#009E73"/>
<circle cx="385" cy="45" r="3" fill="#0072B2"/>
<circle cx="385" cy="230" r="3" fill="#D55E00"/>
<circle cx="385" cy="63" r="3" fill="#CC79A7"/>
<circle cx="385" cy="233" r="3" fill="#E69F00"/>
<circle cx="385" cy="108" r="3" fill="#009E73"/>
<circle cx="464" cy="47" r="3" fill="#0072B2"/>
<circle cx="464" cy="231" r="3" fill="#D55E00"/>
<circle cx="464" cy="65" r="3" fill="#CC79A7"/>
<circle cx="464" cy="235" r="3" fill="#E69F00"/>
<circle cx="464" cy="109" r="3" fill="#009E73"/>
<circle cx="543" cy="43" r="3" fill="#0072B2"/>
<circle cx="543" cy="230" r="3" fill="#D55E00"/>
<circle cx="543" cy="62" r="3" fill="#CC79A7"/>
<circle cx="543" cy="234" r="3" fill="#E69F00"/>
<circle cx="543" cy="106" r="3" fill="#009E73"/>
<circle cx="622" cy="47" r="3" fill="#0072B2"/>
<circle cx="622" cy="231" r="3" fill="#D55E00"/>
<circle cx="622" cy="64" r="3" fill="#CC79A7"/>
<circle cx="622" cy="234" r="3" fill="#E69F00"/>
<circle cx="622" cy="109" r="3" fill="#009E73"/>
<circle cx="701" cy="42" r="3" fill="#0072B2"/>
<circle cx="701" cy="227" r="3" fill="#D55E00"/>
<circle cx="701" cy="58" r="3" fill="#CC79A7"/>
<circle cx="701" cy="229" r="3" fill="#E69F00"/>
<circle cx="701" cy="106" r="3" fill="#009E73"/>
<circle cx="780" cy="41" r="3" fill="#0072B2"/>
<circle cx="780" cy="229" r="3" fill="#D55E00"/>
<circle cx="780" cy="59" r="3" fill="#CC79A7"/>
<circle cx="780" cy="233" r="3" fill="#E69F00"/>
<circle cx="780" cy="105" r="3" fill="#009E73"/>
<circle cx="90" cy="20" r="4" fill="#0072B2"/>
<text x="98" y="24" text-anchor="start" font-size="12" fill="#0072B2">ctil-i</text>
<circle cx="160" cy="20" r="4" fill="#D55E00"/>
<text x="168" y="24" text-anchor="start" font-size="12" fill="#D55E00">ctil-r</text>
<circle cx="230" cy="20" r="4" fill="#CC79A7"/>
<text x="238" y="24" text-anchor="start" font-size="12" fill="#CC79A7">til-i</text>
<circle cx="290" cy="20" r="4" fill="#E69F00"/>
<text x="298" y="24" text-anchor="start" font-size="12" fill="#E69F00">til-r</text>
<circle cx="350" cy="20" r="4" fill="#009E73"/>
<text x="358" y="24" text-anchor="start" font-size="12" fill="#009E73">Wall</text>
</svg>
