<svg width="800" height="400" xmlns="http://www.w3.org/2000/svg">
<rect width="800" height="400" fill="white"/>
<line x1="70" y1="40" x2="70" y2="340" stroke="#333" stroke-width="1"/>
<line x1="70" y1="340" x2="730" y2="340" stroke="#333" stroke-width="1"/>
<line x1="730" y1="40" x2="730" y2="340" stroke="#333" stroke-width="1"/>
<text x="65" y="344" text-anchor="end" font-size="11" fill="#333">0</text>
<text x="65" y="194" text-anchor="end" font-size="11" fill="#333">517000</text>
<text x="65" y="44" text-anchor="end" font-size="11" fill="#333">1034000</text>
<text x="15" y="190" text-anchor="middle" font-size="12" fill="#333" transform="rotate(-90 15 190)">ms</text>
<text x="735" y="344" text-anchor="start" font-size="11" fill="#333">0</text>
<text x="735" y="194" text-anchor="start" font-size="11" fill="#333">65536500000</text>
<text x="735" y="44" text-anchor="start" font-size="11" fill="#333">131073000000</text>
<text x="785" y="190" text-anchor="middle" font-size="12" fill="#333" transform="rotate(90 785 190)">bytes</text>
<polyline points="70,53 143,58 216,57 290,89 363,108 436,110 510,85 583,87 656,114 730,114" fill="none" stroke="#0072B2" stroke-width="2"/>
<polyline points="70,45 143,44 216,41 290,79 363,79 436,79 510,89 583,89 656,83 730,85" fill="none" stroke="#CC79A7" stroke-width="2"/>
<polyline points="70,340 143,340 216,340 290,340 363,340 436,340 510,340 583,340 656,340 730,340" fill="none" stroke="#D55E00" stroke-width="2"/>
<polyline points="70,302 143,303 216,302 290,307 363,308 436,308 510,303 583,303 656,308 730,309" fill="none" stroke="#009E73" stroke-width="2"/>
<polyline points="70,176 143,178 216,176 290,179 363,180 436,179 510,181 583,178 656,179 730,178" fill="none" stroke="#984EA3" stroke-width="2"/>
<polyline points="70,48 143,51 216,49 290,66 363,61 436,60 510,53 583,54 656,61 730,61" fill="none" stroke="#56B4E9" stroke-width="2"/>
<polyline points="70,41 143,42 216,42 290,58 363,53 436,53 510,53 583,56 656,55 730,57" fill="none" stroke="#E69F00" stroke-width="2"/>
<polyline points="70,340 143,340 216,339 290,340 363,340 436,340 510,340 583,340 656,340 730,340" fill="none" stroke="#C44E52" stroke-width="2"/>
<polyline points="70,295 143,295 216,296 290,296 363,296 436,296 510,295 583,295 656,295 730,295" fill="none" stroke="#8C564B" stroke-width="2"/>
<circle cx="70" cy="53" r="3" fill="#0072B2"/>
<circle cx="70" cy="45" r="3" fill="#CC79A7"/>
<circle cx="70" cy="340" r="3" fill="#D55E00"/>
<circle cx="70" cy="302" r="3" fill="#009E73"/>
<circle cx="70" cy="176" r="3" fill="#984EA3"/>
<circle cx="70" cy="48" r="3" fill="#56B4E9"/>
<circle cx="70" cy="41" r="3" fill="#E69F00"/>
<circle cx="70" cy="340" r="3" fill="#C44E52"/>
<circle cx="70" cy="295" r="3" fill="#8C564B"/>
<circle cx="143" cy="58" r="3" fill="#0072B2"/>
<circle cx="143" cy="44" r="3" fill="#CC79A7"/>
<circle cx="143" cy="340" r="3" fill="#D55E00"/>
<circle cx="143" cy="303" r="3" fill="#009E73"/>
<circle cx="143" cy="178" r="3" fill="#984EA3"/>
<circle cx="143" cy="51" r="3" fill="#56B4E9"/>
<circle cx="143" cy="42" r="3" fill="#E69F00"/>
<circle cx="143" cy="340" r="3" fill="#C44E52"/>
<circle cx="143" cy="295" r="3" fill="#8C564B"/>
<circle cx="216" cy="57" r="3" fill="#0072B2"/>
<circle cx="216" cy="41" r="3" fill="#CC79A7"/>
<circle cx="216" cy="340" r="3" fill="#D55E00"/>
<circle cx="216" cy="302" r="3" fill="#009E73"/>
<circle cx="216" cy="176" r="3" fill="#984EA3"/>
<circle cx="216" cy="49" r="3" fill="#56B4E9"/>
<circle cx="216" cy="42" r="3" fill="#E69F00"/>
<circle cx="216" cy="339" r="3" fill="#C44E52"/>
<circle cx="216" cy="296" r="3" fill="#8C564B"/>
<circle cx="290" cy="89" r="3" fill="#0072B2"/>
<circle cx="290" cy="79" r="3" fill="#CC79A7"/>
<circle cx="290" cy="340" r="3" fill="#D55E00"/>
<circle cx="290" cy="307" r="3" fill="#009E73"/>
<circle cx="290" cy="179" r="3" fill="#984EA3"/>
<circle cx="290" cy="66" r="3" fill="#56B4E9"/>
<circle cx="290" cy="58" r="3" fill="#E69F00"/>
<circle cx="290" cy="340" r="3" fill="#C44E52"/>
<circle cx="290" cy="296" r="3" fill="#8C564B"/>
<circle cx="363" cy="108" r="3" fill="#0072B2"/>
<circle cx="363" cy="79" r="3" fill="#CC79A7"/>
<circle cx="363" cy="340" r="3" fill="#D55E00"/>
<circle cx="363" cy="308" r="3" fill="#009E73"/>
<circle cx="363" cy="180" r="3" fill="#984EA3"/>
<circle cx="363" cy="61" r="3" fill="#56B4E9"/>
<circle cx="363" cy="53" r="3" fill="#E69F00"/>
<circle cx="363" cy="340" r="3" fill="#C44E52"/>
<circle cx="363" cy="296" r="3" fill="#8C564B"/>
<circle cx="436" cy="110" r="3" fill="#0072B2"/>
<circle cx="436" cy="79" r="3" fill="#CC79A7"/>
<circle cx="436" cy="340" r="3" fill="#D55E00"/>
<circle cx="436" cy="308" r="3" fill="#009E73"/>
<circle cx="436" cy="179" r="3" fill="#984EA3"/>
<circle cx="436" cy="60" r="3" fill="#56B4E9"/>
<circle cx="436" cy="53" r="3" fill="#E69F00"/>
<circle cx="436" cy="340" r="3" fill="#C44E52"/>
<circle cx="436" cy="296" r="3" fill="#8C564B"/>
<circle cx="510" cy="85" r="3" fill="#0072B2"/>
<circle cx="510" cy="89" r="3" fill="#CC79A7"/>
<circle cx="510" cy="340" r="3" fill="#D55E00"/>
<circle cx="510" cy="303" r="3" fill="#009E73"/>
<circle cx="510" cy="181" r="3" fill="#984EA3"/>
<circle cx="510" cy="53" r="3" fill="#56B4E9"/>
<circle cx="510" cy="53" r="3" fill="#E69F00"/>
<circle cx="510" cy="340" r="3" fill="#C44E52"/>
<circle cx="510" cy="295" r="3" fill="#8C564B"/>
<circle cx="583" cy="87" r="3" fill="#0072B2"/>
<circle cx="583" cy="89" r="3" fill="#CC79A7"/>
<circle cx="583" cy="340" r="3" fill="#D55E00"/>
<circle cx="583" cy="303" r="3" fill="#009E73"/>
<circle cx="583" cy="178" r="3" fill="#984EA3"/>
<circle cx="583" cy="54" r="3" fill="#56B4E9"/>
<circle cx="583" cy="56" r="3" fill="#E69F00"/>
<circle cx="583" cy="340" r="3" fill="#C44E52"/>
<circle cx="583" cy="295" r="3" fill="#8C564B"/>
<circle cx="656" cy="114" r="3" fill="#0072B2"/>
<circle cx="656" cy="83" r="3" fill="#CC79A7"/>
<circle cx="656" cy="340" r="3" fill="#D55E00"/>
<circle cx="656" cy="308" r="3" fill="#009E73"/>
<circle cx="656" cy="179" r="3" fill="#984EA3"/>
<circle cx="656" cy="61" r="3" fill="#56B4E9"/>
<circle cx="656" cy="55" r="3" fill="#E69F00"/>
<circle cx="656" cy="340" r="3" fill="#C44E52"/>
<circle cx="656" cy="295" r="3" fill="#8C564B"/>
<circle cx="730" cy="114" r="3" fill="#0072B2"/>
<circle cx="730" cy="85" r="3" fill="#CC79A7"/>
<circle cx="730" cy="340" r="3" fill="#D55E00"/>
<circle cx="730" cy="309" r="3" fill="#009E73"/>
<circle cx="730" cy="178" r="3" fill="#984EA3"/>
<circle cx="730" cy="61" r="3" fill="#56B4E9"/>
<circle cx="730" cy="57" r="3" fill="#E69F00"/>
<circle cx="730" cy="340" r="3" fill="#C44E52"/>
<circle cx="730" cy="295" r="3" fill="#8C564B"/>
<circle cx="70" cy="20" r="4" fill="#0072B2"/>
<text x="78" y="24" text-anchor="start" font-size="12" fill="#0072B2">inte</text>
<circle cx="130" cy="20" r="4" fill="#CC79A7"/>
<text x="138" y="24" text-anchor="start" font-size="12" fill="#CC79A7">comp</text>
<circle cx="195" cy="20" r="4" fill="#D55E00"/>
<text x="203" y="24" text-anchor="start" font-size="12" fill="#D55E00">run</text>
<circle cx="250" cy="20" r="4" fill="#009E73"/>
<text x="258" y="24" text-anchor="start" font-size="12" fill="#009E73">wall</text>
<circle cx="315" cy="20" r="4" fill="#984EA3"/>
<text x="323" y="24" text-anchor="start" font-size="12" fill="#984EA3">self</text>
<circle cx="380" cy="20" r="4" fill="#56B4E9"/>
<text x="388" y="24" text-anchor="start" font-size="12" fill="#56B4E9">mem-inte</text>
<circle cx="470" cy="20" r="4" fill="#E69F00"/>
<text x="478" y="24" text-anchor="start" font-size="12" fill="#E69F00">mem-comp</text>
<circle cx="565" cy="20" r="4" fill="#C44E52"/>
<text x="573" y="24" text-anchor="start" font-size="12" fill="#C44E52">mem-run</text>
<circle cx="650" cy="20" r="4" fill="#8C564B"/>
<text x="658" y="24" text-anchor="start" font-size="12" fill="#8C564B">self-mem</text>
</svg>
