<svg width="800" height="400" xmlns="http://www.w3.org/2000/svg">
<rect width="800" height="400" fill="white"/>
<line x1="70" y1="40" x2="70" y2="340" stroke="#333" stroke-width="1"/>
<line x1="70" y1="340" x2="730" y2="340" stroke="#333" stroke-width="1"/>
<line x1="730" y1="40" x2="730" y2="340" stroke="#333" stroke-width="1"/>
<text x="65" y="344" text-anchor="end" font-size="11" fill="#333">0</text>
<text x="65" y="194" text-anchor="end" font-size="11" fill="#333">612500</text>
<text x="65" y="44" text-anchor="end" font-size="11" fill="#333">1225000</text>
<text x="15" y="190" text-anchor="middle" font-size="12" fill="#333" transform="rotate(-90 15 190)">ms</text>
<text x="735" y="344" text-anchor="start" font-size="11" fill="#333">0</text>
<text x="735" y="194" text-anchor="start" font-size="11" fill="#333">68961500000</text>
<text x="735" y="44" text-anchor="start" font-size="11" fill="#333">137923000000</text>
<text x="785" y="190" text-anchor="middle" font-size="12" fill="#333" transform="rotate(90 785 190)">bytes</text>
<polyline points="70,73 143,69 216,77 290,73 363,46 436,53 510,45 583,43 656,44 730,43" fill="none" stroke="#0072B2" stroke-width="2"/>
<polyline points="70,71 143,73 216,73 290,69 363,55 436,48 510,41 583,45 656,43 730,45" fill="none" stroke="#CC79A7" stroke-width="2"/>
<polyline points="70,340 143,340 216,340 290,340 363,340 436,340 510,340 583,340 656,340 730,340" fill="none" stroke="#D55E00" stroke-width="2"/>
<polyline points="70,305 143,305 216,305 290,305 363,303 436,302 510,301 583,301 656,301 730,302" fill="none" stroke="#009E73" stroke-width="2"/>
<polyline points="70,122 143,123 216,121 290,121 363,116 436,117 510,112 583,112 656,112 730,113" fill="none" stroke="#984EA3" stroke-width="2"/>
<polyline points="70,59 143,59 216,58 290,58 363,50 436,43 510,44 583,41 656,41 730,42" fill="none" stroke="#56B4E9" stroke-width="2"/>
<polyline points="70,59 143,58 216,59 290,58 363,49 436,45 510,44 583,42 656,42 730,43" fill="none" stroke="#E69F00" stroke-width="2"/>
<polyline points="70,339 143,339 216,340 290,339 363,340 436,340 510,339 583,339 656,339 730,340" fill="none" stroke="#C44E52" stroke-width="2"/>
<polyline points="70,298 143,298 216,298 290,299 363,298 436,298 510,298 583,299 656,298 730,299" fill="none" stroke="#8C564B" stroke-width="2"/>
<circle cx="70" cy="73" r="3" fill="#0072B2"/>
<circle cx="70" cy="71" r="3" fill="#CC79A7"/>
<circle cx="70" cy="340" r="3" fill="#D55E00"/>
<circle cx="70" cy="305" r="3" fill="#009E73"/>
<circle cx="70" cy="122" r="3" fill="#984EA3"/>
<circle cx="70" cy="59" r="3" fill="#56B4E9"/>
<circle cx="70" cy="59" r="3" fill="#E69F00"/>
<circle cx="70" cy="339" r="3" fill="#C44E52"/>
<circle cx="70" cy="298" r="3" fill="#8C564B"/>
<circle cx="143" cy="69" r="3" fill="#0072B2"/>
<circle cx="143" cy="73" r="3" fill="#CC79A7"/>
<circle cx="143" cy="340" r="3" fill="#D55E00"/>
<circle cx="143" cy="305" r="3" fill="#009E73"/>
<circle cx="143" cy="123" r="3" fill="#984EA3"/>
<circle cx="143" cy="59" r="3" fill="#56B4E9"/>
<circle cx="143" cy="58" r="3" fill="#E69F00"/>
<circle cx="143" cy="339" r="3" fill="#C44E52"/>
<circle cx="143" cy="298" r="3" fill="#8C564B"/>
<circle cx="216" cy="77" r="3" fill="#0072B2"/>
<circle cx="216" cy="73" r="3" fill="#CC79A7"/>
<circle cx="216" cy="340" r="3" fill="#D55E00"/>
<circle cx="216" cy="305" r="3" fill="#009E73"/>
<circle cx="216" cy="121" r="3" fill="#984EA3"/>
<circle cx="216" cy="58" r="3" fill="#56B4E9"/>
<circle cx="216" cy="59" r="3" fill="#E69F00"/>
<circle cx="216" cy="340" r="3" fill="#C44E52"/>
<circle cx="216" cy="298" r="3" fill="#8C564B"/>
<circle cx="290" cy="73" r="3" fill="#0072B2"/>
<circle cx="290" cy="69" r="3" fill="#CC79A7"/>
<circle cx="290" cy="340" r="3" fill="#D55E00"/>
<circle cx="290" cy="305" r="3" fill="#009E73"/>
<circle cx="290" cy="121" r="3" fill="#984EA3"/>
<circle cx="290" cy="58" r="3" fill="#56B4E9"/>
<circle cx="290" cy="58" r="3" fill="#E69F00"/>
<circle cx="290" cy="339" r="3" fill="#C44E52"/>
<circle cx="290" cy="299" r="3" fill="#8C564B"/>
<circle cx="363" cy="46" r="3" fill="#0072B2"/>
<circle cx="363" cy="55" r="3" fill="#CC79A7"/>
<circle cx="363" cy="340" r="3" fill="#D55E00"/>
<circle cx="363" cy="303" r="3" fill="#009E73"/>
<circle cx="363" cy="116" r="3" fill="#984EA3"/>
<circle cx="363" cy="50" r="3" fill="#56B4E9"/>
<circle cx="363" cy="49" r="3" fill="#E69F00"/>
<circle cx="363" cy="340" r="3" fill="#C44E52"/>
<circle cx="363" cy="298" r="3" fill="#8C564B"/>
<circle cx="436" cy="53" r="3" fill="#0072B2"/>
<circle cx="436" cy="48" r="3" fill="#CC79A7"/>
<circle cx="436" cy="340" r="3" fill="#D55E00"/>
<circle cx="436" cy="302" r="3" fill="#009E73"/>
<circle cx="436" cy="117" r="3" fill="#984EA3"/>
<circle cx="436" cy="43" r="3" fill="#56B4E9"/>
<circle cx="436" cy="45" r="3" fill="#E69F00"/>
<circle cx="436" cy="340" r="3" fill="#C44E52"/>
<circle cx="436" cy="298" r="3" fill="#8C564B"/>
<circle cx="510" cy="45" r="3" fill="#0072B2"/>
<circle cx="510" cy="41" r="3" fill="#CC79A7"/>
<circle cx="510" cy="340" r="3" fill="#D55E00"/>
<circle cx="510" cy="301" r="3" fill="#009E73"/>
<circle cx="510" cy="112" r="3" fill="#984EA3"/>
<circle cx="510" cy="44" r="3" fill="#56B4E9"/>
<circle cx="510" cy="44" r="3" fill="#E69F00"/>
<circle cx="510" cy="339" r="3" fill="#C44E52"/>
<circle cx="510" cy="298" r="3" fill="#8C564B"/>
<circle cx="583" cy="43" r="3" fill="#0072B2"/>
<circle cx="583" cy="45" r="3" fill="#CC79A7"/>
<circle cx="583" cy="340" r="3" fill="#D55E00"/>
<circle cx="583" cy="301" r="3" fill="#009E73"/>
<circle cx="583" cy="112" r="3" fill="#984EA3"/>
<circle cx="583" cy="41" r="3" fill="#56B4E9"/>
<circle cx="583" cy="42" r="3" fill="#E69F00"/>
<circle cx="583" cy="339" r="3" fill="#C44E52"/>
<circle cx="583" cy="299" r="3" fill="#8C564B"/>
<circle cx="656" cy="44" r="3" fill="#0072B2"/>
<circle cx="656" cy="43" r="3" fill="#CC79A7"/>
<circle cx="656" cy="340" r="3" fill="#D55E00"/>
<circle cx="656" cy="301" r="3" fill="#009E73"/>
<circle cx="656" cy="112" r="3" fill="#984EA3"/>
<circle cx="656" cy="41" r="3" fill="#56B4E9"/>
<circle cx="656" cy="42" r="3" fill="#E69F00"/>
<circle cx="656" cy="339" r="3" fill="#C44E52"/>
<circle cx="656" cy="298" r="3" fill="#8C564B"/>
<circle cx="730" cy="43" r="3" fill="#0072B2"/>
<circle cx="730" cy="45" r="3" fill="#CC79A7"/>
<circle cx="730" cy="340" r="3" fill="#D55E00"/>
<circle cx="730" cy="302" r="3" fill="#009E73"/>
<circle cx="730" cy="113" r="3" fill="#984EA3"/>
<circle cx="730" cy="42" r="3" fill="#56B4E9"/>
<circle cx="730" cy="43" r="3" fill="#E69F00"/>
<circle cx="730" cy="340" r="3" fill="#C44E52"/>
<circle cx="730" cy="299" r="3" fill="#8C564B"/>
<circle cx="70" cy="20" r="4" fill="#0072B2"/>
<text x="78" y="24" text-anchor="start" font-size="12" fill="#0072B2">inte</text>
<circle cx="130" cy="20" r="4" fill="#CC79A7"/>
<text x="138" y="24" text-anchor="start" font-size="12" fill="#CC79A7">comp</text>
<circle cx="195" cy="20" r="4" fill="#D55E00"/>
<text x="203" y="24" text-anchor="start" font-size="12" fill="#D55E00">run</text>
<circle cx="250" cy="20" r="4" fill="#009E73"/>
<text x="258" y="24" text-anchor="start" font-size="12" fill="#009E73">wall</text>
<circle cx="315" cy="20" r="4" fill="#984EA3"/>
<text x="323" y="24" text-anchor="start" font-size="12" fill="#984EA3">self</text>
<circle cx="380" cy="20" r="4" fill="#56B4E9"/>
<text x="388" y="24" text-anchor="start" font-size="12" fill="#56B4E9">mem-inte</text>
<circle cx="470" cy="20" r="4" fill="#E69F00"/>
<text x="478" y="24" text-anchor="start" font-size="12" fill="#E69F00">mem-comp</text>
<circle cx="565" cy="20" r="4" fill="#C44E52"/>
<text x="573" y="24" text-anchor="start" font-size="12" fill="#C44E52">mem-run</text>
<circle cx="650" cy="20" r="4" fill="#8C564B"/>
<text x="658" y="24" text-anchor="start" font-size="12" fill="#8C564B">self-mem</text>
</svg>
