<svg width="800" height="400" xmlns="http://www.w3.org/2000/svg">
<rect width="800" height="400" fill="white"/>
<line x1="70" y1="40" x2="70" y2="340" stroke="#333" stroke-width="1"/>
<line x1="70" y1="340" x2="780" y2="340" stroke="#333" stroke-width="1"/>
<text x="65" y="344" text-anchor="end" font-size="11" fill="#333">0</text>
<text x="65" y="194" text-anchor="end" font-size="11" fill="#333">62000</text>
<text x="65" y="44" text-anchor="end" font-size="11" fill="#333">124000</text>
<text x="15" y="190" text-anchor="middle" font-size="12" fill="#333" transform="rotate(-90 15 190)">ms</text>
<polyline points="70,178 148,179 227,177 306,167 385,167 464,149 543,50 622,46 701,41 780,47" fill="none" stroke="#0072B2" stroke-width="2"/>
<polyline points="70,279 148,279 227,278 306,275 385,274 464,270 543,247 622,246 701,245 780,246" fill="none" stroke="#D55E00" stroke-width="2"/>
<polyline points="70,187 148,187 227,188 306,179 385,181 464,165 543,68 622,69 701,68 780,67" fill="none" stroke="#CC79A7" stroke-width="2"/>
<polyline points="70,281 148,282 227,280 306,278 385,278 464,274 543,252 622,250 701,250 780,250" fill="none" stroke="#E69F00" stroke-width="2"/>
<polyline points="70,214 148,214 227,216 306,208 385,210 464,204 543,125 622,123 701,120 780,124" fill="none" stroke="#009E73" stroke-width="2"/>
<circle cx="70" cy="178" r="3" fill="#0072B2"/>
<circle cx="70" cy="279" r="3" fill="#D55E00"/>
<circle cx="70" cy="187" r="3" fill="#CC79A7"/>
<circle cx="70" cy="281" r="3" fill="#E69F00"/>
<circle cx="70" cy="214" r="3" fill="#009E73"/>
<circle cx="148" cy="179" r="3" fill="#0072B2"/>
<circle cx="148" cy="279" r="3" fill="#D55E00"/>
<circle cx="148" cy="187" r="3" fill="#CC79A7"/>
<circle cx="148" cy="282" r="3" fill="#E69F00"/>
<circle cx="148" cy="214" r="3" fill="#009E73"/>
<circle cx="227" cy="177" r="3" fill="#0072B2"/>
<circle cx="227" cy="278" r="3" fill="#D55E00"/>
<circle cx="227" cy="188" r="3" fill="#CC79A7"/>
<circle cx="227" cy="280" r="3" fill="#E69F00"/>
<circle cx="227" cy="216" r="3" fill="#009E73"/>
<circle cx="306" cy="167" r="3" fill="#0072B2"/>
<circle cx="306" cy="275" r="3" fill="#D55E00"/>
<circle cx="306" cy="179" r="3" fill="#CC79A7"/>
<circle cx="306" cy="278" r="3" fill="#E69F00"/>
<circle cx="306" cy="208" r="3" fill="#009E73"/>
<circle cx="385" cy="167" r="3" fill="#0072B2"/>
<circle cx="385" cy="274" r="3" fill="#D55E00"/>
<circle cx="385" cy="181" r="3" fill="#CC79A7"/>
<circle cx="385" cy="278" r="3" fill="#E69F00"/>
<circle cx="385" cy="210" r="3" fill="#009E73"/>
<circle cx="464" cy="149" r="3" fill="#0072B2"/>
<circle cx="464" cy="270" r="3" fill="#D55E00"/>
<circle cx="464" cy="165" r="3" fill="#CC79A7"/>
<circle cx="464" cy="274" r="3" fill="#E69F00"/>
<circle cx="464" cy="204" r="3" fill="#009E73"/>
<circle cx="543" cy="50" r="3" fill="#0072B2"/>
<circle cx="543" cy="247" r="3" fill="#D55E00"/>
<circle cx="543" cy="68" r="3" fill="#CC79A7"/>
<circle cx="543" cy="252" r="3" fill="#E69F00"/>
<circle cx="543" cy="125" r="3" fill="#009E73"/>
<circle cx="622" cy="46" r="3" fill="#0072B2"/>
<circle cx="622" cy="246" r="3" fill="#D55E00"/>
<circle cx="622" cy="69" r="3" fill="#CC79A7"/>
<circle cx="622" cy="250" r="3" fill="#E69F00"/>
<circle cx="622" cy="123" r="3" fill="#009E73"/>
<circle cx="701" cy="41" r="3" fill="#0072B2"/>
<circle cx="701" cy="245" r="3" fill="#D55E00"/>
<circle cx="701" cy="68" r="3" fill="#CC79A7"/>
<circle cx="701" cy="250" r="3" fill="#E69F00"/>
<circle cx="701" cy="120" r="3" fill="#009E73"/>
<circle cx="780" cy="47" r="3" fill="#0072B2"/>
<circle cx="780" cy="246" r="3" fill="#D55E00"/>
<circle cx="780" cy="67" r="3" fill="#CC79A7"/>
<circle cx="780" cy="250" r="3" fill="#E69F00"/>
<circle cx="780" cy="124" r="3" fill="#009E73"/>
<circle cx="90" cy="20" r="4" fill="#0072B2"/>
<text x="98" y="24" text-anchor="start" font-size="12" fill="#0072B2">ctil-i</text>
<circle cx="160" cy="20" r="4" fill="#D55E00"/>
<text x="168" y="24" text-anchor="start" font-size="12" fill="#D55E00">ctil-r</text>
<circle cx="230" cy="20" r="4" fill="#CC79A7"/>
<text x="238" y="24" text-anchor="start" font-size="12" fill="#CC79A7">til-i</text>
<circle cx="290" cy="20" r="4" fill="#E69F00"/>
<text x="298" y="24" text-anchor="start" font-size="12" fill="#E69F00">til-r</text>
<circle cx="350" cy="20" r="4" fill="#009E73"/>
<text x="358" y="24" text-anchor="start" font-size="12" fill="#009E73">Wall</text>
</svg>
