<svg width="800" height="400" xmlns="http://www.w3.org/2000/svg">
<rect width="800" height="400" fill="white"/>
<line x1="70" y1="40" x2="70" y2="340" stroke="#333" stroke-width="1"/>
<line x1="70" y1="340" x2="730" y2="340" stroke="#333" stroke-width="1"/>
<line x1="730" y1="40" x2="730" y2="340" stroke="#333" stroke-width="1"/>
<text x="65" y="344" text-anchor="end" font-size="11" fill="#333">0</text>
<text x="65" y="194" text-anchor="end" font-size="11" fill="#333">328500</text>
<text x="65" y="44" text-anchor="end" font-size="11" fill="#333">657000</text>
<text x="15" y="190" text-anchor="middle" font-size="12" fill="#333" transform="rotate(-90 15 190)">ms</text>
<text x="735" y="344" text-anchor="start" font-size="11" fill="#333">0</text>
<text x="735" y="194" text-anchor="start" font-size="11" fill="#333">5164000000</text>
<text x="735" y="44" text-anchor="start" font-size="11" fill="#333">10328000000</text>
<text x="785" y="190" text-anchor="middle" font-size="12" fill="#333" transform="rotate(90 785 190)">bytes</text>
<polyline points="70,89 143,87 216,74 290,117 363,114 436,75 510,105 583,116 656,123 730,123" fill="none" stroke="#0072B2" stroke-width="2"/>
<polyline points="70,41 143,80 216,48 290,95 363,81 436,44 510,87 583,101 656,114 730,105" fill="none" stroke="#CC79A7" stroke-width="2"/>
<polyline points="70,340 143,340 216,340 290,340 363,340 436,340 510,340 583,340 656,340 730,340" fill="none" stroke="#D55E00" stroke-width="2"/>
<polyline points="70,256 143,258 216,252 290,266 363,265 436,252 510,263 583,269 656,268 730,268" fill="none" stroke="#009E73" stroke-width="2"/>
<polyline points="70,268 143,268 216,268 290,268 363,268 436,268 510,272 583,273 656,273 730,273" fill="none" stroke="#56B4E9" stroke-width="2"/>
<polyline points="70,203 143,203 216,203 290,203 363,203 436,203 510,207 583,209 656,209 730,209" fill="none" stroke="#E69F00" stroke-width="2"/>
<polyline points="70,340 143,340 216,340 290,340 363,340 436,340 510,340 583,340 656,340 730,340" fill="none" stroke="#C44E52" stroke-width="2"/>
<polyline points="70,42 143,41 216,41 290,42 363,41 436,42 510,49 583,53 656,53 730,53" fill="none" stroke="#000000" stroke-width="2"/>
<circle cx="70" cy="89" r="3" fill="#0072B2"/>
<circle cx="70" cy="41" r="3" fill="#CC79A7"/>
<circle cx="70" cy="340" r="3" fill="#D55E00"/>
<circle cx="70" cy="256" r="3" fill="#009E73"/>
<circle cx="70" cy="268" r="3" fill="#56B4E9"/>
<circle cx="70" cy="203" r="3" fill="#E69F00"/>
<circle cx="70" cy="340" r="3" fill="#C44E52"/>
<circle cx="70" cy="42" r="3" fill="#000000"/>
<circle cx="143" cy="87" r="3" fill="#0072B2"/>
<circle cx="143" cy="80" r="3" fill="#CC79A7"/>
<circle cx="143" cy="340" r="3" fill="#D55E00"/>
<circle cx="143" cy="258" r="3" fill="#009E73"/>
<circle cx="143" cy="268" r="3" fill="#56B4E9"/>
<circle cx="143" cy="203" r="3" fill="#E69F00"/>
<circle cx="143" cy="340" r="3" fill="#C44E52"/>
<circle cx="143" cy="41" r="3" fill="#000000"/>
<circle cx="216" cy="74" r="3" fill="#0072B2"/>
<circle cx="216" cy="48" r="3" fill="#CC79A7"/>
<circle cx="216" cy="340" r="3" fill="#D55E00"/>
<circle cx="216" cy="252" r="3" fill="#009E73"/>
<circle cx="216" cy="268" r="3" fill="#56B4E9"/>
<circle cx="216" cy="203" r="3" fill="#E69F00"/>
<circle cx="216" cy="340" r="3" fill="#C44E52"/>
<circle cx="216" cy="41" r="3" fill="#000000"/>
<circle cx="290" cy="117" r="3" fill="#0072B2"/>
<circle cx="290" cy="95" r="3" fill="#CC79A7"/>
<circle cx="290" cy="340" r="3" fill="#D55E00"/>
<circle cx="290" cy="266" r="3" fill="#009E73"/>
<circle cx="290" cy="268" r="3" fill="#56B4E9"/>
<circle cx="290" cy="203" r="3" fill="#E69F00"/>
<circle cx="290" cy="340" r="3" fill="#C44E52"/>
<circle cx="290" cy="42" r="3" fill="#000000"/>
<circle cx="363" cy="114" r="3" fill="#0072B2"/>
<circle cx="363" cy="81" r="3" fill="#CC79A7"/>
<circle cx="363" cy="340" r="3" fill="#D55E00"/>
<circle cx="363" cy="265" r="3" fill="#009E73"/>
<circle cx="363" cy="268" r="3" fill="#56B4E9"/>
<circle cx="363" cy="203" r="3" fill="#E69F00"/>
<circle cx="363" cy="340" r="3" fill="#C44E52"/>
<circle cx="363" cy="41" r="3" fill="#000000"/>
<circle cx="436" cy="75" r="3" fill="#0072B2"/>
<circle cx="436" cy="44" r="3" fill="#CC79A7"/>
<circle cx="436" cy="340" r="3" fill="#D55E00"/>
<circle cx="436" cy="252" r="3" fill="#009E73"/>
<circle cx="436" cy="268" r="3" fill="#56B4E9"/>
<circle cx="436" cy="203" r="3" fill="#E69F00"/>
<circle cx="436" cy="340" r="3" fill="#C44E52"/>
<circle cx="436" cy="42" r="3" fill="#000000"/>
<circle cx="510" cy="105" r="3" fill="#0072B2"/>
<circle cx="510" cy="87" r="3" fill="#CC79A7"/>
<circle cx="510" cy="340" r="3" fill="#D55E00"/>
<circle cx="510" cy="263" r="3" fill="#009E73"/>
<circle cx="510" cy="272" r="3" fill="#56B4E9"/>
<circle cx="510" cy="207" r="3" fill="#E69F00"/>
<circle cx="510" cy="340" r="3" fill="#C44E52"/>
<circle cx="510" cy="49" r="3" fill="#000000"/>
<circle cx="583" cy="116" r="3" fill="#0072B2"/>
<circle cx="583" cy="101" r="3" fill="#CC79A7"/>
<circle cx="583" cy="340" r="3" fill="#D55E00"/>
<circle cx="583" cy="269" r="3" fill="#009E73"/>
<circle cx="583" cy="273" r="3" fill="#56B4E9"/>
<circle cx="583" cy="209" r="3" fill="#E69F00"/>
<circle cx="583" cy="340" r="3" fill="#C44E52"/>
<circle cx="583" cy="53" r="3" fill="#000000"/>
<circle cx="656" cy="123" r="3" fill="#0072B2"/>
<circle cx="656" cy="114" r="3" fill="#CC79A7"/>
<circle cx="656" cy="340" r="3" fill="#D55E00"/>
<circle cx="656" cy="268" r="3" fill="#009E73"/>
<circle cx="656" cy="273" r="3" fill="#56B4E9"/>
<circle cx="656" cy="209" r="3" fill="#E69F00"/>
<circle cx="656" cy="340" r="3" fill="#C44E52"/>
<circle cx="656" cy="53" r="3" fill="#000000"/>
<circle cx="730" cy="123" r="3" fill="#0072B2"/>
<circle cx="730" cy="105" r="3" fill="#CC79A7"/>
<circle cx="730" cy="340" r="3" fill="#D55E00"/>
<circle cx="730" cy="268" r="3" fill="#009E73"/>
<circle cx="730" cy="273" r="3" fill="#56B4E9"/>
<circle cx="730" cy="209" r="3" fill="#E69F00"/>
<circle cx="730" cy="340" r="3" fill="#C44E52"/>
<circle cx="730" cy="53" r="3" fill="#000000"/>
<circle cx="90" cy="20" r="4" fill="#0072B2"/>
<text x="98" y="24" text-anchor="start" font-size="12" fill="#0072B2">inte</text>
<circle cx="150" cy="20" r="4" fill="#CC79A7"/>
<text x="158" y="24" text-anchor="start" font-size="12" fill="#CC79A7">comp</text>
<circle cx="215" cy="20" r="4" fill="#D55E00"/>
<text x="223" y="24" text-anchor="start" font-size="12" fill="#D55E00">run</text>
<circle cx="270" cy="20" r="4" fill="#009E73"/>
<text x="278" y="24" text-anchor="start" font-size="12" fill="#009E73">wall</text>
<circle cx="335" cy="20" r="4" fill="#56B4E9"/>
<text x="343" y="24" text-anchor="start" font-size="12" fill="#56B4E9">mem-inte</text>
<circle cx="425" cy="20" r="4" fill="#E69F00"/>
<text x="433" y="24" text-anchor="start" font-size="12" fill="#E69F00">mem-comp</text>
<circle cx="520" cy="20" r="4" fill="#C44E52"/>
<text x="528" y="24" text-anchor="start" font-size="12" fill="#C44E52">mem-run</text>
<circle cx="605" cy="20" r="4" fill="#000000"/>
<text x="613" y="24" text-anchor="start" font-size="12" fill="#000000">mem-total</text>
</svg>
