<svg width="800" height="400" xmlns="http://www.w3.org/2000/svg">
<rect width="800" height="400" fill="white"/>
<line x1="70" y1="40" x2="70" y2="340" stroke="#333" stroke-width="1"/>
<line x1="70" y1="340" x2="730" y2="340" stroke="#333" stroke-width="1"/>
<line x1="730" y1="40" x2="730" y2="340" stroke="#333" stroke-width="1"/>
<text x="65" y="344" text-anchor="end" font-size="11" fill="#333">0</text>
<text x="65" y="194" text-anchor="end" font-size="11" fill="#333">309500</text>
<text x="65" y="44" text-anchor="end" font-size="11" fill="#333">619000</text>
<text x="15" y="190" text-anchor="middle" font-size="12" fill="#333" transform="rotate(-90 15 190)">ms</text>
<text x="735" y="344" text-anchor="start" font-size="11" fill="#333">0</text>
<text x="735" y="194" text-anchor="start" font-size="11" fill="#333">10121500000</text>
<text x="735" y="44" text-anchor="start" font-size="11" fill="#333">20243000000</text>
<text x="785" y="190" text-anchor="middle" font-size="12" fill="#333" transform="rotate(90 785 190)">bytes</text>
<polyline points="70,69 143,69 216,67 290,68 363,72 436,72 510,66 583,46 656,41 730,43" fill="none" stroke="#0072B2" stroke-width="2"/>
<polyline points="70,108 143,110 216,106 290,110 363,112 436,111 510,109 583,88 656,84 730,86" fill="none" stroke="#CC79A7" stroke-width="2"/>
<polyline points="70,340 143,340 216,340 290,340 363,340 436,340 510,340 583,340 656,340 730,340" fill="none" stroke="#D55E00" stroke-width="2"/>
<polyline points="70,298 143,297 216,297 290,297 363,298 436,298 510,297 583,296 656,296 730,296" fill="none" stroke="#009E73" stroke-width="2"/>
<polyline points="70,304 143,304 216,304 290,304 363,304 436,304 510,303 583,303 656,303 730,303" fill="none" stroke="#56B4E9" stroke-width="2"/>
<polyline points="70,182 143,182 216,182 290,182 363,182 436,182 510,180 583,181 656,180 730,180" fill="none" stroke="#E69F00" stroke-width="2"/>
<polyline points="70,336 143,335 216,335 290,336 363,336 436,336 510,337 583,337 656,338 730,338" fill="none" stroke="#C44E52" stroke-width="2"/>
<polyline points="70,42 143,42 216,42 290,42 363,42 436,42 510,41 583,41 656,42 730,41" fill="none" stroke="#000000" stroke-width="2"/>
<circle cx="70" cy="69" r="3" fill="#0072B2"/>
<circle cx="70" cy="108" r="3" fill="#CC79A7"/>
<circle cx="70" cy="340" r="3" fill="#D55E00"/>
<circle cx="70" cy="298" r="3" fill="#009E73"/>
<circle cx="70" cy="304" r="3" fill="#56B4E9"/>
<circle cx="70" cy="182" r="3" fill="#E69F00"/>
<circle cx="70" cy="336" r="3" fill="#C44E52"/>
<circle cx="70" cy="42" r="3" fill="#000000"/>
<circle cx="143" cy="69" r="3" fill="#0072B2"/>
<circle cx="143" cy="110" r="3" fill="#CC79A7"/>
<circle cx="143" cy="340" r="3" fill="#D55E00"/>
<circle cx="143" cy="297" r="3" fill="#009E73"/>
<circle cx="143" cy="304" r="3" fill="#56B4E9"/>
<circle cx="143" cy="182" r="3" fill="#E69F00"/>
<circle cx="143" cy="335" r="3" fill="#C44E52"/>
<circle cx="143" cy="42" r="3" fill="#000000"/>
<circle cx="216" cy="67" r="3" fill="#0072B2"/>
<circle cx="216" cy="106" r="3" fill="#CC79A7"/>
<circle cx="216" cy="340" r="3" fill="#D55E00"/>
<circle cx="216" cy="297" r="3" fill="#009E73"/>
<circle cx="216" cy="304" r="3" fill="#56B4E9"/>
<circle cx="216" cy="182" r="3" fill="#E69F00"/>
<circle cx="216" cy="335" r="3" fill="#C44E52"/>
<circle cx="216" cy="42" r="3" fill="#000000"/>
<circle cx="290" cy="68" r="3" fill="#0072B2"/>
<circle cx="290" cy="110" r="3" fill="#CC79A7"/>
<circle cx="290" cy="340" r="3" fill="#D55E00"/>
<circle cx="290" cy="297" r="3" fill="#009E73"/>
<circle cx="290" cy="304" r="3" fill="#56B4E9"/>
<circle cx="290" cy="182" r="3" fill="#E69F00"/>
<circle cx="290" cy="336" r="3" fill="#C44E52"/>
<circle cx="290" cy="42" r="3" fill="#000000"/>
<circle cx="363" cy="72" r="3" fill="#0072B2"/>
<circle cx="363" cy="112" r="3" fill="#CC79A7"/>
<circle cx="363" cy="340" r="3" fill="#D55E00"/>
<circle cx="363" cy="298" r="3" fill="#009E73"/>
<circle cx="363" cy="304" r="3" fill="#56B4E9"/>
<circle cx="363" cy="182" r="3" fill="#E69F00"/>
<circle cx="363" cy="336" r="3" fill="#C44E52"/>
<circle cx="363" cy="42" r="3" fill="#000000"/>
<circle cx="436" cy="72" r="3" fill="#0072B2"/>
<circle cx="436" cy="111" r="3" fill="#CC79A7"/>
<circle cx="436" cy="340" r="3" fill="#D55E00"/>
<circle cx="436" cy="298" r="3" fill="#009E73"/>
<circle cx="436" cy="304" r="3" fill="#56B4E9"/>
<circle cx="436" cy="182" r="3" fill="#E69F00"/>
<circle cx="436" cy="336" r="3" fill="#C44E52"/>
<circle cx="436" cy="42" r="3" fill="#000000"/>
<circle cx="510" cy="66" r="3" fill="#0072B2"/>
<circle cx="510" cy="109" r="3" fill="#CC79A7"/>
<circle cx="510" cy="340" r="3" fill="#D55E00"/>
<circle cx="510" cy="297" r="3" fill="#009E73"/>
<circle cx="510" cy="303" r="3" fill="#56B4E9"/>
<circle cx="510" cy="180" r="3" fill="#E69F00"/>
<circle cx="510" cy="337" r="3" fill="#C44E52"/>
<circle cx="510" cy="41" r="3" fill="#000000"/>
<circle cx="583" cy="46" r="3" fill="#0072B2"/>
<circle cx="583" cy="88" r="3" fill="#CC79A7"/>
<circle cx="583" cy="340" r="3" fill="#D55E00"/>
<circle cx="583" cy="296" r="3" fill="#009E73"/>
<circle cx="583" cy="303" r="3" fill="#56B4E9"/>
<circle cx="583" cy="181" r="3" fill="#E69F00"/>
<circle cx="583" cy="337" r="3" fill="#C44E52"/>
<circle cx="583" cy="41" r="3" fill="#000000"/>
<circle cx="656" cy="41" r="3" fill="#0072B2"/>
<circle cx="656" cy="84" r="3" fill="#CC79A7"/>
<circle cx="656" cy="340" r="3" fill="#D55E00"/>
<circle cx="656" cy="296" r="3" fill="#009E73"/>
<circle cx="656" cy="303" r="3" fill="#56B4E9"/>
<circle cx="656" cy="180" r="3" fill="#E69F00"/>
<circle cx="656" cy="338" r="3" fill="#C44E52"/>
<circle cx="656" cy="42" r="3" fill="#000000"/>
<circle cx="730" cy="43" r="3" fill="#0072B2"/>
<circle cx="730" cy="86" r="3" fill="#CC79A7"/>
<circle cx="730" cy="340" r="3" fill="#D55E00"/>
<circle cx="730" cy="296" r="3" fill="#009E73"/>
<circle cx="730" cy="303" r="3" fill="#56B4E9"/>
<circle cx="730" cy="180" r="3" fill="#E69F00"/>
<circle cx="730" cy="338" r="3" fill="#C44E52"/>
<circle cx="730" cy="41" r="3" fill="#000000"/>
<circle cx="90" cy="20" r="4" fill="#0072B2"/>
<text x="98" y="24" text-anchor="start" font-size="12" fill="#0072B2">inte</text>
<circle cx="150" cy="20" r="4" fill="#CC79A7"/>
<text x="158" y="24" text-anchor="start" font-size="12" fill="#CC79A7">comp</text>
<circle cx="215" cy="20" r="4" fill="#D55E00"/>
<text x="223" y="24" text-anchor="start" font-size="12" fill="#D55E00">run</text>
<circle cx="270" cy="20" r="4" fill="#009E73"/>
<text x="278" y="24" text-anchor="start" font-size="12" fill="#009E73">wall</text>
<circle cx="335" cy="20" r="4" fill="#56B4E9"/>
<text x="343" y="24" text-anchor="start" font-size="12" fill="#56B4E9">mem-inte</text>
<circle cx="425" cy="20" r="4" fill="#E69F00"/>
<text x="433" y="24" text-anchor="start" font-size="12" fill="#E69F00">mem-comp</text>
<circle cx="520" cy="20" r="4" fill="#C44E52"/>
<text x="528" y="24" text-anchor="start" font-size="12" fill="#C44E52">mem-run</text>
<circle cx="605" cy="20" r="4" fill="#000000"/>
<text x="613" y="24" text-anchor="start" font-size="12" fill="#000000">mem-total</text>
</svg>
