<svg width="800" height="400" xmlns="http://www.w3.org/2000/svg">
<rect width="800" height="400" fill="white"/>
<line x1="70" y1="40" x2="70" y2="340" stroke="#333" stroke-width="1"/>
<line x1="70" y1="340" x2="780" y2="340" stroke="#333" stroke-width="1"/>
<text x="65" y="344" text-anchor="end" font-size="11" fill="#333">0</text>
<text x="65" y="194" text-anchor="end" font-size="11" fill="#333">80000</text>
<text x="65" y="44" text-anchor="end" font-size="11" fill="#333">160000</text>
<text x="15" y="190" text-anchor="middle" font-size="12" fill="#333" transform="rotate(-90 15 190)">ms</text>
<polyline points="70,113 148,112 227,111 306,109 385,109 464,107 543,44 622,45 701,42 780,44" fill="none" stroke="#0072B2" stroke-width="2"/>
<polyline points="70,264 148,263 227,263 306,261 385,263 464,262 543,206 622,205 701,202 780,204" fill="none" stroke="#D55E00" stroke-width="2"/>
<polyline points="70,125 148,125 227,129 306,128 385,130 464,127 543,71 622,70 701,65 780,64" fill="none" stroke="#CC79A7" stroke-width="2"/>
<polyline points="70,265 148,265 227,265 306,265 385,265 464,263 543,209 622,208 701,206 780,206" fill="none" stroke="#E69F00" stroke-width="2"/>
<polyline points="70,174 148,174 227,175 306,174 385,175 464,173 543,123 622,122 701,121 780,122" fill="none" stroke="#009E73" stroke-width="2"/>
<circle cx="70" cy="113" r="3" fill="#0072B2"/>
<circle cx="70" cy="264" r="3" fill="#D55E00"/>
<circle cx="70" cy="125" r="3" fill="#CC79A7"/>
<circle cx="70" cy="265" r="3" fill="#E69F00"/>
<circle cx="70" cy="174" r="3" fill="#009E73"/>
<circle cx="148" cy="112" r="3" fill="#0072B2"/>
<circle cx="148" cy="263" r="3" fill="#D55E00"/>
<circle cx="148" cy="125" r="3" fill="#CC79A7"/>
<circle cx="148" cy="265" r="3" fill="#E69F00"/>
<circle cx="148" cy="174" r="3" fill="#009E73"/>
<circle cx="227" cy="111" r="3" fill="#0072B2"/>
<circle cx="227" cy="263" r="3" fill="#D55E00"/>
<circle cx="227" cy="129" r="3" fill="#CC79A7"/>
<circle cx="227" cy="265" r="3" fill="#E69F00"/>
<circle cx="227" cy="175" r="3" fill="#009E73"/>
<circle cx="306" cy="109" r="3" fill="#0072B2"/>
<circle cx="306" cy="261" r="3" fill="#D55E00"/>
<circle cx="306" cy="128" r="3" fill="#CC79A7"/>
<circle cx="306" cy="265" r="3" fill="#E69F00"/>
<circle cx="306" cy="174" r="3" fill="#009E73"/>
<circle cx="385" cy="109" r="3" fill="#0072B2"/>
<circle cx="385" cy="263" r="3" fill="#D55E00"/>
<circle cx="385" cy="130" r="3" fill="#CC79A7"/>
<circle cx="385" cy="265" r="3" fill="#E69F00"/>
<circle cx="385" cy="175" r="3" fill="#009E73"/>
<circle cx="464" cy="107" r="3" fill="#0072B2"/>
<circle cx="464" cy="262" r="3" fill="#D55E00"/>
<circle cx="464" cy="127" r="3" fill="#CC79A7"/>
<circle cx="464" cy="263" r="3" fill="#E69F00"/>
<circle cx="464" cy="173" r="3" fill="#009E73"/>
<circle cx="543" cy="44" r="3" fill="#0072B2"/>
<circle cx="543" cy="206" r="3" fill="#D55E00"/>
<circle cx="543" cy="71" r="3" fill="#CC79A7"/>
<circle cx="543" cy="209" r="3" fill="#E69F00"/>
<circle cx="543" cy="123" r="3" fill="#009E73"/>
<circle cx="622" cy="45" r="3" fill="#0072B2"/>
<circle cx="622" cy="205" r="3" fill="#D55E00"/>
<circle cx="622" cy="70" r="3" fill="#CC79A7"/>
<circle cx="622" cy="208" r="3" fill="#E69F00"/>
<circle cx="622" cy="122" r="3" fill="#009E73"/>
<circle cx="701" cy="42" r="3" fill="#0072B2"/>
<circle cx="701" cy="202" r="3" fill="#D55E00"/>
<circle cx="701" cy="65" r="3" fill="#CC79A7"/>
<circle cx="701" cy="206" r="3" fill="#E69F00"/>
<circle cx="701" cy="121" r="3" fill="#009E73"/>
<circle cx="780" cy="44" r="3" fill="#0072B2"/>
<circle cx="780" cy="204" r="3" fill="#D55E00"/>
<circle cx="780" cy="64" r="3" fill="#CC79A7"/>
<circle cx="780" cy="206" r="3" fill="#E69F00"/>
<circle cx="780" cy="122" r="3" fill="#009E73"/>
<circle cx="90" cy="20" r="4" fill="#0072B2"/>
<text x="98" y="24" text-anchor="start" font-size="12" fill="#0072B2">ctil-i</text>
<circle cx="160" cy="20" r="4" fill="#D55E00"/>
<text x="168" y="24" text-anchor="start" font-size="12" fill="#D55E00">ctil-r</text>
<circle cx="230" cy="20" r="4" fill="#CC79A7"/>
<text x="238" y="24" text-anchor="start" font-size="12" fill="#CC79A7">til-i</text>
<circle cx="290" cy="20" r="4" fill="#E69F00"/>
<text x="298" y="24" text-anchor="start" font-size="12" fill="#E69F00">til-r</text>
<circle cx="350" cy="20" r="4" fill="#009E73"/>
<text x="358" y="24" text-anchor="start" font-size="12" fill="#009E73">Wall</text>
</svg>
