<svg width="800" height="400" xmlns="http://www.w3.org/2000/svg">
<rect width="800" height="400" fill="white"/>
<line x1="70" y1="40" x2="70" y2="340" stroke="#333" stroke-width="1"/>
<line x1="70" y1="340" x2="730" y2="340" stroke="#333" stroke-width="1"/>
<line x1="730" y1="40" x2="730" y2="340" stroke="#333" stroke-width="1"/>
<text x="65" y="344" text-anchor="end" font-size="11" fill="#333">0</text>
<text x="65" y="194" text-anchor="end" font-size="11" fill="#333">200500</text>
<text x="65" y="44" text-anchor="end" font-size="11" fill="#333">401000</text>
<text x="15" y="190" text-anchor="middle" font-size="12" fill="#333" transform="rotate(-90 15 190)">ms</text>
<text x="735" y="344" text-anchor="start" font-size="11" fill="#333">0</text>
<text x="735" y="194" text-anchor="start" font-size="11" fill="#333">10479000000</text>
<text x="735" y="44" text-anchor="start" font-size="11" fill="#333">20958000000</text>
<text x="785" y="190" text-anchor="middle" font-size="12" fill="#333" transform="rotate(90 785 190)">bytes</text>
<polyline points="70,78 143,74 216,170 290,164 363,165 436,164 510,164 583,164 656,163 730,163" fill="none" stroke="#0072B2" stroke-width="2"/>
<polyline points="70,47 143,41 216,124 290,119 363,119 436,116 510,119 583,116 656,117 730,119" fill="none" stroke="#CC79A7" stroke-width="2"/>
<polyline points="70,340 143,340 216,340 290,340 363,340 436,340 510,340 583,340 656,340 730,340" fill="none" stroke="#D55E00" stroke-width="2"/>
<polyline points="70,301 143,300 216,315 290,313 363,314 436,314 510,313 583,314 656,313 730,313" fill="none" stroke="#009E73" stroke-width="2"/>
<polyline points="70,299 143,299 216,299 290,299 363,299 436,299 510,299 583,299 656,299 730,298" fill="none" stroke="#56B4E9" stroke-width="2"/>
<polyline points="70,186 143,186 216,186 290,186 363,186 436,186 510,186 583,186 656,186 730,185" fill="none" stroke="#E69F00" stroke-width="2"/>
<polyline points="70,337 143,336 216,338 290,337 363,338 436,338 510,337 583,338 656,338 730,338" fill="none" stroke="#C44E52" stroke-width="2"/>
<polyline points="70,41 143,41 216,42 290,41 363,43 436,42 510,41 583,43 656,42 730,41" fill="none" stroke="#000000" stroke-width="2"/>
<circle cx="70" cy="78" r="3" fill="#0072B2"/>
<circle cx="70" cy="47" r="3" fill="#CC79A7"/>
<circle cx="70" cy="340" r="3" fill="#D55E00"/>
<circle cx="70" cy="301" r="3" fill="#009E73"/>
<circle cx="70" cy="299" r="3" fill="#56B4E9"/>
<circle cx="70" cy="186" r="3" fill="#E69F00"/>
<circle cx="70" cy="337" r="3" fill="#C44E52"/>
<circle cx="70" cy="41" r="3" fill="#000000"/>
<circle cx="143" cy="74" r="3" fill="#0072B2"/>
<circle cx="143" cy="41" r="3" fill="#CC79A7"/>
<circle cx="143" cy="340" r="3" fill="#D55E00"/>
<circle cx="143" cy="300" r="3" fill="#009E73"/>
<circle cx="143" cy="299" r="3" fill="#56B4E9"/>
<circle cx="143" cy="186" r="3" fill="#E69F00"/>
<circle cx="143" cy="336" r="3" fill="#C44E52"/>
<circle cx="143" cy="41" r="3" fill="#000000"/>
<circle cx="216" cy="170" r="3" fill="#0072B2"/>
<circle cx="216" cy="124" r="3" fill="#CC79A7"/>
<circle cx="216" cy="340" r="3" fill="#D55E00"/>
<circle cx="216" cy="315" r="3" fill="#009E73"/>
<circle cx="216" cy="299" r="3" fill="#56B4E9"/>
<circle cx="216" cy="186" r="3" fill="#E69F00"/>
<circle cx="216" cy="338" r="3" fill="#C44E52"/>
<circle cx="216" cy="42" r="3" fill="#000000"/>
<circle cx="290" cy="164" r="3" fill="#0072B2"/>
<circle cx="290" cy="119" r="3" fill="#CC79A7"/>
<circle cx="290" cy="340" r="3" fill="#D55E00"/>
<circle cx="290" cy="313" r="3" fill="#009E73"/>
<circle cx="290" cy="299" r="3" fill="#56B4E9"/>
<circle cx="290" cy="186" r="3" fill="#E69F00"/>
<circle cx="290" cy="337" r="3" fill="#C44E52"/>
<circle cx="290" cy="41" r="3" fill="#000000"/>
<circle cx="363" cy="165" r="3" fill="#0072B2"/>
<circle cx="363" cy="119" r="3" fill="#CC79A7"/>
<circle cx="363" cy="340" r="3" fill="#D55E00"/>
<circle cx="363" cy="314" r="3" fill="#009E73"/>
<circle cx="363" cy="299" r="3" fill="#56B4E9"/>
<circle cx="363" cy="186" r="3" fill="#E69F00"/>
<circle cx="363" cy="338" r="3" fill="#C44E52"/>
<circle cx="363" cy="43" r="3" fill="#000000"/>
<circle cx="436" cy="164" r="3" fill="#0072B2"/>
<circle cx="436" cy="116" r="3" fill="#CC79A7"/>
<circle cx="436" cy="340" r="3" fill="#D55E00"/>
<circle cx="436" cy="314" r="3" fill="#009E73"/>
<circle cx="436" cy="299" r="3" fill="#56B4E9"/>
<circle cx="436" cy="186" r="3" fill="#E69F00"/>
<circle cx="436" cy="338" r="3" fill="#C44E52"/>
<circle cx="436" cy="42" r="3" fill="#000000"/>
<circle cx="510" cy="164" r="3" fill="#0072B2"/>
<circle cx="510" cy="119" r="3" fill="#CC79A7"/>
<circle cx="510" cy="340" r="3" fill="#D55E00"/>
<circle cx="510" cy="313" r="3" fill="#009E73"/>
<circle cx="510" cy="299" r="3" fill="#56B4E9"/>
<circle cx="510" cy="186" r="3" fill="#E69F00"/>
<circle cx="510" cy="337" r="3" fill="#C44E52"/>
<circle cx="510" cy="41" r="3" fill="#000000"/>
<circle cx="583" cy="164" r="3" fill="#0072B2"/>
<circle cx="583" cy="116" r="3" fill="#CC79A7"/>
<circle cx="583" cy="340" r="3" fill="#D55E00"/>
<circle cx="583" cy="314" r="3" fill="#009E73"/>
<circle cx="583" cy="299" r="3" fill="#56B4E9"/>
<circle cx="583" cy="186" r="3" fill="#E69F00"/>
<circle cx="583" cy="338" r="3" fill="#C44E52"/>
<circle cx="583" cy="43" r="3" fill="#000000"/>
<circle cx="656" cy="163" r="3" fill="#0072B2"/>
<circle cx="656" cy="117" r="3" fill="#CC79A7"/>
<circle cx="656" cy="340" r="3" fill="#D55E00"/>
<circle cx="656" cy="313" r="3" fill="#009E73"/>
<circle cx="656" cy="299" r="3" fill="#56B4E9"/>
<circle cx="656" cy="186" r="3" fill="#E69F00"/>
<circle cx="656" cy="338" r="3" fill="#C44E52"/>
<circle cx="656" cy="42" r="3" fill="#000000"/>
<circle cx="730" cy="163" r="3" fill="#0072B2"/>
<circle cx="730" cy="119" r="3" fill="#CC79A7"/>
<circle cx="730" cy="340" r="3" fill="#D55E00"/>
<circle cx="730" cy="313" r="3" fill="#009E73"/>
<circle cx="730" cy="298" r="3" fill="#56B4E9"/>
<circle cx="730" cy="185" r="3" fill="#E69F00"/>
<circle cx="730" cy="338" r="3" fill="#C44E52"/>
<circle cx="730" cy="41" r="3" fill="#000000"/>
<circle cx="90" cy="20" r="4" fill="#0072B2"/>
<text x="98" y="24" text-anchor="start" font-size="12" fill="#0072B2">inte</text>
<circle cx="150" cy="20" r="4" fill="#CC79A7"/>
<text x="158" y="24" text-anchor="start" font-size="12" fill="#CC79A7">comp</text>
<circle cx="215" cy="20" r="4" fill="#D55E00"/>
<text x="223" y="24" text-anchor="start" font-size="12" fill="#D55E00">run</text>
<circle cx="270" cy="20" r="4" fill="#009E73"/>
<text x="278" y="24" text-anchor="start" font-size="12" fill="#009E73">wall</text>
<circle cx="335" cy="20" r="4" fill="#56B4E9"/>
<text x="343" y="24" text-anchor="start" font-size="12" fill="#56B4E9">mem-inte</text>
<circle cx="425" cy="20" r="4" fill="#E69F00"/>
<text x="433" y="24" text-anchor="start" font-size="12" fill="#E69F00">mem-comp</text>
<circle cx="520" cy="20" r="4" fill="#C44E52"/>
<text x="528" y="24" text-anchor="start" font-size="12" fill="#C44E52">mem-run</text>
<circle cx="605" cy="20" r="4" fill="#000000"/>
<text x="613" y="24" text-anchor="start" font-size="12" fill="#000000">mem-total</text>
</svg>
