<svg width="800" height="400" xmlns="http://www.w3.org/2000/svg">
<rect width="800" height="400" fill="white"/>
<line x1="70" y1="40" x2="70" y2="340" stroke="#333" stroke-width="1"/>
<line x1="70" y1="340" x2="730" y2="340" stroke="#333" stroke-width="1"/>
<line x1="730" y1="40" x2="730" y2="340" stroke="#333" stroke-width="1"/>
<text x="65" y="344" text-anchor="end" font-size="11" fill="#333">0</text>
<text x="65" y="194" text-anchor="end" font-size="11" fill="#333">110500</text>
<text x="65" y="44" text-anchor="end" font-size="11" fill="#333">221000</text>
<text x="15" y="190" text-anchor="middle" font-size="12" fill="#333" transform="rotate(-90 15 190)">ms</text>
<text x="735" y="344" text-anchor="start" font-size="11" fill="#333">0</text>
<text x="735" y="194" text-anchor="start" font-size="11" fill="#333">9344000000</text>
<text x="735" y="44" text-anchor="start" font-size="11" fill="#333">18688000000</text>
<text x="785" y="190" text-anchor="middle" font-size="12" fill="#333" transform="rotate(90 785 190)">bytes</text>
<polyline points="70,180 143,130 216,114 290,121 363,164 436,175 510,186 583,169 656,169 730,178" fill="none" stroke="#0072B2" stroke-width="2"/>
<polyline points="70,133 143,59 216,41 290,48 363,113 436,121 510,123 583,120 656,109 730,129" fill="none" stroke="#CC79A7" stroke-width="2"/>
<polyline points="70,340 143,339 216,339 290,339 363,340 436,339 510,339 583,340 656,339 730,340" fill="none" stroke="#D55E00" stroke-width="2"/>
<polyline points="70,294 143,279 216,275 290,276 363,289 436,293 510,295 583,292 656,291 730,294" fill="none" stroke="#009E73" stroke-width="2"/>
<polyline points="70,298 143,298 216,261 290,263 363,261 436,265 510,267 583,231 656,232 730,231" fill="none" stroke="#56B4E9" stroke-width="2"/>
<polyline points="70,255 143,255 216,255 290,255 363,254 436,254 510,255 583,225 656,225 730,225" fill="none" stroke="#E69F00" stroke-width="2"/>
<polyline points="70,339 143,337 216,337 290,338 363,338 436,338 510,338 583,339 656,338 730,339" fill="none" stroke="#C44E52" stroke-width="2"/>
<polyline points="70,160 143,154 216,112 290,113 363,115 436,120 510,106 583,41 656,58 730,55" fill="none" stroke="#000000" stroke-width="2"/>
<circle cx="70" cy="180" r="3" fill="#0072B2"/>
<circle cx="70" cy="133" r="3" fill="#CC79A7"/>
<circle cx="70" cy="340" r="3" fill="#D55E00"/>
<circle cx="70" cy="294" r="3" fill="#009E73"/>
<circle cx="70" cy="298" r="3" fill="#56B4E9"/>
<circle cx="70" cy="255" r="3" fill="#E69F00"/>
<circle cx="70" cy="339" r="3" fill="#C44E52"/>
<circle cx="70" cy="160" r="3" fill="#000000"/>
<circle cx="143" cy="130" r="3" fill="#0072B2"/>
<circle cx="143" cy="59" r="3" fill="#CC79A7"/>
<circle cx="143" cy="339" r="3" fill="#D55E00"/>
<circle cx="143" cy="279" r="3" fill="#009E73"/>
<circle cx="143" cy="298" r="3" fill="#56B4E9"/>
<circle cx="143" cy="255" r="3" fill="#E69F00"/>
<circle cx="143" cy="337" r="3" fill="#C44E52"/>
<circle cx="143" cy="154" r="3" fill="#000000"/>
<circle cx="216" cy="114" r="3" fill="#0072B2"/>
<circle cx="216" cy="41" r="3" fill="#CC79A7"/>
<circle cx="216" cy="339" r="3" fill="#D55E00"/>
<circle cx="216" cy="275" r="3" fill="#009E73"/>
<circle cx="216" cy="261" r="3" fill="#56B4E9"/>
<circle cx="216" cy="255" r="3" fill="#E69F00"/>
<circle cx="216" cy="337" r="3" fill="#C44E52"/>
<circle cx="216" cy="112" r="3" fill="#000000"/>
<circle cx="290" cy="121" r="3" fill="#0072B2"/>
<circle cx="290" cy="48" r="3" fill="#CC79A7"/>
<circle cx="290" cy="339" r="3" fill="#D55E00"/>
<circle cx="290" cy="276" r="3" fill="#009E73"/>
<circle cx="290" cy="263" r="3" fill="#56B4E9"/>
<circle cx="290" cy="255" r="3" fill="#E69F00"/>
<circle cx="290" cy="338" r="3" fill="#C44E52"/>
<circle cx="290" cy="113" r="3" fill="#000000"/>
<circle cx="363" cy="164" r="3" fill="#0072B2"/>
<circle cx="363" cy="113" r="3" fill="#CC79A7"/>
<circle cx="363" cy="340" r="3" fill="#D55E00"/>
<circle cx="363" cy="289" r="3" fill="#009E73"/>
<circle cx="363" cy="261" r="3" fill="#56B4E9"/>
<circle cx="363" cy="254" r="3" fill="#E69F00"/>
<circle cx="363" cy="338" r="3" fill="#C44E52"/>
<circle cx="363" cy="115" r="3" fill="#000000"/>
<circle cx="436" cy="175" r="3" fill="#0072B2"/>
<circle cx="436" cy="121" r="3" fill="#CC79A7"/>
<circle cx="436" cy="339" r="3" fill="#D55E00"/>
<circle cx="436" cy="293" r="3" fill="#009E73"/>
<circle cx="436" cy="265" r="3" fill="#56B4E9"/>
<circle cx="436" cy="254" r="3" fill="#E69F00"/>
<circle cx="436" cy="338" r="3" fill="#C44E52"/>
<circle cx="436" cy="120" r="3" fill="#000000"/>
<circle cx="510" cy="186" r="3" fill="#0072B2"/>
<circle cx="510" cy="123" r="3" fill="#CC79A7"/>
<circle cx="510" cy="339" r="3" fill="#D55E00"/>
<circle cx="510" cy="295" r="3" fill="#009E73"/>
<circle cx="510" cy="267" r="3" fill="#56B4E9"/>
<circle cx="510" cy="255" r="3" fill="#E69F00"/>
<circle cx="510" cy="338" r="3" fill="#C44E52"/>
<circle cx="510" cy="106" r="3" fill="#000000"/>
<circle cx="583" cy="169" r="3" fill="#0072B2"/>
<circle cx="583" cy="120" r="3" fill="#CC79A7"/>
<circle cx="583" cy="340" r="3" fill="#D55E00"/>
<circle cx="583" cy="292" r="3" fill="#009E73"/>
<circle cx="583" cy="231" r="3" fill="#56B4E9"/>
<circle cx="583" cy="225" r="3" fill="#E69F00"/>
<circle cx="583" cy="339" r="3" fill="#C44E52"/>
<circle cx="583" cy="41" r="3" fill="#000000"/>
<circle cx="656" cy="169" r="3" fill="#0072B2"/>
<circle cx="656" cy="109" r="3" fill="#CC79A7"/>
<circle cx="656" cy="339" r="3" fill="#D55E00"/>
<circle cx="656" cy="291" r="3" fill="#009E73"/>
<circle cx="656" cy="232" r="3" fill="#56B4E9"/>
<circle cx="656" cy="225" r="3" fill="#E69F00"/>
<circle cx="656" cy="338" r="3" fill="#C44E52"/>
<circle cx="656" cy="58" r="3" fill="#000000"/>
<circle cx="730" cy="178" r="3" fill="#0072B2"/>
<circle cx="730" cy="129" r="3" fill="#CC79A7"/>
<circle cx="730" cy="340" r="3" fill="#D55E00"/>
<circle cx="730" cy="294" r="3" fill="#009E73"/>
<circle cx="730" cy="231" r="3" fill="#56B4E9"/>
<circle cx="730" cy="225" r="3" fill="#E69F00"/>
<circle cx="730" cy="339" r="3" fill="#C44E52"/>
<circle cx="730" cy="55" r="3" fill="#000000"/>
<circle cx="90" cy="20" r="4" fill="#0072B2"/>
<text x="98" y="24" text-anchor="start" font-size="12" fill="#0072B2">inte</text>
<circle cx="150" cy="20" r="4" fill="#CC79A7"/>
<text x="158" y="24" text-anchor="start" font-size="12" fill="#CC79A7">comp</text>
<circle cx="215" cy="20" r="4" fill="#D55E00"/>
<text x="223" y="24" text-anchor="start" font-size="12" fill="#D55E00">run</text>
<circle cx="270" cy="20" r="4" fill="#009E73"/>
<text x="278" y="24" text-anchor="start" font-size="12" fill="#009E73">wall</text>
<circle cx="335" cy="20" r="4" fill="#56B4E9"/>
<text x="343" y="24" text-anchor="start" font-size="12" fill="#56B4E9">mem-inte</text>
<circle cx="425" cy="20" r="4" fill="#E69F00"/>
<text x="433" y="24" text-anchor="start" font-size="12" fill="#E69F00">mem-comp</text>
<circle cx="520" cy="20" r="4" fill="#C44E52"/>
<text x="528" y="24" text-anchor="start" font-size="12" fill="#C44E52">mem-run</text>
<circle cx="605" cy="20" r="4" fill="#000000"/>
<text x="613" y="24" text-anchor="start" font-size="12" fill="#000000">mem-total</text>
</svg>
