<svg width="800" height="400" xmlns="http://www.w3.org/2000/svg">
<rect width="800" height="400" fill="white"/>
<line x1="70" y1="40" x2="70" y2="340" stroke="#333" stroke-width="1"/>
<line x1="70" y1="340" x2="730" y2="340" stroke="#333" stroke-width="1"/>
<line x1="730" y1="40" x2="730" y2="340" stroke="#333" stroke-width="1"/>
<text x="65" y="344" text-anchor="end" font-size="11" fill="#333">0</text>
<text x="65" y="194" text-anchor="end" font-size="11" fill="#333">66000</text>
<text x="65" y="44" text-anchor="end" font-size="11" fill="#333">132000</text>
<text x="15" y="190" text-anchor="middle" font-size="12" fill="#333" transform="rotate(-90 15 190)">ms</text>
<text x="735" y="344" text-anchor="start" font-size="11" fill="#333">0</text>
<text x="735" y="194" text-anchor="start" font-size="11" fill="#333">6443000000</text>
<text x="735" y="44" text-anchor="start" font-size="11" fill="#333">12886000000</text>
<text x="785" y="190" text-anchor="middle" font-size="12" fill="#333" transform="rotate(90 785 190)">bytes</text>
<polyline points="70,42 143,159 216,159 290,159 363,161 436,197 510,197 583,197 656,192 730,193" fill="none" stroke="#0072B2" stroke-width="2"/>
<polyline points="70,43 143,160 216,159 290,159 363,162 436,165 510,165 583,165 656,160 730,160" fill="none" stroke="#CC79A7" stroke-width="2"/>
<polyline points="70,340 143,340 216,340 290,340 363,340 436,340 510,340 583,340 656,340 730,340" fill="none" stroke="#D55E00" stroke-width="2"/>
<polyline points="70,213 143,226 216,225 290,226 363,227 436,228 510,227 583,227 656,228 730,227" fill="none" stroke="#009E73" stroke-width="2"/>
<polyline points="70,246 143,275 216,275 290,275 363,274 436,290 510,292 583,289 656,281 730,280" fill="none" stroke="#56B4E9" stroke-width="2"/>
<polyline points="70,194 143,226 216,226 290,226 363,226 436,233 510,233 583,233 656,223 730,223" fill="none" stroke="#E69F00" stroke-width="2"/>
<polyline points="70,340 143,340 216,340 290,340 363,340 436,340 510,340 583,340 656,340 730,340" fill="none" stroke="#C44E52" stroke-width="2"/>
<polyline points="70,41 143,102 216,102 290,102 363,101 436,125 510,126 583,123 656,105 730,104" fill="none" stroke="#000000" stroke-width="2"/>
<circle cx="70" cy="42" r="3" fill="#0072B2"/>
<circle cx="70" cy="43" r="3" fill="#CC79A7"/>
<circle cx="70" cy="340" r="3" fill="#D55E00"/>
<circle cx="70" cy="213" r="3" fill="#009E73"/>
<circle cx="70" cy="246" r="3" fill="#56B4E9"/>
<circle cx="70" cy="194" r="3" fill="#E69F00"/>
<circle cx="70" cy="340" r="3" fill="#C44E52"/>
<circle cx="70" cy="41" r="3" fill="#000000"/>
<circle cx="143" cy="159" r="3" fill="#0072B2"/>
<circle cx="143" cy="160" r="3" fill="#CC79A7"/>
<circle cx="143" cy="340" r="3" fill="#D55E00"/>
<circle cx="143" cy="226" r="3" fill="#009E73"/>
<circle cx="143" cy="275" r="3" fill="#56B4E9"/>
<circle cx="143" cy="226" r="3" fill="#E69F00"/>
<circle cx="143" cy="340" r="3" fill="#C44E52"/>
<circle cx="143" cy="102" r="3" fill="#000000"/>
<circle cx="216" cy="159" r="3" fill="#0072B2"/>
<circle cx="216" cy="159" r="3" fill="#CC79A7"/>
<circle cx="216" cy="340" r="3" fill="#D55E00"/>
<circle cx="216" cy="225" r="3" fill="#009E73"/>
<circle cx="216" cy="275" r="3" fill="#56B4E9"/>
<circle cx="216" cy="226" r="3" fill="#E69F00"/>
<circle cx="216" cy="340" r="3" fill="#C44E52"/>
<circle cx="216" cy="102" r="3" fill="#000000"/>
<circle cx="290" cy="159" r="3" fill="#0072B2"/>
<circle cx="290" cy="159" r="3" fill="#CC79A7"/>
<circle cx="290" cy="340" r="3" fill="#D55E00"/>
<circle cx="290" cy="226" r="3" fill="#009E73"/>
<circle cx="290" cy="275" r="3" fill="#56B4E9"/>
<circle cx="290" cy="226" r="3" fill="#E69F00"/>
<circle cx="290" cy="340" r="3" fill="#C44E52"/>
<circle cx="290" cy="102" r="3" fill="#000000"/>
<circle cx="363" cy="161" r="3" fill="#0072B2"/>
<circle cx="363" cy="162" r="3" fill="#CC79A7"/>
<circle cx="363" cy="340" r="3" fill="#D55E00"/>
<circle cx="363" cy="227" r="3" fill="#009E73"/>
<circle cx="363" cy="274" r="3" fill="#56B4E9"/>
<circle cx="363" cy="226" r="3" fill="#E69F00"/>
<circle cx="363" cy="340" r="3" fill="#C44E52"/>
<circle cx="363" cy="101" r="3" fill="#000000"/>
<circle cx="436" cy="197" r="3" fill="#0072B2"/>
<circle cx="436" cy="165" r="3" fill="#CC79A7"/>
<circle cx="436" cy="340" r="3" fill="#D55E00"/>
<circle cx="436" cy="228" r="3" fill="#009E73"/>
<circle cx="436" cy="290" r="3" fill="#56B4E9"/>
<circle cx="436" cy="233" r="3" fill="#E69F00"/>
<circle cx="436" cy="340" r="3" fill="#C44E52"/>
<circle cx="436" cy="125" r="3" fill="#000000"/>
<circle cx="510" cy="197" r="3" fill="#0072B2"/>
<circle cx="510" cy="165" r="3" fill="#CC79A7"/>
<circle cx="510" cy="340" r="3" fill="#D55E00"/>
<circle cx="510" cy="227" r="3" fill="#009E73"/>
<circle cx="510" cy="292" r="3" fill="#56B4E9"/>
<circle cx="510" cy="233" r="3" fill="#E69F00"/>
<circle cx="510" cy="340" r="3" fill="#C44E52"/>
<circle cx="510" cy="126" r="3" fill="#000000"/>
<circle cx="583" cy="197" r="3" fill="#0072B2"/>
<circle cx="583" cy="165" r="3" fill="#CC79A7"/>
<circle cx="583" cy="340" r="3" fill="#D55E00"/>
<circle cx="583" cy="227" r="3" fill="#009E73"/>
<circle cx="583" cy="289" r="3" fill="#56B4E9"/>
<circle cx="583" cy="233" r="3" fill="#E69F00"/>
<circle cx="583" cy="340" r="3" fill="#C44E52"/>
<circle cx="583" cy="123" r="3" fill="#000000"/>
<circle cx="656" cy="192" r="3" fill="#0072B2"/>
<circle cx="656" cy="160" r="3" fill="#CC79A7"/>
<circle cx="656" cy="340" r="3" fill="#D55E00"/>
<circle cx="656" cy="228" r="3" fill="#009E73"/>
<circle cx="656" cy="281" r="3" fill="#56B4E9"/>
<circle cx="656" cy="223" r="3" fill="#E69F00"/>
<circle cx="656" cy="340" r="3" fill="#C44E52"/>
<circle cx="656" cy="105" r="3" fill="#000000"/>
<circle cx="730" cy="193" r="3" fill="#0072B2"/>
<circle cx="730" cy="160" r="3" fill="#CC79A7"/>
<circle cx="730" cy="340" r="3" fill="#D55E00"/>
<circle cx="730" cy="227" r="3" fill="#009E73"/>
<circle cx="730" cy="280" r="3" fill="#56B4E9"/>
<circle cx="730" cy="223" r="3" fill="#E69F00"/>
<circle cx="730" cy="340" r="3" fill="#C44E52"/>
<circle cx="730" cy="104" r="3" fill="#000000"/>
<circle cx="90" cy="20" r="4" fill="#0072B2"/>
<text x="98" y="24" text-anchor="start" font-size="12" fill="#0072B2">inte</text>
<circle cx="150" cy="20" r="4" fill="#CC79A7"/>
<text x="158" y="24" text-anchor="start" font-size="12" fill="#CC79A7">comp</text>
<circle cx="215" cy="20" r="4" fill="#D55E00"/>
<text x="223" y="24" text-anchor="start" font-size="12" fill="#D55E00">run</text>
<circle cx="270" cy="20" r="4" fill="#009E73"/>
<text x="278" y="24" text-anchor="start" font-size="12" fill="#009E73">wall</text>
<circle cx="335" cy="20" r="4" fill="#56B4E9"/>
<text x="343" y="24" text-anchor="start" font-size="12" fill="#56B4E9">mem-inte</text>
<circle cx="425" cy="20" r="4" fill="#E69F00"/>
<text x="433" y="24" text-anchor="start" font-size="12" fill="#E69F00">mem-comp</text>
<circle cx="520" cy="20" r="4" fill="#C44E52"/>
<text x="528" y="24" text-anchor="start" font-size="12" fill="#C44E52">mem-run</text>
<circle cx="605" cy="20" r="4" fill="#000000"/>
<text x="613" y="24" text-anchor="start" font-size="12" fill="#000000">mem-total</text>
</svg>
