<svg width="800" height="400" xmlns="http://www.w3.org/2000/svg">
<rect width="800" height="400" fill="white"/>
<line x1="70" y1="40" x2="70" y2="340" stroke="#333" stroke-width="1"/>
<line x1="70" y1="340" x2="780" y2="340" stroke="#333" stroke-width="1"/>
<text x="65" y="344" text-anchor="end" font-size="11" fill="#333">0</text>
<text x="65" y="194" text-anchor="end" font-size="11" fill="#333">143500</text>
<text x="65" y="44" text-anchor="end" font-size="11" fill="#333">287000</text>
<text x="15" y="190" text-anchor="middle" font-size="12" fill="#333" transform="rotate(-90 15 190)">ms</text>
<polyline points="70,270 148,263 227,263 306,280 385,279 464,279 543,277 622,278 701,275 780,275" fill="none" stroke="#0072B2" stroke-width="2"/>
<polyline points="70,309 148,302 227,302 306,318 385,318 464,318 543,317 622,317 701,316 780,317" fill="none" stroke="#D55E00" stroke-width="2"/>
<polyline points="70,340 148,263 227,262 306,281 385,280 464,280 543,280 622,280 701,278 780,278" fill="none" stroke="#CC79A7" stroke-width="2"/>
<polyline points="70,340 148,302 227,302 306,321 385,321 464,321 543,320 622,320 701,317 780,317" fill="none" stroke="#E69F00" stroke-width="2"/>
<polyline points="70,167 148,150 227,148 306,41 385,84 464,80 543,76 622,74 701,289 780,288" fill="none" stroke="#009E73" stroke-width="2"/>
<circle cx="70" cy="270" r="3" fill="#0072B2"/>
<circle cx="70" cy="309" r="3" fill="#D55E00"/>
<circle cx="70" cy="340" r="3" fill="#CC79A7"/>
<circle cx="70" cy="340" r="3" fill="#E69F00"/>
<circle cx="70" cy="167" r="3" fill="#009E73"/>
<circle cx="148" cy="263" r="3" fill="#0072B2"/>
<circle cx="148" cy="302" r="3" fill="#D55E00"/>
<circle cx="148" cy="263" r="3" fill="#CC79A7"/>
<circle cx="148" cy="302" r="3" fill="#E69F00"/>
<circle cx="148" cy="150" r="3" fill="#009E73"/>
<circle cx="227" cy="263" r="3" fill="#0072B2"/>
<circle cx="227" cy="302" r="3" fill="#D55E00"/>
<circle cx="227" cy="262" r="3" fill="#CC79A7"/>
<circle cx="227" cy="302" r="3" fill="#E69F00"/>
<circle cx="227" cy="148" r="3" fill="#009E73"/>
<circle cx="306" cy="280" r="3" fill="#0072B2"/>
<circle cx="306" cy="318" r="3" fill="#D55E00"/>
<circle cx="306" cy="281" r="3" fill="#CC79A7"/>
<circle cx="306" cy="321" r="3" fill="#E69F00"/>
<circle cx="306" cy="41" r="3" fill="#009E73"/>
<circle cx="385" cy="279" r="3" fill="#0072B2"/>
<circle cx="385" cy="318" r="3" fill="#D55E00"/>
<circle cx="385" cy="280" r="3" fill="#CC79A7"/>
<circle cx="385" cy="321" r="3" fill="#E69F00"/>
<circle cx="385" cy="84" r="3" fill="#009E73"/>
<circle cx="464" cy="279" r="3" fill="#0072B2"/>
<circle cx="464" cy="318" r="3" fill="#D55E00"/>
<circle cx="464" cy="280" r="3" fill="#CC79A7"/>
<circle cx="464" cy="321" r="3" fill="#E69F00"/>
<circle cx="464" cy="80" r="3" fill="#009E73"/>
<circle cx="543" cy="277" r="3" fill="#0072B2"/>
<circle cx="543" cy="317" r="3" fill="#D55E00"/>
<circle cx="543" cy="280" r="3" fill="#CC79A7"/>
<circle cx="543" cy="320" r="3" fill="#E69F00"/>
<circle cx="543" cy="76" r="3" fill="#009E73"/>
<circle cx="622" cy="278" r="3" fill="#0072B2"/>
<circle cx="622" cy="317" r="3" fill="#D55E00"/>
<circle cx="622" cy="280" r="3" fill="#CC79A7"/>
<circle cx="622" cy="320" r="3" fill="#E69F00"/>
<circle cx="622" cy="74" r="3" fill="#009E73"/>
<circle cx="701" cy="275" r="3" fill="#0072B2"/>
<circle cx="701" cy="316" r="3" fill="#D55E00"/>
<circle cx="701" cy="278" r="3" fill="#CC79A7"/>
<circle cx="701" cy="317" r="3" fill="#E69F00"/>
<circle cx="701" cy="289" r="3" fill="#009E73"/>
<circle cx="780" cy="275" r="3" fill="#0072B2"/>
<circle cx="780" cy="317" r="3" fill="#D55E00"/>
<circle cx="780" cy="278" r="3" fill="#CC79A7"/>
<circle cx="780" cy="317" r="3" fill="#E69F00"/>
<circle cx="780" cy="288" r="3" fill="#009E73"/>
<circle cx="90" cy="20" r="4" fill="#0072B2"/>
<text x="98" y="24" text-anchor="start" font-size="12" fill="#0072B2">ctil-i</text>
<circle cx="160" cy="20" r="4" fill="#D55E00"/>
<text x="168" y="24" text-anchor="start" font-size="12" fill="#D55E00">ctil-r</text>
<circle cx="230" cy="20" r="4" fill="#CC79A7"/>
<text x="238" y="24" text-anchor="start" font-size="12" fill="#CC79A7">til-i</text>
<circle cx="290" cy="20" r="4" fill="#E69F00"/>
<text x="298" y="24" text-anchor="start" font-size="12" fill="#E69F00">til-r</text>
<circle cx="350" cy="20" r="4" fill="#009E73"/>
<text x="358" y="24" text-anchor="start" font-size="12" fill="#009E73">Wall</text>
</svg>
