<svg width="800" height="400" xmlns="http://www.w3.org/2000/svg">
<rect width="800" height="400" fill="white"/>
<line x1="70" y1="40" x2="70" y2="340" stroke="#333" stroke-width="1"/>
<line x1="70" y1="340" x2="730" y2="340" stroke="#333" stroke-width="1"/>
<line x1="730" y1="40" x2="730" y2="340" stroke="#333" stroke-width="1"/>
<text x="65" y="344" text-anchor="end" font-size="11" fill="#333">0</text>
<text x="65" y="194" text-anchor="end" font-size="11" fill="#333">67000</text>
<text x="65" y="44" text-anchor="end" font-size="11" fill="#333">134000</text>
<text x="15" y="190" text-anchor="middle" font-size="12" fill="#333" transform="rotate(-90 15 190)">ms</text>
<text x="735" y="344" text-anchor="start" font-size="11" fill="#333">0</text>
<text x="735" y="194" text-anchor="start" font-size="11" fill="#333">6607500000</text>
<text x="735" y="44" text-anchor="start" font-size="11" fill="#333">13215000000</text>
<text x="785" y="190" text-anchor="middle" font-size="12" fill="#333" transform="rotate(90 785 190)">bytes</text>
<polyline points="70,73 143,89 216,89 290,101 363,94 436,82 510,87 583,79 656,78 730,77" fill="none" stroke="#0072B2" stroke-width="2"/>
<polyline points="70,41 143,63 216,64 290,78 363,68 436,59 510,63 583,55 656,52 730,52" fill="none" stroke="#CC79A7" stroke-width="2"/>
<polyline points="70,340 143,340 216,340 290,340 363,340 436,340 510,340 583,340 656,340 730,340" fill="none" stroke="#D55E00" stroke-width="2"/>
<polyline points="70,78 143,99 216,100 290,113 363,101 436,95 510,99 583,92 656,92 730,90" fill="none" stroke="#009E73" stroke-width="2"/>
<polyline points="70,256 143,257 216,257 290,257 363,257 436,257 510,257 583,257 656,257 730,257" fill="none" stroke="#56B4E9" stroke-width="2"/>
<polyline points="70,191 143,209 216,216 290,215 363,214 436,212 510,211 583,211 656,212 730,215" fill="none" stroke="#E69F00" stroke-width="2"/>
<polyline points="70,340 143,340 216,340 290,340 363,340 436,340 510,340 583,340 656,340 730,340" fill="none" stroke="#C44E52" stroke-width="2"/>
<polyline points="70,41 143,79 216,86 290,87 363,85 436,83 510,83 583,83 656,83 730,85" fill="none" stroke="#000000" stroke-width="2"/>
<circle cx="70" cy="73" r="3" fill="#0072B2"/>
<circle cx="70" cy="41" r="3" fill="#CC79A7"/>
<circle cx="70" cy="340" r="3" fill="#D55E00"/>
<circle cx="70" cy="78" r="3" fill="#009E73"/>
<circle cx="70" cy="256" r="3" fill="#56B4E9"/>
<circle cx="70" cy="191" r="3" fill="#E69F00"/>
<circle cx="70" cy="340" r="3" fill="#C44E52"/>
<circle cx="70" cy="41" r="3" fill="#000000"/>
<circle cx="143" cy="89" r="3" fill="#0072B2"/>
<circle cx="143" cy="63" r="3" fill="#CC79A7"/>
<circle cx="143" cy="340" r="3" fill="#D55E00"/>
<circle cx="143" cy="99" r="3" fill="#009E73"/>
<circle cx="143" cy="257" r="3" fill="#56B4E9"/>
<circle cx="143" cy="209" r="3" fill="#E69F00"/>
<circle cx="143" cy="340" r="3" fill="#C44E52"/>
<circle cx="143" cy="79" r="3" fill="#000000"/>
<circle cx="216" cy="89" r="3" fill="#0072B2"/>
<circle cx="216" cy="64" r="3" fill="#CC79A7"/>
<circle cx="216" cy="340" r="3" fill="#D55E00"/>
<circle cx="216" cy="100" r="3" fill="#009E73"/>
<circle cx="216" cy="257" r="3" fill="#56B4E9"/>
<circle cx="216" cy="216" r="3" fill="#E69F00"/>
<circle cx="216" cy="340" r="3" fill="#C44E52"/>
<circle cx="216" cy="86" r="3" fill="#000000"/>
<circle cx="290" cy="101" r="3" fill="#0072B2"/>
<circle cx="290" cy="78" r="3" fill="#CC79A7"/>
<circle cx="290" cy="340" r="3" fill="#D55E00"/>
<circle cx="290" cy="113" r="3" fill="#009E73"/>
<circle cx="290" cy="257" r="3" fill="#56B4E9"/>
<circle cx="290" cy="215" r="3" fill="#E69F00"/>
<circle cx="290" cy="340" r="3" fill="#C44E52"/>
<circle cx="290" cy="87" r="3" fill="#000000"/>
<circle cx="363" cy="94" r="3" fill="#0072B2"/>
<circle cx="363" cy="68" r="3" fill="#CC79A7"/>
<circle cx="363" cy="340" r="3" fill="#D55E00"/>
<circle cx="363" cy="101" r="3" fill="#009E73"/>
<circle cx="363" cy="257" r="3" fill="#56B4E9"/>
<circle cx="363" cy="214" r="3" fill="#E69F00"/>
<circle cx="363" cy="340" r="3" fill="#C44E52"/>
<circle cx="363" cy="85" r="3" fill="#000000"/>
<circle cx="436" cy="82" r="3" fill="#0072B2"/>
<circle cx="436" cy="59" r="3" fill="#CC79A7"/>
<circle cx="436" cy="340" r="3" fill="#D55E00"/>
<circle cx="436" cy="95" r="3" fill="#009E73"/>
<circle cx="436" cy="257" r="3" fill="#56B4E9"/>
<circle cx="436" cy="212" r="3" fill="#E69F00"/>
<circle cx="436" cy="340" r="3" fill="#C44E52"/>
<circle cx="436" cy="83" r="3" fill="#000000"/>
<circle cx="510" cy="87" r="3" fill="#0072B2"/>
<circle cx="510" cy="63" r="3" fill="#CC79A7"/>
<circle cx="510" cy="340" r="3" fill="#D55E00"/>
<circle cx="510" cy="99" r="3" fill="#009E73"/>
<circle cx="510" cy="257" r="3" fill="#56B4E9"/>
<circle cx="510" cy="211" r="3" fill="#E69F00"/>
<circle cx="510" cy="340" r="3" fill="#C44E52"/>
<circle cx="510" cy="83" r="3" fill="#000000"/>
<circle cx="583" cy="79" r="3" fill="#0072B2"/>
<circle cx="583" cy="55" r="3" fill="#CC79A7"/>
<circle cx="583" cy="340" r="3" fill="#D55E00"/>
<circle cx="583" cy="92" r="3" fill="#009E73"/>
<circle cx="583" cy="257" r="3" fill="#56B4E9"/>
<circle cx="583" cy="211" r="3" fill="#E69F00"/>
<circle cx="583" cy="340" r="3" fill="#C44E52"/>
<circle cx="583" cy="83" r="3" fill="#000000"/>
<circle cx="656" cy="78" r="3" fill="#0072B2"/>
<circle cx="656" cy="52" r="3" fill="#CC79A7"/>
<circle cx="656" cy="340" r="3" fill="#D55E00"/>
<circle cx="656" cy="92" r="3" fill="#009E73"/>
<circle cx="656" cy="257" r="3" fill="#56B4E9"/>
<circle cx="656" cy="212" r="3" fill="#E69F00"/>
<circle cx="656" cy="340" r="3" fill="#C44E52"/>
<circle cx="656" cy="83" r="3" fill="#000000"/>
<circle cx="730" cy="77" r="3" fill="#0072B2"/>
<circle cx="730" cy="52" r="3" fill="#CC79A7"/>
<circle cx="730" cy="340" r="3" fill="#D55E00"/>
<circle cx="730" cy="90" r="3" fill="#009E73"/>
<circle cx="730" cy="257" r="3" fill="#56B4E9"/>
<circle cx="730" cy="215" r="3" fill="#E69F00"/>
<circle cx="730" cy="340" r="3" fill="#C44E52"/>
<circle cx="730" cy="85" r="3" fill="#000000"/>
<circle cx="90" cy="20" r="4" fill="#0072B2"/>
<text x="98" y="24" text-anchor="start" font-size="12" fill="#0072B2">inte</text>
<circle cx="150" cy="20" r="4" fill="#CC79A7"/>
<text x="158" y="24" text-anchor="start" font-size="12" fill="#CC79A7">comp</text>
<circle cx="215" cy="20" r="4" fill="#D55E00"/>
<text x="223" y="24" text-anchor="start" font-size="12" fill="#D55E00">run</text>
<circle cx="270" cy="20" r="4" fill="#009E73"/>
<text x="278" y="24" text-anchor="start" font-size="12" fill="#009E73">wall</text>
<circle cx="335" cy="20" r="4" fill="#56B4E9"/>
<text x="343" y="24" text-anchor="start" font-size="12" fill="#56B4E9">mem-inte</text>
<circle cx="425" cy="20" r="4" fill="#E69F00"/>
<text x="433" y="24" text-anchor="start" font-size="12" fill="#E69F00">mem-comp</text>
<circle cx="520" cy="20" r="4" fill="#C44E52"/>
<text x="528" y="24" text-anchor="start" font-size="12" fill="#C44E52">mem-run</text>
<circle cx="605" cy="20" r="4" fill="#000000"/>
<text x="613" y="24" text-anchor="start" font-size="12" fill="#000000">mem-total</text>
</svg>
