<svg width="800" height="400" xmlns="http://www.w3.org/2000/svg">
<rect width="800" height="400" fill="white"/>
<line x1="70" y1="40" x2="70" y2="340" stroke="#333" stroke-width="1"/>
<line x1="70" y1="340" x2="730" y2="340" stroke="#333" stroke-width="1"/>
<line x1="730" y1="40" x2="730" y2="340" stroke="#333" stroke-width="1"/>
<text x="65" y="344" text-anchor="end" font-size="11" fill="#333">0</text>
<text x="65" y="194" text-anchor="end" font-size="11" fill="#333">283500</text>
<text x="65" y="44" text-anchor="end" font-size="11" fill="#333">567000</text>
<text x="15" y="190" text-anchor="middle" font-size="12" fill="#333" transform="rotate(-90 15 190)">ms</text>
<text x="735" y="344" text-anchor="start" font-size="11" fill="#333">0</text>
<text x="735" y="194" text-anchor="start" font-size="11" fill="#333">10077500000</text>
<text x="735" y="44" text-anchor="start" font-size="11" fill="#333">20155000000</text>
<text x="785" y="190" text-anchor="middle" font-size="12" fill="#333" transform="rotate(90 785 190)">bytes</text>
<polyline points="70,52 143,50 216,55 290,52 363,52 436,53 510,44 583,41 656,58 730,57" fill="none" stroke="#0072B2" stroke-width="2"/>
<polyline points="70,97 143,97 216,99 290,98 363,97 436,98 510,90 583,87 656,103 730,99" fill="none" stroke="#CC79A7" stroke-width="2"/>
<polyline points="70,340 143,340 216,340 290,340 363,340 436,340 510,340 583,340 656,340 730,340" fill="none" stroke="#D55E00" stroke-width="2"/>
<polyline points="70,295 143,295 216,296 290,296 363,295 436,295 510,294 583,294 656,296 730,295" fill="none" stroke="#009E73" stroke-width="2"/>
<polyline points="70,304 143,304 216,304 290,304 363,304 436,304 510,304 583,304 656,304 730,304" fill="none" stroke="#56B4E9" stroke-width="2"/>
<polyline points="70,184 143,184 216,184 290,184 363,184 436,184 510,183 583,183 656,182 730,183" fill="none" stroke="#E69F00" stroke-width="2"/>
<polyline points="70,337 143,336 216,337 290,339 363,336 436,338 510,336 583,333 656,336 730,336" fill="none" stroke="#C44E52" stroke-width="2"/>
<polyline points="70,45 143,44 216,44 290,47 363,44 436,45 510,44 583,41 656,43 730,43" fill="none" stroke="#000000" stroke-width="2"/>
<circle cx="70" cy="52" r="3" fill="#0072B2"/>
<circle cx="70" cy="97" r="3" fill="#CC79A7"/>
<circle cx="70" cy="340" r="3" fill="#D55E00"/>
<circle cx="70" cy="295" r="3" fill="#009E73"/>
<circle cx="70" cy="304" r="3" fill="#56B4E9"/>
<circle cx="70" cy="184" r="3" fill="#E69F00"/>
<circle cx="70" cy="337" r="3" fill="#C44E52"/>
<circle cx="70" cy="45" r="3" fill="#000000"/>
<circle cx="143" cy="50" r="3" fill="#0072B2"/>
<circle cx="143" cy="97" r="3" fill="#CC79A7"/>
<circle cx="143" cy="340" r="3" fill="#D55E00"/>
<circle cx="143" cy="295" r="3" fill="#009E73"/>
<circle cx="143" cy="304" r="3" fill="#56B4E9"/>
<circle cx="143" cy="184" r="3" fill="#E69F00"/>
<circle cx="143" cy="336" r="3" fill="#C44E52"/>
<circle cx="143" cy="44" r="3" fill="#000000"/>
<circle cx="216" cy="55" r="3" fill="#0072B2"/>
<circle cx="216" cy="99" r="3" fill="#CC79A7"/>
<circle cx="216" cy="340" r="3" fill="#D55E00"/>
<circle cx="216" cy="296" r="3" fill="#009E73"/>
<circle cx="216" cy="304" r="3" fill="#56B4E9"/>
<circle cx="216" cy="184" r="3" fill="#E69F00"/>
<circle cx="216" cy="337" r="3" fill="#C44E52"/>
<circle cx="216" cy="44" r="3" fill="#000000"/>
<circle cx="290" cy="52" r="3" fill="#0072B2"/>
<circle cx="290" cy="98" r="3" fill="#CC79A7"/>
<circle cx="290" cy="340" r="3" fill="#D55E00"/>
<circle cx="290" cy="296" r="3" fill="#009E73"/>
<circle cx="290" cy="304" r="3" fill="#56B4E9"/>
<circle cx="290" cy="184" r="3" fill="#E69F00"/>
<circle cx="290" cy="339" r="3" fill="#C44E52"/>
<circle cx="290" cy="47" r="3" fill="#000000"/>
<circle cx="363" cy="52" r="3" fill="#0072B2"/>
<circle cx="363" cy="97" r="3" fill="#CC79A7"/>
<circle cx="363" cy="340" r="3" fill="#D55E00"/>
<circle cx="363" cy="295" r="3" fill="#009E73"/>
<circle cx="363" cy="304" r="3" fill="#56B4E9"/>
<circle cx="363" cy="184" r="3" fill="#E69F00"/>
<circle cx="363" cy="336" r="3" fill="#C44E52"/>
<circle cx="363" cy="44" r="3" fill="#000000"/>
<circle cx="436" cy="53" r="3" fill="#0072B2"/>
<circle cx="436" cy="98" r="3" fill="#CC79A7"/>
<circle cx="436" cy="340" r="3" fill="#D55E00"/>
<circle cx="436" cy="295" r="3" fill="#009E73"/>
<circle cx="436" cy="304" r="3" fill="#56B4E9"/>
<circle cx="436" cy="184" r="3" fill="#E69F00"/>
<circle cx="436" cy="338" r="3" fill="#C44E52"/>
<circle cx="436" cy="45" r="3" fill="#000000"/>
<circle cx="510" cy="44" r="3" fill="#0072B2"/>
<circle cx="510" cy="90" r="3" fill="#CC79A7"/>
<circle cx="510" cy="340" r="3" fill="#D55E00"/>
<circle cx="510" cy="294" r="3" fill="#009E73"/>
<circle cx="510" cy="304" r="3" fill="#56B4E9"/>
<circle cx="510" cy="183" r="3" fill="#E69F00"/>
<circle cx="510" cy="336" r="3" fill="#C44E52"/>
<circle cx="510" cy="44" r="3" fill="#000000"/>
<circle cx="583" cy="41" r="3" fill="#0072B2"/>
<circle cx="583" cy="87" r="3" fill="#CC79A7"/>
<circle cx="583" cy="340" r="3" fill="#D55E00"/>
<circle cx="583" cy="294" r="3" fill="#009E73"/>
<circle cx="583" cy="304" r="3" fill="#56B4E9"/>
<circle cx="583" cy="183" r="3" fill="#E69F00"/>
<circle cx="583" cy="333" r="3" fill="#C44E52"/>
<circle cx="583" cy="41" r="3" fill="#000000"/>
<circle cx="656" cy="58" r="3" fill="#0072B2"/>
<circle cx="656" cy="103" r="3" fill="#CC79A7"/>
<circle cx="656" cy="340" r="3" fill="#D55E00"/>
<circle cx="656" cy="296" r="3" fill="#009E73"/>
<circle cx="656" cy="304" r="3" fill="#56B4E9"/>
<circle cx="656" cy="182" r="3" fill="#E69F00"/>
<circle cx="656" cy="336" r="3" fill="#C44E52"/>
<circle cx="656" cy="43" r="3" fill="#000000"/>
<circle cx="730" cy="57" r="3" fill="#0072B2"/>
<circle cx="730" cy="99" r="3" fill="#CC79A7"/>
<circle cx="730" cy="340" r="3" fill="#D55E00"/>
<circle cx="730" cy="295" r="3" fill="#009E73"/>
<circle cx="730" cy="304" r="3" fill="#56B4E9"/>
<circle cx="730" cy="183" r="3" fill="#E69F00"/>
<circle cx="730" cy="336" r="3" fill="#C44E52"/>
<circle cx="730" cy="43" r="3" fill="#000000"/>
<circle cx="90" cy="20" r="4" fill="#0072B2"/>
<text x="98" y="24" text-anchor="start" font-size="12" fill="#0072B2">inte</text>
<circle cx="150" cy="20" r="4" fill="#CC79A7"/>
<text x="158" y="24" text-anchor="start" font-size="12" fill="#CC79A7">comp</text>
<circle cx="215" cy="20" r="4" fill="#D55E00"/>
<text x="223" y="24" text-anchor="start" font-size="12" fill="#D55E00">run</text>
<circle cx="270" cy="20" r="4" fill="#009E73"/>
<text x="278" y="24" text-anchor="start" font-size="12" fill="#009E73">wall</text>
<circle cx="335" cy="20" r="4" fill="#56B4E9"/>
<text x="343" y="24" text-anchor="start" font-size="12" fill="#56B4E9">mem-inte</text>
<circle cx="425" cy="20" r="4" fill="#E69F00"/>
<text x="433" y="24" text-anchor="start" font-size="12" fill="#E69F00">mem-comp</text>
<circle cx="520" cy="20" r="4" fill="#C44E52"/>
<text x="528" y="24" text-anchor="start" font-size="12" fill="#C44E52">mem-run</text>
<circle cx="605" cy="20" r="4" fill="#000000"/>
<text x="613" y="24" text-anchor="start" font-size="12" fill="#000000">mem-total</text>
</svg>
