<svg width="800" height="400" xmlns="http://www.w3.org/2000/svg">
<rect width="800" height="400" fill="white"/>
<line x1="70" y1="40" x2="70" y2="340" stroke="#333" stroke-width="1"/>
<line x1="70" y1="340" x2="730" y2="340" stroke="#333" stroke-width="1"/>
<line x1="730" y1="40" x2="730" y2="340" stroke="#333" stroke-width="1"/>
<text x="65" y="344" text-anchor="end" font-size="11" fill="#333">0</text>
<text x="65" y="194" text-anchor="end" font-size="11" fill="#333">106000</text>
<text x="65" y="44" text-anchor="end" font-size="11" fill="#333">212000</text>
<text x="15" y="190" text-anchor="middle" font-size="12" fill="#333" transform="rotate(-90 15 190)">ms</text>
<text x="735" y="344" text-anchor="start" font-size="11" fill="#333">0</text>
<text x="735" y="194" text-anchor="start" font-size="11" fill="#333">8587000000</text>
<text x="735" y="44" text-anchor="start" font-size="11" fill="#333">17174000000</text>
<text x="785" y="190" text-anchor="middle" font-size="12" fill="#333" transform="rotate(90 785 190)">bytes</text>
<polyline points="70,49 143,72 216,72 290,69 363,72 436,71 510,71 583,72 656,74 730,56" fill="none" stroke="#0072B2" stroke-width="2"/>
<polyline points="70,44 143,60 216,59 290,58 363,59 436,58 510,59 583,58 656,59 730,41" fill="none" stroke="#CC79A7" stroke-width="2"/>
<polyline points="70,340 143,340 216,340 290,340 363,340 436,340 510,340 583,340 656,340 730,340" fill="none" stroke="#D55E00" stroke-width="2"/>
<polyline points="70,299 143,301 216,301 290,301 363,301 436,301 510,301 583,301 656,301 730,298" fill="none" stroke="#009E73" stroke-width="2"/>
<polyline points="70,286 143,286 216,286 290,286 363,284 436,284 510,284 583,284 656,284 730,282" fill="none" stroke="#56B4E9" stroke-width="2"/>
<polyline points="70,219 143,219 216,219 290,219 363,218 436,217 510,217 583,217 656,218 730,214" fill="none" stroke="#E69F00" stroke-width="2"/>
<polyline points="70,340 143,340 216,340 290,340 363,340 436,340 510,340 583,340 656,340 730,340" fill="none" stroke="#C44E52" stroke-width="2"/>
<polyline points="70,57 143,57 216,55 290,56 363,49 436,50 510,52 583,50 656,51 730,41" fill="none" stroke="#000000" stroke-width="2"/>
<circle cx="70" cy="49" r="3" fill="#0072B2"/>
<circle cx="70" cy="44" r="3" fill="#CC79A7"/>
<circle cx="70" cy="340" r="3" fill="#D55E00"/>
<circle cx="70" cy="299" r="3" fill="#009E73"/>
<circle cx="70" cy="286" r="3" fill="#56B4E9"/>
<circle cx="70" cy="219" r="3" fill="#E69F00"/>
<circle cx="70" cy="340" r="3" fill="#C44E52"/>
<circle cx="70" cy="57" r="3" fill="#000000"/>
<circle cx="143" cy="72" r="3" fill="#0072B2"/>
<circle cx="143" cy="60" r="3" fill="#CC79A7"/>
<circle cx="143" cy="340" r="3" fill="#D55E00"/>
<circle cx="143" cy="301" r="3" fill="#009E73"/>
<circle cx="143" cy="286" r="3" fill="#56B4E9"/>
<circle cx="143" cy="219" r="3" fill="#E69F00"/>
<circle cx="143" cy="340" r="3" fill="#C44E52"/>
<circle cx="143" cy="57" r="3" fill="#000000"/>
<circle cx="216" cy="72" r="3" fill="#0072B2"/>
<circle cx="216" cy="59" r="3" fill="#CC79A7"/>
<circle cx="216" cy="340" r="3" fill="#D55E00"/>
<circle cx="216" cy="301" r="3" fill="#009E73"/>
<circle cx="216" cy="286" r="3" fill="#56B4E9"/>
<circle cx="216" cy="219" r="3" fill="#E69F00"/>
<circle cx="216" cy="340" r="3" fill="#C44E52"/>
<circle cx="216" cy="55" r="3" fill="#000000"/>
<circle cx="290" cy="69" r="3" fill="#0072B2"/>
<circle cx="290" cy="58" r="3" fill="#CC79A7"/>
<circle cx="290" cy="340" r="3" fill="#D55E00"/>
<circle cx="290" cy="301" r="3" fill="#009E73"/>
<circle cx="290" cy="286" r="3" fill="#56B4E9"/>
<circle cx="290" cy="219" r="3" fill="#E69F00"/>
<circle cx="290" cy="340" r="3" fill="#C44E52"/>
<circle cx="290" cy="56" r="3" fill="#000000"/>
<circle cx="363" cy="72" r="3" fill="#0072B2"/>
<circle cx="363" cy="59" r="3" fill="#CC79A7"/>
<circle cx="363" cy="340" r="3" fill="#D55E00"/>
<circle cx="363" cy="301" r="3" fill="#009E73"/>
<circle cx="363" cy="284" r="3" fill="#56B4E9"/>
<circle cx="363" cy="218" r="3" fill="#E69F00"/>
<circle cx="363" cy="340" r="3" fill="#C44E52"/>
<circle cx="363" cy="49" r="3" fill="#000000"/>
<circle cx="436" cy="71" r="3" fill="#0072B2"/>
<circle cx="436" cy="58" r="3" fill="#CC79A7"/>
<circle cx="436" cy="340" r="3" fill="#D55E00"/>
<circle cx="436" cy="301" r="3" fill="#009E73"/>
<circle cx="436" cy="284" r="3" fill="#56B4E9"/>
<circle cx="436" cy="217" r="3" fill="#E69F00"/>
<circle cx="436" cy="340" r="3" fill="#C44E52"/>
<circle cx="436" cy="50" r="3" fill="#000000"/>
<circle cx="510" cy="71" r="3" fill="#0072B2"/>
<circle cx="510" cy="59" r="3" fill="#CC79A7"/>
<circle cx="510" cy="340" r="3" fill="#D55E00"/>
<circle cx="510" cy="301" r="3" fill="#009E73"/>
<circle cx="510" cy="284" r="3" fill="#56B4E9"/>
<circle cx="510" cy="217" r="3" fill="#E69F00"/>
<circle cx="510" cy="340" r="3" fill="#C44E52"/>
<circle cx="510" cy="52" r="3" fill="#000000"/>
<circle cx="583" cy="72" r="3" fill="#0072B2"/>
<circle cx="583" cy="58" r="3" fill="#CC79A7"/>
<circle cx="583" cy="340" r="3" fill="#D55E00"/>
<circle cx="583" cy="301" r="3" fill="#009E73"/>
<circle cx="583" cy="284" r="3" fill="#56B4E9"/>
<circle cx="583" cy="217" r="3" fill="#E69F00"/>
<circle cx="583" cy="340" r="3" fill="#C44E52"/>
<circle cx="583" cy="50" r="3" fill="#000000"/>
<circle cx="656" cy="74" r="3" fill="#0072B2"/>
<circle cx="656" cy="59" r="3" fill="#CC79A7"/>
<circle cx="656" cy="340" r="3" fill="#D55E00"/>
<circle cx="656" cy="301" r="3" fill="#009E73"/>
<circle cx="656" cy="284" r="3" fill="#56B4E9"/>
<circle cx="656" cy="218" r="3" fill="#E69F00"/>
<circle cx="656" cy="340" r="3" fill="#C44E52"/>
<circle cx="656" cy="51" r="3" fill="#000000"/>
<circle cx="730" cy="56" r="3" fill="#0072B2"/>
<circle cx="730" cy="41" r="3" fill="#CC79A7"/>
<circle cx="730" cy="340" r="3" fill="#D55E00"/>
<circle cx="730" cy="298" r="3" fill="#009E73"/>
<circle cx="730" cy="282" r="3" fill="#56B4E9"/>
<circle cx="730" cy="214" r="3" fill="#E69F00"/>
<circle cx="730" cy="340" r="3" fill="#C44E52"/>
<circle cx="730" cy="41" r="3" fill="#000000"/>
<circle cx="90" cy="20" r="4" fill="#0072B2"/>
<text x="98" y="24" text-anchor="start" font-size="12" fill="#0072B2">inte</text>
<circle cx="150" cy="20" r="4" fill="#CC79A7"/>
<text x="158" y="24" text-anchor="start" font-size="12" fill="#CC79A7">comp</text>
<circle cx="215" cy="20" r="4" fill="#D55E00"/>
<text x="223" y="24" text-anchor="start" font-size="12" fill="#D55E00">run</text>
<circle cx="270" cy="20" r="4" fill="#009E73"/>
<text x="278" y="24" text-anchor="start" font-size="12" fill="#009E73">wall</text>
<circle cx="335" cy="20" r="4" fill="#56B4E9"/>
<text x="343" y="24" text-anchor="start" font-size="12" fill="#56B4E9">mem-inte</text>
<circle cx="425" cy="20" r="4" fill="#E69F00"/>
<text x="433" y="24" text-anchor="start" font-size="12" fill="#E69F00">mem-comp</text>
<circle cx="520" cy="20" r="4" fill="#C44E52"/>
<text x="528" y="24" text-anchor="start" font-size="12" fill="#C44E52">mem-run</text>
<circle cx="605" cy="20" r="4" fill="#000000"/>
<text x="613" y="24" text-anchor="start" font-size="12" fill="#000000">mem-total</text>
</svg>
