<svg width="800" height="400" xmlns="http://www.w3.org/2000/svg">
<rect width="800" height="400" fill="white"/>
<line x1="70" y1="40" x2="70" y2="340" stroke="#333" stroke-width="1"/>
<line x1="70" y1="340" x2="730" y2="340" stroke="#333" stroke-width="1"/>
<line x1="730" y1="40" x2="730" y2="340" stroke="#333" stroke-width="1"/>
<text x="65" y="344" text-anchor="end" font-size="11" fill="#333">0</text>
<text x="65" y="194" text-anchor="end" font-size="11" fill="#333">142000</text>
<text x="65" y="44" text-anchor="end" font-size="11" fill="#333">284000</text>
<text x="15" y="190" text-anchor="middle" font-size="12" fill="#333" transform="rotate(-90 15 190)">ms</text>
<text x="735" y="344" text-anchor="start" font-size="11" fill="#333">0</text>
<text x="735" y="194" text-anchor="start" font-size="11" fill="#333">7836000000</text>
<text x="735" y="44" text-anchor="start" font-size="11" fill="#333">15672000000</text>
<text x="785" y="190" text-anchor="middle" font-size="12" fill="#333" transform="rotate(90 785 190)">bytes</text>
<polyline points="70,42 143,43 216,41 290,46 363,45 436,43 510,50 583,47 656,45 730,48" fill="none" stroke="#0072B2" stroke-width="2"/>
<polyline points="70,71 143,72 216,68 290,74 363,76 436,74 510,76 583,74 656,76 730,75" fill="none" stroke="#CC79A7" stroke-width="2"/>
<polyline points="70,340 143,340 216,340 290,340 363,340 436,340 510,340 583,340 656,340 730,340" fill="none" stroke="#D55E00" stroke-width="2"/>
<polyline points="70,288 143,288 216,287 290,288 363,289 436,288 510,289 583,288 656,289 730,289" fill="none" stroke="#009E73" stroke-width="2"/>
<polyline points="70,292 143,292 216,292 290,292 363,292 436,292 510,292 583,292 656,292 730,292" fill="none" stroke="#56B4E9" stroke-width="2"/>
<polyline points="70,213 143,213 216,213 290,213 363,213 436,213 510,213 583,213 656,213 730,213" fill="none" stroke="#E69F00" stroke-width="2"/>
<polyline points="70,338 143,339 216,339 290,339 363,339 436,340 510,340 583,340 656,340 730,340" fill="none" stroke="#C44E52" stroke-width="2"/>
<polyline points="70,43 143,42 216,43 290,43 363,41 436,44 510,44 583,44 656,44 730,43" fill="none" stroke="#000000" stroke-width="2"/>
<circle cx="70" cy="42" r="3" fill="#0072B2"/>
<circle cx="70" cy="71" r="3" fill="#CC79A7"/>
<circle cx="70" cy="340" r="3" fill="#D55E00"/>
<circle cx="70" cy="288" r="3" fill="#009E73"/>
<circle cx="70" cy="292" r="3" fill="#56B4E9"/>
<circle cx="70" cy="213" r="3" fill="#E69F00"/>
<circle cx="70" cy="338" r="3" fill="#C44E52"/>
<circle cx="70" cy="43" r="3" fill="#000000"/>
<circle cx="143" cy="43" r="3" fill="#0072B2"/>
<circle cx="143" cy="72" r="3" fill="#CC79A7"/>
<circle cx="143" cy="340" r="3" fill="#D55E00"/>
<circle cx="143" cy="288" r="3" fill="#009E73"/>
<circle cx="143" cy="292" r="3" fill="#56B4E9"/>
<circle cx="143" cy="213" r="3" fill="#E69F00"/>
<circle cx="143" cy="339" r="3" fill="#C44E52"/>
<circle cx="143" cy="42" r="3" fill="#000000"/>
<circle cx="216" cy="41" r="3" fill="#0072B2"/>
<circle cx="216" cy="68" r="3" fill="#CC79A7"/>
<circle cx="216" cy="340" r="3" fill="#D55E00"/>
<circle cx="216" cy="287" r="3" fill="#009E73"/>
<circle cx="216" cy="292" r="3" fill="#56B4E9"/>
<circle cx="216" cy="213" r="3" fill="#E69F00"/>
<circle cx="216" cy="339" r="3" fill="#C44E52"/>
<circle cx="216" cy="43" r="3" fill="#000000"/>
<circle cx="290" cy="46" r="3" fill="#0072B2"/>
<circle cx="290" cy="74" r="3" fill="#CC79A7"/>
<circle cx="290" cy="340" r="3" fill="#D55E00"/>
<circle cx="290" cy="288" r="3" fill="#009E73"/>
<circle cx="290" cy="292" r="3" fill="#56B4E9"/>
<circle cx="290" cy="213" r="3" fill="#E69F00"/>
<circle cx="290" cy="339" r="3" fill="#C44E52"/>
<circle cx="290" cy="43" r="3" fill="#000000"/>
<circle cx="363" cy="45" r="3" fill="#0072B2"/>
<circle cx="363" cy="76" r="3" fill="#CC79A7"/>
<circle cx="363" cy="340" r="3" fill="#D55E00"/>
<circle cx="363" cy="289" r="3" fill="#009E73"/>
<circle cx="363" cy="292" r="3" fill="#56B4E9"/>
<circle cx="363" cy="213" r="3" fill="#E69F00"/>
<circle cx="363" cy="339" r="3" fill="#C44E52"/>
<circle cx="363" cy="41" r="3" fill="#000000"/>
<circle cx="436" cy="43" r="3" fill="#0072B2"/>
<circle cx="436" cy="74" r="3" fill="#CC79A7"/>
<circle cx="436" cy="340" r="3" fill="#D55E00"/>
<circle cx="436" cy="288" r="3" fill="#009E73"/>
<circle cx="436" cy="292" r="3" fill="#56B4E9"/>
<circle cx="436" cy="213" r="3" fill="#E69F00"/>
<circle cx="436" cy="340" r="3" fill="#C44E52"/>
<circle cx="436" cy="44" r="3" fill="#000000"/>
<circle cx="510" cy="50" r="3" fill="#0072B2"/>
<circle cx="510" cy="76" r="3" fill="#CC79A7"/>
<circle cx="510" cy="340" r="3" fill="#D55E00"/>
<circle cx="510" cy="289" r="3" fill="#009E73"/>
<circle cx="510" cy="292" r="3" fill="#56B4E9"/>
<circle cx="510" cy="213" r="3" fill="#E69F00"/>
<circle cx="510" cy="340" r="3" fill="#C44E52"/>
<circle cx="510" cy="44" r="3" fill="#000000"/>
<circle cx="583" cy="47" r="3" fill="#0072B2"/>
<circle cx="583" cy="74" r="3" fill="#CC79A7"/>
<circle cx="583" cy="340" r="3" fill="#D55E00"/>
<circle cx="583" cy="288" r="3" fill="#009E73"/>
<circle cx="583" cy="292" r="3" fill="#56B4E9"/>
<circle cx="583" cy="213" r="3" fill="#E69F00"/>
<circle cx="583" cy="340" r="3" fill="#C44E52"/>
<circle cx="583" cy="44" r="3" fill="#000000"/>
<circle cx="656" cy="45" r="3" fill="#0072B2"/>
<circle cx="656" cy="76" r="3" fill="#CC79A7"/>
<circle cx="656" cy="340" r="3" fill="#D55E00"/>
<circle cx="656" cy="289" r="3" fill="#009E73"/>
<circle cx="656" cy="292" r="3" fill="#56B4E9"/>
<circle cx="656" cy="213" r="3" fill="#E69F00"/>
<circle cx="656" cy="340" r="3" fill="#C44E52"/>
<circle cx="656" cy="44" r="3" fill="#000000"/>
<circle cx="730" cy="48" r="3" fill="#0072B2"/>
<circle cx="730" cy="75" r="3" fill="#CC79A7"/>
<circle cx="730" cy="340" r="3" fill="#D55E00"/>
<circle cx="730" cy="289" r="3" fill="#009E73"/>
<circle cx="730" cy="292" r="3" fill="#56B4E9"/>
<circle cx="730" cy="213" r="3" fill="#E69F00"/>
<circle cx="730" cy="340" r="3" fill="#C44E52"/>
<circle cx="730" cy="43" r="3" fill="#000000"/>
<circle cx="90" cy="20" r="4" fill="#0072B2"/>
<text x="98" y="24" text-anchor="start" font-size="12" fill="#0072B2">inte</text>
<circle cx="150" cy="20" r="4" fill="#CC79A7"/>
<text x="158" y="24" text-anchor="start" font-size="12" fill="#CC79A7">comp</text>
<circle cx="215" cy="20" r="4" fill="#D55E00"/>
<text x="223" y="24" text-anchor="start" font-size="12" fill="#D55E00">run</text>
<circle cx="270" cy="20" r="4" fill="#009E73"/>
<text x="278" y="24" text-anchor="start" font-size="12" fill="#009E73">wall</text>
<circle cx="335" cy="20" r="4" fill="#56B4E9"/>
<text x="343" y="24" text-anchor="start" font-size="12" fill="#56B4E9">mem-inte</text>
<circle cx="425" cy="20" r="4" fill="#E69F00"/>
<text x="433" y="24" text-anchor="start" font-size="12" fill="#E69F00">mem-comp</text>
<circle cx="520" cy="20" r="4" fill="#C44E52"/>
<text x="528" y="24" text-anchor="start" font-size="12" fill="#C44E52">mem-run</text>
<circle cx="605" cy="20" r="4" fill="#000000"/>
<text x="613" y="24" text-anchor="start" font-size="12" fill="#000000">mem-total</text>
</svg>
