<svg width="800" height="400" xmlns="http://www.w3.org/2000/svg">
<rect width="800" height="400" fill="white"/>
<line x1="70" y1="40" x2="70" y2="340" stroke="#333" stroke-width="1"/>
<line x1="70" y1="340" x2="730" y2="340" stroke="#333" stroke-width="1"/>
<line x1="730" y1="40" x2="730" y2="340" stroke="#333" stroke-width="1"/>
<text x="65" y="344" text-anchor="end" font-size="11" fill="#333">0</text>
<text x="65" y="194" text-anchor="end" font-size="11" fill="#333">103500</text>
<text x="65" y="44" text-anchor="end" font-size="11" fill="#333">207000</text>
<text x="15" y="190" text-anchor="middle" font-size="12" fill="#333" transform="rotate(-90 15 190)">ms</text>
<text x="735" y="344" text-anchor="start" font-size="11" fill="#333">0</text>
<text x="735" y="194" text-anchor="start" font-size="11" fill="#333">6257000000</text>
<text x="735" y="44" text-anchor="start" font-size="11" fill="#333">12514000000</text>
<text x="785" y="190" text-anchor="middle" font-size="12" fill="#333" transform="rotate(90 785 190)">bytes</text>
<polyline points="70,157 143,172 216,73 290,77 363,79 436,170 510,172 583,160 656,151 730,157" fill="none" stroke="#0072B2" stroke-width="2"/>
<polyline points="70,137 143,152 216,41 290,41 363,43 436,153 510,153 583,138 656,129 730,136" fill="none" stroke="#CC79A7" stroke-width="2"/>
<polyline points="70,340 143,340 216,340 290,340 363,340 436,340 510,340 583,340 656,340 730,340" fill="none" stroke="#D55E00" stroke-width="2"/>
<polyline points="70,164 143,178 216,92 290,80 363,70 436,177 510,178 583,165 656,159 730,164" fill="none" stroke="#009E73" stroke-width="2"/>
<polyline points="70,252 143,252 216,252 290,252 363,252 436,252 510,252 583,252 656,252 730,251" fill="none" stroke="#56B4E9" stroke-width="2"/>
<polyline points="70,198 143,200 216,194 290,200 363,200 436,199 510,199 583,194 656,194 730,197" fill="none" stroke="#E69F00" stroke-width="2"/>
<polyline points="70,340 143,340 216,340 290,340 363,340 436,340 510,340 583,340 656,340 730,340" fill="none" stroke="#C44E52" stroke-width="2"/>
<polyline points="70,47 143,52 216,46 290,50 363,52 436,50 510,50 583,46 656,42 730,41" fill="none" stroke="#000000" stroke-width="2"/>
<circle cx="70" cy="157" r="3" fill="#0072B2"/>
<circle cx="70" cy="137" r="3" fill="#CC79A7"/>
<circle cx="70" cy="340" r="3" fill="#D55E00"/>
<circle cx="70" cy="164" r="3" fill="#009E73"/>
<circle cx="70" cy="252" r="3" fill="#56B4E9"/>
<circle cx="70" cy="198" r="3" fill="#E69F00"/>
<circle cx="70" cy="340" r="3" fill="#C44E52"/>
<circle cx="70" cy="47" r="3" fill="#000000"/>
<circle cx="143" cy="172" r="3" fill="#0072B2"/>
<circle cx="143" cy="152" r="3" fill="#CC79A7"/>
<circle cx="143" cy="340" r="3" fill="#D55E00"/>
<circle cx="143" cy="178" r="3" fill="#009E73"/>
<circle cx="143" cy="252" r="3" fill="#56B4E9"/>
<circle cx="143" cy="200" r="3" fill="#E69F00"/>
<circle cx="143" cy="340" r="3" fill="#C44E52"/>
<circle cx="143" cy="52" r="3" fill="#000000"/>
<circle cx="216" cy="73" r="3" fill="#0072B2"/>
<circle cx="216" cy="41" r="3" fill="#CC79A7"/>
<circle cx="216" cy="340" r="3" fill="#D55E00"/>
<circle cx="216" cy="92" r="3" fill="#009E73"/>
<circle cx="216" cy="252" r="3" fill="#56B4E9"/>
<circle cx="216" cy="194" r="3" fill="#E69F00"/>
<circle cx="216" cy="340" r="3" fill="#C44E52"/>
<circle cx="216" cy="46" r="3" fill="#000000"/>
<circle cx="290" cy="77" r="3" fill="#0072B2"/>
<circle cx="290" cy="41" r="3" fill="#CC79A7"/>
<circle cx="290" cy="340" r="3" fill="#D55E00"/>
<circle cx="290" cy="80" r="3" fill="#009E73"/>
<circle cx="290" cy="252" r="3" fill="#56B4E9"/>
<circle cx="290" cy="200" r="3" fill="#E69F00"/>
<circle cx="290" cy="340" r="3" fill="#C44E52"/>
<circle cx="290" cy="50" r="3" fill="#000000"/>
<circle cx="363" cy="79" r="3" fill="#0072B2"/>
<circle cx="363" cy="43" r="3" fill="#CC79A7"/>
<circle cx="363" cy="340" r="3" fill="#D55E00"/>
<circle cx="363" cy="70" r="3" fill="#009E73"/>
<circle cx="363" cy="252" r="3" fill="#56B4E9"/>
<circle cx="363" cy="200" r="3" fill="#E69F00"/>
<circle cx="363" cy="340" r="3" fill="#C44E52"/>
<circle cx="363" cy="52" r="3" fill="#000000"/>
<circle cx="436" cy="170" r="3" fill="#0072B2"/>
<circle cx="436" cy="153" r="3" fill="#CC79A7"/>
<circle cx="436" cy="340" r="3" fill="#D55E00"/>
<circle cx="436" cy="177" r="3" fill="#009E73"/>
<circle cx="436" cy="252" r="3" fill="#56B4E9"/>
<circle cx="436" cy="199" r="3" fill="#E69F00"/>
<circle cx="436" cy="340" r="3" fill="#C44E52"/>
<circle cx="436" cy="50" r="3" fill="#000000"/>
<circle cx="510" cy="172" r="3" fill="#0072B2"/>
<circle cx="510" cy="153" r="3" fill="#CC79A7"/>
<circle cx="510" cy="340" r="3" fill="#D55E00"/>
<circle cx="510" cy="178" r="3" fill="#009E73"/>
<circle cx="510" cy="252" r="3" fill="#56B4E9"/>
<circle cx="510" cy="199" r="3" fill="#E69F00"/>
<circle cx="510" cy="340" r="3" fill="#C44E52"/>
<circle cx="510" cy="50" r="3" fill="#000000"/>
<circle cx="583" cy="160" r="3" fill="#0072B2"/>
<circle cx="583" cy="138" r="3" fill="#CC79A7"/>
<circle cx="583" cy="340" r="3" fill="#D55E00"/>
<circle cx="583" cy="165" r="3" fill="#009E73"/>
<circle cx="583" cy="252" r="3" fill="#56B4E9"/>
<circle cx="583" cy="194" r="3" fill="#E69F00"/>
<circle cx="583" cy="340" r="3" fill="#C44E52"/>
<circle cx="583" cy="46" r="3" fill="#000000"/>
<circle cx="656" cy="151" r="3" fill="#0072B2"/>
<circle cx="656" cy="129" r="3" fill="#CC79A7"/>
<circle cx="656" cy="340" r="3" fill="#D55E00"/>
<circle cx="656" cy="159" r="3" fill="#009E73"/>
<circle cx="656" cy="252" r="3" fill="#56B4E9"/>
<circle cx="656" cy="194" r="3" fill="#E69F00"/>
<circle cx="656" cy="340" r="3" fill="#C44E52"/>
<circle cx="656" cy="42" r="3" fill="#000000"/>
<circle cx="730" cy="157" r="3" fill="#0072B2"/>
<circle cx="730" cy="136" r="3" fill="#CC79A7"/>
<circle cx="730" cy="340" r="3" fill="#D55E00"/>
<circle cx="730" cy="164" r="3" fill="#009E73"/>
<circle cx="730" cy="251" r="3" fill="#56B4E9"/>
<circle cx="730" cy="197" r="3" fill="#E69F00"/>
<circle cx="730" cy="340" r="3" fill="#C44E52"/>
<circle cx="730" cy="41" r="3" fill="#000000"/>
<circle cx="90" cy="20" r="4" fill="#0072B2"/>
<text x="98" y="24" text-anchor="start" font-size="12" fill="#0072B2">inte</text>
<circle cx="150" cy="20" r="4" fill="#CC79A7"/>
<text x="158" y="24" text-anchor="start" font-size="12" fill="#CC79A7">comp</text>
<circle cx="215" cy="20" r="4" fill="#D55E00"/>
<text x="223" y="24" text-anchor="start" font-size="12" fill="#D55E00">run</text>
<circle cx="270" cy="20" r="4" fill="#009E73"/>
<text x="278" y="24" text-anchor="start" font-size="12" fill="#009E73">wall</text>
<circle cx="335" cy="20" r="4" fill="#56B4E9"/>
<text x="343" y="24" text-anchor="start" font-size="12" fill="#56B4E9">mem-inte</text>
<circle cx="425" cy="20" r="4" fill="#E69F00"/>
<text x="433" y="24" text-anchor="start" font-size="12" fill="#E69F00">mem-comp</text>
<circle cx="520" cy="20" r="4" fill="#C44E52"/>
<text x="528" y="24" text-anchor="start" font-size="12" fill="#C44E52">mem-run</text>
<circle cx="605" cy="20" r="4" fill="#000000"/>
<text x="613" y="24" text-anchor="start" font-size="12" fill="#000000">mem-total</text>
</svg>
