<svg width="800" height="400" xmlns="http://www.w3.org/2000/svg">
<rect width="800" height="400" fill="white"/>
<line x1="70" y1="40" x2="70" y2="340" stroke="#333" stroke-width="1"/>
<line x1="70" y1="340" x2="780" y2="340" stroke="#333" stroke-width="1"/>
<text x="65" y="344" text-anchor="end" font-size="11" fill="#333">0</text>
<text x="65" y="194" text-anchor="end" font-size="11" fill="#333">128000</text>
<text x="65" y="44" text-anchor="end" font-size="11" fill="#333">256000</text>
<text x="15" y="190" text-anchor="middle" font-size="12" fill="#333" transform="rotate(-90 15 190)">ms</text>
<polyline points="70,271 148,270 227,270 306,267 385,267 464,267 543,266 622,267 701,266 780,266" fill="none" stroke="#0072B2" stroke-width="2"/>
<polyline points="70,315 148,314 227,314 306,314 385,314 464,313 543,313 622,313 701,313 780,313" fill="none" stroke="#D55E00" stroke-width="2"/>
<polyline points="70,273 148,273 227,272 306,271 385,271 464,271 543,272 622,272 701,271 780,272" fill="none" stroke="#CC79A7" stroke-width="2"/>
<polyline points="70,318 148,317 227,317 306,314 385,314 464,314 543,314 622,315 701,314 780,315" fill="none" stroke="#E69F00" stroke-width="2"/>
<polyline points="70,48 148,44 227,42 306,282 385,282 464,283 543,282 622,284 701,282 780,283" fill="none" stroke="#009E73" stroke-width="2"/>
<circle cx="70" cy="271" r="3" fill="#0072B2"/>
<circle cx="70" cy="315" r="3" fill="#D55E00"/>
<circle cx="70" cy="273" r="3" fill="#CC79A7"/>
<circle cx="70" cy="318" r="3" fill="#E69F00"/>
<circle cx="70" cy="48" r="3" fill="#009E73"/>
<circle cx="148" cy="270" r="3" fill="#0072B2"/>
<circle cx="148" cy="314" r="3" fill="#D55E00"/>
<circle cx="148" cy="273" r="3" fill="#CC79A7"/>
<circle cx="148" cy="317" r="3" fill="#E69F00"/>
<circle cx="148" cy="44" r="3" fill="#009E73"/>
<circle cx="227" cy="270" r="3" fill="#0072B2"/>
<circle cx="227" cy="314" r="3" fill="#D55E00"/>
<circle cx="227" cy="272" r="3" fill="#CC79A7"/>
<circle cx="227" cy="317" r="3" fill="#E69F00"/>
<circle cx="227" cy="42" r="3" fill="#009E73"/>
<circle cx="306" cy="267" r="3" fill="#0072B2"/>
<circle cx="306" cy="314" r="3" fill="#D55E00"/>
<circle cx="306" cy="271" r="3" fill="#CC79A7"/>
<circle cx="306" cy="314" r="3" fill="#E69F00"/>
<circle cx="306" cy="282" r="3" fill="#009E73"/>
<circle cx="385" cy="267" r="3" fill="#0072B2"/>
<circle cx="385" cy="314" r="3" fill="#D55E00"/>
<circle cx="385" cy="271" r="3" fill="#CC79A7"/>
<circle cx="385" cy="314" r="3" fill="#E69F00"/>
<circle cx="385" cy="282" r="3" fill="#009E73"/>
<circle cx="464" cy="267" r="3" fill="#0072B2"/>
<circle cx="464" cy="313" r="3" fill="#D55E00"/>
<circle cx="464" cy="271" r="3" fill="#CC79A7"/>
<circle cx="464" cy="314" r="3" fill="#E69F00"/>
<circle cx="464" cy="283" r="3" fill="#009E73"/>
<circle cx="543" cy="266" r="3" fill="#0072B2"/>
<circle cx="543" cy="313" r="3" fill="#D55E00"/>
<circle cx="543" cy="272" r="3" fill="#CC79A7"/>
<circle cx="543" cy="314" r="3" fill="#E69F00"/>
<circle cx="543" cy="282" r="3" fill="#009E73"/>
<circle cx="622" cy="267" r="3" fill="#0072B2"/>
<circle cx="622" cy="313" r="3" fill="#D55E00"/>
<circle cx="622" cy="272" r="3" fill="#CC79A7"/>
<circle cx="622" cy="315" r="3" fill="#E69F00"/>
<circle cx="622" cy="284" r="3" fill="#009E73"/>
<circle cx="701" cy="266" r="3" fill="#0072B2"/>
<circle cx="701" cy="313" r="3" fill="#D55E00"/>
<circle cx="701" cy="271" r="3" fill="#CC79A7"/>
<circle cx="701" cy="314" r="3" fill="#E69F00"/>
<circle cx="701" cy="282" r="3" fill="#009E73"/>
<circle cx="780" cy="266" r="3" fill="#0072B2"/>
<circle cx="780" cy="313" r="3" fill="#D55E00"/>
<circle cx="780" cy="272" r="3" fill="#CC79A7"/>
<circle cx="780" cy="315" r="3" fill="#E69F00"/>
<circle cx="780" cy="283" r="3" fill="#009E73"/>
<circle cx="90" cy="20" r="4" fill="#0072B2"/>
<text x="98" y="24" text-anchor="start" font-size="12" fill="#0072B2">ctil-i</text>
<circle cx="160" cy="20" r="4" fill="#D55E00"/>
<text x="168" y="24" text-anchor="start" font-size="12" fill="#D55E00">ctil-r</text>
<circle cx="230" cy="20" r="4" fill="#CC79A7"/>
<text x="238" y="24" text-anchor="start" font-size="12" fill="#CC79A7">til-i</text>
<circle cx="290" cy="20" r="4" fill="#E69F00"/>
<text x="298" y="24" text-anchor="start" font-size="12" fill="#E69F00">til-r</text>
<circle cx="350" cy="20" r="4" fill="#009E73"/>
<text x="358" y="24" text-anchor="start" font-size="12" fill="#009E73">Wall</text>
</svg>
