<svg width="800" height="400" xmlns="http://www.w3.org/2000/svg">
<rect width="800" height="400" fill="white"/>
<line x1="70" y1="40" x2="70" y2="340" stroke="#333" stroke-width="1"/>
<line x1="70" y1="340" x2="730" y2="340" stroke="#333" stroke-width="1"/>
<line x1="730" y1="40" x2="730" y2="340" stroke="#333" stroke-width="1"/>
<text x="65" y="344" text-anchor="end" font-size="11" fill="#333">0</text>
<text x="65" y="194" text-anchor="end" font-size="11" fill="#333">234000</text>
<text x="65" y="44" text-anchor="end" font-size="11" fill="#333">468000</text>
<text x="15" y="190" text-anchor="middle" font-size="12" fill="#333" transform="rotate(-90 15 190)">ms</text>
<text x="735" y="344" text-anchor="start" font-size="11" fill="#333">0</text>
<text x="735" y="194" text-anchor="start" font-size="11" fill="#333">6173000000</text>
<text x="735" y="44" text-anchor="start" font-size="11" fill="#333">12346000000</text>
<text x="785" y="190" text-anchor="middle" font-size="12" fill="#333" transform="rotate(90 785 190)">bytes</text>
<polyline points="70,259 143,258 216,267 290,263 363,265 436,263 510,272 583,264 656,106 730,62" fill="none" stroke="#0072B2" stroke-width="2"/>
<polyline points="70,252 143,251 216,260 290,256 363,258 436,256 510,266 583,255 656,59 730,41" fill="none" stroke="#CC79A7" stroke-width="2"/>
<polyline points="70,340 143,340 216,340 290,340 363,340 436,340 510,340 583,340 656,340 730,340" fill="none" stroke="#D55E00" stroke-width="2"/>
<polyline points="70,263 143,263 216,271 290,264 363,269 436,267 510,275 583,266 656,259 730,250" fill="none" stroke="#009E73" stroke-width="2"/>
<polyline points="70,251 143,251 216,251 290,251 363,251 436,251 510,251 583,251 656,249 730,249" fill="none" stroke="#56B4E9" stroke-width="2"/>
<polyline points="70,205 143,204 216,207 290,206 363,203 436,203 510,206 583,207 656,201 730,191" fill="none" stroke="#E69F00" stroke-width="2"/>
<polyline points="70,340 143,340 216,340 290,340 363,340 436,340 510,340 583,340 656,340 730,340" fill="none" stroke="#C44E52" stroke-width="2"/>
<polyline points="70,66 143,66 216,67 290,65 363,65 436,62 510,69 583,70 656,53 730,41" fill="none" stroke="#000000" stroke-width="2"/>
<circle cx="70" cy="259" r="3" fill="#0072B2"/>
<circle cx="70" cy="252" r="3" fill="#CC79A7"/>
<circle cx="70" cy="340" r="3" fill="#D55E00"/>
<circle cx="70" cy="263" r="3" fill="#009E73"/>
<circle cx="70" cy="251" r="3" fill="#56B4E9"/>
<circle cx="70" cy="205" r="3" fill="#E69F00"/>
<circle cx="70" cy="340" r="3" fill="#C44E52"/>
<circle cx="70" cy="66" r="3" fill="#000000"/>
<circle cx="143" cy="258" r="3" fill="#0072B2"/>
<circle cx="143" cy="251" r="3" fill="#CC79A7"/>
<circle cx="143" cy="340" r="3" fill="#D55E00"/>
<circle cx="143" cy="263" r="3" fill="#009E73"/>
<circle cx="143" cy="251" r="3" fill="#56B4E9"/>
<circle cx="143" cy="204" r="3" fill="#E69F00"/>
<circle cx="143" cy="340" r="3" fill="#C44E52"/>
<circle cx="143" cy="66" r="3" fill="#000000"/>
<circle cx="216" cy="267" r="3" fill="#0072B2"/>
<circle cx="216" cy="260" r="3" fill="#CC79A7"/>
<circle cx="216" cy="340" r="3" fill="#D55E00"/>
<circle cx="216" cy="271" r="3" fill="#009E73"/>
<circle cx="216" cy="251" r="3" fill="#56B4E9"/>
<circle cx="216" cy="207" r="3" fill="#E69F00"/>
<circle cx="216" cy="340" r="3" fill="#C44E52"/>
<circle cx="216" cy="67" r="3" fill="#000000"/>
<circle cx="290" cy="263" r="3" fill="#0072B2"/>
<circle cx="290" cy="256" r="3" fill="#CC79A7"/>
<circle cx="290" cy="340" r="3" fill="#D55E00"/>
<circle cx="290" cy="264" r="3" fill="#009E73"/>
<circle cx="290" cy="251" r="3" fill="#56B4E9"/>
<circle cx="290" cy="206" r="3" fill="#E69F00"/>
<circle cx="290" cy="340" r="3" fill="#C44E52"/>
<circle cx="290" cy="65" r="3" fill="#000000"/>
<circle cx="363" cy="265" r="3" fill="#0072B2"/>
<circle cx="363" cy="258" r="3" fill="#CC79A7"/>
<circle cx="363" cy="340" r="3" fill="#D55E00"/>
<circle cx="363" cy="269" r="3" fill="#009E73"/>
<circle cx="363" cy="251" r="3" fill="#56B4E9"/>
<circle cx="363" cy="203" r="3" fill="#E69F00"/>
<circle cx="363" cy="340" r="3" fill="#C44E52"/>
<circle cx="363" cy="65" r="3" fill="#000000"/>
<circle cx="436" cy="263" r="3" fill="#0072B2"/>
<circle cx="436" cy="256" r="3" fill="#CC79A7"/>
<circle cx="436" cy="340" r="3" fill="#D55E00"/>
<circle cx="436" cy="267" r="3" fill="#009E73"/>
<circle cx="436" cy="251" r="3" fill="#56B4E9"/>
<circle cx="436" cy="203" r="3" fill="#E69F00"/>
<circle cx="436" cy="340" r="3" fill="#C44E52"/>
<circle cx="436" cy="62" r="3" fill="#000000"/>
<circle cx="510" cy="272" r="3" fill="#0072B2"/>
<circle cx="510" cy="266" r="3" fill="#CC79A7"/>
<circle cx="510" cy="340" r="3" fill="#D55E00"/>
<circle cx="510" cy="275" r="3" fill="#009E73"/>
<circle cx="510" cy="251" r="3" fill="#56B4E9"/>
<circle cx="510" cy="206" r="3" fill="#E69F00"/>
<circle cx="510" cy="340" r="3" fill="#C44E52"/>
<circle cx="510" cy="69" r="3" fill="#000000"/>
<circle cx="583" cy="264" r="3" fill="#0072B2"/>
<circle cx="583" cy="255" r="3" fill="#CC79A7"/>
<circle cx="583" cy="340" r="3" fill="#D55E00"/>
<circle cx="583" cy="266" r="3" fill="#009E73"/>
<circle cx="583" cy="251" r="3" fill="#56B4E9"/>
<circle cx="583" cy="207" r="3" fill="#E69F00"/>
<circle cx="583" cy="340" r="3" fill="#C44E52"/>
<circle cx="583" cy="70" r="3" fill="#000000"/>
<circle cx="656" cy="106" r="3" fill="#0072B2"/>
<circle cx="656" cy="59" r="3" fill="#CC79A7"/>
<circle cx="656" cy="340" r="3" fill="#D55E00"/>
<circle cx="656" cy="259" r="3" fill="#009E73"/>
<circle cx="656" cy="249" r="3" fill="#56B4E9"/>
<circle cx="656" cy="201" r="3" fill="#E69F00"/>
<circle cx="656" cy="340" r="3" fill="#C44E52"/>
<circle cx="656" cy="53" r="3" fill="#000000"/>
<circle cx="730" cy="62" r="3" fill="#0072B2"/>
<circle cx="730" cy="41" r="3" fill="#CC79A7"/>
<circle cx="730" cy="340" r="3" fill="#D55E00"/>
<circle cx="730" cy="250" r="3" fill="#009E73"/>
<circle cx="730" cy="249" r="3" fill="#56B4E9"/>
<circle cx="730" cy="191" r="3" fill="#E69F00"/>
<circle cx="730" cy="340" r="3" fill="#C44E52"/>
<circle cx="730" cy="41" r="3" fill="#000000"/>
<circle cx="90" cy="20" r="4" fill="#0072B2"/>
<text x="98" y="24" text-anchor="start" font-size="12" fill="#0072B2">inte</text>
<circle cx="150" cy="20" r="4" fill="#CC79A7"/>
<text x="158" y="24" text-anchor="start" font-size="12" fill="#CC79A7">comp</text>
<circle cx="215" cy="20" r="4" fill="#D55E00"/>
<text x="223" y="24" text-anchor="start" font-size="12" fill="#D55E00">run</text>
<circle cx="270" cy="20" r="4" fill="#009E73"/>
<text x="278" y="24" text-anchor="start" font-size="12" fill="#009E73">wall</text>
<circle cx="335" cy="20" r="4" fill="#56B4E9"/>
<text x="343" y="24" text-anchor="start" font-size="12" fill="#56B4E9">mem-inte</text>
<circle cx="425" cy="20" r="4" fill="#E69F00"/>
<text x="433" y="24" text-anchor="start" font-size="12" fill="#E69F00">mem-comp</text>
<circle cx="520" cy="20" r="4" fill="#C44E52"/>
<text x="528" y="24" text-anchor="start" font-size="12" fill="#C44E52">mem-run</text>
<circle cx="605" cy="20" r="4" fill="#000000"/>
<text x="613" y="24" text-anchor="start" font-size="12" fill="#000000">mem-total</text>
</svg>
