<svg width="800" height="400" xmlns="http://www.w3.org/2000/svg">
<rect width="800" height="400" fill="white"/>
<line x1="70" y1="40" x2="70" y2="340" stroke="#333" stroke-width="1"/>
<line x1="70" y1="340" x2="780" y2="340" stroke="#333" stroke-width="1"/>
<text x="65" y="344" text-anchor="end" font-size="11" fill="#333">0</text>
<text x="65" y="194" text-anchor="end" font-size="11" fill="#333">4000</text>
<text x="65" y="44" text-anchor="end" font-size="11" fill="#333">8000</text>
<text x="15" y="190" text-anchor="middle" font-size="12" fill="#333" transform="rotate(-90 15 190)">ms</text>
<polyline points="70,268 109,266 148,269 188,265 227,269 267,267 306,263 346,265 385,260 425,260 464,265 503,261 543,261 582,265 622,259 661,261 701,262 740,266 780,265" fill="none" stroke="#2196F3" stroke-width="2"/>
<polyline points="70,131 109,132 148,133 188,128 227,130 267,135 306,127 346,127 385,127 425,128 464,128 503,123 543,122 582,128 622,127 661,136 701,130 740,126 780,125" fill="none" stroke="#F44336" stroke-width="2"/>
<polyline points="70,79 109,80 148,80 188,78 227,84 267,71 306,69 346,69 385,66 425,63 464,64 503,65 543,65 582,66 622,66 661,63 701,61 740,61 780,67" fill="none" stroke="#4CAF50" stroke-width="2"/>
<circle cx="70" cy="268" r="3" fill="#2196F3"/>
<circle cx="70" cy="131" r="3" fill="#F44336"/>
<circle cx="70" cy="79" r="3" fill="#4CAF50"/>
<circle cx="109" cy="266" r="3" fill="#2196F3"/>
<circle cx="109" cy="132" r="3" fill="#F44336"/>
<circle cx="109" cy="80" r="3" fill="#4CAF50"/>
<circle cx="148" cy="269" r="3" fill="#2196F3"/>
<circle cx="148" cy="133" r="3" fill="#F44336"/>
<circle cx="148" cy="80" r="3" fill="#4CAF50"/>
<circle cx="188" cy="265" r="3" fill="#2196F3"/>
<circle cx="188" cy="128" r="3" fill="#F44336"/>
<circle cx="188" cy="78" r="3" fill="#4CAF50"/>
<circle cx="227" cy="269" r="3" fill="#2196F3"/>
<circle cx="227" cy="130" r="3" fill="#F44336"/>
<circle cx="227" cy="84" r="3" fill="#4CAF50"/>
<circle cx="267" cy="267" r="3" fill="#2196F3"/>
<circle cx="267" cy="135" r="3" fill="#F44336"/>
<circle cx="267" cy="71" r="3" fill="#4CAF50"/>
<circle cx="306" cy="263" r="3" fill="#2196F3"/>
<circle cx="306" cy="127" r="3" fill="#F44336"/>
<circle cx="306" cy="69" r="3" fill="#4CAF50"/>
<circle cx="346" cy="265" r="3" fill="#2196F3"/>
<circle cx="346" cy="127" r="3" fill="#F44336"/>
<circle cx="346" cy="69" r="3" fill="#4CAF50"/>
<circle cx="385" cy="260" r="3" fill="#2196F3"/>
<circle cx="385" cy="127" r="3" fill="#F44336"/>
<circle cx="385" cy="66" r="3" fill="#4CAF50"/>
<circle cx="425" cy="260" r="3" fill="#2196F3"/>
<circle cx="425" cy="128" r="3" fill="#F44336"/>
<circle cx="425" cy="63" r="3" fill="#4CAF50"/>
<circle cx="464" cy="265" r="3" fill="#2196F3"/>
<circle cx="464" cy="128" r="3" fill="#F44336"/>
<circle cx="464" cy="64" r="3" fill="#4CAF50"/>
<circle cx="503" cy="261" r="3" fill="#2196F3"/>
<circle cx="503" cy="123" r="3" fill="#F44336"/>
<circle cx="503" cy="65" r="3" fill="#4CAF50"/>
<circle cx="543" cy="261" r="3" fill="#2196F3"/>
<circle cx="543" cy="122" r="3" fill="#F44336"/>
<circle cx="543" cy="65" r="3" fill="#4CAF50"/>
<circle cx="582" cy="265" r="3" fill="#2196F3"/>
<circle cx="582" cy="128" r="3" fill="#F44336"/>
<circle cx="582" cy="66" r="3" fill="#4CAF50"/>
<circle cx="622" cy="259" r="3" fill="#2196F3"/>
<circle cx="622" cy="127" r="3" fill="#F44336"/>
<circle cx="622" cy="66" r="3" fill="#4CAF50"/>
<circle cx="661" cy="261" r="3" fill="#2196F3"/>
<circle cx="661" cy="136" r="3" fill="#F44336"/>
<circle cx="661" cy="63" r="3" fill="#4CAF50"/>
<circle cx="701" cy="262" r="3" fill="#2196F3"/>
<circle cx="701" cy="130" r="3" fill="#F44336"/>
<circle cx="701" cy="61" r="3" fill="#4CAF50"/>
<circle cx="740" cy="266" r="3" fill="#2196F3"/>
<circle cx="740" cy="126" r="3" fill="#F44336"/>
<circle cx="740" cy="61" r="3" fill="#4CAF50"/>
<circle cx="780" cy="265" r="3" fill="#2196F3"/>
<circle cx="780" cy="125" r="3" fill="#F44336"/>
<circle cx="780" cy="67" r="3" fill="#4CAF50"/>
<text x="70" y="355" text-anchor="middle" font-size="10" fill="#666">d31c3d3</text>
<text x="109" y="355" text-anchor="middle" font-size="10" fill="#666">577b0f6</text>
<text x="148" y="355" text-anchor="middle" font-size="10" fill="#666">a0e3a8f</text>
<text x="188" y="355" text-anchor="middle" font-size="10" fill="#666">32b7787</text>
<text x="227" y="355" text-anchor="middle" font-size="10" fill="#666">940e369</text>
<text x="267" y="355" text-anchor="middle" font-size="10" fill="#666">78956c1</text>
<text x="306" y="355" text-anchor="middle" font-size="10" fill="#666">1a288e9</text>
<text x="346" y="355" text-anchor="middle" font-size="10" fill="#666">f1c0746</text>
<text x="385" y="355" text-anchor="middle" font-size="10" fill="#666">efad3b5</text>
<text x="425" y="355" text-anchor="middle" font-size="10" fill="#666">d3839be</text>
<text x="464" y="355" text-anchor="middle" font-size="10" fill="#666">a0c21b2</text>
<text x="503" y="355" text-anchor="middle" font-size="10" fill="#666">c3d3d81</text>
<text x="543" y="355" text-anchor="middle" font-size="10" fill="#666">e40d897</text>
<text x="582" y="355" text-anchor="middle" font-size="10" fill="#666">0b1ed97</text>
<text x="622" y="355" text-anchor="middle" font-size="10" fill="#666">6a5ae3f</text>
<text x="661" y="355" text-anchor="middle" font-size="10" fill="#666">59cf448</text>
<text x="701" y="355" text-anchor="middle" font-size="10" fill="#666">42b3e04</text>
<text x="740" y="355" text-anchor="middle" font-size="10" fill="#666">bd9421a</text>
<text x="780" y="355" text-anchor="middle" font-size="10" fill="#666">f80812f</text>
<circle cx="90" cy="20" r="4" fill="#2196F3"/>
<text x="98" y="24" text-anchor="start" font-size="12" fill="#2196F3">Interpreted</text>
<circle cx="200" cy="20" r="4" fill="#F44336"/>
<text x="208" y="24" text-anchor="start" font-size="12" fill="#F44336">Compiled</text>
<circle cx="300" cy="20" r="4" fill="#4CAF50"/>
<text x="308" y="24" text-anchor="start" font-size="12" fill="#4CAF50">Wall-clock</text>
</svg>
