<svg width="800" height="400" xmlns="http://www.w3.org/2000/svg">
<rect width="800" height="400" fill="white"/>
<line x1="70" y1="40" x2="70" y2="340" stroke="#333" stroke-width="1"/>
<line x1="70" y1="340" x2="730" y2="340" stroke="#333" stroke-width="1"/>
<line x1="730" y1="40" x2="730" y2="340" stroke="#333" stroke-width="1"/>
<text x="65" y="344" text-anchor="end" font-size="11" fill="#333">0</text>
<text x="65" y="194" text-anchor="end" font-size="11" fill="#333">102500</text>
<text x="65" y="44" text-anchor="end" font-size="11" fill="#333">205000</text>
<text x="15" y="190" text-anchor="middle" font-size="12" fill="#333" transform="rotate(-90 15 190)">ms</text>
<text x="735" y="344" text-anchor="start" font-size="11" fill="#333">0</text>
<text x="735" y="194" text-anchor="start" font-size="11" fill="#333">11597000000</text>
<text x="735" y="44" text-anchor="start" font-size="11" fill="#333">23194000000</text>
<text x="785" y="190" text-anchor="middle" font-size="12" fill="#333" transform="rotate(90 785 190)">bytes</text>
<polyline points="70,157 143,155 216,150 290,150 363,154 436,151 510,153 583,143 656,142 730,145" fill="none" stroke="#0072B2" stroke-width="2"/>
<polyline points="70,57 143,54 216,46 290,42 363,47 436,41 510,48 583,42 656,45 730,53" fill="none" stroke="#CC79A7" stroke-width="2"/>
<polyline points="70,339 143,339 216,339 290,339 363,340 436,339 510,339 583,339 656,340 730,340" fill="none" stroke="#D55E00" stroke-width="2"/>
<polyline points="70,309 143,309 216,308 290,308 363,308 436,308 510,308 583,307 656,307 730,307" fill="none" stroke="#009E73" stroke-width="2"/>
<polyline points="70,231 143,227 216,222 290,223 363,225 436,224 510,228 583,197 656,195 730,212" fill="none" stroke="#984EA3" stroke-width="2"/>
<polyline points="70,300 143,300 216,300 290,300 363,300 436,300 510,300 583,300 656,288 730,288" fill="none" stroke="#56B4E9" stroke-width="2"/>
<polyline points="70,200 143,200 216,200 290,199 363,199 436,199 510,199 583,200 656,190 730,190" fill="none" stroke="#E69F00" stroke-width="2"/>
<polyline points="70,339 143,340 216,339 290,339 363,340 436,339 510,339 583,339 656,339 730,340" fill="none" stroke="#C44E52" stroke-width="2"/>
<polyline points="70,65 143,64 216,65 290,65 363,65 436,64 510,64 583,65 656,41 730,41" fill="none" stroke="#000000" stroke-width="2"/>
<polyline points="70,333 143,333 216,333 290,333 363,333 436,333 510,333 583,333 656,331 730,331" fill="none" stroke="#8C564B" stroke-width="2"/>
<circle cx="70" cy="157" r="3" fill="#0072B2"/>
<circle cx="70" cy="57" r="3" fill="#CC79A7"/>
<circle cx="70" cy="339" r="3" fill="#D55E00"/>
<circle cx="70" cy="309" r="3" fill="#009E73"/>
<circle cx="70" cy="231" r="3" fill="#984EA3"/>
<circle cx="70" cy="300" r="3" fill="#56B4E9"/>
<circle cx="70" cy="200" r="3" fill="#E69F00"/>
<circle cx="70" cy="339" r="3" fill="#C44E52"/>
<circle cx="70" cy="65" r="3" fill="#000000"/>
<circle cx="70" cy="333" r="3" fill="#8C564B"/>
<circle cx="143" cy="155" r="3" fill="#0072B2"/>
<circle cx="143" cy="54" r="3" fill="#CC79A7"/>
<circle cx="143" cy="339" r="3" fill="#D55E00"/>
<circle cx="143" cy="309" r="3" fill="#009E73"/>
<circle cx="143" cy="227" r="3" fill="#984EA3"/>
<circle cx="143" cy="300" r="3" fill="#56B4E9"/>
<circle cx="143" cy="200" r="3" fill="#E69F00"/>
<circle cx="143" cy="340" r="3" fill="#C44E52"/>
<circle cx="143" cy="64" r="3" fill="#000000"/>
<circle cx="143" cy="333" r="3" fill="#8C564B"/>
<circle cx="216" cy="150" r="3" fill="#0072B2"/>
<circle cx="216" cy="46" r="3" fill="#CC79A7"/>
<circle cx="216" cy="339" r="3" fill="#D55E00"/>
<circle cx="216" cy="308" r="3" fill="#009E73"/>
<circle cx="216" cy="222" r="3" fill="#984EA3"/>
<circle cx="216" cy="300" r="3" fill="#56B4E9"/>
<circle cx="216" cy="200" r="3" fill="#E69F00"/>
<circle cx="216" cy="339" r="3" fill="#C44E52"/>
<circle cx="216" cy="65" r="3" fill="#000000"/>
<circle cx="216" cy="333" r="3" fill="#8C564B"/>
<circle cx="290" cy="150" r="3" fill="#0072B2"/>
<circle cx="290" cy="42" r="3" fill="#CC79A7"/>
<circle cx="290" cy="339" r="3" fill="#D55E00"/>
<circle cx="290" cy="308" r="3" fill="#009E73"/>
<circle cx="290" cy="223" r="3" fill="#984EA3"/>
<circle cx="290" cy="300" r="3" fill="#56B4E9"/>
<circle cx="290" cy="199" r="3" fill="#E69F00"/>
<circle cx="290" cy="339" r="3" fill="#C44E52"/>
<circle cx="290" cy="65" r="3" fill="#000000"/>
<circle cx="290" cy="333" r="3" fill="#8C564B"/>
<circle cx="363" cy="154" r="3" fill="#0072B2"/>
<circle cx="363" cy="47" r="3" fill="#CC79A7"/>
<circle cx="363" cy="340" r="3" fill="#D55E00"/>
<circle cx="363" cy="308" r="3" fill="#009E73"/>
<circle cx="363" cy="225" r="3" fill="#984EA3"/>
<circle cx="363" cy="300" r="3" fill="#56B4E9"/>
<circle cx="363" cy="199" r="3" fill="#E69F00"/>
<circle cx="363" cy="340" r="3" fill="#C44E52"/>
<circle cx="363" cy="65" r="3" fill="#000000"/>
<circle cx="363" cy="333" r="3" fill="#8C564B"/>
<circle cx="436" cy="151" r="3" fill="#0072B2"/>
<circle cx="436" cy="41" r="3" fill="#CC79A7"/>
<circle cx="436" cy="339" r="3" fill="#D55E00"/>
<circle cx="436" cy="308" r="3" fill="#009E73"/>
<circle cx="436" cy="224" r="3" fill="#984EA3"/>
<circle cx="436" cy="300" r="3" fill="#56B4E9"/>
<circle cx="436" cy="199" r="3" fill="#E69F00"/>
<circle cx="436" cy="339" r="3" fill="#C44E52"/>
<circle cx="436" cy="64" r="3" fill="#000000"/>
<circle cx="436" cy="333" r="3" fill="#8C564B"/>
<circle cx="510" cy="153" r="3" fill="#0072B2"/>
<circle cx="510" cy="48" r="3" fill="#CC79A7"/>
<circle cx="510" cy="339" r="3" fill="#D55E00"/>
<circle cx="510" cy="308" r="3" fill="#009E73"/>
<circle cx="510" cy="228" r="3" fill="#984EA3"/>
<circle cx="510" cy="300" r="3" fill="#56B4E9"/>
<circle cx="510" cy="199" r="3" fill="#E69F00"/>
<circle cx="510" cy="339" r="3" fill="#C44E52"/>
<circle cx="510" cy="64" r="3" fill="#000000"/>
<circle cx="510" cy="333" r="3" fill="#8C564B"/>
<circle cx="583" cy="143" r="3" fill="#0072B2"/>
<circle cx="583" cy="42" r="3" fill="#CC79A7"/>
<circle cx="583" cy="339" r="3" fill="#D55E00"/>
<circle cx="583" cy="307" r="3" fill="#009E73"/>
<circle cx="583" cy="197" r="3" fill="#984EA3"/>
<circle cx="583" cy="300" r="3" fill="#56B4E9"/>
<circle cx="583" cy="200" r="3" fill="#E69F00"/>
<circle cx="583" cy="339" r="3" fill="#C44E52"/>
<circle cx="583" cy="65" r="3" fill="#000000"/>
<circle cx="583" cy="333" r="3" fill="#8C564B"/>
<circle cx="656" cy="142" r="3" fill="#0072B2"/>
<circle cx="656" cy="45" r="3" fill="#CC79A7"/>
<circle cx="656" cy="340" r="3" fill="#D55E00"/>
<circle cx="656" cy="307" r="3" fill="#009E73"/>
<circle cx="656" cy="195" r="3" fill="#984EA3"/>
<circle cx="656" cy="288" r="3" fill="#56B4E9"/>
<circle cx="656" cy="190" r="3" fill="#E69F00"/>
<circle cx="656" cy="339" r="3" fill="#C44E52"/>
<circle cx="656" cy="41" r="3" fill="#000000"/>
<circle cx="656" cy="331" r="3" fill="#8C564B"/>
<circle cx="730" cy="145" r="3" fill="#0072B2"/>
<circle cx="730" cy="53" r="3" fill="#CC79A7"/>
<circle cx="730" cy="340" r="3" fill="#D55E00"/>
<circle cx="730" cy="307" r="3" fill="#009E73"/>
<circle cx="730" cy="212" r="3" fill="#984EA3"/>
<circle cx="730" cy="288" r="3" fill="#56B4E9"/>
<circle cx="730" cy="190" r="3" fill="#E69F00"/>
<circle cx="730" cy="340" r="3" fill="#C44E52"/>
<circle cx="730" cy="41" r="3" fill="#000000"/>
<circle cx="730" cy="331" r="3" fill="#8C564B"/>
<circle cx="70" cy="20" r="4" fill="#0072B2"/>
<text x="78" y="24" text-anchor="start" font-size="12" fill="#0072B2">inte</text>
<circle cx="130" cy="20" r="4" fill="#CC79A7"/>
<text x="138" y="24" text-anchor="start" font-size="12" fill="#CC79A7">comp</text>
<circle cx="195" cy="20" r="4" fill="#D55E00"/>
<text x="203" y="24" text-anchor="start" font-size="12" fill="#D55E00">run</text>
<circle cx="250" cy="20" r="4" fill="#009E73"/>
<text x="258" y="24" text-anchor="start" font-size="12" fill="#009E73">wall</text>
<circle cx="315" cy="20" r="4" fill="#984EA3"/>
<text x="323" y="24" text-anchor="start" font-size="12" fill="#984EA3">self</text>
<circle cx="380" cy="20" r="4" fill="#56B4E9"/>
<text x="388" y="24" text-anchor="start" font-size="12" fill="#56B4E9">mem-inte</text>
<circle cx="470" cy="20" r="4" fill="#E69F00"/>
<text x="478" y="24" text-anchor="start" font-size="12" fill="#E69F00">mem-comp</text>
<circle cx="565" cy="20" r="4" fill="#C44E52"/>
<text x="573" y="24" text-anchor="start" font-size="12" fill="#C44E52">mem-run</text>
<circle cx="650" cy="20" r="4" fill="#000000"/>
<text x="658" y="24" text-anchor="start" font-size="12" fill="#000000">mem-total</text>
<circle cx="745" cy="20" r="4" fill="#8C564B"/>
<text x="753" y="24" text-anchor="start" font-size="12" fill="#8C564B">self-mem</text>
</svg>
