<svg width="800" height="400" xmlns="http://www.w3.org/2000/svg">
<rect width="800" height="400" fill="white"/>
<line x1="70" y1="40" x2="70" y2="340" stroke="#333" stroke-width="1"/>
<line x1="70" y1="340" x2="730" y2="340" stroke="#333" stroke-width="1"/>
<line x1="730" y1="40" x2="730" y2="340" stroke="#333" stroke-width="1"/>
<text x="65" y="344" text-anchor="end" font-size="11" fill="#333">0</text>
<text x="65" y="194" text-anchor="end" font-size="11" fill="#333">568000</text>
<text x="65" y="44" text-anchor="end" font-size="11" fill="#333">1136000</text>
<text x="15" y="190" text-anchor="middle" font-size="12" fill="#333" transform="rotate(-90 15 190)">ms</text>
<text x="735" y="344" text-anchor="start" font-size="11" fill="#333">0</text>
<text x="735" y="194" text-anchor="start" font-size="11" fill="#333">65033500000</text>
<text x="735" y="44" text-anchor="start" font-size="11" fill="#333">130067000000</text>
<text x="785" y="190" text-anchor="middle" font-size="12" fill="#333" transform="rotate(90 785 190)">bytes</text>
<polyline points="70,43 143,41 216,46 290,41 363,41 436,44 510,46 583,46 656,43 730,42" fill="none" stroke="#0072B2" stroke-width="2"/>
<polyline points="70,47 143,41 216,45 290,41 363,45 436,43 510,48 583,46 656,48 730,43" fill="none" stroke="#CC79A7" stroke-width="2"/>
<polyline points="70,340 143,340 216,340 290,340 363,340 436,340 510,340 583,340 656,340 730,340" fill="none" stroke="#D55E00" stroke-width="2"/>
<polyline points="70,301 143,301 216,302 290,301 363,301 436,301 510,301 583,301 656,302 730,301" fill="none" stroke="#009E73" stroke-width="2"/>
<polyline points="70,111 143,110 216,104 290,103 363,103 436,100 510,105 583,103 656,103 730,101" fill="none" stroke="#984EA3" stroke-width="2"/>
<polyline points="70,42 143,41 216,41 290,41 363,41 436,41 510,42 583,41 656,41 730,42" fill="none" stroke="#56B4E9" stroke-width="2"/>
<polyline points="70,46 143,44 216,45 290,44 363,42 436,43 510,43 583,44 656,44 730,43" fill="none" stroke="#E69F00" stroke-width="2"/>
<polyline points="70,339 143,340 216,340 290,340 363,340 436,339 510,340 583,340 656,340 730,340" fill="none" stroke="#C44E52" stroke-width="2"/>
<polyline points="70,301 143,302 216,296 290,296 363,297 436,296 510,296 583,297 656,297 730,296" fill="none" stroke="#8C564B" stroke-width="2"/>
<circle cx="70" cy="43" r="3" fill="#0072B2"/>
<circle cx="70" cy="47" r="3" fill="#CC79A7"/>
<circle cx="70" cy="340" r="3" fill="#D55E00"/>
<circle cx="70" cy="301" r="3" fill="#009E73"/>
<circle cx="70" cy="111" r="3" fill="#984EA3"/>
<circle cx="70" cy="42" r="3" fill="#56B4E9"/>
<circle cx="70" cy="46" r="3" fill="#E69F00"/>
<circle cx="70" cy="339" r="3" fill="#C44E52"/>
<circle cx="70" cy="301" r="3" fill="#8C564B"/>
<circle cx="143" cy="41" r="3" fill="#0072B2"/>
<circle cx="143" cy="41" r="3" fill="#CC79A7"/>
<circle cx="143" cy="340" r="3" fill="#D55E00"/>
<circle cx="143" cy="301" r="3" fill="#009E73"/>
<circle cx="143" cy="110" r="3" fill="#984EA3"/>
<circle cx="143" cy="41" r="3" fill="#56B4E9"/>
<circle cx="143" cy="44" r="3" fill="#E69F00"/>
<circle cx="143" cy="340" r="3" fill="#C44E52"/>
<circle cx="143" cy="302" r="3" fill="#8C564B"/>
<circle cx="216" cy="46" r="3" fill="#0072B2"/>
<circle cx="216" cy="45" r="3" fill="#CC79A7"/>
<circle cx="216" cy="340" r="3" fill="#D55E00"/>
<circle cx="216" cy="302" r="3" fill="#009E73"/>
<circle cx="216" cy="104" r="3" fill="#984EA3"/>
<circle cx="216" cy="41" r="3" fill="#56B4E9"/>
<circle cx="216" cy="45" r="3" fill="#E69F00"/>
<circle cx="216" cy="340" r="3" fill="#C44E52"/>
<circle cx="216" cy="296" r="3" fill="#8C564B"/>
<circle cx="290" cy="41" r="3" fill="#0072B2"/>
<circle cx="290" cy="41" r="3" fill="#CC79A7"/>
<circle cx="290" cy="340" r="3" fill="#D55E00"/>
<circle cx="290" cy="301" r="3" fill="#009E73"/>
<circle cx="290" cy="103" r="3" fill="#984EA3"/>
<circle cx="290" cy="41" r="3" fill="#56B4E9"/>
<circle cx="290" cy="44" r="3" fill="#E69F00"/>
<circle cx="290" cy="340" r="3" fill="#C44E52"/>
<circle cx="290" cy="296" r="3" fill="#8C564B"/>
<circle cx="363" cy="41" r="3" fill="#0072B2"/>
<circle cx="363" cy="45" r="3" fill="#CC79A7"/>
<circle cx="363" cy="340" r="3" fill="#D55E00"/>
<circle cx="363" cy="301" r="3" fill="#009E73"/>
<circle cx="363" cy="103" r="3" fill="#984EA3"/>
<circle cx="363" cy="41" r="3" fill="#56B4E9"/>
<circle cx="363" cy="42" r="3" fill="#E69F00"/>
<circle cx="363" cy="340" r="3" fill="#C44E52"/>
<circle cx="363" cy="297" r="3" fill="#8C564B"/>
<circle cx="436" cy="44" r="3" fill="#0072B2"/>
<circle cx="436" cy="43" r="3" fill="#CC79A7"/>
<circle cx="436" cy="340" r="3" fill="#D55E00"/>
<circle cx="436" cy="301" r="3" fill="#009E73"/>
<circle cx="436" cy="100" r="3" fill="#984EA3"/>
<circle cx="436" cy="41" r="3" fill="#56B4E9"/>
<circle cx="436" cy="43" r="3" fill="#E69F00"/>
<circle cx="436" cy="339" r="3" fill="#C44E52"/>
<circle cx="436" cy="296" r="3" fill="#8C564B"/>
<circle cx="510" cy="46" r="3" fill="#0072B2"/>
<circle cx="510" cy="48" r="3" fill="#CC79A7"/>
<circle cx="510" cy="340" r="3" fill="#D55E00"/>
<circle cx="510" cy="301" r="3" fill="#009E73"/>
<circle cx="510" cy="105" r="3" fill="#984EA3"/>
<circle cx="510" cy="42" r="3" fill="#56B4E9"/>
<circle cx="510" cy="43" r="3" fill="#E69F00"/>
<circle cx="510" cy="340" r="3" fill="#C44E52"/>
<circle cx="510" cy="296" r="3" fill="#8C564B"/>
<circle cx="583" cy="46" r="3" fill="#0072B2"/>
<circle cx="583" cy="46" r="3" fill="#CC79A7"/>
<circle cx="583" cy="340" r="3" fill="#D55E00"/>
<circle cx="583" cy="301" r="3" fill="#009E73"/>
<circle cx="583" cy="103" r="3" fill="#984EA3"/>
<circle cx="583" cy="41" r="3" fill="#56B4E9"/>
<circle cx="583" cy="44" r="3" fill="#E69F00"/>
<circle cx="583" cy="340" r="3" fill="#C44E52"/>
<circle cx="583" cy="297" r="3" fill="#8C564B"/>
<circle cx="656" cy="43" r="3" fill="#0072B2"/>
<circle cx="656" cy="48" r="3" fill="#CC79A7"/>
<circle cx="656" cy="340" r="3" fill="#D55E00"/>
<circle cx="656" cy="302" r="3" fill="#009E73"/>
<circle cx="656" cy="103" r="3" fill="#984EA3"/>
<circle cx="656" cy="41" r="3" fill="#56B4E9"/>
<circle cx="656" cy="44" r="3" fill="#E69F00"/>
<circle cx="656" cy="340" r="3" fill="#C44E52"/>
<circle cx="656" cy="297" r="3" fill="#8C564B"/>
<circle cx="730" cy="42" r="3" fill="#0072B2"/>
<circle cx="730" cy="43" r="3" fill="#CC79A7"/>
<circle cx="730" cy="340" r="3" fill="#D55E00"/>
<circle cx="730" cy="301" r="3" fill="#009E73"/>
<circle cx="730" cy="101" r="3" fill="#984EA3"/>
<circle cx="730" cy="42" r="3" fill="#56B4E9"/>
<circle cx="730" cy="43" r="3" fill="#E69F00"/>
<circle cx="730" cy="340" r="3" fill="#C44E52"/>
<circle cx="730" cy="296" r="3" fill="#8C564B"/>
<circle cx="70" cy="20" r="4" fill="#0072B2"/>
<text x="78" y="24" text-anchor="start" font-size="12" fill="#0072B2">inte</text>
<circle cx="130" cy="20" r="4" fill="#CC79A7"/>
<text x="138" y="24" text-anchor="start" font-size="12" fill="#CC79A7">comp</text>
<circle cx="195" cy="20" r="4" fill="#D55E00"/>
<text x="203" y="24" text-anchor="start" font-size="12" fill="#D55E00">run</text>
<circle cx="250" cy="20" r="4" fill="#009E73"/>
<text x="258" y="24" text-anchor="start" font-size="12" fill="#009E73">wall</text>
<circle cx="315" cy="20" r="4" fill="#984EA3"/>
<text x="323" y="24" text-anchor="start" font-size="12" fill="#984EA3">self</text>
<circle cx="380" cy="20" r="4" fill="#56B4E9"/>
<text x="388" y="24" text-anchor="start" font-size="12" fill="#56B4E9">mem-inte</text>
<circle cx="470" cy="20" r="4" fill="#E69F00"/>
<text x="478" y="24" text-anchor="start" font-size="12" fill="#E69F00">mem-comp</text>
<circle cx="565" cy="20" r="4" fill="#C44E52"/>
<text x="573" y="24" text-anchor="start" font-size="12" fill="#C44E52">mem-run</text>
<circle cx="650" cy="20" r="4" fill="#8C564B"/>
<text x="658" y="24" text-anchor="start" font-size="12" fill="#8C564B">self-mem</text>
</svg>
