<svg width="800" height="400" xmlns="http://www.w3.org/2000/svg">
<rect width="800" height="400" fill="white"/>
<line x1="70" y1="40" x2="70" y2="340" stroke="#333" stroke-width="1"/>
<line x1="70" y1="340" x2="730" y2="340" stroke="#333" stroke-width="1"/>
<line x1="730" y1="40" x2="730" y2="340" stroke="#333" stroke-width="1"/>
<text x="65" y="344" text-anchor="end" font-size="11" fill="#333">0</text>
<text x="65" y="194" text-anchor="end" font-size="11" fill="#333">114500</text>
<text x="65" y="44" text-anchor="end" font-size="11" fill="#333">229000</text>
<text x="15" y="190" text-anchor="middle" font-size="12" fill="#333" transform="rotate(-90 15 190)">ms</text>
<text x="735" y="344" text-anchor="start" font-size="11" fill="#333">0</text>
<text x="735" y="194" text-anchor="start" font-size="11" fill="#333">5870500000</text>
<text x="735" y="44" text-anchor="start" font-size="11" fill="#333">11741000000</text>
<text x="785" y="190" text-anchor="middle" font-size="12" fill="#333" transform="rotate(90 785 190)">bytes</text>
<polyline points="70,194 143,65 216,125 290,193 363,154 436,187 510,191 583,191 656,194 730,203" fill="none" stroke="#0072B2" stroke-width="2"/>
<polyline points="70,181 143,42 216,100 290,179 363,135 436,172 510,175 583,176 656,178 730,189" fill="none" stroke="#CC79A7" stroke-width="2"/>
<polyline points="70,340 143,340 216,340 290,340 363,340 436,340 510,340 583,340 656,340 730,340" fill="none" stroke="#D55E00" stroke-width="2"/>
<polyline points="70,200 143,105 216,129 290,199 363,161 436,194 510,196 583,198 656,199 730,208" fill="none" stroke="#009E73" stroke-width="2"/>
<polyline points="70,244 143,244 216,246 290,246 363,246 436,246 510,246 583,246 656,246 730,246" fill="none" stroke="#56B4E9" stroke-width="2"/>
<polyline points="70,195 143,190 216,193 290,193 363,199 436,196 510,201 583,194 656,194 730,199" fill="none" stroke="#E69F00" stroke-width="2"/>
<polyline points="70,340 143,340 216,340 290,340 363,340 436,340 510,340 583,340 656,340 730,340" fill="none" stroke="#C44E52" stroke-width="2"/>
<polyline points="70,47 143,41 216,48 290,49 363,54 436,52 510,53 583,48 656,47 730,54" fill="none" stroke="#000000" stroke-width="2"/>
<circle cx="70" cy="194" r="3" fill="#0072B2"/>
<circle cx="70" cy="181" r="3" fill="#CC79A7"/>
<circle cx="70" cy="340" r="3" fill="#D55E00"/>
<circle cx="70" cy="200" r="3" fill="#009E73"/>
<circle cx="70" cy="244" r="3" fill="#56B4E9"/>
<circle cx="70" cy="195" r="3" fill="#E69F00"/>
<circle cx="70" cy="340" r="3" fill="#C44E52"/>
<circle cx="70" cy="47" r="3" fill="#000000"/>
<circle cx="143" cy="65" r="3" fill="#0072B2"/>
<circle cx="143" cy="42" r="3" fill="#CC79A7"/>
<circle cx="143" cy="340" r="3" fill="#D55E00"/>
<circle cx="143" cy="105" r="3" fill="#009E73"/>
<circle cx="143" cy="244" r="3" fill="#56B4E9"/>
<circle cx="143" cy="190" r="3" fill="#E69F00"/>
<circle cx="143" cy="340" r="3" fill="#C44E52"/>
<circle cx="143" cy="41" r="3" fill="#000000"/>
<circle cx="216" cy="125" r="3" fill="#0072B2"/>
<circle cx="216" cy="100" r="3" fill="#CC79A7"/>
<circle cx="216" cy="340" r="3" fill="#D55E00"/>
<circle cx="216" cy="129" r="3" fill="#009E73"/>
<circle cx="216" cy="246" r="3" fill="#56B4E9"/>
<circle cx="216" cy="193" r="3" fill="#E69F00"/>
<circle cx="216" cy="340" r="3" fill="#C44E52"/>
<circle cx="216" cy="48" r="3" fill="#000000"/>
<circle cx="290" cy="193" r="3" fill="#0072B2"/>
<circle cx="290" cy="179" r="3" fill="#CC79A7"/>
<circle cx="290" cy="340" r="3" fill="#D55E00"/>
<circle cx="290" cy="199" r="3" fill="#009E73"/>
<circle cx="290" cy="246" r="3" fill="#56B4E9"/>
<circle cx="290" cy="193" r="3" fill="#E69F00"/>
<circle cx="290" cy="340" r="3" fill="#C44E52"/>
<circle cx="290" cy="49" r="3" fill="#000000"/>
<circle cx="363" cy="154" r="3" fill="#0072B2"/>
<circle cx="363" cy="135" r="3" fill="#CC79A7"/>
<circle cx="363" cy="340" r="3" fill="#D55E00"/>
<circle cx="363" cy="161" r="3" fill="#009E73"/>
<circle cx="363" cy="246" r="3" fill="#56B4E9"/>
<circle cx="363" cy="199" r="3" fill="#E69F00"/>
<circle cx="363" cy="340" r="3" fill="#C44E52"/>
<circle cx="363" cy="54" r="3" fill="#000000"/>
<circle cx="436" cy="187" r="3" fill="#0072B2"/>
<circle cx="436" cy="172" r="3" fill="#CC79A7"/>
<circle cx="436" cy="340" r="3" fill="#D55E00"/>
<circle cx="436" cy="194" r="3" fill="#009E73"/>
<circle cx="436" cy="246" r="3" fill="#56B4E9"/>
<circle cx="436" cy="196" r="3" fill="#E69F00"/>
<circle cx="436" cy="340" r="3" fill="#C44E52"/>
<circle cx="436" cy="52" r="3" fill="#000000"/>
<circle cx="510" cy="191" r="3" fill="#0072B2"/>
<circle cx="510" cy="175" r="3" fill="#CC79A7"/>
<circle cx="510" cy="340" r="3" fill="#D55E00"/>
<circle cx="510" cy="196" r="3" fill="#009E73"/>
<circle cx="510" cy="246" r="3" fill="#56B4E9"/>
<circle cx="510" cy="201" r="3" fill="#E69F00"/>
<circle cx="510" cy="340" r="3" fill="#C44E52"/>
<circle cx="510" cy="53" r="3" fill="#000000"/>
<circle cx="583" cy="191" r="3" fill="#0072B2"/>
<circle cx="583" cy="176" r="3" fill="#CC79A7"/>
<circle cx="583" cy="340" r="3" fill="#D55E00"/>
<circle cx="583" cy="198" r="3" fill="#009E73"/>
<circle cx="583" cy="246" r="3" fill="#56B4E9"/>
<circle cx="583" cy="194" r="3" fill="#E69F00"/>
<circle cx="583" cy="340" r="3" fill="#C44E52"/>
<circle cx="583" cy="48" r="3" fill="#000000"/>
<circle cx="656" cy="194" r="3" fill="#0072B2"/>
<circle cx="656" cy="178" r="3" fill="#CC79A7"/>
<circle cx="656" cy="340" r="3" fill="#D55E00"/>
<circle cx="656" cy="199" r="3" fill="#009E73"/>
<circle cx="656" cy="246" r="3" fill="#56B4E9"/>
<circle cx="656" cy="194" r="3" fill="#E69F00"/>
<circle cx="656" cy="340" r="3" fill="#C44E52"/>
<circle cx="656" cy="47" r="3" fill="#000000"/>
<circle cx="730" cy="203" r="3" fill="#0072B2"/>
<circle cx="730" cy="189" r="3" fill="#CC79A7"/>
<circle cx="730" cy="340" r="3" fill="#D55E00"/>
<circle cx="730" cy="208" r="3" fill="#009E73"/>
<circle cx="730" cy="246" r="3" fill="#56B4E9"/>
<circle cx="730" cy="199" r="3" fill="#E69F00"/>
<circle cx="730" cy="340" r="3" fill="#C44E52"/>
<circle cx="730" cy="54" r="3" fill="#000000"/>
<circle cx="90" cy="20" r="4" fill="#0072B2"/>
<text x="98" y="24" text-anchor="start" font-size="12" fill="#0072B2">inte</text>
<circle cx="150" cy="20" r="4" fill="#CC79A7"/>
<text x="158" y="24" text-anchor="start" font-size="12" fill="#CC79A7">comp</text>
<circle cx="215" cy="20" r="4" fill="#D55E00"/>
<text x="223" y="24" text-anchor="start" font-size="12" fill="#D55E00">run</text>
<circle cx="270" cy="20" r="4" fill="#009E73"/>
<text x="278" y="24" text-anchor="start" font-size="12" fill="#009E73">wall</text>
<circle cx="335" cy="20" r="4" fill="#56B4E9"/>
<text x="343" y="24" text-anchor="start" font-size="12" fill="#56B4E9">mem-inte</text>
<circle cx="425" cy="20" r="4" fill="#E69F00"/>
<text x="433" y="24" text-anchor="start" font-size="12" fill="#E69F00">mem-comp</text>
<circle cx="520" cy="20" r="4" fill="#C44E52"/>
<text x="528" y="24" text-anchor="start" font-size="12" fill="#C44E52">mem-run</text>
<circle cx="605" cy="20" r="4" fill="#000000"/>
<text x="613" y="24" text-anchor="start" font-size="12" fill="#000000">mem-total</text>
</svg>
