<svg width="800" height="400" xmlns="http://www.w3.org/2000/svg">
<rect width="800" height="400" fill="white"/>
<line x1="70" y1="40" x2="70" y2="340" stroke="#333" stroke-width="1"/>
<line x1="70" y1="340" x2="780" y2="340" stroke="#333" stroke-width="1"/>
<text x="65" y="344" text-anchor="end" font-size="11" fill="#333">0</text>
<text x="65" y="194" text-anchor="end" font-size="11" fill="#333">4000</text>
<text x="65" y="44" text-anchor="end" font-size="11" fill="#333">8000</text>
<text x="15" y="190" text-anchor="middle" font-size="12" fill="#333" transform="rotate(-90 15 190)">ms</text>
<polyline points="70,268 89,266 108,269 127,265 146,269 165,267 185,263 204,265 223,260 242,260 261,265 281,261 300,261 319,265 338,259 357,261 377,262 396,266 415,265 434,262 453,263 472,265 492,265 511,265 530,263 549,262 568,264 588,265 607,264 626,262 645,264 664,260 684,263 703,264 722,261 741,262 760,261 780,262" fill="none" stroke="#2196F3" stroke-width="2"/>
<polyline points="70,131 89,132 108,133 127,128 146,130 165,135 185,127 204,127 223,127 242,128 261,128 281,123 300,122 319,128 338,127 357,136 377,130 396,126 415,125 434,128 453,128 472,133 492,128 511,135 530,96 549,103 568,101 588,105 607,103 626,104 645,105 664,105 684,99 703,99 722,103 741,100 760,102 780,102" fill="none" stroke="#F44336" stroke-width="2"/>
<polyline points="70,79 89,80 108,80 127,78 146,84 165,71 185,69 204,69 223,66 242,63 261,64 281,65 300,65 319,66 338,66 357,63 377,61 396,61 415,67 434,61 453,65 472,68 492,65 511,66 530,57 549,63 568,57 588,58 607,63 626,65 645,56 664,49 684,53 703,52 722,53 741,52 760,52 780,50" fill="none" stroke="#4CAF50" stroke-width="2"/>
<circle cx="70" cy="268" r="3" fill="#2196F3"/>
<circle cx="70" cy="131" r="3" fill="#F44336"/>
<circle cx="70" cy="79" r="3" fill="#4CAF50"/>
<circle cx="89" cy="266" r="3" fill="#2196F3"/>
<circle cx="89" cy="132" r="3" fill="#F44336"/>
<circle cx="89" cy="80" r="3" fill="#4CAF50"/>
<circle cx="108" cy="269" r="3" fill="#2196F3"/>
<circle cx="108" cy="133" r="3" fill="#F44336"/>
<circle cx="108" cy="80" r="3" fill="#4CAF50"/>
<circle cx="127" cy="265" r="3" fill="#2196F3"/>
<circle cx="127" cy="128" r="3" fill="#F44336"/>
<circle cx="127" cy="78" r="3" fill="#4CAF50"/>
<circle cx="146" cy="269" r="3" fill="#2196F3"/>
<circle cx="146" cy="130" r="3" fill="#F44336"/>
<circle cx="146" cy="84" r="3" fill="#4CAF50"/>
<circle cx="165" cy="267" r="3" fill="#2196F3"/>
<circle cx="165" cy="135" r="3" fill="#F44336"/>
<circle cx="165" cy="71" r="3" fill="#4CAF50"/>
<circle cx="185" cy="263" r="3" fill="#2196F3"/>
<circle cx="185" cy="127" r="3" fill="#F44336"/>
<circle cx="185" cy="69" r="3" fill="#4CAF50"/>
<circle cx="204" cy="265" r="3" fill="#2196F3"/>
<circle cx="204" cy="127" r="3" fill="#F44336"/>
<circle cx="204" cy="69" r="3" fill="#4CAF50"/>
<circle cx="223" cy="260" r="3" fill="#2196F3"/>
<circle cx="223" cy="127" r="3" fill="#F44336"/>
<circle cx="223" cy="66" r="3" fill="#4CAF50"/>
<circle cx="242" cy="260" r="3" fill="#2196F3"/>
<circle cx="242" cy="128" r="3" fill="#F44336"/>
<circle cx="242" cy="63" r="3" fill="#4CAF50"/>
<circle cx="261" cy="265" r="3" fill="#2196F3"/>
<circle cx="261" cy="128" r="3" fill="#F44336"/>
<circle cx="261" cy="64" r="3" fill="#4CAF50"/>
<circle cx="281" cy="261" r="3" fill="#2196F3"/>
<circle cx="281" cy="123" r="3" fill="#F44336"/>
<circle cx="281" cy="65" r="3" fill="#4CAF50"/>
<circle cx="300" cy="261" r="3" fill="#2196F3"/>
<circle cx="300" cy="122" r="3" fill="#F44336"/>
<circle cx="300" cy="65" r="3" fill="#4CAF50"/>
<circle cx="319" cy="265" r="3" fill="#2196F3"/>
<circle cx="319" cy="128" r="3" fill="#F44336"/>
<circle cx="319" cy="66" r="3" fill="#4CAF50"/>
<circle cx="338" cy="259" r="3" fill="#2196F3"/>
<circle cx="338" cy="127" r="3" fill="#F44336"/>
<circle cx="338" cy="66" r="3" fill="#4CAF50"/>
<circle cx="357" cy="261" r="3" fill="#2196F3"/>
<circle cx="357" cy="136" r="3" fill="#F44336"/>
<circle cx="357" cy="63" r="3" fill="#4CAF50"/>
<circle cx="377" cy="262" r="3" fill="#2196F3"/>
<circle cx="377" cy="130" r="3" fill="#F44336"/>
<circle cx="377" cy="61" r="3" fill="#4CAF50"/>
<circle cx="396" cy="266" r="3" fill="#2196F3"/>
<circle cx="396" cy="126" r="3" fill="#F44336"/>
<circle cx="396" cy="61" r="3" fill="#4CAF50"/>
<circle cx="415" cy="265" r="3" fill="#2196F3"/>
<circle cx="415" cy="125" r="3" fill="#F44336"/>
<circle cx="415" cy="67" r="3" fill="#4CAF50"/>
<circle cx="434" cy="262" r="3" fill="#2196F3"/>
<circle cx="434" cy="128" r="3" fill="#F44336"/>
<circle cx="434" cy="61" r="3" fill="#4CAF50"/>
<circle cx="453" cy="263" r="3" fill="#2196F3"/>
<circle cx="453" cy="128" r="3" fill="#F44336"/>
<circle cx="453" cy="65" r="3" fill="#4CAF50"/>
<circle cx="472" cy="265" r="3" fill="#2196F3"/>
<circle cx="472" cy="133" r="3" fill="#F44336"/>
<circle cx="472" cy="68" r="3" fill="#4CAF50"/>
<circle cx="492" cy="265" r="3" fill="#2196F3"/>
<circle cx="492" cy="128" r="3" fill="#F44336"/>
<circle cx="492" cy="65" r="3" fill="#4CAF50"/>
<circle cx="511" cy="265" r="3" fill="#2196F3"/>
<circle cx="511" cy="135" r="3" fill="#F44336"/>
<circle cx="511" cy="66" r="3" fill="#4CAF50"/>
<circle cx="530" cy="263" r="3" fill="#2196F3"/>
<circle cx="530" cy="96" r="3" fill="#F44336"/>
<circle cx="530" cy="57" r="3" fill="#4CAF50"/>
<circle cx="549" cy="262" r="3" fill="#2196F3"/>
<circle cx="549" cy="103" r="3" fill="#F44336"/>
<circle cx="549" cy="63" r="3" fill="#4CAF50"/>
<circle cx="568" cy="264" r="3" fill="#2196F3"/>
<circle cx="568" cy="101" r="3" fill="#F44336"/>
<circle cx="568" cy="57" r="3" fill="#4CAF50"/>
<circle cx="588" cy="265" r="3" fill="#2196F3"/>
<circle cx="588" cy="105" r="3" fill="#F44336"/>
<circle cx="588" cy="58" r="3" fill="#4CAF50"/>
<circle cx="607" cy="264" r="3" fill="#2196F3"/>
<circle cx="607" cy="103" r="3" fill="#F44336"/>
<circle cx="607" cy="63" r="3" fill="#4CAF50"/>
<circle cx="626" cy="262" r="3" fill="#2196F3"/>
<circle cx="626" cy="104" r="3" fill="#F44336"/>
<circle cx="626" cy="65" r="3" fill="#4CAF50"/>
<circle cx="645" cy="264" r="3" fill="#2196F3"/>
<circle cx="645" cy="105" r="3" fill="#F44336"/>
<circle cx="645" cy="56" r="3" fill="#4CAF50"/>
<circle cx="664" cy="260" r="3" fill="#2196F3"/>
<circle cx="664" cy="105" r="3" fill="#F44336"/>
<circle cx="664" cy="49" r="3" fill="#4CAF50"/>
<circle cx="684" cy="263" r="3" fill="#2196F3"/>
<circle cx="684" cy="99" r="3" fill="#F44336"/>
<circle cx="684" cy="53" r="3" fill="#4CAF50"/>
<circle cx="703" cy="264" r="3" fill="#2196F3"/>
<circle cx="703" cy="99" r="3" fill="#F44336"/>
<circle cx="703" cy="52" r="3" fill="#4CAF50"/>
<circle cx="722" cy="261" r="3" fill="#2196F3"/>
<circle cx="722" cy="103" r="3" fill="#F44336"/>
<circle cx="722" cy="53" r="3" fill="#4CAF50"/>
<circle cx="741" cy="262" r="3" fill="#2196F3"/>
<circle cx="741" cy="100" r="3" fill="#F44336"/>
<circle cx="741" cy="52" r="3" fill="#4CAF50"/>
<circle cx="760" cy="261" r="3" fill="#2196F3"/>
<circle cx="760" cy="102" r="3" fill="#F44336"/>
<circle cx="760" cy="52" r="3" fill="#4CAF50"/>
<circle cx="780" cy="262" r="3" fill="#2196F3"/>
<circle cx="780" cy="102" r="3" fill="#F44336"/>
<circle cx="780" cy="50" r="3" fill="#4CAF50"/>
<text x="70" y="355" text-anchor="middle" font-size="10" fill="#666">d31c3d3</text>
<text x="89" y="355" text-anchor="middle" font-size="10" fill="#666">577b0f6</text>
<text x="108" y="355" text-anchor="middle" font-size="10" fill="#666">a0e3a8f</text>
<text x="127" y="355" text-anchor="middle" font-size="10" fill="#666">32b7787</text>
<text x="146" y="355" text-anchor="middle" font-size="10" fill="#666">940e369</text>
<text x="165" y="355" text-anchor="middle" font-size="10" fill="#666">78956c1</text>
<text x="185" y="355" text-anchor="middle" font-size="10" fill="#666">1a288e9</text>
<text x="204" y="355" text-anchor="middle" font-size="10" fill="#666">f1c0746</text>
<text x="223" y="355" text-anchor="middle" font-size="10" fill="#666">efad3b5</text>
<text x="242" y="355" text-anchor="middle" font-size="10" fill="#666">d3839be</text>
<text x="261" y="355" text-anchor="middle" font-size="10" fill="#666">a0c21b2</text>
<text x="281" y="355" text-anchor="middle" font-size="10" fill="#666">c3d3d81</text>
<text x="300" y="355" text-anchor="middle" font-size="10" fill="#666">e40d897</text>
<text x="319" y="355" text-anchor="middle" font-size="10" fill="#666">0b1ed97</text>
<text x="338" y="355" text-anchor="middle" font-size="10" fill="#666">6a5ae3f</text>
<text x="357" y="355" text-anchor="middle" font-size="10" fill="#666">59cf448</text>
<text x="377" y="355" text-anchor="middle" font-size="10" fill="#666">42b3e04</text>
<text x="396" y="355" text-anchor="middle" font-size="10" fill="#666">bd9421a</text>
<text x="415" y="355" text-anchor="middle" font-size="10" fill="#666">f80812f</text>
<text x="434" y="355" text-anchor="middle" font-size="10" fill="#666">448a5fe</text>
<text x="453" y="355" text-anchor="middle" font-size="10" fill="#666">b16c1cc</text>
<text x="472" y="355" text-anchor="middle" font-size="10" fill="#666">44c334c</text>
<text x="492" y="355" text-anchor="middle" font-size="10" fill="#666">aa51d1a</text>
<text x="511" y="355" text-anchor="middle" font-size="10" fill="#666">9bee79a</text>
<text x="530" y="355" text-anchor="middle" font-size="10" fill="#666">4380346</text>
<text x="549" y="355" text-anchor="middle" font-size="10" fill="#666">2a587a9</text>
<text x="568" y="355" text-anchor="middle" font-size="10" fill="#666">efb005a</text>
<text x="588" y="355" text-anchor="middle" font-size="10" fill="#666">1c3b72e</text>
<text x="607" y="355" text-anchor="middle" font-size="10" fill="#666">ff7c733</text>
<text x="626" y="355" text-anchor="middle" font-size="10" fill="#666">962897f</text>
<text x="645" y="355" text-anchor="middle" font-size="10" fill="#666">dfec04b</text>
<text x="664" y="355" text-anchor="middle" font-size="10" fill="#666">60e18de</text>
<text x="684" y="355" text-anchor="middle" font-size="10" fill="#666">80a0d41</text>
<text x="703" y="355" text-anchor="middle" font-size="10" fill="#666">e200726</text>
<text x="722" y="355" text-anchor="middle" font-size="10" fill="#666">775a89f</text>
<text x="741" y="355" text-anchor="middle" font-size="10" fill="#666">18e45a5</text>
<text x="760" y="355" text-anchor="middle" font-size="10" fill="#666">9d60b61</text>
<text x="780" y="355" text-anchor="middle" font-size="10" fill="#666">479229b</text>
<circle cx="90" cy="20" r="4" fill="#2196F3"/>
<text x="98" y="24" text-anchor="start" font-size="12" fill="#2196F3">Interpreted</text>
<circle cx="200" cy="20" r="4" fill="#F44336"/>
<text x="208" y="24" text-anchor="start" font-size="12" fill="#F44336">Compiled</text>
<circle cx="300" cy="20" r="4" fill="#4CAF50"/>
<text x="308" y="24" text-anchor="start" font-size="12" fill="#4CAF50">Wall-clock</text>
</svg>
