<svg width="800" height="400" xmlns="http://www.w3.org/2000/svg">
<rect width="800" height="400" fill="white"/>
<line x1="70" y1="40" x2="70" y2="340" stroke="#333" stroke-width="1"/>
<line x1="70" y1="340" x2="780" y2="340" stroke="#333" stroke-width="1"/>
<text x="65" y="344" text-anchor="end" font-size="11" fill="#333">0</text>
<text x="65" y="194" text-anchor="end" font-size="11" fill="#333">4000</text>
<text x="65" y="44" text-anchor="end" font-size="11" fill="#333">8000</text>
<text x="15" y="190" text-anchor="middle" font-size="12" fill="#333" transform="rotate(-90 15 190)">ms</text>
<polyline points="70,268 90,266 111,269 132,265 153,269 174,267 195,263 216,265 237,260 257,260 278,265 299,261 320,261 341,265 362,259 383,261 404,262 425,266 445,265 466,262 487,263 508,265 529,265 550,265 571,263 592,262 612,264 633,265 654,264 675,262 696,264 717,260 738,263 759,264 780,261" fill="none" stroke="#2196F3" stroke-width="2"/>
<polyline points="70,131 90,132 111,133 132,128 153,130 174,135 195,127 216,127 237,127 257,128 278,128 299,123 320,122 341,128 362,127 383,136 404,130 425,126 445,125 466,128 487,128 508,133 529,128 550,135 571,96 592,103 612,101 633,105 654,103 675,104 696,105 717,105 738,99 759,99 780,103" fill="none" stroke="#F44336" stroke-width="2"/>
<polyline points="70,79 90,80 111,80 132,78 153,84 174,71 195,69 216,69 237,66 257,63 278,64 299,65 320,65 341,66 362,66 383,63 404,61 425,61 445,67 466,61 487,65 508,68 529,65 550,66 571,57 592,63 612,57 633,58 654,63 675,65 696,56 717,49 738,53 759,52 780,53" fill="none" stroke="#4CAF50" stroke-width="2"/>
<circle cx="70" cy="268" r="3" fill="#2196F3"/>
<circle cx="70" cy="131" r="3" fill="#F44336"/>
<circle cx="70" cy="79" r="3" fill="#4CAF50"/>
<circle cx="90" cy="266" r="3" fill="#2196F3"/>
<circle cx="90" cy="132" r="3" fill="#F44336"/>
<circle cx="90" cy="80" r="3" fill="#4CAF50"/>
<circle cx="111" cy="269" r="3" fill="#2196F3"/>
<circle cx="111" cy="133" r="3" fill="#F44336"/>
<circle cx="111" cy="80" r="3" fill="#4CAF50"/>
<circle cx="132" cy="265" r="3" fill="#2196F3"/>
<circle cx="132" cy="128" r="3" fill="#F44336"/>
<circle cx="132" cy="78" r="3" fill="#4CAF50"/>
<circle cx="153" cy="269" r="3" fill="#2196F3"/>
<circle cx="153" cy="130" r="3" fill="#F44336"/>
<circle cx="153" cy="84" r="3" fill="#4CAF50"/>
<circle cx="174" cy="267" r="3" fill="#2196F3"/>
<circle cx="174" cy="135" r="3" fill="#F44336"/>
<circle cx="174" cy="71" r="3" fill="#4CAF50"/>
<circle cx="195" cy="263" r="3" fill="#2196F3"/>
<circle cx="195" cy="127" r="3" fill="#F44336"/>
<circle cx="195" cy="69" r="3" fill="#4CAF50"/>
<circle cx="216" cy="265" r="3" fill="#2196F3"/>
<circle cx="216" cy="127" r="3" fill="#F44336"/>
<circle cx="216" cy="69" r="3" fill="#4CAF50"/>
<circle cx="237" cy="260" r="3" fill="#2196F3"/>
<circle cx="237" cy="127" r="3" fill="#F44336"/>
<circle cx="237" cy="66" r="3" fill="#4CAF50"/>
<circle cx="257" cy="260" r="3" fill="#2196F3"/>
<circle cx="257" cy="128" r="3" fill="#F44336"/>
<circle cx="257" cy="63" r="3" fill="#4CAF50"/>
<circle cx="278" cy="265" r="3" fill="#2196F3"/>
<circle cx="278" cy="128" r="3" fill="#F44336"/>
<circle cx="278" cy="64" r="3" fill="#4CAF50"/>
<circle cx="299" cy="261" r="3" fill="#2196F3"/>
<circle cx="299" cy="123" r="3" fill="#F44336"/>
<circle cx="299" cy="65" r="3" fill="#4CAF50"/>
<circle cx="320" cy="261" r="3" fill="#2196F3"/>
<circle cx="320" cy="122" r="3" fill="#F44336"/>
<circle cx="320" cy="65" r="3" fill="#4CAF50"/>
<circle cx="341" cy="265" r="3" fill="#2196F3"/>
<circle cx="341" cy="128" r="3" fill="#F44336"/>
<circle cx="341" cy="66" r="3" fill="#4CAF50"/>
<circle cx="362" cy="259" r="3" fill="#2196F3"/>
<circle cx="362" cy="127" r="3" fill="#F44336"/>
<circle cx="362" cy="66" r="3" fill="#4CAF50"/>
<circle cx="383" cy="261" r="3" fill="#2196F3"/>
<circle cx="383" cy="136" r="3" fill="#F44336"/>
<circle cx="383" cy="63" r="3" fill="#4CAF50"/>
<circle cx="404" cy="262" r="3" fill="#2196F3"/>
<circle cx="404" cy="130" r="3" fill="#F44336"/>
<circle cx="404" cy="61" r="3" fill="#4CAF50"/>
<circle cx="425" cy="266" r="3" fill="#2196F3"/>
<circle cx="425" cy="126" r="3" fill="#F44336"/>
<circle cx="425" cy="61" r="3" fill="#4CAF50"/>
<circle cx="445" cy="265" r="3" fill="#2196F3"/>
<circle cx="445" cy="125" r="3" fill="#F44336"/>
<circle cx="445" cy="67" r="3" fill="#4CAF50"/>
<circle cx="466" cy="262" r="3" fill="#2196F3"/>
<circle cx="466" cy="128" r="3" fill="#F44336"/>
<circle cx="466" cy="61" r="3" fill="#4CAF50"/>
<circle cx="487" cy="263" r="3" fill="#2196F3"/>
<circle cx="487" cy="128" r="3" fill="#F44336"/>
<circle cx="487" cy="65" r="3" fill="#4CAF50"/>
<circle cx="508" cy="265" r="3" fill="#2196F3"/>
<circle cx="508" cy="133" r="3" fill="#F44336"/>
<circle cx="508" cy="68" r="3" fill="#4CAF50"/>
<circle cx="529" cy="265" r="3" fill="#2196F3"/>
<circle cx="529" cy="128" r="3" fill="#F44336"/>
<circle cx="529" cy="65" r="3" fill="#4CAF50"/>
<circle cx="550" cy="265" r="3" fill="#2196F3"/>
<circle cx="550" cy="135" r="3" fill="#F44336"/>
<circle cx="550" cy="66" r="3" fill="#4CAF50"/>
<circle cx="571" cy="263" r="3" fill="#2196F3"/>
<circle cx="571" cy="96" r="3" fill="#F44336"/>
<circle cx="571" cy="57" r="3" fill="#4CAF50"/>
<circle cx="592" cy="262" r="3" fill="#2196F3"/>
<circle cx="592" cy="103" r="3" fill="#F44336"/>
<circle cx="592" cy="63" r="3" fill="#4CAF50"/>
<circle cx="612" cy="264" r="3" fill="#2196F3"/>
<circle cx="612" cy="101" r="3" fill="#F44336"/>
<circle cx="612" cy="57" r="3" fill="#4CAF50"/>
<circle cx="633" cy="265" r="3" fill="#2196F3"/>
<circle cx="633" cy="105" r="3" fill="#F44336"/>
<circle cx="633" cy="58" r="3" fill="#4CAF50"/>
<circle cx="654" cy="264" r="3" fill="#2196F3"/>
<circle cx="654" cy="103" r="3" fill="#F44336"/>
<circle cx="654" cy="63" r="3" fill="#4CAF50"/>
<circle cx="675" cy="262" r="3" fill="#2196F3"/>
<circle cx="675" cy="104" r="3" fill="#F44336"/>
<circle cx="675" cy="65" r="3" fill="#4CAF50"/>
<circle cx="696" cy="264" r="3" fill="#2196F3"/>
<circle cx="696" cy="105" r="3" fill="#F44336"/>
<circle cx="696" cy="56" r="3" fill="#4CAF50"/>
<circle cx="717" cy="260" r="3" fill="#2196F3"/>
<circle cx="717" cy="105" r="3" fill="#F44336"/>
<circle cx="717" cy="49" r="3" fill="#4CAF50"/>
<circle cx="738" cy="263" r="3" fill="#2196F3"/>
<circle cx="738" cy="99" r="3" fill="#F44336"/>
<circle cx="738" cy="53" r="3" fill="#4CAF50"/>
<circle cx="759" cy="264" r="3" fill="#2196F3"/>
<circle cx="759" cy="99" r="3" fill="#F44336"/>
<circle cx="759" cy="52" r="3" fill="#4CAF50"/>
<circle cx="780" cy="261" r="3" fill="#2196F3"/>
<circle cx="780" cy="103" r="3" fill="#F44336"/>
<circle cx="780" cy="53" r="3" fill="#4CAF50"/>
<text x="70" y="355" text-anchor="middle" font-size="10" fill="#666">d31c3d3</text>
<text x="90" y="355" text-anchor="middle" font-size="10" fill="#666">577b0f6</text>
<text x="111" y="355" text-anchor="middle" font-size="10" fill="#666">a0e3a8f</text>
<text x="132" y="355" text-anchor="middle" font-size="10" fill="#666">32b7787</text>
<text x="153" y="355" text-anchor="middle" font-size="10" fill="#666">940e369</text>
<text x="174" y="355" text-anchor="middle" font-size="10" fill="#666">78956c1</text>
<text x="195" y="355" text-anchor="middle" font-size="10" fill="#666">1a288e9</text>
<text x="216" y="355" text-anchor="middle" font-size="10" fill="#666">f1c0746</text>
<text x="237" y="355" text-anchor="middle" font-size="10" fill="#666">efad3b5</text>
<text x="257" y="355" text-anchor="middle" font-size="10" fill="#666">d3839be</text>
<text x="278" y="355" text-anchor="middle" font-size="10" fill="#666">a0c21b2</text>
<text x="299" y="355" text-anchor="middle" font-size="10" fill="#666">c3d3d81</text>
<text x="320" y="355" text-anchor="middle" font-size="10" fill="#666">e40d897</text>
<text x="341" y="355" text-anchor="middle" font-size="10" fill="#666">0b1ed97</text>
<text x="362" y="355" text-anchor="middle" font-size="10" fill="#666">6a5ae3f</text>
<text x="383" y="355" text-anchor="middle" font-size="10" fill="#666">59cf448</text>
<text x="404" y="355" text-anchor="middle" font-size="10" fill="#666">42b3e04</text>
<text x="425" y="355" text-anchor="middle" font-size="10" fill="#666">bd9421a</text>
<text x="445" y="355" text-anchor="middle" font-size="10" fill="#666">f80812f</text>
<text x="466" y="355" text-anchor="middle" font-size="10" fill="#666">448a5fe</text>
<text x="487" y="355" text-anchor="middle" font-size="10" fill="#666">b16c1cc</text>
<text x="508" y="355" text-anchor="middle" font-size="10" fill="#666">44c334c</text>
<text x="529" y="355" text-anchor="middle" font-size="10" fill="#666">aa51d1a</text>
<text x="550" y="355" text-anchor="middle" font-size="10" fill="#666">9bee79a</text>
<text x="571" y="355" text-anchor="middle" font-size="10" fill="#666">4380346</text>
<text x="592" y="355" text-anchor="middle" font-size="10" fill="#666">2a587a9</text>
<text x="612" y="355" text-anchor="middle" font-size="10" fill="#666">efb005a</text>
<text x="633" y="355" text-anchor="middle" font-size="10" fill="#666">1c3b72e</text>
<text x="654" y="355" text-anchor="middle" font-size="10" fill="#666">ff7c733</text>
<text x="675" y="355" text-anchor="middle" font-size="10" fill="#666">962897f</text>
<text x="696" y="355" text-anchor="middle" font-size="10" fill="#666">dfec04b</text>
<text x="717" y="355" text-anchor="middle" font-size="10" fill="#666">60e18de</text>
<text x="738" y="355" text-anchor="middle" font-size="10" fill="#666">80a0d41</text>
<text x="759" y="355" text-anchor="middle" font-size="10" fill="#666">e200726</text>
<text x="780" y="355" text-anchor="middle" font-size="10" fill="#666">775a89f</text>
<circle cx="90" cy="20" r="4" fill="#2196F3"/>
<text x="98" y="24" text-anchor="start" font-size="12" fill="#2196F3">Interpreted</text>
<circle cx="200" cy="20" r="4" fill="#F44336"/>
<text x="208" y="24" text-anchor="start" font-size="12" fill="#F44336">Compiled</text>
<circle cx="300" cy="20" r="4" fill="#4CAF50"/>
<text x="308" y="24" text-anchor="start" font-size="12" fill="#4CAF50">Wall-clock</text>
</svg>
