<svg width="800" height="400" xmlns="http://www.w3.org/2000/svg">
<rect width="800" height="400" fill="white"/>
<line x1="70" y1="40" x2="70" y2="340" stroke="#333" stroke-width="1"/>
<line x1="70" y1="340" x2="730" y2="340" stroke="#333" stroke-width="1"/>
<line x1="730" y1="40" x2="730" y2="340" stroke="#333" stroke-width="1"/>
<text x="65" y="344" text-anchor="end" font-size="11" fill="#333">0</text>
<text x="65" y="194" text-anchor="end" font-size="11" fill="#333">393000</text>
<text x="65" y="44" text-anchor="end" font-size="11" fill="#333">786000</text>
<text x="15" y="190" text-anchor="middle" font-size="12" fill="#333" transform="rotate(-90 15 190)">ms</text>
<text x="735" y="344" text-anchor="start" font-size="11" fill="#333">0</text>
<text x="735" y="194" text-anchor="start" font-size="11" fill="#333">6967000000</text>
<text x="735" y="44" text-anchor="start" font-size="11" fill="#333">13934000000</text>
<text x="785" y="190" text-anchor="middle" font-size="12" fill="#333" transform="rotate(90 785 190)">bytes</text>
<polyline points="70,179 143,153 216,188 290,191 363,187 436,184 510,173 583,162 656,156 730,298" fill="none" stroke="#0072B2" stroke-width="2"/>
<polyline points="70,86 143,41 216,86 290,158 363,159 436,160 510,160 583,143 656,124 730,293" fill="none" stroke="#CC79A7" stroke-width="2"/>
<polyline points="70,340 143,340 216,340 290,340 363,340 436,340 510,340 583,340 656,340 730,340" fill="none" stroke="#D55E00" stroke-width="2"/>
<polyline points="70,277 143,268 216,277 290,288 363,288 436,289 510,287 583,282 656,280 730,300" fill="none" stroke="#009E73" stroke-width="2"/>
<polyline points="70,260 143,260 216,260 290,260 363,259 436,259 510,259 583,259 656,259 730,260" fill="none" stroke="#56B4E9" stroke-width="2"/>
<polyline points="70,178 143,178 216,178 290,216 363,213 436,214 510,216 583,210 656,206 730,221" fill="none" stroke="#E69F00" stroke-width="2"/>
<polyline points="70,340 143,340 216,340 290,340 363,340 436,340 510,340 583,340 656,340 730,340" fill="none" stroke="#C44E52" stroke-width="2"/>
<polyline points="70,41 143,41 216,41 290,81 363,80 436,81 510,84 583,77 656,72 730,96" fill="none" stroke="#000000" stroke-width="2"/>
<circle cx="70" cy="179" r="3" fill="#0072B2"/>
<circle cx="70" cy="86" r="3" fill="#CC79A7"/>
<circle cx="70" cy="340" r="3" fill="#D55E00"/>
<circle cx="70" cy="277" r="3" fill="#009E73"/>
<circle cx="70" cy="260" r="3" fill="#56B4E9"/>
<circle cx="70" cy="178" r="3" fill="#E69F00"/>
<circle cx="70" cy="340" r="3" fill="#C44E52"/>
<circle cx="70" cy="41" r="3" fill="#000000"/>
<circle cx="143" cy="153" r="3" fill="#0072B2"/>
<circle cx="143" cy="41" r="3" fill="#CC79A7"/>
<circle cx="143" cy="340" r="3" fill="#D55E00"/>
<circle cx="143" cy="268" r="3" fill="#009E73"/>
<circle cx="143" cy="260" r="3" fill="#56B4E9"/>
<circle cx="143" cy="178" r="3" fill="#E69F00"/>
<circle cx="143" cy="340" r="3" fill="#C44E52"/>
<circle cx="143" cy="41" r="3" fill="#000000"/>
<circle cx="216" cy="188" r="3" fill="#0072B2"/>
<circle cx="216" cy="86" r="3" fill="#CC79A7"/>
<circle cx="216" cy="340" r="3" fill="#D55E00"/>
<circle cx="216" cy="277" r="3" fill="#009E73"/>
<circle cx="216" cy="260" r="3" fill="#56B4E9"/>
<circle cx="216" cy="178" r="3" fill="#E69F00"/>
<circle cx="216" cy="340" r="3" fill="#C44E52"/>
<circle cx="216" cy="41" r="3" fill="#000000"/>
<circle cx="290" cy="191" r="3" fill="#0072B2"/>
<circle cx="290" cy="158" r="3" fill="#CC79A7"/>
<circle cx="290" cy="340" r="3" fill="#D55E00"/>
<circle cx="290" cy="288" r="3" fill="#009E73"/>
<circle cx="290" cy="260" r="3" fill="#56B4E9"/>
<circle cx="290" cy="216" r="3" fill="#E69F00"/>
<circle cx="290" cy="340" r="3" fill="#C44E52"/>
<circle cx="290" cy="81" r="3" fill="#000000"/>
<circle cx="363" cy="187" r="3" fill="#0072B2"/>
<circle cx="363" cy="159" r="3" fill="#CC79A7"/>
<circle cx="363" cy="340" r="3" fill="#D55E00"/>
<circle cx="363" cy="288" r="3" fill="#009E73"/>
<circle cx="363" cy="259" r="3" fill="#56B4E9"/>
<circle cx="363" cy="213" r="3" fill="#E69F00"/>
<circle cx="363" cy="340" r="3" fill="#C44E52"/>
<circle cx="363" cy="80" r="3" fill="#000000"/>
<circle cx="436" cy="184" r="3" fill="#0072B2"/>
<circle cx="436" cy="160" r="3" fill="#CC79A7"/>
<circle cx="436" cy="340" r="3" fill="#D55E00"/>
<circle cx="436" cy="289" r="3" fill="#009E73"/>
<circle cx="436" cy="259" r="3" fill="#56B4E9"/>
<circle cx="436" cy="214" r="3" fill="#E69F00"/>
<circle cx="436" cy="340" r="3" fill="#C44E52"/>
<circle cx="436" cy="81" r="3" fill="#000000"/>
<circle cx="510" cy="173" r="3" fill="#0072B2"/>
<circle cx="510" cy="160" r="3" fill="#CC79A7"/>
<circle cx="510" cy="340" r="3" fill="#D55E00"/>
<circle cx="510" cy="287" r="3" fill="#009E73"/>
<circle cx="510" cy="259" r="3" fill="#56B4E9"/>
<circle cx="510" cy="216" r="3" fill="#E69F00"/>
<circle cx="510" cy="340" r="3" fill="#C44E52"/>
<circle cx="510" cy="84" r="3" fill="#000000"/>
<circle cx="583" cy="162" r="3" fill="#0072B2"/>
<circle cx="583" cy="143" r="3" fill="#CC79A7"/>
<circle cx="583" cy="340" r="3" fill="#D55E00"/>
<circle cx="583" cy="282" r="3" fill="#009E73"/>
<circle cx="583" cy="259" r="3" fill="#56B4E9"/>
<circle cx="583" cy="210" r="3" fill="#E69F00"/>
<circle cx="583" cy="340" r="3" fill="#C44E52"/>
<circle cx="583" cy="77" r="3" fill="#000000"/>
<circle cx="656" cy="156" r="3" fill="#0072B2"/>
<circle cx="656" cy="124" r="3" fill="#CC79A7"/>
<circle cx="656" cy="340" r="3" fill="#D55E00"/>
<circle cx="656" cy="280" r="3" fill="#009E73"/>
<circle cx="656" cy="259" r="3" fill="#56B4E9"/>
<circle cx="656" cy="206" r="3" fill="#E69F00"/>
<circle cx="656" cy="340" r="3" fill="#C44E52"/>
<circle cx="656" cy="72" r="3" fill="#000000"/>
<circle cx="730" cy="298" r="3" fill="#0072B2"/>
<circle cx="730" cy="293" r="3" fill="#CC79A7"/>
<circle cx="730" cy="340" r="3" fill="#D55E00"/>
<circle cx="730" cy="300" r="3" fill="#009E73"/>
<circle cx="730" cy="260" r="3" fill="#56B4E9"/>
<circle cx="730" cy="221" r="3" fill="#E69F00"/>
<circle cx="730" cy="340" r="3" fill="#C44E52"/>
<circle cx="730" cy="96" r="3" fill="#000000"/>
<circle cx="90" cy="20" r="4" fill="#0072B2"/>
<text x="98" y="24" text-anchor="start" font-size="12" fill="#0072B2">inte</text>
<circle cx="150" cy="20" r="4" fill="#CC79A7"/>
<text x="158" y="24" text-anchor="start" font-size="12" fill="#CC79A7">comp</text>
<circle cx="215" cy="20" r="4" fill="#D55E00"/>
<text x="223" y="24" text-anchor="start" font-size="12" fill="#D55E00">run</text>
<circle cx="270" cy="20" r="4" fill="#009E73"/>
<text x="278" y="24" text-anchor="start" font-size="12" fill="#009E73">wall</text>
<circle cx="335" cy="20" r="4" fill="#56B4E9"/>
<text x="343" y="24" text-anchor="start" font-size="12" fill="#56B4E9">mem-inte</text>
<circle cx="425" cy="20" r="4" fill="#E69F00"/>
<text x="433" y="24" text-anchor="start" font-size="12" fill="#E69F00">mem-comp</text>
<circle cx="520" cy="20" r="4" fill="#C44E52"/>
<text x="528" y="24" text-anchor="start" font-size="12" fill="#C44E52">mem-run</text>
<circle cx="605" cy="20" r="4" fill="#000000"/>
<text x="613" y="24" text-anchor="start" font-size="12" fill="#000000">mem-total</text>
</svg>
