<svg width="800" height="400" xmlns="http://www.w3.org/2000/svg">
<rect width="800" height="400" fill="white"/>
<line x1="70" y1="40" x2="70" y2="340" stroke="#333" stroke-width="1"/>
<line x1="70" y1="340" x2="780" y2="340" stroke="#333" stroke-width="1"/>
<text x="65" y="344" text-anchor="end" font-size="11" fill="#333">0</text>
<text x="65" y="194" text-anchor="end" font-size="11" fill="#333">63000</text>
<text x="65" y="44" text-anchor="end" font-size="11" fill="#333">126000</text>
<text x="15" y="190" text-anchor="middle" font-size="12" fill="#333" transform="rotate(-90 15 190)">ms</text>
<polyline points="70,56 148,52 227,47 306,43 385,45 464,46 543,48 622,42 701,45 780,42" fill="none" stroke="#0072B2" stroke-width="2"/>
<polyline points="70,249 148,246 227,241 306,240 385,240 464,241 543,241 622,241 701,241 780,242" fill="none" stroke="#D55E00" stroke-width="2"/>
<polyline points="70,74 148,72 227,69 306,66 385,68 464,70 543,71 622,75 701,75 780,70" fill="none" stroke="#CC79A7" stroke-width="2"/>
<polyline points="70,253 148,250 227,244 306,243 385,243 464,244 543,246 622,245 701,245 780,245" fill="none" stroke="#E69F00" stroke-width="2"/>
<polyline points="70,129 148,127 227,129 306,125 385,128 464,126 543,129 622,127 701,131 780,125" fill="none" stroke="#009E73" stroke-width="2"/>
<circle cx="70" cy="56" r="3" fill="#0072B2"/>
<circle cx="70" cy="249" r="3" fill="#D55E00"/>
<circle cx="70" cy="74" r="3" fill="#CC79A7"/>
<circle cx="70" cy="253" r="3" fill="#E69F00"/>
<circle cx="70" cy="129" r="3" fill="#009E73"/>
<circle cx="148" cy="52" r="3" fill="#0072B2"/>
<circle cx="148" cy="246" r="3" fill="#D55E00"/>
<circle cx="148" cy="72" r="3" fill="#CC79A7"/>
<circle cx="148" cy="250" r="3" fill="#E69F00"/>
<circle cx="148" cy="127" r="3" fill="#009E73"/>
<circle cx="227" cy="47" r="3" fill="#0072B2"/>
<circle cx="227" cy="241" r="3" fill="#D55E00"/>
<circle cx="227" cy="69" r="3" fill="#CC79A7"/>
<circle cx="227" cy="244" r="3" fill="#E69F00"/>
<circle cx="227" cy="129" r="3" fill="#009E73"/>
<circle cx="306" cy="43" r="3" fill="#0072B2"/>
<circle cx="306" cy="240" r="3" fill="#D55E00"/>
<circle cx="306" cy="66" r="3" fill="#CC79A7"/>
<circle cx="306" cy="243" r="3" fill="#E69F00"/>
<circle cx="306" cy="125" r="3" fill="#009E73"/>
<circle cx="385" cy="45" r="3" fill="#0072B2"/>
<circle cx="385" cy="240" r="3" fill="#D55E00"/>
<circle cx="385" cy="68" r="3" fill="#CC79A7"/>
<circle cx="385" cy="243" r="3" fill="#E69F00"/>
<circle cx="385" cy="128" r="3" fill="#009E73"/>
<circle cx="464" cy="46" r="3" fill="#0072B2"/>
<circle cx="464" cy="241" r="3" fill="#D55E00"/>
<circle cx="464" cy="70" r="3" fill="#CC79A7"/>
<circle cx="464" cy="244" r="3" fill="#E69F00"/>
<circle cx="464" cy="126" r="3" fill="#009E73"/>
<circle cx="543" cy="48" r="3" fill="#0072B2"/>
<circle cx="543" cy="241" r="3" fill="#D55E00"/>
<circle cx="543" cy="71" r="3" fill="#CC79A7"/>
<circle cx="543" cy="246" r="3" fill="#E69F00"/>
<circle cx="543" cy="129" r="3" fill="#009E73"/>
<circle cx="622" cy="42" r="3" fill="#0072B2"/>
<circle cx="622" cy="241" r="3" fill="#D55E00"/>
<circle cx="622" cy="75" r="3" fill="#CC79A7"/>
<circle cx="622" cy="245" r="3" fill="#E69F00"/>
<circle cx="622" cy="127" r="3" fill="#009E73"/>
<circle cx="701" cy="45" r="3" fill="#0072B2"/>
<circle cx="701" cy="241" r="3" fill="#D55E00"/>
<circle cx="701" cy="75" r="3" fill="#CC79A7"/>
<circle cx="701" cy="245" r="3" fill="#E69F00"/>
<circle cx="701" cy="131" r="3" fill="#009E73"/>
<circle cx="780" cy="42" r="3" fill="#0072B2"/>
<circle cx="780" cy="242" r="3" fill="#D55E00"/>
<circle cx="780" cy="70" r="3" fill="#CC79A7"/>
<circle cx="780" cy="245" r="3" fill="#E69F00"/>
<circle cx="780" cy="125" r="3" fill="#009E73"/>
<circle cx="90" cy="20" r="4" fill="#0072B2"/>
<text x="98" y="24" text-anchor="start" font-size="12" fill="#0072B2">ctil-i</text>
<circle cx="160" cy="20" r="4" fill="#D55E00"/>
<text x="168" y="24" text-anchor="start" font-size="12" fill="#D55E00">ctil-r</text>
<circle cx="230" cy="20" r="4" fill="#CC79A7"/>
<text x="238" y="24" text-anchor="start" font-size="12" fill="#CC79A7">til-i</text>
<circle cx="290" cy="20" r="4" fill="#E69F00"/>
<text x="298" y="24" text-anchor="start" font-size="12" fill="#E69F00">til-r</text>
<circle cx="350" cy="20" r="4" fill="#009E73"/>
<text x="358" y="24" text-anchor="start" font-size="12" fill="#009E73">Wall</text>
</svg>
