<svg width="800" height="400" xmlns="http://www.w3.org/2000/svg">
<rect width="800" height="400" fill="white"/>
<line x1="70" y1="40" x2="70" y2="340" stroke="#333" stroke-width="1"/>
<line x1="70" y1="340" x2="780" y2="340" stroke="#333" stroke-width="1"/>
<text x="65" y="344" text-anchor="end" font-size="11" fill="#333">0</text>
<text x="65" y="194" text-anchor="end" font-size="11" fill="#333">4000</text>
<text x="65" y="44" text-anchor="end" font-size="11" fill="#333">8000</text>
<text x="15" y="190" text-anchor="middle" font-size="12" fill="#333" transform="rotate(-90 15 190)">ms</text>
<polyline points="70,268 111,266 153,269 195,265 237,269 278,267 320,263 362,265 404,260 445,260 487,265 529,261 571,261 612,265 654,259 696,261 738,262 780,266" fill="none" stroke="#2196F3" stroke-width="2"/>
<polyline points="70,131 111,132 153,133 195,128 237,130 278,135 320,127 362,127 404,127 445,128 487,128 529,123 571,122 612,128 654,127 696,136 738,130 780,126" fill="none" stroke="#F44336" stroke-width="2"/>
<polyline points="70,79 111,80 153,80 195,78 237,84 278,71 320,69 362,69 404,66 445,63 487,64 529,65 571,65 612,66 654,66 696,63 738,61 780,61" fill="none" stroke="#4CAF50" stroke-width="2"/>
<circle cx="70" cy="268" r="3" fill="#2196F3"/>
<circle cx="70" cy="131" r="3" fill="#F44336"/>
<circle cx="70" cy="79" r="3" fill="#4CAF50"/>
<circle cx="111" cy="266" r="3" fill="#2196F3"/>
<circle cx="111" cy="132" r="3" fill="#F44336"/>
<circle cx="111" cy="80" r="3" fill="#4CAF50"/>
<circle cx="153" cy="269" r="3" fill="#2196F3"/>
<circle cx="153" cy="133" r="3" fill="#F44336"/>
<circle cx="153" cy="80" r="3" fill="#4CAF50"/>
<circle cx="195" cy="265" r="3" fill="#2196F3"/>
<circle cx="195" cy="128" r="3" fill="#F44336"/>
<circle cx="195" cy="78" r="3" fill="#4CAF50"/>
<circle cx="237" cy="269" r="3" fill="#2196F3"/>
<circle cx="237" cy="130" r="3" fill="#F44336"/>
<circle cx="237" cy="84" r="3" fill="#4CAF50"/>
<circle cx="278" cy="267" r="3" fill="#2196F3"/>
<circle cx="278" cy="135" r="3" fill="#F44336"/>
<circle cx="278" cy="71" r="3" fill="#4CAF50"/>
<circle cx="320" cy="263" r="3" fill="#2196F3"/>
<circle cx="320" cy="127" r="3" fill="#F44336"/>
<circle cx="320" cy="69" r="3" fill="#4CAF50"/>
<circle cx="362" cy="265" r="3" fill="#2196F3"/>
<circle cx="362" cy="127" r="3" fill="#F44336"/>
<circle cx="362" cy="69" r="3" fill="#4CAF50"/>
<circle cx="404" cy="260" r="3" fill="#2196F3"/>
<circle cx="404" cy="127" r="3" fill="#F44336"/>
<circle cx="404" cy="66" r="3" fill="#4CAF50"/>
<circle cx="445" cy="260" r="3" fill="#2196F3"/>
<circle cx="445" cy="128" r="3" fill="#F44336"/>
<circle cx="445" cy="63" r="3" fill="#4CAF50"/>
<circle cx="487" cy="265" r="3" fill="#2196F3"/>
<circle cx="487" cy="128" r="3" fill="#F44336"/>
<circle cx="487" cy="64" r="3" fill="#4CAF50"/>
<circle cx="529" cy="261" r="3" fill="#2196F3"/>
<circle cx="529" cy="123" r="3" fill="#F44336"/>
<circle cx="529" cy="65" r="3" fill="#4CAF50"/>
<circle cx="571" cy="261" r="3" fill="#2196F3"/>
<circle cx="571" cy="122" r="3" fill="#F44336"/>
<circle cx="571" cy="65" r="3" fill="#4CAF50"/>
<circle cx="612" cy="265" r="3" fill="#2196F3"/>
<circle cx="612" cy="128" r="3" fill="#F44336"/>
<circle cx="612" cy="66" r="3" fill="#4CAF50"/>
<circle cx="654" cy="259" r="3" fill="#2196F3"/>
<circle cx="654" cy="127" r="3" fill="#F44336"/>
<circle cx="654" cy="66" r="3" fill="#4CAF50"/>
<circle cx="696" cy="261" r="3" fill="#2196F3"/>
<circle cx="696" cy="136" r="3" fill="#F44336"/>
<circle cx="696" cy="63" r="3" fill="#4CAF50"/>
<circle cx="738" cy="262" r="3" fill="#2196F3"/>
<circle cx="738" cy="130" r="3" fill="#F44336"/>
<circle cx="738" cy="61" r="3" fill="#4CAF50"/>
<circle cx="780" cy="266" r="3" fill="#2196F3"/>
<circle cx="780" cy="126" r="3" fill="#F44336"/>
<circle cx="780" cy="61" r="3" fill="#4CAF50"/>
<text x="70" y="355" text-anchor="middle" font-size="10" fill="#666">d31c3d3</text>
<text x="111" y="355" text-anchor="middle" font-size="10" fill="#666">577b0f6</text>
<text x="153" y="355" text-anchor="middle" font-size="10" fill="#666">a0e3a8f</text>
<text x="195" y="355" text-anchor="middle" font-size="10" fill="#666">32b7787</text>
<text x="237" y="355" text-anchor="middle" font-size="10" fill="#666">940e369</text>
<text x="278" y="355" text-anchor="middle" font-size="10" fill="#666">78956c1</text>
<text x="320" y="355" text-anchor="middle" font-size="10" fill="#666">1a288e9</text>
<text x="362" y="355" text-anchor="middle" font-size="10" fill="#666">f1c0746</text>
<text x="404" y="355" text-anchor="middle" font-size="10" fill="#666">efad3b5</text>
<text x="445" y="355" text-anchor="middle" font-size="10" fill="#666">d3839be</text>
<text x="487" y="355" text-anchor="middle" font-size="10" fill="#666">a0c21b2</text>
<text x="529" y="355" text-anchor="middle" font-size="10" fill="#666">c3d3d81</text>
<text x="571" y="355" text-anchor="middle" font-size="10" fill="#666">e40d897</text>
<text x="612" y="355" text-anchor="middle" font-size="10" fill="#666">0b1ed97</text>
<text x="654" y="355" text-anchor="middle" font-size="10" fill="#666">6a5ae3f</text>
<text x="696" y="355" text-anchor="middle" font-size="10" fill="#666">59cf448</text>
<text x="738" y="355" text-anchor="middle" font-size="10" fill="#666">42b3e04</text>
<text x="780" y="355" text-anchor="middle" font-size="10" fill="#666">bd9421a</text>
<circle cx="90" cy="20" r="4" fill="#2196F3"/>
<text x="98" y="24" text-anchor="start" font-size="12" fill="#2196F3">Interpreted</text>
<circle cx="200" cy="20" r="4" fill="#F44336"/>
<text x="208" y="24" text-anchor="start" font-size="12" fill="#F44336">Compiled</text>
<circle cx="300" cy="20" r="4" fill="#4CAF50"/>
<text x="308" y="24" text-anchor="start" font-size="12" fill="#4CAF50">Wall-clock</text>
</svg>
