<svg width="800" height="400" xmlns="http://www.w3.org/2000/svg">
<rect width="800" height="400" fill="white"/>
<line x1="70" y1="40" x2="70" y2="340" stroke="#333" stroke-width="1"/>
<line x1="70" y1="340" x2="730" y2="340" stroke="#333" stroke-width="1"/>
<line x1="730" y1="40" x2="730" y2="340" stroke="#333" stroke-width="1"/>
<text x="65" y="344" text-anchor="end" font-size="11" fill="#333">0</text>
<text x="65" y="194" text-anchor="end" font-size="11" fill="#333">102500</text>
<text x="65" y="44" text-anchor="end" font-size="11" fill="#333">205000</text>
<text x="15" y="190" text-anchor="middle" font-size="12" fill="#333" transform="rotate(-90 15 190)">ms</text>
<text x="735" y="344" text-anchor="start" font-size="11" fill="#333">0</text>
<text x="735" y="194" text-anchor="start" font-size="11" fill="#333">10687500000</text>
<text x="735" y="44" text-anchor="start" font-size="11" fill="#333">21375000000</text>
<text x="785" y="190" text-anchor="middle" font-size="12" fill="#333" transform="rotate(90 785 190)">bytes</text>
<polyline points="70,155 143,153 216,153 290,156 363,157 436,155 510,150 583,150 656,154 730,151" fill="none" stroke="#0072B2" stroke-width="2"/>
<polyline points="70,56 143,53 216,51 290,55 363,57 436,54 510,46 583,42 656,47 730,41" fill="none" stroke="#CC79A7" stroke-width="2"/>
<polyline points="70,339 143,339 216,339 290,340 363,339 436,339 510,339 583,339 656,340 730,339" fill="none" stroke="#D55E00" stroke-width="2"/>
<polyline points="70,309 143,308 216,308 290,309 363,309 436,309 510,308 583,308 656,308 730,308" fill="none" stroke="#009E73" stroke-width="2"/>
<polyline points="70,226 143,224 216,225 290,227 363,231 436,227 510,222 583,223 656,225 730,224" fill="none" stroke="#984EA3" stroke-width="2"/>
<polyline points="70,296 143,296 216,296 290,296 363,296 436,296 510,296 583,296 656,296 730,296" fill="none" stroke="#56B4E9" stroke-width="2"/>
<polyline points="70,188 143,188 216,187 290,187 363,188 436,188 510,188 583,187 656,187 730,187" fill="none" stroke="#E69F00" stroke-width="2"/>
<polyline points="70,339 143,339 216,339 290,340 363,339 436,339 510,339 583,339 656,340 730,338" fill="none" stroke="#C44E52" stroke-width="2"/>
<polyline points="70,41 143,41 216,41 290,41 363,41 436,41 510,41 583,42 656,42 730,41" fill="none" stroke="#000000" stroke-width="2"/>
<polyline points="70,333 143,333 216,333 290,333 363,333 436,333 510,333 583,333 656,333 730,333" fill="none" stroke="#8C564B" stroke-width="2"/>
<circle cx="70" cy="155" r="3" fill="#0072B2"/>
<circle cx="70" cy="56" r="3" fill="#CC79A7"/>
<circle cx="70" cy="339" r="3" fill="#D55E00"/>
<circle cx="70" cy="309" r="3" fill="#009E73"/>
<circle cx="70" cy="226" r="3" fill="#984EA3"/>
<circle cx="70" cy="296" r="3" fill="#56B4E9"/>
<circle cx="70" cy="188" r="3" fill="#E69F00"/>
<circle cx="70" cy="339" r="3" fill="#C44E52"/>
<circle cx="70" cy="41" r="3" fill="#000000"/>
<circle cx="70" cy="333" r="3" fill="#8C564B"/>
<circle cx="143" cy="153" r="3" fill="#0072B2"/>
<circle cx="143" cy="53" r="3" fill="#CC79A7"/>
<circle cx="143" cy="339" r="3" fill="#D55E00"/>
<circle cx="143" cy="308" r="3" fill="#009E73"/>
<circle cx="143" cy="224" r="3" fill="#984EA3"/>
<circle cx="143" cy="296" r="3" fill="#56B4E9"/>
<circle cx="143" cy="188" r="3" fill="#E69F00"/>
<circle cx="143" cy="339" r="3" fill="#C44E52"/>
<circle cx="143" cy="41" r="3" fill="#000000"/>
<circle cx="143" cy="333" r="3" fill="#8C564B"/>
<circle cx="216" cy="153" r="3" fill="#0072B2"/>
<circle cx="216" cy="51" r="3" fill="#CC79A7"/>
<circle cx="216" cy="339" r="3" fill="#D55E00"/>
<circle cx="216" cy="308" r="3" fill="#009E73"/>
<circle cx="216" cy="225" r="3" fill="#984EA3"/>
<circle cx="216" cy="296" r="3" fill="#56B4E9"/>
<circle cx="216" cy="187" r="3" fill="#E69F00"/>
<circle cx="216" cy="339" r="3" fill="#C44E52"/>
<circle cx="216" cy="41" r="3" fill="#000000"/>
<circle cx="216" cy="333" r="3" fill="#8C564B"/>
<circle cx="290" cy="156" r="3" fill="#0072B2"/>
<circle cx="290" cy="55" r="3" fill="#CC79A7"/>
<circle cx="290" cy="340" r="3" fill="#D55E00"/>
<circle cx="290" cy="309" r="3" fill="#009E73"/>
<circle cx="290" cy="227" r="3" fill="#984EA3"/>
<circle cx="290" cy="296" r="3" fill="#56B4E9"/>
<circle cx="290" cy="187" r="3" fill="#E69F00"/>
<circle cx="290" cy="340" r="3" fill="#C44E52"/>
<circle cx="290" cy="41" r="3" fill="#000000"/>
<circle cx="290" cy="333" r="3" fill="#8C564B"/>
<circle cx="363" cy="157" r="3" fill="#0072B2"/>
<circle cx="363" cy="57" r="3" fill="#CC79A7"/>
<circle cx="363" cy="339" r="3" fill="#D55E00"/>
<circle cx="363" cy="309" r="3" fill="#009E73"/>
<circle cx="363" cy="231" r="3" fill="#984EA3"/>
<circle cx="363" cy="296" r="3" fill="#56B4E9"/>
<circle cx="363" cy="188" r="3" fill="#E69F00"/>
<circle cx="363" cy="339" r="3" fill="#C44E52"/>
<circle cx="363" cy="41" r="3" fill="#000000"/>
<circle cx="363" cy="333" r="3" fill="#8C564B"/>
<circle cx="436" cy="155" r="3" fill="#0072B2"/>
<circle cx="436" cy="54" r="3" fill="#CC79A7"/>
<circle cx="436" cy="339" r="3" fill="#D55E00"/>
<circle cx="436" cy="309" r="3" fill="#009E73"/>
<circle cx="436" cy="227" r="3" fill="#984EA3"/>
<circle cx="436" cy="296" r="3" fill="#56B4E9"/>
<circle cx="436" cy="188" r="3" fill="#E69F00"/>
<circle cx="436" cy="339" r="3" fill="#C44E52"/>
<circle cx="436" cy="41" r="3" fill="#000000"/>
<circle cx="436" cy="333" r="3" fill="#8C564B"/>
<circle cx="510" cy="150" r="3" fill="#0072B2"/>
<circle cx="510" cy="46" r="3" fill="#CC79A7"/>
<circle cx="510" cy="339" r="3" fill="#D55E00"/>
<circle cx="510" cy="308" r="3" fill="#009E73"/>
<circle cx="510" cy="222" r="3" fill="#984EA3"/>
<circle cx="510" cy="296" r="3" fill="#56B4E9"/>
<circle cx="510" cy="188" r="3" fill="#E69F00"/>
<circle cx="510" cy="339" r="3" fill="#C44E52"/>
<circle cx="510" cy="41" r="3" fill="#000000"/>
<circle cx="510" cy="333" r="3" fill="#8C564B"/>
<circle cx="583" cy="150" r="3" fill="#0072B2"/>
<circle cx="583" cy="42" r="3" fill="#CC79A7"/>
<circle cx="583" cy="339" r="3" fill="#D55E00"/>
<circle cx="583" cy="308" r="3" fill="#009E73"/>
<circle cx="583" cy="223" r="3" fill="#984EA3"/>
<circle cx="583" cy="296" r="3" fill="#56B4E9"/>
<circle cx="583" cy="187" r="3" fill="#E69F00"/>
<circle cx="583" cy="339" r="3" fill="#C44E52"/>
<circle cx="583" cy="42" r="3" fill="#000000"/>
<circle cx="583" cy="333" r="3" fill="#8C564B"/>
<circle cx="656" cy="154" r="3" fill="#0072B2"/>
<circle cx="656" cy="47" r="3" fill="#CC79A7"/>
<circle cx="656" cy="340" r="3" fill="#D55E00"/>
<circle cx="656" cy="308" r="3" fill="#009E73"/>
<circle cx="656" cy="225" r="3" fill="#984EA3"/>
<circle cx="656" cy="296" r="3" fill="#56B4E9"/>
<circle cx="656" cy="187" r="3" fill="#E69F00"/>
<circle cx="656" cy="340" r="3" fill="#C44E52"/>
<circle cx="656" cy="42" r="3" fill="#000000"/>
<circle cx="656" cy="333" r="3" fill="#8C564B"/>
<circle cx="730" cy="151" r="3" fill="#0072B2"/>
<circle cx="730" cy="41" r="3" fill="#CC79A7"/>
<circle cx="730" cy="339" r="3" fill="#D55E00"/>
<circle cx="730" cy="308" r="3" fill="#009E73"/>
<circle cx="730" cy="224" r="3" fill="#984EA3"/>
<circle cx="730" cy="296" r="3" fill="#56B4E9"/>
<circle cx="730" cy="187" r="3" fill="#E69F00"/>
<circle cx="730" cy="338" r="3" fill="#C44E52"/>
<circle cx="730" cy="41" r="3" fill="#000000"/>
<circle cx="730" cy="333" r="3" fill="#8C564B"/>
<circle cx="70" cy="20" r="4" fill="#0072B2"/>
<text x="78" y="24" text-anchor="start" font-size="12" fill="#0072B2">inte</text>
<circle cx="130" cy="20" r="4" fill="#CC79A7"/>
<text x="138" y="24" text-anchor="start" font-size="12" fill="#CC79A7">comp</text>
<circle cx="195" cy="20" r="4" fill="#D55E00"/>
<text x="203" y="24" text-anchor="start" font-size="12" fill="#D55E00">run</text>
<circle cx="250" cy="20" r="4" fill="#009E73"/>
<text x="258" y="24" text-anchor="start" font-size="12" fill="#009E73">wall</text>
<circle cx="315" cy="20" r="4" fill="#984EA3"/>
<text x="323" y="24" text-anchor="start" font-size="12" fill="#984EA3">self</text>
<circle cx="380" cy="20" r="4" fill="#56B4E9"/>
<text x="388" y="24" text-anchor="start" font-size="12" fill="#56B4E9">mem-inte</text>
<circle cx="470" cy="20" r="4" fill="#E69F00"/>
<text x="478" y="24" text-anchor="start" font-size="12" fill="#E69F00">mem-comp</text>
<circle cx="565" cy="20" r="4" fill="#C44E52"/>
<text x="573" y="24" text-anchor="start" font-size="12" fill="#C44E52">mem-run</text>
<circle cx="650" cy="20" r="4" fill="#000000"/>
<text x="658" y="24" text-anchor="start" font-size="12" fill="#000000">mem-total</text>
<circle cx="745" cy="20" r="4" fill="#8C564B"/>
<text x="753" y="24" text-anchor="start" font-size="12" fill="#8C564B">self-mem</text>
</svg>
