<svg width="800" height="400" xmlns="http://www.w3.org/2000/svg">
<rect width="800" height="400" fill="white"/>
<line x1="70" y1="40" x2="70" y2="340" stroke="#333" stroke-width="1"/>
<line x1="70" y1="340" x2="730" y2="340" stroke="#333" stroke-width="1"/>
<line x1="730" y1="40" x2="730" y2="340" stroke="#333" stroke-width="1"/>
<text x="65" y="344" text-anchor="end" font-size="11" fill="#333">0</text>
<text x="65" y="194" text-anchor="end" font-size="11" fill="#333">188000</text>
<text x="65" y="44" text-anchor="end" font-size="11" fill="#333">376000</text>
<text x="15" y="190" text-anchor="middle" font-size="12" fill="#333" transform="rotate(-90 15 190)">ms</text>
<text x="735" y="344" text-anchor="start" font-size="11" fill="#333">0</text>
<text x="735" y="194" text-anchor="start" font-size="11" fill="#333">16811000000</text>
<text x="735" y="44" text-anchor="start" font-size="11" fill="#333">33622000000</text>
<text x="785" y="190" text-anchor="middle" font-size="12" fill="#333" transform="rotate(90 785 190)">bytes</text>
<polyline points="70,239 143,236 216,244 290,241 363,245 436,239 510,236 583,239 656,74 730,113" fill="none" stroke="#0072B2" stroke-width="2"/>
<polyline points="70,207 143,206 216,210 290,209 363,216 436,208 510,203 583,208 656,41 730,85" fill="none" stroke="#CC79A7" stroke-width="2"/>
<polyline points="70,340 143,340 216,340 290,340 363,340 436,340 510,340 583,340 656,340 730,340" fill="none" stroke="#D55E00" stroke-width="2"/>
<polyline points="70,311 143,311 216,312 290,312 363,313 436,312 510,311 583,311 656,239 730,255" fill="none" stroke="#009E73" stroke-width="2"/>
<polyline points="70,317 143,317 216,317 290,317 363,316 436,316 510,317 583,317 656,319 730,234" fill="none" stroke="#56B4E9" stroke-width="2"/>
<polyline points="70,293 143,294 216,294 290,294 363,292 436,292 510,294 583,293 656,301 730,191" fill="none" stroke="#E69F00" stroke-width="2"/>
<polyline points="70,339 143,339 216,339 290,339 363,340 436,339 510,339 583,339 656,340 730,340" fill="none" stroke="#C44E52" stroke-width="2"/>
<polyline points="70,229 143,235 216,229 290,237 363,237 436,232 510,229 583,229 656,258 730,41" fill="none" stroke="#000000" stroke-width="2"/>
<circle cx="70" cy="239" r="3" fill="#0072B2"/>
<circle cx="70" cy="207" r="3" fill="#CC79A7"/>
<circle cx="70" cy="340" r="3" fill="#D55E00"/>
<circle cx="70" cy="311" r="3" fill="#009E73"/>
<circle cx="70" cy="317" r="3" fill="#56B4E9"/>
<circle cx="70" cy="293" r="3" fill="#E69F00"/>
<circle cx="70" cy="339" r="3" fill="#C44E52"/>
<circle cx="70" cy="229" r="3" fill="#000000"/>
<circle cx="143" cy="236" r="3" fill="#0072B2"/>
<circle cx="143" cy="206" r="3" fill="#CC79A7"/>
<circle cx="143" cy="340" r="3" fill="#D55E00"/>
<circle cx="143" cy="311" r="3" fill="#009E73"/>
<circle cx="143" cy="317" r="3" fill="#56B4E9"/>
<circle cx="143" cy="294" r="3" fill="#E69F00"/>
<circle cx="143" cy="339" r="3" fill="#C44E52"/>
<circle cx="143" cy="235" r="3" fill="#000000"/>
<circle cx="216" cy="244" r="3" fill="#0072B2"/>
<circle cx="216" cy="210" r="3" fill="#CC79A7"/>
<circle cx="216" cy="340" r="3" fill="#D55E00"/>
<circle cx="216" cy="312" r="3" fill="#009E73"/>
<circle cx="216" cy="317" r="3" fill="#56B4E9"/>
<circle cx="216" cy="294" r="3" fill="#E69F00"/>
<circle cx="216" cy="339" r="3" fill="#C44E52"/>
<circle cx="216" cy="229" r="3" fill="#000000"/>
<circle cx="290" cy="241" r="3" fill="#0072B2"/>
<circle cx="290" cy="209" r="3" fill="#CC79A7"/>
<circle cx="290" cy="340" r="3" fill="#D55E00"/>
<circle cx="290" cy="312" r="3" fill="#009E73"/>
<circle cx="290" cy="317" r="3" fill="#56B4E9"/>
<circle cx="290" cy="294" r="3" fill="#E69F00"/>
<circle cx="290" cy="339" r="3" fill="#C44E52"/>
<circle cx="290" cy="237" r="3" fill="#000000"/>
<circle cx="363" cy="245" r="3" fill="#0072B2"/>
<circle cx="363" cy="216" r="3" fill="#CC79A7"/>
<circle cx="363" cy="340" r="3" fill="#D55E00"/>
<circle cx="363" cy="313" r="3" fill="#009E73"/>
<circle cx="363" cy="316" r="3" fill="#56B4E9"/>
<circle cx="363" cy="292" r="3" fill="#E69F00"/>
<circle cx="363" cy="340" r="3" fill="#C44E52"/>
<circle cx="363" cy="237" r="3" fill="#000000"/>
<circle cx="436" cy="239" r="3" fill="#0072B2"/>
<circle cx="436" cy="208" r="3" fill="#CC79A7"/>
<circle cx="436" cy="340" r="3" fill="#D55E00"/>
<circle cx="436" cy="312" r="3" fill="#009E73"/>
<circle cx="436" cy="316" r="3" fill="#56B4E9"/>
<circle cx="436" cy="292" r="3" fill="#E69F00"/>
<circle cx="436" cy="339" r="3" fill="#C44E52"/>
<circle cx="436" cy="232" r="3" fill="#000000"/>
<circle cx="510" cy="236" r="3" fill="#0072B2"/>
<circle cx="510" cy="203" r="3" fill="#CC79A7"/>
<circle cx="510" cy="340" r="3" fill="#D55E00"/>
<circle cx="510" cy="311" r="3" fill="#009E73"/>
<circle cx="510" cy="317" r="3" fill="#56B4E9"/>
<circle cx="510" cy="294" r="3" fill="#E69F00"/>
<circle cx="510" cy="339" r="3" fill="#C44E52"/>
<circle cx="510" cy="229" r="3" fill="#000000"/>
<circle cx="583" cy="239" r="3" fill="#0072B2"/>
<circle cx="583" cy="208" r="3" fill="#CC79A7"/>
<circle cx="583" cy="340" r="3" fill="#D55E00"/>
<circle cx="583" cy="311" r="3" fill="#009E73"/>
<circle cx="583" cy="317" r="3" fill="#56B4E9"/>
<circle cx="583" cy="293" r="3" fill="#E69F00"/>
<circle cx="583" cy="339" r="3" fill="#C44E52"/>
<circle cx="583" cy="229" r="3" fill="#000000"/>
<circle cx="656" cy="74" r="3" fill="#0072B2"/>
<circle cx="656" cy="41" r="3" fill="#CC79A7"/>
<circle cx="656" cy="340" r="3" fill="#D55E00"/>
<circle cx="656" cy="239" r="3" fill="#009E73"/>
<circle cx="656" cy="319" r="3" fill="#56B4E9"/>
<circle cx="656" cy="301" r="3" fill="#E69F00"/>
<circle cx="656" cy="340" r="3" fill="#C44E52"/>
<circle cx="656" cy="258" r="3" fill="#000000"/>
<circle cx="730" cy="113" r="3" fill="#0072B2"/>
<circle cx="730" cy="85" r="3" fill="#CC79A7"/>
<circle cx="730" cy="340" r="3" fill="#D55E00"/>
<circle cx="730" cy="255" r="3" fill="#009E73"/>
<circle cx="730" cy="234" r="3" fill="#56B4E9"/>
<circle cx="730" cy="191" r="3" fill="#E69F00"/>
<circle cx="730" cy="340" r="3" fill="#C44E52"/>
<circle cx="730" cy="41" r="3" fill="#000000"/>
<circle cx="90" cy="20" r="4" fill="#0072B2"/>
<text x="98" y="24" text-anchor="start" font-size="12" fill="#0072B2">inte</text>
<circle cx="150" cy="20" r="4" fill="#CC79A7"/>
<text x="158" y="24" text-anchor="start" font-size="12" fill="#CC79A7">comp</text>
<circle cx="215" cy="20" r="4" fill="#D55E00"/>
<text x="223" y="24" text-anchor="start" font-size="12" fill="#D55E00">run</text>
<circle cx="270" cy="20" r="4" fill="#009E73"/>
<text x="278" y="24" text-anchor="start" font-size="12" fill="#009E73">wall</text>
<circle cx="335" cy="20" r="4" fill="#56B4E9"/>
<text x="343" y="24" text-anchor="start" font-size="12" fill="#56B4E9">mem-inte</text>
<circle cx="425" cy="20" r="4" fill="#E69F00"/>
<text x="433" y="24" text-anchor="start" font-size="12" fill="#E69F00">mem-comp</text>
<circle cx="520" cy="20" r="4" fill="#C44E52"/>
<text x="528" y="24" text-anchor="start" font-size="12" fill="#C44E52">mem-run</text>
<circle cx="605" cy="20" r="4" fill="#000000"/>
<text x="613" y="24" text-anchor="start" font-size="12" fill="#000000">mem-total</text>
</svg>
