<svg width="800" height="400" xmlns="http://www.w3.org/2000/svg">
<rect width="800" height="400" fill="white"/>
<line x1="70" y1="40" x2="70" y2="340" stroke="#333" stroke-width="1"/>
<line x1="70" y1="340" x2="730" y2="340" stroke="#333" stroke-width="1"/>
<line x1="730" y1="40" x2="730" y2="340" stroke="#333" stroke-width="1"/>
<text x="65" y="344" text-anchor="end" font-size="11" fill="#333">0</text>
<text x="65" y="194" text-anchor="end" font-size="11" fill="#333">45500</text>
<text x="65" y="44" text-anchor="end" font-size="11" fill="#333">91000</text>
<text x="15" y="190" text-anchor="middle" font-size="12" fill="#333" transform="rotate(-90 15 190)">ms</text>
<text x="735" y="344" text-anchor="start" font-size="11" fill="#333">0</text>
<text x="735" y="194" text-anchor="start" font-size="11" fill="#333">1000000</text>
<text x="735" y="44" text-anchor="start" font-size="11" fill="#333">2000000</text>
<text x="785" y="190" text-anchor="middle" font-size="12" fill="#333" transform="rotate(90 785 190)">bytes</text>
<polyline points="70,58 143,62 216,65 290,60 363,57 436,56 510,58 583,54 656,59 730,58" fill="none" stroke="#0072B2" stroke-width="2"/>
<polyline points="70,49 143,50 216,52 290,52 363,49 436,43 510,42 583,44 656,43 730,45" fill="none" stroke="#CC79A7" stroke-width="2"/>
<polyline points="70,335 143,335 216,335 290,335 363,335 436,335 510,335 583,335 656,335 730,335" fill="none" stroke="#D55E00" stroke-width="2"/>
<polyline points="70,301 143,301 216,302 290,301 363,301 436,301 510,300 583,300 656,301 730,300" fill="none" stroke="#009E73" stroke-width="2"/>
<polyline points="70,63 143,63 216,64 290,63 363,64 436,64 510,64 583,66 656,64 730,64" fill="none" stroke="#56B4E9" stroke-width="2"/>
<circle cx="70" cy="58" r="3" fill="#0072B2"/>
<circle cx="70" cy="49" r="3" fill="#CC79A7"/>
<circle cx="70" cy="335" r="3" fill="#D55E00"/>
<circle cx="70" cy="301" r="3" fill="#009E73"/>
<circle cx="70" cy="63" r="3" fill="#56B4E9"/>
<circle cx="143" cy="62" r="3" fill="#0072B2"/>
<circle cx="143" cy="50" r="3" fill="#CC79A7"/>
<circle cx="143" cy="335" r="3" fill="#D55E00"/>
<circle cx="143" cy="301" r="3" fill="#009E73"/>
<circle cx="143" cy="63" r="3" fill="#56B4E9"/>
<circle cx="216" cy="65" r="3" fill="#0072B2"/>
<circle cx="216" cy="52" r="3" fill="#CC79A7"/>
<circle cx="216" cy="335" r="3" fill="#D55E00"/>
<circle cx="216" cy="302" r="3" fill="#009E73"/>
<circle cx="216" cy="64" r="3" fill="#56B4E9"/>
<circle cx="290" cy="60" r="3" fill="#0072B2"/>
<circle cx="290" cy="52" r="3" fill="#CC79A7"/>
<circle cx="290" cy="335" r="3" fill="#D55E00"/>
<circle cx="290" cy="301" r="3" fill="#009E73"/>
<circle cx="290" cy="63" r="3" fill="#56B4E9"/>
<circle cx="363" cy="57" r="3" fill="#0072B2"/>
<circle cx="363" cy="49" r="3" fill="#CC79A7"/>
<circle cx="363" cy="335" r="3" fill="#D55E00"/>
<circle cx="363" cy="301" r="3" fill="#009E73"/>
<circle cx="363" cy="64" r="3" fill="#56B4E9"/>
<circle cx="436" cy="56" r="3" fill="#0072B2"/>
<circle cx="436" cy="43" r="3" fill="#CC79A7"/>
<circle cx="436" cy="335" r="3" fill="#D55E00"/>
<circle cx="436" cy="301" r="3" fill="#009E73"/>
<circle cx="436" cy="64" r="3" fill="#56B4E9"/>
<circle cx="510" cy="58" r="3" fill="#0072B2"/>
<circle cx="510" cy="42" r="3" fill="#CC79A7"/>
<circle cx="510" cy="335" r="3" fill="#D55E00"/>
<circle cx="510" cy="300" r="3" fill="#009E73"/>
<circle cx="510" cy="64" r="3" fill="#56B4E9"/>
<circle cx="583" cy="54" r="3" fill="#0072B2"/>
<circle cx="583" cy="44" r="3" fill="#CC79A7"/>
<circle cx="583" cy="335" r="3" fill="#D55E00"/>
<circle cx="583" cy="300" r="3" fill="#009E73"/>
<circle cx="583" cy="66" r="3" fill="#56B4E9"/>
<circle cx="656" cy="59" r="3" fill="#0072B2"/>
<circle cx="656" cy="43" r="3" fill="#CC79A7"/>
<circle cx="656" cy="335" r="3" fill="#D55E00"/>
<circle cx="656" cy="301" r="3" fill="#009E73"/>
<circle cx="656" cy="64" r="3" fill="#56B4E9"/>
<circle cx="730" cy="58" r="3" fill="#0072B2"/>
<circle cx="730" cy="45" r="3" fill="#CC79A7"/>
<circle cx="730" cy="335" r="3" fill="#D55E00"/>
<circle cx="730" cy="300" r="3" fill="#009E73"/>
<circle cx="730" cy="64" r="3" fill="#56B4E9"/>
<circle cx="90" cy="20" r="4" fill="#0072B2"/>
<text x="98" y="24" text-anchor="start" font-size="12" fill="#0072B2">interpreted</text>
<circle cx="190" cy="20" r="4" fill="#CC79A7"/>
<text x="198" y="24" text-anchor="start" font-size="12" fill="#CC79A7">compiled</text>
<circle cx="275" cy="20" r="4" fill="#D55E00"/>
<text x="283" y="24" text-anchor="start" font-size="12" fill="#D55E00">executed</text>
<circle cx="355" cy="20" r="4" fill="#009E73"/>
<text x="363" y="24" text-anchor="start" font-size="12" fill="#009E73">wall</text>
<circle cx="420" cy="20" r="4" fill="#56B4E9"/>
<text x="428" y="24" text-anchor="start" font-size="12" fill="#56B4E9">memory</text>
</svg>
