<svg width="800" height="400" xmlns="http://www.w3.org/2000/svg">
<rect width="800" height="400" fill="white"/>
<line x1="70" y1="40" x2="70" y2="340" stroke="#333" stroke-width="1"/>
<line x1="70" y1="340" x2="780" y2="340" stroke="#333" stroke-width="1"/>
<text x="65" y="344" text-anchor="end" font-size="11" fill="#333">0</text>
<text x="65" y="194" text-anchor="end" font-size="11" fill="#333">50500</text>
<text x="65" y="44" text-anchor="end" font-size="11" fill="#333">101000</text>
<text x="15" y="190" text-anchor="middle" font-size="12" fill="#333" transform="rotate(-90 15 190)">ms</text>
<polyline points="70,41 148,103 227,102 306,95 385,99 464,98 543,121 622,118 701,120 780,116" fill="none" stroke="#0072B2" stroke-width="2"/>
<polyline points="70,41 148,96 227,94 306,89 385,93 464,91 543,115 622,113 701,112 780,107" fill="none" stroke="#CC79A7" stroke-width="2"/>
<polyline points="70,335 148,335 227,335 306,335 385,335 464,335 543,335 622,335 701,335 780,335" fill="none" stroke="#D55E00" stroke-width="2"/>
<polyline points="70,297 148,305 227,306 306,305 385,306 464,305 543,308 622,307 701,308 780,308" fill="none" stroke="#009E73" stroke-width="2"/>
<circle cx="70" cy="41" r="3" fill="#0072B2"/>
<circle cx="70" cy="41" r="3" fill="#CC79A7"/>
<circle cx="70" cy="335" r="3" fill="#D55E00"/>
<circle cx="70" cy="297" r="3" fill="#009E73"/>
<circle cx="148" cy="103" r="3" fill="#0072B2"/>
<circle cx="148" cy="96" r="3" fill="#CC79A7"/>
<circle cx="148" cy="335" r="3" fill="#D55E00"/>
<circle cx="148" cy="305" r="3" fill="#009E73"/>
<circle cx="227" cy="102" r="3" fill="#0072B2"/>
<circle cx="227" cy="94" r="3" fill="#CC79A7"/>
<circle cx="227" cy="335" r="3" fill="#D55E00"/>
<circle cx="227" cy="306" r="3" fill="#009E73"/>
<circle cx="306" cy="95" r="3" fill="#0072B2"/>
<circle cx="306" cy="89" r="3" fill="#CC79A7"/>
<circle cx="306" cy="335" r="3" fill="#D55E00"/>
<circle cx="306" cy="305" r="3" fill="#009E73"/>
<circle cx="385" cy="99" r="3" fill="#0072B2"/>
<circle cx="385" cy="93" r="3" fill="#CC79A7"/>
<circle cx="385" cy="335" r="3" fill="#D55E00"/>
<circle cx="385" cy="306" r="3" fill="#009E73"/>
<circle cx="464" cy="98" r="3" fill="#0072B2"/>
<circle cx="464" cy="91" r="3" fill="#CC79A7"/>
<circle cx="464" cy="335" r="3" fill="#D55E00"/>
<circle cx="464" cy="305" r="3" fill="#009E73"/>
<circle cx="543" cy="121" r="3" fill="#0072B2"/>
<circle cx="543" cy="115" r="3" fill="#CC79A7"/>
<circle cx="543" cy="335" r="3" fill="#D55E00"/>
<circle cx="543" cy="308" r="3" fill="#009E73"/>
<circle cx="622" cy="118" r="3" fill="#0072B2"/>
<circle cx="622" cy="113" r="3" fill="#CC79A7"/>
<circle cx="622" cy="335" r="3" fill="#D55E00"/>
<circle cx="622" cy="307" r="3" fill="#009E73"/>
<circle cx="701" cy="120" r="3" fill="#0072B2"/>
<circle cx="701" cy="112" r="3" fill="#CC79A7"/>
<circle cx="701" cy="335" r="3" fill="#D55E00"/>
<circle cx="701" cy="308" r="3" fill="#009E73"/>
<circle cx="780" cy="116" r="3" fill="#0072B2"/>
<circle cx="780" cy="107" r="3" fill="#CC79A7"/>
<circle cx="780" cy="335" r="3" fill="#D55E00"/>
<circle cx="780" cy="308" r="3" fill="#009E73"/>
<circle cx="90" cy="20" r="4" fill="#0072B2"/>
<text x="98" y="24" text-anchor="start" font-size="12" fill="#0072B2">interpreted</text>
<circle cx="190" cy="20" r="4" fill="#CC79A7"/>
<text x="198" y="24" text-anchor="start" font-size="12" fill="#CC79A7">compiled</text>
<circle cx="275" cy="20" r="4" fill="#D55E00"/>
<text x="283" y="24" text-anchor="start" font-size="12" fill="#D55E00">executed</text>
<circle cx="355" cy="20" r="4" fill="#009E73"/>
<text x="363" y="24" text-anchor="start" font-size="12" fill="#009E73">wall</text>
</svg>
