<svg width="800" height="400" xmlns="http://www.w3.org/2000/svg">
<rect width="800" height="400" fill="white"/>
<line x1="70" y1="40" x2="70" y2="340" stroke="#333" stroke-width="1"/>
<line x1="70" y1="340" x2="730" y2="340" stroke="#333" stroke-width="1"/>
<line x1="730" y1="40" x2="730" y2="340" stroke="#333" stroke-width="1"/>
<text x="65" y="344" text-anchor="end" font-size="11" fill="#333">0</text>
<text x="65" y="194" text-anchor="end" font-size="11" fill="#333">584000</text>
<text x="65" y="44" text-anchor="end" font-size="11" fill="#333">1168000</text>
<text x="15" y="190" text-anchor="middle" font-size="12" fill="#333" transform="rotate(-90 15 190)">ms</text>
<text x="735" y="344" text-anchor="start" font-size="11" fill="#333">0</text>
<text x="735" y="194" text-anchor="start" font-size="11" fill="#333">69543500000</text>
<text x="735" y="44" text-anchor="start" font-size="11" fill="#333">139087000000</text>
<text x="785" y="190" text-anchor="middle" font-size="12" fill="#333" transform="rotate(90 785 190)">bytes</text>
<polyline points="70,61 143,54 216,58 290,54 363,86 436,90 510,89 583,118 656,135 730,136" fill="none" stroke="#0072B2" stroke-width="2"/>
<polyline points="70,45 143,43 216,41 290,44 363,79 436,78 510,75 583,109 656,109 730,109" fill="none" stroke="#CC79A7" stroke-width="2"/>
<polyline points="70,340 143,340 216,340 290,340 363,340 436,340 510,340 583,340 656,340 730,340" fill="none" stroke="#D55E00" stroke-width="2"/>
<polyline points="70,303 143,303 216,303 290,303 363,306 436,307 510,307 583,311 656,312 730,312" fill="none" stroke="#009E73" stroke-width="2"/>
<polyline points="70,193 143,192 216,194 290,192 363,195 436,196 510,195 583,197 656,199 730,198" fill="none" stroke="#984EA3" stroke-width="2"/>
<polyline points="70,48 143,48 216,49 290,49 363,65 436,68 510,66 583,81 656,78 730,76" fill="none" stroke="#56B4E9" stroke-width="2"/>
<polyline points="70,43 143,41 216,41 290,41 363,58 436,59 510,59 583,74 656,69 730,70" fill="none" stroke="#E69F00" stroke-width="2"/>
<polyline points="70,340 143,340 216,340 290,340 363,340 436,340 510,339 583,340 656,340 730,340" fill="none" stroke="#C44E52" stroke-width="2"/>
<polyline points="70,298 143,298 216,298 290,297 363,298 436,298 510,299 583,299 656,299 730,298" fill="none" stroke="#8C564B" stroke-width="2"/>
<circle cx="70" cy="61" r="3" fill="#0072B2"/>
<circle cx="70" cy="45" r="3" fill="#CC79A7"/>
<circle cx="70" cy="340" r="3" fill="#D55E00"/>
<circle cx="70" cy="303" r="3" fill="#009E73"/>
<circle cx="70" cy="193" r="3" fill="#984EA3"/>
<circle cx="70" cy="48" r="3" fill="#56B4E9"/>
<circle cx="70" cy="43" r="3" fill="#E69F00"/>
<circle cx="70" cy="340" r="3" fill="#C44E52"/>
<circle cx="70" cy="298" r="3" fill="#8C564B"/>
<circle cx="143" cy="54" r="3" fill="#0072B2"/>
<circle cx="143" cy="43" r="3" fill="#CC79A7"/>
<circle cx="143" cy="340" r="3" fill="#D55E00"/>
<circle cx="143" cy="303" r="3" fill="#009E73"/>
<circle cx="143" cy="192" r="3" fill="#984EA3"/>
<circle cx="143" cy="48" r="3" fill="#56B4E9"/>
<circle cx="143" cy="41" r="3" fill="#E69F00"/>
<circle cx="143" cy="340" r="3" fill="#C44E52"/>
<circle cx="143" cy="298" r="3" fill="#8C564B"/>
<circle cx="216" cy="58" r="3" fill="#0072B2"/>
<circle cx="216" cy="41" r="3" fill="#CC79A7"/>
<circle cx="216" cy="340" r="3" fill="#D55E00"/>
<circle cx="216" cy="303" r="3" fill="#009E73"/>
<circle cx="216" cy="194" r="3" fill="#984EA3"/>
<circle cx="216" cy="49" r="3" fill="#56B4E9"/>
<circle cx="216" cy="41" r="3" fill="#E69F00"/>
<circle cx="216" cy="340" r="3" fill="#C44E52"/>
<circle cx="216" cy="298" r="3" fill="#8C564B"/>
<circle cx="290" cy="54" r="3" fill="#0072B2"/>
<circle cx="290" cy="44" r="3" fill="#CC79A7"/>
<circle cx="290" cy="340" r="3" fill="#D55E00"/>
<circle cx="290" cy="303" r="3" fill="#009E73"/>
<circle cx="290" cy="192" r="3" fill="#984EA3"/>
<circle cx="290" cy="49" r="3" fill="#56B4E9"/>
<circle cx="290" cy="41" r="3" fill="#E69F00"/>
<circle cx="290" cy="340" r="3" fill="#C44E52"/>
<circle cx="290" cy="297" r="3" fill="#8C564B"/>
<circle cx="363" cy="86" r="3" fill="#0072B2"/>
<circle cx="363" cy="79" r="3" fill="#CC79A7"/>
<circle cx="363" cy="340" r="3" fill="#D55E00"/>
<circle cx="363" cy="306" r="3" fill="#009E73"/>
<circle cx="363" cy="195" r="3" fill="#984EA3"/>
<circle cx="363" cy="65" r="3" fill="#56B4E9"/>
<circle cx="363" cy="58" r="3" fill="#E69F00"/>
<circle cx="363" cy="340" r="3" fill="#C44E52"/>
<circle cx="363" cy="298" r="3" fill="#8C564B"/>
<circle cx="436" cy="90" r="3" fill="#0072B2"/>
<circle cx="436" cy="78" r="3" fill="#CC79A7"/>
<circle cx="436" cy="340" r="3" fill="#D55E00"/>
<circle cx="436" cy="307" r="3" fill="#009E73"/>
<circle cx="436" cy="196" r="3" fill="#984EA3"/>
<circle cx="436" cy="68" r="3" fill="#56B4E9"/>
<circle cx="436" cy="59" r="3" fill="#E69F00"/>
<circle cx="436" cy="340" r="3" fill="#C44E52"/>
<circle cx="436" cy="298" r="3" fill="#8C564B"/>
<circle cx="510" cy="89" r="3" fill="#0072B2"/>
<circle cx="510" cy="75" r="3" fill="#CC79A7"/>
<circle cx="510" cy="340" r="3" fill="#D55E00"/>
<circle cx="510" cy="307" r="3" fill="#009E73"/>
<circle cx="510" cy="195" r="3" fill="#984EA3"/>
<circle cx="510" cy="66" r="3" fill="#56B4E9"/>
<circle cx="510" cy="59" r="3" fill="#E69F00"/>
<circle cx="510" cy="339" r="3" fill="#C44E52"/>
<circle cx="510" cy="299" r="3" fill="#8C564B"/>
<circle cx="583" cy="118" r="3" fill="#0072B2"/>
<circle cx="583" cy="109" r="3" fill="#CC79A7"/>
<circle cx="583" cy="340" r="3" fill="#D55E00"/>
<circle cx="583" cy="311" r="3" fill="#009E73"/>
<circle cx="583" cy="197" r="3" fill="#984EA3"/>
<circle cx="583" cy="81" r="3" fill="#56B4E9"/>
<circle cx="583" cy="74" r="3" fill="#E69F00"/>
<circle cx="583" cy="340" r="3" fill="#C44E52"/>
<circle cx="583" cy="299" r="3" fill="#8C564B"/>
<circle cx="656" cy="135" r="3" fill="#0072B2"/>
<circle cx="656" cy="109" r="3" fill="#CC79A7"/>
<circle cx="656" cy="340" r="3" fill="#D55E00"/>
<circle cx="656" cy="312" r="3" fill="#009E73"/>
<circle cx="656" cy="199" r="3" fill="#984EA3"/>
<circle cx="656" cy="78" r="3" fill="#56B4E9"/>
<circle cx="656" cy="69" r="3" fill="#E69F00"/>
<circle cx="656" cy="340" r="3" fill="#C44E52"/>
<circle cx="656" cy="299" r="3" fill="#8C564B"/>
<circle cx="730" cy="136" r="3" fill="#0072B2"/>
<circle cx="730" cy="109" r="3" fill="#CC79A7"/>
<circle cx="730" cy="340" r="3" fill="#D55E00"/>
<circle cx="730" cy="312" r="3" fill="#009E73"/>
<circle cx="730" cy="198" r="3" fill="#984EA3"/>
<circle cx="730" cy="76" r="3" fill="#56B4E9"/>
<circle cx="730" cy="70" r="3" fill="#E69F00"/>
<circle cx="730" cy="340" r="3" fill="#C44E52"/>
<circle cx="730" cy="298" r="3" fill="#8C564B"/>
<circle cx="70" cy="20" r="4" fill="#0072B2"/>
<text x="78" y="24" text-anchor="start" font-size="12" fill="#0072B2">inte</text>
<circle cx="130" cy="20" r="4" fill="#CC79A7"/>
<text x="138" y="24" text-anchor="start" font-size="12" fill="#CC79A7">comp</text>
<circle cx="195" cy="20" r="4" fill="#D55E00"/>
<text x="203" y="24" text-anchor="start" font-size="12" fill="#D55E00">run</text>
<circle cx="250" cy="20" r="4" fill="#009E73"/>
<text x="258" y="24" text-anchor="start" font-size="12" fill="#009E73">wall</text>
<circle cx="315" cy="20" r="4" fill="#984EA3"/>
<text x="323" y="24" text-anchor="start" font-size="12" fill="#984EA3">self</text>
<circle cx="380" cy="20" r="4" fill="#56B4E9"/>
<text x="388" y="24" text-anchor="start" font-size="12" fill="#56B4E9">mem-inte</text>
<circle cx="470" cy="20" r="4" fill="#E69F00"/>
<text x="478" y="24" text-anchor="start" font-size="12" fill="#E69F00">mem-comp</text>
<circle cx="565" cy="20" r="4" fill="#C44E52"/>
<text x="573" y="24" text-anchor="start" font-size="12" fill="#C44E52">mem-run</text>
<circle cx="650" cy="20" r="4" fill="#8C564B"/>
<text x="658" y="24" text-anchor="start" font-size="12" fill="#8C564B">self-mem</text>
</svg>
