<svg width="800" height="400" xmlns="http://www.w3.org/2000/svg">
<rect width="800" height="400" fill="white"/>
<line x1="70" y1="40" x2="70" y2="340" stroke="#333" stroke-width="1"/>
<line x1="70" y1="340" x2="730" y2="340" stroke="#333" stroke-width="1"/>
<line x1="730" y1="40" x2="730" y2="340" stroke="#333" stroke-width="1"/>
<text x="65" y="344" text-anchor="end" font-size="11" fill="#333">0</text>
<text x="65" y="194" text-anchor="end" font-size="11" fill="#333">46500</text>
<text x="65" y="44" text-anchor="end" font-size="11" fill="#333">93000</text>
<text x="15" y="190" text-anchor="middle" font-size="12" fill="#333" transform="rotate(-90 15 190)">ms</text>
<text x="735" y="344" text-anchor="start" font-size="11" fill="#333">0</text>
<text x="735" y="194" text-anchor="start" font-size="11" fill="#333">4860000000</text>
<text x="735" y="44" text-anchor="start" font-size="11" fill="#333">9720000000</text>
<text x="785" y="190" text-anchor="middle" font-size="12" fill="#333" transform="rotate(90 785 190)">bytes</text>
<polyline points="70,71 143,123 216,121 290,127 363,123 436,118 510,119 583,116 656,117 730,117" fill="none" stroke="#0072B2" stroke-width="2"/>
<polyline points="70,43 143,74 216,75 290,88 363,80 436,73 510,72 583,74 656,76 730,71" fill="none" stroke="#CC79A7" stroke-width="2"/>
<polyline points="70,339 143,339 216,339 290,339 363,339 436,339 510,339 583,339 656,339 730,339" fill="none" stroke="#D55E00" stroke-width="2"/>
<polyline points="70,300 143,304 216,304 290,306 363,305 436,304 510,304 583,304 656,303 730,304" fill="none" stroke="#009E73" stroke-width="2"/>
<polyline points="70,272 143,273 216,275 290,275 363,272 436,273 510,275 583,275 656,271 730,270" fill="none" stroke="#56B4E9" stroke-width="2"/>
<polyline points="70,197 143,197 216,197 290,197 363,197 436,197 510,197 583,196 656,196 730,196" fill="none" stroke="#E69F00" stroke-width="2"/>
<polyline points="70,340 143,340 216,340 290,340 363,340 436,340 510,340 583,340 656,340 730,340" fill="none" stroke="#C44E52" stroke-width="2"/>
<polyline points="70,43 143,45 216,46 290,46 363,43 436,44 510,46 583,45 656,42 730,41" fill="none" stroke="#000000" stroke-width="2"/>
<circle cx="70" cy="71" r="3" fill="#0072B2"/>
<circle cx="70" cy="43" r="3" fill="#CC79A7"/>
<circle cx="70" cy="339" r="3" fill="#D55E00"/>
<circle cx="70" cy="300" r="3" fill="#009E73"/>
<circle cx="70" cy="272" r="3" fill="#56B4E9"/>
<circle cx="70" cy="197" r="3" fill="#E69F00"/>
<circle cx="70" cy="340" r="3" fill="#C44E52"/>
<circle cx="70" cy="43" r="3" fill="#000000"/>
<circle cx="143" cy="123" r="3" fill="#0072B2"/>
<circle cx="143" cy="74" r="3" fill="#CC79A7"/>
<circle cx="143" cy="339" r="3" fill="#D55E00"/>
<circle cx="143" cy="304" r="3" fill="#009E73"/>
<circle cx="143" cy="273" r="3" fill="#56B4E9"/>
<circle cx="143" cy="197" r="3" fill="#E69F00"/>
<circle cx="143" cy="340" r="3" fill="#C44E52"/>
<circle cx="143" cy="45" r="3" fill="#000000"/>
<circle cx="216" cy="121" r="3" fill="#0072B2"/>
<circle cx="216" cy="75" r="3" fill="#CC79A7"/>
<circle cx="216" cy="339" r="3" fill="#D55E00"/>
<circle cx="216" cy="304" r="3" fill="#009E73"/>
<circle cx="216" cy="275" r="3" fill="#56B4E9"/>
<circle cx="216" cy="197" r="3" fill="#E69F00"/>
<circle cx="216" cy="340" r="3" fill="#C44E52"/>
<circle cx="216" cy="46" r="3" fill="#000000"/>
<circle cx="290" cy="127" r="3" fill="#0072B2"/>
<circle cx="290" cy="88" r="3" fill="#CC79A7"/>
<circle cx="290" cy="339" r="3" fill="#D55E00"/>
<circle cx="290" cy="306" r="3" fill="#009E73"/>
<circle cx="290" cy="275" r="3" fill="#56B4E9"/>
<circle cx="290" cy="197" r="3" fill="#E69F00"/>
<circle cx="290" cy="340" r="3" fill="#C44E52"/>
<circle cx="290" cy="46" r="3" fill="#000000"/>
<circle cx="363" cy="123" r="3" fill="#0072B2"/>
<circle cx="363" cy="80" r="3" fill="#CC79A7"/>
<circle cx="363" cy="339" r="3" fill="#D55E00"/>
<circle cx="363" cy="305" r="3" fill="#009E73"/>
<circle cx="363" cy="272" r="3" fill="#56B4E9"/>
<circle cx="363" cy="197" r="3" fill="#E69F00"/>
<circle cx="363" cy="340" r="3" fill="#C44E52"/>
<circle cx="363" cy="43" r="3" fill="#000000"/>
<circle cx="436" cy="118" r="3" fill="#0072B2"/>
<circle cx="436" cy="73" r="3" fill="#CC79A7"/>
<circle cx="436" cy="339" r="3" fill="#D55E00"/>
<circle cx="436" cy="304" r="3" fill="#009E73"/>
<circle cx="436" cy="273" r="3" fill="#56B4E9"/>
<circle cx="436" cy="197" r="3" fill="#E69F00"/>
<circle cx="436" cy="340" r="3" fill="#C44E52"/>
<circle cx="436" cy="44" r="3" fill="#000000"/>
<circle cx="510" cy="119" r="3" fill="#0072B2"/>
<circle cx="510" cy="72" r="3" fill="#CC79A7"/>
<circle cx="510" cy="339" r="3" fill="#D55E00"/>
<circle cx="510" cy="304" r="3" fill="#009E73"/>
<circle cx="510" cy="275" r="3" fill="#56B4E9"/>
<circle cx="510" cy="197" r="3" fill="#E69F00"/>
<circle cx="510" cy="340" r="3" fill="#C44E52"/>
<circle cx="510" cy="46" r="3" fill="#000000"/>
<circle cx="583" cy="116" r="3" fill="#0072B2"/>
<circle cx="583" cy="74" r="3" fill="#CC79A7"/>
<circle cx="583" cy="339" r="3" fill="#D55E00"/>
<circle cx="583" cy="304" r="3" fill="#009E73"/>
<circle cx="583" cy="275" r="3" fill="#56B4E9"/>
<circle cx="583" cy="196" r="3" fill="#E69F00"/>
<circle cx="583" cy="340" r="3" fill="#C44E52"/>
<circle cx="583" cy="45" r="3" fill="#000000"/>
<circle cx="656" cy="117" r="3" fill="#0072B2"/>
<circle cx="656" cy="76" r="3" fill="#CC79A7"/>
<circle cx="656" cy="339" r="3" fill="#D55E00"/>
<circle cx="656" cy="303" r="3" fill="#009E73"/>
<circle cx="656" cy="271" r="3" fill="#56B4E9"/>
<circle cx="656" cy="196" r="3" fill="#E69F00"/>
<circle cx="656" cy="340" r="3" fill="#C44E52"/>
<circle cx="656" cy="42" r="3" fill="#000000"/>
<circle cx="730" cy="117" r="3" fill="#0072B2"/>
<circle cx="730" cy="71" r="3" fill="#CC79A7"/>
<circle cx="730" cy="339" r="3" fill="#D55E00"/>
<circle cx="730" cy="304" r="3" fill="#009E73"/>
<circle cx="730" cy="270" r="3" fill="#56B4E9"/>
<circle cx="730" cy="196" r="3" fill="#E69F00"/>
<circle cx="730" cy="340" r="3" fill="#C44E52"/>
<circle cx="730" cy="41" r="3" fill="#000000"/>
<circle cx="90" cy="20" r="4" fill="#0072B2"/>
<text x="98" y="24" text-anchor="start" font-size="12" fill="#0072B2">inte</text>
<circle cx="150" cy="20" r="4" fill="#CC79A7"/>
<text x="158" y="24" text-anchor="start" font-size="12" fill="#CC79A7">comp</text>
<circle cx="215" cy="20" r="4" fill="#D55E00"/>
<text x="223" y="24" text-anchor="start" font-size="12" fill="#D55E00">run</text>
<circle cx="270" cy="20" r="4" fill="#009E73"/>
<text x="278" y="24" text-anchor="start" font-size="12" fill="#009E73">wall</text>
<circle cx="335" cy="20" r="4" fill="#56B4E9"/>
<text x="343" y="24" text-anchor="start" font-size="12" fill="#56B4E9">mem-inte</text>
<circle cx="425" cy="20" r="4" fill="#E69F00"/>
<text x="433" y="24" text-anchor="start" font-size="12" fill="#E69F00">mem-comp</text>
<circle cx="520" cy="20" r="4" fill="#C44E52"/>
<text x="528" y="24" text-anchor="start" font-size="12" fill="#C44E52">mem-run</text>
<circle cx="605" cy="20" r="4" fill="#000000"/>
<text x="613" y="24" text-anchor="start" font-size="12" fill="#000000">mem-total</text>
</svg>
