<svg width="800" height="400" xmlns="http://www.w3.org/2000/svg">
<rect width="800" height="400" fill="white"/>
<line x1="70" y1="40" x2="70" y2="340" stroke="#333" stroke-width="1"/>
<line x1="70" y1="340" x2="730" y2="340" stroke="#333" stroke-width="1"/>
<line x1="730" y1="40" x2="730" y2="340" stroke="#333" stroke-width="1"/>
<text x="65" y="344" text-anchor="end" font-size="11" fill="#333">0</text>
<text x="65" y="194" text-anchor="end" font-size="11" fill="#333">92500</text>
<text x="65" y="44" text-anchor="end" font-size="11" fill="#333">185000</text>
<text x="15" y="190" text-anchor="middle" font-size="12" fill="#333" transform="rotate(-90 15 190)">ms</text>
<text x="735" y="344" text-anchor="start" font-size="11" fill="#333">0</text>
<text x="735" y="194" text-anchor="start" font-size="11" fill="#333">5734500000</text>
<text x="735" y="44" text-anchor="start" font-size="11" fill="#333">11469000000</text>
<text x="785" y="190" text-anchor="middle" font-size="12" fill="#333" transform="rotate(90 785 190)">bytes</text>
<polyline points="70,145 143,167 216,146 290,65 363,67 436,65 510,64 583,107 656,167 730,165" fill="none" stroke="#0072B2" stroke-width="2"/>
<polyline points="70,128 143,151 216,125 290,41 363,44 436,41 510,42 583,88 656,148 730,147" fill="none" stroke="#CC79A7" stroke-width="2"/>
<polyline points="70,340 143,340 216,340 290,340 363,340 436,340 510,340 583,340 656,340 730,340" fill="none" stroke="#D55E00" stroke-width="2"/>
<polyline points="70,156 143,174 216,153 290,81 363,83 436,79 510,80 583,121 656,172 730,171" fill="none" stroke="#009E73" stroke-width="2"/>
<polyline points="70,244 143,244 216,244 290,243 363,243 436,243 510,243 583,243 656,243 730,243" fill="none" stroke="#56B4E9" stroke-width="2"/>
<polyline points="70,193 143,196 216,196 290,196 363,197 436,194 510,194 583,192 656,194 730,193" fill="none" stroke="#E69F00" stroke-width="2"/>
<polyline points="70,340 143,340 216,340 290,340 363,340 436,340 510,340 583,340 656,340 730,340" fill="none" stroke="#C44E52" stroke-width="2"/>
<polyline points="70,41 143,48 216,49 290,48 363,49 436,45 510,46 583,43 656,46 730,45" fill="none" stroke="#000000" stroke-width="2"/>
<circle cx="70" cy="145" r="3" fill="#0072B2"/>
<circle cx="70" cy="128" r="3" fill="#CC79A7"/>
<circle cx="70" cy="340" r="3" fill="#D55E00"/>
<circle cx="70" cy="156" r="3" fill="#009E73"/>
<circle cx="70" cy="244" r="3" fill="#56B4E9"/>
<circle cx="70" cy="193" r="3" fill="#E69F00"/>
<circle cx="70" cy="340" r="3" fill="#C44E52"/>
<circle cx="70" cy="41" r="3" fill="#000000"/>
<circle cx="143" cy="167" r="3" fill="#0072B2"/>
<circle cx="143" cy="151" r="3" fill="#CC79A7"/>
<circle cx="143" cy="340" r="3" fill="#D55E00"/>
<circle cx="143" cy="174" r="3" fill="#009E73"/>
<circle cx="143" cy="244" r="3" fill="#56B4E9"/>
<circle cx="143" cy="196" r="3" fill="#E69F00"/>
<circle cx="143" cy="340" r="3" fill="#C44E52"/>
<circle cx="143" cy="48" r="3" fill="#000000"/>
<circle cx="216" cy="146" r="3" fill="#0072B2"/>
<circle cx="216" cy="125" r="3" fill="#CC79A7"/>
<circle cx="216" cy="340" r="3" fill="#D55E00"/>
<circle cx="216" cy="153" r="3" fill="#009E73"/>
<circle cx="216" cy="244" r="3" fill="#56B4E9"/>
<circle cx="216" cy="196" r="3" fill="#E69F00"/>
<circle cx="216" cy="340" r="3" fill="#C44E52"/>
<circle cx="216" cy="49" r="3" fill="#000000"/>
<circle cx="290" cy="65" r="3" fill="#0072B2"/>
<circle cx="290" cy="41" r="3" fill="#CC79A7"/>
<circle cx="290" cy="340" r="3" fill="#D55E00"/>
<circle cx="290" cy="81" r="3" fill="#009E73"/>
<circle cx="290" cy="243" r="3" fill="#56B4E9"/>
<circle cx="290" cy="196" r="3" fill="#E69F00"/>
<circle cx="290" cy="340" r="3" fill="#C44E52"/>
<circle cx="290" cy="48" r="3" fill="#000000"/>
<circle cx="363" cy="67" r="3" fill="#0072B2"/>
<circle cx="363" cy="44" r="3" fill="#CC79A7"/>
<circle cx="363" cy="340" r="3" fill="#D55E00"/>
<circle cx="363" cy="83" r="3" fill="#009E73"/>
<circle cx="363" cy="243" r="3" fill="#56B4E9"/>
<circle cx="363" cy="197" r="3" fill="#E69F00"/>
<circle cx="363" cy="340" r="3" fill="#C44E52"/>
<circle cx="363" cy="49" r="3" fill="#000000"/>
<circle cx="436" cy="65" r="3" fill="#0072B2"/>
<circle cx="436" cy="41" r="3" fill="#CC79A7"/>
<circle cx="436" cy="340" r="3" fill="#D55E00"/>
<circle cx="436" cy="79" r="3" fill="#009E73"/>
<circle cx="436" cy="243" r="3" fill="#56B4E9"/>
<circle cx="436" cy="194" r="3" fill="#E69F00"/>
<circle cx="436" cy="340" r="3" fill="#C44E52"/>
<circle cx="436" cy="45" r="3" fill="#000000"/>
<circle cx="510" cy="64" r="3" fill="#0072B2"/>
<circle cx="510" cy="42" r="3" fill="#CC79A7"/>
<circle cx="510" cy="340" r="3" fill="#D55E00"/>
<circle cx="510" cy="80" r="3" fill="#009E73"/>
<circle cx="510" cy="243" r="3" fill="#56B4E9"/>
<circle cx="510" cy="194" r="3" fill="#E69F00"/>
<circle cx="510" cy="340" r="3" fill="#C44E52"/>
<circle cx="510" cy="46" r="3" fill="#000000"/>
<circle cx="583" cy="107" r="3" fill="#0072B2"/>
<circle cx="583" cy="88" r="3" fill="#CC79A7"/>
<circle cx="583" cy="340" r="3" fill="#D55E00"/>
<circle cx="583" cy="121" r="3" fill="#009E73"/>
<circle cx="583" cy="243" r="3" fill="#56B4E9"/>
<circle cx="583" cy="192" r="3" fill="#E69F00"/>
<circle cx="583" cy="340" r="3" fill="#C44E52"/>
<circle cx="583" cy="43" r="3" fill="#000000"/>
<circle cx="656" cy="167" r="3" fill="#0072B2"/>
<circle cx="656" cy="148" r="3" fill="#CC79A7"/>
<circle cx="656" cy="340" r="3" fill="#D55E00"/>
<circle cx="656" cy="172" r="3" fill="#009E73"/>
<circle cx="656" cy="243" r="3" fill="#56B4E9"/>
<circle cx="656" cy="194" r="3" fill="#E69F00"/>
<circle cx="656" cy="340" r="3" fill="#C44E52"/>
<circle cx="656" cy="46" r="3" fill="#000000"/>
<circle cx="730" cy="165" r="3" fill="#0072B2"/>
<circle cx="730" cy="147" r="3" fill="#CC79A7"/>
<circle cx="730" cy="340" r="3" fill="#D55E00"/>
<circle cx="730" cy="171" r="3" fill="#009E73"/>
<circle cx="730" cy="243" r="3" fill="#56B4E9"/>
<circle cx="730" cy="193" r="3" fill="#E69F00"/>
<circle cx="730" cy="340" r="3" fill="#C44E52"/>
<circle cx="730" cy="45" r="3" fill="#000000"/>
<circle cx="90" cy="20" r="4" fill="#0072B2"/>
<text x="98" y="24" text-anchor="start" font-size="12" fill="#0072B2">inte</text>
<circle cx="150" cy="20" r="4" fill="#CC79A7"/>
<text x="158" y="24" text-anchor="start" font-size="12" fill="#CC79A7">comp</text>
<circle cx="215" cy="20" r="4" fill="#D55E00"/>
<text x="223" y="24" text-anchor="start" font-size="12" fill="#D55E00">run</text>
<circle cx="270" cy="20" r="4" fill="#009E73"/>
<text x="278" y="24" text-anchor="start" font-size="12" fill="#009E73">wall</text>
<circle cx="335" cy="20" r="4" fill="#56B4E9"/>
<text x="343" y="24" text-anchor="start" font-size="12" fill="#56B4E9">mem-inte</text>
<circle cx="425" cy="20" r="4" fill="#E69F00"/>
<text x="433" y="24" text-anchor="start" font-size="12" fill="#E69F00">mem-comp</text>
<circle cx="520" cy="20" r="4" fill="#C44E52"/>
<text x="528" y="24" text-anchor="start" font-size="12" fill="#C44E52">mem-run</text>
<circle cx="605" cy="20" r="4" fill="#000000"/>
<text x="613" y="24" text-anchor="start" font-size="12" fill="#000000">mem-total</text>
</svg>
