<svg width="800" height="400" xmlns="http://www.w3.org/2000/svg">
<rect width="800" height="400" fill="white"/>
<line x1="70" y1="40" x2="70" y2="340" stroke="#333" stroke-width="1"/>
<line x1="70" y1="340" x2="780" y2="340" stroke="#333" stroke-width="1"/>
<text x="65" y="344" text-anchor="end" font-size="11" fill="#333">0</text>
<text x="65" y="194" text-anchor="end" font-size="11" fill="#333">80000</text>
<text x="65" y="44" text-anchor="end" font-size="11" fill="#333">160000</text>
<text x="15" y="190" text-anchor="middle" font-size="12" fill="#333" transform="rotate(-90 15 190)">ms</text>
<polyline points="70,44 148,50 227,55 306,53 385,50 464,50 543,53 622,60 701,59 780,64" fill="none" stroke="#0072B2" stroke-width="2"/>
<polyline points="70,42 148,53 227,59 306,56 385,55 464,56 543,52 622,65 701,64 780,65" fill="none" stroke="#CC79A7" stroke-width="2"/>
<polyline points="70,337 148,337 227,337 306,337 385,337 464,337 543,337 622,337 701,337 780,337" fill="none" stroke="#D55E00" stroke-width="2"/>
<polyline points="70,302 148,303 227,304 306,303 385,303 464,303 543,303 622,304 701,304 780,304" fill="none" stroke="#009E73" stroke-width="2"/>
<circle cx="70" cy="44" r="3" fill="#0072B2"/>
<circle cx="70" cy="42" r="3" fill="#CC79A7"/>
<circle cx="70" cy="337" r="3" fill="#D55E00"/>
<circle cx="70" cy="302" r="3" fill="#009E73"/>
<circle cx="148" cy="50" r="3" fill="#0072B2"/>
<circle cx="148" cy="53" r="3" fill="#CC79A7"/>
<circle cx="148" cy="337" r="3" fill="#D55E00"/>
<circle cx="148" cy="303" r="3" fill="#009E73"/>
<circle cx="227" cy="55" r="3" fill="#0072B2"/>
<circle cx="227" cy="59" r="3" fill="#CC79A7"/>
<circle cx="227" cy="337" r="3" fill="#D55E00"/>
<circle cx="227" cy="304" r="3" fill="#009E73"/>
<circle cx="306" cy="53" r="3" fill="#0072B2"/>
<circle cx="306" cy="56" r="3" fill="#CC79A7"/>
<circle cx="306" cy="337" r="3" fill="#D55E00"/>
<circle cx="306" cy="303" r="3" fill="#009E73"/>
<circle cx="385" cy="50" r="3" fill="#0072B2"/>
<circle cx="385" cy="55" r="3" fill="#CC79A7"/>
<circle cx="385" cy="337" r="3" fill="#D55E00"/>
<circle cx="385" cy="303" r="3" fill="#009E73"/>
<circle cx="464" cy="50" r="3" fill="#0072B2"/>
<circle cx="464" cy="56" r="3" fill="#CC79A7"/>
<circle cx="464" cy="337" r="3" fill="#D55E00"/>
<circle cx="464" cy="303" r="3" fill="#009E73"/>
<circle cx="543" cy="53" r="3" fill="#0072B2"/>
<circle cx="543" cy="52" r="3" fill="#CC79A7"/>
<circle cx="543" cy="337" r="3" fill="#D55E00"/>
<circle cx="543" cy="303" r="3" fill="#009E73"/>
<circle cx="622" cy="60" r="3" fill="#0072B2"/>
<circle cx="622" cy="65" r="3" fill="#CC79A7"/>
<circle cx="622" cy="337" r="3" fill="#D55E00"/>
<circle cx="622" cy="304" r="3" fill="#009E73"/>
<circle cx="701" cy="59" r="3" fill="#0072B2"/>
<circle cx="701" cy="64" r="3" fill="#CC79A7"/>
<circle cx="701" cy="337" r="3" fill="#D55E00"/>
<circle cx="701" cy="304" r="3" fill="#009E73"/>
<circle cx="780" cy="64" r="3" fill="#0072B2"/>
<circle cx="780" cy="65" r="3" fill="#CC79A7"/>
<circle cx="780" cy="337" r="3" fill="#D55E00"/>
<circle cx="780" cy="304" r="3" fill="#009E73"/>
<circle cx="90" cy="20" r="4" fill="#0072B2"/>
<text x="98" y="24" text-anchor="start" font-size="12" fill="#0072B2">interpreted</text>
<circle cx="190" cy="20" r="4" fill="#CC79A7"/>
<text x="198" y="24" text-anchor="start" font-size="12" fill="#CC79A7">compiled</text>
<circle cx="275" cy="20" r="4" fill="#D55E00"/>
<text x="283" y="24" text-anchor="start" font-size="12" fill="#D55E00">executed</text>
<circle cx="355" cy="20" r="4" fill="#009E73"/>
<text x="363" y="24" text-anchor="start" font-size="12" fill="#009E73">wall</text>
</svg>
