<svg width="800" height="400" xmlns="http://www.w3.org/2000/svg">
<rect width="800" height="400" fill="white"/>
<line x1="70" y1="40" x2="70" y2="340" stroke="#333" stroke-width="1"/>
<line x1="70" y1="340" x2="780" y2="340" stroke="#333" stroke-width="1"/>
<text x="65" y="344" text-anchor="end" font-size="11" fill="#333">0</text>
<text x="65" y="194" text-anchor="end" font-size="11" fill="#333">3500</text>
<text x="65" y="44" text-anchor="end" font-size="11" fill="#333">7000</text>
<text x="15" y="190" text-anchor="middle" font-size="12" fill="#333" transform="rotate(-90 15 190)">ms</text>
<polyline points="70,257 306,255 543,259 780,254" fill="none" stroke="#2196F3" stroke-width="2"/>
<polyline points="70,101 306,102 543,103 780,97" fill="none" stroke="#F44336" stroke-width="2"/>
<polyline points="70,42 306,42 543,43 780,41" fill="none" stroke="#4CAF50" stroke-width="2"/>
<circle cx="70" cy="257" r="3" fill="#2196F3"/>
<circle cx="70" cy="101" r="3" fill="#F44336"/>
<circle cx="70" cy="42" r="3" fill="#4CAF50"/>
<circle cx="306" cy="255" r="3" fill="#2196F3"/>
<circle cx="306" cy="102" r="3" fill="#F44336"/>
<circle cx="306" cy="42" r="3" fill="#4CAF50"/>
<circle cx="543" cy="259" r="3" fill="#2196F3"/>
<circle cx="543" cy="103" r="3" fill="#F44336"/>
<circle cx="543" cy="43" r="3" fill="#4CAF50"/>
<circle cx="780" cy="254" r="3" fill="#2196F3"/>
<circle cx="780" cy="97" r="3" fill="#F44336"/>
<circle cx="780" cy="41" r="3" fill="#4CAF50"/>
<text x="70" y="355" text-anchor="middle" font-size="10" fill="#666">d31c3d3</text>
<text x="306" y="355" text-anchor="middle" font-size="10" fill="#666">577b0f6</text>
<text x="543" y="355" text-anchor="middle" font-size="10" fill="#666">a0e3a8f</text>
<text x="780" y="355" text-anchor="middle" font-size="10" fill="#666">32b7787</text>
<circle cx="90" cy="20" r="4" fill="#2196F3"/>
<text x="98" y="24" text-anchor="start" font-size="12" fill="#2196F3">Interpreted</text>
<circle cx="200" cy="20" r="4" fill="#F44336"/>
<text x="208" y="24" text-anchor="start" font-size="12" fill="#F44336">Compiled</text>
<circle cx="300" cy="20" r="4" fill="#4CAF50"/>
<text x="308" y="24" text-anchor="start" font-size="12" fill="#4CAF50">Wall-clock</text>
</svg>
