<svg width="800" height="400" xmlns="http://www.w3.org/2000/svg">
<rect width="800" height="400" fill="white"/>
<line x1="70" y1="40" x2="70" y2="340" stroke="#333" stroke-width="1"/>
<line x1="70" y1="340" x2="730" y2="340" stroke="#333" stroke-width="1"/>
<line x1="730" y1="40" x2="730" y2="340" stroke="#333" stroke-width="1"/>
<text x="65" y="344" text-anchor="end" font-size="11" fill="#333">0</text>
<text x="65" y="194" text-anchor="end" font-size="11" fill="#333">365500</text>
<text x="65" y="44" text-anchor="end" font-size="11" fill="#333">731000</text>
<text x="15" y="190" text-anchor="middle" font-size="12" fill="#333" transform="rotate(-90 15 190)">ms</text>
<text x="735" y="344" text-anchor="start" font-size="11" fill="#333">0</text>
<text x="735" y="194" text-anchor="start" font-size="11" fill="#333">5514500000</text>
<text x="735" y="44" text-anchor="start" font-size="11" fill="#333">11029000000</text>
<text x="785" y="190" text-anchor="middle" font-size="12" fill="#333" transform="rotate(90 785 190)">bytes</text>
<polyline points="70,190 143,151 216,175 290,167 363,158 436,106 510,128 583,121 656,150 730,155" fill="none" stroke="#0072B2" stroke-width="2"/>
<polyline points="70,166 143,100 216,148 290,129 363,110 436,52 510,92 583,41 656,96 730,119" fill="none" stroke="#CC79A7" stroke-width="2"/>
<polyline points="70,340 143,340 216,340 290,340 363,340 436,340 510,340 583,340 656,340 730,340" fill="none" stroke="#D55E00" stroke-width="2"/>
<polyline points="70,288 143,271 216,282 290,280 363,274 436,261 510,267 583,258 656,272 730,275" fill="none" stroke="#009E73" stroke-width="2"/>
<polyline points="70,275 143,275 216,275 290,275 363,275 436,275 510,276 583,276 656,276 730,276" fill="none" stroke="#56B4E9" stroke-width="2"/>
<polyline points="70,193 143,192 216,192 290,192 363,193 436,193 510,194 583,194 656,194 730,194" fill="none" stroke="#E69F00" stroke-width="2"/>
<polyline points="70,340 143,340 216,340 290,340 363,340 436,340 510,340 583,340 656,340 730,340" fill="none" stroke="#C44E52" stroke-width="2"/>
<polyline points="70,42 143,41 216,41 290,41 363,43 436,43 510,43 583,43 656,43 730,44" fill="none" stroke="#000000" stroke-width="2"/>
<circle cx="70" cy="190" r="3" fill="#0072B2"/>
<circle cx="70" cy="166" r="3" fill="#CC79A7"/>
<circle cx="70" cy="340" r="3" fill="#D55E00"/>
<circle cx="70" cy="288" r="3" fill="#009E73"/>
<circle cx="70" cy="275" r="3" fill="#56B4E9"/>
<circle cx="70" cy="193" r="3" fill="#E69F00"/>
<circle cx="70" cy="340" r="3" fill="#C44E52"/>
<circle cx="70" cy="42" r="3" fill="#000000"/>
<circle cx="143" cy="151" r="3" fill="#0072B2"/>
<circle cx="143" cy="100" r="3" fill="#CC79A7"/>
<circle cx="143" cy="340" r="3" fill="#D55E00"/>
<circle cx="143" cy="271" r="3" fill="#009E73"/>
<circle cx="143" cy="275" r="3" fill="#56B4E9"/>
<circle cx="143" cy="192" r="3" fill="#E69F00"/>
<circle cx="143" cy="340" r="3" fill="#C44E52"/>
<circle cx="143" cy="41" r="3" fill="#000000"/>
<circle cx="216" cy="175" r="3" fill="#0072B2"/>
<circle cx="216" cy="148" r="3" fill="#CC79A7"/>
<circle cx="216" cy="340" r="3" fill="#D55E00"/>
<circle cx="216" cy="282" r="3" fill="#009E73"/>
<circle cx="216" cy="275" r="3" fill="#56B4E9"/>
<circle cx="216" cy="192" r="3" fill="#E69F00"/>
<circle cx="216" cy="340" r="3" fill="#C44E52"/>
<circle cx="216" cy="41" r="3" fill="#000000"/>
<circle cx="290" cy="167" r="3" fill="#0072B2"/>
<circle cx="290" cy="129" r="3" fill="#CC79A7"/>
<circle cx="290" cy="340" r="3" fill="#D55E00"/>
<circle cx="290" cy="280" r="3" fill="#009E73"/>
<circle cx="290" cy="275" r="3" fill="#56B4E9"/>
<circle cx="290" cy="192" r="3" fill="#E69F00"/>
<circle cx="290" cy="340" r="3" fill="#C44E52"/>
<circle cx="290" cy="41" r="3" fill="#000000"/>
<circle cx="363" cy="158" r="3" fill="#0072B2"/>
<circle cx="363" cy="110" r="3" fill="#CC79A7"/>
<circle cx="363" cy="340" r="3" fill="#D55E00"/>
<circle cx="363" cy="274" r="3" fill="#009E73"/>
<circle cx="363" cy="275" r="3" fill="#56B4E9"/>
<circle cx="363" cy="193" r="3" fill="#E69F00"/>
<circle cx="363" cy="340" r="3" fill="#C44E52"/>
<circle cx="363" cy="43" r="3" fill="#000000"/>
<circle cx="436" cy="106" r="3" fill="#0072B2"/>
<circle cx="436" cy="52" r="3" fill="#CC79A7"/>
<circle cx="436" cy="340" r="3" fill="#D55E00"/>
<circle cx="436" cy="261" r="3" fill="#009E73"/>
<circle cx="436" cy="275" r="3" fill="#56B4E9"/>
<circle cx="436" cy="193" r="3" fill="#E69F00"/>
<circle cx="436" cy="340" r="3" fill="#C44E52"/>
<circle cx="436" cy="43" r="3" fill="#000000"/>
<circle cx="510" cy="128" r="3" fill="#0072B2"/>
<circle cx="510" cy="92" r="3" fill="#CC79A7"/>
<circle cx="510" cy="340" r="3" fill="#D55E00"/>
<circle cx="510" cy="267" r="3" fill="#009E73"/>
<circle cx="510" cy="276" r="3" fill="#56B4E9"/>
<circle cx="510" cy="194" r="3" fill="#E69F00"/>
<circle cx="510" cy="340" r="3" fill="#C44E52"/>
<circle cx="510" cy="43" r="3" fill="#000000"/>
<circle cx="583" cy="121" r="3" fill="#0072B2"/>
<circle cx="583" cy="41" r="3" fill="#CC79A7"/>
<circle cx="583" cy="340" r="3" fill="#D55E00"/>
<circle cx="583" cy="258" r="3" fill="#009E73"/>
<circle cx="583" cy="276" r="3" fill="#56B4E9"/>
<circle cx="583" cy="194" r="3" fill="#E69F00"/>
<circle cx="583" cy="340" r="3" fill="#C44E52"/>
<circle cx="583" cy="43" r="3" fill="#000000"/>
<circle cx="656" cy="150" r="3" fill="#0072B2"/>
<circle cx="656" cy="96" r="3" fill="#CC79A7"/>
<circle cx="656" cy="340" r="3" fill="#D55E00"/>
<circle cx="656" cy="272" r="3" fill="#009E73"/>
<circle cx="656" cy="276" r="3" fill="#56B4E9"/>
<circle cx="656" cy="194" r="3" fill="#E69F00"/>
<circle cx="656" cy="340" r="3" fill="#C44E52"/>
<circle cx="656" cy="43" r="3" fill="#000000"/>
<circle cx="730" cy="155" r="3" fill="#0072B2"/>
<circle cx="730" cy="119" r="3" fill="#CC79A7"/>
<circle cx="730" cy="340" r="3" fill="#D55E00"/>
<circle cx="730" cy="275" r="3" fill="#009E73"/>
<circle cx="730" cy="276" r="3" fill="#56B4E9"/>
<circle cx="730" cy="194" r="3" fill="#E69F00"/>
<circle cx="730" cy="340" r="3" fill="#C44E52"/>
<circle cx="730" cy="44" r="3" fill="#000000"/>
<circle cx="90" cy="20" r="4" fill="#0072B2"/>
<text x="98" y="24" text-anchor="start" font-size="12" fill="#0072B2">inte</text>
<circle cx="150" cy="20" r="4" fill="#CC79A7"/>
<text x="158" y="24" text-anchor="start" font-size="12" fill="#CC79A7">comp</text>
<circle cx="215" cy="20" r="4" fill="#D55E00"/>
<text x="223" y="24" text-anchor="start" font-size="12" fill="#D55E00">run</text>
<circle cx="270" cy="20" r="4" fill="#009E73"/>
<text x="278" y="24" text-anchor="start" font-size="12" fill="#009E73">wall</text>
<circle cx="335" cy="20" r="4" fill="#56B4E9"/>
<text x="343" y="24" text-anchor="start" font-size="12" fill="#56B4E9">mem-inte</text>
<circle cx="425" cy="20" r="4" fill="#E69F00"/>
<text x="433" y="24" text-anchor="start" font-size="12" fill="#E69F00">mem-comp</text>
<circle cx="520" cy="20" r="4" fill="#C44E52"/>
<text x="528" y="24" text-anchor="start" font-size="12" fill="#C44E52">mem-run</text>
<circle cx="605" cy="20" r="4" fill="#000000"/>
<text x="613" y="24" text-anchor="start" font-size="12" fill="#000000">mem-total</text>
</svg>
