<svg width="800" height="400" xmlns="http://www.w3.org/2000/svg">
<rect width="800" height="400" fill="white"/>
<line x1="70" y1="40" x2="70" y2="340" stroke="#333" stroke-width="1"/>
<line x1="70" y1="340" x2="730" y2="340" stroke="#333" stroke-width="1"/>
<line x1="730" y1="40" x2="730" y2="340" stroke="#333" stroke-width="1"/>
<text x="65" y="344" text-anchor="end" font-size="11" fill="#333">0</text>
<text x="65" y="194" text-anchor="end" font-size="11" fill="#333">88500</text>
<text x="65" y="44" text-anchor="end" font-size="11" fill="#333">177000</text>
<text x="15" y="190" text-anchor="middle" font-size="12" fill="#333" transform="rotate(-90 15 190)">ms</text>
<text x="735" y="344" text-anchor="start" font-size="11" fill="#333">0</text>
<text x="735" y="194" text-anchor="start" font-size="11" fill="#333">7011500000</text>
<text x="735" y="44" text-anchor="start" font-size="11" fill="#333">14023000000</text>
<text x="785" y="190" text-anchor="middle" font-size="12" fill="#333" transform="rotate(90 785 190)">bytes</text>
<polyline points="70,107 143,107 216,80 290,80 363,80 436,76 510,77 583,82 656,79 730,76" fill="none" stroke="#0072B2" stroke-width="2"/>
<polyline points="70,69 143,67 216,47 290,48 363,49 436,48 510,45 583,50 656,48 730,42" fill="none" stroke="#CC79A7" stroke-width="2"/>
<polyline points="70,340 143,340 216,340 290,340 363,340 436,340 510,340 583,340 656,340 730,340" fill="none" stroke="#D55E00" stroke-width="2"/>
<polyline points="70,303 143,304 216,302 290,302 363,302 436,302 510,302 583,301 656,302 730,301" fill="none" stroke="#009E73" stroke-width="2"/>
<polyline points="70,294 143,293 216,286 290,286 363,286 436,286 510,286 583,286 656,286 730,285" fill="none" stroke="#56B4E9" stroke-width="2"/>
<polyline points="70,217 143,217 216,209 290,209 363,209 436,209 510,209 583,209 656,209 730,206" fill="none" stroke="#E69F00" stroke-width="2"/>
<polyline points="70,340 143,340 216,340 290,340 363,339 436,340 510,340 583,340 656,340 730,340" fill="none" stroke="#C44E52" stroke-width="2"/>
<polyline points="70,61 143,60 216,46 290,46 363,44 436,45 510,45 583,45 656,44 730,41" fill="none" stroke="#000000" stroke-width="2"/>
<circle cx="70" cy="107" r="3" fill="#0072B2"/>
<circle cx="70" cy="69" r="3" fill="#CC79A7"/>
<circle cx="70" cy="340" r="3" fill="#D55E00"/>
<circle cx="70" cy="303" r="3" fill="#009E73"/>
<circle cx="70" cy="294" r="3" fill="#56B4E9"/>
<circle cx="70" cy="217" r="3" fill="#E69F00"/>
<circle cx="70" cy="340" r="3" fill="#C44E52"/>
<circle cx="70" cy="61" r="3" fill="#000000"/>
<circle cx="143" cy="107" r="3" fill="#0072B2"/>
<circle cx="143" cy="67" r="3" fill="#CC79A7"/>
<circle cx="143" cy="340" r="3" fill="#D55E00"/>
<circle cx="143" cy="304" r="3" fill="#009E73"/>
<circle cx="143" cy="293" r="3" fill="#56B4E9"/>
<circle cx="143" cy="217" r="3" fill="#E69F00"/>
<circle cx="143" cy="340" r="3" fill="#C44E52"/>
<circle cx="143" cy="60" r="3" fill="#000000"/>
<circle cx="216" cy="80" r="3" fill="#0072B2"/>
<circle cx="216" cy="47" r="3" fill="#CC79A7"/>
<circle cx="216" cy="340" r="3" fill="#D55E00"/>
<circle cx="216" cy="302" r="3" fill="#009E73"/>
<circle cx="216" cy="286" r="3" fill="#56B4E9"/>
<circle cx="216" cy="209" r="3" fill="#E69F00"/>
<circle cx="216" cy="340" r="3" fill="#C44E52"/>
<circle cx="216" cy="46" r="3" fill="#000000"/>
<circle cx="290" cy="80" r="3" fill="#0072B2"/>
<circle cx="290" cy="48" r="3" fill="#CC79A7"/>
<circle cx="290" cy="340" r="3" fill="#D55E00"/>
<circle cx="290" cy="302" r="3" fill="#009E73"/>
<circle cx="290" cy="286" r="3" fill="#56B4E9"/>
<circle cx="290" cy="209" r="3" fill="#E69F00"/>
<circle cx="290" cy="340" r="3" fill="#C44E52"/>
<circle cx="290" cy="46" r="3" fill="#000000"/>
<circle cx="363" cy="80" r="3" fill="#0072B2"/>
<circle cx="363" cy="49" r="3" fill="#CC79A7"/>
<circle cx="363" cy="340" r="3" fill="#D55E00"/>
<circle cx="363" cy="302" r="3" fill="#009E73"/>
<circle cx="363" cy="286" r="3" fill="#56B4E9"/>
<circle cx="363" cy="209" r="3" fill="#E69F00"/>
<circle cx="363" cy="339" r="3" fill="#C44E52"/>
<circle cx="363" cy="44" r="3" fill="#000000"/>
<circle cx="436" cy="76" r="3" fill="#0072B2"/>
<circle cx="436" cy="48" r="3" fill="#CC79A7"/>
<circle cx="436" cy="340" r="3" fill="#D55E00"/>
<circle cx="436" cy="302" r="3" fill="#009E73"/>
<circle cx="436" cy="286" r="3" fill="#56B4E9"/>
<circle cx="436" cy="209" r="3" fill="#E69F00"/>
<circle cx="436" cy="340" r="3" fill="#C44E52"/>
<circle cx="436" cy="45" r="3" fill="#000000"/>
<circle cx="510" cy="77" r="3" fill="#0072B2"/>
<circle cx="510" cy="45" r="3" fill="#CC79A7"/>
<circle cx="510" cy="340" r="3" fill="#D55E00"/>
<circle cx="510" cy="302" r="3" fill="#009E73"/>
<circle cx="510" cy="286" r="3" fill="#56B4E9"/>
<circle cx="510" cy="209" r="3" fill="#E69F00"/>
<circle cx="510" cy="340" r="3" fill="#C44E52"/>
<circle cx="510" cy="45" r="3" fill="#000000"/>
<circle cx="583" cy="82" r="3" fill="#0072B2"/>
<circle cx="583" cy="50" r="3" fill="#CC79A7"/>
<circle cx="583" cy="340" r="3" fill="#D55E00"/>
<circle cx="583" cy="301" r="3" fill="#009E73"/>
<circle cx="583" cy="286" r="3" fill="#56B4E9"/>
<circle cx="583" cy="209" r="3" fill="#E69F00"/>
<circle cx="583" cy="340" r="3" fill="#C44E52"/>
<circle cx="583" cy="45" r="3" fill="#000000"/>
<circle cx="656" cy="79" r="3" fill="#0072B2"/>
<circle cx="656" cy="48" r="3" fill="#CC79A7"/>
<circle cx="656" cy="340" r="3" fill="#D55E00"/>
<circle cx="656" cy="302" r="3" fill="#009E73"/>
<circle cx="656" cy="286" r="3" fill="#56B4E9"/>
<circle cx="656" cy="209" r="3" fill="#E69F00"/>
<circle cx="656" cy="340" r="3" fill="#C44E52"/>
<circle cx="656" cy="44" r="3" fill="#000000"/>
<circle cx="730" cy="76" r="3" fill="#0072B2"/>
<circle cx="730" cy="42" r="3" fill="#CC79A7"/>
<circle cx="730" cy="340" r="3" fill="#D55E00"/>
<circle cx="730" cy="301" r="3" fill="#009E73"/>
<circle cx="730" cy="285" r="3" fill="#56B4E9"/>
<circle cx="730" cy="206" r="3" fill="#E69F00"/>
<circle cx="730" cy="340" r="3" fill="#C44E52"/>
<circle cx="730" cy="41" r="3" fill="#000000"/>
<circle cx="90" cy="20" r="4" fill="#0072B2"/>
<text x="98" y="24" text-anchor="start" font-size="12" fill="#0072B2">inte</text>
<circle cx="150" cy="20" r="4" fill="#CC79A7"/>
<text x="158" y="24" text-anchor="start" font-size="12" fill="#CC79A7">comp</text>
<circle cx="215" cy="20" r="4" fill="#D55E00"/>
<text x="223" y="24" text-anchor="start" font-size="12" fill="#D55E00">run</text>
<circle cx="270" cy="20" r="4" fill="#009E73"/>
<text x="278" y="24" text-anchor="start" font-size="12" fill="#009E73">wall</text>
<circle cx="335" cy="20" r="4" fill="#56B4E9"/>
<text x="343" y="24" text-anchor="start" font-size="12" fill="#56B4E9">mem-inte</text>
<circle cx="425" cy="20" r="4" fill="#E69F00"/>
<text x="433" y="24" text-anchor="start" font-size="12" fill="#E69F00">mem-comp</text>
<circle cx="520" cy="20" r="4" fill="#C44E52"/>
<text x="528" y="24" text-anchor="start" font-size="12" fill="#C44E52">mem-run</text>
<circle cx="605" cy="20" r="4" fill="#000000"/>
<text x="613" y="24" text-anchor="start" font-size="12" fill="#000000">mem-total</text>
</svg>
