<svg width="800" height="400" xmlns="http://www.w3.org/2000/svg">
<rect width="800" height="400" fill="white"/>
<line x1="70" y1="40" x2="70" y2="340" stroke="#333" stroke-width="1"/>
<line x1="70" y1="340" x2="780" y2="340" stroke="#333" stroke-width="1"/>
<text x="65" y="344" text-anchor="end" font-size="11" fill="#333">0</text>
<text x="65" y="194" text-anchor="end" font-size="11" fill="#333">63000</text>
<text x="65" y="44" text-anchor="end" font-size="11" fill="#333">126000</text>
<text x="15" y="190" text-anchor="middle" font-size="12" fill="#333" transform="rotate(-90 15 190)">ms</text>
<polyline points="70,48 148,42 227,45 306,42 385,52 464,51 543,50 622,49 701,47 780,47" fill="none" stroke="#0072B2" stroke-width="2"/>
<polyline points="70,241 148,241 227,241 306,242 385,242 464,243 543,242 622,242 701,240 780,242" fill="none" stroke="#D55E00" stroke-width="2"/>
<polyline points="70,71 148,75 227,75 306,70 385,66 464,67 543,67 622,72 701,70 780,74" fill="none" stroke="#CC79A7" stroke-width="2"/>
<polyline points="70,246 148,245 227,245 306,245 385,246 464,245 543,245 622,244 701,245 780,244" fill="none" stroke="#E69F00" stroke-width="2"/>
<polyline points="70,129 148,127 227,131 306,125 385,131 464,129 543,130 622,131 701,129 780,130" fill="none" stroke="#009E73" stroke-width="2"/>
<circle cx="70" cy="48" r="3" fill="#0072B2"/>
<circle cx="70" cy="241" r="3" fill="#D55E00"/>
<circle cx="70" cy="71" r="3" fill="#CC79A7"/>
<circle cx="70" cy="246" r="3" fill="#E69F00"/>
<circle cx="70" cy="129" r="3" fill="#009E73"/>
<circle cx="148" cy="42" r="3" fill="#0072B2"/>
<circle cx="148" cy="241" r="3" fill="#D55E00"/>
<circle cx="148" cy="75" r="3" fill="#CC79A7"/>
<circle cx="148" cy="245" r="3" fill="#E69F00"/>
<circle cx="148" cy="127" r="3" fill="#009E73"/>
<circle cx="227" cy="45" r="3" fill="#0072B2"/>
<circle cx="227" cy="241" r="3" fill="#D55E00"/>
<circle cx="227" cy="75" r="3" fill="#CC79A7"/>
<circle cx="227" cy="245" r="3" fill="#E69F00"/>
<circle cx="227" cy="131" r="3" fill="#009E73"/>
<circle cx="306" cy="42" r="3" fill="#0072B2"/>
<circle cx="306" cy="242" r="3" fill="#D55E00"/>
<circle cx="306" cy="70" r="3" fill="#CC79A7"/>
<circle cx="306" cy="245" r="3" fill="#E69F00"/>
<circle cx="306" cy="125" r="3" fill="#009E73"/>
<circle cx="385" cy="52" r="3" fill="#0072B2"/>
<circle cx="385" cy="242" r="3" fill="#D55E00"/>
<circle cx="385" cy="66" r="3" fill="#CC79A7"/>
<circle cx="385" cy="246" r="3" fill="#E69F00"/>
<circle cx="385" cy="131" r="3" fill="#009E73"/>
<circle cx="464" cy="51" r="3" fill="#0072B2"/>
<circle cx="464" cy="243" r="3" fill="#D55E00"/>
<circle cx="464" cy="67" r="3" fill="#CC79A7"/>
<circle cx="464" cy="245" r="3" fill="#E69F00"/>
<circle cx="464" cy="129" r="3" fill="#009E73"/>
<circle cx="543" cy="50" r="3" fill="#0072B2"/>
<circle cx="543" cy="242" r="3" fill="#D55E00"/>
<circle cx="543" cy="67" r="3" fill="#CC79A7"/>
<circle cx="543" cy="245" r="3" fill="#E69F00"/>
<circle cx="543" cy="130" r="3" fill="#009E73"/>
<circle cx="622" cy="49" r="3" fill="#0072B2"/>
<circle cx="622" cy="242" r="3" fill="#D55E00"/>
<circle cx="622" cy="72" r="3" fill="#CC79A7"/>
<circle cx="622" cy="244" r="3" fill="#E69F00"/>
<circle cx="622" cy="131" r="3" fill="#009E73"/>
<circle cx="701" cy="47" r="3" fill="#0072B2"/>
<circle cx="701" cy="240" r="3" fill="#D55E00"/>
<circle cx="701" cy="70" r="3" fill="#CC79A7"/>
<circle cx="701" cy="245" r="3" fill="#E69F00"/>
<circle cx="701" cy="129" r="3" fill="#009E73"/>
<circle cx="780" cy="47" r="3" fill="#0072B2"/>
<circle cx="780" cy="242" r="3" fill="#D55E00"/>
<circle cx="780" cy="74" r="3" fill="#CC79A7"/>
<circle cx="780" cy="244" r="3" fill="#E69F00"/>
<circle cx="780" cy="130" r="3" fill="#009E73"/>
<circle cx="90" cy="20" r="4" fill="#0072B2"/>
<text x="98" y="24" text-anchor="start" font-size="12" fill="#0072B2">ctil-i</text>
<circle cx="160" cy="20" r="4" fill="#D55E00"/>
<text x="168" y="24" text-anchor="start" font-size="12" fill="#D55E00">ctil-r</text>
<circle cx="230" cy="20" r="4" fill="#CC79A7"/>
<text x="238" y="24" text-anchor="start" font-size="12" fill="#CC79A7">til-i</text>
<circle cx="290" cy="20" r="4" fill="#E69F00"/>
<text x="298" y="24" text-anchor="start" font-size="12" fill="#E69F00">til-r</text>
<circle cx="350" cy="20" r="4" fill="#009E73"/>
<text x="358" y="24" text-anchor="start" font-size="12" fill="#009E73">Wall</text>
</svg>
