<svg width="800" height="400" xmlns="http://www.w3.org/2000/svg">
<rect width="800" height="400" fill="white"/>
<line x1="70" y1="40" x2="70" y2="340" stroke="#333" stroke-width="1"/>
<line x1="70" y1="340" x2="730" y2="340" stroke="#333" stroke-width="1"/>
<line x1="730" y1="40" x2="730" y2="340" stroke="#333" stroke-width="1"/>
<text x="65" y="344" text-anchor="end" font-size="11" fill="#333">0</text>
<text x="65" y="194" text-anchor="end" font-size="11" fill="#333">339500</text>
<text x="65" y="44" text-anchor="end" font-size="11" fill="#333">679000</text>
<text x="15" y="190" text-anchor="middle" font-size="12" fill="#333" transform="rotate(-90 15 190)">ms</text>
<text x="735" y="344" text-anchor="start" font-size="11" fill="#333">0</text>
<text x="735" y="194" text-anchor="start" font-size="11" fill="#333">5145500000</text>
<text x="735" y="44" text-anchor="start" font-size="11" fill="#333">10291000000</text>
<text x="785" y="190" text-anchor="middle" font-size="12" fill="#333" transform="rotate(90 785 190)">bytes</text>
<polyline points="70,84 143,113 216,123 290,130 363,130 436,85 510,99 583,76 656,134 730,79" fill="none" stroke="#0072B2" stroke-width="2"/>
<polyline points="70,54 143,96 216,109 290,121 363,113 436,52 510,41 583,43 656,131 730,76" fill="none" stroke="#CC79A7" stroke-width="2"/>
<polyline points="70,340 143,340 216,340 290,340 363,340 436,340 510,340 583,340 656,340 730,340" fill="none" stroke="#D55E00" stroke-width="2"/>
<polyline points="70,255 143,266 216,271 290,271 363,271 436,256 510,255 583,253 656,273 730,260" fill="none" stroke="#009E73" stroke-width="2"/>
<polyline points="70,268 143,271 216,273 290,273 363,273 436,273 510,273 583,273 656,273 730,273" fill="none" stroke="#56B4E9" stroke-width="2"/>
<polyline points="70,203 143,207 216,209 290,209 363,209 436,208 510,208 583,208 656,209 730,208" fill="none" stroke="#E69F00" stroke-width="2"/>
<polyline points="70,340 143,340 216,340 290,340 363,340 436,340 510,340 583,340 656,340 730,340" fill="none" stroke="#C44E52" stroke-width="2"/>
<polyline points="70,41 143,48 216,52 290,52 363,52 436,50 510,51 583,51 656,52 730,52" fill="none" stroke="#000000" stroke-width="2"/>
<circle cx="70" cy="84" r="3" fill="#0072B2"/>
<circle cx="70" cy="54" r="3" fill="#CC79A7"/>
<circle cx="70" cy="340" r="3" fill="#D55E00"/>
<circle cx="70" cy="255" r="3" fill="#009E73"/>
<circle cx="70" cy="268" r="3" fill="#56B4E9"/>
<circle cx="70" cy="203" r="3" fill="#E69F00"/>
<circle cx="70" cy="340" r="3" fill="#C44E52"/>
<circle cx="70" cy="41" r="3" fill="#000000"/>
<circle cx="143" cy="113" r="3" fill="#0072B2"/>
<circle cx="143" cy="96" r="3" fill="#CC79A7"/>
<circle cx="143" cy="340" r="3" fill="#D55E00"/>
<circle cx="143" cy="266" r="3" fill="#009E73"/>
<circle cx="143" cy="271" r="3" fill="#56B4E9"/>
<circle cx="143" cy="207" r="3" fill="#E69F00"/>
<circle cx="143" cy="340" r="3" fill="#C44E52"/>
<circle cx="143" cy="48" r="3" fill="#000000"/>
<circle cx="216" cy="123" r="3" fill="#0072B2"/>
<circle cx="216" cy="109" r="3" fill="#CC79A7"/>
<circle cx="216" cy="340" r="3" fill="#D55E00"/>
<circle cx="216" cy="271" r="3" fill="#009E73"/>
<circle cx="216" cy="273" r="3" fill="#56B4E9"/>
<circle cx="216" cy="209" r="3" fill="#E69F00"/>
<circle cx="216" cy="340" r="3" fill="#C44E52"/>
<circle cx="216" cy="52" r="3" fill="#000000"/>
<circle cx="290" cy="130" r="3" fill="#0072B2"/>
<circle cx="290" cy="121" r="3" fill="#CC79A7"/>
<circle cx="290" cy="340" r="3" fill="#D55E00"/>
<circle cx="290" cy="271" r="3" fill="#009E73"/>
<circle cx="290" cy="273" r="3" fill="#56B4E9"/>
<circle cx="290" cy="209" r="3" fill="#E69F00"/>
<circle cx="290" cy="340" r="3" fill="#C44E52"/>
<circle cx="290" cy="52" r="3" fill="#000000"/>
<circle cx="363" cy="130" r="3" fill="#0072B2"/>
<circle cx="363" cy="113" r="3" fill="#CC79A7"/>
<circle cx="363" cy="340" r="3" fill="#D55E00"/>
<circle cx="363" cy="271" r="3" fill="#009E73"/>
<circle cx="363" cy="273" r="3" fill="#56B4E9"/>
<circle cx="363" cy="209" r="3" fill="#E69F00"/>
<circle cx="363" cy="340" r="3" fill="#C44E52"/>
<circle cx="363" cy="52" r="3" fill="#000000"/>
<circle cx="436" cy="85" r="3" fill="#0072B2"/>
<circle cx="436" cy="52" r="3" fill="#CC79A7"/>
<circle cx="436" cy="340" r="3" fill="#D55E00"/>
<circle cx="436" cy="256" r="3" fill="#009E73"/>
<circle cx="436" cy="273" r="3" fill="#56B4E9"/>
<circle cx="436" cy="208" r="3" fill="#E69F00"/>
<circle cx="436" cy="340" r="3" fill="#C44E52"/>
<circle cx="436" cy="50" r="3" fill="#000000"/>
<circle cx="510" cy="99" r="3" fill="#0072B2"/>
<circle cx="510" cy="41" r="3" fill="#CC79A7"/>
<circle cx="510" cy="340" r="3" fill="#D55E00"/>
<circle cx="510" cy="255" r="3" fill="#009E73"/>
<circle cx="510" cy="273" r="3" fill="#56B4E9"/>
<circle cx="510" cy="208" r="3" fill="#E69F00"/>
<circle cx="510" cy="340" r="3" fill="#C44E52"/>
<circle cx="510" cy="51" r="3" fill="#000000"/>
<circle cx="583" cy="76" r="3" fill="#0072B2"/>
<circle cx="583" cy="43" r="3" fill="#CC79A7"/>
<circle cx="583" cy="340" r="3" fill="#D55E00"/>
<circle cx="583" cy="253" r="3" fill="#009E73"/>
<circle cx="583" cy="273" r="3" fill="#56B4E9"/>
<circle cx="583" cy="208" r="3" fill="#E69F00"/>
<circle cx="583" cy="340" r="3" fill="#C44E52"/>
<circle cx="583" cy="51" r="3" fill="#000000"/>
<circle cx="656" cy="134" r="3" fill="#0072B2"/>
<circle cx="656" cy="131" r="3" fill="#CC79A7"/>
<circle cx="656" cy="340" r="3" fill="#D55E00"/>
<circle cx="656" cy="273" r="3" fill="#009E73"/>
<circle cx="656" cy="273" r="3" fill="#56B4E9"/>
<circle cx="656" cy="209" r="3" fill="#E69F00"/>
<circle cx="656" cy="340" r="3" fill="#C44E52"/>
<circle cx="656" cy="52" r="3" fill="#000000"/>
<circle cx="730" cy="79" r="3" fill="#0072B2"/>
<circle cx="730" cy="76" r="3" fill="#CC79A7"/>
<circle cx="730" cy="340" r="3" fill="#D55E00"/>
<circle cx="730" cy="260" r="3" fill="#009E73"/>
<circle cx="730" cy="273" r="3" fill="#56B4E9"/>
<circle cx="730" cy="208" r="3" fill="#E69F00"/>
<circle cx="730" cy="340" r="3" fill="#C44E52"/>
<circle cx="730" cy="52" r="3" fill="#000000"/>
<circle cx="90" cy="20" r="4" fill="#0072B2"/>
<text x="98" y="24" text-anchor="start" font-size="12" fill="#0072B2">inte</text>
<circle cx="150" cy="20" r="4" fill="#CC79A7"/>
<text x="158" y="24" text-anchor="start" font-size="12" fill="#CC79A7">comp</text>
<circle cx="215" cy="20" r="4" fill="#D55E00"/>
<text x="223" y="24" text-anchor="start" font-size="12" fill="#D55E00">run</text>
<circle cx="270" cy="20" r="4" fill="#009E73"/>
<text x="278" y="24" text-anchor="start" font-size="12" fill="#009E73">wall</text>
<circle cx="335" cy="20" r="4" fill="#56B4E9"/>
<text x="343" y="24" text-anchor="start" font-size="12" fill="#56B4E9">mem-inte</text>
<circle cx="425" cy="20" r="4" fill="#E69F00"/>
<text x="433" y="24" text-anchor="start" font-size="12" fill="#E69F00">mem-comp</text>
<circle cx="520" cy="20" r="4" fill="#C44E52"/>
<text x="528" y="24" text-anchor="start" font-size="12" fill="#C44E52">mem-run</text>
<circle cx="605" cy="20" r="4" fill="#000000"/>
<text x="613" y="24" text-anchor="start" font-size="12" fill="#000000">mem-total</text>
</svg>
