<svg width="800" height="400" xmlns="http://www.w3.org/2000/svg">
<rect width="800" height="400" fill="white"/>
<line x1="70" y1="40" x2="70" y2="340" stroke="#333" stroke-width="1"/>
<line x1="70" y1="340" x2="730" y2="340" stroke="#333" stroke-width="1"/>
<line x1="730" y1="40" x2="730" y2="340" stroke="#333" stroke-width="1"/>
<text x="65" y="344" text-anchor="end" font-size="11" fill="#333">0</text>
<text x="65" y="194" text-anchor="end" font-size="11" fill="#333">377000</text>
<text x="65" y="44" text-anchor="end" font-size="11" fill="#333">754000</text>
<text x="15" y="190" text-anchor="middle" font-size="12" fill="#333" transform="rotate(-90 15 190)">ms</text>
<text x="735" y="344" text-anchor="start" font-size="11" fill="#333">0</text>
<text x="735" y="194" text-anchor="start" font-size="11" fill="#333">10845500000</text>
<text x="735" y="44" text-anchor="start" font-size="11" fill="#333">21691000000</text>
<text x="785" y="190" text-anchor="middle" font-size="12" fill="#333" transform="rotate(90 785 190)">bytes</text>
<polyline points="70,41 143,49 216,68 290,66 363,73 436,71 510,74 583,70 656,73 730,67" fill="none" stroke="#0072B2" stroke-width="2"/>
<polyline points="70,84 143,93 216,109 290,105 363,110 436,103 510,106 583,103 656,106 730,102" fill="none" stroke="#CC79A7" stroke-width="2"/>
<polyline points="70,340 143,340 216,340 290,340 363,340 436,340 510,340 583,340 656,340 730,340" fill="none" stroke="#D55E00" stroke-width="2"/>
<polyline points="70,299 143,299 216,300 290,301 363,301 436,301 510,301 583,301 656,301 730,300" fill="none" stroke="#009E73" stroke-width="2"/>
<polyline points="70,301 143,302 216,302 290,302 363,302 436,302 510,302 583,302 656,302 730,300" fill="none" stroke="#56B4E9" stroke-width="2"/>
<polyline points="70,195 143,196 216,196 290,196 363,196 436,193 510,193 583,193 656,193 730,191" fill="none" stroke="#E69F00" stroke-width="2"/>
<polyline points="70,335 143,335 216,334 290,334 363,336 436,335 510,335 583,335 656,335 730,333" fill="none" stroke="#C44E52" stroke-width="2"/>
<polyline points="70,59 143,59 216,49 290,50 363,51 436,48 510,48 583,48 656,48 730,41" fill="none" stroke="#000000" stroke-width="2"/>
<circle cx="70" cy="41" r="3" fill="#0072B2"/>
<circle cx="70" cy="84" r="3" fill="#CC79A7"/>
<circle cx="70" cy="340" r="3" fill="#D55E00"/>
<circle cx="70" cy="299" r="3" fill="#009E73"/>
<circle cx="70" cy="301" r="3" fill="#56B4E9"/>
<circle cx="70" cy="195" r="3" fill="#E69F00"/>
<circle cx="70" cy="335" r="3" fill="#C44E52"/>
<circle cx="70" cy="59" r="3" fill="#000000"/>
<circle cx="143" cy="49" r="3" fill="#0072B2"/>
<circle cx="143" cy="93" r="3" fill="#CC79A7"/>
<circle cx="143" cy="340" r="3" fill="#D55E00"/>
<circle cx="143" cy="299" r="3" fill="#009E73"/>
<circle cx="143" cy="302" r="3" fill="#56B4E9"/>
<circle cx="143" cy="196" r="3" fill="#E69F00"/>
<circle cx="143" cy="335" r="3" fill="#C44E52"/>
<circle cx="143" cy="59" r="3" fill="#000000"/>
<circle cx="216" cy="68" r="3" fill="#0072B2"/>
<circle cx="216" cy="109" r="3" fill="#CC79A7"/>
<circle cx="216" cy="340" r="3" fill="#D55E00"/>
<circle cx="216" cy="300" r="3" fill="#009E73"/>
<circle cx="216" cy="302" r="3" fill="#56B4E9"/>
<circle cx="216" cy="196" r="3" fill="#E69F00"/>
<circle cx="216" cy="334" r="3" fill="#C44E52"/>
<circle cx="216" cy="49" r="3" fill="#000000"/>
<circle cx="290" cy="66" r="3" fill="#0072B2"/>
<circle cx="290" cy="105" r="3" fill="#CC79A7"/>
<circle cx="290" cy="340" r="3" fill="#D55E00"/>
<circle cx="290" cy="301" r="3" fill="#009E73"/>
<circle cx="290" cy="302" r="3" fill="#56B4E9"/>
<circle cx="290" cy="196" r="3" fill="#E69F00"/>
<circle cx="290" cy="334" r="3" fill="#C44E52"/>
<circle cx="290" cy="50" r="3" fill="#000000"/>
<circle cx="363" cy="73" r="3" fill="#0072B2"/>
<circle cx="363" cy="110" r="3" fill="#CC79A7"/>
<circle cx="363" cy="340" r="3" fill="#D55E00"/>
<circle cx="363" cy="301" r="3" fill="#009E73"/>
<circle cx="363" cy="302" r="3" fill="#56B4E9"/>
<circle cx="363" cy="196" r="3" fill="#E69F00"/>
<circle cx="363" cy="336" r="3" fill="#C44E52"/>
<circle cx="363" cy="51" r="3" fill="#000000"/>
<circle cx="436" cy="71" r="3" fill="#0072B2"/>
<circle cx="436" cy="103" r="3" fill="#CC79A7"/>
<circle cx="436" cy="340" r="3" fill="#D55E00"/>
<circle cx="436" cy="301" r="3" fill="#009E73"/>
<circle cx="436" cy="302" r="3" fill="#56B4E9"/>
<circle cx="436" cy="193" r="3" fill="#E69F00"/>
<circle cx="436" cy="335" r="3" fill="#C44E52"/>
<circle cx="436" cy="48" r="3" fill="#000000"/>
<circle cx="510" cy="74" r="3" fill="#0072B2"/>
<circle cx="510" cy="106" r="3" fill="#CC79A7"/>
<circle cx="510" cy="340" r="3" fill="#D55E00"/>
<circle cx="510" cy="301" r="3" fill="#009E73"/>
<circle cx="510" cy="302" r="3" fill="#56B4E9"/>
<circle cx="510" cy="193" r="3" fill="#E69F00"/>
<circle cx="510" cy="335" r="3" fill="#C44E52"/>
<circle cx="510" cy="48" r="3" fill="#000000"/>
<circle cx="583" cy="70" r="3" fill="#0072B2"/>
<circle cx="583" cy="103" r="3" fill="#CC79A7"/>
<circle cx="583" cy="340" r="3" fill="#D55E00"/>
<circle cx="583" cy="301" r="3" fill="#009E73"/>
<circle cx="583" cy="302" r="3" fill="#56B4E9"/>
<circle cx="583" cy="193" r="3" fill="#E69F00"/>
<circle cx="583" cy="335" r="3" fill="#C44E52"/>
<circle cx="583" cy="48" r="3" fill="#000000"/>
<circle cx="656" cy="73" r="3" fill="#0072B2"/>
<circle cx="656" cy="106" r="3" fill="#CC79A7"/>
<circle cx="656" cy="340" r="3" fill="#D55E00"/>
<circle cx="656" cy="301" r="3" fill="#009E73"/>
<circle cx="656" cy="302" r="3" fill="#56B4E9"/>
<circle cx="656" cy="193" r="3" fill="#E69F00"/>
<circle cx="656" cy="335" r="3" fill="#C44E52"/>
<circle cx="656" cy="48" r="3" fill="#000000"/>
<circle cx="730" cy="67" r="3" fill="#0072B2"/>
<circle cx="730" cy="102" r="3" fill="#CC79A7"/>
<circle cx="730" cy="340" r="3" fill="#D55E00"/>
<circle cx="730" cy="300" r="3" fill="#009E73"/>
<circle cx="730" cy="300" r="3" fill="#56B4E9"/>
<circle cx="730" cy="191" r="3" fill="#E69F00"/>
<circle cx="730" cy="333" r="3" fill="#C44E52"/>
<circle cx="730" cy="41" r="3" fill="#000000"/>
<circle cx="90" cy="20" r="4" fill="#0072B2"/>
<text x="98" y="24" text-anchor="start" font-size="12" fill="#0072B2">inte</text>
<circle cx="150" cy="20" r="4" fill="#CC79A7"/>
<text x="158" y="24" text-anchor="start" font-size="12" fill="#CC79A7">comp</text>
<circle cx="215" cy="20" r="4" fill="#D55E00"/>
<text x="223" y="24" text-anchor="start" font-size="12" fill="#D55E00">run</text>
<circle cx="270" cy="20" r="4" fill="#009E73"/>
<text x="278" y="24" text-anchor="start" font-size="12" fill="#009E73">wall</text>
<circle cx="335" cy="20" r="4" fill="#56B4E9"/>
<text x="343" y="24" text-anchor="start" font-size="12" fill="#56B4E9">mem-inte</text>
<circle cx="425" cy="20" r="4" fill="#E69F00"/>
<text x="433" y="24" text-anchor="start" font-size="12" fill="#E69F00">mem-comp</text>
<circle cx="520" cy="20" r="4" fill="#C44E52"/>
<text x="528" y="24" text-anchor="start" font-size="12" fill="#C44E52">mem-run</text>
<circle cx="605" cy="20" r="4" fill="#000000"/>
<text x="613" y="24" text-anchor="start" font-size="12" fill="#000000">mem-total</text>
</svg>
