<svg width="800" height="400" xmlns="http://www.w3.org/2000/svg">
<rect width="800" height="400" fill="white"/>
<line x1="70" y1="40" x2="70" y2="340" stroke="#333" stroke-width="1"/>
<line x1="70" y1="340" x2="730" y2="340" stroke="#333" stroke-width="1"/>
<line x1="730" y1="40" x2="730" y2="340" stroke="#333" stroke-width="1"/>
<text x="65" y="344" text-anchor="end" font-size="11" fill="#333">0</text>
<text x="65" y="194" text-anchor="end" font-size="11" fill="#333">124500</text>
<text x="65" y="44" text-anchor="end" font-size="11" fill="#333">249000</text>
<text x="15" y="190" text-anchor="middle" font-size="12" fill="#333" transform="rotate(-90 15 190)">ms</text>
<text x="735" y="344" text-anchor="start" font-size="11" fill="#333">0</text>
<text x="735" y="194" text-anchor="start" font-size="11" fill="#333">9532500000</text>
<text x="735" y="44" text-anchor="start" font-size="11" fill="#333">19065000000</text>
<text x="785" y="190" text-anchor="middle" font-size="12" fill="#333" transform="rotate(90 785 190)">bytes</text>
<polyline points="70,177 143,112 216,188 290,159 363,155 436,116 510,131 583,193 656,187 730,185" fill="none" stroke="#0072B2" stroke-width="2"/>
<polyline points="70,125 143,52 216,146 290,119 363,111 436,41 510,62 583,147 656,143 730,134" fill="none" stroke="#CC79A7" stroke-width="2"/>
<polyline points="70,340 143,339 216,340 290,340 363,339 436,339 510,339 583,340 656,340 730,340" fill="none" stroke="#D55E00" stroke-width="2"/>
<polyline points="70,295 143,277 216,298 290,291 363,291 436,274 510,283 583,299 656,298 730,297" fill="none" stroke="#009E73" stroke-width="2"/>
<polyline points="70,227 143,224 216,226 290,224 363,225 436,225 510,227 583,224 656,223 730,223" fill="none" stroke="#56B4E9" stroke-width="2"/>
<polyline points="70,221 143,221 216,220 290,220 363,221 436,219 510,220 583,220 656,219 730,218" fill="none" stroke="#E69F00" stroke-width="2"/>
<polyline points="70,338 143,337 216,339 290,338 363,338 436,337 510,338 583,339 656,339 730,338" fill="none" stroke="#C44E52" stroke-width="2"/>
<polyline points="70,52 143,41 216,43 290,47 363,49 436,43 510,47 583,43 656,48 730,42" fill="none" stroke="#000000" stroke-width="2"/>
<circle cx="70" cy="177" r="3" fill="#0072B2"/>
<circle cx="70" cy="125" r="3" fill="#CC79A7"/>
<circle cx="70" cy="340" r="3" fill="#D55E00"/>
<circle cx="70" cy="295" r="3" fill="#009E73"/>
<circle cx="70" cy="227" r="3" fill="#56B4E9"/>
<circle cx="70" cy="221" r="3" fill="#E69F00"/>
<circle cx="70" cy="338" r="3" fill="#C44E52"/>
<circle cx="70" cy="52" r="3" fill="#000000"/>
<circle cx="143" cy="112" r="3" fill="#0072B2"/>
<circle cx="143" cy="52" r="3" fill="#CC79A7"/>
<circle cx="143" cy="339" r="3" fill="#D55E00"/>
<circle cx="143" cy="277" r="3" fill="#009E73"/>
<circle cx="143" cy="224" r="3" fill="#56B4E9"/>
<circle cx="143" cy="221" r="3" fill="#E69F00"/>
<circle cx="143" cy="337" r="3" fill="#C44E52"/>
<circle cx="143" cy="41" r="3" fill="#000000"/>
<circle cx="216" cy="188" r="3" fill="#0072B2"/>
<circle cx="216" cy="146" r="3" fill="#CC79A7"/>
<circle cx="216" cy="340" r="3" fill="#D55E00"/>
<circle cx="216" cy="298" r="3" fill="#009E73"/>
<circle cx="216" cy="226" r="3" fill="#56B4E9"/>
<circle cx="216" cy="220" r="3" fill="#E69F00"/>
<circle cx="216" cy="339" r="3" fill="#C44E52"/>
<circle cx="216" cy="43" r="3" fill="#000000"/>
<circle cx="290" cy="159" r="3" fill="#0072B2"/>
<circle cx="290" cy="119" r="3" fill="#CC79A7"/>
<circle cx="290" cy="340" r="3" fill="#D55E00"/>
<circle cx="290" cy="291" r="3" fill="#009E73"/>
<circle cx="290" cy="224" r="3" fill="#56B4E9"/>
<circle cx="290" cy="220" r="3" fill="#E69F00"/>
<circle cx="290" cy="338" r="3" fill="#C44E52"/>
<circle cx="290" cy="47" r="3" fill="#000000"/>
<circle cx="363" cy="155" r="3" fill="#0072B2"/>
<circle cx="363" cy="111" r="3" fill="#CC79A7"/>
<circle cx="363" cy="339" r="3" fill="#D55E00"/>
<circle cx="363" cy="291" r="3" fill="#009E73"/>
<circle cx="363" cy="225" r="3" fill="#56B4E9"/>
<circle cx="363" cy="221" r="3" fill="#E69F00"/>
<circle cx="363" cy="338" r="3" fill="#C44E52"/>
<circle cx="363" cy="49" r="3" fill="#000000"/>
<circle cx="436" cy="116" r="3" fill="#0072B2"/>
<circle cx="436" cy="41" r="3" fill="#CC79A7"/>
<circle cx="436" cy="339" r="3" fill="#D55E00"/>
<circle cx="436" cy="274" r="3" fill="#009E73"/>
<circle cx="436" cy="225" r="3" fill="#56B4E9"/>
<circle cx="436" cy="219" r="3" fill="#E69F00"/>
<circle cx="436" cy="337" r="3" fill="#C44E52"/>
<circle cx="436" cy="43" r="3" fill="#000000"/>
<circle cx="510" cy="131" r="3" fill="#0072B2"/>
<circle cx="510" cy="62" r="3" fill="#CC79A7"/>
<circle cx="510" cy="339" r="3" fill="#D55E00"/>
<circle cx="510" cy="283" r="3" fill="#009E73"/>
<circle cx="510" cy="227" r="3" fill="#56B4E9"/>
<circle cx="510" cy="220" r="3" fill="#E69F00"/>
<circle cx="510" cy="338" r="3" fill="#C44E52"/>
<circle cx="510" cy="47" r="3" fill="#000000"/>
<circle cx="583" cy="193" r="3" fill="#0072B2"/>
<circle cx="583" cy="147" r="3" fill="#CC79A7"/>
<circle cx="583" cy="340" r="3" fill="#D55E00"/>
<circle cx="583" cy="299" r="3" fill="#009E73"/>
<circle cx="583" cy="224" r="3" fill="#56B4E9"/>
<circle cx="583" cy="220" r="3" fill="#E69F00"/>
<circle cx="583" cy="339" r="3" fill="#C44E52"/>
<circle cx="583" cy="43" r="3" fill="#000000"/>
<circle cx="656" cy="187" r="3" fill="#0072B2"/>
<circle cx="656" cy="143" r="3" fill="#CC79A7"/>
<circle cx="656" cy="340" r="3" fill="#D55E00"/>
<circle cx="656" cy="298" r="3" fill="#009E73"/>
<circle cx="656" cy="223" r="3" fill="#56B4E9"/>
<circle cx="656" cy="219" r="3" fill="#E69F00"/>
<circle cx="656" cy="339" r="3" fill="#C44E52"/>
<circle cx="656" cy="48" r="3" fill="#000000"/>
<circle cx="730" cy="185" r="3" fill="#0072B2"/>
<circle cx="730" cy="134" r="3" fill="#CC79A7"/>
<circle cx="730" cy="340" r="3" fill="#D55E00"/>
<circle cx="730" cy="297" r="3" fill="#009E73"/>
<circle cx="730" cy="223" r="3" fill="#56B4E9"/>
<circle cx="730" cy="218" r="3" fill="#E69F00"/>
<circle cx="730" cy="338" r="3" fill="#C44E52"/>
<circle cx="730" cy="42" r="3" fill="#000000"/>
<circle cx="90" cy="20" r="4" fill="#0072B2"/>
<text x="98" y="24" text-anchor="start" font-size="12" fill="#0072B2">inte</text>
<circle cx="150" cy="20" r="4" fill="#CC79A7"/>
<text x="158" y="24" text-anchor="start" font-size="12" fill="#CC79A7">comp</text>
<circle cx="215" cy="20" r="4" fill="#D55E00"/>
<text x="223" y="24" text-anchor="start" font-size="12" fill="#D55E00">run</text>
<circle cx="270" cy="20" r="4" fill="#009E73"/>
<text x="278" y="24" text-anchor="start" font-size="12" fill="#009E73">wall</text>
<circle cx="335" cy="20" r="4" fill="#56B4E9"/>
<text x="343" y="24" text-anchor="start" font-size="12" fill="#56B4E9">mem-inte</text>
<circle cx="425" cy="20" r="4" fill="#E69F00"/>
<text x="433" y="24" text-anchor="start" font-size="12" fill="#E69F00">mem-comp</text>
<circle cx="520" cy="20" r="4" fill="#C44E52"/>
<text x="528" y="24" text-anchor="start" font-size="12" fill="#C44E52">mem-run</text>
<circle cx="605" cy="20" r="4" fill="#000000"/>
<text x="613" y="24" text-anchor="start" font-size="12" fill="#000000">mem-total</text>
</svg>
