<svg width="800" height="400" xmlns="http://www.w3.org/2000/svg">
<rect width="800" height="400" fill="white"/>
<line x1="70" y1="40" x2="70" y2="340" stroke="#333" stroke-width="1"/>
<line x1="70" y1="340" x2="730" y2="340" stroke="#333" stroke-width="1"/>
<line x1="730" y1="40" x2="730" y2="340" stroke="#333" stroke-width="1"/>
<text x="65" y="344" text-anchor="end" font-size="11" fill="#333">0</text>
<text x="65" y="194" text-anchor="end" font-size="11" fill="#333">110500</text>
<text x="65" y="44" text-anchor="end" font-size="11" fill="#333">221000</text>
<text x="15" y="190" text-anchor="middle" font-size="12" fill="#333" transform="rotate(-90 15 190)">ms</text>
<text x="735" y="344" text-anchor="start" font-size="11" fill="#333">0</text>
<text x="735" y="194" text-anchor="start" font-size="11" fill="#333">9344000000</text>
<text x="735" y="44" text-anchor="start" font-size="11" fill="#333">18688000000</text>
<text x="785" y="190" text-anchor="middle" font-size="12" fill="#333" transform="rotate(90 785 190)">bytes</text>
<polyline points="70,192 143,180 216,130 290,114 363,121 436,164 510,175 583,186 656,169 730,169" fill="none" stroke="#0072B2" stroke-width="2"/>
<polyline points="70,142 143,133 216,59 290,41 363,48 436,113 510,121 583,123 656,120 730,109" fill="none" stroke="#CC79A7" stroke-width="2"/>
<polyline points="70,340 143,340 216,339 290,339 363,339 436,340 510,339 583,339 656,340 730,339" fill="none" stroke="#D55E00" stroke-width="2"/>
<polyline points="70,297 143,294 216,279 290,275 363,276 436,289 510,293 583,295 656,292 730,291" fill="none" stroke="#009E73" stroke-width="2"/>
<polyline points="70,298 143,298 216,298 290,261 363,263 436,261 510,265 583,267 656,231 730,232" fill="none" stroke="#56B4E9" stroke-width="2"/>
<polyline points="70,255 143,255 216,255 290,255 363,255 436,254 510,254 583,255 656,225 730,225" fill="none" stroke="#E69F00" stroke-width="2"/>
<polyline points="70,339 143,339 216,337 290,337 363,338 436,338 510,338 583,338 656,339 730,338" fill="none" stroke="#C44E52" stroke-width="2"/>
<polyline points="70,139 143,160 216,154 290,112 363,113 436,115 510,120 583,106 656,41 730,58" fill="none" stroke="#000000" stroke-width="2"/>
<circle cx="70" cy="192" r="3" fill="#0072B2"/>
<circle cx="70" cy="142" r="3" fill="#CC79A7"/>
<circle cx="70" cy="340" r="3" fill="#D55E00"/>
<circle cx="70" cy="297" r="3" fill="#009E73"/>
<circle cx="70" cy="298" r="3" fill="#56B4E9"/>
<circle cx="70" cy="255" r="3" fill="#E69F00"/>
<circle cx="70" cy="339" r="3" fill="#C44E52"/>
<circle cx="70" cy="139" r="3" fill="#000000"/>
<circle cx="143" cy="180" r="3" fill="#0072B2"/>
<circle cx="143" cy="133" r="3" fill="#CC79A7"/>
<circle cx="143" cy="340" r="3" fill="#D55E00"/>
<circle cx="143" cy="294" r="3" fill="#009E73"/>
<circle cx="143" cy="298" r="3" fill="#56B4E9"/>
<circle cx="143" cy="255" r="3" fill="#E69F00"/>
<circle cx="143" cy="339" r="3" fill="#C44E52"/>
<circle cx="143" cy="160" r="3" fill="#000000"/>
<circle cx="216" cy="130" r="3" fill="#0072B2"/>
<circle cx="216" cy="59" r="3" fill="#CC79A7"/>
<circle cx="216" cy="339" r="3" fill="#D55E00"/>
<circle cx="216" cy="279" r="3" fill="#009E73"/>
<circle cx="216" cy="298" r="3" fill="#56B4E9"/>
<circle cx="216" cy="255" r="3" fill="#E69F00"/>
<circle cx="216" cy="337" r="3" fill="#C44E52"/>
<circle cx="216" cy="154" r="3" fill="#000000"/>
<circle cx="290" cy="114" r="3" fill="#0072B2"/>
<circle cx="290" cy="41" r="3" fill="#CC79A7"/>
<circle cx="290" cy="339" r="3" fill="#D55E00"/>
<circle cx="290" cy="275" r="3" fill="#009E73"/>
<circle cx="290" cy="261" r="3" fill="#56B4E9"/>
<circle cx="290" cy="255" r="3" fill="#E69F00"/>
<circle cx="290" cy="337" r="3" fill="#C44E52"/>
<circle cx="290" cy="112" r="3" fill="#000000"/>
<circle cx="363" cy="121" r="3" fill="#0072B2"/>
<circle cx="363" cy="48" r="3" fill="#CC79A7"/>
<circle cx="363" cy="339" r="3" fill="#D55E00"/>
<circle cx="363" cy="276" r="3" fill="#009E73"/>
<circle cx="363" cy="263" r="3" fill="#56B4E9"/>
<circle cx="363" cy="255" r="3" fill="#E69F00"/>
<circle cx="363" cy="338" r="3" fill="#C44E52"/>
<circle cx="363" cy="113" r="3" fill="#000000"/>
<circle cx="436" cy="164" r="3" fill="#0072B2"/>
<circle cx="436" cy="113" r="3" fill="#CC79A7"/>
<circle cx="436" cy="340" r="3" fill="#D55E00"/>
<circle cx="436" cy="289" r="3" fill="#009E73"/>
<circle cx="436" cy="261" r="3" fill="#56B4E9"/>
<circle cx="436" cy="254" r="3" fill="#E69F00"/>
<circle cx="436" cy="338" r="3" fill="#C44E52"/>
<circle cx="436" cy="115" r="3" fill="#000000"/>
<circle cx="510" cy="175" r="3" fill="#0072B2"/>
<circle cx="510" cy="121" r="3" fill="#CC79A7"/>
<circle cx="510" cy="339" r="3" fill="#D55E00"/>
<circle cx="510" cy="293" r="3" fill="#009E73"/>
<circle cx="510" cy="265" r="3" fill="#56B4E9"/>
<circle cx="510" cy="254" r="3" fill="#E69F00"/>
<circle cx="510" cy="338" r="3" fill="#C44E52"/>
<circle cx="510" cy="120" r="3" fill="#000000"/>
<circle cx="583" cy="186" r="3" fill="#0072B2"/>
<circle cx="583" cy="123" r="3" fill="#CC79A7"/>
<circle cx="583" cy="339" r="3" fill="#D55E00"/>
<circle cx="583" cy="295" r="3" fill="#009E73"/>
<circle cx="583" cy="267" r="3" fill="#56B4E9"/>
<circle cx="583" cy="255" r="3" fill="#E69F00"/>
<circle cx="583" cy="338" r="3" fill="#C44E52"/>
<circle cx="583" cy="106" r="3" fill="#000000"/>
<circle cx="656" cy="169" r="3" fill="#0072B2"/>
<circle cx="656" cy="120" r="3" fill="#CC79A7"/>
<circle cx="656" cy="340" r="3" fill="#D55E00"/>
<circle cx="656" cy="292" r="3" fill="#009E73"/>
<circle cx="656" cy="231" r="3" fill="#56B4E9"/>
<circle cx="656" cy="225" r="3" fill="#E69F00"/>
<circle cx="656" cy="339" r="3" fill="#C44E52"/>
<circle cx="656" cy="41" r="3" fill="#000000"/>
<circle cx="730" cy="169" r="3" fill="#0072B2"/>
<circle cx="730" cy="109" r="3" fill="#CC79A7"/>
<circle cx="730" cy="339" r="3" fill="#D55E00"/>
<circle cx="730" cy="291" r="3" fill="#009E73"/>
<circle cx="730" cy="232" r="3" fill="#56B4E9"/>
<circle cx="730" cy="225" r="3" fill="#E69F00"/>
<circle cx="730" cy="338" r="3" fill="#C44E52"/>
<circle cx="730" cy="58" r="3" fill="#000000"/>
<circle cx="90" cy="20" r="4" fill="#0072B2"/>
<text x="98" y="24" text-anchor="start" font-size="12" fill="#0072B2">inte</text>
<circle cx="150" cy="20" r="4" fill="#CC79A7"/>
<text x="158" y="24" text-anchor="start" font-size="12" fill="#CC79A7">comp</text>
<circle cx="215" cy="20" r="4" fill="#D55E00"/>
<text x="223" y="24" text-anchor="start" font-size="12" fill="#D55E00">run</text>
<circle cx="270" cy="20" r="4" fill="#009E73"/>
<text x="278" y="24" text-anchor="start" font-size="12" fill="#009E73">wall</text>
<circle cx="335" cy="20" r="4" fill="#56B4E9"/>
<text x="343" y="24" text-anchor="start" font-size="12" fill="#56B4E9">mem-inte</text>
<circle cx="425" cy="20" r="4" fill="#E69F00"/>
<text x="433" y="24" text-anchor="start" font-size="12" fill="#E69F00">mem-comp</text>
<circle cx="520" cy="20" r="4" fill="#C44E52"/>
<text x="528" y="24" text-anchor="start" font-size="12" fill="#C44E52">mem-run</text>
<circle cx="605" cy="20" r="4" fill="#000000"/>
<text x="613" y="24" text-anchor="start" font-size="12" fill="#000000">mem-total</text>
</svg>
