<svg width="800" height="400" xmlns="http://www.w3.org/2000/svg">
<rect width="800" height="400" fill="white"/>
<line x1="70" y1="40" x2="70" y2="340" stroke="#333" stroke-width="1"/>
<line x1="70" y1="340" x2="730" y2="340" stroke="#333" stroke-width="1"/>
<line x1="730" y1="40" x2="730" y2="340" stroke="#333" stroke-width="1"/>
<text x="65" y="344" text-anchor="end" font-size="11" fill="#333">0</text>
<text x="65" y="194" text-anchor="end" font-size="11" fill="#333">334500</text>
<text x="65" y="44" text-anchor="end" font-size="11" fill="#333">669000</text>
<text x="15" y="190" text-anchor="middle" font-size="12" fill="#333" transform="rotate(-90 15 190)">ms</text>
<text x="735" y="344" text-anchor="start" font-size="11" fill="#333">0</text>
<text x="735" y="194" text-anchor="start" font-size="11" fill="#333">5140000000</text>
<text x="735" y="44" text-anchor="start" font-size="11" fill="#333">10280000000</text>
<text x="785" y="190" text-anchor="middle" font-size="12" fill="#333" transform="rotate(90 785 190)">bytes</text>
<polyline points="70,95 143,139 216,90 290,136 363,111 436,159 510,131 583,134 656,125 730,99" fill="none" stroke="#0072B2" stroke-width="2"/>
<polyline points="70,41 143,99 216,53 290,108 363,101 436,141 510,99 583,119 656,105 730,84" fill="none" stroke="#CC79A7" stroke-width="2"/>
<polyline points="70,340 143,340 216,340 290,340 363,340 436,340 510,340 583,340 656,340 730,340" fill="none" stroke="#D55E00" stroke-width="2"/>
<polyline points="70,253 143,270 216,257 290,272 363,268 436,279 510,268 583,272 656,270 730,263" fill="none" stroke="#009E73" stroke-width="2"/>
<polyline points="70,270 143,270 216,270 290,270 363,270 436,270 510,270 583,270 656,268 730,268" fill="none" stroke="#56B4E9" stroke-width="2"/>
<polyline points="70,206 143,207 216,207 290,206 363,206 436,206 510,206 583,206 656,204 730,203" fill="none" stroke="#E69F00" stroke-width="2"/>
<polyline points="70,340 143,340 216,340 290,340 363,340 436,340 510,340 583,340 656,340 730,340" fill="none" stroke="#C44E52" stroke-width="2"/>
<polyline points="70,46 143,46 216,46 290,45 363,45 436,46 510,45 583,45 656,42 730,41" fill="none" stroke="#000000" stroke-width="2"/>
<circle cx="70" cy="95" r="3" fill="#0072B2"/>
<circle cx="70" cy="41" r="3" fill="#CC79A7"/>
<circle cx="70" cy="340" r="3" fill="#D55E00"/>
<circle cx="70" cy="253" r="3" fill="#009E73"/>
<circle cx="70" cy="270" r="3" fill="#56B4E9"/>
<circle cx="70" cy="206" r="3" fill="#E69F00"/>
<circle cx="70" cy="340" r="3" fill="#C44E52"/>
<circle cx="70" cy="46" r="3" fill="#000000"/>
<circle cx="143" cy="139" r="3" fill="#0072B2"/>
<circle cx="143" cy="99" r="3" fill="#CC79A7"/>
<circle cx="143" cy="340" r="3" fill="#D55E00"/>
<circle cx="143" cy="270" r="3" fill="#009E73"/>
<circle cx="143" cy="270" r="3" fill="#56B4E9"/>
<circle cx="143" cy="207" r="3" fill="#E69F00"/>
<circle cx="143" cy="340" r="3" fill="#C44E52"/>
<circle cx="143" cy="46" r="3" fill="#000000"/>
<circle cx="216" cy="90" r="3" fill="#0072B2"/>
<circle cx="216" cy="53" r="3" fill="#CC79A7"/>
<circle cx="216" cy="340" r="3" fill="#D55E00"/>
<circle cx="216" cy="257" r="3" fill="#009E73"/>
<circle cx="216" cy="270" r="3" fill="#56B4E9"/>
<circle cx="216" cy="207" r="3" fill="#E69F00"/>
<circle cx="216" cy="340" r="3" fill="#C44E52"/>
<circle cx="216" cy="46" r="3" fill="#000000"/>
<circle cx="290" cy="136" r="3" fill="#0072B2"/>
<circle cx="290" cy="108" r="3" fill="#CC79A7"/>
<circle cx="290" cy="340" r="3" fill="#D55E00"/>
<circle cx="290" cy="272" r="3" fill="#009E73"/>
<circle cx="290" cy="270" r="3" fill="#56B4E9"/>
<circle cx="290" cy="206" r="3" fill="#E69F00"/>
<circle cx="290" cy="340" r="3" fill="#C44E52"/>
<circle cx="290" cy="45" r="3" fill="#000000"/>
<circle cx="363" cy="111" r="3" fill="#0072B2"/>
<circle cx="363" cy="101" r="3" fill="#CC79A7"/>
<circle cx="363" cy="340" r="3" fill="#D55E00"/>
<circle cx="363" cy="268" r="3" fill="#009E73"/>
<circle cx="363" cy="270" r="3" fill="#56B4E9"/>
<circle cx="363" cy="206" r="3" fill="#E69F00"/>
<circle cx="363" cy="340" r="3" fill="#C44E52"/>
<circle cx="363" cy="45" r="3" fill="#000000"/>
<circle cx="436" cy="159" r="3" fill="#0072B2"/>
<circle cx="436" cy="141" r="3" fill="#CC79A7"/>
<circle cx="436" cy="340" r="3" fill="#D55E00"/>
<circle cx="436" cy="279" r="3" fill="#009E73"/>
<circle cx="436" cy="270" r="3" fill="#56B4E9"/>
<circle cx="436" cy="206" r="3" fill="#E69F00"/>
<circle cx="436" cy="340" r="3" fill="#C44E52"/>
<circle cx="436" cy="46" r="3" fill="#000000"/>
<circle cx="510" cy="131" r="3" fill="#0072B2"/>
<circle cx="510" cy="99" r="3" fill="#CC79A7"/>
<circle cx="510" cy="340" r="3" fill="#D55E00"/>
<circle cx="510" cy="268" r="3" fill="#009E73"/>
<circle cx="510" cy="270" r="3" fill="#56B4E9"/>
<circle cx="510" cy="206" r="3" fill="#E69F00"/>
<circle cx="510" cy="340" r="3" fill="#C44E52"/>
<circle cx="510" cy="45" r="3" fill="#000000"/>
<circle cx="583" cy="134" r="3" fill="#0072B2"/>
<circle cx="583" cy="119" r="3" fill="#CC79A7"/>
<circle cx="583" cy="340" r="3" fill="#D55E00"/>
<circle cx="583" cy="272" r="3" fill="#009E73"/>
<circle cx="583" cy="270" r="3" fill="#56B4E9"/>
<circle cx="583" cy="206" r="3" fill="#E69F00"/>
<circle cx="583" cy="340" r="3" fill="#C44E52"/>
<circle cx="583" cy="45" r="3" fill="#000000"/>
<circle cx="656" cy="125" r="3" fill="#0072B2"/>
<circle cx="656" cy="105" r="3" fill="#CC79A7"/>
<circle cx="656" cy="340" r="3" fill="#D55E00"/>
<circle cx="656" cy="270" r="3" fill="#009E73"/>
<circle cx="656" cy="268" r="3" fill="#56B4E9"/>
<circle cx="656" cy="204" r="3" fill="#E69F00"/>
<circle cx="656" cy="340" r="3" fill="#C44E52"/>
<circle cx="656" cy="42" r="3" fill="#000000"/>
<circle cx="730" cy="99" r="3" fill="#0072B2"/>
<circle cx="730" cy="84" r="3" fill="#CC79A7"/>
<circle cx="730" cy="340" r="3" fill="#D55E00"/>
<circle cx="730" cy="263" r="3" fill="#009E73"/>
<circle cx="730" cy="268" r="3" fill="#56B4E9"/>
<circle cx="730" cy="203" r="3" fill="#E69F00"/>
<circle cx="730" cy="340" r="3" fill="#C44E52"/>
<circle cx="730" cy="41" r="3" fill="#000000"/>
<circle cx="90" cy="20" r="4" fill="#0072B2"/>
<text x="98" y="24" text-anchor="start" font-size="12" fill="#0072B2">inte</text>
<circle cx="150" cy="20" r="4" fill="#CC79A7"/>
<text x="158" y="24" text-anchor="start" font-size="12" fill="#CC79A7">comp</text>
<circle cx="215" cy="20" r="4" fill="#D55E00"/>
<text x="223" y="24" text-anchor="start" font-size="12" fill="#D55E00">run</text>
<circle cx="270" cy="20" r="4" fill="#009E73"/>
<text x="278" y="24" text-anchor="start" font-size="12" fill="#009E73">wall</text>
<circle cx="335" cy="20" r="4" fill="#56B4E9"/>
<text x="343" y="24" text-anchor="start" font-size="12" fill="#56B4E9">mem-inte</text>
<circle cx="425" cy="20" r="4" fill="#E69F00"/>
<text x="433" y="24" text-anchor="start" font-size="12" fill="#E69F00">mem-comp</text>
<circle cx="520" cy="20" r="4" fill="#C44E52"/>
<text x="528" y="24" text-anchor="start" font-size="12" fill="#C44E52">mem-run</text>
<circle cx="605" cy="20" r="4" fill="#000000"/>
<text x="613" y="24" text-anchor="start" font-size="12" fill="#000000">mem-total</text>
</svg>
