<svg width="800" height="400" xmlns="http://www.w3.org/2000/svg">
<rect width="800" height="400" fill="white"/>
<line x1="70" y1="40" x2="70" y2="340" stroke="#333" stroke-width="1"/>
<line x1="70" y1="340" x2="780" y2="340" stroke="#333" stroke-width="1"/>
<text x="65" y="344" text-anchor="end" font-size="11" fill="#333">0</text>
<text x="65" y="194" text-anchor="end" font-size="11" fill="#333">4000</text>
<text x="65" y="44" text-anchor="end" font-size="11" fill="#333">8000</text>
<text x="15" y="190" text-anchor="middle" font-size="12" fill="#333" transform="rotate(-90 15 190)">ms</text>
<polyline points="70,268 158,266 247,269 336,265 425,269 513,267 602,263 691,265 780,260" fill="none" stroke="#2196F3" stroke-width="2"/>
<polyline points="70,131 158,132 247,133 336,128 425,130 513,135 602,127 691,127 780,127" fill="none" stroke="#F44336" stroke-width="2"/>
<polyline points="70,79 158,80 247,80 336,78 425,84 513,71 602,69 691,69 780,66" fill="none" stroke="#4CAF50" stroke-width="2"/>
<circle cx="70" cy="268" r="3" fill="#2196F3"/>
<circle cx="70" cy="131" r="3" fill="#F44336"/>
<circle cx="70" cy="79" r="3" fill="#4CAF50"/>
<circle cx="158" cy="266" r="3" fill="#2196F3"/>
<circle cx="158" cy="132" r="3" fill="#F44336"/>
<circle cx="158" cy="80" r="3" fill="#4CAF50"/>
<circle cx="247" cy="269" r="3" fill="#2196F3"/>
<circle cx="247" cy="133" r="3" fill="#F44336"/>
<circle cx="247" cy="80" r="3" fill="#4CAF50"/>
<circle cx="336" cy="265" r="3" fill="#2196F3"/>
<circle cx="336" cy="128" r="3" fill="#F44336"/>
<circle cx="336" cy="78" r="3" fill="#4CAF50"/>
<circle cx="425" cy="269" r="3" fill="#2196F3"/>
<circle cx="425" cy="130" r="3" fill="#F44336"/>
<circle cx="425" cy="84" r="3" fill="#4CAF50"/>
<circle cx="513" cy="267" r="3" fill="#2196F3"/>
<circle cx="513" cy="135" r="3" fill="#F44336"/>
<circle cx="513" cy="71" r="3" fill="#4CAF50"/>
<circle cx="602" cy="263" r="3" fill="#2196F3"/>
<circle cx="602" cy="127" r="3" fill="#F44336"/>
<circle cx="602" cy="69" r="3" fill="#4CAF50"/>
<circle cx="691" cy="265" r="3" fill="#2196F3"/>
<circle cx="691" cy="127" r="3" fill="#F44336"/>
<circle cx="691" cy="69" r="3" fill="#4CAF50"/>
<circle cx="780" cy="260" r="3" fill="#2196F3"/>
<circle cx="780" cy="127" r="3" fill="#F44336"/>
<circle cx="780" cy="66" r="3" fill="#4CAF50"/>
<text x="70" y="355" text-anchor="middle" font-size="10" fill="#666">d31c3d3</text>
<text x="158" y="355" text-anchor="middle" font-size="10" fill="#666">577b0f6</text>
<text x="247" y="355" text-anchor="middle" font-size="10" fill="#666">a0e3a8f</text>
<text x="336" y="355" text-anchor="middle" font-size="10" fill="#666">32b7787</text>
<text x="425" y="355" text-anchor="middle" font-size="10" fill="#666">940e369</text>
<text x="513" y="355" text-anchor="middle" font-size="10" fill="#666">78956c1</text>
<text x="602" y="355" text-anchor="middle" font-size="10" fill="#666">1a288e9</text>
<text x="691" y="355" text-anchor="middle" font-size="10" fill="#666">f1c0746</text>
<text x="780" y="355" text-anchor="middle" font-size="10" fill="#666">efad3b5</text>
<circle cx="90" cy="20" r="4" fill="#2196F3"/>
<text x="98" y="24" text-anchor="start" font-size="12" fill="#2196F3">Interpreted</text>
<circle cx="200" cy="20" r="4" fill="#F44336"/>
<text x="208" y="24" text-anchor="start" font-size="12" fill="#F44336">Compiled</text>
<circle cx="300" cy="20" r="4" fill="#4CAF50"/>
<text x="308" y="24" text-anchor="start" font-size="12" fill="#4CAF50">Wall-clock</text>
</svg>
