<svg width="800" height="400" xmlns="http://www.w3.org/2000/svg">
<rect width="800" height="400" fill="white"/>
<line x1="70" y1="40" x2="70" y2="340" stroke="#333" stroke-width="1"/>
<line x1="70" y1="340" x2="730" y2="340" stroke="#333" stroke-width="1"/>
<line x1="730" y1="40" x2="730" y2="340" stroke="#333" stroke-width="1"/>
<text x="65" y="344" text-anchor="end" font-size="11" fill="#333">0</text>
<text x="65" y="194" text-anchor="end" font-size="11" fill="#333">130500</text>
<text x="65" y="44" text-anchor="end" font-size="11" fill="#333">261000</text>
<text x="15" y="190" text-anchor="middle" font-size="12" fill="#333" transform="rotate(-90 15 190)">ms</text>
<text x="735" y="344" text-anchor="start" font-size="11" fill="#333">0</text>
<text x="735" y="194" text-anchor="start" font-size="11" fill="#333">8844500000</text>
<text x="735" y="44" text-anchor="start" font-size="11" fill="#333">17689000000</text>
<text x="785" y="190" text-anchor="middle" font-size="12" fill="#333" transform="rotate(90 785 190)">bytes</text>
<polyline points="70,42 143,47 216,47 290,48 363,46 436,46 510,50 583,47 656,44 730,42" fill="none" stroke="#0072B2" stroke-width="2"/>
<polyline points="70,67 143,71 216,72 290,74 363,74 436,73 510,76 583,70 656,70 730,70" fill="none" stroke="#CC79A7" stroke-width="2"/>
<polyline points="70,340 143,340 216,340 290,340 363,340 436,340 510,340 583,340 656,340 730,340" fill="none" stroke="#D55E00" stroke-width="2"/>
<polyline points="70,289 143,290 216,290 290,290 363,289 436,289 510,290 583,290 656,290 730,290" fill="none" stroke="#009E73" stroke-width="2"/>
<polyline points="70,281 143,282 216,282 290,282 363,284 436,284 510,284 583,284 656,284 730,284" fill="none" stroke="#56B4E9" stroke-width="2"/>
<polyline points="70,212 143,214 216,214 290,214 363,215 436,215 510,215 583,215 656,215 730,215" fill="none" stroke="#E69F00" stroke-width="2"/>
<polyline points="70,340 143,340 216,340 290,340 363,339 436,340 510,340 583,340 656,340 730,340" fill="none" stroke="#C44E52" stroke-width="2"/>
<polyline points="70,41 143,44 216,43 290,41 363,44 436,43 510,43 583,44 656,44 730,44" fill="none" stroke="#000000" stroke-width="2"/>
<circle cx="70" cy="42" r="3" fill="#0072B2"/>
<circle cx="70" cy="67" r="3" fill="#CC79A7"/>
<circle cx="70" cy="340" r="3" fill="#D55E00"/>
<circle cx="70" cy="289" r="3" fill="#009E73"/>
<circle cx="70" cy="281" r="3" fill="#56B4E9"/>
<circle cx="70" cy="212" r="3" fill="#E69F00"/>
<circle cx="70" cy="340" r="3" fill="#C44E52"/>
<circle cx="70" cy="41" r="3" fill="#000000"/>
<circle cx="143" cy="47" r="3" fill="#0072B2"/>
<circle cx="143" cy="71" r="3" fill="#CC79A7"/>
<circle cx="143" cy="340" r="3" fill="#D55E00"/>
<circle cx="143" cy="290" r="3" fill="#009E73"/>
<circle cx="143" cy="282" r="3" fill="#56B4E9"/>
<circle cx="143" cy="214" r="3" fill="#E69F00"/>
<circle cx="143" cy="340" r="3" fill="#C44E52"/>
<circle cx="143" cy="44" r="3" fill="#000000"/>
<circle cx="216" cy="47" r="3" fill="#0072B2"/>
<circle cx="216" cy="72" r="3" fill="#CC79A7"/>
<circle cx="216" cy="340" r="3" fill="#D55E00"/>
<circle cx="216" cy="290" r="3" fill="#009E73"/>
<circle cx="216" cy="282" r="3" fill="#56B4E9"/>
<circle cx="216" cy="214" r="3" fill="#E69F00"/>
<circle cx="216" cy="340" r="3" fill="#C44E52"/>
<circle cx="216" cy="43" r="3" fill="#000000"/>
<circle cx="290" cy="48" r="3" fill="#0072B2"/>
<circle cx="290" cy="74" r="3" fill="#CC79A7"/>
<circle cx="290" cy="340" r="3" fill="#D55E00"/>
<circle cx="290" cy="290" r="3" fill="#009E73"/>
<circle cx="290" cy="282" r="3" fill="#56B4E9"/>
<circle cx="290" cy="214" r="3" fill="#E69F00"/>
<circle cx="290" cy="340" r="3" fill="#C44E52"/>
<circle cx="290" cy="41" r="3" fill="#000000"/>
<circle cx="363" cy="46" r="3" fill="#0072B2"/>
<circle cx="363" cy="74" r="3" fill="#CC79A7"/>
<circle cx="363" cy="340" r="3" fill="#D55E00"/>
<circle cx="363" cy="289" r="3" fill="#009E73"/>
<circle cx="363" cy="284" r="3" fill="#56B4E9"/>
<circle cx="363" cy="215" r="3" fill="#E69F00"/>
<circle cx="363" cy="339" r="3" fill="#C44E52"/>
<circle cx="363" cy="44" r="3" fill="#000000"/>
<circle cx="436" cy="46" r="3" fill="#0072B2"/>
<circle cx="436" cy="73" r="3" fill="#CC79A7"/>
<circle cx="436" cy="340" r="3" fill="#D55E00"/>
<circle cx="436" cy="289" r="3" fill="#009E73"/>
<circle cx="436" cy="284" r="3" fill="#56B4E9"/>
<circle cx="436" cy="215" r="3" fill="#E69F00"/>
<circle cx="436" cy="340" r="3" fill="#C44E52"/>
<circle cx="436" cy="43" r="3" fill="#000000"/>
<circle cx="510" cy="50" r="3" fill="#0072B2"/>
<circle cx="510" cy="76" r="3" fill="#CC79A7"/>
<circle cx="510" cy="340" r="3" fill="#D55E00"/>
<circle cx="510" cy="290" r="3" fill="#009E73"/>
<circle cx="510" cy="284" r="3" fill="#56B4E9"/>
<circle cx="510" cy="215" r="3" fill="#E69F00"/>
<circle cx="510" cy="340" r="3" fill="#C44E52"/>
<circle cx="510" cy="43" r="3" fill="#000000"/>
<circle cx="583" cy="47" r="3" fill="#0072B2"/>
<circle cx="583" cy="70" r="3" fill="#CC79A7"/>
<circle cx="583" cy="340" r="3" fill="#D55E00"/>
<circle cx="583" cy="290" r="3" fill="#009E73"/>
<circle cx="583" cy="284" r="3" fill="#56B4E9"/>
<circle cx="583" cy="215" r="3" fill="#E69F00"/>
<circle cx="583" cy="340" r="3" fill="#C44E52"/>
<circle cx="583" cy="44" r="3" fill="#000000"/>
<circle cx="656" cy="44" r="3" fill="#0072B2"/>
<circle cx="656" cy="70" r="3" fill="#CC79A7"/>
<circle cx="656" cy="340" r="3" fill="#D55E00"/>
<circle cx="656" cy="290" r="3" fill="#009E73"/>
<circle cx="656" cy="284" r="3" fill="#56B4E9"/>
<circle cx="656" cy="215" r="3" fill="#E69F00"/>
<circle cx="656" cy="340" r="3" fill="#C44E52"/>
<circle cx="656" cy="44" r="3" fill="#000000"/>
<circle cx="730" cy="42" r="3" fill="#0072B2"/>
<circle cx="730" cy="70" r="3" fill="#CC79A7"/>
<circle cx="730" cy="340" r="3" fill="#D55E00"/>
<circle cx="730" cy="290" r="3" fill="#009E73"/>
<circle cx="730" cy="284" r="3" fill="#56B4E9"/>
<circle cx="730" cy="215" r="3" fill="#E69F00"/>
<circle cx="730" cy="340" r="3" fill="#C44E52"/>
<circle cx="730" cy="44" r="3" fill="#000000"/>
<circle cx="90" cy="20" r="4" fill="#0072B2"/>
<text x="98" y="24" text-anchor="start" font-size="12" fill="#0072B2">inte</text>
<circle cx="150" cy="20" r="4" fill="#CC79A7"/>
<text x="158" y="24" text-anchor="start" font-size="12" fill="#CC79A7">comp</text>
<circle cx="215" cy="20" r="4" fill="#D55E00"/>
<text x="223" y="24" text-anchor="start" font-size="12" fill="#D55E00">run</text>
<circle cx="270" cy="20" r="4" fill="#009E73"/>
<text x="278" y="24" text-anchor="start" font-size="12" fill="#009E73">wall</text>
<circle cx="335" cy="20" r="4" fill="#56B4E9"/>
<text x="343" y="24" text-anchor="start" font-size="12" fill="#56B4E9">mem-inte</text>
<circle cx="425" cy="20" r="4" fill="#E69F00"/>
<text x="433" y="24" text-anchor="start" font-size="12" fill="#E69F00">mem-comp</text>
<circle cx="520" cy="20" r="4" fill="#C44E52"/>
<text x="528" y="24" text-anchor="start" font-size="12" fill="#C44E52">mem-run</text>
<circle cx="605" cy="20" r="4" fill="#000000"/>
<text x="613" y="24" text-anchor="start" font-size="12" fill="#000000">mem-total</text>
</svg>
