<svg width="800" height="400" xmlns="http://www.w3.org/2000/svg">
<rect width="800" height="400" fill="white"/>
<line x1="70" y1="40" x2="70" y2="340" stroke="#333" stroke-width="1"/>
<line x1="70" y1="340" x2="730" y2="340" stroke="#333" stroke-width="1"/>
<line x1="730" y1="40" x2="730" y2="340" stroke="#333" stroke-width="1"/>
<text x="65" y="344" text-anchor="end" font-size="11" fill="#333">0</text>
<text x="65" y="194" text-anchor="end" font-size="11" fill="#333">201500</text>
<text x="65" y="44" text-anchor="end" font-size="11" fill="#333">403000</text>
<text x="15" y="190" text-anchor="middle" font-size="12" fill="#333" transform="rotate(-90 15 190)">ms</text>
<text x="735" y="344" text-anchor="start" font-size="11" fill="#333">0</text>
<text x="735" y="194" text-anchor="start" font-size="11" fill="#333">11396000000</text>
<text x="735" y="44" text-anchor="start" font-size="11" fill="#333">22792000000</text>
<text x="785" y="190" text-anchor="middle" font-size="12" fill="#333" transform="rotate(90 785 190)">bytes</text>
<polyline points="70,246 143,228 216,226 290,202 363,211 436,250 510,246 583,244 656,114 730,223" fill="none" stroke="#0072B2" stroke-width="2"/>
<polyline points="70,220 143,204 216,199 290,155 363,168 436,221 510,219 583,213 656,41 730,196" fill="none" stroke="#CC79A7" stroke-width="2"/>
<polyline points="70,340 143,340 216,340 290,340 363,340 436,340 510,340 583,340 656,339 730,340" fill="none" stroke="#D55E00" stroke-width="2"/>
<polyline points="70,314 143,310 216,310 290,299 363,305 436,315 510,314 583,314 656,280 730,309" fill="none" stroke="#009E73" stroke-width="2"/>
<polyline points="70,244 143,243 216,244 290,244 363,246 436,243 510,242 583,242 656,225 730,222" fill="none" stroke="#56B4E9" stroke-width="2"/>
<polyline points="70,239 143,240 216,240 290,239 363,239 436,240 510,239 583,238 656,218 730,217" fill="none" stroke="#E69F00" stroke-width="2"/>
<polyline points="70,339 143,339 216,339 290,338 363,338 436,339 510,339 583,339 656,338 730,339" fill="none" stroke="#C44E52" stroke-width="2"/>
<polyline points="70,92 143,95 216,96 290,91 363,95 436,92 510,96 583,90 656,41 730,48" fill="none" stroke="#000000" stroke-width="2"/>
<circle cx="70" cy="246" r="3" fill="#0072B2"/>
<circle cx="70" cy="220" r="3" fill="#CC79A7"/>
<circle cx="70" cy="340" r="3" fill="#D55E00"/>
<circle cx="70" cy="314" r="3" fill="#009E73"/>
<circle cx="70" cy="244" r="3" fill="#56B4E9"/>
<circle cx="70" cy="239" r="3" fill="#E69F00"/>
<circle cx="70" cy="339" r="3" fill="#C44E52"/>
<circle cx="70" cy="92" r="3" fill="#000000"/>
<circle cx="143" cy="228" r="3" fill="#0072B2"/>
<circle cx="143" cy="204" r="3" fill="#CC79A7"/>
<circle cx="143" cy="340" r="3" fill="#D55E00"/>
<circle cx="143" cy="310" r="3" fill="#009E73"/>
<circle cx="143" cy="243" r="3" fill="#56B4E9"/>
<circle cx="143" cy="240" r="3" fill="#E69F00"/>
<circle cx="143" cy="339" r="3" fill="#C44E52"/>
<circle cx="143" cy="95" r="3" fill="#000000"/>
<circle cx="216" cy="226" r="3" fill="#0072B2"/>
<circle cx="216" cy="199" r="3" fill="#CC79A7"/>
<circle cx="216" cy="340" r="3" fill="#D55E00"/>
<circle cx="216" cy="310" r="3" fill="#009E73"/>
<circle cx="216" cy="244" r="3" fill="#56B4E9"/>
<circle cx="216" cy="240" r="3" fill="#E69F00"/>
<circle cx="216" cy="339" r="3" fill="#C44E52"/>
<circle cx="216" cy="96" r="3" fill="#000000"/>
<circle cx="290" cy="202" r="3" fill="#0072B2"/>
<circle cx="290" cy="155" r="3" fill="#CC79A7"/>
<circle cx="290" cy="340" r="3" fill="#D55E00"/>
<circle cx="290" cy="299" r="3" fill="#009E73"/>
<circle cx="290" cy="244" r="3" fill="#56B4E9"/>
<circle cx="290" cy="239" r="3" fill="#E69F00"/>
<circle cx="290" cy="338" r="3" fill="#C44E52"/>
<circle cx="290" cy="91" r="3" fill="#000000"/>
<circle cx="363" cy="211" r="3" fill="#0072B2"/>
<circle cx="363" cy="168" r="3" fill="#CC79A7"/>
<circle cx="363" cy="340" r="3" fill="#D55E00"/>
<circle cx="363" cy="305" r="3" fill="#009E73"/>
<circle cx="363" cy="246" r="3" fill="#56B4E9"/>
<circle cx="363" cy="239" r="3" fill="#E69F00"/>
<circle cx="363" cy="338" r="3" fill="#C44E52"/>
<circle cx="363" cy="95" r="3" fill="#000000"/>
<circle cx="436" cy="250" r="3" fill="#0072B2"/>
<circle cx="436" cy="221" r="3" fill="#CC79A7"/>
<circle cx="436" cy="340" r="3" fill="#D55E00"/>
<circle cx="436" cy="315" r="3" fill="#009E73"/>
<circle cx="436" cy="243" r="3" fill="#56B4E9"/>
<circle cx="436" cy="240" r="3" fill="#E69F00"/>
<circle cx="436" cy="339" r="3" fill="#C44E52"/>
<circle cx="436" cy="92" r="3" fill="#000000"/>
<circle cx="510" cy="246" r="3" fill="#0072B2"/>
<circle cx="510" cy="219" r="3" fill="#CC79A7"/>
<circle cx="510" cy="340" r="3" fill="#D55E00"/>
<circle cx="510" cy="314" r="3" fill="#009E73"/>
<circle cx="510" cy="242" r="3" fill="#56B4E9"/>
<circle cx="510" cy="239" r="3" fill="#E69F00"/>
<circle cx="510" cy="339" r="3" fill="#C44E52"/>
<circle cx="510" cy="96" r="3" fill="#000000"/>
<circle cx="583" cy="244" r="3" fill="#0072B2"/>
<circle cx="583" cy="213" r="3" fill="#CC79A7"/>
<circle cx="583" cy="340" r="3" fill="#D55E00"/>
<circle cx="583" cy="314" r="3" fill="#009E73"/>
<circle cx="583" cy="242" r="3" fill="#56B4E9"/>
<circle cx="583" cy="238" r="3" fill="#E69F00"/>
<circle cx="583" cy="339" r="3" fill="#C44E52"/>
<circle cx="583" cy="90" r="3" fill="#000000"/>
<circle cx="656" cy="114" r="3" fill="#0072B2"/>
<circle cx="656" cy="41" r="3" fill="#CC79A7"/>
<circle cx="656" cy="339" r="3" fill="#D55E00"/>
<circle cx="656" cy="280" r="3" fill="#009E73"/>
<circle cx="656" cy="225" r="3" fill="#56B4E9"/>
<circle cx="656" cy="218" r="3" fill="#E69F00"/>
<circle cx="656" cy="338" r="3" fill="#C44E52"/>
<circle cx="656" cy="41" r="3" fill="#000000"/>
<circle cx="730" cy="223" r="3" fill="#0072B2"/>
<circle cx="730" cy="196" r="3" fill="#CC79A7"/>
<circle cx="730" cy="340" r="3" fill="#D55E00"/>
<circle cx="730" cy="309" r="3" fill="#009E73"/>
<circle cx="730" cy="222" r="3" fill="#56B4E9"/>
<circle cx="730" cy="217" r="3" fill="#E69F00"/>
<circle cx="730" cy="339" r="3" fill="#C44E52"/>
<circle cx="730" cy="48" r="3" fill="#000000"/>
<circle cx="90" cy="20" r="4" fill="#0072B2"/>
<text x="98" y="24" text-anchor="start" font-size="12" fill="#0072B2">inte</text>
<circle cx="150" cy="20" r="4" fill="#CC79A7"/>
<text x="158" y="24" text-anchor="start" font-size="12" fill="#CC79A7">comp</text>
<circle cx="215" cy="20" r="4" fill="#D55E00"/>
<text x="223" y="24" text-anchor="start" font-size="12" fill="#D55E00">run</text>
<circle cx="270" cy="20" r="4" fill="#009E73"/>
<text x="278" y="24" text-anchor="start" font-size="12" fill="#009E73">wall</text>
<circle cx="335" cy="20" r="4" fill="#56B4E9"/>
<text x="343" y="24" text-anchor="start" font-size="12" fill="#56B4E9">mem-inte</text>
<circle cx="425" cy="20" r="4" fill="#E69F00"/>
<text x="433" y="24" text-anchor="start" font-size="12" fill="#E69F00">mem-comp</text>
<circle cx="520" cy="20" r="4" fill="#C44E52"/>
<text x="528" y="24" text-anchor="start" font-size="12" fill="#C44E52">mem-run</text>
<circle cx="605" cy="20" r="4" fill="#000000"/>
<text x="613" y="24" text-anchor="start" font-size="12" fill="#000000">mem-total</text>
</svg>
