<svg width="800" height="400" xmlns="http://www.w3.org/2000/svg">
<rect width="800" height="400" fill="white"/>
<line x1="70" y1="40" x2="70" y2="340" stroke="#333" stroke-width="1"/>
<line x1="70" y1="340" x2="730" y2="340" stroke="#333" stroke-width="1"/>
<line x1="730" y1="40" x2="730" y2="340" stroke="#333" stroke-width="1"/>
<text x="65" y="344" text-anchor="end" font-size="11" fill="#333">0</text>
<text x="65" y="194" text-anchor="end" font-size="11" fill="#333">133500</text>
<text x="65" y="44" text-anchor="end" font-size="11" fill="#333">267000</text>
<text x="15" y="190" text-anchor="middle" font-size="12" fill="#333" transform="rotate(-90 15 190)">ms</text>
<text x="735" y="344" text-anchor="start" font-size="11" fill="#333">0</text>
<text x="735" y="194" text-anchor="start" font-size="11" fill="#333">8859000000</text>
<text x="735" y="44" text-anchor="start" font-size="11" fill="#333">17718000000</text>
<text x="785" y="190" text-anchor="middle" font-size="12" fill="#333" transform="rotate(90 785 190)">bytes</text>
<polyline points="70,52 143,53 216,53 290,57 363,55 436,54 510,51 583,44 656,41 730,45" fill="none" stroke="#0072B2" stroke-width="2"/>
<polyline points="70,78 143,78 216,75 290,80 363,79 436,81 510,80 583,70 656,71 730,71" fill="none" stroke="#CC79A7" stroke-width="2"/>
<polyline points="70,340 143,340 216,340 290,340 363,340 436,340 510,340 583,340 656,340 730,340" fill="none" stroke="#D55E00" stroke-width="2"/>
<polyline points="70,292 143,291 216,291 290,293 363,292 436,291 510,290 583,290 656,290 730,291" fill="none" stroke="#009E73" stroke-width="2"/>
<polyline points="70,283 143,283 216,283 290,282 363,283 436,282 510,282 583,281 656,281 730,281" fill="none" stroke="#56B4E9" stroke-width="2"/>
<polyline points="70,214 143,214 216,214 290,214 363,214 436,214 510,214 583,213 656,213 730,213" fill="none" stroke="#E69F00" stroke-width="2"/>
<polyline points="70,340 143,340 216,340 290,340 363,340 436,340 510,340 583,340 656,340 730,340" fill="none" stroke="#C44E52" stroke-width="2"/>
<polyline points="70,45 143,42 216,45 290,41 363,43 436,44 510,41 583,41 656,41 730,41" fill="none" stroke="#000000" stroke-width="2"/>
<circle cx="70" cy="52" r="3" fill="#0072B2"/>
<circle cx="70" cy="78" r="3" fill="#CC79A7"/>
<circle cx="70" cy="340" r="3" fill="#D55E00"/>
<circle cx="70" cy="292" r="3" fill="#009E73"/>
<circle cx="70" cy="283" r="3" fill="#56B4E9"/>
<circle cx="70" cy="214" r="3" fill="#E69F00"/>
<circle cx="70" cy="340" r="3" fill="#C44E52"/>
<circle cx="70" cy="45" r="3" fill="#000000"/>
<circle cx="143" cy="53" r="3" fill="#0072B2"/>
<circle cx="143" cy="78" r="3" fill="#CC79A7"/>
<circle cx="143" cy="340" r="3" fill="#D55E00"/>
<circle cx="143" cy="291" r="3" fill="#009E73"/>
<circle cx="143" cy="283" r="3" fill="#56B4E9"/>
<circle cx="143" cy="214" r="3" fill="#E69F00"/>
<circle cx="143" cy="340" r="3" fill="#C44E52"/>
<circle cx="143" cy="42" r="3" fill="#000000"/>
<circle cx="216" cy="53" r="3" fill="#0072B2"/>
<circle cx="216" cy="75" r="3" fill="#CC79A7"/>
<circle cx="216" cy="340" r="3" fill="#D55E00"/>
<circle cx="216" cy="291" r="3" fill="#009E73"/>
<circle cx="216" cy="283" r="3" fill="#56B4E9"/>
<circle cx="216" cy="214" r="3" fill="#E69F00"/>
<circle cx="216" cy="340" r="3" fill="#C44E52"/>
<circle cx="216" cy="45" r="3" fill="#000000"/>
<circle cx="290" cy="57" r="3" fill="#0072B2"/>
<circle cx="290" cy="80" r="3" fill="#CC79A7"/>
<circle cx="290" cy="340" r="3" fill="#D55E00"/>
<circle cx="290" cy="293" r="3" fill="#009E73"/>
<circle cx="290" cy="282" r="3" fill="#56B4E9"/>
<circle cx="290" cy="214" r="3" fill="#E69F00"/>
<circle cx="290" cy="340" r="3" fill="#C44E52"/>
<circle cx="290" cy="41" r="3" fill="#000000"/>
<circle cx="363" cy="55" r="3" fill="#0072B2"/>
<circle cx="363" cy="79" r="3" fill="#CC79A7"/>
<circle cx="363" cy="340" r="3" fill="#D55E00"/>
<circle cx="363" cy="292" r="3" fill="#009E73"/>
<circle cx="363" cy="283" r="3" fill="#56B4E9"/>
<circle cx="363" cy="214" r="3" fill="#E69F00"/>
<circle cx="363" cy="340" r="3" fill="#C44E52"/>
<circle cx="363" cy="43" r="3" fill="#000000"/>
<circle cx="436" cy="54" r="3" fill="#0072B2"/>
<circle cx="436" cy="81" r="3" fill="#CC79A7"/>
<circle cx="436" cy="340" r="3" fill="#D55E00"/>
<circle cx="436" cy="291" r="3" fill="#009E73"/>
<circle cx="436" cy="282" r="3" fill="#56B4E9"/>
<circle cx="436" cy="214" r="3" fill="#E69F00"/>
<circle cx="436" cy="340" r="3" fill="#C44E52"/>
<circle cx="436" cy="44" r="3" fill="#000000"/>
<circle cx="510" cy="51" r="3" fill="#0072B2"/>
<circle cx="510" cy="80" r="3" fill="#CC79A7"/>
<circle cx="510" cy="340" r="3" fill="#D55E00"/>
<circle cx="510" cy="290" r="3" fill="#009E73"/>
<circle cx="510" cy="282" r="3" fill="#56B4E9"/>
<circle cx="510" cy="214" r="3" fill="#E69F00"/>
<circle cx="510" cy="340" r="3" fill="#C44E52"/>
<circle cx="510" cy="41" r="3" fill="#000000"/>
<circle cx="583" cy="44" r="3" fill="#0072B2"/>
<circle cx="583" cy="70" r="3" fill="#CC79A7"/>
<circle cx="583" cy="340" r="3" fill="#D55E00"/>
<circle cx="583" cy="290" r="3" fill="#009E73"/>
<circle cx="583" cy="281" r="3" fill="#56B4E9"/>
<circle cx="583" cy="213" r="3" fill="#E69F00"/>
<circle cx="583" cy="340" r="3" fill="#C44E52"/>
<circle cx="583" cy="41" r="3" fill="#000000"/>
<circle cx="656" cy="41" r="3" fill="#0072B2"/>
<circle cx="656" cy="71" r="3" fill="#CC79A7"/>
<circle cx="656" cy="340" r="3" fill="#D55E00"/>
<circle cx="656" cy="290" r="3" fill="#009E73"/>
<circle cx="656" cy="281" r="3" fill="#56B4E9"/>
<circle cx="656" cy="213" r="3" fill="#E69F00"/>
<circle cx="656" cy="340" r="3" fill="#C44E52"/>
<circle cx="656" cy="41" r="3" fill="#000000"/>
<circle cx="730" cy="45" r="3" fill="#0072B2"/>
<circle cx="730" cy="71" r="3" fill="#CC79A7"/>
<circle cx="730" cy="340" r="3" fill="#D55E00"/>
<circle cx="730" cy="291" r="3" fill="#009E73"/>
<circle cx="730" cy="281" r="3" fill="#56B4E9"/>
<circle cx="730" cy="213" r="3" fill="#E69F00"/>
<circle cx="730" cy="340" r="3" fill="#C44E52"/>
<circle cx="730" cy="41" r="3" fill="#000000"/>
<circle cx="90" cy="20" r="4" fill="#0072B2"/>
<text x="98" y="24" text-anchor="start" font-size="12" fill="#0072B2">inte</text>
<circle cx="150" cy="20" r="4" fill="#CC79A7"/>
<text x="158" y="24" text-anchor="start" font-size="12" fill="#CC79A7">comp</text>
<circle cx="215" cy="20" r="4" fill="#D55E00"/>
<text x="223" y="24" text-anchor="start" font-size="12" fill="#D55E00">run</text>
<circle cx="270" cy="20" r="4" fill="#009E73"/>
<text x="278" y="24" text-anchor="start" font-size="12" fill="#009E73">wall</text>
<circle cx="335" cy="20" r="4" fill="#56B4E9"/>
<text x="343" y="24" text-anchor="start" font-size="12" fill="#56B4E9">mem-inte</text>
<circle cx="425" cy="20" r="4" fill="#E69F00"/>
<text x="433" y="24" text-anchor="start" font-size="12" fill="#E69F00">mem-comp</text>
<circle cx="520" cy="20" r="4" fill="#C44E52"/>
<text x="528" y="24" text-anchor="start" font-size="12" fill="#C44E52">mem-run</text>
<circle cx="605" cy="20" r="4" fill="#000000"/>
<text x="613" y="24" text-anchor="start" font-size="12" fill="#000000">mem-total</text>
</svg>
