<svg width="800" height="400" xmlns="http://www.w3.org/2000/svg">
<rect width="800" height="400" fill="white"/>
<line x1="70" y1="40" x2="70" y2="340" stroke="#333" stroke-width="1"/>
<line x1="70" y1="340" x2="780" y2="340" stroke="#333" stroke-width="1"/>
<text x="65" y="344" text-anchor="end" font-size="11" fill="#333">0</text>
<text x="65" y="194" text-anchor="end" font-size="11" fill="#333">53000</text>
<text x="65" y="44" text-anchor="end" font-size="11" fill="#333">106000</text>
<text x="15" y="190" text-anchor="middle" font-size="12" fill="#333" transform="rotate(-90 15 190)">ms</text>
<polyline points="70,43 148,51 227,47 306,49 385,57 464,58 543,55 622,59 701,57 780,55" fill="none" stroke="#0072B2" stroke-width="2"/>
<polyline points="70,42 148,56 227,49 306,53 385,60 464,57 543,56 622,57 701,56 780,54" fill="none" stroke="#CC79A7" stroke-width="2"/>
<polyline points="70,336 148,336 227,336 306,336 385,336 464,336 543,336 622,336 701,336 780,336" fill="none" stroke="#D55E00" stroke-width="2"/>
<polyline points="70,298 148,300 227,298 306,299 385,300 464,300 543,299 622,300 701,300 780,300" fill="none" stroke="#009E73" stroke-width="2"/>
<circle cx="70" cy="43" r="3" fill="#0072B2"/>
<circle cx="70" cy="42" r="3" fill="#CC79A7"/>
<circle cx="70" cy="336" r="3" fill="#D55E00"/>
<circle cx="70" cy="298" r="3" fill="#009E73"/>
<circle cx="148" cy="51" r="3" fill="#0072B2"/>
<circle cx="148" cy="56" r="3" fill="#CC79A7"/>
<circle cx="148" cy="336" r="3" fill="#D55E00"/>
<circle cx="148" cy="300" r="3" fill="#009E73"/>
<circle cx="227" cy="47" r="3" fill="#0072B2"/>
<circle cx="227" cy="49" r="3" fill="#CC79A7"/>
<circle cx="227" cy="336" r="3" fill="#D55E00"/>
<circle cx="227" cy="298" r="3" fill="#009E73"/>
<circle cx="306" cy="49" r="3" fill="#0072B2"/>
<circle cx="306" cy="53" r="3" fill="#CC79A7"/>
<circle cx="306" cy="336" r="3" fill="#D55E00"/>
<circle cx="306" cy="299" r="3" fill="#009E73"/>
<circle cx="385" cy="57" r="3" fill="#0072B2"/>
<circle cx="385" cy="60" r="3" fill="#CC79A7"/>
<circle cx="385" cy="336" r="3" fill="#D55E00"/>
<circle cx="385" cy="300" r="3" fill="#009E73"/>
<circle cx="464" cy="58" r="3" fill="#0072B2"/>
<circle cx="464" cy="57" r="3" fill="#CC79A7"/>
<circle cx="464" cy="336" r="3" fill="#D55E00"/>
<circle cx="464" cy="300" r="3" fill="#009E73"/>
<circle cx="543" cy="55" r="3" fill="#0072B2"/>
<circle cx="543" cy="56" r="3" fill="#CC79A7"/>
<circle cx="543" cy="336" r="3" fill="#D55E00"/>
<circle cx="543" cy="299" r="3" fill="#009E73"/>
<circle cx="622" cy="59" r="3" fill="#0072B2"/>
<circle cx="622" cy="57" r="3" fill="#CC79A7"/>
<circle cx="622" cy="336" r="3" fill="#D55E00"/>
<circle cx="622" cy="300" r="3" fill="#009E73"/>
<circle cx="701" cy="57" r="3" fill="#0072B2"/>
<circle cx="701" cy="56" r="3" fill="#CC79A7"/>
<circle cx="701" cy="336" r="3" fill="#D55E00"/>
<circle cx="701" cy="300" r="3" fill="#009E73"/>
<circle cx="780" cy="55" r="3" fill="#0072B2"/>
<circle cx="780" cy="54" r="3" fill="#CC79A7"/>
<circle cx="780" cy="336" r="3" fill="#D55E00"/>
<circle cx="780" cy="300" r="3" fill="#009E73"/>
<circle cx="90" cy="20" r="4" fill="#0072B2"/>
<text x="98" y="24" text-anchor="start" font-size="12" fill="#0072B2">interpreted</text>
<circle cx="190" cy="20" r="4" fill="#CC79A7"/>
<text x="198" y="24" text-anchor="start" font-size="12" fill="#CC79A7">compiled</text>
<circle cx="275" cy="20" r="4" fill="#D55E00"/>
<text x="283" y="24" text-anchor="start" font-size="12" fill="#D55E00">executed</text>
<circle cx="355" cy="20" r="4" fill="#009E73"/>
<text x="363" y="24" text-anchor="start" font-size="12" fill="#009E73">wall</text>
</svg>
