<svg width="800" height="400" xmlns="http://www.w3.org/2000/svg">
<rect width="800" height="400" fill="white"/>
<line x1="70" y1="40" x2="70" y2="340" stroke="#333" stroke-width="1"/>
<line x1="70" y1="340" x2="730" y2="340" stroke="#333" stroke-width="1"/>
<line x1="730" y1="40" x2="730" y2="340" stroke="#333" stroke-width="1"/>
<text x="65" y="344" text-anchor="end" font-size="11" fill="#333">0</text>
<text x="65" y="194" text-anchor="end" font-size="11" fill="#333">150000</text>
<text x="65" y="44" text-anchor="end" font-size="11" fill="#333">300000</text>
<text x="15" y="190" text-anchor="middle" font-size="12" fill="#333" transform="rotate(-90 15 190)">ms</text>
<text x="735" y="344" text-anchor="start" font-size="11" fill="#333">0</text>
<text x="735" y="194" text-anchor="start" font-size="11" fill="#333">10458000000</text>
<text x="735" y="44" text-anchor="start" font-size="11" fill="#333">20916000000</text>
<text x="785" y="190" text-anchor="middle" font-size="12" fill="#333" transform="rotate(90 785 190)">bytes</text>
<polyline points="70,105 143,104 216,103 290,103 363,136 436,137 510,133 583,136 656,136 730,126" fill="none" stroke="#0072B2" stroke-width="2"/>
<polyline points="70,45 143,41 216,41 290,44 363,75 436,73 510,72 583,75 656,75 730,67" fill="none" stroke="#CC79A7" stroke-width="2"/>
<polyline points="70,340 143,340 216,340 290,340 363,340 436,340 510,340 583,340 656,340 730,340" fill="none" stroke="#D55E00" stroke-width="2"/>
<polyline points="70,304 143,305 216,304 290,304 363,308 436,309 510,309 583,308 656,307 730,306" fill="none" stroke="#009E73" stroke-width="2"/>
<polyline points="70,299 143,299 216,299 290,298 363,298 436,298 510,298 583,298 656,298 730,299" fill="none" stroke="#56B4E9" stroke-width="2"/>
<polyline points="70,185 143,185 216,185 290,185 363,187 436,187 510,187 583,187 656,187 730,187" fill="none" stroke="#E69F00" stroke-width="2"/>
<polyline points="70,337 143,338 216,338 290,338 363,339 436,339 510,338 583,338 656,338 730,339" fill="none" stroke="#C44E52" stroke-width="2"/>
<polyline points="70,41 143,42 216,41 290,41 363,44 436,43 510,42 583,43 656,43 730,43" fill="none" stroke="#000000" stroke-width="2"/>
<circle cx="70" cy="105" r="3" fill="#0072B2"/>
<circle cx="70" cy="45" r="3" fill="#CC79A7"/>
<circle cx="70" cy="340" r="3" fill="#D55E00"/>
<circle cx="70" cy="304" r="3" fill="#009E73"/>
<circle cx="70" cy="299" r="3" fill="#56B4E9"/>
<circle cx="70" cy="185" r="3" fill="#E69F00"/>
<circle cx="70" cy="337" r="3" fill="#C44E52"/>
<circle cx="70" cy="41" r="3" fill="#000000"/>
<circle cx="143" cy="104" r="3" fill="#0072B2"/>
<circle cx="143" cy="41" r="3" fill="#CC79A7"/>
<circle cx="143" cy="340" r="3" fill="#D55E00"/>
<circle cx="143" cy="305" r="3" fill="#009E73"/>
<circle cx="143" cy="299" r="3" fill="#56B4E9"/>
<circle cx="143" cy="185" r="3" fill="#E69F00"/>
<circle cx="143" cy="338" r="3" fill="#C44E52"/>
<circle cx="143" cy="42" r="3" fill="#000000"/>
<circle cx="216" cy="103" r="3" fill="#0072B2"/>
<circle cx="216" cy="41" r="3" fill="#CC79A7"/>
<circle cx="216" cy="340" r="3" fill="#D55E00"/>
<circle cx="216" cy="304" r="3" fill="#009E73"/>
<circle cx="216" cy="299" r="3" fill="#56B4E9"/>
<circle cx="216" cy="185" r="3" fill="#E69F00"/>
<circle cx="216" cy="338" r="3" fill="#C44E52"/>
<circle cx="216" cy="41" r="3" fill="#000000"/>
<circle cx="290" cy="103" r="3" fill="#0072B2"/>
<circle cx="290" cy="44" r="3" fill="#CC79A7"/>
<circle cx="290" cy="340" r="3" fill="#D55E00"/>
<circle cx="290" cy="304" r="3" fill="#009E73"/>
<circle cx="290" cy="298" r="3" fill="#56B4E9"/>
<circle cx="290" cy="185" r="3" fill="#E69F00"/>
<circle cx="290" cy="338" r="3" fill="#C44E52"/>
<circle cx="290" cy="41" r="3" fill="#000000"/>
<circle cx="363" cy="136" r="3" fill="#0072B2"/>
<circle cx="363" cy="75" r="3" fill="#CC79A7"/>
<circle cx="363" cy="340" r="3" fill="#D55E00"/>
<circle cx="363" cy="308" r="3" fill="#009E73"/>
<circle cx="363" cy="298" r="3" fill="#56B4E9"/>
<circle cx="363" cy="187" r="3" fill="#E69F00"/>
<circle cx="363" cy="339" r="3" fill="#C44E52"/>
<circle cx="363" cy="44" r="3" fill="#000000"/>
<circle cx="436" cy="137" r="3" fill="#0072B2"/>
<circle cx="436" cy="73" r="3" fill="#CC79A7"/>
<circle cx="436" cy="340" r="3" fill="#D55E00"/>
<circle cx="436" cy="309" r="3" fill="#009E73"/>
<circle cx="436" cy="298" r="3" fill="#56B4E9"/>
<circle cx="436" cy="187" r="3" fill="#E69F00"/>
<circle cx="436" cy="339" r="3" fill="#C44E52"/>
<circle cx="436" cy="43" r="3" fill="#000000"/>
<circle cx="510" cy="133" r="3" fill="#0072B2"/>
<circle cx="510" cy="72" r="3" fill="#CC79A7"/>
<circle cx="510" cy="340" r="3" fill="#D55E00"/>
<circle cx="510" cy="309" r="3" fill="#009E73"/>
<circle cx="510" cy="298" r="3" fill="#56B4E9"/>
<circle cx="510" cy="187" r="3" fill="#E69F00"/>
<circle cx="510" cy="338" r="3" fill="#C44E52"/>
<circle cx="510" cy="42" r="3" fill="#000000"/>
<circle cx="583" cy="136" r="3" fill="#0072B2"/>
<circle cx="583" cy="75" r="3" fill="#CC79A7"/>
<circle cx="583" cy="340" r="3" fill="#D55E00"/>
<circle cx="583" cy="308" r="3" fill="#009E73"/>
<circle cx="583" cy="298" r="3" fill="#56B4E9"/>
<circle cx="583" cy="187" r="3" fill="#E69F00"/>
<circle cx="583" cy="338" r="3" fill="#C44E52"/>
<circle cx="583" cy="43" r="3" fill="#000000"/>
<circle cx="656" cy="136" r="3" fill="#0072B2"/>
<circle cx="656" cy="75" r="3" fill="#CC79A7"/>
<circle cx="656" cy="340" r="3" fill="#D55E00"/>
<circle cx="656" cy="307" r="3" fill="#009E73"/>
<circle cx="656" cy="298" r="3" fill="#56B4E9"/>
<circle cx="656" cy="187" r="3" fill="#E69F00"/>
<circle cx="656" cy="338" r="3" fill="#C44E52"/>
<circle cx="656" cy="43" r="3" fill="#000000"/>
<circle cx="730" cy="126" r="3" fill="#0072B2"/>
<circle cx="730" cy="67" r="3" fill="#CC79A7"/>
<circle cx="730" cy="340" r="3" fill="#D55E00"/>
<circle cx="730" cy="306" r="3" fill="#009E73"/>
<circle cx="730" cy="299" r="3" fill="#56B4E9"/>
<circle cx="730" cy="187" r="3" fill="#E69F00"/>
<circle cx="730" cy="339" r="3" fill="#C44E52"/>
<circle cx="730" cy="43" r="3" fill="#000000"/>
<circle cx="90" cy="20" r="4" fill="#0072B2"/>
<text x="98" y="24" text-anchor="start" font-size="12" fill="#0072B2">inte</text>
<circle cx="150" cy="20" r="4" fill="#CC79A7"/>
<text x="158" y="24" text-anchor="start" font-size="12" fill="#CC79A7">comp</text>
<circle cx="215" cy="20" r="4" fill="#D55E00"/>
<text x="223" y="24" text-anchor="start" font-size="12" fill="#D55E00">run</text>
<circle cx="270" cy="20" r="4" fill="#009E73"/>
<text x="278" y="24" text-anchor="start" font-size="12" fill="#009E73">wall</text>
<circle cx="335" cy="20" r="4" fill="#56B4E9"/>
<text x="343" y="24" text-anchor="start" font-size="12" fill="#56B4E9">mem-inte</text>
<circle cx="425" cy="20" r="4" fill="#E69F00"/>
<text x="433" y="24" text-anchor="start" font-size="12" fill="#E69F00">mem-comp</text>
<circle cx="520" cy="20" r="4" fill="#C44E52"/>
<text x="528" y="24" text-anchor="start" font-size="12" fill="#C44E52">mem-run</text>
<circle cx="605" cy="20" r="4" fill="#000000"/>
<text x="613" y="24" text-anchor="start" font-size="12" fill="#000000">mem-total</text>
</svg>
