<svg width="800" height="400" xmlns="http://www.w3.org/2000/svg">
<rect width="800" height="400" fill="white"/>
<line x1="70" y1="40" x2="70" y2="340" stroke="#333" stroke-width="1"/>
<line x1="70" y1="340" x2="730" y2="340" stroke="#333" stroke-width="1"/>
<line x1="730" y1="40" x2="730" y2="340" stroke="#333" stroke-width="1"/>
<text x="65" y="344" text-anchor="end" font-size="11" fill="#333">0</text>
<text x="65" y="194" text-anchor="end" font-size="11" fill="#333">481000</text>
<text x="65" y="44" text-anchor="end" font-size="11" fill="#333">962000</text>
<text x="15" y="190" text-anchor="middle" font-size="12" fill="#333" transform="rotate(-90 15 190)">ms</text>
<text x="735" y="344" text-anchor="start" font-size="11" fill="#333">0</text>
<text x="735" y="194" text-anchor="start" font-size="11" fill="#333">61154000000</text>
<text x="735" y="44" text-anchor="start" font-size="11" fill="#333">122308000000</text>
<text x="785" y="190" text-anchor="middle" font-size="12" fill="#333" transform="rotate(90 785 190)">bytes</text>
<polyline points="70,79 143,172 216,176 290,171 363,175 436,175 510,175 583,176 656,174 730,173" fill="none" stroke="#0072B2" stroke-width="2"/>
<polyline points="70,41 143,142 216,144 290,141 363,139 436,141 510,139 583,139 656,140 730,142" fill="none" stroke="#CC79A7" stroke-width="2"/>
<polyline points="70,340 143,340 216,340 290,340 363,340 436,340 510,340 583,340 656,340 730,340" fill="none" stroke="#D55E00" stroke-width="2"/>
<polyline points="70,304 143,317 216,317 290,317 363,317 436,317 510,317 583,317 656,317 730,317" fill="none" stroke="#009E73" stroke-width="2"/>
<polyline points="70,169 143,252 216,252 290,250 363,251 436,251 510,250 583,250 656,251 730,250" fill="none" stroke="#984EA3" stroke-width="2"/>
<polyline points="70,49 143,86 216,86 290,85 363,85 436,86 510,85 583,86 656,86 730,86" fill="none" stroke="#56B4E9" stroke-width="2"/>
<polyline points="70,41 143,79 216,78 290,78 363,78 436,78 510,79 583,78 656,79 730,79" fill="none" stroke="#E69F00" stroke-width="2"/>
<polyline points="70,339 143,339 216,339 290,339 363,338 436,338 510,339 583,339 656,339 730,339" fill="none" stroke="#C44E52" stroke-width="2"/>
<polyline points="70,293 143,305 216,305 290,305 363,305 436,305 510,306 583,306 656,306 730,305" fill="none" stroke="#8C564B" stroke-width="2"/>
<circle cx="70" cy="79" r="3" fill="#0072B2"/>
<circle cx="70" cy="41" r="3" fill="#CC79A7"/>
<circle cx="70" cy="340" r="3" fill="#D55E00"/>
<circle cx="70" cy="304" r="3" fill="#009E73"/>
<circle cx="70" cy="169" r="3" fill="#984EA3"/>
<circle cx="70" cy="49" r="3" fill="#56B4E9"/>
<circle cx="70" cy="41" r="3" fill="#E69F00"/>
<circle cx="70" cy="339" r="3" fill="#C44E52"/>
<circle cx="70" cy="293" r="3" fill="#8C564B"/>
<circle cx="143" cy="172" r="3" fill="#0072B2"/>
<circle cx="143" cy="142" r="3" fill="#CC79A7"/>
<circle cx="143" cy="340" r="3" fill="#D55E00"/>
<circle cx="143" cy="317" r="3" fill="#009E73"/>
<circle cx="143" cy="252" r="3" fill="#984EA3"/>
<circle cx="143" cy="86" r="3" fill="#56B4E9"/>
<circle cx="143" cy="79" r="3" fill="#E69F00"/>
<circle cx="143" cy="339" r="3" fill="#C44E52"/>
<circle cx="143" cy="305" r="3" fill="#8C564B"/>
<circle cx="216" cy="176" r="3" fill="#0072B2"/>
<circle cx="216" cy="144" r="3" fill="#CC79A7"/>
<circle cx="216" cy="340" r="3" fill="#D55E00"/>
<circle cx="216" cy="317" r="3" fill="#009E73"/>
<circle cx="216" cy="252" r="3" fill="#984EA3"/>
<circle cx="216" cy="86" r="3" fill="#56B4E9"/>
<circle cx="216" cy="78" r="3" fill="#E69F00"/>
<circle cx="216" cy="339" r="3" fill="#C44E52"/>
<circle cx="216" cy="305" r="3" fill="#8C564B"/>
<circle cx="290" cy="171" r="3" fill="#0072B2"/>
<circle cx="290" cy="141" r="3" fill="#CC79A7"/>
<circle cx="290" cy="340" r="3" fill="#D55E00"/>
<circle cx="290" cy="317" r="3" fill="#009E73"/>
<circle cx="290" cy="250" r="3" fill="#984EA3"/>
<circle cx="290" cy="85" r="3" fill="#56B4E9"/>
<circle cx="290" cy="78" r="3" fill="#E69F00"/>
<circle cx="290" cy="339" r="3" fill="#C44E52"/>
<circle cx="290" cy="305" r="3" fill="#8C564B"/>
<circle cx="363" cy="175" r="3" fill="#0072B2"/>
<circle cx="363" cy="139" r="3" fill="#CC79A7"/>
<circle cx="363" cy="340" r="3" fill="#D55E00"/>
<circle cx="363" cy="317" r="3" fill="#009E73"/>
<circle cx="363" cy="251" r="3" fill="#984EA3"/>
<circle cx="363" cy="85" r="3" fill="#56B4E9"/>
<circle cx="363" cy="78" r="3" fill="#E69F00"/>
<circle cx="363" cy="338" r="3" fill="#C44E52"/>
<circle cx="363" cy="305" r="3" fill="#8C564B"/>
<circle cx="436" cy="175" r="3" fill="#0072B2"/>
<circle cx="436" cy="141" r="3" fill="#CC79A7"/>
<circle cx="436" cy="340" r="3" fill="#D55E00"/>
<circle cx="436" cy="317" r="3" fill="#009E73"/>
<circle cx="436" cy="251" r="3" fill="#984EA3"/>
<circle cx="436" cy="86" r="3" fill="#56B4E9"/>
<circle cx="436" cy="78" r="3" fill="#E69F00"/>
<circle cx="436" cy="338" r="3" fill="#C44E52"/>
<circle cx="436" cy="305" r="3" fill="#8C564B"/>
<circle cx="510" cy="175" r="3" fill="#0072B2"/>
<circle cx="510" cy="139" r="3" fill="#CC79A7"/>
<circle cx="510" cy="340" r="3" fill="#D55E00"/>
<circle cx="510" cy="317" r="3" fill="#009E73"/>
<circle cx="510" cy="250" r="3" fill="#984EA3"/>
<circle cx="510" cy="85" r="3" fill="#56B4E9"/>
<circle cx="510" cy="79" r="3" fill="#E69F00"/>
<circle cx="510" cy="339" r="3" fill="#C44E52"/>
<circle cx="510" cy="306" r="3" fill="#8C564B"/>
<circle cx="583" cy="176" r="3" fill="#0072B2"/>
<circle cx="583" cy="139" r="3" fill="#CC79A7"/>
<circle cx="583" cy="340" r="3" fill="#D55E00"/>
<circle cx="583" cy="317" r="3" fill="#009E73"/>
<circle cx="583" cy="250" r="3" fill="#984EA3"/>
<circle cx="583" cy="86" r="3" fill="#56B4E9"/>
<circle cx="583" cy="78" r="3" fill="#E69F00"/>
<circle cx="583" cy="339" r="3" fill="#C44E52"/>
<circle cx="583" cy="306" r="3" fill="#8C564B"/>
<circle cx="656" cy="174" r="3" fill="#0072B2"/>
<circle cx="656" cy="140" r="3" fill="#CC79A7"/>
<circle cx="656" cy="340" r="3" fill="#D55E00"/>
<circle cx="656" cy="317" r="3" fill="#009E73"/>
<circle cx="656" cy="251" r="3" fill="#984EA3"/>
<circle cx="656" cy="86" r="3" fill="#56B4E9"/>
<circle cx="656" cy="79" r="3" fill="#E69F00"/>
<circle cx="656" cy="339" r="3" fill="#C44E52"/>
<circle cx="656" cy="306" r="3" fill="#8C564B"/>
<circle cx="730" cy="173" r="3" fill="#0072B2"/>
<circle cx="730" cy="142" r="3" fill="#CC79A7"/>
<circle cx="730" cy="340" r="3" fill="#D55E00"/>
<circle cx="730" cy="317" r="3" fill="#009E73"/>
<circle cx="730" cy="250" r="3" fill="#984EA3"/>
<circle cx="730" cy="86" r="3" fill="#56B4E9"/>
<circle cx="730" cy="79" r="3" fill="#E69F00"/>
<circle cx="730" cy="339" r="3" fill="#C44E52"/>
<circle cx="730" cy="305" r="3" fill="#8C564B"/>
<circle cx="70" cy="20" r="4" fill="#0072B2"/>
<text x="78" y="24" text-anchor="start" font-size="12" fill="#0072B2">inte</text>
<circle cx="130" cy="20" r="4" fill="#CC79A7"/>
<text x="138" y="24" text-anchor="start" font-size="12" fill="#CC79A7">comp</text>
<circle cx="195" cy="20" r="4" fill="#D55E00"/>
<text x="203" y="24" text-anchor="start" font-size="12" fill="#D55E00">run</text>
<circle cx="250" cy="20" r="4" fill="#009E73"/>
<text x="258" y="24" text-anchor="start" font-size="12" fill="#009E73">wall</text>
<circle cx="315" cy="20" r="4" fill="#984EA3"/>
<text x="323" y="24" text-anchor="start" font-size="12" fill="#984EA3">self</text>
<circle cx="380" cy="20" r="4" fill="#56B4E9"/>
<text x="388" y="24" text-anchor="start" font-size="12" fill="#56B4E9">mem-inte</text>
<circle cx="470" cy="20" r="4" fill="#E69F00"/>
<text x="478" y="24" text-anchor="start" font-size="12" fill="#E69F00">mem-comp</text>
<circle cx="565" cy="20" r="4" fill="#C44E52"/>
<text x="573" y="24" text-anchor="start" font-size="12" fill="#C44E52">mem-run</text>
<circle cx="650" cy="20" r="4" fill="#8C564B"/>
<text x="658" y="24" text-anchor="start" font-size="12" fill="#8C564B">self-mem</text>
</svg>
