<svg width="800" height="400" xmlns="http://www.w3.org/2000/svg">
<rect width="800" height="400" fill="white"/>
<line x1="70" y1="40" x2="70" y2="340" stroke="#333" stroke-width="1"/>
<line x1="70" y1="340" x2="730" y2="340" stroke="#333" stroke-width="1"/>
<line x1="730" y1="40" x2="730" y2="340" stroke="#333" stroke-width="1"/>
<text x="65" y="344" text-anchor="end" font-size="11" fill="#333">0</text>
<text x="65" y="194" text-anchor="end" font-size="11" fill="#333">133000</text>
<text x="65" y="44" text-anchor="end" font-size="11" fill="#333">266000</text>
<text x="15" y="190" text-anchor="middle" font-size="12" fill="#333" transform="rotate(-90 15 190)">ms</text>
<text x="735" y="344" text-anchor="start" font-size="11" fill="#333">0</text>
<text x="735" y="194" text-anchor="start" font-size="11" fill="#333">9746000000</text>
<text x="735" y="44" text-anchor="start" font-size="11" fill="#333">19492000000</text>
<text x="785" y="190" text-anchor="middle" font-size="12" fill="#333" transform="rotate(90 785 190)">bytes</text>
<polyline points="70,198 143,198 216,206 290,205 363,114 436,203 510,197 583,222 656,193 730,198" fill="none" stroke="#0072B2" stroke-width="2"/>
<polyline points="70,157 143,148 216,165 290,160 363,41 436,162 510,157 583,190 656,142 730,155" fill="none" stroke="#CC79A7" stroke-width="2"/>
<polyline points="70,340 143,339 216,340 290,340 363,339 436,340 510,340 583,340 656,340 730,340" fill="none" stroke="#D55E00" stroke-width="2"/>
<polyline points="70,300 143,300 216,302 290,301 363,276 436,301 510,300 583,307 656,298 730,301" fill="none" stroke="#009E73" stroke-width="2"/>
<polyline points="70,235 143,237 216,235 290,229 363,228 436,229 510,228 583,238 656,224 730,227" fill="none" stroke="#56B4E9" stroke-width="2"/>
<polyline points="70,229 143,229 216,230 290,225 363,224 436,226 510,224 583,229 656,221 730,221" fill="none" stroke="#E69F00" stroke-width="2"/>
<polyline points="70,339 143,338 216,339 290,339 363,337 436,339 510,339 583,339 656,338 730,339" fill="none" stroke="#C44E52" stroke-width="2"/>
<polyline points="70,53 143,70 216,66 290,58 363,49 436,59 510,41 583,70 656,51 730,49" fill="none" stroke="#000000" stroke-width="2"/>
<circle cx="70" cy="198" r="3" fill="#0072B2"/>
<circle cx="70" cy="157" r="3" fill="#CC79A7"/>
<circle cx="70" cy="340" r="3" fill="#D55E00"/>
<circle cx="70" cy="300" r="3" fill="#009E73"/>
<circle cx="70" cy="235" r="3" fill="#56B4E9"/>
<circle cx="70" cy="229" r="3" fill="#E69F00"/>
<circle cx="70" cy="339" r="3" fill="#C44E52"/>
<circle cx="70" cy="53" r="3" fill="#000000"/>
<circle cx="143" cy="198" r="3" fill="#0072B2"/>
<circle cx="143" cy="148" r="3" fill="#CC79A7"/>
<circle cx="143" cy="339" r="3" fill="#D55E00"/>
<circle cx="143" cy="300" r="3" fill="#009E73"/>
<circle cx="143" cy="237" r="3" fill="#56B4E9"/>
<circle cx="143" cy="229" r="3" fill="#E69F00"/>
<circle cx="143" cy="338" r="3" fill="#C44E52"/>
<circle cx="143" cy="70" r="3" fill="#000000"/>
<circle cx="216" cy="206" r="3" fill="#0072B2"/>
<circle cx="216" cy="165" r="3" fill="#CC79A7"/>
<circle cx="216" cy="340" r="3" fill="#D55E00"/>
<circle cx="216" cy="302" r="3" fill="#009E73"/>
<circle cx="216" cy="235" r="3" fill="#56B4E9"/>
<circle cx="216" cy="230" r="3" fill="#E69F00"/>
<circle cx="216" cy="339" r="3" fill="#C44E52"/>
<circle cx="216" cy="66" r="3" fill="#000000"/>
<circle cx="290" cy="205" r="3" fill="#0072B2"/>
<circle cx="290" cy="160" r="3" fill="#CC79A7"/>
<circle cx="290" cy="340" r="3" fill="#D55E00"/>
<circle cx="290" cy="301" r="3" fill="#009E73"/>
<circle cx="290" cy="229" r="3" fill="#56B4E9"/>
<circle cx="290" cy="225" r="3" fill="#E69F00"/>
<circle cx="290" cy="339" r="3" fill="#C44E52"/>
<circle cx="290" cy="58" r="3" fill="#000000"/>
<circle cx="363" cy="114" r="3" fill="#0072B2"/>
<circle cx="363" cy="41" r="3" fill="#CC79A7"/>
<circle cx="363" cy="339" r="3" fill="#D55E00"/>
<circle cx="363" cy="276" r="3" fill="#009E73"/>
<circle cx="363" cy="228" r="3" fill="#56B4E9"/>
<circle cx="363" cy="224" r="3" fill="#E69F00"/>
<circle cx="363" cy="337" r="3" fill="#C44E52"/>
<circle cx="363" cy="49" r="3" fill="#000000"/>
<circle cx="436" cy="203" r="3" fill="#0072B2"/>
<circle cx="436" cy="162" r="3" fill="#CC79A7"/>
<circle cx="436" cy="340" r="3" fill="#D55E00"/>
<circle cx="436" cy="301" r="3" fill="#009E73"/>
<circle cx="436" cy="229" r="3" fill="#56B4E9"/>
<circle cx="436" cy="226" r="3" fill="#E69F00"/>
<circle cx="436" cy="339" r="3" fill="#C44E52"/>
<circle cx="436" cy="59" r="3" fill="#000000"/>
<circle cx="510" cy="197" r="3" fill="#0072B2"/>
<circle cx="510" cy="157" r="3" fill="#CC79A7"/>
<circle cx="510" cy="340" r="3" fill="#D55E00"/>
<circle cx="510" cy="300" r="3" fill="#009E73"/>
<circle cx="510" cy="228" r="3" fill="#56B4E9"/>
<circle cx="510" cy="224" r="3" fill="#E69F00"/>
<circle cx="510" cy="339" r="3" fill="#C44E52"/>
<circle cx="510" cy="41" r="3" fill="#000000"/>
<circle cx="583" cy="222" r="3" fill="#0072B2"/>
<circle cx="583" cy="190" r="3" fill="#CC79A7"/>
<circle cx="583" cy="340" r="3" fill="#D55E00"/>
<circle cx="583" cy="307" r="3" fill="#009E73"/>
<circle cx="583" cy="238" r="3" fill="#56B4E9"/>
<circle cx="583" cy="229" r="3" fill="#E69F00"/>
<circle cx="583" cy="339" r="3" fill="#C44E52"/>
<circle cx="583" cy="70" r="3" fill="#000000"/>
<circle cx="656" cy="193" r="3" fill="#0072B2"/>
<circle cx="656" cy="142" r="3" fill="#CC79A7"/>
<circle cx="656" cy="340" r="3" fill="#D55E00"/>
<circle cx="656" cy="298" r="3" fill="#009E73"/>
<circle cx="656" cy="224" r="3" fill="#56B4E9"/>
<circle cx="656" cy="221" r="3" fill="#E69F00"/>
<circle cx="656" cy="338" r="3" fill="#C44E52"/>
<circle cx="656" cy="51" r="3" fill="#000000"/>
<circle cx="730" cy="198" r="3" fill="#0072B2"/>
<circle cx="730" cy="155" r="3" fill="#CC79A7"/>
<circle cx="730" cy="340" r="3" fill="#D55E00"/>
<circle cx="730" cy="301" r="3" fill="#009E73"/>
<circle cx="730" cy="227" r="3" fill="#56B4E9"/>
<circle cx="730" cy="221" r="3" fill="#E69F00"/>
<circle cx="730" cy="339" r="3" fill="#C44E52"/>
<circle cx="730" cy="49" r="3" fill="#000000"/>
<circle cx="90" cy="20" r="4" fill="#0072B2"/>
<text x="98" y="24" text-anchor="start" font-size="12" fill="#0072B2">inte</text>
<circle cx="150" cy="20" r="4" fill="#CC79A7"/>
<text x="158" y="24" text-anchor="start" font-size="12" fill="#CC79A7">comp</text>
<circle cx="215" cy="20" r="4" fill="#D55E00"/>
<text x="223" y="24" text-anchor="start" font-size="12" fill="#D55E00">run</text>
<circle cx="270" cy="20" r="4" fill="#009E73"/>
<text x="278" y="24" text-anchor="start" font-size="12" fill="#009E73">wall</text>
<circle cx="335" cy="20" r="4" fill="#56B4E9"/>
<text x="343" y="24" text-anchor="start" font-size="12" fill="#56B4E9">mem-inte</text>
<circle cx="425" cy="20" r="4" fill="#E69F00"/>
<text x="433" y="24" text-anchor="start" font-size="12" fill="#E69F00">mem-comp</text>
<circle cx="520" cy="20" r="4" fill="#C44E52"/>
<text x="528" y="24" text-anchor="start" font-size="12" fill="#C44E52">mem-run</text>
<circle cx="605" cy="20" r="4" fill="#000000"/>
<text x="613" y="24" text-anchor="start" font-size="12" fill="#000000">mem-total</text>
</svg>
