<svg width="800" height="400" xmlns="http://www.w3.org/2000/svg">
<rect width="800" height="400" fill="white"/>
<line x1="70" y1="40" x2="70" y2="340" stroke="#333" stroke-width="1"/>
<line x1="70" y1="340" x2="780" y2="340" stroke="#333" stroke-width="1"/>
<text x="65" y="344" text-anchor="end" font-size="11" fill="#333">0</text>
<text x="65" y="194" text-anchor="end" font-size="11" fill="#333">80000</text>
<text x="65" y="44" text-anchor="end" font-size="11" fill="#333">160000</text>
<text x="15" y="190" text-anchor="middle" font-size="12" fill="#333" transform="rotate(-90 15 190)">ms</text>
<polyline points="70,112 148,111 227,109 306,109 385,107 464,44 543,45 622,42 701,44 780,148" fill="none" stroke="#0072B2" stroke-width="2"/>
<polyline points="70,263 148,263 227,261 306,263 385,262 464,206 543,205 622,202 701,204 780,265" fill="none" stroke="#D55E00" stroke-width="2"/>
<polyline points="70,125 148,129 227,128 306,130 385,127 464,71 543,70 622,65 701,64 780,164" fill="none" stroke="#CC79A7" stroke-width="2"/>
<polyline points="70,265 148,265 227,265 306,265 385,263 464,209 543,208 622,206 701,206 780,267" fill="none" stroke="#E69F00" stroke-width="2"/>
<polyline points="70,174 148,175 227,174 306,175 385,173 464,123 543,122 622,121 701,122 780,124" fill="none" stroke="#009E73" stroke-width="2"/>
<circle cx="70" cy="112" r="3" fill="#0072B2"/>
<circle cx="70" cy="263" r="3" fill="#D55E00"/>
<circle cx="70" cy="125" r="3" fill="#CC79A7"/>
<circle cx="70" cy="265" r="3" fill="#E69F00"/>
<circle cx="70" cy="174" r="3" fill="#009E73"/>
<circle cx="148" cy="111" r="3" fill="#0072B2"/>
<circle cx="148" cy="263" r="3" fill="#D55E00"/>
<circle cx="148" cy="129" r="3" fill="#CC79A7"/>
<circle cx="148" cy="265" r="3" fill="#E69F00"/>
<circle cx="148" cy="175" r="3" fill="#009E73"/>
<circle cx="227" cy="109" r="3" fill="#0072B2"/>
<circle cx="227" cy="261" r="3" fill="#D55E00"/>
<circle cx="227" cy="128" r="3" fill="#CC79A7"/>
<circle cx="227" cy="265" r="3" fill="#E69F00"/>
<circle cx="227" cy="174" r="3" fill="#009E73"/>
<circle cx="306" cy="109" r="3" fill="#0072B2"/>
<circle cx="306" cy="263" r="3" fill="#D55E00"/>
<circle cx="306" cy="130" r="3" fill="#CC79A7"/>
<circle cx="306" cy="265" r="3" fill="#E69F00"/>
<circle cx="306" cy="175" r="3" fill="#009E73"/>
<circle cx="385" cy="107" r="3" fill="#0072B2"/>
<circle cx="385" cy="262" r="3" fill="#D55E00"/>
<circle cx="385" cy="127" r="3" fill="#CC79A7"/>
<circle cx="385" cy="263" r="3" fill="#E69F00"/>
<circle cx="385" cy="173" r="3" fill="#009E73"/>
<circle cx="464" cy="44" r="3" fill="#0072B2"/>
<circle cx="464" cy="206" r="3" fill="#D55E00"/>
<circle cx="464" cy="71" r="3" fill="#CC79A7"/>
<circle cx="464" cy="209" r="3" fill="#E69F00"/>
<circle cx="464" cy="123" r="3" fill="#009E73"/>
<circle cx="543" cy="45" r="3" fill="#0072B2"/>
<circle cx="543" cy="205" r="3" fill="#D55E00"/>
<circle cx="543" cy="70" r="3" fill="#CC79A7"/>
<circle cx="543" cy="208" r="3" fill="#E69F00"/>
<circle cx="543" cy="122" r="3" fill="#009E73"/>
<circle cx="622" cy="42" r="3" fill="#0072B2"/>
<circle cx="622" cy="202" r="3" fill="#D55E00"/>
<circle cx="622" cy="65" r="3" fill="#CC79A7"/>
<circle cx="622" cy="206" r="3" fill="#E69F00"/>
<circle cx="622" cy="121" r="3" fill="#009E73"/>
<circle cx="701" cy="44" r="3" fill="#0072B2"/>
<circle cx="701" cy="204" r="3" fill="#D55E00"/>
<circle cx="701" cy="64" r="3" fill="#CC79A7"/>
<circle cx="701" cy="206" r="3" fill="#E69F00"/>
<circle cx="701" cy="122" r="3" fill="#009E73"/>
<circle cx="780" cy="148" r="3" fill="#0072B2"/>
<circle cx="780" cy="265" r="3" fill="#D55E00"/>
<circle cx="780" cy="164" r="3" fill="#CC79A7"/>
<circle cx="780" cy="267" r="3" fill="#E69F00"/>
<circle cx="780" cy="124" r="3" fill="#009E73"/>
<circle cx="90" cy="20" r="4" fill="#0072B2"/>
<text x="98" y="24" text-anchor="start" font-size="12" fill="#0072B2">ctil-i</text>
<circle cx="160" cy="20" r="4" fill="#D55E00"/>
<text x="168" y="24" text-anchor="start" font-size="12" fill="#D55E00">ctil-r</text>
<circle cx="230" cy="20" r="4" fill="#CC79A7"/>
<text x="238" y="24" text-anchor="start" font-size="12" fill="#CC79A7">til-i</text>
<circle cx="290" cy="20" r="4" fill="#E69F00"/>
<text x="298" y="24" text-anchor="start" font-size="12" fill="#E69F00">til-r</text>
<circle cx="350" cy="20" r="4" fill="#009E73"/>
<text x="358" y="24" text-anchor="start" font-size="12" fill="#009E73">Wall</text>
</svg>
