<svg width="800" height="400" xmlns="http://www.w3.org/2000/svg">
<rect width="800" height="400" fill="white"/>
<line x1="70" y1="40" x2="70" y2="340" stroke="#333" stroke-width="1"/>
<line x1="70" y1="340" x2="780" y2="340" stroke="#333" stroke-width="1"/>
<text x="65" y="344" text-anchor="end" font-size="11" fill="#333">0</text>
<text x="65" y="194" text-anchor="end" font-size="11" fill="#333">49000</text>
<text x="65" y="44" text-anchor="end" font-size="11" fill="#333">98000</text>
<text x="15" y="190" text-anchor="middle" font-size="12" fill="#333" transform="rotate(-90 15 190)">ms</text>
<polyline points="70,51 148,46 227,51 306,46 385,48 464,47 543,42 622,50 701,50 780,47" fill="none" stroke="#0072B2" stroke-width="2"/>
<polyline points="70,90 148,83 227,91 306,84 385,86 464,86 543,79 622,84 701,86 780,87" fill="none" stroke="#CC79A7" stroke-width="2"/>
<polyline points="70,335 148,335 227,335 306,335 385,335 464,335 543,335 622,335 701,335 780,335" fill="none" stroke="#D55E00" stroke-width="2"/>
<polyline points="70,199 148,195 227,200 306,194 385,196 464,196 543,197 622,197 701,199 780,196" fill="none" stroke="#009E73" stroke-width="2"/>
<circle cx="70" cy="51" r="3" fill="#0072B2"/>
<circle cx="70" cy="90" r="3" fill="#CC79A7"/>
<circle cx="70" cy="335" r="3" fill="#D55E00"/>
<circle cx="70" cy="199" r="3" fill="#009E73"/>
<circle cx="148" cy="46" r="3" fill="#0072B2"/>
<circle cx="148" cy="83" r="3" fill="#CC79A7"/>
<circle cx="148" cy="335" r="3" fill="#D55E00"/>
<circle cx="148" cy="195" r="3" fill="#009E73"/>
<circle cx="227" cy="51" r="3" fill="#0072B2"/>
<circle cx="227" cy="91" r="3" fill="#CC79A7"/>
<circle cx="227" cy="335" r="3" fill="#D55E00"/>
<circle cx="227" cy="200" r="3" fill="#009E73"/>
<circle cx="306" cy="46" r="3" fill="#0072B2"/>
<circle cx="306" cy="84" r="3" fill="#CC79A7"/>
<circle cx="306" cy="335" r="3" fill="#D55E00"/>
<circle cx="306" cy="194" r="3" fill="#009E73"/>
<circle cx="385" cy="48" r="3" fill="#0072B2"/>
<circle cx="385" cy="86" r="3" fill="#CC79A7"/>
<circle cx="385" cy="335" r="3" fill="#D55E00"/>
<circle cx="385" cy="196" r="3" fill="#009E73"/>
<circle cx="464" cy="47" r="3" fill="#0072B2"/>
<circle cx="464" cy="86" r="3" fill="#CC79A7"/>
<circle cx="464" cy="335" r="3" fill="#D55E00"/>
<circle cx="464" cy="196" r="3" fill="#009E73"/>
<circle cx="543" cy="42" r="3" fill="#0072B2"/>
<circle cx="543" cy="79" r="3" fill="#CC79A7"/>
<circle cx="543" cy="335" r="3" fill="#D55E00"/>
<circle cx="543" cy="197" r="3" fill="#009E73"/>
<circle cx="622" cy="50" r="3" fill="#0072B2"/>
<circle cx="622" cy="84" r="3" fill="#CC79A7"/>
<circle cx="622" cy="335" r="3" fill="#D55E00"/>
<circle cx="622" cy="197" r="3" fill="#009E73"/>
<circle cx="701" cy="50" r="3" fill="#0072B2"/>
<circle cx="701" cy="86" r="3" fill="#CC79A7"/>
<circle cx="701" cy="335" r="3" fill="#D55E00"/>
<circle cx="701" cy="199" r="3" fill="#009E73"/>
<circle cx="780" cy="47" r="3" fill="#0072B2"/>
<circle cx="780" cy="87" r="3" fill="#CC79A7"/>
<circle cx="780" cy="335" r="3" fill="#D55E00"/>
<circle cx="780" cy="196" r="3" fill="#009E73"/>
<circle cx="90" cy="20" r="4" fill="#0072B2"/>
<text x="98" y="24" text-anchor="start" font-size="12" fill="#0072B2">interpreted</text>
<circle cx="190" cy="20" r="4" fill="#CC79A7"/>
<text x="198" y="24" text-anchor="start" font-size="12" fill="#CC79A7">compiled</text>
<circle cx="275" cy="20" r="4" fill="#D55E00"/>
<text x="283" y="24" text-anchor="start" font-size="12" fill="#D55E00">executed</text>
<circle cx="355" cy="20" r="4" fill="#009E73"/>
<text x="363" y="24" text-anchor="start" font-size="12" fill="#009E73">wall</text>
</svg>
