<svg width="800" height="400" xmlns="http://www.w3.org/2000/svg">
<rect width="800" height="400" fill="white"/>
<line x1="70" y1="40" x2="70" y2="340" stroke="#333" stroke-width="1"/>
<line x1="70" y1="340" x2="730" y2="340" stroke="#333" stroke-width="1"/>
<line x1="730" y1="40" x2="730" y2="340" stroke="#333" stroke-width="1"/>
<line x1="66" y1="340" x2="70" y2="340" stroke="#333" stroke-width="1"/>
<text x="65" y="344" text-anchor="end" font-size="11" fill="#333">0 s</text>
<line x1="66" y1="266" x2="70" y2="266" stroke="#333" stroke-width="1"/>
<text x="65" y="270" text-anchor="end" font-size="11" fill="#333">76.31 s</text>
<line x1="66" y1="190" x2="70" y2="190" stroke="#333" stroke-width="1"/>
<text x="65" y="194" text-anchor="end" font-size="11" fill="#333">152.62 s</text>
<line x1="66" y1="116" x2="70" y2="116" stroke="#333" stroke-width="1"/>
<text x="65" y="120" text-anchor="end" font-size="11" fill="#333">228.93 s</text>
<line x1="66" y1="40" x2="70" y2="40" stroke="#333" stroke-width="1"/>
<text x="65" y="44" text-anchor="end" font-size="11" fill="#333">305.24 s</text>
<line x1="730" y1="340" x2="734" y2="340" stroke="#333" stroke-width="1"/>
<text x="735" y="344" text-anchor="start" font-size="11" fill="#333">0 gb</text>
<line x1="730" y1="265" x2="734" y2="265" stroke="#333" stroke-width="1"/>
<text x="735" y="269" text-anchor="start" font-size="11" fill="#333">11.09 gb</text>
<line x1="730" y1="190" x2="734" y2="190" stroke="#333" stroke-width="1"/>
<text x="735" y="194" text-anchor="start" font-size="11" fill="#333">22.17 gb</text>
<line x1="730" y1="115" x2="734" y2="115" stroke="#333" stroke-width="1"/>
<text x="735" y="119" text-anchor="start" font-size="11" fill="#333">33.26 gb</text>
<line x1="730" y1="40" x2="734" y2="40" stroke="#333" stroke-width="1"/>
<text x="735" y="44" text-anchor="start" font-size="11" fill="#333">44.35 gb</text>
<polyline points="70,52 143,56 216,47 290,55 363,57 436,63 510,58 583,63 656,56 730,66" fill="none" stroke="#0072B2" stroke-width="2"/>
<polyline points="70,48 143,40 216,49 290,53 363,49 436,49 510,47 583,50 656,51 730,57" fill="none" stroke="#CC79A7" stroke-width="2"/>
<polyline points="70,339 143,339 216,339 290,339 363,339 436,339 510,339 583,339 656,339 730,339" fill="none" stroke="#D55E00" stroke-width="2"/>
<polyline points="70,269 143,224 216,226 290,226 363,225 436,225 510,226 583,225 656,226 730,272" fill="none" stroke="#009E73" stroke-width="2"/>
<polyline points="70,264 143,263 216,263 290,263 363,263 436,263 510,264 583,264 656,265 730,265" fill="none" stroke="#984EA3" stroke-width="2"/>
<polyline points="70,44 143,44 216,44 290,44 363,46 436,45 510,44 583,41 656,41 730,40" fill="none" stroke="#56B4E9" stroke-width="2" stroke-dasharray="6 4"/>
<polyline points="70,66 143,66 216,66 290,66 363,67 436,67 510,65 583,62 656,62 730,62" fill="none" stroke="#E69F00" stroke-width="2" stroke-dasharray="6 4"/>
<polyline points="70,335 143,335 216,336 290,335 363,336 436,336 510,335 583,335 656,336 730,337" fill="none" stroke="#C44E52" stroke-width="2" stroke-dasharray="6 4"/>
<polyline points="70,314 143,315 216,315 290,315 363,314 436,313 510,314 583,314 656,313 730,315" fill="none" stroke="#8C564B" stroke-width="2" stroke-dasharray="6 4"/>
<polyline points="70,261 143,261 216,259 290,260 363,263 436,255 510,258 583,259 656,257 730,259" fill="none" stroke="#000000" stroke-width="2" stroke-dasharray="6 4"/>
<circle cx="70" cy="52" r="3" fill="#0072B2"/>
<circle cx="70" cy="48" r="3" fill="#CC79A7"/>
<circle cx="70" cy="339" r="3" fill="#D55E00"/>
<circle cx="70" cy="269" r="3" fill="#009E73"/>
<circle cx="70" cy="264" r="3" fill="#984EA3"/>
<circle cx="70" cy="44" r="3" fill="#56B4E9"/>
<circle cx="70" cy="66" r="3" fill="#E69F00"/>
<circle cx="70" cy="335" r="3" fill="#C44E52"/>
<circle cx="70" cy="314" r="3" fill="#8C564B"/>
<circle cx="70" cy="261" r="3" fill="#000000"/>
<circle cx="143" cy="56" r="3" fill="#0072B2"/>
<circle cx="143" cy="40" r="3" fill="#CC79A7"/>
<circle cx="143" cy="339" r="3" fill="#D55E00"/>
<circle cx="143" cy="224" r="3" fill="#009E73"/>
<circle cx="143" cy="263" r="3" fill="#984EA3"/>
<circle cx="143" cy="44" r="3" fill="#56B4E9"/>
<circle cx="143" cy="66" r="3" fill="#E69F00"/>
<circle cx="143" cy="335" r="3" fill="#C44E52"/>
<circle cx="143" cy="315" r="3" fill="#8C564B"/>
<circle cx="143" cy="261" r="3" fill="#000000"/>
<circle cx="216" cy="47" r="3" fill="#0072B2"/>
<circle cx="216" cy="49" r="3" fill="#CC79A7"/>
<circle cx="216" cy="339" r="3" fill="#D55E00"/>
<circle cx="216" cy="226" r="3" fill="#009E73"/>
<circle cx="216" cy="263" r="3" fill="#984EA3"/>
<circle cx="216" cy="44" r="3" fill="#56B4E9"/>
<circle cx="216" cy="66" r="3" fill="#E69F00"/>
<circle cx="216" cy="336" r="3" fill="#C44E52"/>
<circle cx="216" cy="315" r="3" fill="#8C564B"/>
<circle cx="216" cy="259" r="3" fill="#000000"/>
<circle cx="290" cy="55" r="3" fill="#0072B2"/>
<circle cx="290" cy="53" r="3" fill="#CC79A7"/>
<circle cx="290" cy="339" r="3" fill="#D55E00"/>
<circle cx="290" cy="226" r="3" fill="#009E73"/>
<circle cx="290" cy="263" r="3" fill="#984EA3"/>
<circle cx="290" cy="44" r="3" fill="#56B4E9"/>
<circle cx="290" cy="66" r="3" fill="#E69F00"/>
<circle cx="290" cy="335" r="3" fill="#C44E52"/>
<circle cx="290" cy="315" r="3" fill="#8C564B"/>
<circle cx="290" cy="260" r="3" fill="#000000"/>
<circle cx="363" cy="57" r="3" fill="#0072B2"/>
<circle cx="363" cy="49" r="3" fill="#CC79A7"/>
<circle cx="363" cy="339" r="3" fill="#D55E00"/>
<circle cx="363" cy="225" r="3" fill="#009E73"/>
<circle cx="363" cy="263" r="3" fill="#984EA3"/>
<circle cx="363" cy="46" r="3" fill="#56B4E9"/>
<circle cx="363" cy="67" r="3" fill="#E69F00"/>
<circle cx="363" cy="336" r="3" fill="#C44E52"/>
<circle cx="363" cy="314" r="3" fill="#8C564B"/>
<circle cx="363" cy="263" r="3" fill="#000000"/>
<circle cx="436" cy="63" r="3" fill="#0072B2"/>
<circle cx="436" cy="49" r="3" fill="#CC79A7"/>
<circle cx="436" cy="339" r="3" fill="#D55E00"/>
<circle cx="436" cy="225" r="3" fill="#009E73"/>
<circle cx="436" cy="263" r="3" fill="#984EA3"/>
<circle cx="436" cy="45" r="3" fill="#56B4E9"/>
<circle cx="436" cy="67" r="3" fill="#E69F00"/>
<circle cx="436" cy="336" r="3" fill="#C44E52"/>
<circle cx="436" cy="313" r="3" fill="#8C564B"/>
<circle cx="436" cy="255" r="3" fill="#000000"/>
<circle cx="510" cy="58" r="3" fill="#0072B2"/>
<circle cx="510" cy="47" r="3" fill="#CC79A7"/>
<circle cx="510" cy="339" r="3" fill="#D55E00"/>
<circle cx="510" cy="226" r="3" fill="#009E73"/>
<circle cx="510" cy="264" r="3" fill="#984EA3"/>
<circle cx="510" cy="44" r="3" fill="#56B4E9"/>
<circle cx="510" cy="65" r="3" fill="#E69F00"/>
<circle cx="510" cy="335" r="3" fill="#C44E52"/>
<circle cx="510" cy="314" r="3" fill="#8C564B"/>
<circle cx="510" cy="258" r="3" fill="#000000"/>
<circle cx="583" cy="63" r="3" fill="#0072B2"/>
<circle cx="583" cy="50" r="3" fill="#CC79A7"/>
<circle cx="583" cy="339" r="3" fill="#D55E00"/>
<circle cx="583" cy="225" r="3" fill="#009E73"/>
<circle cx="583" cy="264" r="3" fill="#984EA3"/>
<circle cx="583" cy="41" r="3" fill="#56B4E9"/>
<circle cx="583" cy="62" r="3" fill="#E69F00"/>
<circle cx="583" cy="335" r="3" fill="#C44E52"/>
<circle cx="583" cy="314" r="3" fill="#8C564B"/>
<circle cx="583" cy="259" r="3" fill="#000000"/>
<circle cx="656" cy="56" r="3" fill="#0072B2"/>
<circle cx="656" cy="51" r="3" fill="#CC79A7"/>
<circle cx="656" cy="339" r="3" fill="#D55E00"/>
<circle cx="656" cy="226" r="3" fill="#009E73"/>
<circle cx="656" cy="265" r="3" fill="#984EA3"/>
<circle cx="656" cy="41" r="3" fill="#56B4E9"/>
<circle cx="656" cy="62" r="3" fill="#E69F00"/>
<circle cx="656" cy="336" r="3" fill="#C44E52"/>
<circle cx="656" cy="313" r="3" fill="#8C564B"/>
<circle cx="656" cy="257" r="3" fill="#000000"/>
<circle cx="730" cy="66" r="3" fill="#0072B2"/>
<circle cx="730" cy="57" r="3" fill="#CC79A7"/>
<circle cx="730" cy="339" r="3" fill="#D55E00"/>
<circle cx="730" cy="272" r="3" fill="#009E73"/>
<circle cx="730" cy="265" r="3" fill="#984EA3"/>
<circle cx="730" cy="40" r="3" fill="#56B4E9"/>
<circle cx="730" cy="62" r="3" fill="#E69F00"/>
<circle cx="730" cy="337" r="3" fill="#C44E52"/>
<circle cx="730" cy="315" r="3" fill="#8C564B"/>
<circle cx="730" cy="259" r="3" fill="#000000"/>
<circle cx="72" cy="20" r="4" fill="#0072B2"/>
<text x="80" y="24" text-anchor="start" font-size="12" fill="#0072B2">inte</text>
<circle cx="125" cy="20" r="4" fill="#CC79A7"/>
<text x="133" y="24" text-anchor="start" font-size="12" fill="#CC79A7">comp</text>
<circle cx="178" cy="20" r="4" fill="#D55E00"/>
<text x="186" y="24" text-anchor="start" font-size="12" fill="#D55E00">run</text>
<circle cx="224" cy="20" r="4" fill="#009E73"/>
<text x="232" y="24" text-anchor="start" font-size="12" fill="#009E73">wall</text>
<circle cx="277" cy="20" r="4" fill="#984EA3"/>
<text x="285" y="24" text-anchor="start" font-size="12" fill="#984EA3">self</text>
<circle cx="330" cy="20" r="4" fill="#56B4E9"/>
<text x="338" y="24" text-anchor="start" font-size="12" fill="#56B4E9">mem-inte</text>
<circle cx="411" cy="20" r="4" fill="#E69F00"/>
<text x="419" y="24" text-anchor="start" font-size="12" fill="#E69F00">mem-comp</text>
<circle cx="492" cy="20" r="4" fill="#C44E52"/>
<text x="500" y="24" text-anchor="start" font-size="12" fill="#C44E52">mem-run</text>
<circle cx="566" cy="20" r="4" fill="#8C564B"/>
<text x="574" y="24" text-anchor="start" font-size="12" fill="#8C564B">self-mem</text>
<circle cx="647" cy="20" r="4" fill="#000000"/>
<text x="655" y="24" text-anchor="start" font-size="12" fill="#000000">peak-mem</text>
</svg>
