<svg width="800" height="400" xmlns="http://www.w3.org/2000/svg">
<rect width="800" height="400" fill="white"/>
<line x1="70" y1="40" x2="70" y2="340" stroke="#333" stroke-width="1"/>
<line x1="70" y1="340" x2="730" y2="340" stroke="#333" stroke-width="1"/>
<line x1="730" y1="40" x2="730" y2="340" stroke="#333" stroke-width="1"/>
<text x="65" y="344" text-anchor="end" font-size="11" fill="#333">0</text>
<text x="65" y="194" text-anchor="end" font-size="11" fill="#333">401500</text>
<text x="65" y="44" text-anchor="end" font-size="11" fill="#333">803000</text>
<text x="15" y="190" text-anchor="middle" font-size="12" fill="#333" transform="rotate(-90 15 190)">ms</text>
<text x="735" y="344" text-anchor="start" font-size="11" fill="#333">0</text>
<text x="735" y="194" text-anchor="start" font-size="11" fill="#333">5039500000</text>
<text x="735" y="44" text-anchor="start" font-size="11" fill="#333">10079000000</text>
<text x="785" y="190" text-anchor="middle" font-size="12" fill="#333" transform="rotate(90 785 190)">bytes</text>
<polyline points="70,81 143,93 216,144 290,155 363,109 436,120 510,127 583,150 656,133 730,133" fill="none" stroke="#0072B2" stroke-width="2"/>
<polyline points="70,41 143,81 216,130 290,133 363,107 436,99 510,105 583,133 656,122 730,124" fill="none" stroke="#CC79A7" stroke-width="2"/>
<polyline points="70,340 143,340 216,340 290,340 363,340 436,340 510,340 583,340 656,340 730,340" fill="none" stroke="#D55E00" stroke-width="2"/>
<polyline points="70,222 143,229 216,245 290,252 363,239 436,239 510,241 583,252 656,245 730,245" fill="none" stroke="#009E73" stroke-width="2"/>
<polyline points="70,274 143,274 216,274 290,274 363,274 436,273 510,270 583,270 656,273 730,273" fill="none" stroke="#56B4E9" stroke-width="2"/>
<polyline points="70,207 143,207 216,207 290,207 363,207 436,207 510,203 583,203 656,206 730,206" fill="none" stroke="#E69F00" stroke-width="2"/>
<polyline points="70,340 143,340 216,340 290,340 363,340 436,340 510,340 583,340 656,340 730,340" fill="none" stroke="#C44E52" stroke-width="2"/>
<polyline points="70,48 143,49 216,49 290,48 363,48 436,48 510,41 583,41 656,48 730,48" fill="none" stroke="#000000" stroke-width="2"/>
<circle cx="70" cy="81" r="3" fill="#0072B2"/>
<circle cx="70" cy="41" r="3" fill="#CC79A7"/>
<circle cx="70" cy="340" r="3" fill="#D55E00"/>
<circle cx="70" cy="222" r="3" fill="#009E73"/>
<circle cx="70" cy="274" r="3" fill="#56B4E9"/>
<circle cx="70" cy="207" r="3" fill="#E69F00"/>
<circle cx="70" cy="340" r="3" fill="#C44E52"/>
<circle cx="70" cy="48" r="3" fill="#000000"/>
<circle cx="143" cy="93" r="3" fill="#0072B2"/>
<circle cx="143" cy="81" r="3" fill="#CC79A7"/>
<circle cx="143" cy="340" r="3" fill="#D55E00"/>
<circle cx="143" cy="229" r="3" fill="#009E73"/>
<circle cx="143" cy="274" r="3" fill="#56B4E9"/>
<circle cx="143" cy="207" r="3" fill="#E69F00"/>
<circle cx="143" cy="340" r="3" fill="#C44E52"/>
<circle cx="143" cy="49" r="3" fill="#000000"/>
<circle cx="216" cy="144" r="3" fill="#0072B2"/>
<circle cx="216" cy="130" r="3" fill="#CC79A7"/>
<circle cx="216" cy="340" r="3" fill="#D55E00"/>
<circle cx="216" cy="245" r="3" fill="#009E73"/>
<circle cx="216" cy="274" r="3" fill="#56B4E9"/>
<circle cx="216" cy="207" r="3" fill="#E69F00"/>
<circle cx="216" cy="340" r="3" fill="#C44E52"/>
<circle cx="216" cy="49" r="3" fill="#000000"/>
<circle cx="290" cy="155" r="3" fill="#0072B2"/>
<circle cx="290" cy="133" r="3" fill="#CC79A7"/>
<circle cx="290" cy="340" r="3" fill="#D55E00"/>
<circle cx="290" cy="252" r="3" fill="#009E73"/>
<circle cx="290" cy="274" r="3" fill="#56B4E9"/>
<circle cx="290" cy="207" r="3" fill="#E69F00"/>
<circle cx="290" cy="340" r="3" fill="#C44E52"/>
<circle cx="290" cy="48" r="3" fill="#000000"/>
<circle cx="363" cy="109" r="3" fill="#0072B2"/>
<circle cx="363" cy="107" r="3" fill="#CC79A7"/>
<circle cx="363" cy="340" r="3" fill="#D55E00"/>
<circle cx="363" cy="239" r="3" fill="#009E73"/>
<circle cx="363" cy="274" r="3" fill="#56B4E9"/>
<circle cx="363" cy="207" r="3" fill="#E69F00"/>
<circle cx="363" cy="340" r="3" fill="#C44E52"/>
<circle cx="363" cy="48" r="3" fill="#000000"/>
<circle cx="436" cy="120" r="3" fill="#0072B2"/>
<circle cx="436" cy="99" r="3" fill="#CC79A7"/>
<circle cx="436" cy="340" r="3" fill="#D55E00"/>
<circle cx="436" cy="239" r="3" fill="#009E73"/>
<circle cx="436" cy="273" r="3" fill="#56B4E9"/>
<circle cx="436" cy="207" r="3" fill="#E69F00"/>
<circle cx="436" cy="340" r="3" fill="#C44E52"/>
<circle cx="436" cy="48" r="3" fill="#000000"/>
<circle cx="510" cy="127" r="3" fill="#0072B2"/>
<circle cx="510" cy="105" r="3" fill="#CC79A7"/>
<circle cx="510" cy="340" r="3" fill="#D55E00"/>
<circle cx="510" cy="241" r="3" fill="#009E73"/>
<circle cx="510" cy="270" r="3" fill="#56B4E9"/>
<circle cx="510" cy="203" r="3" fill="#E69F00"/>
<circle cx="510" cy="340" r="3" fill="#C44E52"/>
<circle cx="510" cy="41" r="3" fill="#000000"/>
<circle cx="583" cy="150" r="3" fill="#0072B2"/>
<circle cx="583" cy="133" r="3" fill="#CC79A7"/>
<circle cx="583" cy="340" r="3" fill="#D55E00"/>
<circle cx="583" cy="252" r="3" fill="#009E73"/>
<circle cx="583" cy="270" r="3" fill="#56B4E9"/>
<circle cx="583" cy="203" r="3" fill="#E69F00"/>
<circle cx="583" cy="340" r="3" fill="#C44E52"/>
<circle cx="583" cy="41" r="3" fill="#000000"/>
<circle cx="656" cy="133" r="3" fill="#0072B2"/>
<circle cx="656" cy="122" r="3" fill="#CC79A7"/>
<circle cx="656" cy="340" r="3" fill="#D55E00"/>
<circle cx="656" cy="245" r="3" fill="#009E73"/>
<circle cx="656" cy="273" r="3" fill="#56B4E9"/>
<circle cx="656" cy="206" r="3" fill="#E69F00"/>
<circle cx="656" cy="340" r="3" fill="#C44E52"/>
<circle cx="656" cy="48" r="3" fill="#000000"/>
<circle cx="730" cy="133" r="3" fill="#0072B2"/>
<circle cx="730" cy="124" r="3" fill="#CC79A7"/>
<circle cx="730" cy="340" r="3" fill="#D55E00"/>
<circle cx="730" cy="245" r="3" fill="#009E73"/>
<circle cx="730" cy="273" r="3" fill="#56B4E9"/>
<circle cx="730" cy="206" r="3" fill="#E69F00"/>
<circle cx="730" cy="340" r="3" fill="#C44E52"/>
<circle cx="730" cy="48" r="3" fill="#000000"/>
<circle cx="90" cy="20" r="4" fill="#0072B2"/>
<text x="98" y="24" text-anchor="start" font-size="12" fill="#0072B2">inte</text>
<circle cx="150" cy="20" r="4" fill="#CC79A7"/>
<text x="158" y="24" text-anchor="start" font-size="12" fill="#CC79A7">comp</text>
<circle cx="215" cy="20" r="4" fill="#D55E00"/>
<text x="223" y="24" text-anchor="start" font-size="12" fill="#D55E00">run</text>
<circle cx="270" cy="20" r="4" fill="#009E73"/>
<text x="278" y="24" text-anchor="start" font-size="12" fill="#009E73">wall</text>
<circle cx="335" cy="20" r="4" fill="#56B4E9"/>
<text x="343" y="24" text-anchor="start" font-size="12" fill="#56B4E9">mem-inte</text>
<circle cx="425" cy="20" r="4" fill="#E69F00"/>
<text x="433" y="24" text-anchor="start" font-size="12" fill="#E69F00">mem-comp</text>
<circle cx="520" cy="20" r="4" fill="#C44E52"/>
<text x="528" y="24" text-anchor="start" font-size="12" fill="#C44E52">mem-run</text>
<circle cx="605" cy="20" r="4" fill="#000000"/>
<text x="613" y="24" text-anchor="start" font-size="12" fill="#000000">mem-total</text>
</svg>
