<svg width="800" height="400" xmlns="http://www.w3.org/2000/svg">
<rect width="800" height="400" fill="white"/>
<line x1="70" y1="40" x2="70" y2="340" stroke="#333" stroke-width="1"/>
<line x1="70" y1="340" x2="730" y2="340" stroke="#333" stroke-width="1"/>
<line x1="730" y1="40" x2="730" y2="340" stroke="#333" stroke-width="1"/>
<text x="65" y="344" text-anchor="end" font-size="11" fill="#333">0</text>
<text x="65" y="194" text-anchor="end" font-size="11" fill="#333">42000</text>
<text x="65" y="44" text-anchor="end" font-size="11" fill="#333">84000</text>
<text x="15" y="190" text-anchor="middle" font-size="12" fill="#333" transform="rotate(-90 15 190)">ms</text>
<text x="735" y="344" text-anchor="start" font-size="11" fill="#333">0</text>
<text x="735" y="194" text-anchor="start" font-size="11" fill="#333">1000000</text>
<text x="735" y="44" text-anchor="start" font-size="11" fill="#333">2000000</text>
<text x="785" y="190" text-anchor="middle" font-size="12" fill="#333" transform="rotate(90 785 190)">bytes</text>
<polyline points="70,46 143,50 216,58 290,49 363,54 436,54 510,49 583,53 656,52 730,49" fill="none" stroke="#0072B2" stroke-width="2"/>
<polyline points="70,42 143,44 216,52 290,45 363,52 436,52 510,50 583,53 656,51 730,48" fill="none" stroke="#CC79A7" stroke-width="2"/>
<polyline points="70,334 143,334 216,334 290,334 363,334 436,334 510,334 583,334 656,334 730,334" fill="none" stroke="#D55E00" stroke-width="2"/>
<polyline points="70,299 143,299 216,300 290,299 363,299 436,300 510,299 583,300 656,299 730,299" fill="none" stroke="#009E73" stroke-width="2"/>
<polyline points="70,64 143,64 216,64 290,64 363,64 436,64 510,64 583,64 656,64 730,64" fill="none" stroke="#56B4E9" stroke-width="2"/>
<circle cx="70" cy="46" r="3" fill="#0072B2"/>
<circle cx="70" cy="42" r="3" fill="#CC79A7"/>
<circle cx="70" cy="334" r="3" fill="#D55E00"/>
<circle cx="70" cy="299" r="3" fill="#009E73"/>
<circle cx="70" cy="64" r="3" fill="#56B4E9"/>
<circle cx="143" cy="50" r="3" fill="#0072B2"/>
<circle cx="143" cy="44" r="3" fill="#CC79A7"/>
<circle cx="143" cy="334" r="3" fill="#D55E00"/>
<circle cx="143" cy="299" r="3" fill="#009E73"/>
<circle cx="143" cy="64" r="3" fill="#56B4E9"/>
<circle cx="216" cy="58" r="3" fill="#0072B2"/>
<circle cx="216" cy="52" r="3" fill="#CC79A7"/>
<circle cx="216" cy="334" r="3" fill="#D55E00"/>
<circle cx="216" cy="300" r="3" fill="#009E73"/>
<circle cx="216" cy="64" r="3" fill="#56B4E9"/>
<circle cx="290" cy="49" r="3" fill="#0072B2"/>
<circle cx="290" cy="45" r="3" fill="#CC79A7"/>
<circle cx="290" cy="334" r="3" fill="#D55E00"/>
<circle cx="290" cy="299" r="3" fill="#009E73"/>
<circle cx="290" cy="64" r="3" fill="#56B4E9"/>
<circle cx="363" cy="54" r="3" fill="#0072B2"/>
<circle cx="363" cy="52" r="3" fill="#CC79A7"/>
<circle cx="363" cy="334" r="3" fill="#D55E00"/>
<circle cx="363" cy="299" r="3" fill="#009E73"/>
<circle cx="363" cy="64" r="3" fill="#56B4E9"/>
<circle cx="436" cy="54" r="3" fill="#0072B2"/>
<circle cx="436" cy="52" r="3" fill="#CC79A7"/>
<circle cx="436" cy="334" r="3" fill="#D55E00"/>
<circle cx="436" cy="300" r="3" fill="#009E73"/>
<circle cx="436" cy="64" r="3" fill="#56B4E9"/>
<circle cx="510" cy="49" r="3" fill="#0072B2"/>
<circle cx="510" cy="50" r="3" fill="#CC79A7"/>
<circle cx="510" cy="334" r="3" fill="#D55E00"/>
<circle cx="510" cy="299" r="3" fill="#009E73"/>
<circle cx="510" cy="64" r="3" fill="#56B4E9"/>
<circle cx="583" cy="53" r="3" fill="#0072B2"/>
<circle cx="583" cy="53" r="3" fill="#CC79A7"/>
<circle cx="583" cy="334" r="3" fill="#D55E00"/>
<circle cx="583" cy="300" r="3" fill="#009E73"/>
<circle cx="583" cy="64" r="3" fill="#56B4E9"/>
<circle cx="656" cy="52" r="3" fill="#0072B2"/>
<circle cx="656" cy="51" r="3" fill="#CC79A7"/>
<circle cx="656" cy="334" r="3" fill="#D55E00"/>
<circle cx="656" cy="299" r="3" fill="#009E73"/>
<circle cx="656" cy="64" r="3" fill="#56B4E9"/>
<circle cx="730" cy="49" r="3" fill="#0072B2"/>
<circle cx="730" cy="48" r="3" fill="#CC79A7"/>
<circle cx="730" cy="334" r="3" fill="#D55E00"/>
<circle cx="730" cy="299" r="3" fill="#009E73"/>
<circle cx="730" cy="64" r="3" fill="#56B4E9"/>
<circle cx="90" cy="20" r="4" fill="#0072B2"/>
<text x="98" y="24" text-anchor="start" font-size="12" fill="#0072B2">interpreted</text>
<circle cx="190" cy="20" r="4" fill="#CC79A7"/>
<text x="198" y="24" text-anchor="start" font-size="12" fill="#CC79A7">compiled</text>
<circle cx="275" cy="20" r="4" fill="#D55E00"/>
<text x="283" y="24" text-anchor="start" font-size="12" fill="#D55E00">executed</text>
<circle cx="355" cy="20" r="4" fill="#009E73"/>
<text x="363" y="24" text-anchor="start" font-size="12" fill="#009E73">wall</text>
<circle cx="420" cy="20" r="4" fill="#56B4E9"/>
<text x="428" y="24" text-anchor="start" font-size="12" fill="#56B4E9">memory</text>
</svg>
