<svg width="800" height="400" xmlns="http://www.w3.org/2000/svg">
<rect width="800" height="400" fill="white"/>
<line x1="70" y1="40" x2="70" y2="340" stroke="#333" stroke-width="1"/>
<line x1="70" y1="340" x2="780" y2="340" stroke="#333" stroke-width="1"/>
<text x="65" y="344" text-anchor="end" font-size="11" fill="#333">0</text>
<text x="65" y="194" text-anchor="end" font-size="11" fill="#333">62000</text>
<text x="65" y="44" text-anchor="end" font-size="11" fill="#333">124000</text>
<text x="15" y="190" text-anchor="middle" font-size="12" fill="#333" transform="rotate(-90 15 190)">ms</text>
<polyline points="70,179 148,177 227,167 306,167 385,149 464,50 543,46 622,41 701,47 780,44" fill="none" stroke="#0072B2" stroke-width="2"/>
<polyline points="70,279 148,278 227,275 306,274 385,270 464,247 543,246 622,245 701,246 780,244" fill="none" stroke="#D55E00" stroke-width="2"/>
<polyline points="70,187 148,188 227,179 306,181 385,165 464,68 543,69 622,68 701,67 780,67" fill="none" stroke="#CC79A7" stroke-width="2"/>
<polyline points="70,282 148,280 227,278 306,278 385,274 464,252 543,250 622,250 701,250 780,248" fill="none" stroke="#E69F00" stroke-width="2"/>
<polyline points="70,214 148,216 227,208 306,210 385,204 464,125 543,123 622,120 701,124 780,123" fill="none" stroke="#009E73" stroke-width="2"/>
<circle cx="70" cy="179" r="3" fill="#0072B2"/>
<circle cx="70" cy="279" r="3" fill="#D55E00"/>
<circle cx="70" cy="187" r="3" fill="#CC79A7"/>
<circle cx="70" cy="282" r="3" fill="#E69F00"/>
<circle cx="70" cy="214" r="3" fill="#009E73"/>
<circle cx="148" cy="177" r="3" fill="#0072B2"/>
<circle cx="148" cy="278" r="3" fill="#D55E00"/>
<circle cx="148" cy="188" r="3" fill="#CC79A7"/>
<circle cx="148" cy="280" r="3" fill="#E69F00"/>
<circle cx="148" cy="216" r="3" fill="#009E73"/>
<circle cx="227" cy="167" r="3" fill="#0072B2"/>
<circle cx="227" cy="275" r="3" fill="#D55E00"/>
<circle cx="227" cy="179" r="3" fill="#CC79A7"/>
<circle cx="227" cy="278" r="3" fill="#E69F00"/>
<circle cx="227" cy="208" r="3" fill="#009E73"/>
<circle cx="306" cy="167" r="3" fill="#0072B2"/>
<circle cx="306" cy="274" r="3" fill="#D55E00"/>
<circle cx="306" cy="181" r="3" fill="#CC79A7"/>
<circle cx="306" cy="278" r="3" fill="#E69F00"/>
<circle cx="306" cy="210" r="3" fill="#009E73"/>
<circle cx="385" cy="149" r="3" fill="#0072B2"/>
<circle cx="385" cy="270" r="3" fill="#D55E00"/>
<circle cx="385" cy="165" r="3" fill="#CC79A7"/>
<circle cx="385" cy="274" r="3" fill="#E69F00"/>
<circle cx="385" cy="204" r="3" fill="#009E73"/>
<circle cx="464" cy="50" r="3" fill="#0072B2"/>
<circle cx="464" cy="247" r="3" fill="#D55E00"/>
<circle cx="464" cy="68" r="3" fill="#CC79A7"/>
<circle cx="464" cy="252" r="3" fill="#E69F00"/>
<circle cx="464" cy="125" r="3" fill="#009E73"/>
<circle cx="543" cy="46" r="3" fill="#0072B2"/>
<circle cx="543" cy="246" r="3" fill="#D55E00"/>
<circle cx="543" cy="69" r="3" fill="#CC79A7"/>
<circle cx="543" cy="250" r="3" fill="#E69F00"/>
<circle cx="543" cy="123" r="3" fill="#009E73"/>
<circle cx="622" cy="41" r="3" fill="#0072B2"/>
<circle cx="622" cy="245" r="3" fill="#D55E00"/>
<circle cx="622" cy="68" r="3" fill="#CC79A7"/>
<circle cx="622" cy="250" r="3" fill="#E69F00"/>
<circle cx="622" cy="120" r="3" fill="#009E73"/>
<circle cx="701" cy="47" r="3" fill="#0072B2"/>
<circle cx="701" cy="246" r="3" fill="#D55E00"/>
<circle cx="701" cy="67" r="3" fill="#CC79A7"/>
<circle cx="701" cy="250" r="3" fill="#E69F00"/>
<circle cx="701" cy="124" r="3" fill="#009E73"/>
<circle cx="780" cy="44" r="3" fill="#0072B2"/>
<circle cx="780" cy="244" r="3" fill="#D55E00"/>
<circle cx="780" cy="67" r="3" fill="#CC79A7"/>
<circle cx="780" cy="248" r="3" fill="#E69F00"/>
<circle cx="780" cy="123" r="3" fill="#009E73"/>
<circle cx="90" cy="20" r="4" fill="#0072B2"/>
<text x="98" y="24" text-anchor="start" font-size="12" fill="#0072B2">ctil-i</text>
<circle cx="160" cy="20" r="4" fill="#D55E00"/>
<text x="168" y="24" text-anchor="start" font-size="12" fill="#D55E00">ctil-r</text>
<circle cx="230" cy="20" r="4" fill="#CC79A7"/>
<text x="238" y="24" text-anchor="start" font-size="12" fill="#CC79A7">til-i</text>
<circle cx="290" cy="20" r="4" fill="#E69F00"/>
<text x="298" y="24" text-anchor="start" font-size="12" fill="#E69F00">til-r</text>
<circle cx="350" cy="20" r="4" fill="#009E73"/>
<text x="358" y="24" text-anchor="start" font-size="12" fill="#009E73">Wall</text>
</svg>
