<svg width="800" height="400" xmlns="http://www.w3.org/2000/svg">
<rect width="800" height="400" fill="white"/>
<line x1="70" y1="40" x2="70" y2="340" stroke="#333" stroke-width="1"/>
<line x1="70" y1="340" x2="730" y2="340" stroke="#333" stroke-width="1"/>
<line x1="730" y1="40" x2="730" y2="340" stroke="#333" stroke-width="1"/>
<text x="65" y="344" text-anchor="end" font-size="11" fill="#333">0</text>
<text x="65" y="194" text-anchor="end" font-size="11" fill="#333">318500</text>
<text x="65" y="44" text-anchor="end" font-size="11" fill="#333">637000</text>
<text x="15" y="190" text-anchor="middle" font-size="12" fill="#333" transform="rotate(-90 15 190)">ms</text>
<text x="735" y="344" text-anchor="start" font-size="11" fill="#333">0</text>
<text x="735" y="194" text-anchor="start" font-size="11" fill="#333">53353500000</text>
<text x="735" y="44" text-anchor="start" font-size="11" fill="#333">106707000000</text>
<text x="785" y="190" text-anchor="middle" font-size="12" fill="#333" transform="rotate(90 785 190)">bytes</text>
<polyline points="70,88 143,99 216,104 290,108 363,113 436,112 510,114 583,111 656,112 730,105" fill="none" stroke="#0072B2" stroke-width="2"/>
<polyline points="70,41 143,43 216,63 290,58 363,61 436,69 510,69 583,50 656,62 730,59" fill="none" stroke="#CC79A7" stroke-width="2"/>
<polyline points="70,340 143,340 216,340 290,340 363,340 436,340 510,340 583,340 656,340 730,340" fill="none" stroke="#D55E00" stroke-width="2"/>
<polyline points="70,305 143,306 216,307 290,308 363,308 436,308 510,308 583,307 656,308 730,307" fill="none" stroke="#009E73" stroke-width="2"/>
<polyline points="70,203 143,206 216,217 290,220 363,219 436,219 510,217 583,212 656,214 730,213" fill="none" stroke="#984EA3" stroke-width="2"/>
<polyline points="70,49 143,52 216,58 290,59 363,61 436,60 510,60 583,58 656,58 730,57" fill="none" stroke="#56B4E9" stroke-width="2"/>
<polyline points="70,41 143,42 216,52 290,52 363,53 436,54 510,55 583,49 656,51 730,49" fill="none" stroke="#E69F00" stroke-width="2"/>
<polyline points="70,338 143,339 216,339 290,339 363,339 436,339 510,339 583,339 656,339 730,338" fill="none" stroke="#C44E52" stroke-width="2"/>
<polyline points="70,300 143,300 216,301 290,302 363,303 436,302 510,301 583,301 656,301 730,301" fill="none" stroke="#8C564B" stroke-width="2"/>
<circle cx="70" cy="88" r="3" fill="#0072B2"/>
<circle cx="70" cy="41" r="3" fill="#CC79A7"/>
<circle cx="70" cy="340" r="3" fill="#D55E00"/>
<circle cx="70" cy="305" r="3" fill="#009E73"/>
<circle cx="70" cy="203" r="3" fill="#984EA3"/>
<circle cx="70" cy="49" r="3" fill="#56B4E9"/>
<circle cx="70" cy="41" r="3" fill="#E69F00"/>
<circle cx="70" cy="338" r="3" fill="#C44E52"/>
<circle cx="70" cy="300" r="3" fill="#8C564B"/>
<circle cx="143" cy="99" r="3" fill="#0072B2"/>
<circle cx="143" cy="43" r="3" fill="#CC79A7"/>
<circle cx="143" cy="340" r="3" fill="#D55E00"/>
<circle cx="143" cy="306" r="3" fill="#009E73"/>
<circle cx="143" cy="206" r="3" fill="#984EA3"/>
<circle cx="143" cy="52" r="3" fill="#56B4E9"/>
<circle cx="143" cy="42" r="3" fill="#E69F00"/>
<circle cx="143" cy="339" r="3" fill="#C44E52"/>
<circle cx="143" cy="300" r="3" fill="#8C564B"/>
<circle cx="216" cy="104" r="3" fill="#0072B2"/>
<circle cx="216" cy="63" r="3" fill="#CC79A7"/>
<circle cx="216" cy="340" r="3" fill="#D55E00"/>
<circle cx="216" cy="307" r="3" fill="#009E73"/>
<circle cx="216" cy="217" r="3" fill="#984EA3"/>
<circle cx="216" cy="58" r="3" fill="#56B4E9"/>
<circle cx="216" cy="52" r="3" fill="#E69F00"/>
<circle cx="216" cy="339" r="3" fill="#C44E52"/>
<circle cx="216" cy="301" r="3" fill="#8C564B"/>
<circle cx="290" cy="108" r="3" fill="#0072B2"/>
<circle cx="290" cy="58" r="3" fill="#CC79A7"/>
<circle cx="290" cy="340" r="3" fill="#D55E00"/>
<circle cx="290" cy="308" r="3" fill="#009E73"/>
<circle cx="290" cy="220" r="3" fill="#984EA3"/>
<circle cx="290" cy="59" r="3" fill="#56B4E9"/>
<circle cx="290" cy="52" r="3" fill="#E69F00"/>
<circle cx="290" cy="339" r="3" fill="#C44E52"/>
<circle cx="290" cy="302" r="3" fill="#8C564B"/>
<circle cx="363" cy="113" r="3" fill="#0072B2"/>
<circle cx="363" cy="61" r="3" fill="#CC79A7"/>
<circle cx="363" cy="340" r="3" fill="#D55E00"/>
<circle cx="363" cy="308" r="3" fill="#009E73"/>
<circle cx="363" cy="219" r="3" fill="#984EA3"/>
<circle cx="363" cy="61" r="3" fill="#56B4E9"/>
<circle cx="363" cy="53" r="3" fill="#E69F00"/>
<circle cx="363" cy="339" r="3" fill="#C44E52"/>
<circle cx="363" cy="303" r="3" fill="#8C564B"/>
<circle cx="436" cy="112" r="3" fill="#0072B2"/>
<circle cx="436" cy="69" r="3" fill="#CC79A7"/>
<circle cx="436" cy="340" r="3" fill="#D55E00"/>
<circle cx="436" cy="308" r="3" fill="#009E73"/>
<circle cx="436" cy="219" r="3" fill="#984EA3"/>
<circle cx="436" cy="60" r="3" fill="#56B4E9"/>
<circle cx="436" cy="54" r="3" fill="#E69F00"/>
<circle cx="436" cy="339" r="3" fill="#C44E52"/>
<circle cx="436" cy="302" r="3" fill="#8C564B"/>
<circle cx="510" cy="114" r="3" fill="#0072B2"/>
<circle cx="510" cy="69" r="3" fill="#CC79A7"/>
<circle cx="510" cy="340" r="3" fill="#D55E00"/>
<circle cx="510" cy="308" r="3" fill="#009E73"/>
<circle cx="510" cy="217" r="3" fill="#984EA3"/>
<circle cx="510" cy="60" r="3" fill="#56B4E9"/>
<circle cx="510" cy="55" r="3" fill="#E69F00"/>
<circle cx="510" cy="339" r="3" fill="#C44E52"/>
<circle cx="510" cy="301" r="3" fill="#8C564B"/>
<circle cx="583" cy="111" r="3" fill="#0072B2"/>
<circle cx="583" cy="50" r="3" fill="#CC79A7"/>
<circle cx="583" cy="340" r="3" fill="#D55E00"/>
<circle cx="583" cy="307" r="3" fill="#009E73"/>
<circle cx="583" cy="212" r="3" fill="#984EA3"/>
<circle cx="583" cy="58" r="3" fill="#56B4E9"/>
<circle cx="583" cy="49" r="3" fill="#E69F00"/>
<circle cx="583" cy="339" r="3" fill="#C44E52"/>
<circle cx="583" cy="301" r="3" fill="#8C564B"/>
<circle cx="656" cy="112" r="3" fill="#0072B2"/>
<circle cx="656" cy="62" r="3" fill="#CC79A7"/>
<circle cx="656" cy="340" r="3" fill="#D55E00"/>
<circle cx="656" cy="308" r="3" fill="#009E73"/>
<circle cx="656" cy="214" r="3" fill="#984EA3"/>
<circle cx="656" cy="58" r="3" fill="#56B4E9"/>
<circle cx="656" cy="51" r="3" fill="#E69F00"/>
<circle cx="656" cy="339" r="3" fill="#C44E52"/>
<circle cx="656" cy="301" r="3" fill="#8C564B"/>
<circle cx="730" cy="105" r="3" fill="#0072B2"/>
<circle cx="730" cy="59" r="3" fill="#CC79A7"/>
<circle cx="730" cy="340" r="3" fill="#D55E00"/>
<circle cx="730" cy="307" r="3" fill="#009E73"/>
<circle cx="730" cy="213" r="3" fill="#984EA3"/>
<circle cx="730" cy="57" r="3" fill="#56B4E9"/>
<circle cx="730" cy="49" r="3" fill="#E69F00"/>
<circle cx="730" cy="338" r="3" fill="#C44E52"/>
<circle cx="730" cy="301" r="3" fill="#8C564B"/>
<circle cx="70" cy="20" r="4" fill="#0072B2"/>
<text x="78" y="24" text-anchor="start" font-size="12" fill="#0072B2">inte</text>
<circle cx="130" cy="20" r="4" fill="#CC79A7"/>
<text x="138" y="24" text-anchor="start" font-size="12" fill="#CC79A7">comp</text>
<circle cx="195" cy="20" r="4" fill="#D55E00"/>
<text x="203" y="24" text-anchor="start" font-size="12" fill="#D55E00">run</text>
<circle cx="250" cy="20" r="4" fill="#009E73"/>
<text x="258" y="24" text-anchor="start" font-size="12" fill="#009E73">wall</text>
<circle cx="315" cy="20" r="4" fill="#984EA3"/>
<text x="323" y="24" text-anchor="start" font-size="12" fill="#984EA3">self</text>
<circle cx="380" cy="20" r="4" fill="#56B4E9"/>
<text x="388" y="24" text-anchor="start" font-size="12" fill="#56B4E9">mem-inte</text>
<circle cx="470" cy="20" r="4" fill="#E69F00"/>
<text x="478" y="24" text-anchor="start" font-size="12" fill="#E69F00">mem-comp</text>
<circle cx="565" cy="20" r="4" fill="#C44E52"/>
<text x="573" y="24" text-anchor="start" font-size="12" fill="#C44E52">mem-run</text>
<circle cx="650" cy="20" r="4" fill="#8C564B"/>
<text x="658" y="24" text-anchor="start" font-size="12" fill="#8C564B">self-mem</text>
</svg>
