<svg width="800" height="400" xmlns="http://www.w3.org/2000/svg">
<rect width="800" height="400" fill="white"/>
<line x1="70" y1="40" x2="70" y2="340" stroke="#333" stroke-width="1"/>
<line x1="70" y1="340" x2="730" y2="340" stroke="#333" stroke-width="1"/>
<line x1="730" y1="40" x2="730" y2="340" stroke="#333" stroke-width="1"/>
<text x="65" y="344" text-anchor="end" font-size="11" fill="#333">0</text>
<text x="65" y="194" text-anchor="end" font-size="11" fill="#333">132000</text>
<text x="65" y="44" text-anchor="end" font-size="11" fill="#333">264000</text>
<text x="15" y="190" text-anchor="middle" font-size="12" fill="#333" transform="rotate(-90 15 190)">ms</text>
<text x="735" y="344" text-anchor="start" font-size="11" fill="#333">0</text>
<text x="735" y="194" text-anchor="start" font-size="11" fill="#333">5865000000</text>
<text x="735" y="44" text-anchor="start" font-size="11" fill="#333">11730000000</text>
<text x="785" y="190" text-anchor="middle" font-size="12" fill="#333" transform="rotate(90 785 190)">bytes</text>
<polyline points="70,207 143,207 216,209 290,205 363,207 436,210 510,97 583,199 656,81 730,68" fill="none" stroke="#0072B2" stroke-width="2"/>
<polyline points="70,194 143,194 216,197 290,193 363,194 436,198 510,71 583,186 656,47 730,41" fill="none" stroke="#CC79A7" stroke-width="2"/>
<polyline points="70,340 143,340 216,340 290,340 363,340 436,340 510,340 583,340 656,340 730,340" fill="none" stroke="#D55E00" stroke-width="2"/>
<polyline points="70,213 143,216 216,216 290,212 363,213 436,216 510,118 583,207 656,101 730,90" fill="none" stroke="#009E73" stroke-width="2"/>
<polyline points="70,246 143,246 216,246 290,246 363,246 436,246 510,246 583,246 656,246 730,246" fill="none" stroke="#56B4E9" stroke-width="2"/>
<polyline points="70,199 143,196 216,195 290,191 363,199 436,197 510,198 583,199 656,193 730,188" fill="none" stroke="#E69F00" stroke-width="2"/>
<polyline points="70,340 143,340 216,340 290,340 363,340 436,340 510,340 583,340 656,340 730,340" fill="none" stroke="#C44E52" stroke-width="2"/>
<polyline points="70,52 143,51 216,50 290,47 363,53 436,51 510,52 583,54 656,46 730,41" fill="none" stroke="#000000" stroke-width="2"/>
<circle cx="70" cy="207" r="3" fill="#0072B2"/>
<circle cx="70" cy="194" r="3" fill="#CC79A7"/>
<circle cx="70" cy="340" r="3" fill="#D55E00"/>
<circle cx="70" cy="213" r="3" fill="#009E73"/>
<circle cx="70" cy="246" r="3" fill="#56B4E9"/>
<circle cx="70" cy="199" r="3" fill="#E69F00"/>
<circle cx="70" cy="340" r="3" fill="#C44E52"/>
<circle cx="70" cy="52" r="3" fill="#000000"/>
<circle cx="143" cy="207" r="3" fill="#0072B2"/>
<circle cx="143" cy="194" r="3" fill="#CC79A7"/>
<circle cx="143" cy="340" r="3" fill="#D55E00"/>
<circle cx="143" cy="216" r="3" fill="#009E73"/>
<circle cx="143" cy="246" r="3" fill="#56B4E9"/>
<circle cx="143" cy="196" r="3" fill="#E69F00"/>
<circle cx="143" cy="340" r="3" fill="#C44E52"/>
<circle cx="143" cy="51" r="3" fill="#000000"/>
<circle cx="216" cy="209" r="3" fill="#0072B2"/>
<circle cx="216" cy="197" r="3" fill="#CC79A7"/>
<circle cx="216" cy="340" r="3" fill="#D55E00"/>
<circle cx="216" cy="216" r="3" fill="#009E73"/>
<circle cx="216" cy="246" r="3" fill="#56B4E9"/>
<circle cx="216" cy="195" r="3" fill="#E69F00"/>
<circle cx="216" cy="340" r="3" fill="#C44E52"/>
<circle cx="216" cy="50" r="3" fill="#000000"/>
<circle cx="290" cy="205" r="3" fill="#0072B2"/>
<circle cx="290" cy="193" r="3" fill="#CC79A7"/>
<circle cx="290" cy="340" r="3" fill="#D55E00"/>
<circle cx="290" cy="212" r="3" fill="#009E73"/>
<circle cx="290" cy="246" r="3" fill="#56B4E9"/>
<circle cx="290" cy="191" r="3" fill="#E69F00"/>
<circle cx="290" cy="340" r="3" fill="#C44E52"/>
<circle cx="290" cy="47" r="3" fill="#000000"/>
<circle cx="363" cy="207" r="3" fill="#0072B2"/>
<circle cx="363" cy="194" r="3" fill="#CC79A7"/>
<circle cx="363" cy="340" r="3" fill="#D55E00"/>
<circle cx="363" cy="213" r="3" fill="#009E73"/>
<circle cx="363" cy="246" r="3" fill="#56B4E9"/>
<circle cx="363" cy="199" r="3" fill="#E69F00"/>
<circle cx="363" cy="340" r="3" fill="#C44E52"/>
<circle cx="363" cy="53" r="3" fill="#000000"/>
<circle cx="436" cy="210" r="3" fill="#0072B2"/>
<circle cx="436" cy="198" r="3" fill="#CC79A7"/>
<circle cx="436" cy="340" r="3" fill="#D55E00"/>
<circle cx="436" cy="216" r="3" fill="#009E73"/>
<circle cx="436" cy="246" r="3" fill="#56B4E9"/>
<circle cx="436" cy="197" r="3" fill="#E69F00"/>
<circle cx="436" cy="340" r="3" fill="#C44E52"/>
<circle cx="436" cy="51" r="3" fill="#000000"/>
<circle cx="510" cy="97" r="3" fill="#0072B2"/>
<circle cx="510" cy="71" r="3" fill="#CC79A7"/>
<circle cx="510" cy="340" r="3" fill="#D55E00"/>
<circle cx="510" cy="118" r="3" fill="#009E73"/>
<circle cx="510" cy="246" r="3" fill="#56B4E9"/>
<circle cx="510" cy="198" r="3" fill="#E69F00"/>
<circle cx="510" cy="340" r="3" fill="#C44E52"/>
<circle cx="510" cy="52" r="3" fill="#000000"/>
<circle cx="583" cy="199" r="3" fill="#0072B2"/>
<circle cx="583" cy="186" r="3" fill="#CC79A7"/>
<circle cx="583" cy="340" r="3" fill="#D55E00"/>
<circle cx="583" cy="207" r="3" fill="#009E73"/>
<circle cx="583" cy="246" r="3" fill="#56B4E9"/>
<circle cx="583" cy="199" r="3" fill="#E69F00"/>
<circle cx="583" cy="340" r="3" fill="#C44E52"/>
<circle cx="583" cy="54" r="3" fill="#000000"/>
<circle cx="656" cy="81" r="3" fill="#0072B2"/>
<circle cx="656" cy="47" r="3" fill="#CC79A7"/>
<circle cx="656" cy="340" r="3" fill="#D55E00"/>
<circle cx="656" cy="101" r="3" fill="#009E73"/>
<circle cx="656" cy="246" r="3" fill="#56B4E9"/>
<circle cx="656" cy="193" r="3" fill="#E69F00"/>
<circle cx="656" cy="340" r="3" fill="#C44E52"/>
<circle cx="656" cy="46" r="3" fill="#000000"/>
<circle cx="730" cy="68" r="3" fill="#0072B2"/>
<circle cx="730" cy="41" r="3" fill="#CC79A7"/>
<circle cx="730" cy="340" r="3" fill="#D55E00"/>
<circle cx="730" cy="90" r="3" fill="#009E73"/>
<circle cx="730" cy="246" r="3" fill="#56B4E9"/>
<circle cx="730" cy="188" r="3" fill="#E69F00"/>
<circle cx="730" cy="340" r="3" fill="#C44E52"/>
<circle cx="730" cy="41" r="3" fill="#000000"/>
<circle cx="90" cy="20" r="4" fill="#0072B2"/>
<text x="98" y="24" text-anchor="start" font-size="12" fill="#0072B2">inte</text>
<circle cx="150" cy="20" r="4" fill="#CC79A7"/>
<text x="158" y="24" text-anchor="start" font-size="12" fill="#CC79A7">comp</text>
<circle cx="215" cy="20" r="4" fill="#D55E00"/>
<text x="223" y="24" text-anchor="start" font-size="12" fill="#D55E00">run</text>
<circle cx="270" cy="20" r="4" fill="#009E73"/>
<text x="278" y="24" text-anchor="start" font-size="12" fill="#009E73">wall</text>
<circle cx="335" cy="20" r="4" fill="#56B4E9"/>
<text x="343" y="24" text-anchor="start" font-size="12" fill="#56B4E9">mem-inte</text>
<circle cx="425" cy="20" r="4" fill="#E69F00"/>
<text x="433" y="24" text-anchor="start" font-size="12" fill="#E69F00">mem-comp</text>
<circle cx="520" cy="20" r="4" fill="#C44E52"/>
<text x="528" y="24" text-anchor="start" font-size="12" fill="#C44E52">mem-run</text>
<circle cx="605" cy="20" r="4" fill="#000000"/>
<text x="613" y="24" text-anchor="start" font-size="12" fill="#000000">mem-total</text>
</svg>
