<svg width="800" height="400" xmlns="http://www.w3.org/2000/svg">
<rect width="800" height="400" fill="white"/>
<line x1="70" y1="40" x2="70" y2="340" stroke="#333" stroke-width="1"/>
<line x1="70" y1="340" x2="730" y2="340" stroke="#333" stroke-width="1"/>
<line x1="730" y1="40" x2="730" y2="340" stroke="#333" stroke-width="1"/>
<text x="65" y="344" text-anchor="end" font-size="11" fill="#333">0</text>
<text x="65" y="194" text-anchor="end" font-size="11" fill="#333">133000</text>
<text x="65" y="44" text-anchor="end" font-size="11" fill="#333">266000</text>
<text x="15" y="190" text-anchor="middle" font-size="12" fill="#333" transform="rotate(-90 15 190)">ms</text>
<text x="735" y="344" text-anchor="start" font-size="11" fill="#333">0</text>
<text x="735" y="194" text-anchor="start" font-size="11" fill="#333">9746000000</text>
<text x="735" y="44" text-anchor="start" font-size="11" fill="#333">19492000000</text>
<text x="785" y="190" text-anchor="middle" font-size="12" fill="#333" transform="rotate(90 785 190)">bytes</text>
<polyline points="70,203 143,212 216,198 290,198 363,206 436,205 510,114 583,203 656,197 730,222" fill="none" stroke="#0072B2" stroke-width="2"/>
<polyline points="70,158 143,160 216,157 290,148 363,165 436,160 510,41 583,162 656,157 730,190" fill="none" stroke="#CC79A7" stroke-width="2"/>
<polyline points="70,340 143,339 216,340 290,339 363,340 436,340 510,339 583,340 656,340 730,340" fill="none" stroke="#D55E00" stroke-width="2"/>
<polyline points="70,301 143,302 216,300 290,300 363,302 436,301 510,276 583,301 656,300 730,307" fill="none" stroke="#009E73" stroke-width="2"/>
<polyline points="70,268 143,270 216,235 290,237 363,235 436,229 510,228 583,229 656,228 730,238" fill="none" stroke="#56B4E9" stroke-width="2"/>
<polyline points="70,258 143,258 216,229 290,229 363,230 436,225 510,224 583,226 656,224 730,229" fill="none" stroke="#E69F00" stroke-width="2"/>
<polyline points="70,338 143,338 216,339 290,338 363,339 436,339 510,337 583,339 656,339 730,339" fill="none" stroke="#C44E52" stroke-width="2"/>
<polyline points="70,129 143,116 216,53 290,70 363,66 436,58 510,49 583,59 656,41 730,70" fill="none" stroke="#000000" stroke-width="2"/>
<circle cx="70" cy="203" r="3" fill="#0072B2"/>
<circle cx="70" cy="158" r="3" fill="#CC79A7"/>
<circle cx="70" cy="340" r="3" fill="#D55E00"/>
<circle cx="70" cy="301" r="3" fill="#009E73"/>
<circle cx="70" cy="268" r="3" fill="#56B4E9"/>
<circle cx="70" cy="258" r="3" fill="#E69F00"/>
<circle cx="70" cy="338" r="3" fill="#C44E52"/>
<circle cx="70" cy="129" r="3" fill="#000000"/>
<circle cx="143" cy="212" r="3" fill="#0072B2"/>
<circle cx="143" cy="160" r="3" fill="#CC79A7"/>
<circle cx="143" cy="339" r="3" fill="#D55E00"/>
<circle cx="143" cy="302" r="3" fill="#009E73"/>
<circle cx="143" cy="270" r="3" fill="#56B4E9"/>
<circle cx="143" cy="258" r="3" fill="#E69F00"/>
<circle cx="143" cy="338" r="3" fill="#C44E52"/>
<circle cx="143" cy="116" r="3" fill="#000000"/>
<circle cx="216" cy="198" r="3" fill="#0072B2"/>
<circle cx="216" cy="157" r="3" fill="#CC79A7"/>
<circle cx="216" cy="340" r="3" fill="#D55E00"/>
<circle cx="216" cy="300" r="3" fill="#009E73"/>
<circle cx="216" cy="235" r="3" fill="#56B4E9"/>
<circle cx="216" cy="229" r="3" fill="#E69F00"/>
<circle cx="216" cy="339" r="3" fill="#C44E52"/>
<circle cx="216" cy="53" r="3" fill="#000000"/>
<circle cx="290" cy="198" r="3" fill="#0072B2"/>
<circle cx="290" cy="148" r="3" fill="#CC79A7"/>
<circle cx="290" cy="339" r="3" fill="#D55E00"/>
<circle cx="290" cy="300" r="3" fill="#009E73"/>
<circle cx="290" cy="237" r="3" fill="#56B4E9"/>
<circle cx="290" cy="229" r="3" fill="#E69F00"/>
<circle cx="290" cy="338" r="3" fill="#C44E52"/>
<circle cx="290" cy="70" r="3" fill="#000000"/>
<circle cx="363" cy="206" r="3" fill="#0072B2"/>
<circle cx="363" cy="165" r="3" fill="#CC79A7"/>
<circle cx="363" cy="340" r="3" fill="#D55E00"/>
<circle cx="363" cy="302" r="3" fill="#009E73"/>
<circle cx="363" cy="235" r="3" fill="#56B4E9"/>
<circle cx="363" cy="230" r="3" fill="#E69F00"/>
<circle cx="363" cy="339" r="3" fill="#C44E52"/>
<circle cx="363" cy="66" r="3" fill="#000000"/>
<circle cx="436" cy="205" r="3" fill="#0072B2"/>
<circle cx="436" cy="160" r="3" fill="#CC79A7"/>
<circle cx="436" cy="340" r="3" fill="#D55E00"/>
<circle cx="436" cy="301" r="3" fill="#009E73"/>
<circle cx="436" cy="229" r="3" fill="#56B4E9"/>
<circle cx="436" cy="225" r="3" fill="#E69F00"/>
<circle cx="436" cy="339" r="3" fill="#C44E52"/>
<circle cx="436" cy="58" r="3" fill="#000000"/>
<circle cx="510" cy="114" r="3" fill="#0072B2"/>
<circle cx="510" cy="41" r="3" fill="#CC79A7"/>
<circle cx="510" cy="339" r="3" fill="#D55E00"/>
<circle cx="510" cy="276" r="3" fill="#009E73"/>
<circle cx="510" cy="228" r="3" fill="#56B4E9"/>
<circle cx="510" cy="224" r="3" fill="#E69F00"/>
<circle cx="510" cy="337" r="3" fill="#C44E52"/>
<circle cx="510" cy="49" r="3" fill="#000000"/>
<circle cx="583" cy="203" r="3" fill="#0072B2"/>
<circle cx="583" cy="162" r="3" fill="#CC79A7"/>
<circle cx="583" cy="340" r="3" fill="#D55E00"/>
<circle cx="583" cy="301" r="3" fill="#009E73"/>
<circle cx="583" cy="229" r="3" fill="#56B4E9"/>
<circle cx="583" cy="226" r="3" fill="#E69F00"/>
<circle cx="583" cy="339" r="3" fill="#C44E52"/>
<circle cx="583" cy="59" r="3" fill="#000000"/>
<circle cx="656" cy="197" r="3" fill="#0072B2"/>
<circle cx="656" cy="157" r="3" fill="#CC79A7"/>
<circle cx="656" cy="340" r="3" fill="#D55E00"/>
<circle cx="656" cy="300" r="3" fill="#009E73"/>
<circle cx="656" cy="228" r="3" fill="#56B4E9"/>
<circle cx="656" cy="224" r="3" fill="#E69F00"/>
<circle cx="656" cy="339" r="3" fill="#C44E52"/>
<circle cx="656" cy="41" r="3" fill="#000000"/>
<circle cx="730" cy="222" r="3" fill="#0072B2"/>
<circle cx="730" cy="190" r="3" fill="#CC79A7"/>
<circle cx="730" cy="340" r="3" fill="#D55E00"/>
<circle cx="730" cy="307" r="3" fill="#009E73"/>
<circle cx="730" cy="238" r="3" fill="#56B4E9"/>
<circle cx="730" cy="229" r="3" fill="#E69F00"/>
<circle cx="730" cy="339" r="3" fill="#C44E52"/>
<circle cx="730" cy="70" r="3" fill="#000000"/>
<circle cx="90" cy="20" r="4" fill="#0072B2"/>
<text x="98" y="24" text-anchor="start" font-size="12" fill="#0072B2">inte</text>
<circle cx="150" cy="20" r="4" fill="#CC79A7"/>
<text x="158" y="24" text-anchor="start" font-size="12" fill="#CC79A7">comp</text>
<circle cx="215" cy="20" r="4" fill="#D55E00"/>
<text x="223" y="24" text-anchor="start" font-size="12" fill="#D55E00">run</text>
<circle cx="270" cy="20" r="4" fill="#009E73"/>
<text x="278" y="24" text-anchor="start" font-size="12" fill="#009E73">wall</text>
<circle cx="335" cy="20" r="4" fill="#56B4E9"/>
<text x="343" y="24" text-anchor="start" font-size="12" fill="#56B4E9">mem-inte</text>
<circle cx="425" cy="20" r="4" fill="#E69F00"/>
<text x="433" y="24" text-anchor="start" font-size="12" fill="#E69F00">mem-comp</text>
<circle cx="520" cy="20" r="4" fill="#C44E52"/>
<text x="528" y="24" text-anchor="start" font-size="12" fill="#C44E52">mem-run</text>
<circle cx="605" cy="20" r="4" fill="#000000"/>
<text x="613" y="24" text-anchor="start" font-size="12" fill="#000000">mem-total</text>
</svg>
