<svg width="800" height="400" xmlns="http://www.w3.org/2000/svg">
<rect width="800" height="400" fill="white"/>
<line x1="70" y1="40" x2="70" y2="340" stroke="#333" stroke-width="1"/>
<line x1="70" y1="340" x2="730" y2="340" stroke="#333" stroke-width="1"/>
<line x1="730" y1="40" x2="730" y2="340" stroke="#333" stroke-width="1"/>
<text x="65" y="344" text-anchor="end" font-size="11" fill="#333">0</text>
<text x="65" y="194" text-anchor="end" font-size="11" fill="#333">394000</text>
<text x="65" y="44" text-anchor="end" font-size="11" fill="#333">788000</text>
<text x="15" y="190" text-anchor="middle" font-size="12" fill="#333" transform="rotate(-90 15 190)">ms</text>
<text x="735" y="344" text-anchor="start" font-size="11" fill="#333">0</text>
<text x="735" y="194" text-anchor="start" font-size="11" fill="#333">5077000000</text>
<text x="735" y="44" text-anchor="start" font-size="11" fill="#333">10154000000</text>
<text x="785" y="190" text-anchor="middle" font-size="12" fill="#333" transform="rotate(90 785 190)">bytes</text>
<polyline points="70,128 143,119 216,99 290,82 363,64 436,140 510,78 583,116 656,139 730,115" fill="none" stroke="#0072B2" stroke-width="2"/>
<polyline points="70,94 143,109 216,101 290,94 363,41 436,126 510,64 583,88 656,116 730,108" fill="none" stroke="#CC79A7" stroke-width="2"/>
<polyline points="70,340 143,340 216,340 290,340 363,340 436,340 510,340 583,340 656,340 730,340" fill="none" stroke="#D55E00" stroke-width="2"/>
<polyline points="70,267 143,269 216,264 290,264 363,251 436,276 510,256 583,266 656,275 730,269" fill="none" stroke="#009E73" stroke-width="2"/>
<polyline points="70,269 143,269 216,269 290,269 363,269 436,269 510,269 583,269 656,269 730,269" fill="none" stroke="#56B4E9" stroke-width="2"/>
<polyline points="70,206 143,205 216,206 290,205 363,206 436,206 510,205 583,206 656,203 730,205" fill="none" stroke="#E69F00" stroke-width="2"/>
<polyline points="70,340 143,340 216,340 290,340 363,340 436,340 510,340 583,340 656,340 730,340" fill="none" stroke="#C44E52" stroke-width="2"/>
<polyline points="70,43 143,43 216,43 290,43 363,43 436,43 510,43 583,43 656,41 730,42" fill="none" stroke="#000000" stroke-width="2"/>
<circle cx="70" cy="128" r="3" fill="#0072B2"/>
<circle cx="70" cy="94" r="3" fill="#CC79A7"/>
<circle cx="70" cy="340" r="3" fill="#D55E00"/>
<circle cx="70" cy="267" r="3" fill="#009E73"/>
<circle cx="70" cy="269" r="3" fill="#56B4E9"/>
<circle cx="70" cy="206" r="3" fill="#E69F00"/>
<circle cx="70" cy="340" r="3" fill="#C44E52"/>
<circle cx="70" cy="43" r="3" fill="#000000"/>
<circle cx="143" cy="119" r="3" fill="#0072B2"/>
<circle cx="143" cy="109" r="3" fill="#CC79A7"/>
<circle cx="143" cy="340" r="3" fill="#D55E00"/>
<circle cx="143" cy="269" r="3" fill="#009E73"/>
<circle cx="143" cy="269" r="3" fill="#56B4E9"/>
<circle cx="143" cy="205" r="3" fill="#E69F00"/>
<circle cx="143" cy="340" r="3" fill="#C44E52"/>
<circle cx="143" cy="43" r="3" fill="#000000"/>
<circle cx="216" cy="99" r="3" fill="#0072B2"/>
<circle cx="216" cy="101" r="3" fill="#CC79A7"/>
<circle cx="216" cy="340" r="3" fill="#D55E00"/>
<circle cx="216" cy="264" r="3" fill="#009E73"/>
<circle cx="216" cy="269" r="3" fill="#56B4E9"/>
<circle cx="216" cy="206" r="3" fill="#E69F00"/>
<circle cx="216" cy="340" r="3" fill="#C44E52"/>
<circle cx="216" cy="43" r="3" fill="#000000"/>
<circle cx="290" cy="82" r="3" fill="#0072B2"/>
<circle cx="290" cy="94" r="3" fill="#CC79A7"/>
<circle cx="290" cy="340" r="3" fill="#D55E00"/>
<circle cx="290" cy="264" r="3" fill="#009E73"/>
<circle cx="290" cy="269" r="3" fill="#56B4E9"/>
<circle cx="290" cy="205" r="3" fill="#E69F00"/>
<circle cx="290" cy="340" r="3" fill="#C44E52"/>
<circle cx="290" cy="43" r="3" fill="#000000"/>
<circle cx="363" cy="64" r="3" fill="#0072B2"/>
<circle cx="363" cy="41" r="3" fill="#CC79A7"/>
<circle cx="363" cy="340" r="3" fill="#D55E00"/>
<circle cx="363" cy="251" r="3" fill="#009E73"/>
<circle cx="363" cy="269" r="3" fill="#56B4E9"/>
<circle cx="363" cy="206" r="3" fill="#E69F00"/>
<circle cx="363" cy="340" r="3" fill="#C44E52"/>
<circle cx="363" cy="43" r="3" fill="#000000"/>
<circle cx="436" cy="140" r="3" fill="#0072B2"/>
<circle cx="436" cy="126" r="3" fill="#CC79A7"/>
<circle cx="436" cy="340" r="3" fill="#D55E00"/>
<circle cx="436" cy="276" r="3" fill="#009E73"/>
<circle cx="436" cy="269" r="3" fill="#56B4E9"/>
<circle cx="436" cy="206" r="3" fill="#E69F00"/>
<circle cx="436" cy="340" r="3" fill="#C44E52"/>
<circle cx="436" cy="43" r="3" fill="#000000"/>
<circle cx="510" cy="78" r="3" fill="#0072B2"/>
<circle cx="510" cy="64" r="3" fill="#CC79A7"/>
<circle cx="510" cy="340" r="3" fill="#D55E00"/>
<circle cx="510" cy="256" r="3" fill="#009E73"/>
<circle cx="510" cy="269" r="3" fill="#56B4E9"/>
<circle cx="510" cy="205" r="3" fill="#E69F00"/>
<circle cx="510" cy="340" r="3" fill="#C44E52"/>
<circle cx="510" cy="43" r="3" fill="#000000"/>
<circle cx="583" cy="116" r="3" fill="#0072B2"/>
<circle cx="583" cy="88" r="3" fill="#CC79A7"/>
<circle cx="583" cy="340" r="3" fill="#D55E00"/>
<circle cx="583" cy="266" r="3" fill="#009E73"/>
<circle cx="583" cy="269" r="3" fill="#56B4E9"/>
<circle cx="583" cy="206" r="3" fill="#E69F00"/>
<circle cx="583" cy="340" r="3" fill="#C44E52"/>
<circle cx="583" cy="43" r="3" fill="#000000"/>
<circle cx="656" cy="139" r="3" fill="#0072B2"/>
<circle cx="656" cy="116" r="3" fill="#CC79A7"/>
<circle cx="656" cy="340" r="3" fill="#D55E00"/>
<circle cx="656" cy="275" r="3" fill="#009E73"/>
<circle cx="656" cy="269" r="3" fill="#56B4E9"/>
<circle cx="656" cy="203" r="3" fill="#E69F00"/>
<circle cx="656" cy="340" r="3" fill="#C44E52"/>
<circle cx="656" cy="41" r="3" fill="#000000"/>
<circle cx="730" cy="115" r="3" fill="#0072B2"/>
<circle cx="730" cy="108" r="3" fill="#CC79A7"/>
<circle cx="730" cy="340" r="3" fill="#D55E00"/>
<circle cx="730" cy="269" r="3" fill="#009E73"/>
<circle cx="730" cy="269" r="3" fill="#56B4E9"/>
<circle cx="730" cy="205" r="3" fill="#E69F00"/>
<circle cx="730" cy="340" r="3" fill="#C44E52"/>
<circle cx="730" cy="42" r="3" fill="#000000"/>
<circle cx="90" cy="20" r="4" fill="#0072B2"/>
<text x="98" y="24" text-anchor="start" font-size="12" fill="#0072B2">inte</text>
<circle cx="150" cy="20" r="4" fill="#CC79A7"/>
<text x="158" y="24" text-anchor="start" font-size="12" fill="#CC79A7">comp</text>
<circle cx="215" cy="20" r="4" fill="#D55E00"/>
<text x="223" y="24" text-anchor="start" font-size="12" fill="#D55E00">run</text>
<circle cx="270" cy="20" r="4" fill="#009E73"/>
<text x="278" y="24" text-anchor="start" font-size="12" fill="#009E73">wall</text>
<circle cx="335" cy="20" r="4" fill="#56B4E9"/>
<text x="343" y="24" text-anchor="start" font-size="12" fill="#56B4E9">mem-inte</text>
<circle cx="425" cy="20" r="4" fill="#E69F00"/>
<text x="433" y="24" text-anchor="start" font-size="12" fill="#E69F00">mem-comp</text>
<circle cx="520" cy="20" r="4" fill="#C44E52"/>
<text x="528" y="24" text-anchor="start" font-size="12" fill="#C44E52">mem-run</text>
<circle cx="605" cy="20" r="4" fill="#000000"/>
<text x="613" y="24" text-anchor="start" font-size="12" fill="#000000">mem-total</text>
</svg>
