<svg width="800" height="400" xmlns="http://www.w3.org/2000/svg">
<rect width="800" height="400" fill="white"/>
<line x1="70" y1="40" x2="70" y2="340" stroke="#333" stroke-width="1"/>
<line x1="70" y1="340" x2="780" y2="340" stroke="#333" stroke-width="1"/>
<text x="65" y="344" text-anchor="end" font-size="11" fill="#333">0</text>
<text x="65" y="194" text-anchor="end" font-size="11" fill="#333">195500</text>
<text x="65" y="44" text-anchor="end" font-size="11" fill="#333">391000</text>
<text x="15" y="190" text-anchor="middle" font-size="12" fill="#333" transform="rotate(-90 15 190)">ms</text>
<polyline points="70,229 107,231 144,230 182,230 219,229 256,231 294,230 331,227 368,230 406,226 443,229 481,297 518,297 555,300 593,300 630,301 667,301 705,300 742,300 780,301" fill="none" stroke="#2196F3" stroke-width="2"/>
<polyline points="70,300 107,301 144,300 182,300 219,300 256,301 294,300 331,299 368,300 406,299 443,300 481,323 518,323 555,326 593,326 630,326 667,326 705,326 742,326 780,326" fill="none" stroke="#F44336" stroke-width="2"/>
<polyline points="70,48 107,54 144,50 182,51 219,50 256,52 294,50 331,41 368,51 406,42 443,45 481,227 518,226 555,226 593,228 630,228 667,229 705,226 742,228 780,227" fill="none" stroke="#4CAF50" stroke-width="2"/>
<circle cx="70" cy="229" r="3" fill="#2196F3"/>
<circle cx="70" cy="300" r="3" fill="#F44336"/>
<circle cx="70" cy="48" r="3" fill="#4CAF50"/>
<circle cx="107" cy="231" r="3" fill="#2196F3"/>
<circle cx="107" cy="301" r="3" fill="#F44336"/>
<circle cx="107" cy="54" r="3" fill="#4CAF50"/>
<circle cx="144" cy="230" r="3" fill="#2196F3"/>
<circle cx="144" cy="300" r="3" fill="#F44336"/>
<circle cx="144" cy="50" r="3" fill="#4CAF50"/>
<circle cx="182" cy="230" r="3" fill="#2196F3"/>
<circle cx="182" cy="300" r="3" fill="#F44336"/>
<circle cx="182" cy="51" r="3" fill="#4CAF50"/>
<circle cx="219" cy="229" r="3" fill="#2196F3"/>
<circle cx="219" cy="300" r="3" fill="#F44336"/>
<circle cx="219" cy="50" r="3" fill="#4CAF50"/>
<circle cx="256" cy="231" r="3" fill="#2196F3"/>
<circle cx="256" cy="301" r="3" fill="#F44336"/>
<circle cx="256" cy="52" r="3" fill="#4CAF50"/>
<circle cx="294" cy="230" r="3" fill="#2196F3"/>
<circle cx="294" cy="300" r="3" fill="#F44336"/>
<circle cx="294" cy="50" r="3" fill="#4CAF50"/>
<circle cx="331" cy="227" r="3" fill="#2196F3"/>
<circle cx="331" cy="299" r="3" fill="#F44336"/>
<circle cx="331" cy="41" r="3" fill="#4CAF50"/>
<circle cx="368" cy="230" r="3" fill="#2196F3"/>
<circle cx="368" cy="300" r="3" fill="#F44336"/>
<circle cx="368" cy="51" r="3" fill="#4CAF50"/>
<circle cx="406" cy="226" r="3" fill="#2196F3"/>
<circle cx="406" cy="299" r="3" fill="#F44336"/>
<circle cx="406" cy="42" r="3" fill="#4CAF50"/>
<circle cx="443" cy="229" r="3" fill="#2196F3"/>
<circle cx="443" cy="300" r="3" fill="#F44336"/>
<circle cx="443" cy="45" r="3" fill="#4CAF50"/>
<circle cx="481" cy="297" r="3" fill="#2196F3"/>
<circle cx="481" cy="323" r="3" fill="#F44336"/>
<circle cx="481" cy="227" r="3" fill="#4CAF50"/>
<circle cx="518" cy="297" r="3" fill="#2196F3"/>
<circle cx="518" cy="323" r="3" fill="#F44336"/>
<circle cx="518" cy="226" r="3" fill="#4CAF50"/>
<circle cx="555" cy="300" r="3" fill="#2196F3"/>
<circle cx="555" cy="326" r="3" fill="#F44336"/>
<circle cx="555" cy="226" r="3" fill="#4CAF50"/>
<circle cx="593" cy="300" r="3" fill="#2196F3"/>
<circle cx="593" cy="326" r="3" fill="#F44336"/>
<circle cx="593" cy="228" r="3" fill="#4CAF50"/>
<circle cx="630" cy="301" r="3" fill="#2196F3"/>
<circle cx="630" cy="326" r="3" fill="#F44336"/>
<circle cx="630" cy="228" r="3" fill="#4CAF50"/>
<circle cx="667" cy="301" r="3" fill="#2196F3"/>
<circle cx="667" cy="326" r="3" fill="#F44336"/>
<circle cx="667" cy="229" r="3" fill="#4CAF50"/>
<circle cx="705" cy="300" r="3" fill="#2196F3"/>
<circle cx="705" cy="326" r="3" fill="#F44336"/>
<circle cx="705" cy="226" r="3" fill="#4CAF50"/>
<circle cx="742" cy="300" r="3" fill="#2196F3"/>
<circle cx="742" cy="326" r="3" fill="#F44336"/>
<circle cx="742" cy="228" r="3" fill="#4CAF50"/>
<circle cx="780" cy="301" r="3" fill="#2196F3"/>
<circle cx="780" cy="326" r="3" fill="#F44336"/>
<circle cx="780" cy="227" r="3" fill="#4CAF50"/>
<circle cx="90" cy="20" r="4" fill="#2196F3"/>
<text x="98" y="24" text-anchor="start" font-size="12" fill="#2196F3">Interpreted</text>
<circle cx="200" cy="20" r="4" fill="#F44336"/>
<text x="208" y="24" text-anchor="start" font-size="12" fill="#F44336">Compiled</text>
<circle cx="300" cy="20" r="4" fill="#4CAF50"/>
<text x="308" y="24" text-anchor="start" font-size="12" fill="#4CAF50">Wall-clock</text>
</svg>
