<svg width="800" height="400" xmlns="http://www.w3.org/2000/svg">
<rect width="800" height="400" fill="white"/>
<line x1="70" y1="40" x2="70" y2="340" stroke="#333" stroke-width="1"/>
<line x1="70" y1="340" x2="730" y2="340" stroke="#333" stroke-width="1"/>
<line x1="730" y1="40" x2="730" y2="340" stroke="#333" stroke-width="1"/>
<text x="65" y="344" text-anchor="end" font-size="11" fill="#333">0</text>
<text x="65" y="194" text-anchor="end" font-size="11" fill="#333">102500</text>
<text x="65" y="44" text-anchor="end" font-size="11" fill="#333">205000</text>
<text x="15" y="190" text-anchor="middle" font-size="12" fill="#333" transform="rotate(-90 15 190)">ms</text>
<text x="735" y="344" text-anchor="start" font-size="11" fill="#333">0</text>
<text x="735" y="194" text-anchor="start" font-size="11" fill="#333">11620000000</text>
<text x="735" y="44" text-anchor="start" font-size="11" fill="#333">23240000000</text>
<text x="785" y="190" text-anchor="middle" font-size="12" fill="#333" transform="rotate(90 785 190)">bytes</text>
<polyline points="70,151 143,153 216,143 290,142 363,145 436,148 510,143 583,143 656,142 730,145" fill="none" stroke="#0072B2" stroke-width="2"/>
<polyline points="70,41 143,48 216,42 290,45 363,53 436,54 510,45 583,48 656,46 730,48" fill="none" stroke="#CC79A7" stroke-width="2"/>
<polyline points="70,339 143,339 216,339 290,340 363,340 436,340 510,339 583,339 656,340 730,340" fill="none" stroke="#D55E00" stroke-width="2"/>
<polyline points="70,308 143,308 216,307 290,307 363,307 436,308 510,307 583,307 656,307 730,307" fill="none" stroke="#009E73" stroke-width="2"/>
<polyline points="70,224 143,228 216,197 290,195 363,212 436,209 510,201 583,200 656,199 730,206" fill="none" stroke="#984EA3" stroke-width="2"/>
<polyline points="70,300 143,300 216,300 290,288 363,288 436,288 510,288 583,288 656,288 730,288" fill="none" stroke="#56B4E9" stroke-width="2"/>
<polyline points="70,200 143,200 216,200 290,190 363,190 436,190 510,190 583,190 656,190 730,190" fill="none" stroke="#E69F00" stroke-width="2"/>
<polyline points="70,339 143,339 216,339 290,339 363,340 436,340 510,339 583,338 656,340 730,340" fill="none" stroke="#C44E52" stroke-width="2"/>
<polyline points="70,65 143,65 216,65 290,42 363,41 436,41 510,41 583,41 656,42 730,42" fill="none" stroke="#000000" stroke-width="2"/>
<polyline points="70,333 143,333 216,333 290,331 363,331 436,331 510,331 583,331 656,331 730,322" fill="none" stroke="#8C564B" stroke-width="2"/>
<circle cx="70" cy="151" r="3" fill="#0072B2"/>
<circle cx="70" cy="41" r="3" fill="#CC79A7"/>
<circle cx="70" cy="339" r="3" fill="#D55E00"/>
<circle cx="70" cy="308" r="3" fill="#009E73"/>
<circle cx="70" cy="224" r="3" fill="#984EA3"/>
<circle cx="70" cy="300" r="3" fill="#56B4E9"/>
<circle cx="70" cy="200" r="3" fill="#E69F00"/>
<circle cx="70" cy="339" r="3" fill="#C44E52"/>
<circle cx="70" cy="65" r="3" fill="#000000"/>
<circle cx="70" cy="333" r="3" fill="#8C564B"/>
<circle cx="143" cy="153" r="3" fill="#0072B2"/>
<circle cx="143" cy="48" r="3" fill="#CC79A7"/>
<circle cx="143" cy="339" r="3" fill="#D55E00"/>
<circle cx="143" cy="308" r="3" fill="#009E73"/>
<circle cx="143" cy="228" r="3" fill="#984EA3"/>
<circle cx="143" cy="300" r="3" fill="#56B4E9"/>
<circle cx="143" cy="200" r="3" fill="#E69F00"/>
<circle cx="143" cy="339" r="3" fill="#C44E52"/>
<circle cx="143" cy="65" r="3" fill="#000000"/>
<circle cx="143" cy="333" r="3" fill="#8C564B"/>
<circle cx="216" cy="143" r="3" fill="#0072B2"/>
<circle cx="216" cy="42" r="3" fill="#CC79A7"/>
<circle cx="216" cy="339" r="3" fill="#D55E00"/>
<circle cx="216" cy="307" r="3" fill="#009E73"/>
<circle cx="216" cy="197" r="3" fill="#984EA3"/>
<circle cx="216" cy="300" r="3" fill="#56B4E9"/>
<circle cx="216" cy="200" r="3" fill="#E69F00"/>
<circle cx="216" cy="339" r="3" fill="#C44E52"/>
<circle cx="216" cy="65" r="3" fill="#000000"/>
<circle cx="216" cy="333" r="3" fill="#8C564B"/>
<circle cx="290" cy="142" r="3" fill="#0072B2"/>
<circle cx="290" cy="45" r="3" fill="#CC79A7"/>
<circle cx="290" cy="340" r="3" fill="#D55E00"/>
<circle cx="290" cy="307" r="3" fill="#009E73"/>
<circle cx="290" cy="195" r="3" fill="#984EA3"/>
<circle cx="290" cy="288" r="3" fill="#56B4E9"/>
<circle cx="290" cy="190" r="3" fill="#E69F00"/>
<circle cx="290" cy="339" r="3" fill="#C44E52"/>
<circle cx="290" cy="42" r="3" fill="#000000"/>
<circle cx="290" cy="331" r="3" fill="#8C564B"/>
<circle cx="363" cy="145" r="3" fill="#0072B2"/>
<circle cx="363" cy="53" r="3" fill="#CC79A7"/>
<circle cx="363" cy="340" r="3" fill="#D55E00"/>
<circle cx="363" cy="307" r="3" fill="#009E73"/>
<circle cx="363" cy="212" r="3" fill="#984EA3"/>
<circle cx="363" cy="288" r="3" fill="#56B4E9"/>
<circle cx="363" cy="190" r="3" fill="#E69F00"/>
<circle cx="363" cy="340" r="3" fill="#C44E52"/>
<circle cx="363" cy="41" r="3" fill="#000000"/>
<circle cx="363" cy="331" r="3" fill="#8C564B"/>
<circle cx="436" cy="148" r="3" fill="#0072B2"/>
<circle cx="436" cy="54" r="3" fill="#CC79A7"/>
<circle cx="436" cy="340" r="3" fill="#D55E00"/>
<circle cx="436" cy="308" r="3" fill="#009E73"/>
<circle cx="436" cy="209" r="3" fill="#984EA3"/>
<circle cx="436" cy="288" r="3" fill="#56B4E9"/>
<circle cx="436" cy="190" r="3" fill="#E69F00"/>
<circle cx="436" cy="340" r="3" fill="#C44E52"/>
<circle cx="436" cy="41" r="3" fill="#000000"/>
<circle cx="436" cy="331" r="3" fill="#8C564B"/>
<circle cx="510" cy="143" r="3" fill="#0072B2"/>
<circle cx="510" cy="45" r="3" fill="#CC79A7"/>
<circle cx="510" cy="339" r="3" fill="#D55E00"/>
<circle cx="510" cy="307" r="3" fill="#009E73"/>
<circle cx="510" cy="201" r="3" fill="#984EA3"/>
<circle cx="510" cy="288" r="3" fill="#56B4E9"/>
<circle cx="510" cy="190" r="3" fill="#E69F00"/>
<circle cx="510" cy="339" r="3" fill="#C44E52"/>
<circle cx="510" cy="41" r="3" fill="#000000"/>
<circle cx="510" cy="331" r="3" fill="#8C564B"/>
<circle cx="583" cy="143" r="3" fill="#0072B2"/>
<circle cx="583" cy="48" r="3" fill="#CC79A7"/>
<circle cx="583" cy="339" r="3" fill="#D55E00"/>
<circle cx="583" cy="307" r="3" fill="#009E73"/>
<circle cx="583" cy="200" r="3" fill="#984EA3"/>
<circle cx="583" cy="288" r="3" fill="#56B4E9"/>
<circle cx="583" cy="190" r="3" fill="#E69F00"/>
<circle cx="583" cy="338" r="3" fill="#C44E52"/>
<circle cx="583" cy="41" r="3" fill="#000000"/>
<circle cx="583" cy="331" r="3" fill="#8C564B"/>
<circle cx="656" cy="142" r="3" fill="#0072B2"/>
<circle cx="656" cy="46" r="3" fill="#CC79A7"/>
<circle cx="656" cy="340" r="3" fill="#D55E00"/>
<circle cx="656" cy="307" r="3" fill="#009E73"/>
<circle cx="656" cy="199" r="3" fill="#984EA3"/>
<circle cx="656" cy="288" r="3" fill="#56B4E9"/>
<circle cx="656" cy="190" r="3" fill="#E69F00"/>
<circle cx="656" cy="340" r="3" fill="#C44E52"/>
<circle cx="656" cy="42" r="3" fill="#000000"/>
<circle cx="656" cy="331" r="3" fill="#8C564B"/>
<circle cx="730" cy="145" r="3" fill="#0072B2"/>
<circle cx="730" cy="48" r="3" fill="#CC79A7"/>
<circle cx="730" cy="340" r="3" fill="#D55E00"/>
<circle cx="730" cy="307" r="3" fill="#009E73"/>
<circle cx="730" cy="206" r="3" fill="#984EA3"/>
<circle cx="730" cy="288" r="3" fill="#56B4E9"/>
<circle cx="730" cy="190" r="3" fill="#E69F00"/>
<circle cx="730" cy="340" r="3" fill="#C44E52"/>
<circle cx="730" cy="42" r="3" fill="#000000"/>
<circle cx="730" cy="322" r="3" fill="#8C564B"/>
<circle cx="70" cy="20" r="4" fill="#0072B2"/>
<text x="78" y="24" text-anchor="start" font-size="12" fill="#0072B2">inte</text>
<circle cx="130" cy="20" r="4" fill="#CC79A7"/>
<text x="138" y="24" text-anchor="start" font-size="12" fill="#CC79A7">comp</text>
<circle cx="195" cy="20" r="4" fill="#D55E00"/>
<text x="203" y="24" text-anchor="start" font-size="12" fill="#D55E00">run</text>
<circle cx="250" cy="20" r="4" fill="#009E73"/>
<text x="258" y="24" text-anchor="start" font-size="12" fill="#009E73">wall</text>
<circle cx="315" cy="20" r="4" fill="#984EA3"/>
<text x="323" y="24" text-anchor="start" font-size="12" fill="#984EA3">self</text>
<circle cx="380" cy="20" r="4" fill="#56B4E9"/>
<text x="388" y="24" text-anchor="start" font-size="12" fill="#56B4E9">mem-inte</text>
<circle cx="470" cy="20" r="4" fill="#E69F00"/>
<text x="478" y="24" text-anchor="start" font-size="12" fill="#E69F00">mem-comp</text>
<circle cx="565" cy="20" r="4" fill="#C44E52"/>
<text x="573" y="24" text-anchor="start" font-size="12" fill="#C44E52">mem-run</text>
<circle cx="650" cy="20" r="4" fill="#000000"/>
<text x="658" y="24" text-anchor="start" font-size="12" fill="#000000">mem-total</text>
<circle cx="745" cy="20" r="4" fill="#8C564B"/>
<text x="753" y="24" text-anchor="start" font-size="12" fill="#8C564B">self-mem</text>
</svg>
