<svg width="800" height="400" xmlns="http://www.w3.org/2000/svg">
<rect width="800" height="400" fill="white"/>
<line x1="70" y1="40" x2="70" y2="340" stroke="#333" stroke-width="1"/>
<line x1="70" y1="340" x2="730" y2="340" stroke="#333" stroke-width="1"/>
<line x1="730" y1="40" x2="730" y2="340" stroke="#333" stroke-width="1"/>
<text x="65" y="344" text-anchor="end" font-size="11" fill="#333">0</text>
<text x="65" y="194" text-anchor="end" font-size="11" fill="#333">582000</text>
<text x="65" y="44" text-anchor="end" font-size="11" fill="#333">1164000</text>
<text x="15" y="190" text-anchor="middle" font-size="12" fill="#333" transform="rotate(-90 15 190)">ms</text>
<text x="735" y="344" text-anchor="start" font-size="11" fill="#333">0</text>
<text x="735" y="194" text-anchor="start" font-size="11" fill="#333">157320500000</text>
<text x="735" y="44" text-anchor="start" font-size="11" fill="#333">314641000000</text>
<text x="785" y="190" text-anchor="middle" font-size="12" fill="#333" transform="rotate(90 785 190)">bytes</text>
<polyline points="70,306 143,306 216,306 290,304 363,304 436,304 510,304 583,304 656,306 730,41" fill="none" stroke="#0072B2" stroke-width="2"/>
<polyline points="70,289 143,289 216,289 290,288 363,288 436,288 510,287 583,288 656,289 730,41" fill="none" stroke="#CC79A7" stroke-width="2"/>
<polyline points="70,340 143,340 216,340 290,340 363,340 436,340 510,340 583,340 656,340 730,340" fill="none" stroke="#D55E00" stroke-width="2"/>
<polyline points="70,335 143,335 216,335 290,334 363,334 436,334 510,334 583,334 656,335 730,301" fill="none" stroke="#009E73" stroke-width="2"/>
<polyline points="70,316 143,316 216,317 290,312 363,312 436,312 510,311 583,312 656,316 730,113" fill="none" stroke="#984EA3" stroke-width="2"/>
<polyline points="70,337 143,337 216,337 290,337 363,337 436,337 510,337 583,337 656,337 730,218" fill="none" stroke="#56B4E9" stroke-width="2"/>
<polyline points="70,329 143,329 216,329 290,329 363,329 436,329 510,329 583,329 656,329 730,218" fill="none" stroke="#E69F00" stroke-width="2"/>
<polyline points="70,340 143,340 216,340 290,340 363,340 436,340 510,340 583,340 656,340 730,340" fill="none" stroke="#C44E52" stroke-width="2"/>
<polyline points="70,318 143,318 216,318 290,318 363,318 436,319 510,318 583,318 656,319 730,41" fill="none" stroke="#000000" stroke-width="2"/>
<polyline points="70,340 143,340 216,339 290,340 363,340 436,340 510,340 583,340 656,340 730,324" fill="none" stroke="#8C564B" stroke-width="2"/>
<circle cx="70" cy="306" r="3" fill="#0072B2"/>
<circle cx="70" cy="289" r="3" fill="#CC79A7"/>
<circle cx="70" cy="340" r="3" fill="#D55E00"/>
<circle cx="70" cy="335" r="3" fill="#009E73"/>
<circle cx="70" cy="316" r="3" fill="#984EA3"/>
<circle cx="70" cy="337" r="3" fill="#56B4E9"/>
<circle cx="70" cy="329" r="3" fill="#E69F00"/>
<circle cx="70" cy="340" r="3" fill="#C44E52"/>
<circle cx="70" cy="318" r="3" fill="#000000"/>
<circle cx="70" cy="340" r="3" fill="#8C564B"/>
<circle cx="143" cy="306" r="3" fill="#0072B2"/>
<circle cx="143" cy="289" r="3" fill="#CC79A7"/>
<circle cx="143" cy="340" r="3" fill="#D55E00"/>
<circle cx="143" cy="335" r="3" fill="#009E73"/>
<circle cx="143" cy="316" r="3" fill="#984EA3"/>
<circle cx="143" cy="337" r="3" fill="#56B4E9"/>
<circle cx="143" cy="329" r="3" fill="#E69F00"/>
<circle cx="143" cy="340" r="3" fill="#C44E52"/>
<circle cx="143" cy="318" r="3" fill="#000000"/>
<circle cx="143" cy="340" r="3" fill="#8C564B"/>
<circle cx="216" cy="306" r="3" fill="#0072B2"/>
<circle cx="216" cy="289" r="3" fill="#CC79A7"/>
<circle cx="216" cy="340" r="3" fill="#D55E00"/>
<circle cx="216" cy="335" r="3" fill="#009E73"/>
<circle cx="216" cy="317" r="3" fill="#984EA3"/>
<circle cx="216" cy="337" r="3" fill="#56B4E9"/>
<circle cx="216" cy="329" r="3" fill="#E69F00"/>
<circle cx="216" cy="340" r="3" fill="#C44E52"/>
<circle cx="216" cy="318" r="3" fill="#000000"/>
<circle cx="216" cy="339" r="3" fill="#8C564B"/>
<circle cx="290" cy="304" r="3" fill="#0072B2"/>
<circle cx="290" cy="288" r="3" fill="#CC79A7"/>
<circle cx="290" cy="340" r="3" fill="#D55E00"/>
<circle cx="290" cy="334" r="3" fill="#009E73"/>
<circle cx="290" cy="312" r="3" fill="#984EA3"/>
<circle cx="290" cy="337" r="3" fill="#56B4E9"/>
<circle cx="290" cy="329" r="3" fill="#E69F00"/>
<circle cx="290" cy="340" r="3" fill="#C44E52"/>
<circle cx="290" cy="318" r="3" fill="#000000"/>
<circle cx="290" cy="340" r="3" fill="#8C564B"/>
<circle cx="363" cy="304" r="3" fill="#0072B2"/>
<circle cx="363" cy="288" r="3" fill="#CC79A7"/>
<circle cx="363" cy="340" r="3" fill="#D55E00"/>
<circle cx="363" cy="334" r="3" fill="#009E73"/>
<circle cx="363" cy="312" r="3" fill="#984EA3"/>
<circle cx="363" cy="337" r="3" fill="#56B4E9"/>
<circle cx="363" cy="329" r="3" fill="#E69F00"/>
<circle cx="363" cy="340" r="3" fill="#C44E52"/>
<circle cx="363" cy="318" r="3" fill="#000000"/>
<circle cx="363" cy="340" r="3" fill="#8C564B"/>
<circle cx="436" cy="304" r="3" fill="#0072B2"/>
<circle cx="436" cy="288" r="3" fill="#CC79A7"/>
<circle cx="436" cy="340" r="3" fill="#D55E00"/>
<circle cx="436" cy="334" r="3" fill="#009E73"/>
<circle cx="436" cy="312" r="3" fill="#984EA3"/>
<circle cx="436" cy="337" r="3" fill="#56B4E9"/>
<circle cx="436" cy="329" r="3" fill="#E69F00"/>
<circle cx="436" cy="340" r="3" fill="#C44E52"/>
<circle cx="436" cy="319" r="3" fill="#000000"/>
<circle cx="436" cy="340" r="3" fill="#8C564B"/>
<circle cx="510" cy="304" r="3" fill="#0072B2"/>
<circle cx="510" cy="287" r="3" fill="#CC79A7"/>
<circle cx="510" cy="340" r="3" fill="#D55E00"/>
<circle cx="510" cy="334" r="3" fill="#009E73"/>
<circle cx="510" cy="311" r="3" fill="#984EA3"/>
<circle cx="510" cy="337" r="3" fill="#56B4E9"/>
<circle cx="510" cy="329" r="3" fill="#E69F00"/>
<circle cx="510" cy="340" r="3" fill="#C44E52"/>
<circle cx="510" cy="318" r="3" fill="#000000"/>
<circle cx="510" cy="340" r="3" fill="#8C564B"/>
<circle cx="583" cy="304" r="3" fill="#0072B2"/>
<circle cx="583" cy="288" r="3" fill="#CC79A7"/>
<circle cx="583" cy="340" r="3" fill="#D55E00"/>
<circle cx="583" cy="334" r="3" fill="#009E73"/>
<circle cx="583" cy="312" r="3" fill="#984EA3"/>
<circle cx="583" cy="337" r="3" fill="#56B4E9"/>
<circle cx="583" cy="329" r="3" fill="#E69F00"/>
<circle cx="583" cy="340" r="3" fill="#C44E52"/>
<circle cx="583" cy="318" r="3" fill="#000000"/>
<circle cx="583" cy="340" r="3" fill="#8C564B"/>
<circle cx="656" cy="306" r="3" fill="#0072B2"/>
<circle cx="656" cy="289" r="3" fill="#CC79A7"/>
<circle cx="656" cy="340" r="3" fill="#D55E00"/>
<circle cx="656" cy="335" r="3" fill="#009E73"/>
<circle cx="656" cy="316" r="3" fill="#984EA3"/>
<circle cx="656" cy="337" r="3" fill="#56B4E9"/>
<circle cx="656" cy="329" r="3" fill="#E69F00"/>
<circle cx="656" cy="340" r="3" fill="#C44E52"/>
<circle cx="656" cy="319" r="3" fill="#000000"/>
<circle cx="656" cy="340" r="3" fill="#8C564B"/>
<circle cx="730" cy="41" r="3" fill="#0072B2"/>
<circle cx="730" cy="41" r="3" fill="#CC79A7"/>
<circle cx="730" cy="340" r="3" fill="#D55E00"/>
<circle cx="730" cy="301" r="3" fill="#009E73"/>
<circle cx="730" cy="113" r="3" fill="#984EA3"/>
<circle cx="730" cy="218" r="3" fill="#56B4E9"/>
<circle cx="730" cy="218" r="3" fill="#E69F00"/>
<circle cx="730" cy="340" r="3" fill="#C44E52"/>
<circle cx="730" cy="41" r="3" fill="#000000"/>
<circle cx="730" cy="324" r="3" fill="#8C564B"/>
<circle cx="70" cy="20" r="4" fill="#0072B2"/>
<text x="78" y="24" text-anchor="start" font-size="12" fill="#0072B2">inte</text>
<circle cx="130" cy="20" r="4" fill="#CC79A7"/>
<text x="138" y="24" text-anchor="start" font-size="12" fill="#CC79A7">comp</text>
<circle cx="195" cy="20" r="4" fill="#D55E00"/>
<text x="203" y="24" text-anchor="start" font-size="12" fill="#D55E00">run</text>
<circle cx="250" cy="20" r="4" fill="#009E73"/>
<text x="258" y="24" text-anchor="start" font-size="12" fill="#009E73">wall</text>
<circle cx="315" cy="20" r="4" fill="#984EA3"/>
<text x="323" y="24" text-anchor="start" font-size="12" fill="#984EA3">self</text>
<circle cx="380" cy="20" r="4" fill="#56B4E9"/>
<text x="388" y="24" text-anchor="start" font-size="12" fill="#56B4E9">mem-inte</text>
<circle cx="470" cy="20" r="4" fill="#E69F00"/>
<text x="478" y="24" text-anchor="start" font-size="12" fill="#E69F00">mem-comp</text>
<circle cx="565" cy="20" r="4" fill="#C44E52"/>
<text x="573" y="24" text-anchor="start" font-size="12" fill="#C44E52">mem-run</text>
<circle cx="650" cy="20" r="4" fill="#000000"/>
<text x="658" y="24" text-anchor="start" font-size="12" fill="#000000">mem-total</text>
<circle cx="745" cy="20" r="4" fill="#8C564B"/>
<text x="753" y="24" text-anchor="start" font-size="12" fill="#8C564B">self-mem</text>
</svg>
