<svg width="800" height="400" xmlns="http://www.w3.org/2000/svg">
<rect width="800" height="400" fill="white"/>
<line x1="70" y1="40" x2="70" y2="340" stroke="#333" stroke-width="1"/>
<line x1="70" y1="340" x2="780" y2="340" stroke="#333" stroke-width="1"/>
<text x="65" y="344" text-anchor="end" font-size="11" fill="#333">0</text>
<text x="65" y="194" text-anchor="end" font-size="11" fill="#333">33000</text>
<text x="65" y="44" text-anchor="end" font-size="11" fill="#333">66000</text>
<text x="15" y="190" text-anchor="middle" font-size="12" fill="#333" transform="rotate(-90 15 190)">ms</text>
<polyline points="70,57 148,50 227,53 306,57 385,54 464,49 543,44 622,48 701,45 780,47" fill="none" stroke="#0072B2" stroke-width="2"/>
<polyline points="70,237 148,233 227,235 306,236 385,236 464,230 543,230 622,231 701,230 780,231" fill="none" stroke="#D55E00" stroke-width="2"/>
<polyline points="70,76 148,72 227,70 306,72 385,72 464,65 543,65 622,65 701,63 780,65" fill="none" stroke="#CC79A7" stroke-width="2"/>
<polyline points="70,242 148,239 227,239 306,238 385,240 464,236 543,236 622,234 701,233 780,235" fill="none" stroke="#E69F00" stroke-width="2"/>
<polyline points="70,119 148,113 227,113 306,113 385,113 464,107 543,108 622,109 701,108 780,109" fill="none" stroke="#009E73" stroke-width="2"/>
<circle cx="70" cy="57" r="3" fill="#0072B2"/>
<circle cx="70" cy="237" r="3" fill="#D55E00"/>
<circle cx="70" cy="76" r="3" fill="#CC79A7"/>
<circle cx="70" cy="242" r="3" fill="#E69F00"/>
<circle cx="70" cy="119" r="3" fill="#009E73"/>
<circle cx="148" cy="50" r="3" fill="#0072B2"/>
<circle cx="148" cy="233" r="3" fill="#D55E00"/>
<circle cx="148" cy="72" r="3" fill="#CC79A7"/>
<circle cx="148" cy="239" r="3" fill="#E69F00"/>
<circle cx="148" cy="113" r="3" fill="#009E73"/>
<circle cx="227" cy="53" r="3" fill="#0072B2"/>
<circle cx="227" cy="235" r="3" fill="#D55E00"/>
<circle cx="227" cy="70" r="3" fill="#CC79A7"/>
<circle cx="227" cy="239" r="3" fill="#E69F00"/>
<circle cx="227" cy="113" r="3" fill="#009E73"/>
<circle cx="306" cy="57" r="3" fill="#0072B2"/>
<circle cx="306" cy="236" r="3" fill="#D55E00"/>
<circle cx="306" cy="72" r="3" fill="#CC79A7"/>
<circle cx="306" cy="238" r="3" fill="#E69F00"/>
<circle cx="306" cy="113" r="3" fill="#009E73"/>
<circle cx="385" cy="54" r="3" fill="#0072B2"/>
<circle cx="385" cy="236" r="3" fill="#D55E00"/>
<circle cx="385" cy="72" r="3" fill="#CC79A7"/>
<circle cx="385" cy="240" r="3" fill="#E69F00"/>
<circle cx="385" cy="113" r="3" fill="#009E73"/>
<circle cx="464" cy="49" r="3" fill="#0072B2"/>
<circle cx="464" cy="230" r="3" fill="#D55E00"/>
<circle cx="464" cy="65" r="3" fill="#CC79A7"/>
<circle cx="464" cy="236" r="3" fill="#E69F00"/>
<circle cx="464" cy="107" r="3" fill="#009E73"/>
<circle cx="543" cy="44" r="3" fill="#0072B2"/>
<circle cx="543" cy="230" r="3" fill="#D55E00"/>
<circle cx="543" cy="65" r="3" fill="#CC79A7"/>
<circle cx="543" cy="236" r="3" fill="#E69F00"/>
<circle cx="543" cy="108" r="3" fill="#009E73"/>
<circle cx="622" cy="48" r="3" fill="#0072B2"/>
<circle cx="622" cy="231" r="3" fill="#D55E00"/>
<circle cx="622" cy="65" r="3" fill="#CC79A7"/>
<circle cx="622" cy="234" r="3" fill="#E69F00"/>
<circle cx="622" cy="109" r="3" fill="#009E73"/>
<circle cx="701" cy="45" r="3" fill="#0072B2"/>
<circle cx="701" cy="230" r="3" fill="#D55E00"/>
<circle cx="701" cy="63" r="3" fill="#CC79A7"/>
<circle cx="701" cy="233" r="3" fill="#E69F00"/>
<circle cx="701" cy="108" r="3" fill="#009E73"/>
<circle cx="780" cy="47" r="3" fill="#0072B2"/>
<circle cx="780" cy="231" r="3" fill="#D55E00"/>
<circle cx="780" cy="65" r="3" fill="#CC79A7"/>
<circle cx="780" cy="235" r="3" fill="#E69F00"/>
<circle cx="780" cy="109" r="3" fill="#009E73"/>
<circle cx="90" cy="20" r="4" fill="#0072B2"/>
<text x="98" y="24" text-anchor="start" font-size="12" fill="#0072B2">ctil-i</text>
<circle cx="160" cy="20" r="4" fill="#D55E00"/>
<text x="168" y="24" text-anchor="start" font-size="12" fill="#D55E00">ctil-r</text>
<circle cx="230" cy="20" r="4" fill="#CC79A7"/>
<text x="238" y="24" text-anchor="start" font-size="12" fill="#CC79A7">til-i</text>
<circle cx="290" cy="20" r="4" fill="#E69F00"/>
<text x="298" y="24" text-anchor="start" font-size="12" fill="#E69F00">til-r</text>
<circle cx="350" cy="20" r="4" fill="#009E73"/>
<text x="358" y="24" text-anchor="start" font-size="12" fill="#009E73">Wall</text>
</svg>
