<svg width="800" height="400" xmlns="http://www.w3.org/2000/svg">
<rect width="800" height="400" fill="white"/>
<line x1="70" y1="40" x2="70" y2="340" stroke="#333" stroke-width="1"/>
<line x1="70" y1="340" x2="730" y2="340" stroke="#333" stroke-width="1"/>
<line x1="730" y1="40" x2="730" y2="340" stroke="#333" stroke-width="1"/>
<text x="65" y="344" text-anchor="end" font-size="11" fill="#333">0</text>
<text x="65" y="194" text-anchor="end" font-size="11" fill="#333">45500</text>
<text x="65" y="44" text-anchor="end" font-size="11" fill="#333">91000</text>
<text x="15" y="190" text-anchor="middle" font-size="12" fill="#333" transform="rotate(-90 15 190)">ms</text>
<text x="735" y="344" text-anchor="start" font-size="11" fill="#333">0</text>
<text x="735" y="194" text-anchor="start" font-size="11" fill="#333">7982500000</text>
<text x="735" y="44" text-anchor="start" font-size="11" fill="#333">15965000000</text>
<text x="785" y="190" text-anchor="middle" font-size="12" fill="#333" transform="rotate(90 785 190)">bytes</text>
<polyline points="70,119 143,119 216,118 290,120 363,116 436,112 510,118 583,118 656,116 730,87" fill="none" stroke="#0072B2" stroke-width="2"/>
<polyline points="70,76 143,76 216,76 290,76 363,72 436,70 510,74 583,76 656,74 730,42" fill="none" stroke="#CC79A7" stroke-width="2"/>
<polyline points="70,339 143,339 216,339 290,339 363,339 436,339 510,339 583,339 656,339 730,339" fill="none" stroke="#D55E00" stroke-width="2"/>
<polyline points="70,162 143,162 216,162 290,161 363,163 436,156 510,160 583,161 656,303 730,301" fill="none" stroke="#009E73" stroke-width="2"/>
<polyline points="70,292 143,292 216,289 290,291 363,292 436,292 510,289 583,292 656,291 730,246" fill="none" stroke="#56B4E9" stroke-width="2"/>
<polyline points="70,245 143,245 216,244 290,245 363,244 436,244 510,244 583,244 656,244 730,193" fill="none" stroke="#E69F00" stroke-width="2"/>
<polyline points="70,340 143,340 216,340 290,340 363,340 436,340 510,340 583,340 656,340 730,340" fill="none" stroke="#C44E52" stroke-width="2"/>
<polyline points="70,149 143,149 216,146 290,148 363,148 436,148 510,146 583,149 656,142 730,41" fill="none" stroke="#000000" stroke-width="2"/>
<circle cx="70" cy="119" r="3" fill="#0072B2"/>
<circle cx="70" cy="76" r="3" fill="#CC79A7"/>
<circle cx="70" cy="339" r="3" fill="#D55E00"/>
<circle cx="70" cy="162" r="3" fill="#009E73"/>
<circle cx="70" cy="292" r="3" fill="#56B4E9"/>
<circle cx="70" cy="245" r="3" fill="#E69F00"/>
<circle cx="70" cy="340" r="3" fill="#C44E52"/>
<circle cx="70" cy="149" r="3" fill="#000000"/>
<circle cx="143" cy="119" r="3" fill="#0072B2"/>
<circle cx="143" cy="76" r="3" fill="#CC79A7"/>
<circle cx="143" cy="339" r="3" fill="#D55E00"/>
<circle cx="143" cy="162" r="3" fill="#009E73"/>
<circle cx="143" cy="292" r="3" fill="#56B4E9"/>
<circle cx="143" cy="245" r="3" fill="#E69F00"/>
<circle cx="143" cy="340" r="3" fill="#C44E52"/>
<circle cx="143" cy="149" r="3" fill="#000000"/>
<circle cx="216" cy="118" r="3" fill="#0072B2"/>
<circle cx="216" cy="76" r="3" fill="#CC79A7"/>
<circle cx="216" cy="339" r="3" fill="#D55E00"/>
<circle cx="216" cy="162" r="3" fill="#009E73"/>
<circle cx="216" cy="289" r="3" fill="#56B4E9"/>
<circle cx="216" cy="244" r="3" fill="#E69F00"/>
<circle cx="216" cy="340" r="3" fill="#C44E52"/>
<circle cx="216" cy="146" r="3" fill="#000000"/>
<circle cx="290" cy="120" r="3" fill="#0072B2"/>
<circle cx="290" cy="76" r="3" fill="#CC79A7"/>
<circle cx="290" cy="339" r="3" fill="#D55E00"/>
<circle cx="290" cy="161" r="3" fill="#009E73"/>
<circle cx="290" cy="291" r="3" fill="#56B4E9"/>
<circle cx="290" cy="245" r="3" fill="#E69F00"/>
<circle cx="290" cy="340" r="3" fill="#C44E52"/>
<circle cx="290" cy="148" r="3" fill="#000000"/>
<circle cx="363" cy="116" r="3" fill="#0072B2"/>
<circle cx="363" cy="72" r="3" fill="#CC79A7"/>
<circle cx="363" cy="339" r="3" fill="#D55E00"/>
<circle cx="363" cy="163" r="3" fill="#009E73"/>
<circle cx="363" cy="292" r="3" fill="#56B4E9"/>
<circle cx="363" cy="244" r="3" fill="#E69F00"/>
<circle cx="363" cy="340" r="3" fill="#C44E52"/>
<circle cx="363" cy="148" r="3" fill="#000000"/>
<circle cx="436" cy="112" r="3" fill="#0072B2"/>
<circle cx="436" cy="70" r="3" fill="#CC79A7"/>
<circle cx="436" cy="339" r="3" fill="#D55E00"/>
<circle cx="436" cy="156" r="3" fill="#009E73"/>
<circle cx="436" cy="292" r="3" fill="#56B4E9"/>
<circle cx="436" cy="244" r="3" fill="#E69F00"/>
<circle cx="436" cy="340" r="3" fill="#C44E52"/>
<circle cx="436" cy="148" r="3" fill="#000000"/>
<circle cx="510" cy="118" r="3" fill="#0072B2"/>
<circle cx="510" cy="74" r="3" fill="#CC79A7"/>
<circle cx="510" cy="339" r="3" fill="#D55E00"/>
<circle cx="510" cy="160" r="3" fill="#009E73"/>
<circle cx="510" cy="289" r="3" fill="#56B4E9"/>
<circle cx="510" cy="244" r="3" fill="#E69F00"/>
<circle cx="510" cy="340" r="3" fill="#C44E52"/>
<circle cx="510" cy="146" r="3" fill="#000000"/>
<circle cx="583" cy="118" r="3" fill="#0072B2"/>
<circle cx="583" cy="76" r="3" fill="#CC79A7"/>
<circle cx="583" cy="339" r="3" fill="#D55E00"/>
<circle cx="583" cy="161" r="3" fill="#009E73"/>
<circle cx="583" cy="292" r="3" fill="#56B4E9"/>
<circle cx="583" cy="244" r="3" fill="#E69F00"/>
<circle cx="583" cy="340" r="3" fill="#C44E52"/>
<circle cx="583" cy="149" r="3" fill="#000000"/>
<circle cx="656" cy="116" r="3" fill="#0072B2"/>
<circle cx="656" cy="74" r="3" fill="#CC79A7"/>
<circle cx="656" cy="339" r="3" fill="#D55E00"/>
<circle cx="656" cy="303" r="3" fill="#009E73"/>
<circle cx="656" cy="291" r="3" fill="#56B4E9"/>
<circle cx="656" cy="244" r="3" fill="#E69F00"/>
<circle cx="656" cy="340" r="3" fill="#C44E52"/>
<circle cx="656" cy="142" r="3" fill="#000000"/>
<circle cx="730" cy="87" r="3" fill="#0072B2"/>
<circle cx="730" cy="42" r="3" fill="#CC79A7"/>
<circle cx="730" cy="339" r="3" fill="#D55E00"/>
<circle cx="730" cy="301" r="3" fill="#009E73"/>
<circle cx="730" cy="246" r="3" fill="#56B4E9"/>
<circle cx="730" cy="193" r="3" fill="#E69F00"/>
<circle cx="730" cy="340" r="3" fill="#C44E52"/>
<circle cx="730" cy="41" r="3" fill="#000000"/>
<circle cx="90" cy="20" r="4" fill="#0072B2"/>
<text x="98" y="24" text-anchor="start" font-size="12" fill="#0072B2">inte</text>
<circle cx="150" cy="20" r="4" fill="#CC79A7"/>
<text x="158" y="24" text-anchor="start" font-size="12" fill="#CC79A7">comp</text>
<circle cx="215" cy="20" r="4" fill="#D55E00"/>
<text x="223" y="24" text-anchor="start" font-size="12" fill="#D55E00">run</text>
<circle cx="270" cy="20" r="4" fill="#009E73"/>
<text x="278" y="24" text-anchor="start" font-size="12" fill="#009E73">wall</text>
<circle cx="335" cy="20" r="4" fill="#56B4E9"/>
<text x="343" y="24" text-anchor="start" font-size="12" fill="#56B4E9">mem-inte</text>
<circle cx="425" cy="20" r="4" fill="#E69F00"/>
<text x="433" y="24" text-anchor="start" font-size="12" fill="#E69F00">mem-comp</text>
<circle cx="520" cy="20" r="4" fill="#C44E52"/>
<text x="528" y="24" text-anchor="start" font-size="12" fill="#C44E52">mem-run</text>
<circle cx="605" cy="20" r="4" fill="#000000"/>
<text x="613" y="24" text-anchor="start" font-size="12" fill="#000000">mem-total</text>
</svg>
