<svg width="800" height="400" xmlns="http://www.w3.org/2000/svg">
<rect width="800" height="400" fill="white"/>
<line x1="70" y1="40" x2="70" y2="340" stroke="#333" stroke-width="1"/>
<line x1="70" y1="340" x2="730" y2="340" stroke="#333" stroke-width="1"/>
<line x1="730" y1="40" x2="730" y2="340" stroke="#333" stroke-width="1"/>
<text x="65" y="344" text-anchor="end" font-size="11" fill="#333">0</text>
<text x="65" y="194" text-anchor="end" font-size="11" fill="#333">66500</text>
<text x="65" y="44" text-anchor="end" font-size="11" fill="#333">133000</text>
<text x="15" y="190" text-anchor="middle" font-size="12" fill="#333" transform="rotate(-90 15 190)">ms</text>
<text x="735" y="344" text-anchor="start" font-size="11" fill="#333">0</text>
<text x="735" y="194" text-anchor="start" font-size="11" fill="#333">7956500000</text>
<text x="735" y="44" text-anchor="start" font-size="11" fill="#333">15913000000</text>
<text x="785" y="190" text-anchor="middle" font-size="12" fill="#333" transform="rotate(90 785 190)">bytes</text>
<polyline points="70,64 143,60 216,58 290,59 363,50 436,63 510,53 583,60 656,65 730,66" fill="none" stroke="#0072B2" stroke-width="2"/>
<polyline points="70,59 143,49 216,53 290,50 363,43 436,56 510,46 583,52 656,60 730,60" fill="none" stroke="#CC79A7" stroke-width="2"/>
<polyline points="70,340 143,340 216,340 290,340 363,340 436,340 510,340 583,340 656,340 730,340" fill="none" stroke="#D55E00" stroke-width="2"/>
<polyline points="70,302 143,301 216,302 290,302 363,301 436,302 510,301 583,302 656,304 730,303" fill="none" stroke="#009E73" stroke-width="2"/>
<polyline points="70,243 143,240 216,243 290,238 363,235 436,238 510,238 583,232 656,235 730,238" fill="none" stroke="#56B4E9" stroke-width="2"/>
<polyline points="70,210 143,201 216,204 290,202 363,203 436,205 510,194 583,205 656,198 730,201" fill="none" stroke="#E69F00" stroke-width="2"/>
<polyline points="70,340 143,340 216,340 290,340 363,340 436,340 510,340 583,340 656,340 730,340" fill="none" stroke="#C44E52" stroke-width="2"/>
<polyline points="70,64 143,52 216,58 290,52 363,49 436,53 510,41 583,48 656,44 730,48" fill="none" stroke="#000000" stroke-width="2"/>
<circle cx="70" cy="64" r="3" fill="#0072B2"/>
<circle cx="70" cy="59" r="3" fill="#CC79A7"/>
<circle cx="70" cy="340" r="3" fill="#D55E00"/>
<circle cx="70" cy="302" r="3" fill="#009E73"/>
<circle cx="70" cy="243" r="3" fill="#56B4E9"/>
<circle cx="70" cy="210" r="3" fill="#E69F00"/>
<circle cx="70" cy="340" r="3" fill="#C44E52"/>
<circle cx="70" cy="64" r="3" fill="#000000"/>
<circle cx="143" cy="60" r="3" fill="#0072B2"/>
<circle cx="143" cy="49" r="3" fill="#CC79A7"/>
<circle cx="143" cy="340" r="3" fill="#D55E00"/>
<circle cx="143" cy="301" r="3" fill="#009E73"/>
<circle cx="143" cy="240" r="3" fill="#56B4E9"/>
<circle cx="143" cy="201" r="3" fill="#E69F00"/>
<circle cx="143" cy="340" r="3" fill="#C44E52"/>
<circle cx="143" cy="52" r="3" fill="#000000"/>
<circle cx="216" cy="58" r="3" fill="#0072B2"/>
<circle cx="216" cy="53" r="3" fill="#CC79A7"/>
<circle cx="216" cy="340" r="3" fill="#D55E00"/>
<circle cx="216" cy="302" r="3" fill="#009E73"/>
<circle cx="216" cy="243" r="3" fill="#56B4E9"/>
<circle cx="216" cy="204" r="3" fill="#E69F00"/>
<circle cx="216" cy="340" r="3" fill="#C44E52"/>
<circle cx="216" cy="58" r="3" fill="#000000"/>
<circle cx="290" cy="59" r="3" fill="#0072B2"/>
<circle cx="290" cy="50" r="3" fill="#CC79A7"/>
<circle cx="290" cy="340" r="3" fill="#D55E00"/>
<circle cx="290" cy="302" r="3" fill="#009E73"/>
<circle cx="290" cy="238" r="3" fill="#56B4E9"/>
<circle cx="290" cy="202" r="3" fill="#E69F00"/>
<circle cx="290" cy="340" r="3" fill="#C44E52"/>
<circle cx="290" cy="52" r="3" fill="#000000"/>
<circle cx="363" cy="50" r="3" fill="#0072B2"/>
<circle cx="363" cy="43" r="3" fill="#CC79A7"/>
<circle cx="363" cy="340" r="3" fill="#D55E00"/>
<circle cx="363" cy="301" r="3" fill="#009E73"/>
<circle cx="363" cy="235" r="3" fill="#56B4E9"/>
<circle cx="363" cy="203" r="3" fill="#E69F00"/>
<circle cx="363" cy="340" r="3" fill="#C44E52"/>
<circle cx="363" cy="49" r="3" fill="#000000"/>
<circle cx="436" cy="63" r="3" fill="#0072B2"/>
<circle cx="436" cy="56" r="3" fill="#CC79A7"/>
<circle cx="436" cy="340" r="3" fill="#D55E00"/>
<circle cx="436" cy="302" r="3" fill="#009E73"/>
<circle cx="436" cy="238" r="3" fill="#56B4E9"/>
<circle cx="436" cy="205" r="3" fill="#E69F00"/>
<circle cx="436" cy="340" r="3" fill="#C44E52"/>
<circle cx="436" cy="53" r="3" fill="#000000"/>
<circle cx="510" cy="53" r="3" fill="#0072B2"/>
<circle cx="510" cy="46" r="3" fill="#CC79A7"/>
<circle cx="510" cy="340" r="3" fill="#D55E00"/>
<circle cx="510" cy="301" r="3" fill="#009E73"/>
<circle cx="510" cy="238" r="3" fill="#56B4E9"/>
<circle cx="510" cy="194" r="3" fill="#E69F00"/>
<circle cx="510" cy="340" r="3" fill="#C44E52"/>
<circle cx="510" cy="41" r="3" fill="#000000"/>
<circle cx="583" cy="60" r="3" fill="#0072B2"/>
<circle cx="583" cy="52" r="3" fill="#CC79A7"/>
<circle cx="583" cy="340" r="3" fill="#D55E00"/>
<circle cx="583" cy="302" r="3" fill="#009E73"/>
<circle cx="583" cy="232" r="3" fill="#56B4E9"/>
<circle cx="583" cy="205" r="3" fill="#E69F00"/>
<circle cx="583" cy="340" r="3" fill="#C44E52"/>
<circle cx="583" cy="48" r="3" fill="#000000"/>
<circle cx="656" cy="65" r="3" fill="#0072B2"/>
<circle cx="656" cy="60" r="3" fill="#CC79A7"/>
<circle cx="656" cy="340" r="3" fill="#D55E00"/>
<circle cx="656" cy="304" r="3" fill="#009E73"/>
<circle cx="656" cy="235" r="3" fill="#56B4E9"/>
<circle cx="656" cy="198" r="3" fill="#E69F00"/>
<circle cx="656" cy="340" r="3" fill="#C44E52"/>
<circle cx="656" cy="44" r="3" fill="#000000"/>
<circle cx="730" cy="66" r="3" fill="#0072B2"/>
<circle cx="730" cy="60" r="3" fill="#CC79A7"/>
<circle cx="730" cy="340" r="3" fill="#D55E00"/>
<circle cx="730" cy="303" r="3" fill="#009E73"/>
<circle cx="730" cy="238" r="3" fill="#56B4E9"/>
<circle cx="730" cy="201" r="3" fill="#E69F00"/>
<circle cx="730" cy="340" r="3" fill="#C44E52"/>
<circle cx="730" cy="48" r="3" fill="#000000"/>
<circle cx="90" cy="20" r="4" fill="#0072B2"/>
<text x="98" y="24" text-anchor="start" font-size="12" fill="#0072B2">inte</text>
<circle cx="150" cy="20" r="4" fill="#CC79A7"/>
<text x="158" y="24" text-anchor="start" font-size="12" fill="#CC79A7">comp</text>
<circle cx="215" cy="20" r="4" fill="#D55E00"/>
<text x="223" y="24" text-anchor="start" font-size="12" fill="#D55E00">run</text>
<circle cx="270" cy="20" r="4" fill="#009E73"/>
<text x="278" y="24" text-anchor="start" font-size="12" fill="#009E73">wall</text>
<circle cx="335" cy="20" r="4" fill="#56B4E9"/>
<text x="343" y="24" text-anchor="start" font-size="12" fill="#56B4E9">mem-inte</text>
<circle cx="425" cy="20" r="4" fill="#E69F00"/>
<text x="433" y="24" text-anchor="start" font-size="12" fill="#E69F00">mem-comp</text>
<circle cx="520" cy="20" r="4" fill="#C44E52"/>
<text x="528" y="24" text-anchor="start" font-size="12" fill="#C44E52">mem-run</text>
<circle cx="605" cy="20" r="4" fill="#000000"/>
<text x="613" y="24" text-anchor="start" font-size="12" fill="#000000">mem-total</text>
</svg>
