<svg width="800" height="400" xmlns="http://www.w3.org/2000/svg">
<rect width="800" height="400" fill="white"/>
<line x1="70" y1="40" x2="70" y2="340" stroke="#333" stroke-width="1"/>
<line x1="70" y1="340" x2="730" y2="340" stroke="#333" stroke-width="1"/>
<line x1="730" y1="40" x2="730" y2="340" stroke="#333" stroke-width="1"/>
<text x="65" y="344" text-anchor="end" font-size="11" fill="#333">0</text>
<text x="65" y="194" text-anchor="end" font-size="11" fill="#333">106500</text>
<text x="65" y="44" text-anchor="end" font-size="11" fill="#333">213000</text>
<text x="15" y="190" text-anchor="middle" font-size="12" fill="#333" transform="rotate(-90 15 190)">ms</text>
<text x="735" y="344" text-anchor="start" font-size="11" fill="#333">0</text>
<text x="735" y="194" text-anchor="start" font-size="11" fill="#333">10679500000</text>
<text x="735" y="44" text-anchor="start" font-size="11" fill="#333">21359000000</text>
<text x="785" y="190" text-anchor="middle" font-size="12" fill="#333" transform="rotate(90 785 190)">bytes</text>
<polyline points="70,141 143,145 216,160 290,159 363,158 436,161 510,160 583,161 656,160 730,160" fill="none" stroke="#0072B2" stroke-width="2"/>
<polyline points="70,42 143,49 216,61 290,56 363,63 436,65 510,64 583,67 656,66 730,63" fill="none" stroke="#CC79A7" stroke-width="2"/>
<polyline points="70,340 143,340 216,340 290,340 363,340 436,340 510,340 583,340 656,340 730,340" fill="none" stroke="#D55E00" stroke-width="2"/>
<polyline points="70,306 143,307 216,309 290,309 363,309 436,310 510,309 583,310 656,310 730,310" fill="none" stroke="#009E73" stroke-width="2"/>
<polyline points="70,203 143,208 216,224 290,232 363,232 436,232 510,233 583,231 656,234 730,233" fill="none" stroke="#984EA3" stroke-width="2"/>
<polyline points="70,297 143,297 216,297 290,296 363,296 436,296 510,296 583,296 656,296 730,296" fill="none" stroke="#56B4E9" stroke-width="2"/>
<polyline points="70,190 143,190 216,190 290,187 363,188 436,188 510,187 583,188 656,187 730,187" fill="none" stroke="#E69F00" stroke-width="2"/>
<polyline points="70,339 143,340 216,339 290,339 363,340 436,340 510,340 583,340 656,339 730,339" fill="none" stroke="#C44E52" stroke-width="2"/>
<polyline points="70,45 143,44 216,45 290,41 363,41 436,41 510,41 583,42 656,41 730,41" fill="none" stroke="#000000" stroke-width="2"/>
<polyline points="70,340 143,340 216,340 290,340 363,340 436,340 510,333 583,333 656,333 730,333" fill="none" stroke="#8C564B" stroke-width="2"/>
<circle cx="70" cy="141" r="3" fill="#0072B2"/>
<circle cx="70" cy="42" r="3" fill="#CC79A7"/>
<circle cx="70" cy="340" r="3" fill="#D55E00"/>
<circle cx="70" cy="306" r="3" fill="#009E73"/>
<circle cx="70" cy="203" r="3" fill="#984EA3"/>
<circle cx="70" cy="297" r="3" fill="#56B4E9"/>
<circle cx="70" cy="190" r="3" fill="#E69F00"/>
<circle cx="70" cy="339" r="3" fill="#C44E52"/>
<circle cx="70" cy="45" r="3" fill="#000000"/>
<circle cx="70" cy="340" r="3" fill="#8C564B"/>
<circle cx="143" cy="145" r="3" fill="#0072B2"/>
<circle cx="143" cy="49" r="3" fill="#CC79A7"/>
<circle cx="143" cy="340" r="3" fill="#D55E00"/>
<circle cx="143" cy="307" r="3" fill="#009E73"/>
<circle cx="143" cy="208" r="3" fill="#984EA3"/>
<circle cx="143" cy="297" r="3" fill="#56B4E9"/>
<circle cx="143" cy="190" r="3" fill="#E69F00"/>
<circle cx="143" cy="340" r="3" fill="#C44E52"/>
<circle cx="143" cy="44" r="3" fill="#000000"/>
<circle cx="143" cy="340" r="3" fill="#8C564B"/>
<circle cx="216" cy="160" r="3" fill="#0072B2"/>
<circle cx="216" cy="61" r="3" fill="#CC79A7"/>
<circle cx="216" cy="340" r="3" fill="#D55E00"/>
<circle cx="216" cy="309" r="3" fill="#009E73"/>
<circle cx="216" cy="224" r="3" fill="#984EA3"/>
<circle cx="216" cy="297" r="3" fill="#56B4E9"/>
<circle cx="216" cy="190" r="3" fill="#E69F00"/>
<circle cx="216" cy="339" r="3" fill="#C44E52"/>
<circle cx="216" cy="45" r="3" fill="#000000"/>
<circle cx="216" cy="340" r="3" fill="#8C564B"/>
<circle cx="290" cy="159" r="3" fill="#0072B2"/>
<circle cx="290" cy="56" r="3" fill="#CC79A7"/>
<circle cx="290" cy="340" r="3" fill="#D55E00"/>
<circle cx="290" cy="309" r="3" fill="#009E73"/>
<circle cx="290" cy="232" r="3" fill="#984EA3"/>
<circle cx="290" cy="296" r="3" fill="#56B4E9"/>
<circle cx="290" cy="187" r="3" fill="#E69F00"/>
<circle cx="290" cy="339" r="3" fill="#C44E52"/>
<circle cx="290" cy="41" r="3" fill="#000000"/>
<circle cx="290" cy="340" r="3" fill="#8C564B"/>
<circle cx="363" cy="158" r="3" fill="#0072B2"/>
<circle cx="363" cy="63" r="3" fill="#CC79A7"/>
<circle cx="363" cy="340" r="3" fill="#D55E00"/>
<circle cx="363" cy="309" r="3" fill="#009E73"/>
<circle cx="363" cy="232" r="3" fill="#984EA3"/>
<circle cx="363" cy="296" r="3" fill="#56B4E9"/>
<circle cx="363" cy="188" r="3" fill="#E69F00"/>
<circle cx="363" cy="340" r="3" fill="#C44E52"/>
<circle cx="363" cy="41" r="3" fill="#000000"/>
<circle cx="363" cy="340" r="3" fill="#8C564B"/>
<circle cx="436" cy="161" r="3" fill="#0072B2"/>
<circle cx="436" cy="65" r="3" fill="#CC79A7"/>
<circle cx="436" cy="340" r="3" fill="#D55E00"/>
<circle cx="436" cy="310" r="3" fill="#009E73"/>
<circle cx="436" cy="232" r="3" fill="#984EA3"/>
<circle cx="436" cy="296" r="3" fill="#56B4E9"/>
<circle cx="436" cy="188" r="3" fill="#E69F00"/>
<circle cx="436" cy="340" r="3" fill="#C44E52"/>
<circle cx="436" cy="41" r="3" fill="#000000"/>
<circle cx="436" cy="340" r="3" fill="#8C564B"/>
<circle cx="510" cy="160" r="3" fill="#0072B2"/>
<circle cx="510" cy="64" r="3" fill="#CC79A7"/>
<circle cx="510" cy="340" r="3" fill="#D55E00"/>
<circle cx="510" cy="309" r="3" fill="#009E73"/>
<circle cx="510" cy="233" r="3" fill="#984EA3"/>
<circle cx="510" cy="296" r="3" fill="#56B4E9"/>
<circle cx="510" cy="187" r="3" fill="#E69F00"/>
<circle cx="510" cy="340" r="3" fill="#C44E52"/>
<circle cx="510" cy="41" r="3" fill="#000000"/>
<circle cx="510" cy="333" r="3" fill="#8C564B"/>
<circle cx="583" cy="161" r="3" fill="#0072B2"/>
<circle cx="583" cy="67" r="3" fill="#CC79A7"/>
<circle cx="583" cy="340" r="3" fill="#D55E00"/>
<circle cx="583" cy="310" r="3" fill="#009E73"/>
<circle cx="583" cy="231" r="3" fill="#984EA3"/>
<circle cx="583" cy="296" r="3" fill="#56B4E9"/>
<circle cx="583" cy="188" r="3" fill="#E69F00"/>
<circle cx="583" cy="340" r="3" fill="#C44E52"/>
<circle cx="583" cy="42" r="3" fill="#000000"/>
<circle cx="583" cy="333" r="3" fill="#8C564B"/>
<circle cx="656" cy="160" r="3" fill="#0072B2"/>
<circle cx="656" cy="66" r="3" fill="#CC79A7"/>
<circle cx="656" cy="340" r="3" fill="#D55E00"/>
<circle cx="656" cy="310" r="3" fill="#009E73"/>
<circle cx="656" cy="234" r="3" fill="#984EA3"/>
<circle cx="656" cy="296" r="3" fill="#56B4E9"/>
<circle cx="656" cy="187" r="3" fill="#E69F00"/>
<circle cx="656" cy="339" r="3" fill="#C44E52"/>
<circle cx="656" cy="41" r="3" fill="#000000"/>
<circle cx="656" cy="333" r="3" fill="#8C564B"/>
<circle cx="730" cy="160" r="3" fill="#0072B2"/>
<circle cx="730" cy="63" r="3" fill="#CC79A7"/>
<circle cx="730" cy="340" r="3" fill="#D55E00"/>
<circle cx="730" cy="310" r="3" fill="#009E73"/>
<circle cx="730" cy="233" r="3" fill="#984EA3"/>
<circle cx="730" cy="296" r="3" fill="#56B4E9"/>
<circle cx="730" cy="187" r="3" fill="#E69F00"/>
<circle cx="730" cy="339" r="3" fill="#C44E52"/>
<circle cx="730" cy="41" r="3" fill="#000000"/>
<circle cx="730" cy="333" r="3" fill="#8C564B"/>
<circle cx="70" cy="20" r="4" fill="#0072B2"/>
<text x="78" y="24" text-anchor="start" font-size="12" fill="#0072B2">inte</text>
<circle cx="130" cy="20" r="4" fill="#CC79A7"/>
<text x="138" y="24" text-anchor="start" font-size="12" fill="#CC79A7">comp</text>
<circle cx="195" cy="20" r="4" fill="#D55E00"/>
<text x="203" y="24" text-anchor="start" font-size="12" fill="#D55E00">run</text>
<circle cx="250" cy="20" r="4" fill="#009E73"/>
<text x="258" y="24" text-anchor="start" font-size="12" fill="#009E73">wall</text>
<circle cx="315" cy="20" r="4" fill="#984EA3"/>
<text x="323" y="24" text-anchor="start" font-size="12" fill="#984EA3">self</text>
<circle cx="380" cy="20" r="4" fill="#56B4E9"/>
<text x="388" y="24" text-anchor="start" font-size="12" fill="#56B4E9">mem-inte</text>
<circle cx="470" cy="20" r="4" fill="#E69F00"/>
<text x="478" y="24" text-anchor="start" font-size="12" fill="#E69F00">mem-comp</text>
<circle cx="565" cy="20" r="4" fill="#C44E52"/>
<text x="573" y="24" text-anchor="start" font-size="12" fill="#C44E52">mem-run</text>
<circle cx="650" cy="20" r="4" fill="#000000"/>
<text x="658" y="24" text-anchor="start" font-size="12" fill="#000000">mem-total</text>
<circle cx="745" cy="20" r="4" fill="#8C564B"/>
<text x="753" y="24" text-anchor="start" font-size="12" fill="#8C564B">self-mem</text>
</svg>
