<svg width="800" height="400" xmlns="http://www.w3.org/2000/svg">
<rect width="800" height="400" fill="white"/>
<line x1="70" y1="40" x2="70" y2="340" stroke="#333" stroke-width="1"/>
<line x1="70" y1="340" x2="780" y2="340" stroke="#333" stroke-width="1"/>
<text x="65" y="344" text-anchor="end" font-size="11" fill="#333">0</text>
<text x="65" y="194" text-anchor="end" font-size="11" fill="#333">191000</text>
<text x="65" y="44" text-anchor="end" font-size="11" fill="#333">382000</text>
<text x="15" y="190" text-anchor="middle" font-size="12" fill="#333" transform="rotate(-90 15 190)">ms</text>
<polyline points="70,339 81,339 93,339 105,339 117,339 129,339 141,339 152,339 164,339 176,339 188,339 200,339 212,339 223,339 235,339 247,339 259,339 271,339 283,339 294,339 306,339 318,339 330,339 342,339 354,339 365,339 377,339 389,339 401,339 413,339 425,339 436,339 448,339 460,339 472,339 484,339 496,339 507,339 519,339 531,339 543,339 555,339 567,339 578,339 590,339 602,339 614,339 626,339 638,339 649,339 661,339 673,339 685,339 697,339 709,339 720,339 732,339 744,339 756,228 768,227 780,229" fill="none" stroke="#2196F3" stroke-width="2"/>
<polyline points="70,336 81,336 93,336 105,336 117,336 129,336 141,336 152,336 164,336 176,336 188,336 200,336 212,336 223,336 235,336 247,336 259,336 271,336 283,336 294,336 306,336 318,336 330,336 342,336 354,335 365,336 377,335 389,336 401,336 413,336 425,336 436,336 448,335 460,335 472,336 484,335 496,335 507,336 519,335 531,336 543,335 555,335 567,336 578,335 590,336 602,336 614,335 626,335 638,335 649,335 661,335 673,335 685,335 697,335 709,335 720,335 732,335 744,335 756,299 768,299 780,300" fill="none" stroke="#F44336" stroke-width="2"/>
<polyline points="70,335 81,335 93,335 105,335 117,335 129,335 141,335 152,335 164,335 176,335 188,335 200,335 212,335 223,335 235,335 247,335 259,335 271,335 283,335 294,335 306,335 318,335 330,335 342,335 354,335 365,335 377,335 389,335 401,335 413,335 425,335 436,334 448,334 460,334 472,334 484,334 496,334 507,334 519,334 531,334 543,335 555,334 567,335 578,335 590,335 602,335 614,334 626,334 638,334 649,334 661,334 673,334 685,334 697,334 709,335 720,335 732,335 744,335 756,41 768,41 780,47" fill="none" stroke="#4CAF50" stroke-width="2"/>
<circle cx="70" cy="339" r="3" fill="#2196F3"/>
<circle cx="70" cy="336" r="3" fill="#F44336"/>
<circle cx="70" cy="335" r="3" fill="#4CAF50"/>
<circle cx="81" cy="339" r="3" fill="#2196F3"/>
<circle cx="81" cy="336" r="3" fill="#F44336"/>
<circle cx="81" cy="335" r="3" fill="#4CAF50"/>
<circle cx="93" cy="339" r="3" fill="#2196F3"/>
<circle cx="93" cy="336" r="3" fill="#F44336"/>
<circle cx="93" cy="335" r="3" fill="#4CAF50"/>
<circle cx="105" cy="339" r="3" fill="#2196F3"/>
<circle cx="105" cy="336" r="3" fill="#F44336"/>
<circle cx="105" cy="335" r="3" fill="#4CAF50"/>
<circle cx="117" cy="339" r="3" fill="#2196F3"/>
<circle cx="117" cy="336" r="3" fill="#F44336"/>
<circle cx="117" cy="335" r="3" fill="#4CAF50"/>
<circle cx="129" cy="339" r="3" fill="#2196F3"/>
<circle cx="129" cy="336" r="3" fill="#F44336"/>
<circle cx="129" cy="335" r="3" fill="#4CAF50"/>
<circle cx="141" cy="339" r="3" fill="#2196F3"/>
<circle cx="141" cy="336" r="3" fill="#F44336"/>
<circle cx="141" cy="335" r="3" fill="#4CAF50"/>
<circle cx="152" cy="339" r="3" fill="#2196F3"/>
<circle cx="152" cy="336" r="3" fill="#F44336"/>
<circle cx="152" cy="335" r="3" fill="#4CAF50"/>
<circle cx="164" cy="339" r="3" fill="#2196F3"/>
<circle cx="164" cy="336" r="3" fill="#F44336"/>
<circle cx="164" cy="335" r="3" fill="#4CAF50"/>
<circle cx="176" cy="339" r="3" fill="#2196F3"/>
<circle cx="176" cy="336" r="3" fill="#F44336"/>
<circle cx="176" cy="335" r="3" fill="#4CAF50"/>
<circle cx="188" cy="339" r="3" fill="#2196F3"/>
<circle cx="188" cy="336" r="3" fill="#F44336"/>
<circle cx="188" cy="335" r="3" fill="#4CAF50"/>
<circle cx="200" cy="339" r="3" fill="#2196F3"/>
<circle cx="200" cy="336" r="3" fill="#F44336"/>
<circle cx="200" cy="335" r="3" fill="#4CAF50"/>
<circle cx="212" cy="339" r="3" fill="#2196F3"/>
<circle cx="212" cy="336" r="3" fill="#F44336"/>
<circle cx="212" cy="335" r="3" fill="#4CAF50"/>
<circle cx="223" cy="339" r="3" fill="#2196F3"/>
<circle cx="223" cy="336" r="3" fill="#F44336"/>
<circle cx="223" cy="335" r="3" fill="#4CAF50"/>
<circle cx="235" cy="339" r="3" fill="#2196F3"/>
<circle cx="235" cy="336" r="3" fill="#F44336"/>
<circle cx="235" cy="335" r="3" fill="#4CAF50"/>
<circle cx="247" cy="339" r="3" fill="#2196F3"/>
<circle cx="247" cy="336" r="3" fill="#F44336"/>
<circle cx="247" cy="335" r="3" fill="#4CAF50"/>
<circle cx="259" cy="339" r="3" fill="#2196F3"/>
<circle cx="259" cy="336" r="3" fill="#F44336"/>
<circle cx="259" cy="335" r="3" fill="#4CAF50"/>
<circle cx="271" cy="339" r="3" fill="#2196F3"/>
<circle cx="271" cy="336" r="3" fill="#F44336"/>
<circle cx="271" cy="335" r="3" fill="#4CAF50"/>
<circle cx="283" cy="339" r="3" fill="#2196F3"/>
<circle cx="283" cy="336" r="3" fill="#F44336"/>
<circle cx="283" cy="335" r="3" fill="#4CAF50"/>
<circle cx="294" cy="339" r="3" fill="#2196F3"/>
<circle cx="294" cy="336" r="3" fill="#F44336"/>
<circle cx="294" cy="335" r="3" fill="#4CAF50"/>
<circle cx="306" cy="339" r="3" fill="#2196F3"/>
<circle cx="306" cy="336" r="3" fill="#F44336"/>
<circle cx="306" cy="335" r="3" fill="#4CAF50"/>
<circle cx="318" cy="339" r="3" fill="#2196F3"/>
<circle cx="318" cy="336" r="3" fill="#F44336"/>
<circle cx="318" cy="335" r="3" fill="#4CAF50"/>
<circle cx="330" cy="339" r="3" fill="#2196F3"/>
<circle cx="330" cy="336" r="3" fill="#F44336"/>
<circle cx="330" cy="335" r="3" fill="#4CAF50"/>
<circle cx="342" cy="339" r="3" fill="#2196F3"/>
<circle cx="342" cy="336" r="3" fill="#F44336"/>
<circle cx="342" cy="335" r="3" fill="#4CAF50"/>
<circle cx="354" cy="339" r="3" fill="#2196F3"/>
<circle cx="354" cy="335" r="3" fill="#F44336"/>
<circle cx="354" cy="335" r="3" fill="#4CAF50"/>
<circle cx="365" cy="339" r="3" fill="#2196F3"/>
<circle cx="365" cy="336" r="3" fill="#F44336"/>
<circle cx="365" cy="335" r="3" fill="#4CAF50"/>
<circle cx="377" cy="339" r="3" fill="#2196F3"/>
<circle cx="377" cy="335" r="3" fill="#F44336"/>
<circle cx="377" cy="335" r="3" fill="#4CAF50"/>
<circle cx="389" cy="339" r="3" fill="#2196F3"/>
<circle cx="389" cy="336" r="3" fill="#F44336"/>
<circle cx="389" cy="335" r="3" fill="#4CAF50"/>
<circle cx="401" cy="339" r="3" fill="#2196F3"/>
<circle cx="401" cy="336" r="3" fill="#F44336"/>
<circle cx="401" cy="335" r="3" fill="#4CAF50"/>
<circle cx="413" cy="339" r="3" fill="#2196F3"/>
<circle cx="413" cy="336" r="3" fill="#F44336"/>
<circle cx="413" cy="335" r="3" fill="#4CAF50"/>
<circle cx="425" cy="339" r="3" fill="#2196F3"/>
<circle cx="425" cy="336" r="3" fill="#F44336"/>
<circle cx="425" cy="335" r="3" fill="#4CAF50"/>
<circle cx="436" cy="339" r="3" fill="#2196F3"/>
<circle cx="436" cy="336" r="3" fill="#F44336"/>
<circle cx="436" cy="334" r="3" fill="#4CAF50"/>
<circle cx="448" cy="339" r="3" fill="#2196F3"/>
<circle cx="448" cy="335" r="3" fill="#F44336"/>
<circle cx="448" cy="334" r="3" fill="#4CAF50"/>
<circle cx="460" cy="339" r="3" fill="#2196F3"/>
<circle cx="460" cy="335" r="3" fill="#F44336"/>
<circle cx="460" cy="334" r="3" fill="#4CAF50"/>
<circle cx="472" cy="339" r="3" fill="#2196F3"/>
<circle cx="472" cy="336" r="3" fill="#F44336"/>
<circle cx="472" cy="334" r="3" fill="#4CAF50"/>
<circle cx="484" cy="339" r="3" fill="#2196F3"/>
<circle cx="484" cy="335" r="3" fill="#F44336"/>
<circle cx="484" cy="334" r="3" fill="#4CAF50"/>
<circle cx="496" cy="339" r="3" fill="#2196F3"/>
<circle cx="496" cy="335" r="3" fill="#F44336"/>
<circle cx="496" cy="334" r="3" fill="#4CAF50"/>
<circle cx="507" cy="339" r="3" fill="#2196F3"/>
<circle cx="507" cy="336" r="3" fill="#F44336"/>
<circle cx="507" cy="334" r="3" fill="#4CAF50"/>
<circle cx="519" cy="339" r="3" fill="#2196F3"/>
<circle cx="519" cy="335" r="3" fill="#F44336"/>
<circle cx="519" cy="334" r="3" fill="#4CAF50"/>
<circle cx="531" cy="339" r="3" fill="#2196F3"/>
<circle cx="531" cy="336" r="3" fill="#F44336"/>
<circle cx="531" cy="334" r="3" fill="#4CAF50"/>
<circle cx="543" cy="339" r="3" fill="#2196F3"/>
<circle cx="543" cy="335" r="3" fill="#F44336"/>
<circle cx="543" cy="335" r="3" fill="#4CAF50"/>
<circle cx="555" cy="339" r="3" fill="#2196F3"/>
<circle cx="555" cy="335" r="3" fill="#F44336"/>
<circle cx="555" cy="334" r="3" fill="#4CAF50"/>
<circle cx="567" cy="339" r="3" fill="#2196F3"/>
<circle cx="567" cy="336" r="3" fill="#F44336"/>
<circle cx="567" cy="335" r="3" fill="#4CAF50"/>
<circle cx="578" cy="339" r="3" fill="#2196F3"/>
<circle cx="578" cy="335" r="3" fill="#F44336"/>
<circle cx="578" cy="335" r="3" fill="#4CAF50"/>
<circle cx="590" cy="339" r="3" fill="#2196F3"/>
<circle cx="590" cy="336" r="3" fill="#F44336"/>
<circle cx="590" cy="335" r="3" fill="#4CAF50"/>
<circle cx="602" cy="339" r="3" fill="#2196F3"/>
<circle cx="602" cy="336" r="3" fill="#F44336"/>
<circle cx="602" cy="335" r="3" fill="#4CAF50"/>
<circle cx="614" cy="339" r="3" fill="#2196F3"/>
<circle cx="614" cy="335" r="3" fill="#F44336"/>
<circle cx="614" cy="334" r="3" fill="#4CAF50"/>
<circle cx="626" cy="339" r="3" fill="#2196F3"/>
<circle cx="626" cy="335" r="3" fill="#F44336"/>
<circle cx="626" cy="334" r="3" fill="#4CAF50"/>
<circle cx="638" cy="339" r="3" fill="#2196F3"/>
<circle cx="638" cy="335" r="3" fill="#F44336"/>
<circle cx="638" cy="334" r="3" fill="#4CAF50"/>
<circle cx="649" cy="339" r="3" fill="#2196F3"/>
<circle cx="649" cy="335" r="3" fill="#F44336"/>
<circle cx="649" cy="334" r="3" fill="#4CAF50"/>
<circle cx="661" cy="339" r="3" fill="#2196F3"/>
<circle cx="661" cy="335" r="3" fill="#F44336"/>
<circle cx="661" cy="334" r="3" fill="#4CAF50"/>
<circle cx="673" cy="339" r="3" fill="#2196F3"/>
<circle cx="673" cy="335" r="3" fill="#F44336"/>
<circle cx="673" cy="334" r="3" fill="#4CAF50"/>
<circle cx="685" cy="339" r="3" fill="#2196F3"/>
<circle cx="685" cy="335" r="3" fill="#F44336"/>
<circle cx="685" cy="334" r="3" fill="#4CAF50"/>
<circle cx="697" cy="339" r="3" fill="#2196F3"/>
<circle cx="697" cy="335" r="3" fill="#F44336"/>
<circle cx="697" cy="334" r="3" fill="#4CAF50"/>
<circle cx="709" cy="339" r="3" fill="#2196F3"/>
<circle cx="709" cy="335" r="3" fill="#F44336"/>
<circle cx="709" cy="335" r="3" fill="#4CAF50"/>
<circle cx="720" cy="339" r="3" fill="#2196F3"/>
<circle cx="720" cy="335" r="3" fill="#F44336"/>
<circle cx="720" cy="335" r="3" fill="#4CAF50"/>
<circle cx="732" cy="339" r="3" fill="#2196F3"/>
<circle cx="732" cy="335" r="3" fill="#F44336"/>
<circle cx="732" cy="335" r="3" fill="#4CAF50"/>
<circle cx="744" cy="339" r="3" fill="#2196F3"/>
<circle cx="744" cy="335" r="3" fill="#F44336"/>
<circle cx="744" cy="335" r="3" fill="#4CAF50"/>
<circle cx="756" cy="228" r="3" fill="#2196F3"/>
<circle cx="756" cy="299" r="3" fill="#F44336"/>
<circle cx="756" cy="41" r="3" fill="#4CAF50"/>
<circle cx="768" cy="227" r="3" fill="#2196F3"/>
<circle cx="768" cy="299" r="3" fill="#F44336"/>
<circle cx="768" cy="41" r="3" fill="#4CAF50"/>
<circle cx="780" cy="229" r="3" fill="#2196F3"/>
<circle cx="780" cy="300" r="3" fill="#F44336"/>
<circle cx="780" cy="47" r="3" fill="#4CAF50"/>
<text x="70" y="355" text-anchor="middle" font-size="10" fill="#666">d31c3d3</text>
<text x="81" y="355" text-anchor="middle" font-size="10" fill="#666">577b0f6</text>
<text x="93" y="355" text-anchor="middle" font-size="10" fill="#666">a0e3a8f</text>
<text x="105" y="355" text-anchor="middle" font-size="10" fill="#666">32b7787</text>
<text x="117" y="355" text-anchor="middle" font-size="10" fill="#666">940e369</text>
<text x="129" y="355" text-anchor="middle" font-size="10" fill="#666">78956c1</text>
<text x="141" y="355" text-anchor="middle" font-size="10" fill="#666">1a288e9</text>
<text x="152" y="355" text-anchor="middle" font-size="10" fill="#666">f1c0746</text>
<text x="164" y="355" text-anchor="middle" font-size="10" fill="#666">efad3b5</text>
<text x="176" y="355" text-anchor="middle" font-size="10" fill="#666">d3839be</text>
<text x="188" y="355" text-anchor="middle" font-size="10" fill="#666">a0c21b2</text>
<text x="200" y="355" text-anchor="middle" font-size="10" fill="#666">c3d3d81</text>
<text x="212" y="355" text-anchor="middle" font-size="10" fill="#666">e40d897</text>
<text x="223" y="355" text-anchor="middle" font-size="10" fill="#666">0b1ed97</text>
<text x="235" y="355" text-anchor="middle" font-size="10" fill="#666">6a5ae3f</text>
<text x="247" y="355" text-anchor="middle" font-size="10" fill="#666">59cf448</text>
<text x="259" y="355" text-anchor="middle" font-size="10" fill="#666">42b3e04</text>
<text x="271" y="355" text-anchor="middle" font-size="10" fill="#666">bd9421a</text>
<text x="283" y="355" text-anchor="middle" font-size="10" fill="#666">f80812f</text>
<text x="294" y="355" text-anchor="middle" font-size="10" fill="#666">448a5fe</text>
<text x="306" y="355" text-anchor="middle" font-size="10" fill="#666">b16c1cc</text>
<text x="318" y="355" text-anchor="middle" font-size="10" fill="#666">44c334c</text>
<text x="330" y="355" text-anchor="middle" font-size="10" fill="#666">aa51d1a</text>
<text x="342" y="355" text-anchor="middle" font-size="10" fill="#666">9bee79a</text>
<text x="354" y="355" text-anchor="middle" font-size="10" fill="#666">4380346</text>
<text x="365" y="355" text-anchor="middle" font-size="10" fill="#666">2a587a9</text>
<text x="377" y="355" text-anchor="middle" font-size="10" fill="#666">efb005a</text>
<text x="389" y="355" text-anchor="middle" font-size="10" fill="#666">1c3b72e</text>
<text x="401" y="355" text-anchor="middle" font-size="10" fill="#666">ff7c733</text>
<text x="413" y="355" text-anchor="middle" font-size="10" fill="#666">962897f</text>
<text x="425" y="355" text-anchor="middle" font-size="10" fill="#666">dfec04b</text>
<text x="436" y="355" text-anchor="middle" font-size="10" fill="#666">60e18de</text>
<text x="448" y="355" text-anchor="middle" font-size="10" fill="#666">80a0d41</text>
<text x="460" y="355" text-anchor="middle" font-size="10" fill="#666">e200726</text>
<text x="472" y="355" text-anchor="middle" font-size="10" fill="#666">775a89f</text>
<text x="484" y="355" text-anchor="middle" font-size="10" fill="#666">18e45a5</text>
<text x="496" y="355" text-anchor="middle" font-size="10" fill="#666">9d60b61</text>
<text x="507" y="355" text-anchor="middle" font-size="10" fill="#666">479229b</text>
<text x="519" y="355" text-anchor="middle" font-size="10" fill="#666">39769db</text>
<text x="531" y="355" text-anchor="middle" font-size="10" fill="#666">2834756</text>
<text x="543" y="355" text-anchor="middle" font-size="10" fill="#666">3628e6d</text>
<text x="555" y="355" text-anchor="middle" font-size="10" fill="#666">daa3fc2</text>
<text x="567" y="355" text-anchor="middle" font-size="10" fill="#666">8fc41b8</text>
<text x="578" y="355" text-anchor="middle" font-size="10" fill="#666">7d63976</text>
<text x="590" y="355" text-anchor="middle" font-size="10" fill="#666">4f6a400</text>
<text x="602" y="355" text-anchor="middle" font-size="10" fill="#666">443d8b3</text>
<text x="614" y="355" text-anchor="middle" font-size="10" fill="#666">86f53df</text>
<text x="626" y="355" text-anchor="middle" font-size="10" fill="#666">d665d11</text>
<text x="638" y="355" text-anchor="middle" font-size="10" fill="#666">23f76d5</text>
<text x="649" y="355" text-anchor="middle" font-size="10" fill="#666">bc8afe6</text>
<text x="661" y="355" text-anchor="middle" font-size="10" fill="#666">ed1092f</text>
<text x="673" y="355" text-anchor="middle" font-size="10" fill="#666">058700a</text>
<text x="685" y="355" text-anchor="middle" font-size="10" fill="#666">c44d2f0</text>
<text x="697" y="355" text-anchor="middle" font-size="10" fill="#666">a147f05</text>
<text x="709" y="355" text-anchor="middle" font-size="10" fill="#666">8f2cd31</text>
<text x="720" y="355" text-anchor="middle" font-size="10" fill="#666">a3c1996</text>
<text x="732" y="355" text-anchor="middle" font-size="10" fill="#666">e392419</text>
<text x="744" y="355" text-anchor="middle" font-size="10" fill="#666">e392419</text>
<text x="756" y="355" text-anchor="middle" font-size="10" fill="#666">5162bfc</text>
<text x="768" y="355" text-anchor="middle" font-size="10" fill="#666">a9fb721</text>
<text x="780" y="355" text-anchor="middle" font-size="10" fill="#666">14bb4b6</text>
<circle cx="90" cy="20" r="4" fill="#2196F3"/>
<text x="98" y="24" text-anchor="start" font-size="12" fill="#2196F3">Interpreted</text>
<circle cx="200" cy="20" r="4" fill="#F44336"/>
<text x="208" y="24" text-anchor="start" font-size="12" fill="#F44336">Compiled</text>
<circle cx="300" cy="20" r="4" fill="#4CAF50"/>
<text x="308" y="24" text-anchor="start" font-size="12" fill="#4CAF50">Wall-clock</text>
</svg>
