<svg width="800" height="400" xmlns="http://www.w3.org/2000/svg">
<rect width="800" height="400" fill="white"/>
<line x1="70" y1="40" x2="70" y2="340" stroke="#333" stroke-width="1"/>
<line x1="70" y1="340" x2="730" y2="340" stroke="#333" stroke-width="1"/>
<line x1="730" y1="40" x2="730" y2="340" stroke="#333" stroke-width="1"/>
<text x="65" y="344" text-anchor="end" font-size="11" fill="#333">0</text>
<text x="65" y="194" text-anchor="end" font-size="11" fill="#333">186000</text>
<text x="65" y="44" text-anchor="end" font-size="11" fill="#333">372000</text>
<text x="15" y="190" text-anchor="middle" font-size="12" fill="#333" transform="rotate(-90 15 190)">ms</text>
<text x="735" y="344" text-anchor="start" font-size="11" fill="#333">0</text>
<text x="735" y="194" text-anchor="start" font-size="11" fill="#333">8537000000</text>
<text x="735" y="44" text-anchor="start" font-size="11" fill="#333">17074000000</text>
<text x="785" y="190" text-anchor="middle" font-size="12" fill="#333" transform="rotate(90 785 190)">bytes</text>
<polyline points="70,112 143,106 216,104 290,65 363,63 436,65 510,52 583,45 656,46 730,41" fill="none" stroke="#0072B2" stroke-width="2"/>
<polyline points="70,132 143,127 216,125 290,122 363,120 436,120 510,107 583,100 656,102 730,101" fill="none" stroke="#CC79A7" stroke-width="2"/>
<polyline points="70,340 143,340 216,340 290,340 363,340 436,340 510,340 583,340 656,340 730,340" fill="none" stroke="#D55E00" stroke-width="2"/>
<polyline points="70,301 143,300 216,299 290,299 363,298 436,299 510,299 583,298 656,298 730,297" fill="none" stroke="#009E73" stroke-width="2"/>
<polyline points="70,295 143,294 216,294 290,293 363,292 436,293 510,290 583,290 656,290 730,290" fill="none" stroke="#56B4E9" stroke-width="2"/>
<polyline points="70,219 143,217 216,217 290,214 363,212 436,212 510,205 583,205 656,205 730,205" fill="none" stroke="#E69F00" stroke-width="2"/>
<polyline points="70,339 143,338 216,339 290,339 363,339 436,339 510,338 583,337 656,336 730,337" fill="none" stroke="#C44E52" stroke-width="2"/>
<polyline points="70,61 143,58 216,60 290,55 363,52 436,52 510,41 583,42 656,41 730,41" fill="none" stroke="#000000" stroke-width="2"/>
<circle cx="70" cy="112" r="3" fill="#0072B2"/>
<circle cx="70" cy="132" r="3" fill="#CC79A7"/>
<circle cx="70" cy="340" r="3" fill="#D55E00"/>
<circle cx="70" cy="301" r="3" fill="#009E73"/>
<circle cx="70" cy="295" r="3" fill="#56B4E9"/>
<circle cx="70" cy="219" r="3" fill="#E69F00"/>
<circle cx="70" cy="339" r="3" fill="#C44E52"/>
<circle cx="70" cy="61" r="3" fill="#000000"/>
<circle cx="143" cy="106" r="3" fill="#0072B2"/>
<circle cx="143" cy="127" r="3" fill="#CC79A7"/>
<circle cx="143" cy="340" r="3" fill="#D55E00"/>
<circle cx="143" cy="300" r="3" fill="#009E73"/>
<circle cx="143" cy="294" r="3" fill="#56B4E9"/>
<circle cx="143" cy="217" r="3" fill="#E69F00"/>
<circle cx="143" cy="338" r="3" fill="#C44E52"/>
<circle cx="143" cy="58" r="3" fill="#000000"/>
<circle cx="216" cy="104" r="3" fill="#0072B2"/>
<circle cx="216" cy="125" r="3" fill="#CC79A7"/>
<circle cx="216" cy="340" r="3" fill="#D55E00"/>
<circle cx="216" cy="299" r="3" fill="#009E73"/>
<circle cx="216" cy="294" r="3" fill="#56B4E9"/>
<circle cx="216" cy="217" r="3" fill="#E69F00"/>
<circle cx="216" cy="339" r="3" fill="#C44E52"/>
<circle cx="216" cy="60" r="3" fill="#000000"/>
<circle cx="290" cy="65" r="3" fill="#0072B2"/>
<circle cx="290" cy="122" r="3" fill="#CC79A7"/>
<circle cx="290" cy="340" r="3" fill="#D55E00"/>
<circle cx="290" cy="299" r="3" fill="#009E73"/>
<circle cx="290" cy="293" r="3" fill="#56B4E9"/>
<circle cx="290" cy="214" r="3" fill="#E69F00"/>
<circle cx="290" cy="339" r="3" fill="#C44E52"/>
<circle cx="290" cy="55" r="3" fill="#000000"/>
<circle cx="363" cy="63" r="3" fill="#0072B2"/>
<circle cx="363" cy="120" r="3" fill="#CC79A7"/>
<circle cx="363" cy="340" r="3" fill="#D55E00"/>
<circle cx="363" cy="298" r="3" fill="#009E73"/>
<circle cx="363" cy="292" r="3" fill="#56B4E9"/>
<circle cx="363" cy="212" r="3" fill="#E69F00"/>
<circle cx="363" cy="339" r="3" fill="#C44E52"/>
<circle cx="363" cy="52" r="3" fill="#000000"/>
<circle cx="436" cy="65" r="3" fill="#0072B2"/>
<circle cx="436" cy="120" r="3" fill="#CC79A7"/>
<circle cx="436" cy="340" r="3" fill="#D55E00"/>
<circle cx="436" cy="299" r="3" fill="#009E73"/>
<circle cx="436" cy="293" r="3" fill="#56B4E9"/>
<circle cx="436" cy="212" r="3" fill="#E69F00"/>
<circle cx="436" cy="339" r="3" fill="#C44E52"/>
<circle cx="436" cy="52" r="3" fill="#000000"/>
<circle cx="510" cy="52" r="3" fill="#0072B2"/>
<circle cx="510" cy="107" r="3" fill="#CC79A7"/>
<circle cx="510" cy="340" r="3" fill="#D55E00"/>
<circle cx="510" cy="299" r="3" fill="#009E73"/>
<circle cx="510" cy="290" r="3" fill="#56B4E9"/>
<circle cx="510" cy="205" r="3" fill="#E69F00"/>
<circle cx="510" cy="338" r="3" fill="#C44E52"/>
<circle cx="510" cy="41" r="3" fill="#000000"/>
<circle cx="583" cy="45" r="3" fill="#0072B2"/>
<circle cx="583" cy="100" r="3" fill="#CC79A7"/>
<circle cx="583" cy="340" r="3" fill="#D55E00"/>
<circle cx="583" cy="298" r="3" fill="#009E73"/>
<circle cx="583" cy="290" r="3" fill="#56B4E9"/>
<circle cx="583" cy="205" r="3" fill="#E69F00"/>
<circle cx="583" cy="337" r="3" fill="#C44E52"/>
<circle cx="583" cy="42" r="3" fill="#000000"/>
<circle cx="656" cy="46" r="3" fill="#0072B2"/>
<circle cx="656" cy="102" r="3" fill="#CC79A7"/>
<circle cx="656" cy="340" r="3" fill="#D55E00"/>
<circle cx="656" cy="298" r="3" fill="#009E73"/>
<circle cx="656" cy="290" r="3" fill="#56B4E9"/>
<circle cx="656" cy="205" r="3" fill="#E69F00"/>
<circle cx="656" cy="336" r="3" fill="#C44E52"/>
<circle cx="656" cy="41" r="3" fill="#000000"/>
<circle cx="730" cy="41" r="3" fill="#0072B2"/>
<circle cx="730" cy="101" r="3" fill="#CC79A7"/>
<circle cx="730" cy="340" r="3" fill="#D55E00"/>
<circle cx="730" cy="297" r="3" fill="#009E73"/>
<circle cx="730" cy="290" r="3" fill="#56B4E9"/>
<circle cx="730" cy="205" r="3" fill="#E69F00"/>
<circle cx="730" cy="337" r="3" fill="#C44E52"/>
<circle cx="730" cy="41" r="3" fill="#000000"/>
<circle cx="90" cy="20" r="4" fill="#0072B2"/>
<text x="98" y="24" text-anchor="start" font-size="12" fill="#0072B2">inte</text>
<circle cx="150" cy="20" r="4" fill="#CC79A7"/>
<text x="158" y="24" text-anchor="start" font-size="12" fill="#CC79A7">comp</text>
<circle cx="215" cy="20" r="4" fill="#D55E00"/>
<text x="223" y="24" text-anchor="start" font-size="12" fill="#D55E00">run</text>
<circle cx="270" cy="20" r="4" fill="#009E73"/>
<text x="278" y="24" text-anchor="start" font-size="12" fill="#009E73">wall</text>
<circle cx="335" cy="20" r="4" fill="#56B4E9"/>
<text x="343" y="24" text-anchor="start" font-size="12" fill="#56B4E9">mem-inte</text>
<circle cx="425" cy="20" r="4" fill="#E69F00"/>
<text x="433" y="24" text-anchor="start" font-size="12" fill="#E69F00">mem-comp</text>
<circle cx="520" cy="20" r="4" fill="#C44E52"/>
<text x="528" y="24" text-anchor="start" font-size="12" fill="#C44E52">mem-run</text>
<circle cx="605" cy="20" r="4" fill="#000000"/>
<text x="613" y="24" text-anchor="start" font-size="12" fill="#000000">mem-total</text>
</svg>
