<svg width="800" height="400" xmlns="http://www.w3.org/2000/svg">
<rect width="800" height="400" fill="white"/>
<line x1="70" y1="40" x2="70" y2="340" stroke="#333" stroke-width="1"/>
<line x1="70" y1="340" x2="730" y2="340" stroke="#333" stroke-width="1"/>
<line x1="730" y1="40" x2="730" y2="340" stroke="#333" stroke-width="1"/>
<text x="65" y="344" text-anchor="end" font-size="11" fill="#333">0</text>
<text x="65" y="194" text-anchor="end" font-size="11" fill="#333">89500</text>
<text x="65" y="44" text-anchor="end" font-size="11" fill="#333">179000</text>
<text x="15" y="190" text-anchor="middle" font-size="12" fill="#333" transform="rotate(-90 15 190)">ms</text>
<text x="735" y="344" text-anchor="start" font-size="11" fill="#333">0</text>
<text x="735" y="194" text-anchor="start" font-size="11" fill="#333">1500000</text>
<text x="735" y="44" text-anchor="start" font-size="11" fill="#333">3000000</text>
<text x="785" y="190" text-anchor="middle" font-size="12" fill="#333" transform="rotate(90 785 190)">bytes</text>
<polyline points="70,95 143,88 216,120 290,119 363,118 436,119 510,111 583,69 656,102 730,123" fill="none" stroke="#0072B2" stroke-width="2"/>
<polyline points="70,86 143,81 216,110 290,106 363,108 436,109 510,89 583,42 656,81 730,112" fill="none" stroke="#CC79A7" stroke-width="2"/>
<polyline points="70,337 143,337 216,337 290,337 363,337 436,337 510,337 583,338 656,337 730,337" fill="none" stroke="#D55E00" stroke-width="2"/>
<polyline points="70,307 143,306 216,310 290,310 363,310 436,311 510,123 583,89 656,114 730,311" fill="none" stroke="#009E73" stroke-width="2"/>
<polyline points="70,156 143,156 216,156 290,156 363,156 436,156 510,129 583,135 656,135 730,156" fill="none" stroke="#56B4E9" stroke-width="2"/>
<circle cx="70" cy="95" r="3" fill="#0072B2"/>
<circle cx="70" cy="86" r="3" fill="#CC79A7"/>
<circle cx="70" cy="337" r="3" fill="#D55E00"/>
<circle cx="70" cy="307" r="3" fill="#009E73"/>
<circle cx="70" cy="156" r="3" fill="#56B4E9"/>
<circle cx="143" cy="88" r="3" fill="#0072B2"/>
<circle cx="143" cy="81" r="3" fill="#CC79A7"/>
<circle cx="143" cy="337" r="3" fill="#D55E00"/>
<circle cx="143" cy="306" r="3" fill="#009E73"/>
<circle cx="143" cy="156" r="3" fill="#56B4E9"/>
<circle cx="216" cy="120" r="3" fill="#0072B2"/>
<circle cx="216" cy="110" r="3" fill="#CC79A7"/>
<circle cx="216" cy="337" r="3" fill="#D55E00"/>
<circle cx="216" cy="310" r="3" fill="#009E73"/>
<circle cx="216" cy="156" r="3" fill="#56B4E9"/>
<circle cx="290" cy="119" r="3" fill="#0072B2"/>
<circle cx="290" cy="106" r="3" fill="#CC79A7"/>
<circle cx="290" cy="337" r="3" fill="#D55E00"/>
<circle cx="290" cy="310" r="3" fill="#009E73"/>
<circle cx="290" cy="156" r="3" fill="#56B4E9"/>
<circle cx="363" cy="118" r="3" fill="#0072B2"/>
<circle cx="363" cy="108" r="3" fill="#CC79A7"/>
<circle cx="363" cy="337" r="3" fill="#D55E00"/>
<circle cx="363" cy="310" r="3" fill="#009E73"/>
<circle cx="363" cy="156" r="3" fill="#56B4E9"/>
<circle cx="436" cy="119" r="3" fill="#0072B2"/>
<circle cx="436" cy="109" r="3" fill="#CC79A7"/>
<circle cx="436" cy="337" r="3" fill="#D55E00"/>
<circle cx="436" cy="311" r="3" fill="#009E73"/>
<circle cx="436" cy="156" r="3" fill="#56B4E9"/>
<circle cx="510" cy="111" r="3" fill="#0072B2"/>
<circle cx="510" cy="89" r="3" fill="#CC79A7"/>
<circle cx="510" cy="337" r="3" fill="#D55E00"/>
<circle cx="510" cy="123" r="3" fill="#009E73"/>
<circle cx="510" cy="129" r="3" fill="#56B4E9"/>
<circle cx="583" cy="69" r="3" fill="#0072B2"/>
<circle cx="583" cy="42" r="3" fill="#CC79A7"/>
<circle cx="583" cy="338" r="3" fill="#D55E00"/>
<circle cx="583" cy="89" r="3" fill="#009E73"/>
<circle cx="583" cy="135" r="3" fill="#56B4E9"/>
<circle cx="656" cy="102" r="3" fill="#0072B2"/>
<circle cx="656" cy="81" r="3" fill="#CC79A7"/>
<circle cx="656" cy="337" r="3" fill="#D55E00"/>
<circle cx="656" cy="114" r="3" fill="#009E73"/>
<circle cx="656" cy="135" r="3" fill="#56B4E9"/>
<circle cx="730" cy="123" r="3" fill="#0072B2"/>
<circle cx="730" cy="112" r="3" fill="#CC79A7"/>
<circle cx="730" cy="337" r="3" fill="#D55E00"/>
<circle cx="730" cy="311" r="3" fill="#009E73"/>
<circle cx="730" cy="156" r="3" fill="#56B4E9"/>
<circle cx="90" cy="20" r="4" fill="#0072B2"/>
<text x="98" y="24" text-anchor="start" font-size="12" fill="#0072B2">interpreted</text>
<circle cx="190" cy="20" r="4" fill="#CC79A7"/>
<text x="198" y="24" text-anchor="start" font-size="12" fill="#CC79A7">compiled</text>
<circle cx="275" cy="20" r="4" fill="#D55E00"/>
<text x="283" y="24" text-anchor="start" font-size="12" fill="#D55E00">executed</text>
<circle cx="355" cy="20" r="4" fill="#009E73"/>
<text x="363" y="24" text-anchor="start" font-size="12" fill="#009E73">wall</text>
<circle cx="420" cy="20" r="4" fill="#56B4E9"/>
<text x="428" y="24" text-anchor="start" font-size="12" fill="#56B4E9">memory</text>
</svg>
