<svg width="800" height="400" xmlns="http://www.w3.org/2000/svg">
<rect width="800" height="400" fill="white"/>
<line x1="70" y1="40" x2="70" y2="340" stroke="#333" stroke-width="1"/>
<line x1="70" y1="340" x2="730" y2="340" stroke="#333" stroke-width="1"/>
<line x1="730" y1="40" x2="730" y2="340" stroke="#333" stroke-width="1"/>
<text x="65" y="344" text-anchor="end" font-size="11" fill="#333">0</text>
<text x="65" y="194" text-anchor="end" font-size="11" fill="#333">354000</text>
<text x="65" y="44" text-anchor="end" font-size="11" fill="#333">708000</text>
<text x="15" y="190" text-anchor="middle" font-size="12" fill="#333" transform="rotate(-90 15 190)">ms</text>
<text x="735" y="344" text-anchor="start" font-size="11" fill="#333">0</text>
<text x="735" y="194" text-anchor="start" font-size="11" fill="#333">6973000000</text>
<text x="735" y="44" text-anchor="start" font-size="11" fill="#333">13946000000</text>
<text x="785" y="190" text-anchor="middle" font-size="12" fill="#333" transform="rotate(90 785 190)">bytes</text>
<polyline points="70,157 143,155 216,154 290,149 363,146 436,152 510,142 583,107 656,156 730,161" fill="none" stroke="#0072B2" stroke-width="2"/>
<polyline points="70,134 143,140 216,132 290,122 363,140 436,144 510,115 583,79 656,41 730,58" fill="none" stroke="#CC79A7" stroke-width="2"/>
<polyline points="70,340 143,340 216,340 290,340 363,340 436,340 510,340 583,340 656,340 730,340" fill="none" stroke="#D55E00" stroke-width="2"/>
<polyline points="70,282 143,281 216,281 290,279 363,280 436,281 510,276 583,264 656,266 730,270" fill="none" stroke="#009E73" stroke-width="2"/>
<polyline points="70,258 143,256 216,256 290,256 363,256 436,256 510,256 583,256 656,260 730,260" fill="none" stroke="#56B4E9" stroke-width="2"/>
<polyline points="70,216 143,209 216,212 290,212 363,211 436,211 510,207 583,202 656,178 730,178" fill="none" stroke="#E69F00" stroke-width="2"/>
<polyline points="70,340 143,340 216,340 290,340 363,340 436,340 510,340 583,340 656,340 730,340" fill="none" stroke="#C44E52" stroke-width="2"/>
<polyline points="70,81 143,71 216,73 290,75 363,73 436,73 510,70 583,65 656,41 730,41" fill="none" stroke="#000000" stroke-width="2"/>
<circle cx="70" cy="157" r="3" fill="#0072B2"/>
<circle cx="70" cy="134" r="3" fill="#CC79A7"/>
<circle cx="70" cy="340" r="3" fill="#D55E00"/>
<circle cx="70" cy="282" r="3" fill="#009E73"/>
<circle cx="70" cy="258" r="3" fill="#56B4E9"/>
<circle cx="70" cy="216" r="3" fill="#E69F00"/>
<circle cx="70" cy="340" r="3" fill="#C44E52"/>
<circle cx="70" cy="81" r="3" fill="#000000"/>
<circle cx="143" cy="155" r="3" fill="#0072B2"/>
<circle cx="143" cy="140" r="3" fill="#CC79A7"/>
<circle cx="143" cy="340" r="3" fill="#D55E00"/>
<circle cx="143" cy="281" r="3" fill="#009E73"/>
<circle cx="143" cy="256" r="3" fill="#56B4E9"/>
<circle cx="143" cy="209" r="3" fill="#E69F00"/>
<circle cx="143" cy="340" r="3" fill="#C44E52"/>
<circle cx="143" cy="71" r="3" fill="#000000"/>
<circle cx="216" cy="154" r="3" fill="#0072B2"/>
<circle cx="216" cy="132" r="3" fill="#CC79A7"/>
<circle cx="216" cy="340" r="3" fill="#D55E00"/>
<circle cx="216" cy="281" r="3" fill="#009E73"/>
<circle cx="216" cy="256" r="3" fill="#56B4E9"/>
<circle cx="216" cy="212" r="3" fill="#E69F00"/>
<circle cx="216" cy="340" r="3" fill="#C44E52"/>
<circle cx="216" cy="73" r="3" fill="#000000"/>
<circle cx="290" cy="149" r="3" fill="#0072B2"/>
<circle cx="290" cy="122" r="3" fill="#CC79A7"/>
<circle cx="290" cy="340" r="3" fill="#D55E00"/>
<circle cx="290" cy="279" r="3" fill="#009E73"/>
<circle cx="290" cy="256" r="3" fill="#56B4E9"/>
<circle cx="290" cy="212" r="3" fill="#E69F00"/>
<circle cx="290" cy="340" r="3" fill="#C44E52"/>
<circle cx="290" cy="75" r="3" fill="#000000"/>
<circle cx="363" cy="146" r="3" fill="#0072B2"/>
<circle cx="363" cy="140" r="3" fill="#CC79A7"/>
<circle cx="363" cy="340" r="3" fill="#D55E00"/>
<circle cx="363" cy="280" r="3" fill="#009E73"/>
<circle cx="363" cy="256" r="3" fill="#56B4E9"/>
<circle cx="363" cy="211" r="3" fill="#E69F00"/>
<circle cx="363" cy="340" r="3" fill="#C44E52"/>
<circle cx="363" cy="73" r="3" fill="#000000"/>
<circle cx="436" cy="152" r="3" fill="#0072B2"/>
<circle cx="436" cy="144" r="3" fill="#CC79A7"/>
<circle cx="436" cy="340" r="3" fill="#D55E00"/>
<circle cx="436" cy="281" r="3" fill="#009E73"/>
<circle cx="436" cy="256" r="3" fill="#56B4E9"/>
<circle cx="436" cy="211" r="3" fill="#E69F00"/>
<circle cx="436" cy="340" r="3" fill="#C44E52"/>
<circle cx="436" cy="73" r="3" fill="#000000"/>
<circle cx="510" cy="142" r="3" fill="#0072B2"/>
<circle cx="510" cy="115" r="3" fill="#CC79A7"/>
<circle cx="510" cy="340" r="3" fill="#D55E00"/>
<circle cx="510" cy="276" r="3" fill="#009E73"/>
<circle cx="510" cy="256" r="3" fill="#56B4E9"/>
<circle cx="510" cy="207" r="3" fill="#E69F00"/>
<circle cx="510" cy="340" r="3" fill="#C44E52"/>
<circle cx="510" cy="70" r="3" fill="#000000"/>
<circle cx="583" cy="107" r="3" fill="#0072B2"/>
<circle cx="583" cy="79" r="3" fill="#CC79A7"/>
<circle cx="583" cy="340" r="3" fill="#D55E00"/>
<circle cx="583" cy="264" r="3" fill="#009E73"/>
<circle cx="583" cy="256" r="3" fill="#56B4E9"/>
<circle cx="583" cy="202" r="3" fill="#E69F00"/>
<circle cx="583" cy="340" r="3" fill="#C44E52"/>
<circle cx="583" cy="65" r="3" fill="#000000"/>
<circle cx="656" cy="156" r="3" fill="#0072B2"/>
<circle cx="656" cy="41" r="3" fill="#CC79A7"/>
<circle cx="656" cy="340" r="3" fill="#D55E00"/>
<circle cx="656" cy="266" r="3" fill="#009E73"/>
<circle cx="656" cy="260" r="3" fill="#56B4E9"/>
<circle cx="656" cy="178" r="3" fill="#E69F00"/>
<circle cx="656" cy="340" r="3" fill="#C44E52"/>
<circle cx="656" cy="41" r="3" fill="#000000"/>
<circle cx="730" cy="161" r="3" fill="#0072B2"/>
<circle cx="730" cy="58" r="3" fill="#CC79A7"/>
<circle cx="730" cy="340" r="3" fill="#D55E00"/>
<circle cx="730" cy="270" r="3" fill="#009E73"/>
<circle cx="730" cy="260" r="3" fill="#56B4E9"/>
<circle cx="730" cy="178" r="3" fill="#E69F00"/>
<circle cx="730" cy="340" r="3" fill="#C44E52"/>
<circle cx="730" cy="41" r="3" fill="#000000"/>
<circle cx="90" cy="20" r="4" fill="#0072B2"/>
<text x="98" y="24" text-anchor="start" font-size="12" fill="#0072B2">inte</text>
<circle cx="150" cy="20" r="4" fill="#CC79A7"/>
<text x="158" y="24" text-anchor="start" font-size="12" fill="#CC79A7">comp</text>
<circle cx="215" cy="20" r="4" fill="#D55E00"/>
<text x="223" y="24" text-anchor="start" font-size="12" fill="#D55E00">run</text>
<circle cx="270" cy="20" r="4" fill="#009E73"/>
<text x="278" y="24" text-anchor="start" font-size="12" fill="#009E73">wall</text>
<circle cx="335" cy="20" r="4" fill="#56B4E9"/>
<text x="343" y="24" text-anchor="start" font-size="12" fill="#56B4E9">mem-inte</text>
<circle cx="425" cy="20" r="4" fill="#E69F00"/>
<text x="433" y="24" text-anchor="start" font-size="12" fill="#E69F00">mem-comp</text>
<circle cx="520" cy="20" r="4" fill="#C44E52"/>
<text x="528" y="24" text-anchor="start" font-size="12" fill="#C44E52">mem-run</text>
<circle cx="605" cy="20" r="4" fill="#000000"/>
<text x="613" y="24" text-anchor="start" font-size="12" fill="#000000">mem-total</text>
</svg>
