<svg width="800" height="400" xmlns="http://www.w3.org/2000/svg">
<rect width="800" height="400" fill="white"/>
<line x1="70" y1="40" x2="70" y2="340" stroke="#333" stroke-width="1"/>
<line x1="70" y1="340" x2="780" y2="340" stroke="#333" stroke-width="1"/>
<text x="65" y="344" text-anchor="end" font-size="11" fill="#333">0</text>
<text x="65" y="194" text-anchor="end" font-size="11" fill="#333">192500</text>
<text x="65" y="44" text-anchor="end" font-size="11" fill="#333">385000</text>
<text x="15" y="190" text-anchor="middle" font-size="12" fill="#333" transform="rotate(-90 15 190)">ms</text>
<polyline points="70,227 107,297 144,296 182,299 219,300 256,300 294,300 331,299 368,300 406,300 443,297 481,296 518,294 555,294 593,294 630,294 667,288 705,282 742,283 780,296" fill="none" stroke="#0072B2" stroke-width="2"/>
<polyline points="70,299 107,323 144,323 182,326 219,326 256,326 294,326 331,326 368,326 406,326 443,325 481,326 518,323 555,323 593,323 630,323 667,317 705,311 742,312 780,324" fill="none" stroke="#D55E00" stroke-width="2"/>
<polyline points="70,340 107,340 144,340 182,340 219,340 256,340 294,340 331,340 368,340 406,340 443,340 481,340 518,340 555,340 593,340 630,340 667,340 705,283 742,282 780,296" fill="none" stroke="#CC79A7" stroke-width="2"/>
<polyline points="70,340 107,340 144,340 182,340 219,340 256,340 294,340 331,340 368,340 406,340 443,340 481,340 518,340 555,340 593,340 630,340 667,340 705,312 742,312 780,326" fill="none" stroke="#E69F00" stroke-width="2"/>
<polyline points="70,41 107,225 144,225 182,225 219,227 256,227 294,227 331,224 368,226 406,225 443,223 481,224 518,218 555,217 593,217 630,219 667,211 705,199 742,197 780,117" fill="none" stroke="#009E73" stroke-width="2"/>
<circle cx="70" cy="227" r="3" fill="#0072B2"/>
<circle cx="70" cy="299" r="3" fill="#D55E00"/>
<circle cx="70" cy="340" r="3" fill="#CC79A7"/>
<circle cx="70" cy="340" r="3" fill="#E69F00"/>
<circle cx="70" cy="41" r="3" fill="#009E73"/>
<circle cx="107" cy="297" r="3" fill="#0072B2"/>
<circle cx="107" cy="323" r="3" fill="#D55E00"/>
<circle cx="107" cy="340" r="3" fill="#CC79A7"/>
<circle cx="107" cy="340" r="3" fill="#E69F00"/>
<circle cx="107" cy="225" r="3" fill="#009E73"/>
<circle cx="144" cy="296" r="3" fill="#0072B2"/>
<circle cx="144" cy="323" r="3" fill="#D55E00"/>
<circle cx="144" cy="340" r="3" fill="#CC79A7"/>
<circle cx="144" cy="340" r="3" fill="#E69F00"/>
<circle cx="144" cy="225" r="3" fill="#009E73"/>
<circle cx="182" cy="299" r="3" fill="#0072B2"/>
<circle cx="182" cy="326" r="3" fill="#D55E00"/>
<circle cx="182" cy="340" r="3" fill="#CC79A7"/>
<circle cx="182" cy="340" r="3" fill="#E69F00"/>
<circle cx="182" cy="225" r="3" fill="#009E73"/>
<circle cx="219" cy="300" r="3" fill="#0072B2"/>
<circle cx="219" cy="326" r="3" fill="#D55E00"/>
<circle cx="219" cy="340" r="3" fill="#CC79A7"/>
<circle cx="219" cy="340" r="3" fill="#E69F00"/>
<circle cx="219" cy="227" r="3" fill="#009E73"/>
<circle cx="256" cy="300" r="3" fill="#0072B2"/>
<circle cx="256" cy="326" r="3" fill="#D55E00"/>
<circle cx="256" cy="340" r="3" fill="#CC79A7"/>
<circle cx="256" cy="340" r="3" fill="#E69F00"/>
<circle cx="256" cy="227" r="3" fill="#009E73"/>
<circle cx="294" cy="300" r="3" fill="#0072B2"/>
<circle cx="294" cy="326" r="3" fill="#D55E00"/>
<circle cx="294" cy="340" r="3" fill="#CC79A7"/>
<circle cx="294" cy="340" r="3" fill="#E69F00"/>
<circle cx="294" cy="227" r="3" fill="#009E73"/>
<circle cx="331" cy="299" r="3" fill="#0072B2"/>
<circle cx="331" cy="326" r="3" fill="#D55E00"/>
<circle cx="331" cy="340" r="3" fill="#CC79A7"/>
<circle cx="331" cy="340" r="3" fill="#E69F00"/>
<circle cx="331" cy="224" r="3" fill="#009E73"/>
<circle cx="368" cy="300" r="3" fill="#0072B2"/>
<circle cx="368" cy="326" r="3" fill="#D55E00"/>
<circle cx="368" cy="340" r="3" fill="#CC79A7"/>
<circle cx="368" cy="340" r="3" fill="#E69F00"/>
<circle cx="368" cy="226" r="3" fill="#009E73"/>
<circle cx="406" cy="300" r="3" fill="#0072B2"/>
<circle cx="406" cy="326" r="3" fill="#D55E00"/>
<circle cx="406" cy="340" r="3" fill="#CC79A7"/>
<circle cx="406" cy="340" r="3" fill="#E69F00"/>
<circle cx="406" cy="225" r="3" fill="#009E73"/>
<circle cx="443" cy="297" r="3" fill="#0072B2"/>
<circle cx="443" cy="325" r="3" fill="#D55E00"/>
<circle cx="443" cy="340" r="3" fill="#CC79A7"/>
<circle cx="443" cy="340" r="3" fill="#E69F00"/>
<circle cx="443" cy="223" r="3" fill="#009E73"/>
<circle cx="481" cy="296" r="3" fill="#0072B2"/>
<circle cx="481" cy="326" r="3" fill="#D55E00"/>
<circle cx="481" cy="340" r="3" fill="#CC79A7"/>
<circle cx="481" cy="340" r="3" fill="#E69F00"/>
<circle cx="481" cy="224" r="3" fill="#009E73"/>
<circle cx="518" cy="294" r="3" fill="#0072B2"/>
<circle cx="518" cy="323" r="3" fill="#D55E00"/>
<circle cx="518" cy="340" r="3" fill="#CC79A7"/>
<circle cx="518" cy="340" r="3" fill="#E69F00"/>
<circle cx="518" cy="218" r="3" fill="#009E73"/>
<circle cx="555" cy="294" r="3" fill="#0072B2"/>
<circle cx="555" cy="323" r="3" fill="#D55E00"/>
<circle cx="555" cy="340" r="3" fill="#CC79A7"/>
<circle cx="555" cy="340" r="3" fill="#E69F00"/>
<circle cx="555" cy="217" r="3" fill="#009E73"/>
<circle cx="593" cy="294" r="3" fill="#0072B2"/>
<circle cx="593" cy="323" r="3" fill="#D55E00"/>
<circle cx="593" cy="340" r="3" fill="#CC79A7"/>
<circle cx="593" cy="340" r="3" fill="#E69F00"/>
<circle cx="593" cy="217" r="3" fill="#009E73"/>
<circle cx="630" cy="294" r="3" fill="#0072B2"/>
<circle cx="630" cy="323" r="3" fill="#D55E00"/>
<circle cx="630" cy="340" r="3" fill="#CC79A7"/>
<circle cx="630" cy="340" r="3" fill="#E69F00"/>
<circle cx="630" cy="219" r="3" fill="#009E73"/>
<circle cx="667" cy="288" r="3" fill="#0072B2"/>
<circle cx="667" cy="317" r="3" fill="#D55E00"/>
<circle cx="667" cy="340" r="3" fill="#CC79A7"/>
<circle cx="667" cy="340" r="3" fill="#E69F00"/>
<circle cx="667" cy="211" r="3" fill="#009E73"/>
<circle cx="705" cy="282" r="3" fill="#0072B2"/>
<circle cx="705" cy="311" r="3" fill="#D55E00"/>
<circle cx="705" cy="283" r="3" fill="#CC79A7"/>
<circle cx="705" cy="312" r="3" fill="#E69F00"/>
<circle cx="705" cy="199" r="3" fill="#009E73"/>
<circle cx="742" cy="283" r="3" fill="#0072B2"/>
<circle cx="742" cy="312" r="3" fill="#D55E00"/>
<circle cx="742" cy="282" r="3" fill="#CC79A7"/>
<circle cx="742" cy="312" r="3" fill="#E69F00"/>
<circle cx="742" cy="197" r="3" fill="#009E73"/>
<circle cx="780" cy="296" r="3" fill="#0072B2"/>
<circle cx="780" cy="324" r="3" fill="#D55E00"/>
<circle cx="780" cy="296" r="3" fill="#CC79A7"/>
<circle cx="780" cy="326" r="3" fill="#E69F00"/>
<circle cx="780" cy="117" r="3" fill="#009E73"/>
<circle cx="90" cy="20" r="4" fill="#0072B2"/>
<text x="98" y="24" text-anchor="start" font-size="12" fill="#0072B2">ctil-i</text>
<circle cx="160" cy="20" r="4" fill="#D55E00"/>
<text x="168" y="24" text-anchor="start" font-size="12" fill="#D55E00">ctil-r</text>
<circle cx="230" cy="20" r="4" fill="#CC79A7"/>
<text x="238" y="24" text-anchor="start" font-size="12" fill="#CC79A7">til-i</text>
<circle cx="290" cy="20" r="4" fill="#E69F00"/>
<text x="298" y="24" text-anchor="start" font-size="12" fill="#E69F00">til-r</text>
<circle cx="350" cy="20" r="4" fill="#009E73"/>
<text x="358" y="24" text-anchor="start" font-size="12" fill="#009E73">Wall</text>
</svg>
