<svg width="800" height="400" xmlns="http://www.w3.org/2000/svg">
<rect width="800" height="400" fill="white"/>
<line x1="70" y1="40" x2="70" y2="340" stroke="#333" stroke-width="1"/>
<line x1="70" y1="340" x2="730" y2="340" stroke="#333" stroke-width="1"/>
<line x1="730" y1="40" x2="730" y2="340" stroke="#333" stroke-width="1"/>
<text x="65" y="344" text-anchor="end" font-size="11" fill="#333">0</text>
<text x="65" y="194" text-anchor="end" font-size="11" fill="#333">67000</text>
<text x="65" y="44" text-anchor="end" font-size="11" fill="#333">134000</text>
<text x="15" y="190" text-anchor="middle" font-size="12" fill="#333" transform="rotate(-90 15 190)">ms</text>
<text x="735" y="344" text-anchor="start" font-size="11" fill="#333">0</text>
<text x="735" y="194" text-anchor="start" font-size="11" fill="#333">6499500000</text>
<text x="735" y="44" text-anchor="start" font-size="11" fill="#333">12999000000</text>
<text x="785" y="190" text-anchor="middle" font-size="12" fill="#333" transform="rotate(90 785 190)">bytes</text>
<polyline points="70,50 143,46 216,47 290,42 363,47 436,161 510,162 583,162 656,164 730,200" fill="none" stroke="#0072B2" stroke-width="2"/>
<polyline points="70,48 143,46 216,46 290,43 363,47 436,163 510,162 583,162 656,164 730,168" fill="none" stroke="#CC79A7" stroke-width="2"/>
<polyline points="70,340 143,340 216,340 290,340 363,340 436,340 510,340 583,340 656,340 730,340" fill="none" stroke="#D55E00" stroke-width="2"/>
<polyline points="70,215 143,215 216,214 290,215 363,215 436,227 510,227 583,228 656,229 730,230" fill="none" stroke="#009E73" stroke-width="2"/>
<polyline points="70,248 143,248 216,246 290,244 363,246 436,276 510,275 583,276 656,274 730,291" fill="none" stroke="#56B4E9" stroke-width="2"/>
<polyline points="70,197 143,196 216,197 290,194 363,195 436,227 510,227 583,227 656,227 730,234" fill="none" stroke="#E69F00" stroke-width="2"/>
<polyline points="70,340 143,340 216,340 290,340 363,340 436,340 510,340 583,340 656,340 730,340" fill="none" stroke="#C44E52" stroke-width="2"/>
<polyline points="70,47 143,46 216,45 290,41 363,43 436,104 510,104 583,104 656,103 730,126" fill="none" stroke="#000000" stroke-width="2"/>
<circle cx="70" cy="50" r="3" fill="#0072B2"/>
<circle cx="70" cy="48" r="3" fill="#CC79A7"/>
<circle cx="70" cy="340" r="3" fill="#D55E00"/>
<circle cx="70" cy="215" r="3" fill="#009E73"/>
<circle cx="70" cy="248" r="3" fill="#56B4E9"/>
<circle cx="70" cy="197" r="3" fill="#E69F00"/>
<circle cx="70" cy="340" r="3" fill="#C44E52"/>
<circle cx="70" cy="47" r="3" fill="#000000"/>
<circle cx="143" cy="46" r="3" fill="#0072B2"/>
<circle cx="143" cy="46" r="3" fill="#CC79A7"/>
<circle cx="143" cy="340" r="3" fill="#D55E00"/>
<circle cx="143" cy="215" r="3" fill="#009E73"/>
<circle cx="143" cy="248" r="3" fill="#56B4E9"/>
<circle cx="143" cy="196" r="3" fill="#E69F00"/>
<circle cx="143" cy="340" r="3" fill="#C44E52"/>
<circle cx="143" cy="46" r="3" fill="#000000"/>
<circle cx="216" cy="47" r="3" fill="#0072B2"/>
<circle cx="216" cy="46" r="3" fill="#CC79A7"/>
<circle cx="216" cy="340" r="3" fill="#D55E00"/>
<circle cx="216" cy="214" r="3" fill="#009E73"/>
<circle cx="216" cy="246" r="3" fill="#56B4E9"/>
<circle cx="216" cy="197" r="3" fill="#E69F00"/>
<circle cx="216" cy="340" r="3" fill="#C44E52"/>
<circle cx="216" cy="45" r="3" fill="#000000"/>
<circle cx="290" cy="42" r="3" fill="#0072B2"/>
<circle cx="290" cy="43" r="3" fill="#CC79A7"/>
<circle cx="290" cy="340" r="3" fill="#D55E00"/>
<circle cx="290" cy="215" r="3" fill="#009E73"/>
<circle cx="290" cy="244" r="3" fill="#56B4E9"/>
<circle cx="290" cy="194" r="3" fill="#E69F00"/>
<circle cx="290" cy="340" r="3" fill="#C44E52"/>
<circle cx="290" cy="41" r="3" fill="#000000"/>
<circle cx="363" cy="47" r="3" fill="#0072B2"/>
<circle cx="363" cy="47" r="3" fill="#CC79A7"/>
<circle cx="363" cy="340" r="3" fill="#D55E00"/>
<circle cx="363" cy="215" r="3" fill="#009E73"/>
<circle cx="363" cy="246" r="3" fill="#56B4E9"/>
<circle cx="363" cy="195" r="3" fill="#E69F00"/>
<circle cx="363" cy="340" r="3" fill="#C44E52"/>
<circle cx="363" cy="43" r="3" fill="#000000"/>
<circle cx="436" cy="161" r="3" fill="#0072B2"/>
<circle cx="436" cy="163" r="3" fill="#CC79A7"/>
<circle cx="436" cy="340" r="3" fill="#D55E00"/>
<circle cx="436" cy="227" r="3" fill="#009E73"/>
<circle cx="436" cy="276" r="3" fill="#56B4E9"/>
<circle cx="436" cy="227" r="3" fill="#E69F00"/>
<circle cx="436" cy="340" r="3" fill="#C44E52"/>
<circle cx="436" cy="104" r="3" fill="#000000"/>
<circle cx="510" cy="162" r="3" fill="#0072B2"/>
<circle cx="510" cy="162" r="3" fill="#CC79A7"/>
<circle cx="510" cy="340" r="3" fill="#D55E00"/>
<circle cx="510" cy="227" r="3" fill="#009E73"/>
<circle cx="510" cy="275" r="3" fill="#56B4E9"/>
<circle cx="510" cy="227" r="3" fill="#E69F00"/>
<circle cx="510" cy="340" r="3" fill="#C44E52"/>
<circle cx="510" cy="104" r="3" fill="#000000"/>
<circle cx="583" cy="162" r="3" fill="#0072B2"/>
<circle cx="583" cy="162" r="3" fill="#CC79A7"/>
<circle cx="583" cy="340" r="3" fill="#D55E00"/>
<circle cx="583" cy="228" r="3" fill="#009E73"/>
<circle cx="583" cy="276" r="3" fill="#56B4E9"/>
<circle cx="583" cy="227" r="3" fill="#E69F00"/>
<circle cx="583" cy="340" r="3" fill="#C44E52"/>
<circle cx="583" cy="104" r="3" fill="#000000"/>
<circle cx="656" cy="164" r="3" fill="#0072B2"/>
<circle cx="656" cy="164" r="3" fill="#CC79A7"/>
<circle cx="656" cy="340" r="3" fill="#D55E00"/>
<circle cx="656" cy="229" r="3" fill="#009E73"/>
<circle cx="656" cy="274" r="3" fill="#56B4E9"/>
<circle cx="656" cy="227" r="3" fill="#E69F00"/>
<circle cx="656" cy="340" r="3" fill="#C44E52"/>
<circle cx="656" cy="103" r="3" fill="#000000"/>
<circle cx="730" cy="200" r="3" fill="#0072B2"/>
<circle cx="730" cy="168" r="3" fill="#CC79A7"/>
<circle cx="730" cy="340" r="3" fill="#D55E00"/>
<circle cx="730" cy="230" r="3" fill="#009E73"/>
<circle cx="730" cy="291" r="3" fill="#56B4E9"/>
<circle cx="730" cy="234" r="3" fill="#E69F00"/>
<circle cx="730" cy="340" r="3" fill="#C44E52"/>
<circle cx="730" cy="126" r="3" fill="#000000"/>
<circle cx="90" cy="20" r="4" fill="#0072B2"/>
<text x="98" y="24" text-anchor="start" font-size="12" fill="#0072B2">inte</text>
<circle cx="150" cy="20" r="4" fill="#CC79A7"/>
<text x="158" y="24" text-anchor="start" font-size="12" fill="#CC79A7">comp</text>
<circle cx="215" cy="20" r="4" fill="#D55E00"/>
<text x="223" y="24" text-anchor="start" font-size="12" fill="#D55E00">run</text>
<circle cx="270" cy="20" r="4" fill="#009E73"/>
<text x="278" y="24" text-anchor="start" font-size="12" fill="#009E73">wall</text>
<circle cx="335" cy="20" r="4" fill="#56B4E9"/>
<text x="343" y="24" text-anchor="start" font-size="12" fill="#56B4E9">mem-inte</text>
<circle cx="425" cy="20" r="4" fill="#E69F00"/>
<text x="433" y="24" text-anchor="start" font-size="12" fill="#E69F00">mem-comp</text>
<circle cx="520" cy="20" r="4" fill="#C44E52"/>
<text x="528" y="24" text-anchor="start" font-size="12" fill="#C44E52">mem-run</text>
<circle cx="605" cy="20" r="4" fill="#000000"/>
<text x="613" y="24" text-anchor="start" font-size="12" fill="#000000">mem-total</text>
</svg>
