<svg width="800" height="400" xmlns="http://www.w3.org/2000/svg">
<rect width="800" height="400" fill="white"/>
<line x1="70" y1="40" x2="70" y2="340" stroke="#333" stroke-width="1"/>
<line x1="70" y1="340" x2="780" y2="340" stroke="#333" stroke-width="1"/>
<text x="65" y="344" text-anchor="end" font-size="11" fill="#333">0</text>
<text x="65" y="194" text-anchor="end" font-size="11" fill="#333">4000</text>
<text x="65" y="44" text-anchor="end" font-size="11" fill="#333">8000</text>
<text x="15" y="190" text-anchor="middle" font-size="12" fill="#333" transform="rotate(-90 15 190)">ms</text>
<polyline points="70,268 129,266 188,269 247,265 306,269 365,267 425,263 484,265 543,260 602,260 661,265 720,261 780,261" fill="none" stroke="#2196F3" stroke-width="2"/>
<polyline points="70,131 129,132 188,133 247,128 306,130 365,135 425,127 484,127 543,127 602,128 661,128 720,123 780,122" fill="none" stroke="#F44336" stroke-width="2"/>
<polyline points="70,79 129,80 188,80 247,78 306,84 365,71 425,69 484,69 543,66 602,63 661,64 720,65 780,65" fill="none" stroke="#4CAF50" stroke-width="2"/>
<circle cx="70" cy="268" r="3" fill="#2196F3"/>
<circle cx="70" cy="131" r="3" fill="#F44336"/>
<circle cx="70" cy="79" r="3" fill="#4CAF50"/>
<circle cx="129" cy="266" r="3" fill="#2196F3"/>
<circle cx="129" cy="132" r="3" fill="#F44336"/>
<circle cx="129" cy="80" r="3" fill="#4CAF50"/>
<circle cx="188" cy="269" r="3" fill="#2196F3"/>
<circle cx="188" cy="133" r="3" fill="#F44336"/>
<circle cx="188" cy="80" r="3" fill="#4CAF50"/>
<circle cx="247" cy="265" r="3" fill="#2196F3"/>
<circle cx="247" cy="128" r="3" fill="#F44336"/>
<circle cx="247" cy="78" r="3" fill="#4CAF50"/>
<circle cx="306" cy="269" r="3" fill="#2196F3"/>
<circle cx="306" cy="130" r="3" fill="#F44336"/>
<circle cx="306" cy="84" r="3" fill="#4CAF50"/>
<circle cx="365" cy="267" r="3" fill="#2196F3"/>
<circle cx="365" cy="135" r="3" fill="#F44336"/>
<circle cx="365" cy="71" r="3" fill="#4CAF50"/>
<circle cx="425" cy="263" r="3" fill="#2196F3"/>
<circle cx="425" cy="127" r="3" fill="#F44336"/>
<circle cx="425" cy="69" r="3" fill="#4CAF50"/>
<circle cx="484" cy="265" r="3" fill="#2196F3"/>
<circle cx="484" cy="127" r="3" fill="#F44336"/>
<circle cx="484" cy="69" r="3" fill="#4CAF50"/>
<circle cx="543" cy="260" r="3" fill="#2196F3"/>
<circle cx="543" cy="127" r="3" fill="#F44336"/>
<circle cx="543" cy="66" r="3" fill="#4CAF50"/>
<circle cx="602" cy="260" r="3" fill="#2196F3"/>
<circle cx="602" cy="128" r="3" fill="#F44336"/>
<circle cx="602" cy="63" r="3" fill="#4CAF50"/>
<circle cx="661" cy="265" r="3" fill="#2196F3"/>
<circle cx="661" cy="128" r="3" fill="#F44336"/>
<circle cx="661" cy="64" r="3" fill="#4CAF50"/>
<circle cx="720" cy="261" r="3" fill="#2196F3"/>
<circle cx="720" cy="123" r="3" fill="#F44336"/>
<circle cx="720" cy="65" r="3" fill="#4CAF50"/>
<circle cx="780" cy="261" r="3" fill="#2196F3"/>
<circle cx="780" cy="122" r="3" fill="#F44336"/>
<circle cx="780" cy="65" r="3" fill="#4CAF50"/>
<text x="70" y="355" text-anchor="middle" font-size="10" fill="#666">d31c3d3</text>
<text x="129" y="355" text-anchor="middle" font-size="10" fill="#666">577b0f6</text>
<text x="188" y="355" text-anchor="middle" font-size="10" fill="#666">a0e3a8f</text>
<text x="247" y="355" text-anchor="middle" font-size="10" fill="#666">32b7787</text>
<text x="306" y="355" text-anchor="middle" font-size="10" fill="#666">940e369</text>
<text x="365" y="355" text-anchor="middle" font-size="10" fill="#666">78956c1</text>
<text x="425" y="355" text-anchor="middle" font-size="10" fill="#666">1a288e9</text>
<text x="484" y="355" text-anchor="middle" font-size="10" fill="#666">f1c0746</text>
<text x="543" y="355" text-anchor="middle" font-size="10" fill="#666">efad3b5</text>
<text x="602" y="355" text-anchor="middle" font-size="10" fill="#666">d3839be</text>
<text x="661" y="355" text-anchor="middle" font-size="10" fill="#666">a0c21b2</text>
<text x="720" y="355" text-anchor="middle" font-size="10" fill="#666">c3d3d81</text>
<text x="780" y="355" text-anchor="middle" font-size="10" fill="#666">e40d897</text>
<circle cx="90" cy="20" r="4" fill="#2196F3"/>
<text x="98" y="24" text-anchor="start" font-size="12" fill="#2196F3">Interpreted</text>
<circle cx="200" cy="20" r="4" fill="#F44336"/>
<text x="208" y="24" text-anchor="start" font-size="12" fill="#F44336">Compiled</text>
<circle cx="300" cy="20" r="4" fill="#4CAF50"/>
<text x="308" y="24" text-anchor="start" font-size="12" fill="#4CAF50">Wall-clock</text>
</svg>
