<svg width="800" height="400" xmlns="http://www.w3.org/2000/svg">
<rect width="800" height="400" fill="white"/>
<line x1="70" y1="40" x2="70" y2="340" stroke="#333" stroke-width="1"/>
<line x1="70" y1="340" x2="730" y2="340" stroke="#333" stroke-width="1"/>
<line x1="730" y1="40" x2="730" y2="340" stroke="#333" stroke-width="1"/>
<text x="65" y="344" text-anchor="end" font-size="11" fill="#333">0</text>
<text x="65" y="194" text-anchor="end" font-size="11" fill="#333">334500</text>
<text x="65" y="44" text-anchor="end" font-size="11" fill="#333">669000</text>
<text x="15" y="190" text-anchor="middle" font-size="12" fill="#333" transform="rotate(-90 15 190)">ms</text>
<text x="735" y="344" text-anchor="start" font-size="11" fill="#333">0</text>
<text x="735" y="194" text-anchor="start" font-size="11" fill="#333">5122500000</text>
<text x="735" y="44" text-anchor="start" font-size="11" fill="#333">10245000000</text>
<text x="785" y="190" text-anchor="middle" font-size="12" fill="#333" transform="rotate(90 785 190)">bytes</text>
<polyline points="70,96 143,95 216,139 290,90 363,136 436,111 510,159 583,131 656,134 730,125" fill="none" stroke="#0072B2" stroke-width="2"/>
<polyline points="70,76 143,41 216,99 290,53 363,108 436,101 510,141 583,99 656,119 730,105" fill="none" stroke="#CC79A7" stroke-width="2"/>
<polyline points="70,340 143,340 216,340 290,340 363,340 436,340 510,340 583,340 656,340 730,340" fill="none" stroke="#D55E00" stroke-width="2"/>
<polyline points="70,262 143,253 216,270 290,257 363,272 436,268 510,279 583,268 656,272 730,270" fill="none" stroke="#009E73" stroke-width="2"/>
<polyline points="70,270 143,270 216,270 290,270 363,270 436,270 510,270 583,270 656,270 730,268" fill="none" stroke="#56B4E9" stroke-width="2"/>
<polyline points="70,206 143,205 216,206 290,206 363,205 436,205 510,206 583,205 656,206 730,203" fill="none" stroke="#E69F00" stroke-width="2"/>
<polyline points="70,340 143,340 216,340 290,340 363,340 436,340 510,340 583,340 656,340 730,340" fill="none" stroke="#C44E52" stroke-width="2"/>
<polyline points="70,45 143,45 216,45 290,45 363,44 436,44 510,45 583,44 656,44 730,41" fill="none" stroke="#000000" stroke-width="2"/>
<circle cx="70" cy="96" r="3" fill="#0072B2"/>
<circle cx="70" cy="76" r="3" fill="#CC79A7"/>
<circle cx="70" cy="340" r="3" fill="#D55E00"/>
<circle cx="70" cy="262" r="3" fill="#009E73"/>
<circle cx="70" cy="270" r="3" fill="#56B4E9"/>
<circle cx="70" cy="206" r="3" fill="#E69F00"/>
<circle cx="70" cy="340" r="3" fill="#C44E52"/>
<circle cx="70" cy="45" r="3" fill="#000000"/>
<circle cx="143" cy="95" r="3" fill="#0072B2"/>
<circle cx="143" cy="41" r="3" fill="#CC79A7"/>
<circle cx="143" cy="340" r="3" fill="#D55E00"/>
<circle cx="143" cy="253" r="3" fill="#009E73"/>
<circle cx="143" cy="270" r="3" fill="#56B4E9"/>
<circle cx="143" cy="205" r="3" fill="#E69F00"/>
<circle cx="143" cy="340" r="3" fill="#C44E52"/>
<circle cx="143" cy="45" r="3" fill="#000000"/>
<circle cx="216" cy="139" r="3" fill="#0072B2"/>
<circle cx="216" cy="99" r="3" fill="#CC79A7"/>
<circle cx="216" cy="340" r="3" fill="#D55E00"/>
<circle cx="216" cy="270" r="3" fill="#009E73"/>
<circle cx="216" cy="270" r="3" fill="#56B4E9"/>
<circle cx="216" cy="206" r="3" fill="#E69F00"/>
<circle cx="216" cy="340" r="3" fill="#C44E52"/>
<circle cx="216" cy="45" r="3" fill="#000000"/>
<circle cx="290" cy="90" r="3" fill="#0072B2"/>
<circle cx="290" cy="53" r="3" fill="#CC79A7"/>
<circle cx="290" cy="340" r="3" fill="#D55E00"/>
<circle cx="290" cy="257" r="3" fill="#009E73"/>
<circle cx="290" cy="270" r="3" fill="#56B4E9"/>
<circle cx="290" cy="206" r="3" fill="#E69F00"/>
<circle cx="290" cy="340" r="3" fill="#C44E52"/>
<circle cx="290" cy="45" r="3" fill="#000000"/>
<circle cx="363" cy="136" r="3" fill="#0072B2"/>
<circle cx="363" cy="108" r="3" fill="#CC79A7"/>
<circle cx="363" cy="340" r="3" fill="#D55E00"/>
<circle cx="363" cy="272" r="3" fill="#009E73"/>
<circle cx="363" cy="270" r="3" fill="#56B4E9"/>
<circle cx="363" cy="205" r="3" fill="#E69F00"/>
<circle cx="363" cy="340" r="3" fill="#C44E52"/>
<circle cx="363" cy="44" r="3" fill="#000000"/>
<circle cx="436" cy="111" r="3" fill="#0072B2"/>
<circle cx="436" cy="101" r="3" fill="#CC79A7"/>
<circle cx="436" cy="340" r="3" fill="#D55E00"/>
<circle cx="436" cy="268" r="3" fill="#009E73"/>
<circle cx="436" cy="270" r="3" fill="#56B4E9"/>
<circle cx="436" cy="205" r="3" fill="#E69F00"/>
<circle cx="436" cy="340" r="3" fill="#C44E52"/>
<circle cx="436" cy="44" r="3" fill="#000000"/>
<circle cx="510" cy="159" r="3" fill="#0072B2"/>
<circle cx="510" cy="141" r="3" fill="#CC79A7"/>
<circle cx="510" cy="340" r="3" fill="#D55E00"/>
<circle cx="510" cy="279" r="3" fill="#009E73"/>
<circle cx="510" cy="270" r="3" fill="#56B4E9"/>
<circle cx="510" cy="206" r="3" fill="#E69F00"/>
<circle cx="510" cy="340" r="3" fill="#C44E52"/>
<circle cx="510" cy="45" r="3" fill="#000000"/>
<circle cx="583" cy="131" r="3" fill="#0072B2"/>
<circle cx="583" cy="99" r="3" fill="#CC79A7"/>
<circle cx="583" cy="340" r="3" fill="#D55E00"/>
<circle cx="583" cy="268" r="3" fill="#009E73"/>
<circle cx="583" cy="270" r="3" fill="#56B4E9"/>
<circle cx="583" cy="205" r="3" fill="#E69F00"/>
<circle cx="583" cy="340" r="3" fill="#C44E52"/>
<circle cx="583" cy="44" r="3" fill="#000000"/>
<circle cx="656" cy="134" r="3" fill="#0072B2"/>
<circle cx="656" cy="119" r="3" fill="#CC79A7"/>
<circle cx="656" cy="340" r="3" fill="#D55E00"/>
<circle cx="656" cy="272" r="3" fill="#009E73"/>
<circle cx="656" cy="270" r="3" fill="#56B4E9"/>
<circle cx="656" cy="206" r="3" fill="#E69F00"/>
<circle cx="656" cy="340" r="3" fill="#C44E52"/>
<circle cx="656" cy="44" r="3" fill="#000000"/>
<circle cx="730" cy="125" r="3" fill="#0072B2"/>
<circle cx="730" cy="105" r="3" fill="#CC79A7"/>
<circle cx="730" cy="340" r="3" fill="#D55E00"/>
<circle cx="730" cy="270" r="3" fill="#009E73"/>
<circle cx="730" cy="268" r="3" fill="#56B4E9"/>
<circle cx="730" cy="203" r="3" fill="#E69F00"/>
<circle cx="730" cy="340" r="3" fill="#C44E52"/>
<circle cx="730" cy="41" r="3" fill="#000000"/>
<circle cx="90" cy="20" r="4" fill="#0072B2"/>
<text x="98" y="24" text-anchor="start" font-size="12" fill="#0072B2">inte</text>
<circle cx="150" cy="20" r="4" fill="#CC79A7"/>
<text x="158" y="24" text-anchor="start" font-size="12" fill="#CC79A7">comp</text>
<circle cx="215" cy="20" r="4" fill="#D55E00"/>
<text x="223" y="24" text-anchor="start" font-size="12" fill="#D55E00">run</text>
<circle cx="270" cy="20" r="4" fill="#009E73"/>
<text x="278" y="24" text-anchor="start" font-size="12" fill="#009E73">wall</text>
<circle cx="335" cy="20" r="4" fill="#56B4E9"/>
<text x="343" y="24" text-anchor="start" font-size="12" fill="#56B4E9">mem-inte</text>
<circle cx="425" cy="20" r="4" fill="#E69F00"/>
<text x="433" y="24" text-anchor="start" font-size="12" fill="#E69F00">mem-comp</text>
<circle cx="520" cy="20" r="4" fill="#C44E52"/>
<text x="528" y="24" text-anchor="start" font-size="12" fill="#C44E52">mem-run</text>
<circle cx="605" cy="20" r="4" fill="#000000"/>
<text x="613" y="24" text-anchor="start" font-size="12" fill="#000000">mem-total</text>
</svg>
