<svg width="800" height="400" xmlns="http://www.w3.org/2000/svg">
<rect width="800" height="400" fill="white"/>
<line x1="70" y1="40" x2="70" y2="340" stroke="#333" stroke-width="1"/>
<line x1="70" y1="340" x2="730" y2="340" stroke="#333" stroke-width="1"/>
<line x1="730" y1="40" x2="730" y2="340" stroke="#333" stroke-width="1"/>
<text x="65" y="344" text-anchor="end" font-size="11" fill="#333">0</text>
<text x="65" y="194" text-anchor="end" font-size="11" fill="#333">142000</text>
<text x="65" y="44" text-anchor="end" font-size="11" fill="#333">284000</text>
<text x="15" y="190" text-anchor="middle" font-size="12" fill="#333" transform="rotate(-90 15 190)">ms</text>
<text x="735" y="344" text-anchor="start" font-size="11" fill="#333">0</text>
<text x="735" y="194" text-anchor="start" font-size="11" fill="#333">74390000000</text>
<text x="735" y="44" text-anchor="start" font-size="11" fill="#333">148780000000</text>
<text x="785" y="190" text-anchor="middle" font-size="12" fill="#333" transform="rotate(90 785 190)">bytes</text>
<polyline points="70,57 143,206 216,208 290,191 363,210 436,218 510,210 583,192 656,206 730,232" fill="none" stroke="#0072B2" stroke-width="2"/>
<polyline points="70,41 143,194 216,197 290,177 363,168 436,181 510,173 583,177 656,164 730,221" fill="none" stroke="#CC79A7" stroke-width="2"/>
<polyline points="70,340 143,340 216,340 290,340 363,340 436,340 510,340 583,340 656,340 730,340" fill="none" stroke="#D55E00" stroke-width="2"/>
<polyline points="70,87 143,211 216,212 290,194 363,303 436,305 510,303 583,196 656,302 730,234" fill="none" stroke="#009E73" stroke-width="2"/>
<polyline points="70,333 143,333 216,333 290,333 363,333 436,333 510,333 583,333 656,333 730,333" fill="none" stroke="#56B4E9" stroke-width="2"/>
<polyline points="70,329 143,330 216,329 290,329 363,327 436,327 510,327 583,330 656,327 730,330" fill="none" stroke="#E69F00" stroke-width="2"/>
<polyline points="70,340 143,340 216,340 290,340 363,340 436,340 510,340 583,340 656,340 730,340" fill="none" stroke="#C44E52" stroke-width="2"/>
<polyline points="70,317 143,318 216,318 290,318 363,199 436,41 510,119 583,319 656,41 730,319" fill="none" stroke="#000000" stroke-width="2"/>
<circle cx="70" cy="57" r="3" fill="#0072B2"/>
<circle cx="70" cy="41" r="3" fill="#CC79A7"/>
<circle cx="70" cy="340" r="3" fill="#D55E00"/>
<circle cx="70" cy="87" r="3" fill="#009E73"/>
<circle cx="70" cy="333" r="3" fill="#56B4E9"/>
<circle cx="70" cy="329" r="3" fill="#E69F00"/>
<circle cx="70" cy="340" r="3" fill="#C44E52"/>
<circle cx="70" cy="317" r="3" fill="#000000"/>
<circle cx="143" cy="206" r="3" fill="#0072B2"/>
<circle cx="143" cy="194" r="3" fill="#CC79A7"/>
<circle cx="143" cy="340" r="3" fill="#D55E00"/>
<circle cx="143" cy="211" r="3" fill="#009E73"/>
<circle cx="143" cy="333" r="3" fill="#56B4E9"/>
<circle cx="143" cy="330" r="3" fill="#E69F00"/>
<circle cx="143" cy="340" r="3" fill="#C44E52"/>
<circle cx="143" cy="318" r="3" fill="#000000"/>
<circle cx="216" cy="208" r="3" fill="#0072B2"/>
<circle cx="216" cy="197" r="3" fill="#CC79A7"/>
<circle cx="216" cy="340" r="3" fill="#D55E00"/>
<circle cx="216" cy="212" r="3" fill="#009E73"/>
<circle cx="216" cy="333" r="3" fill="#56B4E9"/>
<circle cx="216" cy="329" r="3" fill="#E69F00"/>
<circle cx="216" cy="340" r="3" fill="#C44E52"/>
<circle cx="216" cy="318" r="3" fill="#000000"/>
<circle cx="290" cy="191" r="3" fill="#0072B2"/>
<circle cx="290" cy="177" r="3" fill="#CC79A7"/>
<circle cx="290" cy="340" r="3" fill="#D55E00"/>
<circle cx="290" cy="194" r="3" fill="#009E73"/>
<circle cx="290" cy="333" r="3" fill="#56B4E9"/>
<circle cx="290" cy="329" r="3" fill="#E69F00"/>
<circle cx="290" cy="340" r="3" fill="#C44E52"/>
<circle cx="290" cy="318" r="3" fill="#000000"/>
<circle cx="363" cy="210" r="3" fill="#0072B2"/>
<circle cx="363" cy="168" r="3" fill="#CC79A7"/>
<circle cx="363" cy="340" r="3" fill="#D55E00"/>
<circle cx="363" cy="303" r="3" fill="#009E73"/>
<circle cx="363" cy="333" r="3" fill="#56B4E9"/>
<circle cx="363" cy="327" r="3" fill="#E69F00"/>
<circle cx="363" cy="340" r="3" fill="#C44E52"/>
<circle cx="363" cy="199" r="3" fill="#000000"/>
<circle cx="436" cy="218" r="3" fill="#0072B2"/>
<circle cx="436" cy="181" r="3" fill="#CC79A7"/>
<circle cx="436" cy="340" r="3" fill="#D55E00"/>
<circle cx="436" cy="305" r="3" fill="#009E73"/>
<circle cx="436" cy="333" r="3" fill="#56B4E9"/>
<circle cx="436" cy="327" r="3" fill="#E69F00"/>
<circle cx="436" cy="340" r="3" fill="#C44E52"/>
<circle cx="436" cy="41" r="3" fill="#000000"/>
<circle cx="510" cy="210" r="3" fill="#0072B2"/>
<circle cx="510" cy="173" r="3" fill="#CC79A7"/>
<circle cx="510" cy="340" r="3" fill="#D55E00"/>
<circle cx="510" cy="303" r="3" fill="#009E73"/>
<circle cx="510" cy="333" r="3" fill="#56B4E9"/>
<circle cx="510" cy="327" r="3" fill="#E69F00"/>
<circle cx="510" cy="340" r="3" fill="#C44E52"/>
<circle cx="510" cy="119" r="3" fill="#000000"/>
<circle cx="583" cy="192" r="3" fill="#0072B2"/>
<circle cx="583" cy="177" r="3" fill="#CC79A7"/>
<circle cx="583" cy="340" r="3" fill="#D55E00"/>
<circle cx="583" cy="196" r="3" fill="#009E73"/>
<circle cx="583" cy="333" r="3" fill="#56B4E9"/>
<circle cx="583" cy="330" r="3" fill="#E69F00"/>
<circle cx="583" cy="340" r="3" fill="#C44E52"/>
<circle cx="583" cy="319" r="3" fill="#000000"/>
<circle cx="656" cy="206" r="3" fill="#0072B2"/>
<circle cx="656" cy="164" r="3" fill="#CC79A7"/>
<circle cx="656" cy="340" r="3" fill="#D55E00"/>
<circle cx="656" cy="302" r="3" fill="#009E73"/>
<circle cx="656" cy="333" r="3" fill="#56B4E9"/>
<circle cx="656" cy="327" r="3" fill="#E69F00"/>
<circle cx="656" cy="340" r="3" fill="#C44E52"/>
<circle cx="656" cy="41" r="3" fill="#000000"/>
<circle cx="730" cy="232" r="3" fill="#0072B2"/>
<circle cx="730" cy="221" r="3" fill="#CC79A7"/>
<circle cx="730" cy="340" r="3" fill="#D55E00"/>
<circle cx="730" cy="234" r="3" fill="#009E73"/>
<circle cx="730" cy="333" r="3" fill="#56B4E9"/>
<circle cx="730" cy="330" r="3" fill="#E69F00"/>
<circle cx="730" cy="340" r="3" fill="#C44E52"/>
<circle cx="730" cy="319" r="3" fill="#000000"/>
<circle cx="90" cy="20" r="4" fill="#0072B2"/>
<text x="98" y="24" text-anchor="start" font-size="12" fill="#0072B2">inte</text>
<circle cx="150" cy="20" r="4" fill="#CC79A7"/>
<text x="158" y="24" text-anchor="start" font-size="12" fill="#CC79A7">comp</text>
<circle cx="215" cy="20" r="4" fill="#D55E00"/>
<text x="223" y="24" text-anchor="start" font-size="12" fill="#D55E00">run</text>
<circle cx="270" cy="20" r="4" fill="#009E73"/>
<text x="278" y="24" text-anchor="start" font-size="12" fill="#009E73">wall</text>
<circle cx="335" cy="20" r="4" fill="#56B4E9"/>
<text x="343" y="24" text-anchor="start" font-size="12" fill="#56B4E9">mem-inte</text>
<circle cx="425" cy="20" r="4" fill="#E69F00"/>
<text x="433" y="24" text-anchor="start" font-size="12" fill="#E69F00">mem-comp</text>
<circle cx="520" cy="20" r="4" fill="#C44E52"/>
<text x="528" y="24" text-anchor="start" font-size="12" fill="#C44E52">mem-run</text>
<circle cx="605" cy="20" r="4" fill="#000000"/>
<text x="613" y="24" text-anchor="start" font-size="12" fill="#000000">mem-total</text>
</svg>
