<svg width="800" height="400" xmlns="http://www.w3.org/2000/svg">
<rect width="800" height="400" fill="white"/>
<line x1="70" y1="40" x2="70" y2="340" stroke="#333" stroke-width="1"/>
<line x1="70" y1="340" x2="730" y2="340" stroke="#333" stroke-width="1"/>
<line x1="730" y1="40" x2="730" y2="340" stroke="#333" stroke-width="1"/>
<text x="65" y="344" text-anchor="end" font-size="11" fill="#333">0</text>
<text x="65" y="194" text-anchor="end" font-size="11" fill="#333">589500</text>
<text x="65" y="44" text-anchor="end" font-size="11" fill="#333">1179000</text>
<text x="15" y="190" text-anchor="middle" font-size="12" fill="#333" transform="rotate(-90 15 190)">ms</text>
<text x="735" y="344" text-anchor="start" font-size="11" fill="#333">0</text>
<text x="735" y="194" text-anchor="start" font-size="11" fill="#333">158036000000</text>
<text x="735" y="44" text-anchor="start" font-size="11" fill="#333">316072000000</text>
<text x="785" y="190" text-anchor="middle" font-size="12" fill="#333" transform="rotate(90 785 190)">bytes</text>
<polyline points="70,304 143,304 216,304 290,305 363,306 436,44 510,47 583,55 656,41 730,49" fill="none" stroke="#0072B2" stroke-width="2"/>
<polyline points="70,288 143,289 216,288 290,288 363,290 436,44 510,47 583,54 656,43 730,52" fill="none" stroke="#CC79A7" stroke-width="2"/>
<polyline points="70,340 143,340 216,340 290,340 363,340 436,340 510,340 583,340 656,340 730,340" fill="none" stroke="#D55E00" stroke-width="2"/>
<polyline points="70,334 143,334 216,334 290,334 363,335 436,302 510,302 583,302 656,301 730,302" fill="none" stroke="#009E73" stroke-width="2"/>
<polyline points="70,313 143,312 216,311 290,312 363,317 436,115 510,115 583,116 656,111 730,118" fill="none" stroke="#984EA3" stroke-width="2"/>
<polyline points="70,337 143,337 216,337 290,337 363,337 436,218 510,217 583,217 656,218 730,218" fill="none" stroke="#56B4E9" stroke-width="2"/>
<polyline points="70,329 143,329 216,329 290,329 363,329 436,218 510,218 583,218 656,219 730,218" fill="none" stroke="#E69F00" stroke-width="2"/>
<polyline points="70,340 143,340 216,340 290,340 363,340 436,340 510,340 583,340 656,340 730,340" fill="none" stroke="#C44E52" stroke-width="2"/>
<polyline points="70,319 143,319 216,319 290,319 363,319 436,42 510,41 583,41 656,42 730,42" fill="none" stroke="#000000" stroke-width="2"/>
<polyline points="70,340 143,340 216,340 290,340 363,340 436,325 510,325 583,325 656,325 730,325" fill="none" stroke="#8C564B" stroke-width="2"/>
<circle cx="70" cy="304" r="3" fill="#0072B2"/>
<circle cx="70" cy="288" r="3" fill="#CC79A7"/>
<circle cx="70" cy="340" r="3" fill="#D55E00"/>
<circle cx="70" cy="334" r="3" fill="#009E73"/>
<circle cx="70" cy="313" r="3" fill="#984EA3"/>
<circle cx="70" cy="337" r="3" fill="#56B4E9"/>
<circle cx="70" cy="329" r="3" fill="#E69F00"/>
<circle cx="70" cy="340" r="3" fill="#C44E52"/>
<circle cx="70" cy="319" r="3" fill="#000000"/>
<circle cx="70" cy="340" r="3" fill="#8C564B"/>
<circle cx="143" cy="304" r="3" fill="#0072B2"/>
<circle cx="143" cy="289" r="3" fill="#CC79A7"/>
<circle cx="143" cy="340" r="3" fill="#D55E00"/>
<circle cx="143" cy="334" r="3" fill="#009E73"/>
<circle cx="143" cy="312" r="3" fill="#984EA3"/>
<circle cx="143" cy="337" r="3" fill="#56B4E9"/>
<circle cx="143" cy="329" r="3" fill="#E69F00"/>
<circle cx="143" cy="340" r="3" fill="#C44E52"/>
<circle cx="143" cy="319" r="3" fill="#000000"/>
<circle cx="143" cy="340" r="3" fill="#8C564B"/>
<circle cx="216" cy="304" r="3" fill="#0072B2"/>
<circle cx="216" cy="288" r="3" fill="#CC79A7"/>
<circle cx="216" cy="340" r="3" fill="#D55E00"/>
<circle cx="216" cy="334" r="3" fill="#009E73"/>
<circle cx="216" cy="311" r="3" fill="#984EA3"/>
<circle cx="216" cy="337" r="3" fill="#56B4E9"/>
<circle cx="216" cy="329" r="3" fill="#E69F00"/>
<circle cx="216" cy="340" r="3" fill="#C44E52"/>
<circle cx="216" cy="319" r="3" fill="#000000"/>
<circle cx="216" cy="340" r="3" fill="#8C564B"/>
<circle cx="290" cy="305" r="3" fill="#0072B2"/>
<circle cx="290" cy="288" r="3" fill="#CC79A7"/>
<circle cx="290" cy="340" r="3" fill="#D55E00"/>
<circle cx="290" cy="334" r="3" fill="#009E73"/>
<circle cx="290" cy="312" r="3" fill="#984EA3"/>
<circle cx="290" cy="337" r="3" fill="#56B4E9"/>
<circle cx="290" cy="329" r="3" fill="#E69F00"/>
<circle cx="290" cy="340" r="3" fill="#C44E52"/>
<circle cx="290" cy="319" r="3" fill="#000000"/>
<circle cx="290" cy="340" r="3" fill="#8C564B"/>
<circle cx="363" cy="306" r="3" fill="#0072B2"/>
<circle cx="363" cy="290" r="3" fill="#CC79A7"/>
<circle cx="363" cy="340" r="3" fill="#D55E00"/>
<circle cx="363" cy="335" r="3" fill="#009E73"/>
<circle cx="363" cy="317" r="3" fill="#984EA3"/>
<circle cx="363" cy="337" r="3" fill="#56B4E9"/>
<circle cx="363" cy="329" r="3" fill="#E69F00"/>
<circle cx="363" cy="340" r="3" fill="#C44E52"/>
<circle cx="363" cy="319" r="3" fill="#000000"/>
<circle cx="363" cy="340" r="3" fill="#8C564B"/>
<circle cx="436" cy="44" r="3" fill="#0072B2"/>
<circle cx="436" cy="44" r="3" fill="#CC79A7"/>
<circle cx="436" cy="340" r="3" fill="#D55E00"/>
<circle cx="436" cy="302" r="3" fill="#009E73"/>
<circle cx="436" cy="115" r="3" fill="#984EA3"/>
<circle cx="436" cy="218" r="3" fill="#56B4E9"/>
<circle cx="436" cy="218" r="3" fill="#E69F00"/>
<circle cx="436" cy="340" r="3" fill="#C44E52"/>
<circle cx="436" cy="42" r="3" fill="#000000"/>
<circle cx="436" cy="325" r="3" fill="#8C564B"/>
<circle cx="510" cy="47" r="3" fill="#0072B2"/>
<circle cx="510" cy="47" r="3" fill="#CC79A7"/>
<circle cx="510" cy="340" r="3" fill="#D55E00"/>
<circle cx="510" cy="302" r="3" fill="#009E73"/>
<circle cx="510" cy="115" r="3" fill="#984EA3"/>
<circle cx="510" cy="217" r="3" fill="#56B4E9"/>
<circle cx="510" cy="218" r="3" fill="#E69F00"/>
<circle cx="510" cy="340" r="3" fill="#C44E52"/>
<circle cx="510" cy="41" r="3" fill="#000000"/>
<circle cx="510" cy="325" r="3" fill="#8C564B"/>
<circle cx="583" cy="55" r="3" fill="#0072B2"/>
<circle cx="583" cy="54" r="3" fill="#CC79A7"/>
<circle cx="583" cy="340" r="3" fill="#D55E00"/>
<circle cx="583" cy="302" r="3" fill="#009E73"/>
<circle cx="583" cy="116" r="3" fill="#984EA3"/>
<circle cx="583" cy="217" r="3" fill="#56B4E9"/>
<circle cx="583" cy="218" r="3" fill="#E69F00"/>
<circle cx="583" cy="340" r="3" fill="#C44E52"/>
<circle cx="583" cy="41" r="3" fill="#000000"/>
<circle cx="583" cy="325" r="3" fill="#8C564B"/>
<circle cx="656" cy="41" r="3" fill="#0072B2"/>
<circle cx="656" cy="43" r="3" fill="#CC79A7"/>
<circle cx="656" cy="340" r="3" fill="#D55E00"/>
<circle cx="656" cy="301" r="3" fill="#009E73"/>
<circle cx="656" cy="111" r="3" fill="#984EA3"/>
<circle cx="656" cy="218" r="3" fill="#56B4E9"/>
<circle cx="656" cy="219" r="3" fill="#E69F00"/>
<circle cx="656" cy="340" r="3" fill="#C44E52"/>
<circle cx="656" cy="42" r="3" fill="#000000"/>
<circle cx="656" cy="325" r="3" fill="#8C564B"/>
<circle cx="730" cy="49" r="3" fill="#0072B2"/>
<circle cx="730" cy="52" r="3" fill="#CC79A7"/>
<circle cx="730" cy="340" r="3" fill="#D55E00"/>
<circle cx="730" cy="302" r="3" fill="#009E73"/>
<circle cx="730" cy="118" r="3" fill="#984EA3"/>
<circle cx="730" cy="218" r="3" fill="#56B4E9"/>
<circle cx="730" cy="218" r="3" fill="#E69F00"/>
<circle cx="730" cy="340" r="3" fill="#C44E52"/>
<circle cx="730" cy="42" r="3" fill="#000000"/>
<circle cx="730" cy="325" r="3" fill="#8C564B"/>
<circle cx="70" cy="20" r="4" fill="#0072B2"/>
<text x="78" y="24" text-anchor="start" font-size="12" fill="#0072B2">inte</text>
<circle cx="130" cy="20" r="4" fill="#CC79A7"/>
<text x="138" y="24" text-anchor="start" font-size="12" fill="#CC79A7">comp</text>
<circle cx="195" cy="20" r="4" fill="#D55E00"/>
<text x="203" y="24" text-anchor="start" font-size="12" fill="#D55E00">run</text>
<circle cx="250" cy="20" r="4" fill="#009E73"/>
<text x="258" y="24" text-anchor="start" font-size="12" fill="#009E73">wall</text>
<circle cx="315" cy="20" r="4" fill="#984EA3"/>
<text x="323" y="24" text-anchor="start" font-size="12" fill="#984EA3">self</text>
<circle cx="380" cy="20" r="4" fill="#56B4E9"/>
<text x="388" y="24" text-anchor="start" font-size="12" fill="#56B4E9">mem-inte</text>
<circle cx="470" cy="20" r="4" fill="#E69F00"/>
<text x="478" y="24" text-anchor="start" font-size="12" fill="#E69F00">mem-comp</text>
<circle cx="565" cy="20" r="4" fill="#C44E52"/>
<text x="573" y="24" text-anchor="start" font-size="12" fill="#C44E52">mem-run</text>
<circle cx="650" cy="20" r="4" fill="#000000"/>
<text x="658" y="24" text-anchor="start" font-size="12" fill="#000000">mem-total</text>
<circle cx="745" cy="20" r="4" fill="#8C564B"/>
<text x="753" y="24" text-anchor="start" font-size="12" fill="#8C564B">self-mem</text>
</svg>
