<svg width="800" height="400" xmlns="http://www.w3.org/2000/svg">
<rect width="800" height="400" fill="white"/>
<line x1="70" y1="40" x2="70" y2="340" stroke="#333" stroke-width="1"/>
<line x1="70" y1="340" x2="780" y2="340" stroke="#333" stroke-width="1"/>
<text x="65" y="344" text-anchor="end" font-size="11" fill="#333">0</text>
<text x="65" y="194" text-anchor="end" font-size="11" fill="#333">84000</text>
<text x="65" y="44" text-anchor="end" font-size="11" fill="#333">168000</text>
<text x="15" y="190" text-anchor="middle" font-size="12" fill="#333" transform="rotate(-90 15 190)">ms</text>
<polyline points="70,48 148,51 227,45 306,51 385,48 464,49 543,50 622,47 701,43 780,42" fill="none" stroke="#0072B2" stroke-width="2"/>
<polyline points="70,68 148,68 227,67 306,69 385,66 464,63 543,68 622,68 701,63 780,60" fill="none" stroke="#CC79A7" stroke-width="2"/>
<polyline points="70,337 148,337 227,337 306,337 385,337 464,337 543,337 622,337 701,337 780,337" fill="none" stroke="#D55E00" stroke-width="2"/>
<polyline points="70,304 148,304 227,303 306,304 385,304 464,303 543,304 622,304 701,303 780,303" fill="none" stroke="#009E73" stroke-width="2"/>
<circle cx="70" cy="48" r="3" fill="#0072B2"/>
<circle cx="70" cy="68" r="3" fill="#CC79A7"/>
<circle cx="70" cy="337" r="3" fill="#D55E00"/>
<circle cx="70" cy="304" r="3" fill="#009E73"/>
<circle cx="148" cy="51" r="3" fill="#0072B2"/>
<circle cx="148" cy="68" r="3" fill="#CC79A7"/>
<circle cx="148" cy="337" r="3" fill="#D55E00"/>
<circle cx="148" cy="304" r="3" fill="#009E73"/>
<circle cx="227" cy="45" r="3" fill="#0072B2"/>
<circle cx="227" cy="67" r="3" fill="#CC79A7"/>
<circle cx="227" cy="337" r="3" fill="#D55E00"/>
<circle cx="227" cy="303" r="3" fill="#009E73"/>
<circle cx="306" cy="51" r="3" fill="#0072B2"/>
<circle cx="306" cy="69" r="3" fill="#CC79A7"/>
<circle cx="306" cy="337" r="3" fill="#D55E00"/>
<circle cx="306" cy="304" r="3" fill="#009E73"/>
<circle cx="385" cy="48" r="3" fill="#0072B2"/>
<circle cx="385" cy="66" r="3" fill="#CC79A7"/>
<circle cx="385" cy="337" r="3" fill="#D55E00"/>
<circle cx="385" cy="304" r="3" fill="#009E73"/>
<circle cx="464" cy="49" r="3" fill="#0072B2"/>
<circle cx="464" cy="63" r="3" fill="#CC79A7"/>
<circle cx="464" cy="337" r="3" fill="#D55E00"/>
<circle cx="464" cy="303" r="3" fill="#009E73"/>
<circle cx="543" cy="50" r="3" fill="#0072B2"/>
<circle cx="543" cy="68" r="3" fill="#CC79A7"/>
<circle cx="543" cy="337" r="3" fill="#D55E00"/>
<circle cx="543" cy="304" r="3" fill="#009E73"/>
<circle cx="622" cy="47" r="3" fill="#0072B2"/>
<circle cx="622" cy="68" r="3" fill="#CC79A7"/>
<circle cx="622" cy="337" r="3" fill="#D55E00"/>
<circle cx="622" cy="304" r="3" fill="#009E73"/>
<circle cx="701" cy="43" r="3" fill="#0072B2"/>
<circle cx="701" cy="63" r="3" fill="#CC79A7"/>
<circle cx="701" cy="337" r="3" fill="#D55E00"/>
<circle cx="701" cy="303" r="3" fill="#009E73"/>
<circle cx="780" cy="42" r="3" fill="#0072B2"/>
<circle cx="780" cy="60" r="3" fill="#CC79A7"/>
<circle cx="780" cy="337" r="3" fill="#D55E00"/>
<circle cx="780" cy="303" r="3" fill="#009E73"/>
<circle cx="90" cy="20" r="4" fill="#0072B2"/>
<text x="98" y="24" text-anchor="start" font-size="12" fill="#0072B2">interpreted</text>
<circle cx="190" cy="20" r="4" fill="#CC79A7"/>
<text x="198" y="24" text-anchor="start" font-size="12" fill="#CC79A7">compiled</text>
<circle cx="275" cy="20" r="4" fill="#D55E00"/>
<text x="283" y="24" text-anchor="start" font-size="12" fill="#D55E00">executed</text>
<circle cx="355" cy="20" r="4" fill="#009E73"/>
<text x="363" y="24" text-anchor="start" font-size="12" fill="#009E73">wall</text>
</svg>
