<svg width="800" height="400" xmlns="http://www.w3.org/2000/svg">
<rect width="800" height="400" fill="white"/>
<line x1="70" y1="40" x2="70" y2="340" stroke="#333" stroke-width="1"/>
<line x1="70" y1="340" x2="780" y2="340" stroke="#333" stroke-width="1"/>
<text x="65" y="344" text-anchor="end" font-size="11" fill="#333">0</text>
<text x="65" y="194" text-anchor="end" font-size="11" fill="#333">4000</text>
<text x="65" y="44" text-anchor="end" font-size="11" fill="#333">8000</text>
<text x="15" y="190" text-anchor="middle" font-size="12" fill="#333" transform="rotate(-90 15 190)">ms</text>
<polyline points="70,268 100,266 131,269 162,265 193,269 224,267 255,263 286,265 316,260 347,260 378,265 409,261 440,261 471,265 502,259 533,261 563,262 594,266 625,265 656,262 687,263 718,265 749,265 780,265" fill="none" stroke="#2196F3" stroke-width="2"/>
<polyline points="70,131 100,132 131,133 162,128 193,130 224,135 255,127 286,127 316,127 347,128 378,128 409,123 440,122 471,128 502,127 533,136 563,130 594,126 625,125 656,128 687,128 718,133 749,128 780,135" fill="none" stroke="#F44336" stroke-width="2"/>
<polyline points="70,79 100,80 131,80 162,78 193,84 224,71 255,69 286,69 316,66 347,63 378,64 409,65 440,65 471,66 502,66 533,63 563,61 594,61 625,67 656,61 687,65 718,68 749,65 780,66" fill="none" stroke="#4CAF50" stroke-width="2"/>
<circle cx="70" cy="268" r="3" fill="#2196F3"/>
<circle cx="70" cy="131" r="3" fill="#F44336"/>
<circle cx="70" cy="79" r="3" fill="#4CAF50"/>
<circle cx="100" cy="266" r="3" fill="#2196F3"/>
<circle cx="100" cy="132" r="3" fill="#F44336"/>
<circle cx="100" cy="80" r="3" fill="#4CAF50"/>
<circle cx="131" cy="269" r="3" fill="#2196F3"/>
<circle cx="131" cy="133" r="3" fill="#F44336"/>
<circle cx="131" cy="80" r="3" fill="#4CAF50"/>
<circle cx="162" cy="265" r="3" fill="#2196F3"/>
<circle cx="162" cy="128" r="3" fill="#F44336"/>
<circle cx="162" cy="78" r="3" fill="#4CAF50"/>
<circle cx="193" cy="269" r="3" fill="#2196F3"/>
<circle cx="193" cy="130" r="3" fill="#F44336"/>
<circle cx="193" cy="84" r="3" fill="#4CAF50"/>
<circle cx="224" cy="267" r="3" fill="#2196F3"/>
<circle cx="224" cy="135" r="3" fill="#F44336"/>
<circle cx="224" cy="71" r="3" fill="#4CAF50"/>
<circle cx="255" cy="263" r="3" fill="#2196F3"/>
<circle cx="255" cy="127" r="3" fill="#F44336"/>
<circle cx="255" cy="69" r="3" fill="#4CAF50"/>
<circle cx="286" cy="265" r="3" fill="#2196F3"/>
<circle cx="286" cy="127" r="3" fill="#F44336"/>
<circle cx="286" cy="69" r="3" fill="#4CAF50"/>
<circle cx="316" cy="260" r="3" fill="#2196F3"/>
<circle cx="316" cy="127" r="3" fill="#F44336"/>
<circle cx="316" cy="66" r="3" fill="#4CAF50"/>
<circle cx="347" cy="260" r="3" fill="#2196F3"/>
<circle cx="347" cy="128" r="3" fill="#F44336"/>
<circle cx="347" cy="63" r="3" fill="#4CAF50"/>
<circle cx="378" cy="265" r="3" fill="#2196F3"/>
<circle cx="378" cy="128" r="3" fill="#F44336"/>
<circle cx="378" cy="64" r="3" fill="#4CAF50"/>
<circle cx="409" cy="261" r="3" fill="#2196F3"/>
<circle cx="409" cy="123" r="3" fill="#F44336"/>
<circle cx="409" cy="65" r="3" fill="#4CAF50"/>
<circle cx="440" cy="261" r="3" fill="#2196F3"/>
<circle cx="440" cy="122" r="3" fill="#F44336"/>
<circle cx="440" cy="65" r="3" fill="#4CAF50"/>
<circle cx="471" cy="265" r="3" fill="#2196F3"/>
<circle cx="471" cy="128" r="3" fill="#F44336"/>
<circle cx="471" cy="66" r="3" fill="#4CAF50"/>
<circle cx="502" cy="259" r="3" fill="#2196F3"/>
<circle cx="502" cy="127" r="3" fill="#F44336"/>
<circle cx="502" cy="66" r="3" fill="#4CAF50"/>
<circle cx="533" cy="261" r="3" fill="#2196F3"/>
<circle cx="533" cy="136" r="3" fill="#F44336"/>
<circle cx="533" cy="63" r="3" fill="#4CAF50"/>
<circle cx="563" cy="262" r="3" fill="#2196F3"/>
<circle cx="563" cy="130" r="3" fill="#F44336"/>
<circle cx="563" cy="61" r="3" fill="#4CAF50"/>
<circle cx="594" cy="266" r="3" fill="#2196F3"/>
<circle cx="594" cy="126" r="3" fill="#F44336"/>
<circle cx="594" cy="61" r="3" fill="#4CAF50"/>
<circle cx="625" cy="265" r="3" fill="#2196F3"/>
<circle cx="625" cy="125" r="3" fill="#F44336"/>
<circle cx="625" cy="67" r="3" fill="#4CAF50"/>
<circle cx="656" cy="262" r="3" fill="#2196F3"/>
<circle cx="656" cy="128" r="3" fill="#F44336"/>
<circle cx="656" cy="61" r="3" fill="#4CAF50"/>
<circle cx="687" cy="263" r="3" fill="#2196F3"/>
<circle cx="687" cy="128" r="3" fill="#F44336"/>
<circle cx="687" cy="65" r="3" fill="#4CAF50"/>
<circle cx="718" cy="265" r="3" fill="#2196F3"/>
<circle cx="718" cy="133" r="3" fill="#F44336"/>
<circle cx="718" cy="68" r="3" fill="#4CAF50"/>
<circle cx="749" cy="265" r="3" fill="#2196F3"/>
<circle cx="749" cy="128" r="3" fill="#F44336"/>
<circle cx="749" cy="65" r="3" fill="#4CAF50"/>
<circle cx="780" cy="265" r="3" fill="#2196F3"/>
<circle cx="780" cy="135" r="3" fill="#F44336"/>
<circle cx="780" cy="66" r="3" fill="#4CAF50"/>
<text x="70" y="355" text-anchor="middle" font-size="10" fill="#666">d31c3d3</text>
<text x="100" y="355" text-anchor="middle" font-size="10" fill="#666">577b0f6</text>
<text x="131" y="355" text-anchor="middle" font-size="10" fill="#666">a0e3a8f</text>
<text x="162" y="355" text-anchor="middle" font-size="10" fill="#666">32b7787</text>
<text x="193" y="355" text-anchor="middle" font-size="10" fill="#666">940e369</text>
<text x="224" y="355" text-anchor="middle" font-size="10" fill="#666">78956c1</text>
<text x="255" y="355" text-anchor="middle" font-size="10" fill="#666">1a288e9</text>
<text x="286" y="355" text-anchor="middle" font-size="10" fill="#666">f1c0746</text>
<text x="316" y="355" text-anchor="middle" font-size="10" fill="#666">efad3b5</text>
<text x="347" y="355" text-anchor="middle" font-size="10" fill="#666">d3839be</text>
<text x="378" y="355" text-anchor="middle" font-size="10" fill="#666">a0c21b2</text>
<text x="409" y="355" text-anchor="middle" font-size="10" fill="#666">c3d3d81</text>
<text x="440" y="355" text-anchor="middle" font-size="10" fill="#666">e40d897</text>
<text x="471" y="355" text-anchor="middle" font-size="10" fill="#666">0b1ed97</text>
<text x="502" y="355" text-anchor="middle" font-size="10" fill="#666">6a5ae3f</text>
<text x="533" y="355" text-anchor="middle" font-size="10" fill="#666">59cf448</text>
<text x="563" y="355" text-anchor="middle" font-size="10" fill="#666">42b3e04</text>
<text x="594" y="355" text-anchor="middle" font-size="10" fill="#666">bd9421a</text>
<text x="625" y="355" text-anchor="middle" font-size="10" fill="#666">f80812f</text>
<text x="656" y="355" text-anchor="middle" font-size="10" fill="#666">448a5fe</text>
<text x="687" y="355" text-anchor="middle" font-size="10" fill="#666">b16c1cc</text>
<text x="718" y="355" text-anchor="middle" font-size="10" fill="#666">44c334c</text>
<text x="749" y="355" text-anchor="middle" font-size="10" fill="#666">aa51d1a</text>
<text x="780" y="355" text-anchor="middle" font-size="10" fill="#666">9bee79a</text>
<circle cx="90" cy="20" r="4" fill="#2196F3"/>
<text x="98" y="24" text-anchor="start" font-size="12" fill="#2196F3">Interpreted</text>
<circle cx="200" cy="20" r="4" fill="#F44336"/>
<text x="208" y="24" text-anchor="start" font-size="12" fill="#F44336">Compiled</text>
<circle cx="300" cy="20" r="4" fill="#4CAF50"/>
<text x="308" y="24" text-anchor="start" font-size="12" fill="#4CAF50">Wall-clock</text>
</svg>
