<svg width="800" height="400" xmlns="http://www.w3.org/2000/svg">
<rect width="800" height="400" fill="white"/>
<line x1="70" y1="40" x2="70" y2="340" stroke="#333" stroke-width="1"/>
<line x1="70" y1="340" x2="730" y2="340" stroke="#333" stroke-width="1"/>
<line x1="730" y1="40" x2="730" y2="340" stroke="#333" stroke-width="1"/>
<text x="65" y="344" text-anchor="end" font-size="11" fill="#333">0</text>
<text x="65" y="194" text-anchor="end" font-size="11" fill="#333">52000</text>
<text x="65" y="44" text-anchor="end" font-size="11" fill="#333">104000</text>
<text x="15" y="190" text-anchor="middle" font-size="12" fill="#333" transform="rotate(-90 15 190)">ms</text>
<text x="735" y="344" text-anchor="start" font-size="11" fill="#333">0</text>
<text x="735" y="194" text-anchor="start" font-size="11" fill="#333">5494000000</text>
<text x="735" y="44" text-anchor="start" font-size="11" fill="#333">10988000000</text>
<text x="785" y="190" text-anchor="middle" font-size="12" fill="#333" transform="rotate(90 785 190)">bytes</text>
<polyline points="70,92 143,89 216,89 290,83 363,83 436,92 510,89 583,90 656,84 730,86" fill="none" stroke="#0072B2" stroke-width="2"/>
<polyline points="70,54 143,52 216,54 290,44 363,41 436,55 510,49 583,52 656,48 730,51" fill="none" stroke="#CC79A7" stroke-width="2"/>
<polyline points="70,339 143,339 216,339 290,339 363,339 436,339 510,339 583,339 656,339 730,339" fill="none" stroke="#D55E00" stroke-width="2"/>
<polyline points="70,302 143,302 216,302 290,301 363,301 436,303 510,226 583,303 656,302 730,302" fill="none" stroke="#009E73" stroke-width="2"/>
<polyline points="70,275 143,273 216,275 290,273 363,270 436,274 510,272 583,273 656,274 730,274" fill="none" stroke="#56B4E9" stroke-width="2"/>
<polyline points="70,199 143,199 216,199 290,198 363,198 436,198 510,198 583,198 656,198 730,198" fill="none" stroke="#E69F00" stroke-width="2"/>
<polyline points="70,340 143,340 216,340 290,340 363,340 436,340 510,340 583,340 656,340 730,340" fill="none" stroke="#C44E52" stroke-width="2"/>
<polyline points="70,47 143,45 216,47 290,44 363,41 436,46 510,44 583,44 656,45 730,45" fill="none" stroke="#000000" stroke-width="2"/>
<circle cx="70" cy="92" r="3" fill="#0072B2"/>
<circle cx="70" cy="54" r="3" fill="#CC79A7"/>
<circle cx="70" cy="339" r="3" fill="#D55E00"/>
<circle cx="70" cy="302" r="3" fill="#009E73"/>
<circle cx="70" cy="275" r="3" fill="#56B4E9"/>
<circle cx="70" cy="199" r="3" fill="#E69F00"/>
<circle cx="70" cy="340" r="3" fill="#C44E52"/>
<circle cx="70" cy="47" r="3" fill="#000000"/>
<circle cx="143" cy="89" r="3" fill="#0072B2"/>
<circle cx="143" cy="52" r="3" fill="#CC79A7"/>
<circle cx="143" cy="339" r="3" fill="#D55E00"/>
<circle cx="143" cy="302" r="3" fill="#009E73"/>
<circle cx="143" cy="273" r="3" fill="#56B4E9"/>
<circle cx="143" cy="199" r="3" fill="#E69F00"/>
<circle cx="143" cy="340" r="3" fill="#C44E52"/>
<circle cx="143" cy="45" r="3" fill="#000000"/>
<circle cx="216" cy="89" r="3" fill="#0072B2"/>
<circle cx="216" cy="54" r="3" fill="#CC79A7"/>
<circle cx="216" cy="339" r="3" fill="#D55E00"/>
<circle cx="216" cy="302" r="3" fill="#009E73"/>
<circle cx="216" cy="275" r="3" fill="#56B4E9"/>
<circle cx="216" cy="199" r="3" fill="#E69F00"/>
<circle cx="216" cy="340" r="3" fill="#C44E52"/>
<circle cx="216" cy="47" r="3" fill="#000000"/>
<circle cx="290" cy="83" r="3" fill="#0072B2"/>
<circle cx="290" cy="44" r="3" fill="#CC79A7"/>
<circle cx="290" cy="339" r="3" fill="#D55E00"/>
<circle cx="290" cy="301" r="3" fill="#009E73"/>
<circle cx="290" cy="273" r="3" fill="#56B4E9"/>
<circle cx="290" cy="198" r="3" fill="#E69F00"/>
<circle cx="290" cy="340" r="3" fill="#C44E52"/>
<circle cx="290" cy="44" r="3" fill="#000000"/>
<circle cx="363" cy="83" r="3" fill="#0072B2"/>
<circle cx="363" cy="41" r="3" fill="#CC79A7"/>
<circle cx="363" cy="339" r="3" fill="#D55E00"/>
<circle cx="363" cy="301" r="3" fill="#009E73"/>
<circle cx="363" cy="270" r="3" fill="#56B4E9"/>
<circle cx="363" cy="198" r="3" fill="#E69F00"/>
<circle cx="363" cy="340" r="3" fill="#C44E52"/>
<circle cx="363" cy="41" r="3" fill="#000000"/>
<circle cx="436" cy="92" r="3" fill="#0072B2"/>
<circle cx="436" cy="55" r="3" fill="#CC79A7"/>
<circle cx="436" cy="339" r="3" fill="#D55E00"/>
<circle cx="436" cy="303" r="3" fill="#009E73"/>
<circle cx="436" cy="274" r="3" fill="#56B4E9"/>
<circle cx="436" cy="198" r="3" fill="#E69F00"/>
<circle cx="436" cy="340" r="3" fill="#C44E52"/>
<circle cx="436" cy="46" r="3" fill="#000000"/>
<circle cx="510" cy="89" r="3" fill="#0072B2"/>
<circle cx="510" cy="49" r="3" fill="#CC79A7"/>
<circle cx="510" cy="339" r="3" fill="#D55E00"/>
<circle cx="510" cy="226" r="3" fill="#009E73"/>
<circle cx="510" cy="272" r="3" fill="#56B4E9"/>
<circle cx="510" cy="198" r="3" fill="#E69F00"/>
<circle cx="510" cy="340" r="3" fill="#C44E52"/>
<circle cx="510" cy="44" r="3" fill="#000000"/>
<circle cx="583" cy="90" r="3" fill="#0072B2"/>
<circle cx="583" cy="52" r="3" fill="#CC79A7"/>
<circle cx="583" cy="339" r="3" fill="#D55E00"/>
<circle cx="583" cy="303" r="3" fill="#009E73"/>
<circle cx="583" cy="273" r="3" fill="#56B4E9"/>
<circle cx="583" cy="198" r="3" fill="#E69F00"/>
<circle cx="583" cy="340" r="3" fill="#C44E52"/>
<circle cx="583" cy="44" r="3" fill="#000000"/>
<circle cx="656" cy="84" r="3" fill="#0072B2"/>
<circle cx="656" cy="48" r="3" fill="#CC79A7"/>
<circle cx="656" cy="339" r="3" fill="#D55E00"/>
<circle cx="656" cy="302" r="3" fill="#009E73"/>
<circle cx="656" cy="274" r="3" fill="#56B4E9"/>
<circle cx="656" cy="198" r="3" fill="#E69F00"/>
<circle cx="656" cy="340" r="3" fill="#C44E52"/>
<circle cx="656" cy="45" r="3" fill="#000000"/>
<circle cx="730" cy="86" r="3" fill="#0072B2"/>
<circle cx="730" cy="51" r="3" fill="#CC79A7"/>
<circle cx="730" cy="339" r="3" fill="#D55E00"/>
<circle cx="730" cy="302" r="3" fill="#009E73"/>
<circle cx="730" cy="274" r="3" fill="#56B4E9"/>
<circle cx="730" cy="198" r="3" fill="#E69F00"/>
<circle cx="730" cy="340" r="3" fill="#C44E52"/>
<circle cx="730" cy="45" r="3" fill="#000000"/>
<circle cx="90" cy="20" r="4" fill="#0072B2"/>
<text x="98" y="24" text-anchor="start" font-size="12" fill="#0072B2">inte</text>
<circle cx="150" cy="20" r="4" fill="#CC79A7"/>
<text x="158" y="24" text-anchor="start" font-size="12" fill="#CC79A7">comp</text>
<circle cx="215" cy="20" r="4" fill="#D55E00"/>
<text x="223" y="24" text-anchor="start" font-size="12" fill="#D55E00">run</text>
<circle cx="270" cy="20" r="4" fill="#009E73"/>
<text x="278" y="24" text-anchor="start" font-size="12" fill="#009E73">wall</text>
<circle cx="335" cy="20" r="4" fill="#56B4E9"/>
<text x="343" y="24" text-anchor="start" font-size="12" fill="#56B4E9">mem-inte</text>
<circle cx="425" cy="20" r="4" fill="#E69F00"/>
<text x="433" y="24" text-anchor="start" font-size="12" fill="#E69F00">mem-comp</text>
<circle cx="520" cy="20" r="4" fill="#C44E52"/>
<text x="528" y="24" text-anchor="start" font-size="12" fill="#C44E52">mem-run</text>
<circle cx="605" cy="20" r="4" fill="#000000"/>
<text x="613" y="24" text-anchor="start" font-size="12" fill="#000000">mem-total</text>
</svg>
