<svg width="800" height="400" xmlns="http://www.w3.org/2000/svg">
<rect width="800" height="400" fill="white"/>
<line x1="70" y1="40" x2="70" y2="340" stroke="#333" stroke-width="1"/>
<line x1="70" y1="340" x2="780" y2="340" stroke="#333" stroke-width="1"/>
<text x="65" y="344" text-anchor="end" font-size="11" fill="#333">0</text>
<text x="65" y="194" text-anchor="end" font-size="11" fill="#333">88000</text>
<text x="65" y="44" text-anchor="end" font-size="11" fill="#333">176000</text>
<text x="15" y="190" text-anchor="middle" font-size="12" fill="#333" transform="rotate(-90 15 190)">ms</text>
<polyline points="70,179 148,177 227,48 306,51 385,51 464,47 543,52 622,44 701,42 780,63" fill="none" stroke="#0072B2" stroke-width="2"/>
<polyline points="70,199 148,199 227,65 306,68 385,72 464,69 543,75 622,60 701,62 780,79" fill="none" stroke="#CC79A7" stroke-width="2"/>
<polyline points="70,338 148,338 227,338 306,338 385,338 464,338 543,338 622,338 701,338 780,338" fill="none" stroke="#D55E00" stroke-width="2"/>
<polyline points="70,262 148,260 227,304 306,304 385,304 464,304 543,304 622,303 701,303 780,305" fill="none" stroke="#009E73" stroke-width="2"/>
<circle cx="70" cy="179" r="3" fill="#0072B2"/>
<circle cx="70" cy="199" r="3" fill="#CC79A7"/>
<circle cx="70" cy="338" r="3" fill="#D55E00"/>
<circle cx="70" cy="262" r="3" fill="#009E73"/>
<circle cx="148" cy="177" r="3" fill="#0072B2"/>
<circle cx="148" cy="199" r="3" fill="#CC79A7"/>
<circle cx="148" cy="338" r="3" fill="#D55E00"/>
<circle cx="148" cy="260" r="3" fill="#009E73"/>
<circle cx="227" cy="48" r="3" fill="#0072B2"/>
<circle cx="227" cy="65" r="3" fill="#CC79A7"/>
<circle cx="227" cy="338" r="3" fill="#D55E00"/>
<circle cx="227" cy="304" r="3" fill="#009E73"/>
<circle cx="306" cy="51" r="3" fill="#0072B2"/>
<circle cx="306" cy="68" r="3" fill="#CC79A7"/>
<circle cx="306" cy="338" r="3" fill="#D55E00"/>
<circle cx="306" cy="304" r="3" fill="#009E73"/>
<circle cx="385" cy="51" r="3" fill="#0072B2"/>
<circle cx="385" cy="72" r="3" fill="#CC79A7"/>
<circle cx="385" cy="338" r="3" fill="#D55E00"/>
<circle cx="385" cy="304" r="3" fill="#009E73"/>
<circle cx="464" cy="47" r="3" fill="#0072B2"/>
<circle cx="464" cy="69" r="3" fill="#CC79A7"/>
<circle cx="464" cy="338" r="3" fill="#D55E00"/>
<circle cx="464" cy="304" r="3" fill="#009E73"/>
<circle cx="543" cy="52" r="3" fill="#0072B2"/>
<circle cx="543" cy="75" r="3" fill="#CC79A7"/>
<circle cx="543" cy="338" r="3" fill="#D55E00"/>
<circle cx="543" cy="304" r="3" fill="#009E73"/>
<circle cx="622" cy="44" r="3" fill="#0072B2"/>
<circle cx="622" cy="60" r="3" fill="#CC79A7"/>
<circle cx="622" cy="338" r="3" fill="#D55E00"/>
<circle cx="622" cy="303" r="3" fill="#009E73"/>
<circle cx="701" cy="42" r="3" fill="#0072B2"/>
<circle cx="701" cy="62" r="3" fill="#CC79A7"/>
<circle cx="701" cy="338" r="3" fill="#D55E00"/>
<circle cx="701" cy="303" r="3" fill="#009E73"/>
<circle cx="780" cy="63" r="3" fill="#0072B2"/>
<circle cx="780" cy="79" r="3" fill="#CC79A7"/>
<circle cx="780" cy="338" r="3" fill="#D55E00"/>
<circle cx="780" cy="305" r="3" fill="#009E73"/>
<circle cx="90" cy="20" r="4" fill="#0072B2"/>
<text x="98" y="24" text-anchor="start" font-size="12" fill="#0072B2">interpreted</text>
<circle cx="190" cy="20" r="4" fill="#CC79A7"/>
<text x="198" y="24" text-anchor="start" font-size="12" fill="#CC79A7">compiled</text>
<circle cx="275" cy="20" r="4" fill="#D55E00"/>
<text x="283" y="24" text-anchor="start" font-size="12" fill="#D55E00">executed</text>
<circle cx="355" cy="20" r="4" fill="#009E73"/>
<text x="363" y="24" text-anchor="start" font-size="12" fill="#009E73">wall</text>
</svg>
