<svg width="800" height="400" xmlns="http://www.w3.org/2000/svg">
<rect width="800" height="400" fill="white"/>
<line x1="70" y1="40" x2="70" y2="340" stroke="#333" stroke-width="1"/>
<line x1="70" y1="340" x2="730" y2="340" stroke="#333" stroke-width="1"/>
<line x1="730" y1="40" x2="730" y2="340" stroke="#333" stroke-width="1"/>
<text x="65" y="344" text-anchor="end" font-size="11" fill="#333">0</text>
<text x="65" y="194" text-anchor="end" font-size="11" fill="#333">89500</text>
<text x="65" y="44" text-anchor="end" font-size="11" fill="#333">179000</text>
<text x="15" y="190" text-anchor="middle" font-size="12" fill="#333" transform="rotate(-90 15 190)">ms</text>
<text x="735" y="344" text-anchor="start" font-size="11" fill="#333">0</text>
<text x="735" y="194" text-anchor="start" font-size="11" fill="#333">1500000</text>
<text x="735" y="44" text-anchor="start" font-size="11" fill="#333">3000000</text>
<text x="785" y="190" text-anchor="middle" font-size="12" fill="#333" transform="rotate(90 785 190)">bytes</text>
<polyline points="70,119 143,118 216,119 290,111 363,69 436,102 510,123 583,118 656,119 730,125" fill="none" stroke="#0072B2" stroke-width="2"/>
<polyline points="70,106 143,108 216,109 290,89 363,42 436,81 510,112 583,108 656,109 730,113" fill="none" stroke="#CC79A7" stroke-width="2"/>
<polyline points="70,337 143,337 216,337 290,337 363,338 436,337 510,337 583,337 656,337 730,337" fill="none" stroke="#D55E00" stroke-width="2"/>
<polyline points="70,310 143,310 216,311 290,123 363,89 436,114 510,311 583,310 656,311 730,311" fill="none" stroke="#009E73" stroke-width="2"/>
<polyline points="70,156 143,156 216,156 290,129 363,135 436,135 510,156 583,156 656,156 730,156" fill="none" stroke="#56B4E9" stroke-width="2"/>
<circle cx="70" cy="119" r="3" fill="#0072B2"/>
<circle cx="70" cy="106" r="3" fill="#CC79A7"/>
<circle cx="70" cy="337" r="3" fill="#D55E00"/>
<circle cx="70" cy="310" r="3" fill="#009E73"/>
<circle cx="70" cy="156" r="3" fill="#56B4E9"/>
<circle cx="143" cy="118" r="3" fill="#0072B2"/>
<circle cx="143" cy="108" r="3" fill="#CC79A7"/>
<circle cx="143" cy="337" r="3" fill="#D55E00"/>
<circle cx="143" cy="310" r="3" fill="#009E73"/>
<circle cx="143" cy="156" r="3" fill="#56B4E9"/>
<circle cx="216" cy="119" r="3" fill="#0072B2"/>
<circle cx="216" cy="109" r="3" fill="#CC79A7"/>
<circle cx="216" cy="337" r="3" fill="#D55E00"/>
<circle cx="216" cy="311" r="3" fill="#009E73"/>
<circle cx="216" cy="156" r="3" fill="#56B4E9"/>
<circle cx="290" cy="111" r="3" fill="#0072B2"/>
<circle cx="290" cy="89" r="3" fill="#CC79A7"/>
<circle cx="290" cy="337" r="3" fill="#D55E00"/>
<circle cx="290" cy="123" r="3" fill="#009E73"/>
<circle cx="290" cy="129" r="3" fill="#56B4E9"/>
<circle cx="363" cy="69" r="3" fill="#0072B2"/>
<circle cx="363" cy="42" r="3" fill="#CC79A7"/>
<circle cx="363" cy="338" r="3" fill="#D55E00"/>
<circle cx="363" cy="89" r="3" fill="#009E73"/>
<circle cx="363" cy="135" r="3" fill="#56B4E9"/>
<circle cx="436" cy="102" r="3" fill="#0072B2"/>
<circle cx="436" cy="81" r="3" fill="#CC79A7"/>
<circle cx="436" cy="337" r="3" fill="#D55E00"/>
<circle cx="436" cy="114" r="3" fill="#009E73"/>
<circle cx="436" cy="135" r="3" fill="#56B4E9"/>
<circle cx="510" cy="123" r="3" fill="#0072B2"/>
<circle cx="510" cy="112" r="3" fill="#CC79A7"/>
<circle cx="510" cy="337" r="3" fill="#D55E00"/>
<circle cx="510" cy="311" r="3" fill="#009E73"/>
<circle cx="510" cy="156" r="3" fill="#56B4E9"/>
<circle cx="583" cy="118" r="3" fill="#0072B2"/>
<circle cx="583" cy="108" r="3" fill="#CC79A7"/>
<circle cx="583" cy="337" r="3" fill="#D55E00"/>
<circle cx="583" cy="310" r="3" fill="#009E73"/>
<circle cx="583" cy="156" r="3" fill="#56B4E9"/>
<circle cx="656" cy="119" r="3" fill="#0072B2"/>
<circle cx="656" cy="109" r="3" fill="#CC79A7"/>
<circle cx="656" cy="337" r="3" fill="#D55E00"/>
<circle cx="656" cy="311" r="3" fill="#009E73"/>
<circle cx="656" cy="156" r="3" fill="#56B4E9"/>
<circle cx="730" cy="125" r="3" fill="#0072B2"/>
<circle cx="730" cy="113" r="3" fill="#CC79A7"/>
<circle cx="730" cy="337" r="3" fill="#D55E00"/>
<circle cx="730" cy="311" r="3" fill="#009E73"/>
<circle cx="730" cy="156" r="3" fill="#56B4E9"/>
<circle cx="90" cy="20" r="4" fill="#0072B2"/>
<text x="98" y="24" text-anchor="start" font-size="12" fill="#0072B2">interpreted</text>
<circle cx="190" cy="20" r="4" fill="#CC79A7"/>
<text x="198" y="24" text-anchor="start" font-size="12" fill="#CC79A7">compiled</text>
<circle cx="275" cy="20" r="4" fill="#D55E00"/>
<text x="283" y="24" text-anchor="start" font-size="12" fill="#D55E00">executed</text>
<circle cx="355" cy="20" r="4" fill="#009E73"/>
<text x="363" y="24" text-anchor="start" font-size="12" fill="#009E73">wall</text>
<circle cx="420" cy="20" r="4" fill="#56B4E9"/>
<text x="428" y="24" text-anchor="start" font-size="12" fill="#56B4E9">memory</text>
</svg>
