<svg width="800" height="400" xmlns="http://www.w3.org/2000/svg">
<rect width="800" height="400" fill="white"/>
<line x1="70" y1="40" x2="70" y2="340" stroke="#333" stroke-width="1"/>
<line x1="70" y1="340" x2="780" y2="340" stroke="#333" stroke-width="1"/>
<text x="65" y="344" text-anchor="end" font-size="11" fill="#333">0</text>
<text x="65" y="194" text-anchor="end" font-size="11" fill="#333">116000</text>
<text x="65" y="44" text-anchor="end" font-size="11" fill="#333">232000</text>
<text x="15" y="190" text-anchor="middle" font-size="12" fill="#333" transform="rotate(-90 15 190)">ms</text>
<polyline points="70,220 148,219 227,218 306,42 385,44 464,42 543,221 622,222 701,217 780,216" fill="none" stroke="#0072B2" stroke-width="2"/>
<polyline points="70,290 148,290 227,290 306,169 385,171 464,170 543,232 622,234 701,233 780,232" fill="none" stroke="#D55E00" stroke-width="2"/>
<polyline points="70,192 148,192 227,185 306,89 385,92 464,90 543,218 622,219 701,280 780,279" fill="none" stroke="#009E73" stroke-width="2"/>
<circle cx="70" cy="220" r="3" fill="#0072B2"/>
<circle cx="70" cy="290" r="3" fill="#D55E00"/>
<circle cx="70" cy="192" r="3" fill="#009E73"/>
<circle cx="148" cy="219" r="3" fill="#0072B2"/>
<circle cx="148" cy="290" r="3" fill="#D55E00"/>
<circle cx="148" cy="192" r="3" fill="#009E73"/>
<circle cx="227" cy="218" r="3" fill="#0072B2"/>
<circle cx="227" cy="290" r="3" fill="#D55E00"/>
<circle cx="227" cy="185" r="3" fill="#009E73"/>
<circle cx="306" cy="42" r="3" fill="#0072B2"/>
<circle cx="306" cy="169" r="3" fill="#D55E00"/>
<circle cx="306" cy="89" r="3" fill="#009E73"/>
<circle cx="385" cy="44" r="3" fill="#0072B2"/>
<circle cx="385" cy="171" r="3" fill="#D55E00"/>
<circle cx="385" cy="92" r="3" fill="#009E73"/>
<circle cx="464" cy="42" r="3" fill="#0072B2"/>
<circle cx="464" cy="170" r="3" fill="#D55E00"/>
<circle cx="464" cy="90" r="3" fill="#009E73"/>
<circle cx="543" cy="221" r="3" fill="#0072B2"/>
<circle cx="543" cy="232" r="3" fill="#D55E00"/>
<circle cx="543" cy="218" r="3" fill="#009E73"/>
<circle cx="622" cy="222" r="3" fill="#0072B2"/>
<circle cx="622" cy="234" r="3" fill="#D55E00"/>
<circle cx="622" cy="219" r="3" fill="#009E73"/>
<circle cx="701" cy="217" r="3" fill="#0072B2"/>
<circle cx="701" cy="233" r="3" fill="#D55E00"/>
<circle cx="701" cy="280" r="3" fill="#009E73"/>
<circle cx="780" cy="216" r="3" fill="#0072B2"/>
<circle cx="780" cy="232" r="3" fill="#D55E00"/>
<circle cx="780" cy="279" r="3" fill="#009E73"/>
<circle cx="90" cy="20" r="4" fill="#0072B2"/>
<text x="98" y="24" text-anchor="start" font-size="12" fill="#0072B2">interp</text>
<circle cx="160" cy="20" r="4" fill="#D55E00"/>
<text x="168" y="24" text-anchor="start" font-size="12" fill="#D55E00">run</text>
<circle cx="220" cy="20" r="4" fill="#009E73"/>
<text x="228" y="24" text-anchor="start" font-size="12" fill="#009E73">Wall</text>
</svg>
