<svg width="800" height="400" xmlns="http://www.w3.org/2000/svg">
<rect width="800" height="400" fill="white"/>
<line x1="70" y1="40" x2="70" y2="340" stroke="#333" stroke-width="1"/>
<line x1="70" y1="340" x2="730" y2="340" stroke="#333" stroke-width="1"/>
<line x1="730" y1="40" x2="730" y2="340" stroke="#333" stroke-width="1"/>
<text x="65" y="344" text-anchor="end" font-size="11" fill="#333">0</text>
<text x="65" y="194" text-anchor="end" font-size="11" fill="#333">65500</text>
<text x="65" y="44" text-anchor="end" font-size="11" fill="#333">131000</text>
<text x="15" y="190" text-anchor="middle" font-size="12" fill="#333" transform="rotate(-90 15 190)">ms</text>
<text x="735" y="344" text-anchor="start" font-size="11" fill="#333">0</text>
<text x="735" y="194" text-anchor="start" font-size="11" fill="#333">5942000000</text>
<text x="735" y="44" text-anchor="start" font-size="11" fill="#333">11884000000</text>
<text x="785" y="190" text-anchor="middle" font-size="12" fill="#333" transform="rotate(90 785 190)">bytes</text>
<polyline points="70,94 143,92 216,95 290,91 363,89 436,94 510,91 583,88 656,85 730,75" fill="none" stroke="#0072B2" stroke-width="2"/>
<polyline points="70,64 143,61 216,64 290,60 363,59 436,61 510,57 583,59 656,51 730,42" fill="none" stroke="#CC79A7" stroke-width="2"/>
<polyline points="70,340 143,340 216,340 290,340 363,340 436,340 510,340 583,340 656,340 730,340" fill="none" stroke="#D55E00" stroke-width="2"/>
<polyline points="70,305 143,305 216,305 290,305 363,305 436,305 510,305 583,305 656,305 730,304" fill="none" stroke="#009E73" stroke-width="2"/>
<polyline points="70,260 143,262 216,262 290,261 363,255 436,261 510,258 583,257 656,260 730,257" fill="none" stroke="#56B4E9" stroke-width="2"/>
<polyline points="70,198 143,198 216,196 290,197 363,198 436,198 510,198 583,194 656,194 730,187" fill="none" stroke="#E69F00" stroke-width="2"/>
<polyline points="70,340 143,340 216,340 290,340 363,340 436,340 510,340 583,340 656,340 730,340" fill="none" stroke="#C44E52" stroke-width="2"/>
<polyline points="70,54 143,56 216,54 290,54 363,49 436,56 510,52 583,48 656,50 730,41" fill="none" stroke="#000000" stroke-width="2"/>
<circle cx="70" cy="94" r="3" fill="#0072B2"/>
<circle cx="70" cy="64" r="3" fill="#CC79A7"/>
<circle cx="70" cy="340" r="3" fill="#D55E00"/>
<circle cx="70" cy="305" r="3" fill="#009E73"/>
<circle cx="70" cy="260" r="3" fill="#56B4E9"/>
<circle cx="70" cy="198" r="3" fill="#E69F00"/>
<circle cx="70" cy="340" r="3" fill="#C44E52"/>
<circle cx="70" cy="54" r="3" fill="#000000"/>
<circle cx="143" cy="92" r="3" fill="#0072B2"/>
<circle cx="143" cy="61" r="3" fill="#CC79A7"/>
<circle cx="143" cy="340" r="3" fill="#D55E00"/>
<circle cx="143" cy="305" r="3" fill="#009E73"/>
<circle cx="143" cy="262" r="3" fill="#56B4E9"/>
<circle cx="143" cy="198" r="3" fill="#E69F00"/>
<circle cx="143" cy="340" r="3" fill="#C44E52"/>
<circle cx="143" cy="56" r="3" fill="#000000"/>
<circle cx="216" cy="95" r="3" fill="#0072B2"/>
<circle cx="216" cy="64" r="3" fill="#CC79A7"/>
<circle cx="216" cy="340" r="3" fill="#D55E00"/>
<circle cx="216" cy="305" r="3" fill="#009E73"/>
<circle cx="216" cy="262" r="3" fill="#56B4E9"/>
<circle cx="216" cy="196" r="3" fill="#E69F00"/>
<circle cx="216" cy="340" r="3" fill="#C44E52"/>
<circle cx="216" cy="54" r="3" fill="#000000"/>
<circle cx="290" cy="91" r="3" fill="#0072B2"/>
<circle cx="290" cy="60" r="3" fill="#CC79A7"/>
<circle cx="290" cy="340" r="3" fill="#D55E00"/>
<circle cx="290" cy="305" r="3" fill="#009E73"/>
<circle cx="290" cy="261" r="3" fill="#56B4E9"/>
<circle cx="290" cy="197" r="3" fill="#E69F00"/>
<circle cx="290" cy="340" r="3" fill="#C44E52"/>
<circle cx="290" cy="54" r="3" fill="#000000"/>
<circle cx="363" cy="89" r="3" fill="#0072B2"/>
<circle cx="363" cy="59" r="3" fill="#CC79A7"/>
<circle cx="363" cy="340" r="3" fill="#D55E00"/>
<circle cx="363" cy="305" r="3" fill="#009E73"/>
<circle cx="363" cy="255" r="3" fill="#56B4E9"/>
<circle cx="363" cy="198" r="3" fill="#E69F00"/>
<circle cx="363" cy="340" r="3" fill="#C44E52"/>
<circle cx="363" cy="49" r="3" fill="#000000"/>
<circle cx="436" cy="94" r="3" fill="#0072B2"/>
<circle cx="436" cy="61" r="3" fill="#CC79A7"/>
<circle cx="436" cy="340" r="3" fill="#D55E00"/>
<circle cx="436" cy="305" r="3" fill="#009E73"/>
<circle cx="436" cy="261" r="3" fill="#56B4E9"/>
<circle cx="436" cy="198" r="3" fill="#E69F00"/>
<circle cx="436" cy="340" r="3" fill="#C44E52"/>
<circle cx="436" cy="56" r="3" fill="#000000"/>
<circle cx="510" cy="91" r="3" fill="#0072B2"/>
<circle cx="510" cy="57" r="3" fill="#CC79A7"/>
<circle cx="510" cy="340" r="3" fill="#D55E00"/>
<circle cx="510" cy="305" r="3" fill="#009E73"/>
<circle cx="510" cy="258" r="3" fill="#56B4E9"/>
<circle cx="510" cy="198" r="3" fill="#E69F00"/>
<circle cx="510" cy="340" r="3" fill="#C44E52"/>
<circle cx="510" cy="52" r="3" fill="#000000"/>
<circle cx="583" cy="88" r="3" fill="#0072B2"/>
<circle cx="583" cy="59" r="3" fill="#CC79A7"/>
<circle cx="583" cy="340" r="3" fill="#D55E00"/>
<circle cx="583" cy="305" r="3" fill="#009E73"/>
<circle cx="583" cy="257" r="3" fill="#56B4E9"/>
<circle cx="583" cy="194" r="3" fill="#E69F00"/>
<circle cx="583" cy="340" r="3" fill="#C44E52"/>
<circle cx="583" cy="48" r="3" fill="#000000"/>
<circle cx="656" cy="85" r="3" fill="#0072B2"/>
<circle cx="656" cy="51" r="3" fill="#CC79A7"/>
<circle cx="656" cy="340" r="3" fill="#D55E00"/>
<circle cx="656" cy="305" r="3" fill="#009E73"/>
<circle cx="656" cy="260" r="3" fill="#56B4E9"/>
<circle cx="656" cy="194" r="3" fill="#E69F00"/>
<circle cx="656" cy="340" r="3" fill="#C44E52"/>
<circle cx="656" cy="50" r="3" fill="#000000"/>
<circle cx="730" cy="75" r="3" fill="#0072B2"/>
<circle cx="730" cy="42" r="3" fill="#CC79A7"/>
<circle cx="730" cy="340" r="3" fill="#D55E00"/>
<circle cx="730" cy="304" r="3" fill="#009E73"/>
<circle cx="730" cy="257" r="3" fill="#56B4E9"/>
<circle cx="730" cy="187" r="3" fill="#E69F00"/>
<circle cx="730" cy="340" r="3" fill="#C44E52"/>
<circle cx="730" cy="41" r="3" fill="#000000"/>
<circle cx="90" cy="20" r="4" fill="#0072B2"/>
<text x="98" y="24" text-anchor="start" font-size="12" fill="#0072B2">inte</text>
<circle cx="150" cy="20" r="4" fill="#CC79A7"/>
<text x="158" y="24" text-anchor="start" font-size="12" fill="#CC79A7">comp</text>
<circle cx="215" cy="20" r="4" fill="#D55E00"/>
<text x="223" y="24" text-anchor="start" font-size="12" fill="#D55E00">run</text>
<circle cx="270" cy="20" r="4" fill="#009E73"/>
<text x="278" y="24" text-anchor="start" font-size="12" fill="#009E73">wall</text>
<circle cx="335" cy="20" r="4" fill="#56B4E9"/>
<text x="343" y="24" text-anchor="start" font-size="12" fill="#56B4E9">mem-inte</text>
<circle cx="425" cy="20" r="4" fill="#E69F00"/>
<text x="433" y="24" text-anchor="start" font-size="12" fill="#E69F00">mem-comp</text>
<circle cx="520" cy="20" r="4" fill="#C44E52"/>
<text x="528" y="24" text-anchor="start" font-size="12" fill="#C44E52">mem-run</text>
<circle cx="605" cy="20" r="4" fill="#000000"/>
<text x="613" y="24" text-anchor="start" font-size="12" fill="#000000">mem-total</text>
</svg>
