<svg width="800" height="400" xmlns="http://www.w3.org/2000/svg">
<rect width="800" height="400" fill="white"/>
<line x1="70" y1="40" x2="70" y2="340" stroke="#333" stroke-width="1"/>
<line x1="70" y1="340" x2="780" y2="340" stroke="#333" stroke-width="1"/>
<text x="65" y="344" text-anchor="end" font-size="11" fill="#333">0</text>
<text x="65" y="194" text-anchor="end" font-size="11" fill="#333">4000</text>
<text x="65" y="44" text-anchor="end" font-size="11" fill="#333">8000</text>
<text x="15" y="190" text-anchor="middle" font-size="12" fill="#333" transform="rotate(-90 15 190)">ms</text>
<polyline points="70,268 89,266 109,269 129,265 148,269 168,267 188,263 208,265 227,260 247,260 267,265 286,261 306,261 326,265 346,259 365,261 385,262 405,266 425,265 444,262 464,263 484,265 503,265 523,265 543,263 563,262 582,264 602,265 622,264 641,262 661,264 681,260 701,263 720,264 740,261 760,262 780,261" fill="none" stroke="#2196F3" stroke-width="2"/>
<polyline points="70,131 89,132 109,133 129,128 148,130 168,135 188,127 208,127 227,127 247,128 267,128 286,123 306,122 326,128 346,127 365,136 385,130 405,126 425,125 444,128 464,128 484,133 503,128 523,135 543,96 563,103 582,101 602,105 622,103 641,104 661,105 681,105 701,99 720,99 740,103 760,100 780,102" fill="none" stroke="#F44336" stroke-width="2"/>
<polyline points="70,79 89,80 109,80 129,78 148,84 168,71 188,69 208,69 227,66 247,63 267,64 286,65 306,65 326,66 346,66 365,63 385,61 405,61 425,67 444,61 464,65 484,68 503,65 523,66 543,57 563,63 582,57 602,58 622,63 641,65 661,56 681,49 701,53 720,52 740,53 760,52 780,52" fill="none" stroke="#4CAF50" stroke-width="2"/>
<circle cx="70" cy="268" r="3" fill="#2196F3"/>
<circle cx="70" cy="131" r="3" fill="#F44336"/>
<circle cx="70" cy="79" r="3" fill="#4CAF50"/>
<circle cx="89" cy="266" r="3" fill="#2196F3"/>
<circle cx="89" cy="132" r="3" fill="#F44336"/>
<circle cx="89" cy="80" r="3" fill="#4CAF50"/>
<circle cx="109" cy="269" r="3" fill="#2196F3"/>
<circle cx="109" cy="133" r="3" fill="#F44336"/>
<circle cx="109" cy="80" r="3" fill="#4CAF50"/>
<circle cx="129" cy="265" r="3" fill="#2196F3"/>
<circle cx="129" cy="128" r="3" fill="#F44336"/>
<circle cx="129" cy="78" r="3" fill="#4CAF50"/>
<circle cx="148" cy="269" r="3" fill="#2196F3"/>
<circle cx="148" cy="130" r="3" fill="#F44336"/>
<circle cx="148" cy="84" r="3" fill="#4CAF50"/>
<circle cx="168" cy="267" r="3" fill="#2196F3"/>
<circle cx="168" cy="135" r="3" fill="#F44336"/>
<circle cx="168" cy="71" r="3" fill="#4CAF50"/>
<circle cx="188" cy="263" r="3" fill="#2196F3"/>
<circle cx="188" cy="127" r="3" fill="#F44336"/>
<circle cx="188" cy="69" r="3" fill="#4CAF50"/>
<circle cx="208" cy="265" r="3" fill="#2196F3"/>
<circle cx="208" cy="127" r="3" fill="#F44336"/>
<circle cx="208" cy="69" r="3" fill="#4CAF50"/>
<circle cx="227" cy="260" r="3" fill="#2196F3"/>
<circle cx="227" cy="127" r="3" fill="#F44336"/>
<circle cx="227" cy="66" r="3" fill="#4CAF50"/>
<circle cx="247" cy="260" r="3" fill="#2196F3"/>
<circle cx="247" cy="128" r="3" fill="#F44336"/>
<circle cx="247" cy="63" r="3" fill="#4CAF50"/>
<circle cx="267" cy="265" r="3" fill="#2196F3"/>
<circle cx="267" cy="128" r="3" fill="#F44336"/>
<circle cx="267" cy="64" r="3" fill="#4CAF50"/>
<circle cx="286" cy="261" r="3" fill="#2196F3"/>
<circle cx="286" cy="123" r="3" fill="#F44336"/>
<circle cx="286" cy="65" r="3" fill="#4CAF50"/>
<circle cx="306" cy="261" r="3" fill="#2196F3"/>
<circle cx="306" cy="122" r="3" fill="#F44336"/>
<circle cx="306" cy="65" r="3" fill="#4CAF50"/>
<circle cx="326" cy="265" r="3" fill="#2196F3"/>
<circle cx="326" cy="128" r="3" fill="#F44336"/>
<circle cx="326" cy="66" r="3" fill="#4CAF50"/>
<circle cx="346" cy="259" r="3" fill="#2196F3"/>
<circle cx="346" cy="127" r="3" fill="#F44336"/>
<circle cx="346" cy="66" r="3" fill="#4CAF50"/>
<circle cx="365" cy="261" r="3" fill="#2196F3"/>
<circle cx="365" cy="136" r="3" fill="#F44336"/>
<circle cx="365" cy="63" r="3" fill="#4CAF50"/>
<circle cx="385" cy="262" r="3" fill="#2196F3"/>
<circle cx="385" cy="130" r="3" fill="#F44336"/>
<circle cx="385" cy="61" r="3" fill="#4CAF50"/>
<circle cx="405" cy="266" r="3" fill="#2196F3"/>
<circle cx="405" cy="126" r="3" fill="#F44336"/>
<circle cx="405" cy="61" r="3" fill="#4CAF50"/>
<circle cx="425" cy="265" r="3" fill="#2196F3"/>
<circle cx="425" cy="125" r="3" fill="#F44336"/>
<circle cx="425" cy="67" r="3" fill="#4CAF50"/>
<circle cx="444" cy="262" r="3" fill="#2196F3"/>
<circle cx="444" cy="128" r="3" fill="#F44336"/>
<circle cx="444" cy="61" r="3" fill="#4CAF50"/>
<circle cx="464" cy="263" r="3" fill="#2196F3"/>
<circle cx="464" cy="128" r="3" fill="#F44336"/>
<circle cx="464" cy="65" r="3" fill="#4CAF50"/>
<circle cx="484" cy="265" r="3" fill="#2196F3"/>
<circle cx="484" cy="133" r="3" fill="#F44336"/>
<circle cx="484" cy="68" r="3" fill="#4CAF50"/>
<circle cx="503" cy="265" r="3" fill="#2196F3"/>
<circle cx="503" cy="128" r="3" fill="#F44336"/>
<circle cx="503" cy="65" r="3" fill="#4CAF50"/>
<circle cx="523" cy="265" r="3" fill="#2196F3"/>
<circle cx="523" cy="135" r="3" fill="#F44336"/>
<circle cx="523" cy="66" r="3" fill="#4CAF50"/>
<circle cx="543" cy="263" r="3" fill="#2196F3"/>
<circle cx="543" cy="96" r="3" fill="#F44336"/>
<circle cx="543" cy="57" r="3" fill="#4CAF50"/>
<circle cx="563" cy="262" r="3" fill="#2196F3"/>
<circle cx="563" cy="103" r="3" fill="#F44336"/>
<circle cx="563" cy="63" r="3" fill="#4CAF50"/>
<circle cx="582" cy="264" r="3" fill="#2196F3"/>
<circle cx="582" cy="101" r="3" fill="#F44336"/>
<circle cx="582" cy="57" r="3" fill="#4CAF50"/>
<circle cx="602" cy="265" r="3" fill="#2196F3"/>
<circle cx="602" cy="105" r="3" fill="#F44336"/>
<circle cx="602" cy="58" r="3" fill="#4CAF50"/>
<circle cx="622" cy="264" r="3" fill="#2196F3"/>
<circle cx="622" cy="103" r="3" fill="#F44336"/>
<circle cx="622" cy="63" r="3" fill="#4CAF50"/>
<circle cx="641" cy="262" r="3" fill="#2196F3"/>
<circle cx="641" cy="104" r="3" fill="#F44336"/>
<circle cx="641" cy="65" r="3" fill="#4CAF50"/>
<circle cx="661" cy="264" r="3" fill="#2196F3"/>
<circle cx="661" cy="105" r="3" fill="#F44336"/>
<circle cx="661" cy="56" r="3" fill="#4CAF50"/>
<circle cx="681" cy="260" r="3" fill="#2196F3"/>
<circle cx="681" cy="105" r="3" fill="#F44336"/>
<circle cx="681" cy="49" r="3" fill="#4CAF50"/>
<circle cx="701" cy="263" r="3" fill="#2196F3"/>
<circle cx="701" cy="99" r="3" fill="#F44336"/>
<circle cx="701" cy="53" r="3" fill="#4CAF50"/>
<circle cx="720" cy="264" r="3" fill="#2196F3"/>
<circle cx="720" cy="99" r="3" fill="#F44336"/>
<circle cx="720" cy="52" r="3" fill="#4CAF50"/>
<circle cx="740" cy="261" r="3" fill="#2196F3"/>
<circle cx="740" cy="103" r="3" fill="#F44336"/>
<circle cx="740" cy="53" r="3" fill="#4CAF50"/>
<circle cx="760" cy="262" r="3" fill="#2196F3"/>
<circle cx="760" cy="100" r="3" fill="#F44336"/>
<circle cx="760" cy="52" r="3" fill="#4CAF50"/>
<circle cx="780" cy="261" r="3" fill="#2196F3"/>
<circle cx="780" cy="102" r="3" fill="#F44336"/>
<circle cx="780" cy="52" r="3" fill="#4CAF50"/>
<text x="70" y="355" text-anchor="middle" font-size="10" fill="#666">d31c3d3</text>
<text x="89" y="355" text-anchor="middle" font-size="10" fill="#666">577b0f6</text>
<text x="109" y="355" text-anchor="middle" font-size="10" fill="#666">a0e3a8f</text>
<text x="129" y="355" text-anchor="middle" font-size="10" fill="#666">32b7787</text>
<text x="148" y="355" text-anchor="middle" font-size="10" fill="#666">940e369</text>
<text x="168" y="355" text-anchor="middle" font-size="10" fill="#666">78956c1</text>
<text x="188" y="355" text-anchor="middle" font-size="10" fill="#666">1a288e9</text>
<text x="208" y="355" text-anchor="middle" font-size="10" fill="#666">f1c0746</text>
<text x="227" y="355" text-anchor="middle" font-size="10" fill="#666">efad3b5</text>
<text x="247" y="355" text-anchor="middle" font-size="10" fill="#666">d3839be</text>
<text x="267" y="355" text-anchor="middle" font-size="10" fill="#666">a0c21b2</text>
<text x="286" y="355" text-anchor="middle" font-size="10" fill="#666">c3d3d81</text>
<text x="306" y="355" text-anchor="middle" font-size="10" fill="#666">e40d897</text>
<text x="326" y="355" text-anchor="middle" font-size="10" fill="#666">0b1ed97</text>
<text x="346" y="355" text-anchor="middle" font-size="10" fill="#666">6a5ae3f</text>
<text x="365" y="355" text-anchor="middle" font-size="10" fill="#666">59cf448</text>
<text x="385" y="355" text-anchor="middle" font-size="10" fill="#666">42b3e04</text>
<text x="405" y="355" text-anchor="middle" font-size="10" fill="#666">bd9421a</text>
<text x="425" y="355" text-anchor="middle" font-size="10" fill="#666">f80812f</text>
<text x="444" y="355" text-anchor="middle" font-size="10" fill="#666">448a5fe</text>
<text x="464" y="355" text-anchor="middle" font-size="10" fill="#666">b16c1cc</text>
<text x="484" y="355" text-anchor="middle" font-size="10" fill="#666">44c334c</text>
<text x="503" y="355" text-anchor="middle" font-size="10" fill="#666">aa51d1a</text>
<text x="523" y="355" text-anchor="middle" font-size="10" fill="#666">9bee79a</text>
<text x="543" y="355" text-anchor="middle" font-size="10" fill="#666">4380346</text>
<text x="563" y="355" text-anchor="middle" font-size="10" fill="#666">2a587a9</text>
<text x="582" y="355" text-anchor="middle" font-size="10" fill="#666">efb005a</text>
<text x="602" y="355" text-anchor="middle" font-size="10" fill="#666">1c3b72e</text>
<text x="622" y="355" text-anchor="middle" font-size="10" fill="#666">ff7c733</text>
<text x="641" y="355" text-anchor="middle" font-size="10" fill="#666">962897f</text>
<text x="661" y="355" text-anchor="middle" font-size="10" fill="#666">dfec04b</text>
<text x="681" y="355" text-anchor="middle" font-size="10" fill="#666">60e18de</text>
<text x="701" y="355" text-anchor="middle" font-size="10" fill="#666">80a0d41</text>
<text x="720" y="355" text-anchor="middle" font-size="10" fill="#666">e200726</text>
<text x="740" y="355" text-anchor="middle" font-size="10" fill="#666">775a89f</text>
<text x="760" y="355" text-anchor="middle" font-size="10" fill="#666">18e45a5</text>
<text x="780" y="355" text-anchor="middle" font-size="10" fill="#666">9d60b61</text>
<circle cx="90" cy="20" r="4" fill="#2196F3"/>
<text x="98" y="24" text-anchor="start" font-size="12" fill="#2196F3">Interpreted</text>
<circle cx="200" cy="20" r="4" fill="#F44336"/>
<text x="208" y="24" text-anchor="start" font-size="12" fill="#F44336">Compiled</text>
<circle cx="300" cy="20" r="4" fill="#4CAF50"/>
<text x="308" y="24" text-anchor="start" font-size="12" fill="#4CAF50">Wall-clock</text>
</svg>
