<svg width="800" height="400" xmlns="http://www.w3.org/2000/svg">
<rect width="800" height="400" fill="white"/>
<line x1="70" y1="40" x2="70" y2="340" stroke="#333" stroke-width="1"/>
<line x1="70" y1="340" x2="730" y2="340" stroke="#333" stroke-width="1"/>
<line x1="730" y1="40" x2="730" y2="340" stroke="#333" stroke-width="1"/>
<text x="65" y="344" text-anchor="end" font-size="11" fill="#333">0</text>
<text x="65" y="194" text-anchor="end" font-size="11" fill="#333">493500</text>
<text x="65" y="44" text-anchor="end" font-size="11" fill="#333">987000</text>
<text x="15" y="190" text-anchor="middle" font-size="12" fill="#333" transform="rotate(-90 15 190)">ms</text>
<text x="735" y="344" text-anchor="start" font-size="11" fill="#333">0</text>
<text x="735" y="194" text-anchor="start" font-size="11" fill="#333">63627500000</text>
<text x="735" y="44" text-anchor="start" font-size="11" fill="#333">127255000000</text>
<text x="785" y="190" text-anchor="middle" font-size="12" fill="#333" transform="rotate(90 785 190)">bytes</text>
<polyline points="70,103 143,107 216,99 290,108 363,103 436,94 510,102 583,98 656,98 730,77" fill="none" stroke="#0072B2" stroke-width="2"/>
<polyline points="70,74 143,72 216,74 290,70 363,73 436,63 510,68 583,64 656,63 730,41" fill="none" stroke="#CC79A7" stroke-width="2"/>
<polyline points="70,340 143,340 216,340 290,340 363,340 436,340 510,340 583,340 656,340 730,340" fill="none" stroke="#D55E00" stroke-width="2"/>
<polyline points="70,307 143,307 216,307 290,307 363,306 436,306 510,306 583,306 656,307 730,303" fill="none" stroke="#009E73" stroke-width="2"/>
<polyline points="70,171 143,171 216,172 290,171 363,171 436,168 510,171 583,169 656,169 730,157" fill="none" stroke="#984EA3" stroke-width="2"/>
<polyline points="70,54 143,54 216,50 290,47 363,48 436,49 510,51 583,50 656,50 730,50" fill="none" stroke="#56B4E9" stroke-width="2"/>
<polyline points="70,47 143,48 216,43 290,41 363,42 436,43 510,41 583,42 656,42 730,41" fill="none" stroke="#E69F00" stroke-width="2"/>
<polyline points="70,340 143,339 216,340 290,340 363,340 436,339 510,339 583,339 656,339 730,339" fill="none" stroke="#C44E52" stroke-width="2"/>
<polyline points="70,294 143,294 216,294 290,294 363,294 436,294 510,294 583,294 656,294 730,294" fill="none" stroke="#8C564B" stroke-width="2"/>
<circle cx="70" cy="103" r="3" fill="#0072B2"/>
<circle cx="70" cy="74" r="3" fill="#CC79A7"/>
<circle cx="70" cy="340" r="3" fill="#D55E00"/>
<circle cx="70" cy="307" r="3" fill="#009E73"/>
<circle cx="70" cy="171" r="3" fill="#984EA3"/>
<circle cx="70" cy="54" r="3" fill="#56B4E9"/>
<circle cx="70" cy="47" r="3" fill="#E69F00"/>
<circle cx="70" cy="340" r="3" fill="#C44E52"/>
<circle cx="70" cy="294" r="3" fill="#8C564B"/>
<circle cx="143" cy="107" r="3" fill="#0072B2"/>
<circle cx="143" cy="72" r="3" fill="#CC79A7"/>
<circle cx="143" cy="340" r="3" fill="#D55E00"/>
<circle cx="143" cy="307" r="3" fill="#009E73"/>
<circle cx="143" cy="171" r="3" fill="#984EA3"/>
<circle cx="143" cy="54" r="3" fill="#56B4E9"/>
<circle cx="143" cy="48" r="3" fill="#E69F00"/>
<circle cx="143" cy="339" r="3" fill="#C44E52"/>
<circle cx="143" cy="294" r="3" fill="#8C564B"/>
<circle cx="216" cy="99" r="3" fill="#0072B2"/>
<circle cx="216" cy="74" r="3" fill="#CC79A7"/>
<circle cx="216" cy="340" r="3" fill="#D55E00"/>
<circle cx="216" cy="307" r="3" fill="#009E73"/>
<circle cx="216" cy="172" r="3" fill="#984EA3"/>
<circle cx="216" cy="50" r="3" fill="#56B4E9"/>
<circle cx="216" cy="43" r="3" fill="#E69F00"/>
<circle cx="216" cy="340" r="3" fill="#C44E52"/>
<circle cx="216" cy="294" r="3" fill="#8C564B"/>
<circle cx="290" cy="108" r="3" fill="#0072B2"/>
<circle cx="290" cy="70" r="3" fill="#CC79A7"/>
<circle cx="290" cy="340" r="3" fill="#D55E00"/>
<circle cx="290" cy="307" r="3" fill="#009E73"/>
<circle cx="290" cy="171" r="3" fill="#984EA3"/>
<circle cx="290" cy="47" r="3" fill="#56B4E9"/>
<circle cx="290" cy="41" r="3" fill="#E69F00"/>
<circle cx="290" cy="340" r="3" fill="#C44E52"/>
<circle cx="290" cy="294" r="3" fill="#8C564B"/>
<circle cx="363" cy="103" r="3" fill="#0072B2"/>
<circle cx="363" cy="73" r="3" fill="#CC79A7"/>
<circle cx="363" cy="340" r="3" fill="#D55E00"/>
<circle cx="363" cy="306" r="3" fill="#009E73"/>
<circle cx="363" cy="171" r="3" fill="#984EA3"/>
<circle cx="363" cy="48" r="3" fill="#56B4E9"/>
<circle cx="363" cy="42" r="3" fill="#E69F00"/>
<circle cx="363" cy="340" r="3" fill="#C44E52"/>
<circle cx="363" cy="294" r="3" fill="#8C564B"/>
<circle cx="436" cy="94" r="3" fill="#0072B2"/>
<circle cx="436" cy="63" r="3" fill="#CC79A7"/>
<circle cx="436" cy="340" r="3" fill="#D55E00"/>
<circle cx="436" cy="306" r="3" fill="#009E73"/>
<circle cx="436" cy="168" r="3" fill="#984EA3"/>
<circle cx="436" cy="49" r="3" fill="#56B4E9"/>
<circle cx="436" cy="43" r="3" fill="#E69F00"/>
<circle cx="436" cy="339" r="3" fill="#C44E52"/>
<circle cx="436" cy="294" r="3" fill="#8C564B"/>
<circle cx="510" cy="102" r="3" fill="#0072B2"/>
<circle cx="510" cy="68" r="3" fill="#CC79A7"/>
<circle cx="510" cy="340" r="3" fill="#D55E00"/>
<circle cx="510" cy="306" r="3" fill="#009E73"/>
<circle cx="510" cy="171" r="3" fill="#984EA3"/>
<circle cx="510" cy="51" r="3" fill="#56B4E9"/>
<circle cx="510" cy="41" r="3" fill="#E69F00"/>
<circle cx="510" cy="339" r="3" fill="#C44E52"/>
<circle cx="510" cy="294" r="3" fill="#8C564B"/>
<circle cx="583" cy="98" r="3" fill="#0072B2"/>
<circle cx="583" cy="64" r="3" fill="#CC79A7"/>
<circle cx="583" cy="340" r="3" fill="#D55E00"/>
<circle cx="583" cy="306" r="3" fill="#009E73"/>
<circle cx="583" cy="169" r="3" fill="#984EA3"/>
<circle cx="583" cy="50" r="3" fill="#56B4E9"/>
<circle cx="583" cy="42" r="3" fill="#E69F00"/>
<circle cx="583" cy="339" r="3" fill="#C44E52"/>
<circle cx="583" cy="294" r="3" fill="#8C564B"/>
<circle cx="656" cy="98" r="3" fill="#0072B2"/>
<circle cx="656" cy="63" r="3" fill="#CC79A7"/>
<circle cx="656" cy="340" r="3" fill="#D55E00"/>
<circle cx="656" cy="307" r="3" fill="#009E73"/>
<circle cx="656" cy="169" r="3" fill="#984EA3"/>
<circle cx="656" cy="50" r="3" fill="#56B4E9"/>
<circle cx="656" cy="42" r="3" fill="#E69F00"/>
<circle cx="656" cy="339" r="3" fill="#C44E52"/>
<circle cx="656" cy="294" r="3" fill="#8C564B"/>
<circle cx="730" cy="77" r="3" fill="#0072B2"/>
<circle cx="730" cy="41" r="3" fill="#CC79A7"/>
<circle cx="730" cy="340" r="3" fill="#D55E00"/>
<circle cx="730" cy="303" r="3" fill="#009E73"/>
<circle cx="730" cy="157" r="3" fill="#984EA3"/>
<circle cx="730" cy="50" r="3" fill="#56B4E9"/>
<circle cx="730" cy="41" r="3" fill="#E69F00"/>
<circle cx="730" cy="339" r="3" fill="#C44E52"/>
<circle cx="730" cy="294" r="3" fill="#8C564B"/>
<circle cx="70" cy="20" r="4" fill="#0072B2"/>
<text x="78" y="24" text-anchor="start" font-size="12" fill="#0072B2">inte</text>
<circle cx="130" cy="20" r="4" fill="#CC79A7"/>
<text x="138" y="24" text-anchor="start" font-size="12" fill="#CC79A7">comp</text>
<circle cx="195" cy="20" r="4" fill="#D55E00"/>
<text x="203" y="24" text-anchor="start" font-size="12" fill="#D55E00">run</text>
<circle cx="250" cy="20" r="4" fill="#009E73"/>
<text x="258" y="24" text-anchor="start" font-size="12" fill="#009E73">wall</text>
<circle cx="315" cy="20" r="4" fill="#984EA3"/>
<text x="323" y="24" text-anchor="start" font-size="12" fill="#984EA3">self</text>
<circle cx="380" cy="20" r="4" fill="#56B4E9"/>
<text x="388" y="24" text-anchor="start" font-size="12" fill="#56B4E9">mem-inte</text>
<circle cx="470" cy="20" r="4" fill="#E69F00"/>
<text x="478" y="24" text-anchor="start" font-size="12" fill="#E69F00">mem-comp</text>
<circle cx="565" cy="20" r="4" fill="#C44E52"/>
<text x="573" y="24" text-anchor="start" font-size="12" fill="#C44E52">mem-run</text>
<circle cx="650" cy="20" r="4" fill="#8C564B"/>
<text x="658" y="24" text-anchor="start" font-size="12" fill="#8C564B">self-mem</text>
</svg>
