<svg width="800" height="400" xmlns="http://www.w3.org/2000/svg">
<rect width="800" height="400" fill="white"/>
<line x1="70" y1="40" x2="70" y2="340" stroke="#333" stroke-width="1"/>
<line x1="70" y1="340" x2="730" y2="340" stroke="#333" stroke-width="1"/>
<line x1="730" y1="40" x2="730" y2="340" stroke="#333" stroke-width="1"/>
<text x="65" y="344" text-anchor="end" font-size="11" fill="#333">0</text>
<text x="65" y="194" text-anchor="end" font-size="11" fill="#333">390500</text>
<text x="65" y="44" text-anchor="end" font-size="11" fill="#333">781000</text>
<text x="15" y="190" text-anchor="middle" font-size="12" fill="#333" transform="rotate(-90 15 190)">ms</text>
<text x="735" y="344" text-anchor="start" font-size="11" fill="#333">0</text>
<text x="735" y="194" text-anchor="start" font-size="11" fill="#333">6551500000</text>
<text x="735" y="44" text-anchor="start" font-size="11" fill="#333">13103000000</text>
<text x="785" y="190" text-anchor="middle" font-size="12" fill="#333" transform="rotate(90 785 190)">bytes</text>
<polyline points="70,117 143,100 216,87 290,94 363,99 436,106 510,126 583,98 656,126 730,97" fill="none" stroke="#0072B2" stroke-width="2"/>
<polyline points="70,84 143,66 216,66 290,41 363,61 436,71 510,84 583,77 656,77 730,63" fill="none" stroke="#CC79A7" stroke-width="2"/>
<polyline points="70,340 143,340 216,340 290,340 363,340 436,340 510,340 583,340 656,340 730,340" fill="none" stroke="#D55E00" stroke-width="2"/>
<polyline points="70,231 143,227 216,222 290,220 363,225 436,227 510,237 583,229 656,232 730,225" fill="none" stroke="#009E73" stroke-width="2"/>
<polyline points="70,289 143,289 216,288 290,287 363,287 436,287 510,287 583,287 656,288 730,288" fill="none" stroke="#56B4E9" stroke-width="2"/>
<polyline points="70,213 143,213 216,212 290,211 363,211 436,211 510,211 583,211 656,212 730,212" fill="none" stroke="#E69F00" stroke-width="2"/>
<polyline points="70,325 143,325 216,325 290,324 363,325 436,325 510,325 583,325 656,324 730,324" fill="none" stroke="#C44E52" stroke-width="2"/>
<polyline points="70,46 143,46 216,44 290,41 363,41 436,42 510,41 583,41 656,42 730,42" fill="none" stroke="#000000" stroke-width="2"/>
<circle cx="70" cy="117" r="3" fill="#0072B2"/>
<circle cx="70" cy="84" r="3" fill="#CC79A7"/>
<circle cx="70" cy="340" r="3" fill="#D55E00"/>
<circle cx="70" cy="231" r="3" fill="#009E73"/>
<circle cx="70" cy="289" r="3" fill="#56B4E9"/>
<circle cx="70" cy="213" r="3" fill="#E69F00"/>
<circle cx="70" cy="325" r="3" fill="#C44E52"/>
<circle cx="70" cy="46" r="3" fill="#000000"/>
<circle cx="143" cy="100" r="3" fill="#0072B2"/>
<circle cx="143" cy="66" r="3" fill="#CC79A7"/>
<circle cx="143" cy="340" r="3" fill="#D55E00"/>
<circle cx="143" cy="227" r="3" fill="#009E73"/>
<circle cx="143" cy="289" r="3" fill="#56B4E9"/>
<circle cx="143" cy="213" r="3" fill="#E69F00"/>
<circle cx="143" cy="325" r="3" fill="#C44E52"/>
<circle cx="143" cy="46" r="3" fill="#000000"/>
<circle cx="216" cy="87" r="3" fill="#0072B2"/>
<circle cx="216" cy="66" r="3" fill="#CC79A7"/>
<circle cx="216" cy="340" r="3" fill="#D55E00"/>
<circle cx="216" cy="222" r="3" fill="#009E73"/>
<circle cx="216" cy="288" r="3" fill="#56B4E9"/>
<circle cx="216" cy="212" r="3" fill="#E69F00"/>
<circle cx="216" cy="325" r="3" fill="#C44E52"/>
<circle cx="216" cy="44" r="3" fill="#000000"/>
<circle cx="290" cy="94" r="3" fill="#0072B2"/>
<circle cx="290" cy="41" r="3" fill="#CC79A7"/>
<circle cx="290" cy="340" r="3" fill="#D55E00"/>
<circle cx="290" cy="220" r="3" fill="#009E73"/>
<circle cx="290" cy="287" r="3" fill="#56B4E9"/>
<circle cx="290" cy="211" r="3" fill="#E69F00"/>
<circle cx="290" cy="324" r="3" fill="#C44E52"/>
<circle cx="290" cy="41" r="3" fill="#000000"/>
<circle cx="363" cy="99" r="3" fill="#0072B2"/>
<circle cx="363" cy="61" r="3" fill="#CC79A7"/>
<circle cx="363" cy="340" r="3" fill="#D55E00"/>
<circle cx="363" cy="225" r="3" fill="#009E73"/>
<circle cx="363" cy="287" r="3" fill="#56B4E9"/>
<circle cx="363" cy="211" r="3" fill="#E69F00"/>
<circle cx="363" cy="325" r="3" fill="#C44E52"/>
<circle cx="363" cy="41" r="3" fill="#000000"/>
<circle cx="436" cy="106" r="3" fill="#0072B2"/>
<circle cx="436" cy="71" r="3" fill="#CC79A7"/>
<circle cx="436" cy="340" r="3" fill="#D55E00"/>
<circle cx="436" cy="227" r="3" fill="#009E73"/>
<circle cx="436" cy="287" r="3" fill="#56B4E9"/>
<circle cx="436" cy="211" r="3" fill="#E69F00"/>
<circle cx="436" cy="325" r="3" fill="#C44E52"/>
<circle cx="436" cy="42" r="3" fill="#000000"/>
<circle cx="510" cy="126" r="3" fill="#0072B2"/>
<circle cx="510" cy="84" r="3" fill="#CC79A7"/>
<circle cx="510" cy="340" r="3" fill="#D55E00"/>
<circle cx="510" cy="237" r="3" fill="#009E73"/>
<circle cx="510" cy="287" r="3" fill="#56B4E9"/>
<circle cx="510" cy="211" r="3" fill="#E69F00"/>
<circle cx="510" cy="325" r="3" fill="#C44E52"/>
<circle cx="510" cy="41" r="3" fill="#000000"/>
<circle cx="583" cy="98" r="3" fill="#0072B2"/>
<circle cx="583" cy="77" r="3" fill="#CC79A7"/>
<circle cx="583" cy="340" r="3" fill="#D55E00"/>
<circle cx="583" cy="229" r="3" fill="#009E73"/>
<circle cx="583" cy="287" r="3" fill="#56B4E9"/>
<circle cx="583" cy="211" r="3" fill="#E69F00"/>
<circle cx="583" cy="325" r="3" fill="#C44E52"/>
<circle cx="583" cy="41" r="3" fill="#000000"/>
<circle cx="656" cy="126" r="3" fill="#0072B2"/>
<circle cx="656" cy="77" r="3" fill="#CC79A7"/>
<circle cx="656" cy="340" r="3" fill="#D55E00"/>
<circle cx="656" cy="232" r="3" fill="#009E73"/>
<circle cx="656" cy="288" r="3" fill="#56B4E9"/>
<circle cx="656" cy="212" r="3" fill="#E69F00"/>
<circle cx="656" cy="324" r="3" fill="#C44E52"/>
<circle cx="656" cy="42" r="3" fill="#000000"/>
<circle cx="730" cy="97" r="3" fill="#0072B2"/>
<circle cx="730" cy="63" r="3" fill="#CC79A7"/>
<circle cx="730" cy="340" r="3" fill="#D55E00"/>
<circle cx="730" cy="225" r="3" fill="#009E73"/>
<circle cx="730" cy="288" r="3" fill="#56B4E9"/>
<circle cx="730" cy="212" r="3" fill="#E69F00"/>
<circle cx="730" cy="324" r="3" fill="#C44E52"/>
<circle cx="730" cy="42" r="3" fill="#000000"/>
<circle cx="90" cy="20" r="4" fill="#0072B2"/>
<text x="98" y="24" text-anchor="start" font-size="12" fill="#0072B2">inte</text>
<circle cx="150" cy="20" r="4" fill="#CC79A7"/>
<text x="158" y="24" text-anchor="start" font-size="12" fill="#CC79A7">comp</text>
<circle cx="215" cy="20" r="4" fill="#D55E00"/>
<text x="223" y="24" text-anchor="start" font-size="12" fill="#D55E00">run</text>
<circle cx="270" cy="20" r="4" fill="#009E73"/>
<text x="278" y="24" text-anchor="start" font-size="12" fill="#009E73">wall</text>
<circle cx="335" cy="20" r="4" fill="#56B4E9"/>
<text x="343" y="24" text-anchor="start" font-size="12" fill="#56B4E9">mem-inte</text>
<circle cx="425" cy="20" r="4" fill="#E69F00"/>
<text x="433" y="24" text-anchor="start" font-size="12" fill="#E69F00">mem-comp</text>
<circle cx="520" cy="20" r="4" fill="#C44E52"/>
<text x="528" y="24" text-anchor="start" font-size="12" fill="#C44E52">mem-run</text>
<circle cx="605" cy="20" r="4" fill="#000000"/>
<text x="613" y="24" text-anchor="start" font-size="12" fill="#000000">mem-total</text>
</svg>
