<svg width="800" height="400" xmlns="http://www.w3.org/2000/svg">
<rect width="800" height="400" fill="white"/>
<line x1="70" y1="40" x2="70" y2="340" stroke="#333" stroke-width="1"/>
<line x1="70" y1="340" x2="730" y2="340" stroke="#333" stroke-width="1"/>
<line x1="730" y1="40" x2="730" y2="340" stroke="#333" stroke-width="1"/>
<text x="65" y="344" text-anchor="end" font-size="11" fill="#333">0</text>
<text x="65" y="194" text-anchor="end" font-size="11" fill="#333">47500</text>
<text x="65" y="44" text-anchor="end" font-size="11" fill="#333">95000</text>
<text x="15" y="190" text-anchor="middle" font-size="12" fill="#333" transform="rotate(-90 15 190)">ms</text>
<text x="735" y="344" text-anchor="start" font-size="11" fill="#333">0</text>
<text x="735" y="194" text-anchor="start" font-size="11" fill="#333">8084500000</text>
<text x="735" y="44" text-anchor="start" font-size="11" fill="#333">16169000000</text>
<text x="785" y="190" text-anchor="middle" font-size="12" fill="#333" transform="rotate(90 785 190)">bytes</text>
<polyline points="70,127 143,127 216,126 290,98 363,95 436,98 510,81 583,84 656,82 730,93" fill="none" stroke="#0072B2" stroke-width="2"/>
<polyline points="70,85 143,87 216,85 290,55 363,51 436,56 510,43 583,43 656,42 730,52" fill="none" stroke="#CC79A7" stroke-width="2"/>
<polyline points="70,339 143,339 216,339 290,339 363,339 436,339 510,339 583,339 656,339 730,339" fill="none" stroke="#D55E00" stroke-width="2"/>
<polyline points="70,167 143,168 216,305 290,302 363,302 436,302 510,301 583,301 656,301 730,302" fill="none" stroke="#009E73" stroke-width="2"/>
<polyline points="70,290 143,292 216,291 290,247 363,242 436,247 510,248 583,246 656,242 730,258" fill="none" stroke="#56B4E9" stroke-width="2"/>
<polyline points="70,245 143,245 216,245 290,195 363,197 436,197 510,196 583,201 656,202 730,208" fill="none" stroke="#E69F00" stroke-width="2"/>
<polyline points="70,340 143,340 216,340 290,340 363,340 436,340 510,340 583,340 656,340 730,340" fill="none" stroke="#C44E52" stroke-width="2"/>
<polyline points="70,149 143,151 216,144 290,44 363,41 436,47 510,44 583,46 656,44 730,69" fill="none" stroke="#000000" stroke-width="2"/>
<circle cx="70" cy="127" r="3" fill="#0072B2"/>
<circle cx="70" cy="85" r="3" fill="#CC79A7"/>
<circle cx="70" cy="339" r="3" fill="#D55E00"/>
<circle cx="70" cy="167" r="3" fill="#009E73"/>
<circle cx="70" cy="290" r="3" fill="#56B4E9"/>
<circle cx="70" cy="245" r="3" fill="#E69F00"/>
<circle cx="70" cy="340" r="3" fill="#C44E52"/>
<circle cx="70" cy="149" r="3" fill="#000000"/>
<circle cx="143" cy="127" r="3" fill="#0072B2"/>
<circle cx="143" cy="87" r="3" fill="#CC79A7"/>
<circle cx="143" cy="339" r="3" fill="#D55E00"/>
<circle cx="143" cy="168" r="3" fill="#009E73"/>
<circle cx="143" cy="292" r="3" fill="#56B4E9"/>
<circle cx="143" cy="245" r="3" fill="#E69F00"/>
<circle cx="143" cy="340" r="3" fill="#C44E52"/>
<circle cx="143" cy="151" r="3" fill="#000000"/>
<circle cx="216" cy="126" r="3" fill="#0072B2"/>
<circle cx="216" cy="85" r="3" fill="#CC79A7"/>
<circle cx="216" cy="339" r="3" fill="#D55E00"/>
<circle cx="216" cy="305" r="3" fill="#009E73"/>
<circle cx="216" cy="291" r="3" fill="#56B4E9"/>
<circle cx="216" cy="245" r="3" fill="#E69F00"/>
<circle cx="216" cy="340" r="3" fill="#C44E52"/>
<circle cx="216" cy="144" r="3" fill="#000000"/>
<circle cx="290" cy="98" r="3" fill="#0072B2"/>
<circle cx="290" cy="55" r="3" fill="#CC79A7"/>
<circle cx="290" cy="339" r="3" fill="#D55E00"/>
<circle cx="290" cy="302" r="3" fill="#009E73"/>
<circle cx="290" cy="247" r="3" fill="#56B4E9"/>
<circle cx="290" cy="195" r="3" fill="#E69F00"/>
<circle cx="290" cy="340" r="3" fill="#C44E52"/>
<circle cx="290" cy="44" r="3" fill="#000000"/>
<circle cx="363" cy="95" r="3" fill="#0072B2"/>
<circle cx="363" cy="51" r="3" fill="#CC79A7"/>
<circle cx="363" cy="339" r="3" fill="#D55E00"/>
<circle cx="363" cy="302" r="3" fill="#009E73"/>
<circle cx="363" cy="242" r="3" fill="#56B4E9"/>
<circle cx="363" cy="197" r="3" fill="#E69F00"/>
<circle cx="363" cy="340" r="3" fill="#C44E52"/>
<circle cx="363" cy="41" r="3" fill="#000000"/>
<circle cx="436" cy="98" r="3" fill="#0072B2"/>
<circle cx="436" cy="56" r="3" fill="#CC79A7"/>
<circle cx="436" cy="339" r="3" fill="#D55E00"/>
<circle cx="436" cy="302" r="3" fill="#009E73"/>
<circle cx="436" cy="247" r="3" fill="#56B4E9"/>
<circle cx="436" cy="197" r="3" fill="#E69F00"/>
<circle cx="436" cy="340" r="3" fill="#C44E52"/>
<circle cx="436" cy="47" r="3" fill="#000000"/>
<circle cx="510" cy="81" r="3" fill="#0072B2"/>
<circle cx="510" cy="43" r="3" fill="#CC79A7"/>
<circle cx="510" cy="339" r="3" fill="#D55E00"/>
<circle cx="510" cy="301" r="3" fill="#009E73"/>
<circle cx="510" cy="248" r="3" fill="#56B4E9"/>
<circle cx="510" cy="196" r="3" fill="#E69F00"/>
<circle cx="510" cy="340" r="3" fill="#C44E52"/>
<circle cx="510" cy="44" r="3" fill="#000000"/>
<circle cx="583" cy="84" r="3" fill="#0072B2"/>
<circle cx="583" cy="43" r="3" fill="#CC79A7"/>
<circle cx="583" cy="339" r="3" fill="#D55E00"/>
<circle cx="583" cy="301" r="3" fill="#009E73"/>
<circle cx="583" cy="246" r="3" fill="#56B4E9"/>
<circle cx="583" cy="201" r="3" fill="#E69F00"/>
<circle cx="583" cy="340" r="3" fill="#C44E52"/>
<circle cx="583" cy="46" r="3" fill="#000000"/>
<circle cx="656" cy="82" r="3" fill="#0072B2"/>
<circle cx="656" cy="42" r="3" fill="#CC79A7"/>
<circle cx="656" cy="339" r="3" fill="#D55E00"/>
<circle cx="656" cy="301" r="3" fill="#009E73"/>
<circle cx="656" cy="242" r="3" fill="#56B4E9"/>
<circle cx="656" cy="202" r="3" fill="#E69F00"/>
<circle cx="656" cy="340" r="3" fill="#C44E52"/>
<circle cx="656" cy="44" r="3" fill="#000000"/>
<circle cx="730" cy="93" r="3" fill="#0072B2"/>
<circle cx="730" cy="52" r="3" fill="#CC79A7"/>
<circle cx="730" cy="339" r="3" fill="#D55E00"/>
<circle cx="730" cy="302" r="3" fill="#009E73"/>
<circle cx="730" cy="258" r="3" fill="#56B4E9"/>
<circle cx="730" cy="208" r="3" fill="#E69F00"/>
<circle cx="730" cy="340" r="3" fill="#C44E52"/>
<circle cx="730" cy="69" r="3" fill="#000000"/>
<circle cx="90" cy="20" r="4" fill="#0072B2"/>
<text x="98" y="24" text-anchor="start" font-size="12" fill="#0072B2">inte</text>
<circle cx="150" cy="20" r="4" fill="#CC79A7"/>
<text x="158" y="24" text-anchor="start" font-size="12" fill="#CC79A7">comp</text>
<circle cx="215" cy="20" r="4" fill="#D55E00"/>
<text x="223" y="24" text-anchor="start" font-size="12" fill="#D55E00">run</text>
<circle cx="270" cy="20" r="4" fill="#009E73"/>
<text x="278" y="24" text-anchor="start" font-size="12" fill="#009E73">wall</text>
<circle cx="335" cy="20" r="4" fill="#56B4E9"/>
<text x="343" y="24" text-anchor="start" font-size="12" fill="#56B4E9">mem-inte</text>
<circle cx="425" cy="20" r="4" fill="#E69F00"/>
<text x="433" y="24" text-anchor="start" font-size="12" fill="#E69F00">mem-comp</text>
<circle cx="520" cy="20" r="4" fill="#C44E52"/>
<text x="528" y="24" text-anchor="start" font-size="12" fill="#C44E52">mem-run</text>
<circle cx="605" cy="20" r="4" fill="#000000"/>
<text x="613" y="24" text-anchor="start" font-size="12" fill="#000000">mem-total</text>
</svg>
