<svg width="800" height="400" xmlns="http://www.w3.org/2000/svg">
<rect width="800" height="400" fill="white"/>
<line x1="70" y1="40" x2="70" y2="340" stroke="#333" stroke-width="1"/>
<line x1="70" y1="340" x2="780" y2="340" stroke="#333" stroke-width="1"/>
<text x="65" y="344" text-anchor="end" font-size="11" fill="#333">0</text>
<text x="65" y="194" text-anchor="end" font-size="11" fill="#333">62000</text>
<text x="65" y="44" text-anchor="end" font-size="11" fill="#333">124000</text>
<text x="15" y="190" text-anchor="middle" font-size="12" fill="#333" transform="rotate(-90 15 190)">ms</text>
<polyline points="70,167 148,149 227,50 306,46 385,41 464,47 543,44 622,45 701,52 780,47" fill="none" stroke="#0072B2" stroke-width="2"/>
<polyline points="70,274 148,270 227,247 306,246 385,245 464,246 543,244 622,244 701,247 780,244" fill="none" stroke="#D55E00" stroke-width="2"/>
<polyline points="70,181 148,165 227,68 306,69 385,68 464,67 543,67 622,63 701,69 780,68" fill="none" stroke="#CC79A7" stroke-width="2"/>
<polyline points="70,278 148,274 227,252 306,250 385,250 464,250 543,248 622,250 701,252 780,249" fill="none" stroke="#E69F00" stroke-width="2"/>
<polyline points="70,210 148,204 227,125 306,123 385,120 464,124 543,123 622,120 701,126 780,123" fill="none" stroke="#009E73" stroke-width="2"/>
<circle cx="70" cy="167" r="3" fill="#0072B2"/>
<circle cx="70" cy="274" r="3" fill="#D55E00"/>
<circle cx="70" cy="181" r="3" fill="#CC79A7"/>
<circle cx="70" cy="278" r="3" fill="#E69F00"/>
<circle cx="70" cy="210" r="3" fill="#009E73"/>
<circle cx="148" cy="149" r="3" fill="#0072B2"/>
<circle cx="148" cy="270" r="3" fill="#D55E00"/>
<circle cx="148" cy="165" r="3" fill="#CC79A7"/>
<circle cx="148" cy="274" r="3" fill="#E69F00"/>
<circle cx="148" cy="204" r="3" fill="#009E73"/>
<circle cx="227" cy="50" r="3" fill="#0072B2"/>
<circle cx="227" cy="247" r="3" fill="#D55E00"/>
<circle cx="227" cy="68" r="3" fill="#CC79A7"/>
<circle cx="227" cy="252" r="3" fill="#E69F00"/>
<circle cx="227" cy="125" r="3" fill="#009E73"/>
<circle cx="306" cy="46" r="3" fill="#0072B2"/>
<circle cx="306" cy="246" r="3" fill="#D55E00"/>
<circle cx="306" cy="69" r="3" fill="#CC79A7"/>
<circle cx="306" cy="250" r="3" fill="#E69F00"/>
<circle cx="306" cy="123" r="3" fill="#009E73"/>
<circle cx="385" cy="41" r="3" fill="#0072B2"/>
<circle cx="385" cy="245" r="3" fill="#D55E00"/>
<circle cx="385" cy="68" r="3" fill="#CC79A7"/>
<circle cx="385" cy="250" r="3" fill="#E69F00"/>
<circle cx="385" cy="120" r="3" fill="#009E73"/>
<circle cx="464" cy="47" r="3" fill="#0072B2"/>
<circle cx="464" cy="246" r="3" fill="#D55E00"/>
<circle cx="464" cy="67" r="3" fill="#CC79A7"/>
<circle cx="464" cy="250" r="3" fill="#E69F00"/>
<circle cx="464" cy="124" r="3" fill="#009E73"/>
<circle cx="543" cy="44" r="3" fill="#0072B2"/>
<circle cx="543" cy="244" r="3" fill="#D55E00"/>
<circle cx="543" cy="67" r="3" fill="#CC79A7"/>
<circle cx="543" cy="248" r="3" fill="#E69F00"/>
<circle cx="543" cy="123" r="3" fill="#009E73"/>
<circle cx="622" cy="45" r="3" fill="#0072B2"/>
<circle cx="622" cy="244" r="3" fill="#D55E00"/>
<circle cx="622" cy="63" r="3" fill="#CC79A7"/>
<circle cx="622" cy="250" r="3" fill="#E69F00"/>
<circle cx="622" cy="120" r="3" fill="#009E73"/>
<circle cx="701" cy="52" r="3" fill="#0072B2"/>
<circle cx="701" cy="247" r="3" fill="#D55E00"/>
<circle cx="701" cy="69" r="3" fill="#CC79A7"/>
<circle cx="701" cy="252" r="3" fill="#E69F00"/>
<circle cx="701" cy="126" r="3" fill="#009E73"/>
<circle cx="780" cy="47" r="3" fill="#0072B2"/>
<circle cx="780" cy="244" r="3" fill="#D55E00"/>
<circle cx="780" cy="68" r="3" fill="#CC79A7"/>
<circle cx="780" cy="249" r="3" fill="#E69F00"/>
<circle cx="780" cy="123" r="3" fill="#009E73"/>
<circle cx="90" cy="20" r="4" fill="#0072B2"/>
<text x="98" y="24" text-anchor="start" font-size="12" fill="#0072B2">ctil-i</text>
<circle cx="160" cy="20" r="4" fill="#D55E00"/>
<text x="168" y="24" text-anchor="start" font-size="12" fill="#D55E00">ctil-r</text>
<circle cx="230" cy="20" r="4" fill="#CC79A7"/>
<text x="238" y="24" text-anchor="start" font-size="12" fill="#CC79A7">til-i</text>
<circle cx="290" cy="20" r="4" fill="#E69F00"/>
<text x="298" y="24" text-anchor="start" font-size="12" fill="#E69F00">til-r</text>
<circle cx="350" cy="20" r="4" fill="#009E73"/>
<text x="358" y="24" text-anchor="start" font-size="12" fill="#009E73">Wall</text>
</svg>
