<svg width="800" height="400" xmlns="http://www.w3.org/2000/svg">
<rect width="800" height="400" fill="white"/>
<line x1="70" y1="40" x2="70" y2="340" stroke="#333" stroke-width="1"/>
<line x1="70" y1="340" x2="730" y2="340" stroke="#333" stroke-width="1"/>
<line x1="730" y1="40" x2="730" y2="340" stroke="#333" stroke-width="1"/>
<text x="65" y="344" text-anchor="end" font-size="11" fill="#333">0</text>
<text x="65" y="194" text-anchor="end" font-size="11" fill="#333">67000</text>
<text x="65" y="44" text-anchor="end" font-size="11" fill="#333">134000</text>
<text x="15" y="190" text-anchor="middle" font-size="12" fill="#333" transform="rotate(-90 15 190)">ms</text>
<text x="735" y="344" text-anchor="start" font-size="11" fill="#333">0</text>
<text x="735" y="194" text-anchor="start" font-size="11" fill="#333">6702500000</text>
<text x="735" y="44" text-anchor="start" font-size="11" fill="#333">13405000000</text>
<text x="785" y="190" text-anchor="middle" font-size="12" fill="#333" transform="rotate(90 785 190)">bytes</text>
<polyline points="70,106 143,101 216,108 290,96 363,93 436,97 510,73 583,89 656,89 730,101" fill="none" stroke="#0072B2" stroke-width="2"/>
<polyline points="70,77 143,73 216,79 290,68 363,63 436,67 510,41 583,63 656,64 730,78" fill="none" stroke="#CC79A7" stroke-width="2"/>
<polyline points="70,340 143,340 216,340 290,340 363,340 436,340 510,340 583,340 656,340 730,340" fill="none" stroke="#D55E00" stroke-width="2"/>
<polyline points="70,113 143,106 216,114 290,105 363,99 436,103 510,78 583,99 656,100 730,113" fill="none" stroke="#009E73" stroke-width="2"/>
<polyline points="70,257 143,257 216,257 290,257 363,257 436,257 510,257 583,258 656,258 730,258" fill="none" stroke="#56B4E9" stroke-width="2"/>
<polyline points="70,207 143,200 216,204 290,195 363,196 436,192 510,194 583,211 656,218 730,217" fill="none" stroke="#E69F00" stroke-width="2"/>
<polyline points="70,340 143,340 216,340 290,340 363,340 436,340 510,340 583,340 656,340 730,340" fill="none" stroke="#C44E52" stroke-width="2"/>
<polyline points="70,66 143,57 216,58 290,46 363,50 436,41 510,45 583,83 656,89 730,90" fill="none" stroke="#000000" stroke-width="2"/>
<circle cx="70" cy="106" r="3" fill="#0072B2"/>
<circle cx="70" cy="77" r="3" fill="#CC79A7"/>
<circle cx="70" cy="340" r="3" fill="#D55E00"/>
<circle cx="70" cy="113" r="3" fill="#009E73"/>
<circle cx="70" cy="257" r="3" fill="#56B4E9"/>
<circle cx="70" cy="207" r="3" fill="#E69F00"/>
<circle cx="70" cy="340" r="3" fill="#C44E52"/>
<circle cx="70" cy="66" r="3" fill="#000000"/>
<circle cx="143" cy="101" r="3" fill="#0072B2"/>
<circle cx="143" cy="73" r="3" fill="#CC79A7"/>
<circle cx="143" cy="340" r="3" fill="#D55E00"/>
<circle cx="143" cy="106" r="3" fill="#009E73"/>
<circle cx="143" cy="257" r="3" fill="#56B4E9"/>
<circle cx="143" cy="200" r="3" fill="#E69F00"/>
<circle cx="143" cy="340" r="3" fill="#C44E52"/>
<circle cx="143" cy="57" r="3" fill="#000000"/>
<circle cx="216" cy="108" r="3" fill="#0072B2"/>
<circle cx="216" cy="79" r="3" fill="#CC79A7"/>
<circle cx="216" cy="340" r="3" fill="#D55E00"/>
<circle cx="216" cy="114" r="3" fill="#009E73"/>
<circle cx="216" cy="257" r="3" fill="#56B4E9"/>
<circle cx="216" cy="204" r="3" fill="#E69F00"/>
<circle cx="216" cy="340" r="3" fill="#C44E52"/>
<circle cx="216" cy="58" r="3" fill="#000000"/>
<circle cx="290" cy="96" r="3" fill="#0072B2"/>
<circle cx="290" cy="68" r="3" fill="#CC79A7"/>
<circle cx="290" cy="340" r="3" fill="#D55E00"/>
<circle cx="290" cy="105" r="3" fill="#009E73"/>
<circle cx="290" cy="257" r="3" fill="#56B4E9"/>
<circle cx="290" cy="195" r="3" fill="#E69F00"/>
<circle cx="290" cy="340" r="3" fill="#C44E52"/>
<circle cx="290" cy="46" r="3" fill="#000000"/>
<circle cx="363" cy="93" r="3" fill="#0072B2"/>
<circle cx="363" cy="63" r="3" fill="#CC79A7"/>
<circle cx="363" cy="340" r="3" fill="#D55E00"/>
<circle cx="363" cy="99" r="3" fill="#009E73"/>
<circle cx="363" cy="257" r="3" fill="#56B4E9"/>
<circle cx="363" cy="196" r="3" fill="#E69F00"/>
<circle cx="363" cy="340" r="3" fill="#C44E52"/>
<circle cx="363" cy="50" r="3" fill="#000000"/>
<circle cx="436" cy="97" r="3" fill="#0072B2"/>
<circle cx="436" cy="67" r="3" fill="#CC79A7"/>
<circle cx="436" cy="340" r="3" fill="#D55E00"/>
<circle cx="436" cy="103" r="3" fill="#009E73"/>
<circle cx="436" cy="257" r="3" fill="#56B4E9"/>
<circle cx="436" cy="192" r="3" fill="#E69F00"/>
<circle cx="436" cy="340" r="3" fill="#C44E52"/>
<circle cx="436" cy="41" r="3" fill="#000000"/>
<circle cx="510" cy="73" r="3" fill="#0072B2"/>
<circle cx="510" cy="41" r="3" fill="#CC79A7"/>
<circle cx="510" cy="340" r="3" fill="#D55E00"/>
<circle cx="510" cy="78" r="3" fill="#009E73"/>
<circle cx="510" cy="257" r="3" fill="#56B4E9"/>
<circle cx="510" cy="194" r="3" fill="#E69F00"/>
<circle cx="510" cy="340" r="3" fill="#C44E52"/>
<circle cx="510" cy="45" r="3" fill="#000000"/>
<circle cx="583" cy="89" r="3" fill="#0072B2"/>
<circle cx="583" cy="63" r="3" fill="#CC79A7"/>
<circle cx="583" cy="340" r="3" fill="#D55E00"/>
<circle cx="583" cy="99" r="3" fill="#009E73"/>
<circle cx="583" cy="258" r="3" fill="#56B4E9"/>
<circle cx="583" cy="211" r="3" fill="#E69F00"/>
<circle cx="583" cy="340" r="3" fill="#C44E52"/>
<circle cx="583" cy="83" r="3" fill="#000000"/>
<circle cx="656" cy="89" r="3" fill="#0072B2"/>
<circle cx="656" cy="64" r="3" fill="#CC79A7"/>
<circle cx="656" cy="340" r="3" fill="#D55E00"/>
<circle cx="656" cy="100" r="3" fill="#009E73"/>
<circle cx="656" cy="258" r="3" fill="#56B4E9"/>
<circle cx="656" cy="218" r="3" fill="#E69F00"/>
<circle cx="656" cy="340" r="3" fill="#C44E52"/>
<circle cx="656" cy="89" r="3" fill="#000000"/>
<circle cx="730" cy="101" r="3" fill="#0072B2"/>
<circle cx="730" cy="78" r="3" fill="#CC79A7"/>
<circle cx="730" cy="340" r="3" fill="#D55E00"/>
<circle cx="730" cy="113" r="3" fill="#009E73"/>
<circle cx="730" cy="258" r="3" fill="#56B4E9"/>
<circle cx="730" cy="217" r="3" fill="#E69F00"/>
<circle cx="730" cy="340" r="3" fill="#C44E52"/>
<circle cx="730" cy="90" r="3" fill="#000000"/>
<circle cx="90" cy="20" r="4" fill="#0072B2"/>
<text x="98" y="24" text-anchor="start" font-size="12" fill="#0072B2">inte</text>
<circle cx="150" cy="20" r="4" fill="#CC79A7"/>
<text x="158" y="24" text-anchor="start" font-size="12" fill="#CC79A7">comp</text>
<circle cx="215" cy="20" r="4" fill="#D55E00"/>
<text x="223" y="24" text-anchor="start" font-size="12" fill="#D55E00">run</text>
<circle cx="270" cy="20" r="4" fill="#009E73"/>
<text x="278" y="24" text-anchor="start" font-size="12" fill="#009E73">wall</text>
<circle cx="335" cy="20" r="4" fill="#56B4E9"/>
<text x="343" y="24" text-anchor="start" font-size="12" fill="#56B4E9">mem-inte</text>
<circle cx="425" cy="20" r="4" fill="#E69F00"/>
<text x="433" y="24" text-anchor="start" font-size="12" fill="#E69F00">mem-comp</text>
<circle cx="520" cy="20" r="4" fill="#C44E52"/>
<text x="528" y="24" text-anchor="start" font-size="12" fill="#C44E52">mem-run</text>
<circle cx="605" cy="20" r="4" fill="#000000"/>
<text x="613" y="24" text-anchor="start" font-size="12" fill="#000000">mem-total</text>
</svg>
