<svg width="800" height="400" xmlns="http://www.w3.org/2000/svg">
<rect width="800" height="400" fill="white"/>
<line x1="70" y1="40" x2="70" y2="340" stroke="#333" stroke-width="1"/>
<line x1="70" y1="340" x2="780" y2="340" stroke="#333" stroke-width="1"/>
<text x="65" y="344" text-anchor="end" font-size="11" fill="#333">0</text>
<text x="65" y="194" text-anchor="end" font-size="11" fill="#333">86000</text>
<text x="65" y="44" text-anchor="end" font-size="11" fill="#333">172000</text>
<text x="15" y="190" text-anchor="middle" font-size="12" fill="#333" transform="rotate(-90 15 190)">ms</text>
<polyline points="70,65 148,65 227,64 306,64 385,43 464,43 543,43 622,41 701,42 780,43" fill="none" stroke="#0072B2" stroke-width="2"/>
<polyline points="70,68 148,70 227,69 306,66 385,44 464,48 543,46 622,44 701,45 780,47" fill="none" stroke="#CC79A7" stroke-width="2"/>
<polyline points="70,338 148,338 227,338 306,338 385,337 464,338 543,338 622,338 701,338 780,338" fill="none" stroke="#D55E00" stroke-width="2"/>
<polyline points="70,305 148,305 227,305 306,304 385,301 464,301 543,301 622,301 701,301 780,301" fill="none" stroke="#009E73" stroke-width="2"/>
<circle cx="70" cy="65" r="3" fill="#0072B2"/>
<circle cx="70" cy="68" r="3" fill="#CC79A7"/>
<circle cx="70" cy="338" r="3" fill="#D55E00"/>
<circle cx="70" cy="305" r="3" fill="#009E73"/>
<circle cx="148" cy="65" r="3" fill="#0072B2"/>
<circle cx="148" cy="70" r="3" fill="#CC79A7"/>
<circle cx="148" cy="338" r="3" fill="#D55E00"/>
<circle cx="148" cy="305" r="3" fill="#009E73"/>
<circle cx="227" cy="64" r="3" fill="#0072B2"/>
<circle cx="227" cy="69" r="3" fill="#CC79A7"/>
<circle cx="227" cy="338" r="3" fill="#D55E00"/>
<circle cx="227" cy="305" r="3" fill="#009E73"/>
<circle cx="306" cy="64" r="3" fill="#0072B2"/>
<circle cx="306" cy="66" r="3" fill="#CC79A7"/>
<circle cx="306" cy="338" r="3" fill="#D55E00"/>
<circle cx="306" cy="304" r="3" fill="#009E73"/>
<circle cx="385" cy="43" r="3" fill="#0072B2"/>
<circle cx="385" cy="44" r="3" fill="#CC79A7"/>
<circle cx="385" cy="337" r="3" fill="#D55E00"/>
<circle cx="385" cy="301" r="3" fill="#009E73"/>
<circle cx="464" cy="43" r="3" fill="#0072B2"/>
<circle cx="464" cy="48" r="3" fill="#CC79A7"/>
<circle cx="464" cy="338" r="3" fill="#D55E00"/>
<circle cx="464" cy="301" r="3" fill="#009E73"/>
<circle cx="543" cy="43" r="3" fill="#0072B2"/>
<circle cx="543" cy="46" r="3" fill="#CC79A7"/>
<circle cx="543" cy="338" r="3" fill="#D55E00"/>
<circle cx="543" cy="301" r="3" fill="#009E73"/>
<circle cx="622" cy="41" r="3" fill="#0072B2"/>
<circle cx="622" cy="44" r="3" fill="#CC79A7"/>
<circle cx="622" cy="338" r="3" fill="#D55E00"/>
<circle cx="622" cy="301" r="3" fill="#009E73"/>
<circle cx="701" cy="42" r="3" fill="#0072B2"/>
<circle cx="701" cy="45" r="3" fill="#CC79A7"/>
<circle cx="701" cy="338" r="3" fill="#D55E00"/>
<circle cx="701" cy="301" r="3" fill="#009E73"/>
<circle cx="780" cy="43" r="3" fill="#0072B2"/>
<circle cx="780" cy="47" r="3" fill="#CC79A7"/>
<circle cx="780" cy="338" r="3" fill="#D55E00"/>
<circle cx="780" cy="301" r="3" fill="#009E73"/>
<circle cx="90" cy="20" r="4" fill="#0072B2"/>
<text x="98" y="24" text-anchor="start" font-size="12" fill="#0072B2">interpreted</text>
<circle cx="190" cy="20" r="4" fill="#CC79A7"/>
<text x="198" y="24" text-anchor="start" font-size="12" fill="#CC79A7">compiled</text>
<circle cx="275" cy="20" r="4" fill="#D55E00"/>
<text x="283" y="24" text-anchor="start" font-size="12" fill="#D55E00">executed</text>
<circle cx="355" cy="20" r="4" fill="#009E73"/>
<text x="363" y="24" text-anchor="start" font-size="12" fill="#009E73">wall</text>
</svg>
