<svg width="800" height="400" xmlns="http://www.w3.org/2000/svg">
<rect width="800" height="400" fill="white"/>
<line x1="70" y1="40" x2="70" y2="340" stroke="#333" stroke-width="1"/>
<line x1="70" y1="340" x2="780" y2="340" stroke="#333" stroke-width="1"/>
<text x="65" y="344" text-anchor="end" font-size="11" fill="#333">0</text>
<text x="65" y="194" text-anchor="end" font-size="11" fill="#333">32500</text>
<text x="65" y="44" text-anchor="end" font-size="11" fill="#333">65000</text>
<text x="15" y="190" text-anchor="middle" font-size="12" fill="#333" transform="rotate(-90 15 190)">ms</text>
<polyline points="70,47 148,51 227,46 306,48 385,53 464,46 543,48 622,52 701,49 780,44" fill="none" stroke="#0072B2" stroke-width="2"/>
<polyline points="70,232 148,234 227,231 306,231 385,235 464,231 543,234 622,235 701,234 780,229" fill="none" stroke="#D55E00" stroke-width="2"/>
<polyline points="70,69 148,71 227,66 306,71 385,72 464,67 543,66 622,68 701,68 780,61" fill="none" stroke="#CC79A7" stroke-width="2"/>
<polyline points="70,237 148,238 227,235 306,240 385,240 464,238 543,237 622,237 701,238 780,234" fill="none" stroke="#E69F00" stroke-width="2"/>
<polyline points="70,112 148,116 227,111 306,114 385,115 464,110 543,110 622,110 701,110 780,103" fill="none" stroke="#009E73" stroke-width="2"/>
<circle cx="70" cy="47" r="3" fill="#0072B2"/>
<circle cx="70" cy="232" r="3" fill="#D55E00"/>
<circle cx="70" cy="69" r="3" fill="#CC79A7"/>
<circle cx="70" cy="237" r="3" fill="#E69F00"/>
<circle cx="70" cy="112" r="3" fill="#009E73"/>
<circle cx="148" cy="51" r="3" fill="#0072B2"/>
<circle cx="148" cy="234" r="3" fill="#D55E00"/>
<circle cx="148" cy="71" r="3" fill="#CC79A7"/>
<circle cx="148" cy="238" r="3" fill="#E69F00"/>
<circle cx="148" cy="116" r="3" fill="#009E73"/>
<circle cx="227" cy="46" r="3" fill="#0072B2"/>
<circle cx="227" cy="231" r="3" fill="#D55E00"/>
<circle cx="227" cy="66" r="3" fill="#CC79A7"/>
<circle cx="227" cy="235" r="3" fill="#E69F00"/>
<circle cx="227" cy="111" r="3" fill="#009E73"/>
<circle cx="306" cy="48" r="3" fill="#0072B2"/>
<circle cx="306" cy="231" r="3" fill="#D55E00"/>
<circle cx="306" cy="71" r="3" fill="#CC79A7"/>
<circle cx="306" cy="240" r="3" fill="#E69F00"/>
<circle cx="306" cy="114" r="3" fill="#009E73"/>
<circle cx="385" cy="53" r="3" fill="#0072B2"/>
<circle cx="385" cy="235" r="3" fill="#D55E00"/>
<circle cx="385" cy="72" r="3" fill="#CC79A7"/>
<circle cx="385" cy="240" r="3" fill="#E69F00"/>
<circle cx="385" cy="115" r="3" fill="#009E73"/>
<circle cx="464" cy="46" r="3" fill="#0072B2"/>
<circle cx="464" cy="231" r="3" fill="#D55E00"/>
<circle cx="464" cy="67" r="3" fill="#CC79A7"/>
<circle cx="464" cy="238" r="3" fill="#E69F00"/>
<circle cx="464" cy="110" r="3" fill="#009E73"/>
<circle cx="543" cy="48" r="3" fill="#0072B2"/>
<circle cx="543" cy="234" r="3" fill="#D55E00"/>
<circle cx="543" cy="66" r="3" fill="#CC79A7"/>
<circle cx="543" cy="237" r="3" fill="#E69F00"/>
<circle cx="543" cy="110" r="3" fill="#009E73"/>
<circle cx="622" cy="52" r="3" fill="#0072B2"/>
<circle cx="622" cy="235" r="3" fill="#D55E00"/>
<circle cx="622" cy="68" r="3" fill="#CC79A7"/>
<circle cx="622" cy="237" r="3" fill="#E69F00"/>
<circle cx="622" cy="110" r="3" fill="#009E73"/>
<circle cx="701" cy="49" r="3" fill="#0072B2"/>
<circle cx="701" cy="234" r="3" fill="#D55E00"/>
<circle cx="701" cy="68" r="3" fill="#CC79A7"/>
<circle cx="701" cy="238" r="3" fill="#E69F00"/>
<circle cx="701" cy="110" r="3" fill="#009E73"/>
<circle cx="780" cy="44" r="3" fill="#0072B2"/>
<circle cx="780" cy="229" r="3" fill="#D55E00"/>
<circle cx="780" cy="61" r="3" fill="#CC79A7"/>
<circle cx="780" cy="234" r="3" fill="#E69F00"/>
<circle cx="780" cy="103" r="3" fill="#009E73"/>
<circle cx="90" cy="20" r="4" fill="#0072B2"/>
<text x="98" y="24" text-anchor="start" font-size="12" fill="#0072B2">ctil-i</text>
<circle cx="160" cy="20" r="4" fill="#D55E00"/>
<text x="168" y="24" text-anchor="start" font-size="12" fill="#D55E00">ctil-r</text>
<circle cx="230" cy="20" r="4" fill="#CC79A7"/>
<text x="238" y="24" text-anchor="start" font-size="12" fill="#CC79A7">til-i</text>
<circle cx="290" cy="20" r="4" fill="#E69F00"/>
<text x="298" y="24" text-anchor="start" font-size="12" fill="#E69F00">til-r</text>
<circle cx="350" cy="20" r="4" fill="#009E73"/>
<text x="358" y="24" text-anchor="start" font-size="12" fill="#009E73">Wall</text>
</svg>
