<svg width="800" height="400" xmlns="http://www.w3.org/2000/svg">
<rect width="800" height="400" fill="white"/>
<line x1="70" y1="40" x2="70" y2="340" stroke="#333" stroke-width="1"/>
<line x1="70" y1="340" x2="780" y2="340" stroke="#333" stroke-width="1"/>
<text x="65" y="344" text-anchor="end" font-size="11" fill="#333">0</text>
<text x="65" y="194" text-anchor="end" font-size="11" fill="#333">4500</text>
<text x="65" y="44" text-anchor="end" font-size="11" fill="#333">9000</text>
<text x="15" y="190" text-anchor="middle" font-size="12" fill="#333" transform="rotate(-90 15 190)">ms</text>
<polyline points="70,276 85,274 100,277 116,273 131,277 147,275 162,272 178,273 193,269 208,269 224,274 239,270 255,270 270,273 286,268 301,270 316,271 332,274 347,273 363,271 378,272 394,274 409,273 425,273 440,271 455,271 471,273 486,273 502,273 517,271 533,272 548,269 563,272 579,273 594,270 610,271 625,270 641,271 656,271 671,272 687,273 702,274 718,270 733,274 749,271 764,270 780,269" fill="none" stroke="#2196F3" stroke-width="2"/>
<polyline points="70,154 85,155 100,156 116,151 131,153 147,158 162,151 178,151 193,151 208,151 224,151 239,147 255,146 270,151 286,151 301,159 316,153 332,150 347,149 363,152 378,152 394,156 409,152 425,158 440,123 455,129 471,128 486,131 502,129 517,131 533,131 548,131 563,126 579,126 594,129 610,127 625,128 641,129 656,127 671,131 687,127 702,126 718,133 733,126 749,133 764,131 780,118" fill="none" stroke="#F44336" stroke-width="2"/>
<polyline points="70,108 85,109 100,109 116,107 131,113 147,101 162,99 178,99 193,97 208,94 224,95 239,96 255,95 270,97 286,96 301,94 316,92 332,92 347,97 363,92 378,95 394,98 409,96 425,97 440,89 455,93 471,88 486,89 502,93 517,95 533,88 548,82 563,85 579,84 594,85 610,84 625,84 641,82 656,81 671,85 687,91 702,84 718,88 733,87 749,87 764,86 780,71" fill="none" stroke="#4CAF50" stroke-width="2"/>
<circle cx="70" cy="276" r="3" fill="#2196F3"/>
<circle cx="70" cy="154" r="3" fill="#F44336"/>
<circle cx="70" cy="108" r="3" fill="#4CAF50"/>
<circle cx="85" cy="274" r="3" fill="#2196F3"/>
<circle cx="85" cy="155" r="3" fill="#F44336"/>
<circle cx="85" cy="109" r="3" fill="#4CAF50"/>
<circle cx="100" cy="277" r="3" fill="#2196F3"/>
<circle cx="100" cy="156" r="3" fill="#F44336"/>
<circle cx="100" cy="109" r="3" fill="#4CAF50"/>
<circle cx="116" cy="273" r="3" fill="#2196F3"/>
<circle cx="116" cy="151" r="3" fill="#F44336"/>
<circle cx="116" cy="107" r="3" fill="#4CAF50"/>
<circle cx="131" cy="277" r="3" fill="#2196F3"/>
<circle cx="131" cy="153" r="3" fill="#F44336"/>
<circle cx="131" cy="113" r="3" fill="#4CAF50"/>
<circle cx="147" cy="275" r="3" fill="#2196F3"/>
<circle cx="147" cy="158" r="3" fill="#F44336"/>
<circle cx="147" cy="101" r="3" fill="#4CAF50"/>
<circle cx="162" cy="272" r="3" fill="#2196F3"/>
<circle cx="162" cy="151" r="3" fill="#F44336"/>
<circle cx="162" cy="99" r="3" fill="#4CAF50"/>
<circle cx="178" cy="273" r="3" fill="#2196F3"/>
<circle cx="178" cy="151" r="3" fill="#F44336"/>
<circle cx="178" cy="99" r="3" fill="#4CAF50"/>
<circle cx="193" cy="269" r="3" fill="#2196F3"/>
<circle cx="193" cy="151" r="3" fill="#F44336"/>
<circle cx="193" cy="97" r="3" fill="#4CAF50"/>
<circle cx="208" cy="269" r="3" fill="#2196F3"/>
<circle cx="208" cy="151" r="3" fill="#F44336"/>
<circle cx="208" cy="94" r="3" fill="#4CAF50"/>
<circle cx="224" cy="274" r="3" fill="#2196F3"/>
<circle cx="224" cy="151" r="3" fill="#F44336"/>
<circle cx="224" cy="95" r="3" fill="#4CAF50"/>
<circle cx="239" cy="270" r="3" fill="#2196F3"/>
<circle cx="239" cy="147" r="3" fill="#F44336"/>
<circle cx="239" cy="96" r="3" fill="#4CAF50"/>
<circle cx="255" cy="270" r="3" fill="#2196F3"/>
<circle cx="255" cy="146" r="3" fill="#F44336"/>
<circle cx="255" cy="95" r="3" fill="#4CAF50"/>
<circle cx="270" cy="273" r="3" fill="#2196F3"/>
<circle cx="270" cy="151" r="3" fill="#F44336"/>
<circle cx="270" cy="97" r="3" fill="#4CAF50"/>
<circle cx="286" cy="268" r="3" fill="#2196F3"/>
<circle cx="286" cy="151" r="3" fill="#F44336"/>
<circle cx="286" cy="96" r="3" fill="#4CAF50"/>
<circle cx="301" cy="270" r="3" fill="#2196F3"/>
<circle cx="301" cy="159" r="3" fill="#F44336"/>
<circle cx="301" cy="94" r="3" fill="#4CAF50"/>
<circle cx="316" cy="271" r="3" fill="#2196F3"/>
<circle cx="316" cy="153" r="3" fill="#F44336"/>
<circle cx="316" cy="92" r="3" fill="#4CAF50"/>
<circle cx="332" cy="274" r="3" fill="#2196F3"/>
<circle cx="332" cy="150" r="3" fill="#F44336"/>
<circle cx="332" cy="92" r="3" fill="#4CAF50"/>
<circle cx="347" cy="273" r="3" fill="#2196F3"/>
<circle cx="347" cy="149" r="3" fill="#F44336"/>
<circle cx="347" cy="97" r="3" fill="#4CAF50"/>
<circle cx="363" cy="271" r="3" fill="#2196F3"/>
<circle cx="363" cy="152" r="3" fill="#F44336"/>
<circle cx="363" cy="92" r="3" fill="#4CAF50"/>
<circle cx="378" cy="272" r="3" fill="#2196F3"/>
<circle cx="378" cy="152" r="3" fill="#F44336"/>
<circle cx="378" cy="95" r="3" fill="#4CAF50"/>
<circle cx="394" cy="274" r="3" fill="#2196F3"/>
<circle cx="394" cy="156" r="3" fill="#F44336"/>
<circle cx="394" cy="98" r="3" fill="#4CAF50"/>
<circle cx="409" cy="273" r="3" fill="#2196F3"/>
<circle cx="409" cy="152" r="3" fill="#F44336"/>
<circle cx="409" cy="96" r="3" fill="#4CAF50"/>
<circle cx="425" cy="273" r="3" fill="#2196F3"/>
<circle cx="425" cy="158" r="3" fill="#F44336"/>
<circle cx="425" cy="97" r="3" fill="#4CAF50"/>
<circle cx="440" cy="271" r="3" fill="#2196F3"/>
<circle cx="440" cy="123" r="3" fill="#F44336"/>
<circle cx="440" cy="89" r="3" fill="#4CAF50"/>
<circle cx="455" cy="271" r="3" fill="#2196F3"/>
<circle cx="455" cy="129" r="3" fill="#F44336"/>
<circle cx="455" cy="93" r="3" fill="#4CAF50"/>
<circle cx="471" cy="273" r="3" fill="#2196F3"/>
<circle cx="471" cy="128" r="3" fill="#F44336"/>
<circle cx="471" cy="88" r="3" fill="#4CAF50"/>
<circle cx="486" cy="273" r="3" fill="#2196F3"/>
<circle cx="486" cy="131" r="3" fill="#F44336"/>
<circle cx="486" cy="89" r="3" fill="#4CAF50"/>
<circle cx="502" cy="273" r="3" fill="#2196F3"/>
<circle cx="502" cy="129" r="3" fill="#F44336"/>
<circle cx="502" cy="93" r="3" fill="#4CAF50"/>
<circle cx="517" cy="271" r="3" fill="#2196F3"/>
<circle cx="517" cy="131" r="3" fill="#F44336"/>
<circle cx="517" cy="95" r="3" fill="#4CAF50"/>
<circle cx="533" cy="272" r="3" fill="#2196F3"/>
<circle cx="533" cy="131" r="3" fill="#F44336"/>
<circle cx="533" cy="88" r="3" fill="#4CAF50"/>
<circle cx="548" cy="269" r="3" fill="#2196F3"/>
<circle cx="548" cy="131" r="3" fill="#F44336"/>
<circle cx="548" cy="82" r="3" fill="#4CAF50"/>
<circle cx="563" cy="272" r="3" fill="#2196F3"/>
<circle cx="563" cy="126" r="3" fill="#F44336"/>
<circle cx="563" cy="85" r="3" fill="#4CAF50"/>
<circle cx="579" cy="273" r="3" fill="#2196F3"/>
<circle cx="579" cy="126" r="3" fill="#F44336"/>
<circle cx="579" cy="84" r="3" fill="#4CAF50"/>
<circle cx="594" cy="270" r="3" fill="#2196F3"/>
<circle cx="594" cy="129" r="3" fill="#F44336"/>
<circle cx="594" cy="85" r="3" fill="#4CAF50"/>
<circle cx="610" cy="271" r="3" fill="#2196F3"/>
<circle cx="610" cy="127" r="3" fill="#F44336"/>
<circle cx="610" cy="84" r="3" fill="#4CAF50"/>
<circle cx="625" cy="270" r="3" fill="#2196F3"/>
<circle cx="625" cy="128" r="3" fill="#F44336"/>
<circle cx="625" cy="84" r="3" fill="#4CAF50"/>
<circle cx="641" cy="271" r="3" fill="#2196F3"/>
<circle cx="641" cy="129" r="3" fill="#F44336"/>
<circle cx="641" cy="82" r="3" fill="#4CAF50"/>
<circle cx="656" cy="271" r="3" fill="#2196F3"/>
<circle cx="656" cy="127" r="3" fill="#F44336"/>
<circle cx="656" cy="81" r="3" fill="#4CAF50"/>
<circle cx="671" cy="272" r="3" fill="#2196F3"/>
<circle cx="671" cy="131" r="3" fill="#F44336"/>
<circle cx="671" cy="85" r="3" fill="#4CAF50"/>
<circle cx="687" cy="273" r="3" fill="#2196F3"/>
<circle cx="687" cy="127" r="3" fill="#F44336"/>
<circle cx="687" cy="91" r="3" fill="#4CAF50"/>
<circle cx="702" cy="274" r="3" fill="#2196F3"/>
<circle cx="702" cy="126" r="3" fill="#F44336"/>
<circle cx="702" cy="84" r="3" fill="#4CAF50"/>
<circle cx="718" cy="270" r="3" fill="#2196F3"/>
<circle cx="718" cy="133" r="3" fill="#F44336"/>
<circle cx="718" cy="88" r="3" fill="#4CAF50"/>
<circle cx="733" cy="274" r="3" fill="#2196F3"/>
<circle cx="733" cy="126" r="3" fill="#F44336"/>
<circle cx="733" cy="87" r="3" fill="#4CAF50"/>
<circle cx="749" cy="271" r="3" fill="#2196F3"/>
<circle cx="749" cy="133" r="3" fill="#F44336"/>
<circle cx="749" cy="87" r="3" fill="#4CAF50"/>
<circle cx="764" cy="270" r="3" fill="#2196F3"/>
<circle cx="764" cy="131" r="3" fill="#F44336"/>
<circle cx="764" cy="86" r="3" fill="#4CAF50"/>
<circle cx="780" cy="269" r="3" fill="#2196F3"/>
<circle cx="780" cy="118" r="3" fill="#F44336"/>
<circle cx="780" cy="71" r="3" fill="#4CAF50"/>
<text x="70" y="355" text-anchor="middle" font-size="10" fill="#666">d31c3d3</text>
<text x="85" y="355" text-anchor="middle" font-size="10" fill="#666">577b0f6</text>
<text x="100" y="355" text-anchor="middle" font-size="10" fill="#666">a0e3a8f</text>
<text x="116" y="355" text-anchor="middle" font-size="10" fill="#666">32b7787</text>
<text x="131" y="355" text-anchor="middle" font-size="10" fill="#666">940e369</text>
<text x="147" y="355" text-anchor="middle" font-size="10" fill="#666">78956c1</text>
<text x="162" y="355" text-anchor="middle" font-size="10" fill="#666">1a288e9</text>
<text x="178" y="355" text-anchor="middle" font-size="10" fill="#666">f1c0746</text>
<text x="193" y="355" text-anchor="middle" font-size="10" fill="#666">efad3b5</text>
<text x="208" y="355" text-anchor="middle" font-size="10" fill="#666">d3839be</text>
<text x="224" y="355" text-anchor="middle" font-size="10" fill="#666">a0c21b2</text>
<text x="239" y="355" text-anchor="middle" font-size="10" fill="#666">c3d3d81</text>
<text x="255" y="355" text-anchor="middle" font-size="10" fill="#666">e40d897</text>
<text x="270" y="355" text-anchor="middle" font-size="10" fill="#666">0b1ed97</text>
<text x="286" y="355" text-anchor="middle" font-size="10" fill="#666">6a5ae3f</text>
<text x="301" y="355" text-anchor="middle" font-size="10" fill="#666">59cf448</text>
<text x="316" y="355" text-anchor="middle" font-size="10" fill="#666">42b3e04</text>
<text x="332" y="355" text-anchor="middle" font-size="10" fill="#666">bd9421a</text>
<text x="347" y="355" text-anchor="middle" font-size="10" fill="#666">f80812f</text>
<text x="363" y="355" text-anchor="middle" font-size="10" fill="#666">448a5fe</text>
<text x="378" y="355" text-anchor="middle" font-size="10" fill="#666">b16c1cc</text>
<text x="394" y="355" text-anchor="middle" font-size="10" fill="#666">44c334c</text>
<text x="409" y="355" text-anchor="middle" font-size="10" fill="#666">aa51d1a</text>
<text x="425" y="355" text-anchor="middle" font-size="10" fill="#666">9bee79a</text>
<text x="440" y="355" text-anchor="middle" font-size="10" fill="#666">4380346</text>
<text x="455" y="355" text-anchor="middle" font-size="10" fill="#666">2a587a9</text>
<text x="471" y="355" text-anchor="middle" font-size="10" fill="#666">efb005a</text>
<text x="486" y="355" text-anchor="middle" font-size="10" fill="#666">1c3b72e</text>
<text x="502" y="355" text-anchor="middle" font-size="10" fill="#666">ff7c733</text>
<text x="517" y="355" text-anchor="middle" font-size="10" fill="#666">962897f</text>
<text x="533" y="355" text-anchor="middle" font-size="10" fill="#666">dfec04b</text>
<text x="548" y="355" text-anchor="middle" font-size="10" fill="#666">60e18de</text>
<text x="563" y="355" text-anchor="middle" font-size="10" fill="#666">80a0d41</text>
<text x="579" y="355" text-anchor="middle" font-size="10" fill="#666">e200726</text>
<text x="594" y="355" text-anchor="middle" font-size="10" fill="#666">775a89f</text>
<text x="610" y="355" text-anchor="middle" font-size="10" fill="#666">18e45a5</text>
<text x="625" y="355" text-anchor="middle" font-size="10" fill="#666">9d60b61</text>
<text x="641" y="355" text-anchor="middle" font-size="10" fill="#666">479229b</text>
<text x="656" y="355" text-anchor="middle" font-size="10" fill="#666">39769db</text>
<text x="671" y="355" text-anchor="middle" font-size="10" fill="#666">2834756</text>
<text x="687" y="355" text-anchor="middle" font-size="10" fill="#666">3628e6d</text>
<text x="702" y="355" text-anchor="middle" font-size="10" fill="#666">daa3fc2</text>
<text x="718" y="355" text-anchor="middle" font-size="10" fill="#666">8fc41b8</text>
<text x="733" y="355" text-anchor="middle" font-size="10" fill="#666">7d63976</text>
<text x="749" y="355" text-anchor="middle" font-size="10" fill="#666">4f6a400</text>
<text x="764" y="355" text-anchor="middle" font-size="10" fill="#666">443d8b3</text>
<text x="780" y="355" text-anchor="middle" font-size="10" fill="#666">86f53df</text>
<circle cx="90" cy="20" r="4" fill="#2196F3"/>
<text x="98" y="24" text-anchor="start" font-size="12" fill="#2196F3">Interpreted</text>
<circle cx="200" cy="20" r="4" fill="#F44336"/>
<text x="208" y="24" text-anchor="start" font-size="12" fill="#F44336">Compiled</text>
<circle cx="300" cy="20" r="4" fill="#4CAF50"/>
<text x="308" y="24" text-anchor="start" font-size="12" fill="#4CAF50">Wall-clock</text>
</svg>
