<svg width="800" height="400" xmlns="http://www.w3.org/2000/svg">
<rect width="800" height="400" fill="white"/>
<line x1="70" y1="40" x2="70" y2="340" stroke="#333" stroke-width="1"/>
<line x1="70" y1="340" x2="730" y2="340" stroke="#333" stroke-width="1"/>
<line x1="730" y1="40" x2="730" y2="340" stroke="#333" stroke-width="1"/>
<text x="65" y="344" text-anchor="end" font-size="11" fill="#333">0</text>
<text x="65" y="194" text-anchor="end" font-size="11" fill="#333">612500</text>
<text x="65" y="44" text-anchor="end" font-size="11" fill="#333">1225000</text>
<text x="15" y="190" text-anchor="middle" font-size="12" fill="#333" transform="rotate(-90 15 190)">ms</text>
<text x="735" y="344" text-anchor="start" font-size="11" fill="#333">0</text>
<text x="735" y="194" text-anchor="start" font-size="11" fill="#333">69097500000</text>
<text x="735" y="44" text-anchor="start" font-size="11" fill="#333">138195000000</text>
<text x="785" y="190" text-anchor="middle" font-size="12" fill="#333" transform="rotate(90 785 190)">bytes</text>
<polyline points="70,73 143,46 216,53 290,45 363,43 436,44 510,43 583,48 656,50 730,51" fill="none" stroke="#0072B2" stroke-width="2"/>
<polyline points="70,69 143,55 216,48 290,41 363,45 436,43 510,45 583,52 656,52 730,53" fill="none" stroke="#CC79A7" stroke-width="2"/>
<polyline points="70,340 143,340 216,340 290,340 363,340 436,340 510,340 583,340 656,340 730,340" fill="none" stroke="#D55E00" stroke-width="2"/>
<polyline points="70,305 143,303 216,302 290,301 363,301 436,301 510,302 583,302 656,302 730,302" fill="none" stroke="#009E73" stroke-width="2"/>
<polyline points="70,121 143,116 216,117 290,112 363,112 436,112 510,113 583,121 656,122 730,119" fill="none" stroke="#984EA3" stroke-width="2"/>
<polyline points="70,58 143,50 216,44 290,44 363,41 436,41 510,43 583,42 656,41 730,41" fill="none" stroke="#56B4E9" stroke-width="2"/>
<polyline points="70,59 143,49 216,46 290,45 363,43 436,42 510,44 583,42 656,43 730,43" fill="none" stroke="#E69F00" stroke-width="2"/>
<polyline points="70,339 143,340 216,340 290,339 363,339 436,339 510,340 583,339 656,340 730,340" fill="none" stroke="#C44E52" stroke-width="2"/>
<polyline points="70,299 143,298 216,298 290,298 363,299 436,298 510,299 583,298 656,298 730,298" fill="none" stroke="#8C564B" stroke-width="2"/>
<circle cx="70" cy="73" r="3" fill="#0072B2"/>
<circle cx="70" cy="69" r="3" fill="#CC79A7"/>
<circle cx="70" cy="340" r="3" fill="#D55E00"/>
<circle cx="70" cy="305" r="3" fill="#009E73"/>
<circle cx="70" cy="121" r="3" fill="#984EA3"/>
<circle cx="70" cy="58" r="3" fill="#56B4E9"/>
<circle cx="70" cy="59" r="3" fill="#E69F00"/>
<circle cx="70" cy="339" r="3" fill="#C44E52"/>
<circle cx="70" cy="299" r="3" fill="#8C564B"/>
<circle cx="143" cy="46" r="3" fill="#0072B2"/>
<circle cx="143" cy="55" r="3" fill="#CC79A7"/>
<circle cx="143" cy="340" r="3" fill="#D55E00"/>
<circle cx="143" cy="303" r="3" fill="#009E73"/>
<circle cx="143" cy="116" r="3" fill="#984EA3"/>
<circle cx="143" cy="50" r="3" fill="#56B4E9"/>
<circle cx="143" cy="49" r="3" fill="#E69F00"/>
<circle cx="143" cy="340" r="3" fill="#C44E52"/>
<circle cx="143" cy="298" r="3" fill="#8C564B"/>
<circle cx="216" cy="53" r="3" fill="#0072B2"/>
<circle cx="216" cy="48" r="3" fill="#CC79A7"/>
<circle cx="216" cy="340" r="3" fill="#D55E00"/>
<circle cx="216" cy="302" r="3" fill="#009E73"/>
<circle cx="216" cy="117" r="3" fill="#984EA3"/>
<circle cx="216" cy="44" r="3" fill="#56B4E9"/>
<circle cx="216" cy="46" r="3" fill="#E69F00"/>
<circle cx="216" cy="340" r="3" fill="#C44E52"/>
<circle cx="216" cy="298" r="3" fill="#8C564B"/>
<circle cx="290" cy="45" r="3" fill="#0072B2"/>
<circle cx="290" cy="41" r="3" fill="#CC79A7"/>
<circle cx="290" cy="340" r="3" fill="#D55E00"/>
<circle cx="290" cy="301" r="3" fill="#009E73"/>
<circle cx="290" cy="112" r="3" fill="#984EA3"/>
<circle cx="290" cy="44" r="3" fill="#56B4E9"/>
<circle cx="290" cy="45" r="3" fill="#E69F00"/>
<circle cx="290" cy="339" r="3" fill="#C44E52"/>
<circle cx="290" cy="298" r="3" fill="#8C564B"/>
<circle cx="363" cy="43" r="3" fill="#0072B2"/>
<circle cx="363" cy="45" r="3" fill="#CC79A7"/>
<circle cx="363" cy="340" r="3" fill="#D55E00"/>
<circle cx="363" cy="301" r="3" fill="#009E73"/>
<circle cx="363" cy="112" r="3" fill="#984EA3"/>
<circle cx="363" cy="41" r="3" fill="#56B4E9"/>
<circle cx="363" cy="43" r="3" fill="#E69F00"/>
<circle cx="363" cy="339" r="3" fill="#C44E52"/>
<circle cx="363" cy="299" r="3" fill="#8C564B"/>
<circle cx="436" cy="44" r="3" fill="#0072B2"/>
<circle cx="436" cy="43" r="3" fill="#CC79A7"/>
<circle cx="436" cy="340" r="3" fill="#D55E00"/>
<circle cx="436" cy="301" r="3" fill="#009E73"/>
<circle cx="436" cy="112" r="3" fill="#984EA3"/>
<circle cx="436" cy="41" r="3" fill="#56B4E9"/>
<circle cx="436" cy="42" r="3" fill="#E69F00"/>
<circle cx="436" cy="339" r="3" fill="#C44E52"/>
<circle cx="436" cy="298" r="3" fill="#8C564B"/>
<circle cx="510" cy="43" r="3" fill="#0072B2"/>
<circle cx="510" cy="45" r="3" fill="#CC79A7"/>
<circle cx="510" cy="340" r="3" fill="#D55E00"/>
<circle cx="510" cy="302" r="3" fill="#009E73"/>
<circle cx="510" cy="113" r="3" fill="#984EA3"/>
<circle cx="510" cy="43" r="3" fill="#56B4E9"/>
<circle cx="510" cy="44" r="3" fill="#E69F00"/>
<circle cx="510" cy="340" r="3" fill="#C44E52"/>
<circle cx="510" cy="299" r="3" fill="#8C564B"/>
<circle cx="583" cy="48" r="3" fill="#0072B2"/>
<circle cx="583" cy="52" r="3" fill="#CC79A7"/>
<circle cx="583" cy="340" r="3" fill="#D55E00"/>
<circle cx="583" cy="302" r="3" fill="#009E73"/>
<circle cx="583" cy="121" r="3" fill="#984EA3"/>
<circle cx="583" cy="42" r="3" fill="#56B4E9"/>
<circle cx="583" cy="42" r="3" fill="#E69F00"/>
<circle cx="583" cy="339" r="3" fill="#C44E52"/>
<circle cx="583" cy="298" r="3" fill="#8C564B"/>
<circle cx="656" cy="50" r="3" fill="#0072B2"/>
<circle cx="656" cy="52" r="3" fill="#CC79A7"/>
<circle cx="656" cy="340" r="3" fill="#D55E00"/>
<circle cx="656" cy="302" r="3" fill="#009E73"/>
<circle cx="656" cy="122" r="3" fill="#984EA3"/>
<circle cx="656" cy="41" r="3" fill="#56B4E9"/>
<circle cx="656" cy="43" r="3" fill="#E69F00"/>
<circle cx="656" cy="340" r="3" fill="#C44E52"/>
<circle cx="656" cy="298" r="3" fill="#8C564B"/>
<circle cx="730" cy="51" r="3" fill="#0072B2"/>
<circle cx="730" cy="53" r="3" fill="#CC79A7"/>
<circle cx="730" cy="340" r="3" fill="#D55E00"/>
<circle cx="730" cy="302" r="3" fill="#009E73"/>
<circle cx="730" cy="119" r="3" fill="#984EA3"/>
<circle cx="730" cy="41" r="3" fill="#56B4E9"/>
<circle cx="730" cy="43" r="3" fill="#E69F00"/>
<circle cx="730" cy="340" r="3" fill="#C44E52"/>
<circle cx="730" cy="298" r="3" fill="#8C564B"/>
<circle cx="70" cy="20" r="4" fill="#0072B2"/>
<text x="78" y="24" text-anchor="start" font-size="12" fill="#0072B2">inte</text>
<circle cx="130" cy="20" r="4" fill="#CC79A7"/>
<text x="138" y="24" text-anchor="start" font-size="12" fill="#CC79A7">comp</text>
<circle cx="195" cy="20" r="4" fill="#D55E00"/>
<text x="203" y="24" text-anchor="start" font-size="12" fill="#D55E00">run</text>
<circle cx="250" cy="20" r="4" fill="#009E73"/>
<text x="258" y="24" text-anchor="start" font-size="12" fill="#009E73">wall</text>
<circle cx="315" cy="20" r="4" fill="#984EA3"/>
<text x="323" y="24" text-anchor="start" font-size="12" fill="#984EA3">self</text>
<circle cx="380" cy="20" r="4" fill="#56B4E9"/>
<text x="388" y="24" text-anchor="start" font-size="12" fill="#56B4E9">mem-inte</text>
<circle cx="470" cy="20" r="4" fill="#E69F00"/>
<text x="478" y="24" text-anchor="start" font-size="12" fill="#E69F00">mem-comp</text>
<circle cx="565" cy="20" r="4" fill="#C44E52"/>
<text x="573" y="24" text-anchor="start" font-size="12" fill="#C44E52">mem-run</text>
<circle cx="650" cy="20" r="4" fill="#8C564B"/>
<text x="658" y="24" text-anchor="start" font-size="12" fill="#8C564B">self-mem</text>
</svg>
