<svg width="800" height="400" xmlns="http://www.w3.org/2000/svg">
<rect width="800" height="400" fill="white"/>
<line x1="70" y1="40" x2="70" y2="340" stroke="#333" stroke-width="1"/>
<line x1="70" y1="340" x2="780" y2="340" stroke="#333" stroke-width="1"/>
<text x="65" y="344" text-anchor="end" font-size="11" fill="#333">0</text>
<text x="65" y="194" text-anchor="end" font-size="11" fill="#333">4500</text>
<text x="65" y="44" text-anchor="end" font-size="11" fill="#333">9000</text>
<text x="15" y="190" text-anchor="middle" font-size="12" fill="#333" transform="rotate(-90 15 190)">ms</text>
<polyline points="70,276 83,274 97,277 111,273 125,277 139,275 153,272 167,273 181,269 195,269 209,274 223,270 237,270 250,273 264,268 278,270 292,271 306,274 320,273 334,271 348,272 362,274 376,273 390,273 404,271 418,271 431,273 445,273 459,273 473,271 487,272 501,269 515,272 529,273 543,270 557,271 571,270 585,271 599,271 612,272 626,273 640,274 654,270 668,274 682,271 696,270 710,269 724,269 738,266 752,270 766,268 780,270" fill="none" stroke="#2196F3" stroke-width="2"/>
<polyline points="70,154 83,155 97,156 111,151 125,153 139,158 153,151 167,151 181,151 195,151 209,151 223,147 237,146 250,151 264,151 278,159 292,153 306,150 320,149 334,152 348,152 362,156 376,152 390,158 404,123 418,129 431,128 445,131 459,129 473,131 487,131 501,131 515,126 529,126 543,129 557,127 571,128 585,129 599,127 612,131 626,127 640,126 654,133 668,126 682,133 696,131 710,118 724,119 738,119 752,120 766,123 780,124" fill="none" stroke="#F44336" stroke-width="2"/>
<polyline points="70,108 83,109 97,109 111,107 125,113 139,101 153,99 167,99 181,97 195,94 209,95 223,96 237,95 250,97 264,96 278,94 292,92 306,92 320,97 334,92 348,95 362,98 376,96 390,97 404,89 418,93 431,88 445,89 459,93 473,95 487,88 501,82 515,85 529,84 543,85 557,84 571,84 585,82 599,81 612,85 626,91 640,84 654,88 668,87 682,87 696,86 710,71 724,67 738,68 752,68 766,71 780,74" fill="none" stroke="#4CAF50" stroke-width="2"/>
<circle cx="70" cy="276" r="3" fill="#2196F3"/>
<circle cx="70" cy="154" r="3" fill="#F44336"/>
<circle cx="70" cy="108" r="3" fill="#4CAF50"/>
<circle cx="83" cy="274" r="3" fill="#2196F3"/>
<circle cx="83" cy="155" r="3" fill="#F44336"/>
<circle cx="83" cy="109" r="3" fill="#4CAF50"/>
<circle cx="97" cy="277" r="3" fill="#2196F3"/>
<circle cx="97" cy="156" r="3" fill="#F44336"/>
<circle cx="97" cy="109" r="3" fill="#4CAF50"/>
<circle cx="111" cy="273" r="3" fill="#2196F3"/>
<circle cx="111" cy="151" r="3" fill="#F44336"/>
<circle cx="111" cy="107" r="3" fill="#4CAF50"/>
<circle cx="125" cy="277" r="3" fill="#2196F3"/>
<circle cx="125" cy="153" r="3" fill="#F44336"/>
<circle cx="125" cy="113" r="3" fill="#4CAF50"/>
<circle cx="139" cy="275" r="3" fill="#2196F3"/>
<circle cx="139" cy="158" r="3" fill="#F44336"/>
<circle cx="139" cy="101" r="3" fill="#4CAF50"/>
<circle cx="153" cy="272" r="3" fill="#2196F3"/>
<circle cx="153" cy="151" r="3" fill="#F44336"/>
<circle cx="153" cy="99" r="3" fill="#4CAF50"/>
<circle cx="167" cy="273" r="3" fill="#2196F3"/>
<circle cx="167" cy="151" r="3" fill="#F44336"/>
<circle cx="167" cy="99" r="3" fill="#4CAF50"/>
<circle cx="181" cy="269" r="3" fill="#2196F3"/>
<circle cx="181" cy="151" r="3" fill="#F44336"/>
<circle cx="181" cy="97" r="3" fill="#4CAF50"/>
<circle cx="195" cy="269" r="3" fill="#2196F3"/>
<circle cx="195" cy="151" r="3" fill="#F44336"/>
<circle cx="195" cy="94" r="3" fill="#4CAF50"/>
<circle cx="209" cy="274" r="3" fill="#2196F3"/>
<circle cx="209" cy="151" r="3" fill="#F44336"/>
<circle cx="209" cy="95" r="3" fill="#4CAF50"/>
<circle cx="223" cy="270" r="3" fill="#2196F3"/>
<circle cx="223" cy="147" r="3" fill="#F44336"/>
<circle cx="223" cy="96" r="3" fill="#4CAF50"/>
<circle cx="237" cy="270" r="3" fill="#2196F3"/>
<circle cx="237" cy="146" r="3" fill="#F44336"/>
<circle cx="237" cy="95" r="3" fill="#4CAF50"/>
<circle cx="250" cy="273" r="3" fill="#2196F3"/>
<circle cx="250" cy="151" r="3" fill="#F44336"/>
<circle cx="250" cy="97" r="3" fill="#4CAF50"/>
<circle cx="264" cy="268" r="3" fill="#2196F3"/>
<circle cx="264" cy="151" r="3" fill="#F44336"/>
<circle cx="264" cy="96" r="3" fill="#4CAF50"/>
<circle cx="278" cy="270" r="3" fill="#2196F3"/>
<circle cx="278" cy="159" r="3" fill="#F44336"/>
<circle cx="278" cy="94" r="3" fill="#4CAF50"/>
<circle cx="292" cy="271" r="3" fill="#2196F3"/>
<circle cx="292" cy="153" r="3" fill="#F44336"/>
<circle cx="292" cy="92" r="3" fill="#4CAF50"/>
<circle cx="306" cy="274" r="3" fill="#2196F3"/>
<circle cx="306" cy="150" r="3" fill="#F44336"/>
<circle cx="306" cy="92" r="3" fill="#4CAF50"/>
<circle cx="320" cy="273" r="3" fill="#2196F3"/>
<circle cx="320" cy="149" r="3" fill="#F44336"/>
<circle cx="320" cy="97" r="3" fill="#4CAF50"/>
<circle cx="334" cy="271" r="3" fill="#2196F3"/>
<circle cx="334" cy="152" r="3" fill="#F44336"/>
<circle cx="334" cy="92" r="3" fill="#4CAF50"/>
<circle cx="348" cy="272" r="3" fill="#2196F3"/>
<circle cx="348" cy="152" r="3" fill="#F44336"/>
<circle cx="348" cy="95" r="3" fill="#4CAF50"/>
<circle cx="362" cy="274" r="3" fill="#2196F3"/>
<circle cx="362" cy="156" r="3" fill="#F44336"/>
<circle cx="362" cy="98" r="3" fill="#4CAF50"/>
<circle cx="376" cy="273" r="3" fill="#2196F3"/>
<circle cx="376" cy="152" r="3" fill="#F44336"/>
<circle cx="376" cy="96" r="3" fill="#4CAF50"/>
<circle cx="390" cy="273" r="3" fill="#2196F3"/>
<circle cx="390" cy="158" r="3" fill="#F44336"/>
<circle cx="390" cy="97" r="3" fill="#4CAF50"/>
<circle cx="404" cy="271" r="3" fill="#2196F3"/>
<circle cx="404" cy="123" r="3" fill="#F44336"/>
<circle cx="404" cy="89" r="3" fill="#4CAF50"/>
<circle cx="418" cy="271" r="3" fill="#2196F3"/>
<circle cx="418" cy="129" r="3" fill="#F44336"/>
<circle cx="418" cy="93" r="3" fill="#4CAF50"/>
<circle cx="431" cy="273" r="3" fill="#2196F3"/>
<circle cx="431" cy="128" r="3" fill="#F44336"/>
<circle cx="431" cy="88" r="3" fill="#4CAF50"/>
<circle cx="445" cy="273" r="3" fill="#2196F3"/>
<circle cx="445" cy="131" r="3" fill="#F44336"/>
<circle cx="445" cy="89" r="3" fill="#4CAF50"/>
<circle cx="459" cy="273" r="3" fill="#2196F3"/>
<circle cx="459" cy="129" r="3" fill="#F44336"/>
<circle cx="459" cy="93" r="3" fill="#4CAF50"/>
<circle cx="473" cy="271" r="3" fill="#2196F3"/>
<circle cx="473" cy="131" r="3" fill="#F44336"/>
<circle cx="473" cy="95" r="3" fill="#4CAF50"/>
<circle cx="487" cy="272" r="3" fill="#2196F3"/>
<circle cx="487" cy="131" r="3" fill="#F44336"/>
<circle cx="487" cy="88" r="3" fill="#4CAF50"/>
<circle cx="501" cy="269" r="3" fill="#2196F3"/>
<circle cx="501" cy="131" r="3" fill="#F44336"/>
<circle cx="501" cy="82" r="3" fill="#4CAF50"/>
<circle cx="515" cy="272" r="3" fill="#2196F3"/>
<circle cx="515" cy="126" r="3" fill="#F44336"/>
<circle cx="515" cy="85" r="3" fill="#4CAF50"/>
<circle cx="529" cy="273" r="3" fill="#2196F3"/>
<circle cx="529" cy="126" r="3" fill="#F44336"/>
<circle cx="529" cy="84" r="3" fill="#4CAF50"/>
<circle cx="543" cy="270" r="3" fill="#2196F3"/>
<circle cx="543" cy="129" r="3" fill="#F44336"/>
<circle cx="543" cy="85" r="3" fill="#4CAF50"/>
<circle cx="557" cy="271" r="3" fill="#2196F3"/>
<circle cx="557" cy="127" r="3" fill="#F44336"/>
<circle cx="557" cy="84" r="3" fill="#4CAF50"/>
<circle cx="571" cy="270" r="3" fill="#2196F3"/>
<circle cx="571" cy="128" r="3" fill="#F44336"/>
<circle cx="571" cy="84" r="3" fill="#4CAF50"/>
<circle cx="585" cy="271" r="3" fill="#2196F3"/>
<circle cx="585" cy="129" r="3" fill="#F44336"/>
<circle cx="585" cy="82" r="3" fill="#4CAF50"/>
<circle cx="599" cy="271" r="3" fill="#2196F3"/>
<circle cx="599" cy="127" r="3" fill="#F44336"/>
<circle cx="599" cy="81" r="3" fill="#4CAF50"/>
<circle cx="612" cy="272" r="3" fill="#2196F3"/>
<circle cx="612" cy="131" r="3" fill="#F44336"/>
<circle cx="612" cy="85" r="3" fill="#4CAF50"/>
<circle cx="626" cy="273" r="3" fill="#2196F3"/>
<circle cx="626" cy="127" r="3" fill="#F44336"/>
<circle cx="626" cy="91" r="3" fill="#4CAF50"/>
<circle cx="640" cy="274" r="3" fill="#2196F3"/>
<circle cx="640" cy="126" r="3" fill="#F44336"/>
<circle cx="640" cy="84" r="3" fill="#4CAF50"/>
<circle cx="654" cy="270" r="3" fill="#2196F3"/>
<circle cx="654" cy="133" r="3" fill="#F44336"/>
<circle cx="654" cy="88" r="3" fill="#4CAF50"/>
<circle cx="668" cy="274" r="3" fill="#2196F3"/>
<circle cx="668" cy="126" r="3" fill="#F44336"/>
<circle cx="668" cy="87" r="3" fill="#4CAF50"/>
<circle cx="682" cy="271" r="3" fill="#2196F3"/>
<circle cx="682" cy="133" r="3" fill="#F44336"/>
<circle cx="682" cy="87" r="3" fill="#4CAF50"/>
<circle cx="696" cy="270" r="3" fill="#2196F3"/>
<circle cx="696" cy="131" r="3" fill="#F44336"/>
<circle cx="696" cy="86" r="3" fill="#4CAF50"/>
<circle cx="710" cy="269" r="3" fill="#2196F3"/>
<circle cx="710" cy="118" r="3" fill="#F44336"/>
<circle cx="710" cy="71" r="3" fill="#4CAF50"/>
<circle cx="724" cy="269" r="3" fill="#2196F3"/>
<circle cx="724" cy="119" r="3" fill="#F44336"/>
<circle cx="724" cy="67" r="3" fill="#4CAF50"/>
<circle cx="738" cy="266" r="3" fill="#2196F3"/>
<circle cx="738" cy="119" r="3" fill="#F44336"/>
<circle cx="738" cy="68" r="3" fill="#4CAF50"/>
<circle cx="752" cy="270" r="3" fill="#2196F3"/>
<circle cx="752" cy="120" r="3" fill="#F44336"/>
<circle cx="752" cy="68" r="3" fill="#4CAF50"/>
<circle cx="766" cy="268" r="3" fill="#2196F3"/>
<circle cx="766" cy="123" r="3" fill="#F44336"/>
<circle cx="766" cy="71" r="3" fill="#4CAF50"/>
<circle cx="780" cy="270" r="3" fill="#2196F3"/>
<circle cx="780" cy="124" r="3" fill="#F44336"/>
<circle cx="780" cy="74" r="3" fill="#4CAF50"/>
<text x="70" y="355" text-anchor="middle" font-size="10" fill="#666">d31c3d3</text>
<text x="83" y="355" text-anchor="middle" font-size="10" fill="#666">577b0f6</text>
<text x="97" y="355" text-anchor="middle" font-size="10" fill="#666">a0e3a8f</text>
<text x="111" y="355" text-anchor="middle" font-size="10" fill="#666">32b7787</text>
<text x="125" y="355" text-anchor="middle" font-size="10" fill="#666">940e369</text>
<text x="139" y="355" text-anchor="middle" font-size="10" fill="#666">78956c1</text>
<text x="153" y="355" text-anchor="middle" font-size="10" fill="#666">1a288e9</text>
<text x="167" y="355" text-anchor="middle" font-size="10" fill="#666">f1c0746</text>
<text x="181" y="355" text-anchor="middle" font-size="10" fill="#666">efad3b5</text>
<text x="195" y="355" text-anchor="middle" font-size="10" fill="#666">d3839be</text>
<text x="209" y="355" text-anchor="middle" font-size="10" fill="#666">a0c21b2</text>
<text x="223" y="355" text-anchor="middle" font-size="10" fill="#666">c3d3d81</text>
<text x="237" y="355" text-anchor="middle" font-size="10" fill="#666">e40d897</text>
<text x="250" y="355" text-anchor="middle" font-size="10" fill="#666">0b1ed97</text>
<text x="264" y="355" text-anchor="middle" font-size="10" fill="#666">6a5ae3f</text>
<text x="278" y="355" text-anchor="middle" font-size="10" fill="#666">59cf448</text>
<text x="292" y="355" text-anchor="middle" font-size="10" fill="#666">42b3e04</text>
<text x="306" y="355" text-anchor="middle" font-size="10" fill="#666">bd9421a</text>
<text x="320" y="355" text-anchor="middle" font-size="10" fill="#666">f80812f</text>
<text x="334" y="355" text-anchor="middle" font-size="10" fill="#666">448a5fe</text>
<text x="348" y="355" text-anchor="middle" font-size="10" fill="#666">b16c1cc</text>
<text x="362" y="355" text-anchor="middle" font-size="10" fill="#666">44c334c</text>
<text x="376" y="355" text-anchor="middle" font-size="10" fill="#666">aa51d1a</text>
<text x="390" y="355" text-anchor="middle" font-size="10" fill="#666">9bee79a</text>
<text x="404" y="355" text-anchor="middle" font-size="10" fill="#666">4380346</text>
<text x="418" y="355" text-anchor="middle" font-size="10" fill="#666">2a587a9</text>
<text x="431" y="355" text-anchor="middle" font-size="10" fill="#666">efb005a</text>
<text x="445" y="355" text-anchor="middle" font-size="10" fill="#666">1c3b72e</text>
<text x="459" y="355" text-anchor="middle" font-size="10" fill="#666">ff7c733</text>
<text x="473" y="355" text-anchor="middle" font-size="10" fill="#666">962897f</text>
<text x="487" y="355" text-anchor="middle" font-size="10" fill="#666">dfec04b</text>
<text x="501" y="355" text-anchor="middle" font-size="10" fill="#666">60e18de</text>
<text x="515" y="355" text-anchor="middle" font-size="10" fill="#666">80a0d41</text>
<text x="529" y="355" text-anchor="middle" font-size="10" fill="#666">e200726</text>
<text x="543" y="355" text-anchor="middle" font-size="10" fill="#666">775a89f</text>
<text x="557" y="355" text-anchor="middle" font-size="10" fill="#666">18e45a5</text>
<text x="571" y="355" text-anchor="middle" font-size="10" fill="#666">9d60b61</text>
<text x="585" y="355" text-anchor="middle" font-size="10" fill="#666">479229b</text>
<text x="599" y="355" text-anchor="middle" font-size="10" fill="#666">39769db</text>
<text x="612" y="355" text-anchor="middle" font-size="10" fill="#666">2834756</text>
<text x="626" y="355" text-anchor="middle" font-size="10" fill="#666">3628e6d</text>
<text x="640" y="355" text-anchor="middle" font-size="10" fill="#666">daa3fc2</text>
<text x="654" y="355" text-anchor="middle" font-size="10" fill="#666">8fc41b8</text>
<text x="668" y="355" text-anchor="middle" font-size="10" fill="#666">7d63976</text>
<text x="682" y="355" text-anchor="middle" font-size="10" fill="#666">4f6a400</text>
<text x="696" y="355" text-anchor="middle" font-size="10" fill="#666">443d8b3</text>
<text x="710" y="355" text-anchor="middle" font-size="10" fill="#666">86f53df</text>
<text x="724" y="355" text-anchor="middle" font-size="10" fill="#666">d665d11</text>
<text x="738" y="355" text-anchor="middle" font-size="10" fill="#666">23f76d5</text>
<text x="752" y="355" text-anchor="middle" font-size="10" fill="#666">bc8afe6</text>
<text x="766" y="355" text-anchor="middle" font-size="10" fill="#666">ed1092f</text>
<text x="780" y="355" text-anchor="middle" font-size="10" fill="#666">058700a</text>
<circle cx="90" cy="20" r="4" fill="#2196F3"/>
<text x="98" y="24" text-anchor="start" font-size="12" fill="#2196F3">Interpreted</text>
<circle cx="200" cy="20" r="4" fill="#F44336"/>
<text x="208" y="24" text-anchor="start" font-size="12" fill="#F44336">Compiled</text>
<circle cx="300" cy="20" r="4" fill="#4CAF50"/>
<text x="308" y="24" text-anchor="start" font-size="12" fill="#4CAF50">Wall-clock</text>
</svg>
