<svg width="800" height="400" xmlns="http://www.w3.org/2000/svg">
<rect width="800" height="400" fill="white"/>
<line x1="70" y1="40" x2="70" y2="340" stroke="#333" stroke-width="1"/>
<line x1="70" y1="340" x2="730" y2="340" stroke="#333" stroke-width="1"/>
<line x1="730" y1="40" x2="730" y2="340" stroke="#333" stroke-width="1"/>
<text x="65" y="344" text-anchor="end" font-size="11" fill="#333">0</text>
<text x="65" y="194" text-anchor="end" font-size="11" fill="#333">41000</text>
<text x="65" y="44" text-anchor="end" font-size="11" fill="#333">82000</text>
<text x="15" y="190" text-anchor="middle" font-size="12" fill="#333" transform="rotate(-90 15 190)">ms</text>
<text x="735" y="344" text-anchor="start" font-size="11" fill="#333">0</text>
<text x="735" y="194" text-anchor="start" font-size="11" fill="#333">5502000000</text>
<text x="735" y="44" text-anchor="start" font-size="11" fill="#333">11004000000</text>
<text x="785" y="190" text-anchor="middle" font-size="12" fill="#333" transform="rotate(90 785 190)">bytes</text>
<polyline points="70,48 143,52 216,110 290,110 363,110 436,102 510,103 583,98 656,96 730,107" fill="none" stroke="#0072B2" stroke-width="2"/>
<polyline points="70,49 143,53 216,58 290,58 363,59 436,51 510,51 583,45 656,44 730,53" fill="none" stroke="#CC79A7" stroke-width="2"/>
<polyline points="70,339 143,339 216,339 290,339 363,339 436,339 510,339 583,339 656,339 730,339" fill="none" stroke="#D55E00" stroke-width="2"/>
<polyline points="70,157 143,158 216,160 290,157 363,158 436,159 510,157 583,159 656,159 730,159" fill="none" stroke="#009E73" stroke-width="2"/>
<polyline points="70,264 143,262 216,282 290,283 363,280 436,271 510,270 583,260 656,259 730,269" fill="none" stroke="#56B4E9" stroke-width="2"/>
<polyline points="70,206 143,206 216,215 290,215 363,215 436,202 510,203 583,190 656,190 730,202" fill="none" stroke="#E69F00" stroke-width="2"/>
<polyline points="70,340 143,340 216,340 290,340 363,340 436,340 510,340 583,340 656,340 730,340" fill="none" stroke="#C44E52" stroke-width="2"/>
<polyline points="70,61 143,60 216,88 290,89 363,86 436,65 510,64 583,41 656,41 730,63" fill="none" stroke="#000000" stroke-width="2"/>
<circle cx="70" cy="48" r="3" fill="#0072B2"/>
<circle cx="70" cy="49" r="3" fill="#CC79A7"/>
<circle cx="70" cy="339" r="3" fill="#D55E00"/>
<circle cx="70" cy="157" r="3" fill="#009E73"/>
<circle cx="70" cy="264" r="3" fill="#56B4E9"/>
<circle cx="70" cy="206" r="3" fill="#E69F00"/>
<circle cx="70" cy="340" r="3" fill="#C44E52"/>
<circle cx="70" cy="61" r="3" fill="#000000"/>
<circle cx="143" cy="52" r="3" fill="#0072B2"/>
<circle cx="143" cy="53" r="3" fill="#CC79A7"/>
<circle cx="143" cy="339" r="3" fill="#D55E00"/>
<circle cx="143" cy="158" r="3" fill="#009E73"/>
<circle cx="143" cy="262" r="3" fill="#56B4E9"/>
<circle cx="143" cy="206" r="3" fill="#E69F00"/>
<circle cx="143" cy="340" r="3" fill="#C44E52"/>
<circle cx="143" cy="60" r="3" fill="#000000"/>
<circle cx="216" cy="110" r="3" fill="#0072B2"/>
<circle cx="216" cy="58" r="3" fill="#CC79A7"/>
<circle cx="216" cy="339" r="3" fill="#D55E00"/>
<circle cx="216" cy="160" r="3" fill="#009E73"/>
<circle cx="216" cy="282" r="3" fill="#56B4E9"/>
<circle cx="216" cy="215" r="3" fill="#E69F00"/>
<circle cx="216" cy="340" r="3" fill="#C44E52"/>
<circle cx="216" cy="88" r="3" fill="#000000"/>
<circle cx="290" cy="110" r="3" fill="#0072B2"/>
<circle cx="290" cy="58" r="3" fill="#CC79A7"/>
<circle cx="290" cy="339" r="3" fill="#D55E00"/>
<circle cx="290" cy="157" r="3" fill="#009E73"/>
<circle cx="290" cy="283" r="3" fill="#56B4E9"/>
<circle cx="290" cy="215" r="3" fill="#E69F00"/>
<circle cx="290" cy="340" r="3" fill="#C44E52"/>
<circle cx="290" cy="89" r="3" fill="#000000"/>
<circle cx="363" cy="110" r="3" fill="#0072B2"/>
<circle cx="363" cy="59" r="3" fill="#CC79A7"/>
<circle cx="363" cy="339" r="3" fill="#D55E00"/>
<circle cx="363" cy="158" r="3" fill="#009E73"/>
<circle cx="363" cy="280" r="3" fill="#56B4E9"/>
<circle cx="363" cy="215" r="3" fill="#E69F00"/>
<circle cx="363" cy="340" r="3" fill="#C44E52"/>
<circle cx="363" cy="86" r="3" fill="#000000"/>
<circle cx="436" cy="102" r="3" fill="#0072B2"/>
<circle cx="436" cy="51" r="3" fill="#CC79A7"/>
<circle cx="436" cy="339" r="3" fill="#D55E00"/>
<circle cx="436" cy="159" r="3" fill="#009E73"/>
<circle cx="436" cy="271" r="3" fill="#56B4E9"/>
<circle cx="436" cy="202" r="3" fill="#E69F00"/>
<circle cx="436" cy="340" r="3" fill="#C44E52"/>
<circle cx="436" cy="65" r="3" fill="#000000"/>
<circle cx="510" cy="103" r="3" fill="#0072B2"/>
<circle cx="510" cy="51" r="3" fill="#CC79A7"/>
<circle cx="510" cy="339" r="3" fill="#D55E00"/>
<circle cx="510" cy="157" r="3" fill="#009E73"/>
<circle cx="510" cy="270" r="3" fill="#56B4E9"/>
<circle cx="510" cy="203" r="3" fill="#E69F00"/>
<circle cx="510" cy="340" r="3" fill="#C44E52"/>
<circle cx="510" cy="64" r="3" fill="#000000"/>
<circle cx="583" cy="98" r="3" fill="#0072B2"/>
<circle cx="583" cy="45" r="3" fill="#CC79A7"/>
<circle cx="583" cy="339" r="3" fill="#D55E00"/>
<circle cx="583" cy="159" r="3" fill="#009E73"/>
<circle cx="583" cy="260" r="3" fill="#56B4E9"/>
<circle cx="583" cy="190" r="3" fill="#E69F00"/>
<circle cx="583" cy="340" r="3" fill="#C44E52"/>
<circle cx="583" cy="41" r="3" fill="#000000"/>
<circle cx="656" cy="96" r="3" fill="#0072B2"/>
<circle cx="656" cy="44" r="3" fill="#CC79A7"/>
<circle cx="656" cy="339" r="3" fill="#D55E00"/>
<circle cx="656" cy="159" r="3" fill="#009E73"/>
<circle cx="656" cy="259" r="3" fill="#56B4E9"/>
<circle cx="656" cy="190" r="3" fill="#E69F00"/>
<circle cx="656" cy="340" r="3" fill="#C44E52"/>
<circle cx="656" cy="41" r="3" fill="#000000"/>
<circle cx="730" cy="107" r="3" fill="#0072B2"/>
<circle cx="730" cy="53" r="3" fill="#CC79A7"/>
<circle cx="730" cy="339" r="3" fill="#D55E00"/>
<circle cx="730" cy="159" r="3" fill="#009E73"/>
<circle cx="730" cy="269" r="3" fill="#56B4E9"/>
<circle cx="730" cy="202" r="3" fill="#E69F00"/>
<circle cx="730" cy="340" r="3" fill="#C44E52"/>
<circle cx="730" cy="63" r="3" fill="#000000"/>
<circle cx="90" cy="20" r="4" fill="#0072B2"/>
<text x="98" y="24" text-anchor="start" font-size="12" fill="#0072B2">inte</text>
<circle cx="150" cy="20" r="4" fill="#CC79A7"/>
<text x="158" y="24" text-anchor="start" font-size="12" fill="#CC79A7">comp</text>
<circle cx="215" cy="20" r="4" fill="#D55E00"/>
<text x="223" y="24" text-anchor="start" font-size="12" fill="#D55E00">run</text>
<circle cx="270" cy="20" r="4" fill="#009E73"/>
<text x="278" y="24" text-anchor="start" font-size="12" fill="#009E73">wall</text>
<circle cx="335" cy="20" r="4" fill="#56B4E9"/>
<text x="343" y="24" text-anchor="start" font-size="12" fill="#56B4E9">mem-inte</text>
<circle cx="425" cy="20" r="4" fill="#E69F00"/>
<text x="433" y="24" text-anchor="start" font-size="12" fill="#E69F00">mem-comp</text>
<circle cx="520" cy="20" r="4" fill="#C44E52"/>
<text x="528" y="24" text-anchor="start" font-size="12" fill="#C44E52">mem-run</text>
<circle cx="605" cy="20" r="4" fill="#000000"/>
<text x="613" y="24" text-anchor="start" font-size="12" fill="#000000">mem-total</text>
</svg>
