<svg width="800" height="400" xmlns="http://www.w3.org/2000/svg">
<rect width="800" height="400" fill="white"/>
<line x1="70" y1="40" x2="70" y2="340" stroke="#333" stroke-width="1"/>
<line x1="70" y1="340" x2="730" y2="340" stroke="#333" stroke-width="1"/>
<line x1="730" y1="40" x2="730" y2="340" stroke="#333" stroke-width="1"/>
<text x="65" y="344" text-anchor="end" font-size="11" fill="#333">0</text>
<text x="65" y="194" text-anchor="end" font-size="11" fill="#333">104000</text>
<text x="65" y="44" text-anchor="end" font-size="11" fill="#333">208000</text>
<text x="15" y="190" text-anchor="middle" font-size="12" fill="#333" transform="rotate(-90 15 190)">ms</text>
<text x="735" y="344" text-anchor="start" font-size="11" fill="#333">0</text>
<text x="735" y="194" text-anchor="start" font-size="11" fill="#333">6311000000</text>
<text x="735" y="44" text-anchor="start" font-size="11" fill="#333">12622000000</text>
<text x="785" y="190" text-anchor="middle" font-size="12" fill="#333" transform="rotate(90 785 190)">bytes</text>
<polyline points="70,160 143,168 216,157 290,152 363,156 436,177 510,205 583,183 656,170 730,117" fill="none" stroke="#0072B2" stroke-width="2"/>
<polyline points="70,103 143,116 216,101 290,91 363,100 436,110 510,145 583,129 656,120 730,42" fill="none" stroke="#CC79A7" stroke-width="2"/>
<polyline points="70,340 143,340 216,340 290,340 363,340 436,339 510,339 583,340 656,339 730,339" fill="none" stroke="#D55E00" stroke-width="2"/>
<polyline points="70,288 143,291 216,288 290,286 363,288 436,291 510,298 583,294 656,291 730,275" fill="none" stroke="#009E73" stroke-width="2"/>
<polyline points="70,279 143,276 216,275 290,278 363,278 436,277 510,277 583,277 656,278 730,278" fill="none" stroke="#56B4E9" stroke-width="2"/>
<polyline points="70,216 143,212 216,212 290,216 363,215 436,214 510,214 583,214 656,214 730,214" fill="none" stroke="#E69F00" stroke-width="2"/>
<polyline points="70,338 143,338 216,338 290,338 363,338 436,337 510,337 583,338 656,338 730,336" fill="none" stroke="#C44E52" stroke-width="2"/>
<polyline points="70,65 143,64 216,52 290,43 363,43 436,41 510,64 583,42 656,73 730,65" fill="none" stroke="#000000" stroke-width="2"/>
<circle cx="70" cy="160" r="3" fill="#0072B2"/>
<circle cx="70" cy="103" r="3" fill="#CC79A7"/>
<circle cx="70" cy="340" r="3" fill="#D55E00"/>
<circle cx="70" cy="288" r="3" fill="#009E73"/>
<circle cx="70" cy="279" r="3" fill="#56B4E9"/>
<circle cx="70" cy="216" r="3" fill="#E69F00"/>
<circle cx="70" cy="338" r="3" fill="#C44E52"/>
<circle cx="70" cy="65" r="3" fill="#000000"/>
<circle cx="143" cy="168" r="3" fill="#0072B2"/>
<circle cx="143" cy="116" r="3" fill="#CC79A7"/>
<circle cx="143" cy="340" r="3" fill="#D55E00"/>
<circle cx="143" cy="291" r="3" fill="#009E73"/>
<circle cx="143" cy="276" r="3" fill="#56B4E9"/>
<circle cx="143" cy="212" r="3" fill="#E69F00"/>
<circle cx="143" cy="338" r="3" fill="#C44E52"/>
<circle cx="143" cy="64" r="3" fill="#000000"/>
<circle cx="216" cy="157" r="3" fill="#0072B2"/>
<circle cx="216" cy="101" r="3" fill="#CC79A7"/>
<circle cx="216" cy="340" r="3" fill="#D55E00"/>
<circle cx="216" cy="288" r="3" fill="#009E73"/>
<circle cx="216" cy="275" r="3" fill="#56B4E9"/>
<circle cx="216" cy="212" r="3" fill="#E69F00"/>
<circle cx="216" cy="338" r="3" fill="#C44E52"/>
<circle cx="216" cy="52" r="3" fill="#000000"/>
<circle cx="290" cy="152" r="3" fill="#0072B2"/>
<circle cx="290" cy="91" r="3" fill="#CC79A7"/>
<circle cx="290" cy="340" r="3" fill="#D55E00"/>
<circle cx="290" cy="286" r="3" fill="#009E73"/>
<circle cx="290" cy="278" r="3" fill="#56B4E9"/>
<circle cx="290" cy="216" r="3" fill="#E69F00"/>
<circle cx="290" cy="338" r="3" fill="#C44E52"/>
<circle cx="290" cy="43" r="3" fill="#000000"/>
<circle cx="363" cy="156" r="3" fill="#0072B2"/>
<circle cx="363" cy="100" r="3" fill="#CC79A7"/>
<circle cx="363" cy="340" r="3" fill="#D55E00"/>
<circle cx="363" cy="288" r="3" fill="#009E73"/>
<circle cx="363" cy="278" r="3" fill="#56B4E9"/>
<circle cx="363" cy="215" r="3" fill="#E69F00"/>
<circle cx="363" cy="338" r="3" fill="#C44E52"/>
<circle cx="363" cy="43" r="3" fill="#000000"/>
<circle cx="436" cy="177" r="3" fill="#0072B2"/>
<circle cx="436" cy="110" r="3" fill="#CC79A7"/>
<circle cx="436" cy="339" r="3" fill="#D55E00"/>
<circle cx="436" cy="291" r="3" fill="#009E73"/>
<circle cx="436" cy="277" r="3" fill="#56B4E9"/>
<circle cx="436" cy="214" r="3" fill="#E69F00"/>
<circle cx="436" cy="337" r="3" fill="#C44E52"/>
<circle cx="436" cy="41" r="3" fill="#000000"/>
<circle cx="510" cy="205" r="3" fill="#0072B2"/>
<circle cx="510" cy="145" r="3" fill="#CC79A7"/>
<circle cx="510" cy="339" r="3" fill="#D55E00"/>
<circle cx="510" cy="298" r="3" fill="#009E73"/>
<circle cx="510" cy="277" r="3" fill="#56B4E9"/>
<circle cx="510" cy="214" r="3" fill="#E69F00"/>
<circle cx="510" cy="337" r="3" fill="#C44E52"/>
<circle cx="510" cy="64" r="3" fill="#000000"/>
<circle cx="583" cy="183" r="3" fill="#0072B2"/>
<circle cx="583" cy="129" r="3" fill="#CC79A7"/>
<circle cx="583" cy="340" r="3" fill="#D55E00"/>
<circle cx="583" cy="294" r="3" fill="#009E73"/>
<circle cx="583" cy="277" r="3" fill="#56B4E9"/>
<circle cx="583" cy="214" r="3" fill="#E69F00"/>
<circle cx="583" cy="338" r="3" fill="#C44E52"/>
<circle cx="583" cy="42" r="3" fill="#000000"/>
<circle cx="656" cy="170" r="3" fill="#0072B2"/>
<circle cx="656" cy="120" r="3" fill="#CC79A7"/>
<circle cx="656" cy="339" r="3" fill="#D55E00"/>
<circle cx="656" cy="291" r="3" fill="#009E73"/>
<circle cx="656" cy="278" r="3" fill="#56B4E9"/>
<circle cx="656" cy="214" r="3" fill="#E69F00"/>
<circle cx="656" cy="338" r="3" fill="#C44E52"/>
<circle cx="656" cy="73" r="3" fill="#000000"/>
<circle cx="730" cy="117" r="3" fill="#0072B2"/>
<circle cx="730" cy="42" r="3" fill="#CC79A7"/>
<circle cx="730" cy="339" r="3" fill="#D55E00"/>
<circle cx="730" cy="275" r="3" fill="#009E73"/>
<circle cx="730" cy="278" r="3" fill="#56B4E9"/>
<circle cx="730" cy="214" r="3" fill="#E69F00"/>
<circle cx="730" cy="336" r="3" fill="#C44E52"/>
<circle cx="730" cy="65" r="3" fill="#000000"/>
<circle cx="90" cy="20" r="4" fill="#0072B2"/>
<text x="98" y="24" text-anchor="start" font-size="12" fill="#0072B2">inte</text>
<circle cx="150" cy="20" r="4" fill="#CC79A7"/>
<text x="158" y="24" text-anchor="start" font-size="12" fill="#CC79A7">comp</text>
<circle cx="215" cy="20" r="4" fill="#D55E00"/>
<text x="223" y="24" text-anchor="start" font-size="12" fill="#D55E00">run</text>
<circle cx="270" cy="20" r="4" fill="#009E73"/>
<text x="278" y="24" text-anchor="start" font-size="12" fill="#009E73">wall</text>
<circle cx="335" cy="20" r="4" fill="#56B4E9"/>
<text x="343" y="24" text-anchor="start" font-size="12" fill="#56B4E9">mem-inte</text>
<circle cx="425" cy="20" r="4" fill="#E69F00"/>
<text x="433" y="24" text-anchor="start" font-size="12" fill="#E69F00">mem-comp</text>
<circle cx="520" cy="20" r="4" fill="#C44E52"/>
<text x="528" y="24" text-anchor="start" font-size="12" fill="#C44E52">mem-run</text>
<circle cx="605" cy="20" r="4" fill="#000000"/>
<text x="613" y="24" text-anchor="start" font-size="12" fill="#000000">mem-total</text>
</svg>
