<svg width="800" height="400" xmlns="http://www.w3.org/2000/svg">
<rect width="800" height="400" fill="white"/>
<line x1="70" y1="40" x2="70" y2="340" stroke="#333" stroke-width="1"/>
<line x1="70" y1="340" x2="730" y2="340" stroke="#333" stroke-width="1"/>
<line x1="730" y1="40" x2="730" y2="340" stroke="#333" stroke-width="1"/>
<text x="65" y="344" text-anchor="end" font-size="11" fill="#333">0</text>
<text x="65" y="194" text-anchor="end" font-size="11" fill="#333">124500</text>
<text x="65" y="44" text-anchor="end" font-size="11" fill="#333">249000</text>
<text x="15" y="190" text-anchor="middle" font-size="12" fill="#333" transform="rotate(-90 15 190)">ms</text>
<text x="735" y="344" text-anchor="start" font-size="11" fill="#333">0</text>
<text x="735" y="194" text-anchor="start" font-size="11" fill="#333">10023500000</text>
<text x="735" y="44" text-anchor="start" font-size="11" fill="#333">20047000000</text>
<text x="785" y="190" text-anchor="middle" font-size="12" fill="#333" transform="rotate(90 785 190)">bytes</text>
<polyline points="70,112 143,188 216,159 290,155 363,116 436,131 510,193 583,187 656,185 730,186" fill="none" stroke="#0072B2" stroke-width="2"/>
<polyline points="70,52 143,146 216,119 290,111 363,41 436,62 510,147 583,143 656,134 730,144" fill="none" stroke="#CC79A7" stroke-width="2"/>
<polyline points="70,339 143,340 216,340 290,339 363,339 436,339 510,340 583,340 656,340 730,340" fill="none" stroke="#D55E00" stroke-width="2"/>
<polyline points="70,277 143,298 216,291 290,291 363,274 436,283 510,299 583,298 656,297 730,297" fill="none" stroke="#009E73" stroke-width="2"/>
<polyline points="70,230 143,231 216,230 290,231 363,230 436,233 510,230 583,229 656,229 730,227" fill="none" stroke="#56B4E9" stroke-width="2"/>
<polyline points="70,226 143,225 216,226 290,227 363,225 436,226 510,226 583,225 656,224 730,223" fill="none" stroke="#E69F00" stroke-width="2"/>
<polyline points="70,337 143,339 216,339 290,338 363,338 436,338 510,339 583,339 656,339 730,339" fill="none" stroke="#C44E52" stroke-width="2"/>
<polyline points="70,55 143,58 216,61 290,63 363,57 436,61 510,57 583,62 656,56 730,41" fill="none" stroke="#000000" stroke-width="2"/>
<circle cx="70" cy="112" r="3" fill="#0072B2"/>
<circle cx="70" cy="52" r="3" fill="#CC79A7"/>
<circle cx="70" cy="339" r="3" fill="#D55E00"/>
<circle cx="70" cy="277" r="3" fill="#009E73"/>
<circle cx="70" cy="230" r="3" fill="#56B4E9"/>
<circle cx="70" cy="226" r="3" fill="#E69F00"/>
<circle cx="70" cy="337" r="3" fill="#C44E52"/>
<circle cx="70" cy="55" r="3" fill="#000000"/>
<circle cx="143" cy="188" r="3" fill="#0072B2"/>
<circle cx="143" cy="146" r="3" fill="#CC79A7"/>
<circle cx="143" cy="340" r="3" fill="#D55E00"/>
<circle cx="143" cy="298" r="3" fill="#009E73"/>
<circle cx="143" cy="231" r="3" fill="#56B4E9"/>
<circle cx="143" cy="225" r="3" fill="#E69F00"/>
<circle cx="143" cy="339" r="3" fill="#C44E52"/>
<circle cx="143" cy="58" r="3" fill="#000000"/>
<circle cx="216" cy="159" r="3" fill="#0072B2"/>
<circle cx="216" cy="119" r="3" fill="#CC79A7"/>
<circle cx="216" cy="340" r="3" fill="#D55E00"/>
<circle cx="216" cy="291" r="3" fill="#009E73"/>
<circle cx="216" cy="230" r="3" fill="#56B4E9"/>
<circle cx="216" cy="226" r="3" fill="#E69F00"/>
<circle cx="216" cy="339" r="3" fill="#C44E52"/>
<circle cx="216" cy="61" r="3" fill="#000000"/>
<circle cx="290" cy="155" r="3" fill="#0072B2"/>
<circle cx="290" cy="111" r="3" fill="#CC79A7"/>
<circle cx="290" cy="339" r="3" fill="#D55E00"/>
<circle cx="290" cy="291" r="3" fill="#009E73"/>
<circle cx="290" cy="231" r="3" fill="#56B4E9"/>
<circle cx="290" cy="227" r="3" fill="#E69F00"/>
<circle cx="290" cy="338" r="3" fill="#C44E52"/>
<circle cx="290" cy="63" r="3" fill="#000000"/>
<circle cx="363" cy="116" r="3" fill="#0072B2"/>
<circle cx="363" cy="41" r="3" fill="#CC79A7"/>
<circle cx="363" cy="339" r="3" fill="#D55E00"/>
<circle cx="363" cy="274" r="3" fill="#009E73"/>
<circle cx="363" cy="230" r="3" fill="#56B4E9"/>
<circle cx="363" cy="225" r="3" fill="#E69F00"/>
<circle cx="363" cy="338" r="3" fill="#C44E52"/>
<circle cx="363" cy="57" r="3" fill="#000000"/>
<circle cx="436" cy="131" r="3" fill="#0072B2"/>
<circle cx="436" cy="62" r="3" fill="#CC79A7"/>
<circle cx="436" cy="339" r="3" fill="#D55E00"/>
<circle cx="436" cy="283" r="3" fill="#009E73"/>
<circle cx="436" cy="233" r="3" fill="#56B4E9"/>
<circle cx="436" cy="226" r="3" fill="#E69F00"/>
<circle cx="436" cy="338" r="3" fill="#C44E52"/>
<circle cx="436" cy="61" r="3" fill="#000000"/>
<circle cx="510" cy="193" r="3" fill="#0072B2"/>
<circle cx="510" cy="147" r="3" fill="#CC79A7"/>
<circle cx="510" cy="340" r="3" fill="#D55E00"/>
<circle cx="510" cy="299" r="3" fill="#009E73"/>
<circle cx="510" cy="230" r="3" fill="#56B4E9"/>
<circle cx="510" cy="226" r="3" fill="#E69F00"/>
<circle cx="510" cy="339" r="3" fill="#C44E52"/>
<circle cx="510" cy="57" r="3" fill="#000000"/>
<circle cx="583" cy="187" r="3" fill="#0072B2"/>
<circle cx="583" cy="143" r="3" fill="#CC79A7"/>
<circle cx="583" cy="340" r="3" fill="#D55E00"/>
<circle cx="583" cy="298" r="3" fill="#009E73"/>
<circle cx="583" cy="229" r="3" fill="#56B4E9"/>
<circle cx="583" cy="225" r="3" fill="#E69F00"/>
<circle cx="583" cy="339" r="3" fill="#C44E52"/>
<circle cx="583" cy="62" r="3" fill="#000000"/>
<circle cx="656" cy="185" r="3" fill="#0072B2"/>
<circle cx="656" cy="134" r="3" fill="#CC79A7"/>
<circle cx="656" cy="340" r="3" fill="#D55E00"/>
<circle cx="656" cy="297" r="3" fill="#009E73"/>
<circle cx="656" cy="229" r="3" fill="#56B4E9"/>
<circle cx="656" cy="224" r="3" fill="#E69F00"/>
<circle cx="656" cy="339" r="3" fill="#C44E52"/>
<circle cx="656" cy="56" r="3" fill="#000000"/>
<circle cx="730" cy="186" r="3" fill="#0072B2"/>
<circle cx="730" cy="144" r="3" fill="#CC79A7"/>
<circle cx="730" cy="340" r="3" fill="#D55E00"/>
<circle cx="730" cy="297" r="3" fill="#009E73"/>
<circle cx="730" cy="227" r="3" fill="#56B4E9"/>
<circle cx="730" cy="223" r="3" fill="#E69F00"/>
<circle cx="730" cy="339" r="3" fill="#C44E52"/>
<circle cx="730" cy="41" r="3" fill="#000000"/>
<circle cx="90" cy="20" r="4" fill="#0072B2"/>
<text x="98" y="24" text-anchor="start" font-size="12" fill="#0072B2">inte</text>
<circle cx="150" cy="20" r="4" fill="#CC79A7"/>
<text x="158" y="24" text-anchor="start" font-size="12" fill="#CC79A7">comp</text>
<circle cx="215" cy="20" r="4" fill="#D55E00"/>
<text x="223" y="24" text-anchor="start" font-size="12" fill="#D55E00">run</text>
<circle cx="270" cy="20" r="4" fill="#009E73"/>
<text x="278" y="24" text-anchor="start" font-size="12" fill="#009E73">wall</text>
<circle cx="335" cy="20" r="4" fill="#56B4E9"/>
<text x="343" y="24" text-anchor="start" font-size="12" fill="#56B4E9">mem-inte</text>
<circle cx="425" cy="20" r="4" fill="#E69F00"/>
<text x="433" y="24" text-anchor="start" font-size="12" fill="#E69F00">mem-comp</text>
<circle cx="520" cy="20" r="4" fill="#C44E52"/>
<text x="528" y="24" text-anchor="start" font-size="12" fill="#C44E52">mem-run</text>
<circle cx="605" cy="20" r="4" fill="#000000"/>
<text x="613" y="24" text-anchor="start" font-size="12" fill="#000000">mem-total</text>
</svg>
