<svg width="800" height="400" xmlns="http://www.w3.org/2000/svg">
<rect width="800" height="400" fill="white"/>
<line x1="70" y1="40" x2="70" y2="340" stroke="#333" stroke-width="1"/>
<line x1="70" y1="340" x2="780" y2="340" stroke="#333" stroke-width="1"/>
<text x="65" y="344" text-anchor="end" font-size="11" fill="#333">0</text>
<text x="65" y="194" text-anchor="end" font-size="11" fill="#333">63000</text>
<text x="65" y="44" text-anchor="end" font-size="11" fill="#333">126000</text>
<text x="15" y="190" text-anchor="middle" font-size="12" fill="#333" transform="rotate(-90 15 190)">ms</text>
<polyline points="70,47 148,43 227,45 306,46 385,48 464,42 543,45 622,42 701,52 780,51" fill="none" stroke="#0072B2" stroke-width="2"/>
<polyline points="70,241 148,240 227,240 306,241 385,241 464,241 543,241 622,242 701,242 780,243" fill="none" stroke="#D55E00" stroke-width="2"/>
<polyline points="70,69 148,66 227,68 306,70 385,71 464,75 543,75 622,70 701,66 780,67" fill="none" stroke="#CC79A7" stroke-width="2"/>
<polyline points="70,244 148,243 227,243 306,244 385,246 464,245 543,245 622,245 701,246 780,245" fill="none" stroke="#E69F00" stroke-width="2"/>
<polyline points="70,129 148,125 227,128 306,126 385,129 464,127 543,131 622,125 701,131 780,129" fill="none" stroke="#009E73" stroke-width="2"/>
<circle cx="70" cy="47" r="3" fill="#0072B2"/>
<circle cx="70" cy="241" r="3" fill="#D55E00"/>
<circle cx="70" cy="69" r="3" fill="#CC79A7"/>
<circle cx="70" cy="244" r="3" fill="#E69F00"/>
<circle cx="70" cy="129" r="3" fill="#009E73"/>
<circle cx="148" cy="43" r="3" fill="#0072B2"/>
<circle cx="148" cy="240" r="3" fill="#D55E00"/>
<circle cx="148" cy="66" r="3" fill="#CC79A7"/>
<circle cx="148" cy="243" r="3" fill="#E69F00"/>
<circle cx="148" cy="125" r="3" fill="#009E73"/>
<circle cx="227" cy="45" r="3" fill="#0072B2"/>
<circle cx="227" cy="240" r="3" fill="#D55E00"/>
<circle cx="227" cy="68" r="3" fill="#CC79A7"/>
<circle cx="227" cy="243" r="3" fill="#E69F00"/>
<circle cx="227" cy="128" r="3" fill="#009E73"/>
<circle cx="306" cy="46" r="3" fill="#0072B2"/>
<circle cx="306" cy="241" r="3" fill="#D55E00"/>
<circle cx="306" cy="70" r="3" fill="#CC79A7"/>
<circle cx="306" cy="244" r="3" fill="#E69F00"/>
<circle cx="306" cy="126" r="3" fill="#009E73"/>
<circle cx="385" cy="48" r="3" fill="#0072B2"/>
<circle cx="385" cy="241" r="3" fill="#D55E00"/>
<circle cx="385" cy="71" r="3" fill="#CC79A7"/>
<circle cx="385" cy="246" r="3" fill="#E69F00"/>
<circle cx="385" cy="129" r="3" fill="#009E73"/>
<circle cx="464" cy="42" r="3" fill="#0072B2"/>
<circle cx="464" cy="241" r="3" fill="#D55E00"/>
<circle cx="464" cy="75" r="3" fill="#CC79A7"/>
<circle cx="464" cy="245" r="3" fill="#E69F00"/>
<circle cx="464" cy="127" r="3" fill="#009E73"/>
<circle cx="543" cy="45" r="3" fill="#0072B2"/>
<circle cx="543" cy="241" r="3" fill="#D55E00"/>
<circle cx="543" cy="75" r="3" fill="#CC79A7"/>
<circle cx="543" cy="245" r="3" fill="#E69F00"/>
<circle cx="543" cy="131" r="3" fill="#009E73"/>
<circle cx="622" cy="42" r="3" fill="#0072B2"/>
<circle cx="622" cy="242" r="3" fill="#D55E00"/>
<circle cx="622" cy="70" r="3" fill="#CC79A7"/>
<circle cx="622" cy="245" r="3" fill="#E69F00"/>
<circle cx="622" cy="125" r="3" fill="#009E73"/>
<circle cx="701" cy="52" r="3" fill="#0072B2"/>
<circle cx="701" cy="242" r="3" fill="#D55E00"/>
<circle cx="701" cy="66" r="3" fill="#CC79A7"/>
<circle cx="701" cy="246" r="3" fill="#E69F00"/>
<circle cx="701" cy="131" r="3" fill="#009E73"/>
<circle cx="780" cy="51" r="3" fill="#0072B2"/>
<circle cx="780" cy="243" r="3" fill="#D55E00"/>
<circle cx="780" cy="67" r="3" fill="#CC79A7"/>
<circle cx="780" cy="245" r="3" fill="#E69F00"/>
<circle cx="780" cy="129" r="3" fill="#009E73"/>
<circle cx="90" cy="20" r="4" fill="#0072B2"/>
<text x="98" y="24" text-anchor="start" font-size="12" fill="#0072B2">ctil-i</text>
<circle cx="160" cy="20" r="4" fill="#D55E00"/>
<text x="168" y="24" text-anchor="start" font-size="12" fill="#D55E00">ctil-r</text>
<circle cx="230" cy="20" r="4" fill="#CC79A7"/>
<text x="238" y="24" text-anchor="start" font-size="12" fill="#CC79A7">til-i</text>
<circle cx="290" cy="20" r="4" fill="#E69F00"/>
<text x="298" y="24" text-anchor="start" font-size="12" fill="#E69F00">til-r</text>
<circle cx="350" cy="20" r="4" fill="#009E73"/>
<text x="358" y="24" text-anchor="start" font-size="12" fill="#009E73">Wall</text>
</svg>
