<svg width="800" height="400" xmlns="http://www.w3.org/2000/svg">
<rect width="800" height="400" fill="white"/>
<line x1="70" y1="40" x2="70" y2="340" stroke="#333" stroke-width="1"/>
<line x1="70" y1="340" x2="730" y2="340" stroke="#333" stroke-width="1"/>
<line x1="730" y1="40" x2="730" y2="340" stroke="#333" stroke-width="1"/>
<text x="65" y="344" text-anchor="end" font-size="11" fill="#333">0</text>
<text x="65" y="194" text-anchor="end" font-size="11" fill="#333">434000</text>
<text x="65" y="44" text-anchor="end" font-size="11" fill="#333">868000</text>
<text x="15" y="190" text-anchor="middle" font-size="12" fill="#333" transform="rotate(-90 15 190)">ms</text>
<text x="735" y="344" text-anchor="start" font-size="11" fill="#333">0</text>
<text x="735" y="194" text-anchor="start" font-size="11" fill="#333">4947000000</text>
<text x="735" y="44" text-anchor="start" font-size="11" fill="#333">9894000000</text>
<text x="785" y="190" text-anchor="middle" font-size="12" fill="#333" transform="rotate(90 785 190)">bytes</text>
<polyline points="70,154 143,183 216,159 290,93 363,153 436,154 510,100 583,79 656,141 730,150" fill="none" stroke="#0072B2" stroke-width="2"/>
<polyline points="70,133 143,147 216,137 290,83 363,127 436,134 510,79 583,41 656,128 730,144" fill="none" stroke="#CC79A7" stroke-width="2"/>
<polyline points="70,340 143,340 216,340 290,340 363,340 436,340 510,340 583,340 656,340 730,340" fill="none" stroke="#D55E00" stroke-width="2"/>
<polyline points="70,279 143,285 216,278 290,262 363,276 436,277 510,262 583,255 656,276 730,279" fill="none" stroke="#009E73" stroke-width="2"/>
<polyline points="70,289 143,289 216,272 290,272 363,272 436,271 510,271 583,271 656,271 730,271" fill="none" stroke="#56B4E9" stroke-width="2"/>
<polyline points="70,223 143,223 216,205 290,205 363,205 436,204 510,204 583,203 656,204 730,204" fill="none" stroke="#E69F00" stroke-width="2"/>
<polyline points="70,340 143,340 216,340 290,340 363,340 436,340 510,340 583,340 656,340 730,340" fill="none" stroke="#C44E52" stroke-width="2"/>
<polyline points="70,80 143,80 216,44 290,44 363,44 436,42 510,41 583,41 656,42 730,41" fill="none" stroke="#000000" stroke-width="2"/>
<circle cx="70" cy="154" r="3" fill="#0072B2"/>
<circle cx="70" cy="133" r="3" fill="#CC79A7"/>
<circle cx="70" cy="340" r="3" fill="#D55E00"/>
<circle cx="70" cy="279" r="3" fill="#009E73"/>
<circle cx="70" cy="289" r="3" fill="#56B4E9"/>
<circle cx="70" cy="223" r="3" fill="#E69F00"/>
<circle cx="70" cy="340" r="3" fill="#C44E52"/>
<circle cx="70" cy="80" r="3" fill="#000000"/>
<circle cx="143" cy="183" r="3" fill="#0072B2"/>
<circle cx="143" cy="147" r="3" fill="#CC79A7"/>
<circle cx="143" cy="340" r="3" fill="#D55E00"/>
<circle cx="143" cy="285" r="3" fill="#009E73"/>
<circle cx="143" cy="289" r="3" fill="#56B4E9"/>
<circle cx="143" cy="223" r="3" fill="#E69F00"/>
<circle cx="143" cy="340" r="3" fill="#C44E52"/>
<circle cx="143" cy="80" r="3" fill="#000000"/>
<circle cx="216" cy="159" r="3" fill="#0072B2"/>
<circle cx="216" cy="137" r="3" fill="#CC79A7"/>
<circle cx="216" cy="340" r="3" fill="#D55E00"/>
<circle cx="216" cy="278" r="3" fill="#009E73"/>
<circle cx="216" cy="272" r="3" fill="#56B4E9"/>
<circle cx="216" cy="205" r="3" fill="#E69F00"/>
<circle cx="216" cy="340" r="3" fill="#C44E52"/>
<circle cx="216" cy="44" r="3" fill="#000000"/>
<circle cx="290" cy="93" r="3" fill="#0072B2"/>
<circle cx="290" cy="83" r="3" fill="#CC79A7"/>
<circle cx="290" cy="340" r="3" fill="#D55E00"/>
<circle cx="290" cy="262" r="3" fill="#009E73"/>
<circle cx="290" cy="272" r="3" fill="#56B4E9"/>
<circle cx="290" cy="205" r="3" fill="#E69F00"/>
<circle cx="290" cy="340" r="3" fill="#C44E52"/>
<circle cx="290" cy="44" r="3" fill="#000000"/>
<circle cx="363" cy="153" r="3" fill="#0072B2"/>
<circle cx="363" cy="127" r="3" fill="#CC79A7"/>
<circle cx="363" cy="340" r="3" fill="#D55E00"/>
<circle cx="363" cy="276" r="3" fill="#009E73"/>
<circle cx="363" cy="272" r="3" fill="#56B4E9"/>
<circle cx="363" cy="205" r="3" fill="#E69F00"/>
<circle cx="363" cy="340" r="3" fill="#C44E52"/>
<circle cx="363" cy="44" r="3" fill="#000000"/>
<circle cx="436" cy="154" r="3" fill="#0072B2"/>
<circle cx="436" cy="134" r="3" fill="#CC79A7"/>
<circle cx="436" cy="340" r="3" fill="#D55E00"/>
<circle cx="436" cy="277" r="3" fill="#009E73"/>
<circle cx="436" cy="271" r="3" fill="#56B4E9"/>
<circle cx="436" cy="204" r="3" fill="#E69F00"/>
<circle cx="436" cy="340" r="3" fill="#C44E52"/>
<circle cx="436" cy="42" r="3" fill="#000000"/>
<circle cx="510" cy="100" r="3" fill="#0072B2"/>
<circle cx="510" cy="79" r="3" fill="#CC79A7"/>
<circle cx="510" cy="340" r="3" fill="#D55E00"/>
<circle cx="510" cy="262" r="3" fill="#009E73"/>
<circle cx="510" cy="271" r="3" fill="#56B4E9"/>
<circle cx="510" cy="204" r="3" fill="#E69F00"/>
<circle cx="510" cy="340" r="3" fill="#C44E52"/>
<circle cx="510" cy="41" r="3" fill="#000000"/>
<circle cx="583" cy="79" r="3" fill="#0072B2"/>
<circle cx="583" cy="41" r="3" fill="#CC79A7"/>
<circle cx="583" cy="340" r="3" fill="#D55E00"/>
<circle cx="583" cy="255" r="3" fill="#009E73"/>
<circle cx="583" cy="271" r="3" fill="#56B4E9"/>
<circle cx="583" cy="203" r="3" fill="#E69F00"/>
<circle cx="583" cy="340" r="3" fill="#C44E52"/>
<circle cx="583" cy="41" r="3" fill="#000000"/>
<circle cx="656" cy="141" r="3" fill="#0072B2"/>
<circle cx="656" cy="128" r="3" fill="#CC79A7"/>
<circle cx="656" cy="340" r="3" fill="#D55E00"/>
<circle cx="656" cy="276" r="3" fill="#009E73"/>
<circle cx="656" cy="271" r="3" fill="#56B4E9"/>
<circle cx="656" cy="204" r="3" fill="#E69F00"/>
<circle cx="656" cy="340" r="3" fill="#C44E52"/>
<circle cx="656" cy="42" r="3" fill="#000000"/>
<circle cx="730" cy="150" r="3" fill="#0072B2"/>
<circle cx="730" cy="144" r="3" fill="#CC79A7"/>
<circle cx="730" cy="340" r="3" fill="#D55E00"/>
<circle cx="730" cy="279" r="3" fill="#009E73"/>
<circle cx="730" cy="271" r="3" fill="#56B4E9"/>
<circle cx="730" cy="204" r="3" fill="#E69F00"/>
<circle cx="730" cy="340" r="3" fill="#C44E52"/>
<circle cx="730" cy="41" r="3" fill="#000000"/>
<circle cx="90" cy="20" r="4" fill="#0072B2"/>
<text x="98" y="24" text-anchor="start" font-size="12" fill="#0072B2">inte</text>
<circle cx="150" cy="20" r="4" fill="#CC79A7"/>
<text x="158" y="24" text-anchor="start" font-size="12" fill="#CC79A7">comp</text>
<circle cx="215" cy="20" r="4" fill="#D55E00"/>
<text x="223" y="24" text-anchor="start" font-size="12" fill="#D55E00">run</text>
<circle cx="270" cy="20" r="4" fill="#009E73"/>
<text x="278" y="24" text-anchor="start" font-size="12" fill="#009E73">wall</text>
<circle cx="335" cy="20" r="4" fill="#56B4E9"/>
<text x="343" y="24" text-anchor="start" font-size="12" fill="#56B4E9">mem-inte</text>
<circle cx="425" cy="20" r="4" fill="#E69F00"/>
<text x="433" y="24" text-anchor="start" font-size="12" fill="#E69F00">mem-comp</text>
<circle cx="520" cy="20" r="4" fill="#C44E52"/>
<text x="528" y="24" text-anchor="start" font-size="12" fill="#C44E52">mem-run</text>
<circle cx="605" cy="20" r="4" fill="#000000"/>
<text x="613" y="24" text-anchor="start" font-size="12" fill="#000000">mem-total</text>
</svg>
