<svg width="800" height="400" xmlns="http://www.w3.org/2000/svg">
<rect width="800" height="400" fill="white"/>
<line x1="70" y1="40" x2="70" y2="340" stroke="#333" stroke-width="1"/>
<line x1="70" y1="340" x2="730" y2="340" stroke="#333" stroke-width="1"/>
<line x1="730" y1="40" x2="730" y2="340" stroke="#333" stroke-width="1"/>
<text x="65" y="344" text-anchor="end" font-size="11" fill="#333">0</text>
<text x="65" y="194" text-anchor="end" font-size="11" fill="#333">190000</text>
<text x="65" y="44" text-anchor="end" font-size="11" fill="#333">380000</text>
<text x="15" y="190" text-anchor="middle" font-size="12" fill="#333" transform="rotate(-90 15 190)">ms</text>
<text x="735" y="344" text-anchor="start" font-size="11" fill="#333">0</text>
<text x="735" y="194" text-anchor="start" font-size="11" fill="#333">8684000000</text>
<text x="735" y="44" text-anchor="start" font-size="11" fill="#333">17368000000</text>
<text x="785" y="190" text-anchor="middle" font-size="12" fill="#333" transform="rotate(90 785 190)">bytes</text>
<polyline points="70,71 143,69 216,71 290,58 363,52 436,52 510,47 583,47 656,41 730,42" fill="none" stroke="#0072B2" stroke-width="2"/>
<polyline points="70,127 143,124 216,125 290,112 363,106 436,107 510,106 583,105 656,101 730,99" fill="none" stroke="#CC79A7" stroke-width="2"/>
<polyline points="70,340 143,340 216,340 290,340 363,340 436,340 510,340 583,340 656,340 730,340" fill="none" stroke="#D55E00" stroke-width="2"/>
<polyline points="70,300 143,299 216,300 290,299 363,299 436,299 510,298 583,299 656,298 730,298" fill="none" stroke="#009E73" stroke-width="2"/>
<polyline points="70,294 143,293 216,293 290,291 363,291 436,291 510,291 583,290 656,290 730,290" fill="none" stroke="#56B4E9" stroke-width="2"/>
<polyline points="70,217 143,214 216,215 290,207 363,207 436,208 510,207 583,205 656,205 730,205" fill="none" stroke="#E69F00" stroke-width="2"/>
<polyline points="70,339 143,339 216,339 290,338 363,338 436,336 510,337 583,337 656,337 730,335" fill="none" stroke="#C44E52" stroke-width="2"/>
<polyline points="70,60 143,57 216,57 290,46 363,47 436,46 510,46 583,41 656,42 730,41" fill="none" stroke="#000000" stroke-width="2"/>
<circle cx="70" cy="71" r="3" fill="#0072B2"/>
<circle cx="70" cy="127" r="3" fill="#CC79A7"/>
<circle cx="70" cy="340" r="3" fill="#D55E00"/>
<circle cx="70" cy="300" r="3" fill="#009E73"/>
<circle cx="70" cy="294" r="3" fill="#56B4E9"/>
<circle cx="70" cy="217" r="3" fill="#E69F00"/>
<circle cx="70" cy="339" r="3" fill="#C44E52"/>
<circle cx="70" cy="60" r="3" fill="#000000"/>
<circle cx="143" cy="69" r="3" fill="#0072B2"/>
<circle cx="143" cy="124" r="3" fill="#CC79A7"/>
<circle cx="143" cy="340" r="3" fill="#D55E00"/>
<circle cx="143" cy="299" r="3" fill="#009E73"/>
<circle cx="143" cy="293" r="3" fill="#56B4E9"/>
<circle cx="143" cy="214" r="3" fill="#E69F00"/>
<circle cx="143" cy="339" r="3" fill="#C44E52"/>
<circle cx="143" cy="57" r="3" fill="#000000"/>
<circle cx="216" cy="71" r="3" fill="#0072B2"/>
<circle cx="216" cy="125" r="3" fill="#CC79A7"/>
<circle cx="216" cy="340" r="3" fill="#D55E00"/>
<circle cx="216" cy="300" r="3" fill="#009E73"/>
<circle cx="216" cy="293" r="3" fill="#56B4E9"/>
<circle cx="216" cy="215" r="3" fill="#E69F00"/>
<circle cx="216" cy="339" r="3" fill="#C44E52"/>
<circle cx="216" cy="57" r="3" fill="#000000"/>
<circle cx="290" cy="58" r="3" fill="#0072B2"/>
<circle cx="290" cy="112" r="3" fill="#CC79A7"/>
<circle cx="290" cy="340" r="3" fill="#D55E00"/>
<circle cx="290" cy="299" r="3" fill="#009E73"/>
<circle cx="290" cy="291" r="3" fill="#56B4E9"/>
<circle cx="290" cy="207" r="3" fill="#E69F00"/>
<circle cx="290" cy="338" r="3" fill="#C44E52"/>
<circle cx="290" cy="46" r="3" fill="#000000"/>
<circle cx="363" cy="52" r="3" fill="#0072B2"/>
<circle cx="363" cy="106" r="3" fill="#CC79A7"/>
<circle cx="363" cy="340" r="3" fill="#D55E00"/>
<circle cx="363" cy="299" r="3" fill="#009E73"/>
<circle cx="363" cy="291" r="3" fill="#56B4E9"/>
<circle cx="363" cy="207" r="3" fill="#E69F00"/>
<circle cx="363" cy="338" r="3" fill="#C44E52"/>
<circle cx="363" cy="47" r="3" fill="#000000"/>
<circle cx="436" cy="52" r="3" fill="#0072B2"/>
<circle cx="436" cy="107" r="3" fill="#CC79A7"/>
<circle cx="436" cy="340" r="3" fill="#D55E00"/>
<circle cx="436" cy="299" r="3" fill="#009E73"/>
<circle cx="436" cy="291" r="3" fill="#56B4E9"/>
<circle cx="436" cy="208" r="3" fill="#E69F00"/>
<circle cx="436" cy="336" r="3" fill="#C44E52"/>
<circle cx="436" cy="46" r="3" fill="#000000"/>
<circle cx="510" cy="47" r="3" fill="#0072B2"/>
<circle cx="510" cy="106" r="3" fill="#CC79A7"/>
<circle cx="510" cy="340" r="3" fill="#D55E00"/>
<circle cx="510" cy="298" r="3" fill="#009E73"/>
<circle cx="510" cy="291" r="3" fill="#56B4E9"/>
<circle cx="510" cy="207" r="3" fill="#E69F00"/>
<circle cx="510" cy="337" r="3" fill="#C44E52"/>
<circle cx="510" cy="46" r="3" fill="#000000"/>
<circle cx="583" cy="47" r="3" fill="#0072B2"/>
<circle cx="583" cy="105" r="3" fill="#CC79A7"/>
<circle cx="583" cy="340" r="3" fill="#D55E00"/>
<circle cx="583" cy="299" r="3" fill="#009E73"/>
<circle cx="583" cy="290" r="3" fill="#56B4E9"/>
<circle cx="583" cy="205" r="3" fill="#E69F00"/>
<circle cx="583" cy="337" r="3" fill="#C44E52"/>
<circle cx="583" cy="41" r="3" fill="#000000"/>
<circle cx="656" cy="41" r="3" fill="#0072B2"/>
<circle cx="656" cy="101" r="3" fill="#CC79A7"/>
<circle cx="656" cy="340" r="3" fill="#D55E00"/>
<circle cx="656" cy="298" r="3" fill="#009E73"/>
<circle cx="656" cy="290" r="3" fill="#56B4E9"/>
<circle cx="656" cy="205" r="3" fill="#E69F00"/>
<circle cx="656" cy="337" r="3" fill="#C44E52"/>
<circle cx="656" cy="42" r="3" fill="#000000"/>
<circle cx="730" cy="42" r="3" fill="#0072B2"/>
<circle cx="730" cy="99" r="3" fill="#CC79A7"/>
<circle cx="730" cy="340" r="3" fill="#D55E00"/>
<circle cx="730" cy="298" r="3" fill="#009E73"/>
<circle cx="730" cy="290" r="3" fill="#56B4E9"/>
<circle cx="730" cy="205" r="3" fill="#E69F00"/>
<circle cx="730" cy="335" r="3" fill="#C44E52"/>
<circle cx="730" cy="41" r="3" fill="#000000"/>
<circle cx="90" cy="20" r="4" fill="#0072B2"/>
<text x="98" y="24" text-anchor="start" font-size="12" fill="#0072B2">inte</text>
<circle cx="150" cy="20" r="4" fill="#CC79A7"/>
<text x="158" y="24" text-anchor="start" font-size="12" fill="#CC79A7">comp</text>
<circle cx="215" cy="20" r="4" fill="#D55E00"/>
<text x="223" y="24" text-anchor="start" font-size="12" fill="#D55E00">run</text>
<circle cx="270" cy="20" r="4" fill="#009E73"/>
<text x="278" y="24" text-anchor="start" font-size="12" fill="#009E73">wall</text>
<circle cx="335" cy="20" r="4" fill="#56B4E9"/>
<text x="343" y="24" text-anchor="start" font-size="12" fill="#56B4E9">mem-inte</text>
<circle cx="425" cy="20" r="4" fill="#E69F00"/>
<text x="433" y="24" text-anchor="start" font-size="12" fill="#E69F00">mem-comp</text>
<circle cx="520" cy="20" r="4" fill="#C44E52"/>
<text x="528" y="24" text-anchor="start" font-size="12" fill="#C44E52">mem-run</text>
<circle cx="605" cy="20" r="4" fill="#000000"/>
<text x="613" y="24" text-anchor="start" font-size="12" fill="#000000">mem-total</text>
</svg>
