<svg width="800" height="400" xmlns="http://www.w3.org/2000/svg">
<rect width="800" height="400" fill="white"/>
<line x1="70" y1="40" x2="70" y2="340" stroke="#333" stroke-width="1"/>
<line x1="70" y1="340" x2="730" y2="340" stroke="#333" stroke-width="1"/>
<line x1="730" y1="40" x2="730" y2="340" stroke="#333" stroke-width="1"/>
<text x="65" y="344" text-anchor="end" font-size="11" fill="#333">0</text>
<text x="65" y="194" text-anchor="end" font-size="11" fill="#333">142000</text>
<text x="65" y="44" text-anchor="end" font-size="11" fill="#333">284000</text>
<text x="15" y="190" text-anchor="middle" font-size="12" fill="#333" transform="rotate(-90 15 190)">ms</text>
<text x="735" y="344" text-anchor="start" font-size="11" fill="#333">0</text>
<text x="735" y="194" text-anchor="start" font-size="11" fill="#333">51914000000</text>
<text x="735" y="44" text-anchor="start" font-size="11" fill="#333">103828000000</text>
<text x="785" y="190" text-anchor="middle" font-size="12" fill="#333" transform="rotate(90 785 190)">bytes</text>
<polyline points="70,223 143,181 216,172 290,205 363,214 436,57 510,206 583,208 656,191 730,210" fill="none" stroke="#0072B2" stroke-width="2"/>
<polyline points="70,211 143,141 216,131 290,192 363,204 436,41 510,194 583,197 656,177 730,168" fill="none" stroke="#CC79A7" stroke-width="2"/>
<polyline points="70,340 143,340 216,340 290,340 363,340 436,340 510,340 583,340 656,340 730,340" fill="none" stroke="#D55E00" stroke-width="2"/>
<polyline points="70,226 143,297 216,294 290,209 363,219 436,87 510,211 583,212 656,194 730,303" fill="none" stroke="#009E73" stroke-width="2"/>
<polyline points="70,330 143,330 216,330 290,330 363,330 436,330 510,330 583,330 656,330 730,330" fill="none" stroke="#56B4E9" stroke-width="2"/>
<polyline points="70,324 143,321 216,321 290,324 363,325 436,323 510,325 583,324 656,325 730,321" fill="none" stroke="#E69F00" stroke-width="2"/>
<polyline points="70,340 143,340 216,340 290,340 363,340 436,340 510,340 583,340 656,340 730,340" fill="none" stroke="#C44E52" stroke-width="2"/>
<polyline points="70,308 143,101 216,41 290,308 363,309 436,307 510,309 583,308 656,309 730,138" fill="none" stroke="#000000" stroke-width="2"/>
<circle cx="70" cy="223" r="3" fill="#0072B2"/>
<circle cx="70" cy="211" r="3" fill="#CC79A7"/>
<circle cx="70" cy="340" r="3" fill="#D55E00"/>
<circle cx="70" cy="226" r="3" fill="#009E73"/>
<circle cx="70" cy="330" r="3" fill="#56B4E9"/>
<circle cx="70" cy="324" r="3" fill="#E69F00"/>
<circle cx="70" cy="340" r="3" fill="#C44E52"/>
<circle cx="70" cy="308" r="3" fill="#000000"/>
<circle cx="143" cy="181" r="3" fill="#0072B2"/>
<circle cx="143" cy="141" r="3" fill="#CC79A7"/>
<circle cx="143" cy="340" r="3" fill="#D55E00"/>
<circle cx="143" cy="297" r="3" fill="#009E73"/>
<circle cx="143" cy="330" r="3" fill="#56B4E9"/>
<circle cx="143" cy="321" r="3" fill="#E69F00"/>
<circle cx="143" cy="340" r="3" fill="#C44E52"/>
<circle cx="143" cy="101" r="3" fill="#000000"/>
<circle cx="216" cy="172" r="3" fill="#0072B2"/>
<circle cx="216" cy="131" r="3" fill="#CC79A7"/>
<circle cx="216" cy="340" r="3" fill="#D55E00"/>
<circle cx="216" cy="294" r="3" fill="#009E73"/>
<circle cx="216" cy="330" r="3" fill="#56B4E9"/>
<circle cx="216" cy="321" r="3" fill="#E69F00"/>
<circle cx="216" cy="340" r="3" fill="#C44E52"/>
<circle cx="216" cy="41" r="3" fill="#000000"/>
<circle cx="290" cy="205" r="3" fill="#0072B2"/>
<circle cx="290" cy="192" r="3" fill="#CC79A7"/>
<circle cx="290" cy="340" r="3" fill="#D55E00"/>
<circle cx="290" cy="209" r="3" fill="#009E73"/>
<circle cx="290" cy="330" r="3" fill="#56B4E9"/>
<circle cx="290" cy="324" r="3" fill="#E69F00"/>
<circle cx="290" cy="340" r="3" fill="#C44E52"/>
<circle cx="290" cy="308" r="3" fill="#000000"/>
<circle cx="363" cy="214" r="3" fill="#0072B2"/>
<circle cx="363" cy="204" r="3" fill="#CC79A7"/>
<circle cx="363" cy="340" r="3" fill="#D55E00"/>
<circle cx="363" cy="219" r="3" fill="#009E73"/>
<circle cx="363" cy="330" r="3" fill="#56B4E9"/>
<circle cx="363" cy="325" r="3" fill="#E69F00"/>
<circle cx="363" cy="340" r="3" fill="#C44E52"/>
<circle cx="363" cy="309" r="3" fill="#000000"/>
<circle cx="436" cy="57" r="3" fill="#0072B2"/>
<circle cx="436" cy="41" r="3" fill="#CC79A7"/>
<circle cx="436" cy="340" r="3" fill="#D55E00"/>
<circle cx="436" cy="87" r="3" fill="#009E73"/>
<circle cx="436" cy="330" r="3" fill="#56B4E9"/>
<circle cx="436" cy="323" r="3" fill="#E69F00"/>
<circle cx="436" cy="340" r="3" fill="#C44E52"/>
<circle cx="436" cy="307" r="3" fill="#000000"/>
<circle cx="510" cy="206" r="3" fill="#0072B2"/>
<circle cx="510" cy="194" r="3" fill="#CC79A7"/>
<circle cx="510" cy="340" r="3" fill="#D55E00"/>
<circle cx="510" cy="211" r="3" fill="#009E73"/>
<circle cx="510" cy="330" r="3" fill="#56B4E9"/>
<circle cx="510" cy="325" r="3" fill="#E69F00"/>
<circle cx="510" cy="340" r="3" fill="#C44E52"/>
<circle cx="510" cy="309" r="3" fill="#000000"/>
<circle cx="583" cy="208" r="3" fill="#0072B2"/>
<circle cx="583" cy="197" r="3" fill="#CC79A7"/>
<circle cx="583" cy="340" r="3" fill="#D55E00"/>
<circle cx="583" cy="212" r="3" fill="#009E73"/>
<circle cx="583" cy="330" r="3" fill="#56B4E9"/>
<circle cx="583" cy="324" r="3" fill="#E69F00"/>
<circle cx="583" cy="340" r="3" fill="#C44E52"/>
<circle cx="583" cy="308" r="3" fill="#000000"/>
<circle cx="656" cy="191" r="3" fill="#0072B2"/>
<circle cx="656" cy="177" r="3" fill="#CC79A7"/>
<circle cx="656" cy="340" r="3" fill="#D55E00"/>
<circle cx="656" cy="194" r="3" fill="#009E73"/>
<circle cx="656" cy="330" r="3" fill="#56B4E9"/>
<circle cx="656" cy="325" r="3" fill="#E69F00"/>
<circle cx="656" cy="340" r="3" fill="#C44E52"/>
<circle cx="656" cy="309" r="3" fill="#000000"/>
<circle cx="730" cy="210" r="3" fill="#0072B2"/>
<circle cx="730" cy="168" r="3" fill="#CC79A7"/>
<circle cx="730" cy="340" r="3" fill="#D55E00"/>
<circle cx="730" cy="303" r="3" fill="#009E73"/>
<circle cx="730" cy="330" r="3" fill="#56B4E9"/>
<circle cx="730" cy="321" r="3" fill="#E69F00"/>
<circle cx="730" cy="340" r="3" fill="#C44E52"/>
<circle cx="730" cy="138" r="3" fill="#000000"/>
<circle cx="90" cy="20" r="4" fill="#0072B2"/>
<text x="98" y="24" text-anchor="start" font-size="12" fill="#0072B2">inte</text>
<circle cx="150" cy="20" r="4" fill="#CC79A7"/>
<text x="158" y="24" text-anchor="start" font-size="12" fill="#CC79A7">comp</text>
<circle cx="215" cy="20" r="4" fill="#D55E00"/>
<text x="223" y="24" text-anchor="start" font-size="12" fill="#D55E00">run</text>
<circle cx="270" cy="20" r="4" fill="#009E73"/>
<text x="278" y="24" text-anchor="start" font-size="12" fill="#009E73">wall</text>
<circle cx="335" cy="20" r="4" fill="#56B4E9"/>
<text x="343" y="24" text-anchor="start" font-size="12" fill="#56B4E9">mem-inte</text>
<circle cx="425" cy="20" r="4" fill="#E69F00"/>
<text x="433" y="24" text-anchor="start" font-size="12" fill="#E69F00">mem-comp</text>
<circle cx="520" cy="20" r="4" fill="#C44E52"/>
<text x="528" y="24" text-anchor="start" font-size="12" fill="#C44E52">mem-run</text>
<circle cx="605" cy="20" r="4" fill="#000000"/>
<text x="613" y="24" text-anchor="start" font-size="12" fill="#000000">mem-total</text>
</svg>
