<svg width="800" height="400" xmlns="http://www.w3.org/2000/svg">
<rect width="800" height="400" fill="white"/>
<line x1="70" y1="40" x2="70" y2="340" stroke="#333" stroke-width="1"/>
<line x1="70" y1="340" x2="730" y2="340" stroke="#333" stroke-width="1"/>
<line x1="730" y1="40" x2="730" y2="340" stroke="#333" stroke-width="1"/>
<text x="65" y="344" text-anchor="end" font-size="11" fill="#333">0</text>
<text x="65" y="194" text-anchor="end" font-size="11" fill="#333">127500</text>
<text x="65" y="44" text-anchor="end" font-size="11" fill="#333">255000</text>
<text x="15" y="190" text-anchor="middle" font-size="12" fill="#333" transform="rotate(-90 15 190)">ms</text>
<text x="735" y="344" text-anchor="start" font-size="11" fill="#333">0</text>
<text x="735" y="194" text-anchor="start" font-size="11" fill="#333">8770500000</text>
<text x="735" y="44" text-anchor="start" font-size="11" fill="#333">17541000000</text>
<text x="785" y="190" text-anchor="middle" font-size="12" fill="#333" transform="rotate(90 785 190)">bytes</text>
<polyline points="70,57 143,59 216,41 290,43 363,42 436,44 510,42 583,45 656,43 730,42" fill="none" stroke="#0072B2" stroke-width="2"/>
<polyline points="70,81 143,85 216,68 290,67 363,70 436,70 510,67 583,70 656,70 730,69" fill="none" stroke="#CC79A7" stroke-width="2"/>
<polyline points="70,340 143,340 216,340 290,340 363,340 436,340 510,340 583,340 656,340 730,340" fill="none" stroke="#D55E00" stroke-width="2"/>
<polyline points="70,291 143,291 216,290 290,290 363,289 436,290 510,290 583,290 656,290 730,290" fill="none" stroke="#009E73" stroke-width="2"/>
<polyline points="70,282 143,282 216,282 290,282 363,282 436,282 510,282 583,282 656,282 730,282" fill="none" stroke="#56B4E9" stroke-width="2"/>
<polyline points="70,213 143,213 216,213 290,213 363,213 436,213 510,213 583,213 656,213 730,213" fill="none" stroke="#E69F00" stroke-width="2"/>
<polyline points="70,340 143,340 216,340 290,340 363,340 436,340 510,339 583,340 656,340 730,340" fill="none" stroke="#C44E52" stroke-width="2"/>
<polyline points="70,42 143,41 216,42 290,41 363,42 436,42 510,41 583,41 656,41 730,41" fill="none" stroke="#000000" stroke-width="2"/>
<circle cx="70" cy="57" r="3" fill="#0072B2"/>
<circle cx="70" cy="81" r="3" fill="#CC79A7"/>
<circle cx="70" cy="340" r="3" fill="#D55E00"/>
<circle cx="70" cy="291" r="3" fill="#009E73"/>
<circle cx="70" cy="282" r="3" fill="#56B4E9"/>
<circle cx="70" cy="213" r="3" fill="#E69F00"/>
<circle cx="70" cy="340" r="3" fill="#C44E52"/>
<circle cx="70" cy="42" r="3" fill="#000000"/>
<circle cx="143" cy="59" r="3" fill="#0072B2"/>
<circle cx="143" cy="85" r="3" fill="#CC79A7"/>
<circle cx="143" cy="340" r="3" fill="#D55E00"/>
<circle cx="143" cy="291" r="3" fill="#009E73"/>
<circle cx="143" cy="282" r="3" fill="#56B4E9"/>
<circle cx="143" cy="213" r="3" fill="#E69F00"/>
<circle cx="143" cy="340" r="3" fill="#C44E52"/>
<circle cx="143" cy="41" r="3" fill="#000000"/>
<circle cx="216" cy="41" r="3" fill="#0072B2"/>
<circle cx="216" cy="68" r="3" fill="#CC79A7"/>
<circle cx="216" cy="340" r="3" fill="#D55E00"/>
<circle cx="216" cy="290" r="3" fill="#009E73"/>
<circle cx="216" cy="282" r="3" fill="#56B4E9"/>
<circle cx="216" cy="213" r="3" fill="#E69F00"/>
<circle cx="216" cy="340" r="3" fill="#C44E52"/>
<circle cx="216" cy="42" r="3" fill="#000000"/>
<circle cx="290" cy="43" r="3" fill="#0072B2"/>
<circle cx="290" cy="67" r="3" fill="#CC79A7"/>
<circle cx="290" cy="340" r="3" fill="#D55E00"/>
<circle cx="290" cy="290" r="3" fill="#009E73"/>
<circle cx="290" cy="282" r="3" fill="#56B4E9"/>
<circle cx="290" cy="213" r="3" fill="#E69F00"/>
<circle cx="290" cy="340" r="3" fill="#C44E52"/>
<circle cx="290" cy="41" r="3" fill="#000000"/>
<circle cx="363" cy="42" r="3" fill="#0072B2"/>
<circle cx="363" cy="70" r="3" fill="#CC79A7"/>
<circle cx="363" cy="340" r="3" fill="#D55E00"/>
<circle cx="363" cy="289" r="3" fill="#009E73"/>
<circle cx="363" cy="282" r="3" fill="#56B4E9"/>
<circle cx="363" cy="213" r="3" fill="#E69F00"/>
<circle cx="363" cy="340" r="3" fill="#C44E52"/>
<circle cx="363" cy="42" r="3" fill="#000000"/>
<circle cx="436" cy="44" r="3" fill="#0072B2"/>
<circle cx="436" cy="70" r="3" fill="#CC79A7"/>
<circle cx="436" cy="340" r="3" fill="#D55E00"/>
<circle cx="436" cy="290" r="3" fill="#009E73"/>
<circle cx="436" cy="282" r="3" fill="#56B4E9"/>
<circle cx="436" cy="213" r="3" fill="#E69F00"/>
<circle cx="436" cy="340" r="3" fill="#C44E52"/>
<circle cx="436" cy="42" r="3" fill="#000000"/>
<circle cx="510" cy="42" r="3" fill="#0072B2"/>
<circle cx="510" cy="67" r="3" fill="#CC79A7"/>
<circle cx="510" cy="340" r="3" fill="#D55E00"/>
<circle cx="510" cy="290" r="3" fill="#009E73"/>
<circle cx="510" cy="282" r="3" fill="#56B4E9"/>
<circle cx="510" cy="213" r="3" fill="#E69F00"/>
<circle cx="510" cy="339" r="3" fill="#C44E52"/>
<circle cx="510" cy="41" r="3" fill="#000000"/>
<circle cx="583" cy="45" r="3" fill="#0072B2"/>
<circle cx="583" cy="70" r="3" fill="#CC79A7"/>
<circle cx="583" cy="340" r="3" fill="#D55E00"/>
<circle cx="583" cy="290" r="3" fill="#009E73"/>
<circle cx="583" cy="282" r="3" fill="#56B4E9"/>
<circle cx="583" cy="213" r="3" fill="#E69F00"/>
<circle cx="583" cy="340" r="3" fill="#C44E52"/>
<circle cx="583" cy="41" r="3" fill="#000000"/>
<circle cx="656" cy="43" r="3" fill="#0072B2"/>
<circle cx="656" cy="70" r="3" fill="#CC79A7"/>
<circle cx="656" cy="340" r="3" fill="#D55E00"/>
<circle cx="656" cy="290" r="3" fill="#009E73"/>
<circle cx="656" cy="282" r="3" fill="#56B4E9"/>
<circle cx="656" cy="213" r="3" fill="#E69F00"/>
<circle cx="656" cy="340" r="3" fill="#C44E52"/>
<circle cx="656" cy="41" r="3" fill="#000000"/>
<circle cx="730" cy="42" r="3" fill="#0072B2"/>
<circle cx="730" cy="69" r="3" fill="#CC79A7"/>
<circle cx="730" cy="340" r="3" fill="#D55E00"/>
<circle cx="730" cy="290" r="3" fill="#009E73"/>
<circle cx="730" cy="282" r="3" fill="#56B4E9"/>
<circle cx="730" cy="213" r="3" fill="#E69F00"/>
<circle cx="730" cy="340" r="3" fill="#C44E52"/>
<circle cx="730" cy="41" r="3" fill="#000000"/>
<circle cx="90" cy="20" r="4" fill="#0072B2"/>
<text x="98" y="24" text-anchor="start" font-size="12" fill="#0072B2">inte</text>
<circle cx="150" cy="20" r="4" fill="#CC79A7"/>
<text x="158" y="24" text-anchor="start" font-size="12" fill="#CC79A7">comp</text>
<circle cx="215" cy="20" r="4" fill="#D55E00"/>
<text x="223" y="24" text-anchor="start" font-size="12" fill="#D55E00">run</text>
<circle cx="270" cy="20" r="4" fill="#009E73"/>
<text x="278" y="24" text-anchor="start" font-size="12" fill="#009E73">wall</text>
<circle cx="335" cy="20" r="4" fill="#56B4E9"/>
<text x="343" y="24" text-anchor="start" font-size="12" fill="#56B4E9">mem-inte</text>
<circle cx="425" cy="20" r="4" fill="#E69F00"/>
<text x="433" y="24" text-anchor="start" font-size="12" fill="#E69F00">mem-comp</text>
<circle cx="520" cy="20" r="4" fill="#C44E52"/>
<text x="528" y="24" text-anchor="start" font-size="12" fill="#C44E52">mem-run</text>
<circle cx="605" cy="20" r="4" fill="#000000"/>
<text x="613" y="24" text-anchor="start" font-size="12" fill="#000000">mem-total</text>
</svg>
