<svg width="800" height="400" xmlns="http://www.w3.org/2000/svg">
<rect width="800" height="400" fill="white"/>
<line x1="70" y1="40" x2="70" y2="340" stroke="#333" stroke-width="1"/>
<line x1="70" y1="340" x2="730" y2="340" stroke="#333" stroke-width="1"/>
<line x1="730" y1="40" x2="730" y2="340" stroke="#333" stroke-width="1"/>
<text x="65" y="344" text-anchor="end" font-size="11" fill="#333">0</text>
<text x="65" y="194" text-anchor="end" font-size="11" fill="#333">66500</text>
<text x="65" y="44" text-anchor="end" font-size="11" fill="#333">133000</text>
<text x="15" y="190" text-anchor="middle" font-size="12" fill="#333" transform="rotate(-90 15 190)">ms</text>
<text x="735" y="344" text-anchor="start" font-size="11" fill="#333">0</text>
<text x="735" y="194" text-anchor="start" font-size="11" fill="#333">7730000000</text>
<text x="735" y="44" text-anchor="start" font-size="11" fill="#333">15460000000</text>
<text x="785" y="190" text-anchor="middle" font-size="12" fill="#333" transform="rotate(90 785 190)">bytes</text>
<polyline points="70,71 143,70 216,74 290,71 363,62 436,64 510,60 583,58 656,59 730,50" fill="none" stroke="#0072B2" stroke-width="2"/>
<polyline points="70,64 143,62 216,68 290,63 363,54 436,59 510,49 583,53 656,50 730,43" fill="none" stroke="#CC79A7" stroke-width="2"/>
<polyline points="70,340 143,340 216,340 290,340 363,340 436,340 510,340 583,340 656,340 730,340" fill="none" stroke="#D55E00" stroke-width="2"/>
<polyline points="70,303 143,303 216,304 290,303 363,302 436,302 510,301 583,302 656,302 730,301" fill="none" stroke="#009E73" stroke-width="2"/>
<polyline points="70,249 143,251 216,251 290,251 363,238 436,240 510,237 583,240 656,235 730,232" fill="none" stroke="#56B4E9" stroke-width="2"/>
<polyline points="70,218 143,217 216,219 290,215 363,202 436,206 510,197 583,200 656,198 730,199" fill="none" stroke="#E69F00" stroke-width="2"/>
<polyline points="70,340 143,340 216,340 290,340 363,340 436,340 510,340 583,340 656,340 730,340" fill="none" stroke="#C44E52" stroke-width="2"/>
<polyline points="70,77 143,78 216,81 290,77 363,49 436,56 510,44 583,50 656,43 730,41" fill="none" stroke="#000000" stroke-width="2"/>
<circle cx="70" cy="71" r="3" fill="#0072B2"/>
<circle cx="70" cy="64" r="3" fill="#CC79A7"/>
<circle cx="70" cy="340" r="3" fill="#D55E00"/>
<circle cx="70" cy="303" r="3" fill="#009E73"/>
<circle cx="70" cy="249" r="3" fill="#56B4E9"/>
<circle cx="70" cy="218" r="3" fill="#E69F00"/>
<circle cx="70" cy="340" r="3" fill="#C44E52"/>
<circle cx="70" cy="77" r="3" fill="#000000"/>
<circle cx="143" cy="70" r="3" fill="#0072B2"/>
<circle cx="143" cy="62" r="3" fill="#CC79A7"/>
<circle cx="143" cy="340" r="3" fill="#D55E00"/>
<circle cx="143" cy="303" r="3" fill="#009E73"/>
<circle cx="143" cy="251" r="3" fill="#56B4E9"/>
<circle cx="143" cy="217" r="3" fill="#E69F00"/>
<circle cx="143" cy="340" r="3" fill="#C44E52"/>
<circle cx="143" cy="78" r="3" fill="#000000"/>
<circle cx="216" cy="74" r="3" fill="#0072B2"/>
<circle cx="216" cy="68" r="3" fill="#CC79A7"/>
<circle cx="216" cy="340" r="3" fill="#D55E00"/>
<circle cx="216" cy="304" r="3" fill="#009E73"/>
<circle cx="216" cy="251" r="3" fill="#56B4E9"/>
<circle cx="216" cy="219" r="3" fill="#E69F00"/>
<circle cx="216" cy="340" r="3" fill="#C44E52"/>
<circle cx="216" cy="81" r="3" fill="#000000"/>
<circle cx="290" cy="71" r="3" fill="#0072B2"/>
<circle cx="290" cy="63" r="3" fill="#CC79A7"/>
<circle cx="290" cy="340" r="3" fill="#D55E00"/>
<circle cx="290" cy="303" r="3" fill="#009E73"/>
<circle cx="290" cy="251" r="3" fill="#56B4E9"/>
<circle cx="290" cy="215" r="3" fill="#E69F00"/>
<circle cx="290" cy="340" r="3" fill="#C44E52"/>
<circle cx="290" cy="77" r="3" fill="#000000"/>
<circle cx="363" cy="62" r="3" fill="#0072B2"/>
<circle cx="363" cy="54" r="3" fill="#CC79A7"/>
<circle cx="363" cy="340" r="3" fill="#D55E00"/>
<circle cx="363" cy="302" r="3" fill="#009E73"/>
<circle cx="363" cy="238" r="3" fill="#56B4E9"/>
<circle cx="363" cy="202" r="3" fill="#E69F00"/>
<circle cx="363" cy="340" r="3" fill="#C44E52"/>
<circle cx="363" cy="49" r="3" fill="#000000"/>
<circle cx="436" cy="64" r="3" fill="#0072B2"/>
<circle cx="436" cy="59" r="3" fill="#CC79A7"/>
<circle cx="436" cy="340" r="3" fill="#D55E00"/>
<circle cx="436" cy="302" r="3" fill="#009E73"/>
<circle cx="436" cy="240" r="3" fill="#56B4E9"/>
<circle cx="436" cy="206" r="3" fill="#E69F00"/>
<circle cx="436" cy="340" r="3" fill="#C44E52"/>
<circle cx="436" cy="56" r="3" fill="#000000"/>
<circle cx="510" cy="60" r="3" fill="#0072B2"/>
<circle cx="510" cy="49" r="3" fill="#CC79A7"/>
<circle cx="510" cy="340" r="3" fill="#D55E00"/>
<circle cx="510" cy="301" r="3" fill="#009E73"/>
<circle cx="510" cy="237" r="3" fill="#56B4E9"/>
<circle cx="510" cy="197" r="3" fill="#E69F00"/>
<circle cx="510" cy="340" r="3" fill="#C44E52"/>
<circle cx="510" cy="44" r="3" fill="#000000"/>
<circle cx="583" cy="58" r="3" fill="#0072B2"/>
<circle cx="583" cy="53" r="3" fill="#CC79A7"/>
<circle cx="583" cy="340" r="3" fill="#D55E00"/>
<circle cx="583" cy="302" r="3" fill="#009E73"/>
<circle cx="583" cy="240" r="3" fill="#56B4E9"/>
<circle cx="583" cy="200" r="3" fill="#E69F00"/>
<circle cx="583" cy="340" r="3" fill="#C44E52"/>
<circle cx="583" cy="50" r="3" fill="#000000"/>
<circle cx="656" cy="59" r="3" fill="#0072B2"/>
<circle cx="656" cy="50" r="3" fill="#CC79A7"/>
<circle cx="656" cy="340" r="3" fill="#D55E00"/>
<circle cx="656" cy="302" r="3" fill="#009E73"/>
<circle cx="656" cy="235" r="3" fill="#56B4E9"/>
<circle cx="656" cy="198" r="3" fill="#E69F00"/>
<circle cx="656" cy="340" r="3" fill="#C44E52"/>
<circle cx="656" cy="43" r="3" fill="#000000"/>
<circle cx="730" cy="50" r="3" fill="#0072B2"/>
<circle cx="730" cy="43" r="3" fill="#CC79A7"/>
<circle cx="730" cy="340" r="3" fill="#D55E00"/>
<circle cx="730" cy="301" r="3" fill="#009E73"/>
<circle cx="730" cy="232" r="3" fill="#56B4E9"/>
<circle cx="730" cy="199" r="3" fill="#E69F00"/>
<circle cx="730" cy="340" r="3" fill="#C44E52"/>
<circle cx="730" cy="41" r="3" fill="#000000"/>
<circle cx="90" cy="20" r="4" fill="#0072B2"/>
<text x="98" y="24" text-anchor="start" font-size="12" fill="#0072B2">inte</text>
<circle cx="150" cy="20" r="4" fill="#CC79A7"/>
<text x="158" y="24" text-anchor="start" font-size="12" fill="#CC79A7">comp</text>
<circle cx="215" cy="20" r="4" fill="#D55E00"/>
<text x="223" y="24" text-anchor="start" font-size="12" fill="#D55E00">run</text>
<circle cx="270" cy="20" r="4" fill="#009E73"/>
<text x="278" y="24" text-anchor="start" font-size="12" fill="#009E73">wall</text>
<circle cx="335" cy="20" r="4" fill="#56B4E9"/>
<text x="343" y="24" text-anchor="start" font-size="12" fill="#56B4E9">mem-inte</text>
<circle cx="425" cy="20" r="4" fill="#E69F00"/>
<text x="433" y="24" text-anchor="start" font-size="12" fill="#E69F00">mem-comp</text>
<circle cx="520" cy="20" r="4" fill="#C44E52"/>
<text x="528" y="24" text-anchor="start" font-size="12" fill="#C44E52">mem-run</text>
<circle cx="605" cy="20" r="4" fill="#000000"/>
<text x="613" y="24" text-anchor="start" font-size="12" fill="#000000">mem-total</text>
</svg>
