<svg width="800" height="400" xmlns="http://www.w3.org/2000/svg">
<rect width="800" height="400" fill="white"/>
<line x1="70" y1="40" x2="70" y2="340" stroke="#333" stroke-width="1"/>
<line x1="70" y1="340" x2="730" y2="340" stroke="#333" stroke-width="1"/>
<line x1="730" y1="40" x2="730" y2="340" stroke="#333" stroke-width="1"/>
<text x="65" y="344" text-anchor="end" font-size="11" fill="#333">0</text>
<text x="65" y="194" text-anchor="end" font-size="11" fill="#333">308500</text>
<text x="65" y="44" text-anchor="end" font-size="11" fill="#333">617000</text>
<text x="15" y="190" text-anchor="middle" font-size="12" fill="#333" transform="rotate(-90 15 190)">ms</text>
<text x="735" y="344" text-anchor="start" font-size="11" fill="#333">0</text>
<text x="735" y="194" text-anchor="start" font-size="11" fill="#333">51905000000</text>
<text x="735" y="44" text-anchor="start" font-size="11" fill="#333">103810000000</text>
<text x="785" y="190" text-anchor="middle" font-size="12" fill="#333" transform="rotate(90 785 190)">bytes</text>
<polyline points="70,96 143,100 216,105 290,105 363,107 436,103 510,105 583,97 656,98 730,93" fill="none" stroke="#0072B2" stroke-width="2"/>
<polyline points="70,54 143,49 216,52 290,60 363,60 436,41 510,53 583,50 656,52 730,44" fill="none" stroke="#CC79A7" stroke-width="2"/>
<polyline points="70,340 143,340 216,340 290,340 363,340 436,340 510,340 583,340 656,340 730,340" fill="none" stroke="#D55E00" stroke-width="2"/>
<polyline points="70,306 143,307 216,307 290,307 363,307 436,306 510,306 583,306 656,306 730,305" fill="none" stroke="#009E73" stroke-width="2"/>
<polyline points="70,213 143,216 216,215 290,215 363,213 436,208 510,210 583,209 656,208 730,206" fill="none" stroke="#984EA3" stroke-width="2"/>
<polyline points="70,50 143,51 216,53 290,52 363,53 436,50 510,50 583,49 656,49 730,48" fill="none" stroke="#56B4E9" stroke-width="2"/>
<polyline points="70,44 143,44 216,45 290,46 363,47 436,41 510,42 583,41 656,42 730,41" fill="none" stroke="#E69F00" stroke-width="2"/>
<polyline points="70,339 143,339 216,339 290,339 363,339 436,339 510,339 583,338 656,339 730,339" fill="none" stroke="#C44E52" stroke-width="2"/>
<polyline points="70,300 143,301 216,302 290,301 363,300 436,300 510,300 583,300 656,300 730,299" fill="none" stroke="#8C564B" stroke-width="2"/>
<circle cx="70" cy="96" r="3" fill="#0072B2"/>
<circle cx="70" cy="54" r="3" fill="#CC79A7"/>
<circle cx="70" cy="340" r="3" fill="#D55E00"/>
<circle cx="70" cy="306" r="3" fill="#009E73"/>
<circle cx="70" cy="213" r="3" fill="#984EA3"/>
<circle cx="70" cy="50" r="3" fill="#56B4E9"/>
<circle cx="70" cy="44" r="3" fill="#E69F00"/>
<circle cx="70" cy="339" r="3" fill="#C44E52"/>
<circle cx="70" cy="300" r="3" fill="#8C564B"/>
<circle cx="143" cy="100" r="3" fill="#0072B2"/>
<circle cx="143" cy="49" r="3" fill="#CC79A7"/>
<circle cx="143" cy="340" r="3" fill="#D55E00"/>
<circle cx="143" cy="307" r="3" fill="#009E73"/>
<circle cx="143" cy="216" r="3" fill="#984EA3"/>
<circle cx="143" cy="51" r="3" fill="#56B4E9"/>
<circle cx="143" cy="44" r="3" fill="#E69F00"/>
<circle cx="143" cy="339" r="3" fill="#C44E52"/>
<circle cx="143" cy="301" r="3" fill="#8C564B"/>
<circle cx="216" cy="105" r="3" fill="#0072B2"/>
<circle cx="216" cy="52" r="3" fill="#CC79A7"/>
<circle cx="216" cy="340" r="3" fill="#D55E00"/>
<circle cx="216" cy="307" r="3" fill="#009E73"/>
<circle cx="216" cy="215" r="3" fill="#984EA3"/>
<circle cx="216" cy="53" r="3" fill="#56B4E9"/>
<circle cx="216" cy="45" r="3" fill="#E69F00"/>
<circle cx="216" cy="339" r="3" fill="#C44E52"/>
<circle cx="216" cy="302" r="3" fill="#8C564B"/>
<circle cx="290" cy="105" r="3" fill="#0072B2"/>
<circle cx="290" cy="60" r="3" fill="#CC79A7"/>
<circle cx="290" cy="340" r="3" fill="#D55E00"/>
<circle cx="290" cy="307" r="3" fill="#009E73"/>
<circle cx="290" cy="215" r="3" fill="#984EA3"/>
<circle cx="290" cy="52" r="3" fill="#56B4E9"/>
<circle cx="290" cy="46" r="3" fill="#E69F00"/>
<circle cx="290" cy="339" r="3" fill="#C44E52"/>
<circle cx="290" cy="301" r="3" fill="#8C564B"/>
<circle cx="363" cy="107" r="3" fill="#0072B2"/>
<circle cx="363" cy="60" r="3" fill="#CC79A7"/>
<circle cx="363" cy="340" r="3" fill="#D55E00"/>
<circle cx="363" cy="307" r="3" fill="#009E73"/>
<circle cx="363" cy="213" r="3" fill="#984EA3"/>
<circle cx="363" cy="53" r="3" fill="#56B4E9"/>
<circle cx="363" cy="47" r="3" fill="#E69F00"/>
<circle cx="363" cy="339" r="3" fill="#C44E52"/>
<circle cx="363" cy="300" r="3" fill="#8C564B"/>
<circle cx="436" cy="103" r="3" fill="#0072B2"/>
<circle cx="436" cy="41" r="3" fill="#CC79A7"/>
<circle cx="436" cy="340" r="3" fill="#D55E00"/>
<circle cx="436" cy="306" r="3" fill="#009E73"/>
<circle cx="436" cy="208" r="3" fill="#984EA3"/>
<circle cx="436" cy="50" r="3" fill="#56B4E9"/>
<circle cx="436" cy="41" r="3" fill="#E69F00"/>
<circle cx="436" cy="339" r="3" fill="#C44E52"/>
<circle cx="436" cy="300" r="3" fill="#8C564B"/>
<circle cx="510" cy="105" r="3" fill="#0072B2"/>
<circle cx="510" cy="53" r="3" fill="#CC79A7"/>
<circle cx="510" cy="340" r="3" fill="#D55E00"/>
<circle cx="510" cy="306" r="3" fill="#009E73"/>
<circle cx="510" cy="210" r="3" fill="#984EA3"/>
<circle cx="510" cy="50" r="3" fill="#56B4E9"/>
<circle cx="510" cy="42" r="3" fill="#E69F00"/>
<circle cx="510" cy="339" r="3" fill="#C44E52"/>
<circle cx="510" cy="300" r="3" fill="#8C564B"/>
<circle cx="583" cy="97" r="3" fill="#0072B2"/>
<circle cx="583" cy="50" r="3" fill="#CC79A7"/>
<circle cx="583" cy="340" r="3" fill="#D55E00"/>
<circle cx="583" cy="306" r="3" fill="#009E73"/>
<circle cx="583" cy="209" r="3" fill="#984EA3"/>
<circle cx="583" cy="49" r="3" fill="#56B4E9"/>
<circle cx="583" cy="41" r="3" fill="#E69F00"/>
<circle cx="583" cy="338" r="3" fill="#C44E52"/>
<circle cx="583" cy="300" r="3" fill="#8C564B"/>
<circle cx="656" cy="98" r="3" fill="#0072B2"/>
<circle cx="656" cy="52" r="3" fill="#CC79A7"/>
<circle cx="656" cy="340" r="3" fill="#D55E00"/>
<circle cx="656" cy="306" r="3" fill="#009E73"/>
<circle cx="656" cy="208" r="3" fill="#984EA3"/>
<circle cx="656" cy="49" r="3" fill="#56B4E9"/>
<circle cx="656" cy="42" r="3" fill="#E69F00"/>
<circle cx="656" cy="339" r="3" fill="#C44E52"/>
<circle cx="656" cy="300" r="3" fill="#8C564B"/>
<circle cx="730" cy="93" r="3" fill="#0072B2"/>
<circle cx="730" cy="44" r="3" fill="#CC79A7"/>
<circle cx="730" cy="340" r="3" fill="#D55E00"/>
<circle cx="730" cy="305" r="3" fill="#009E73"/>
<circle cx="730" cy="206" r="3" fill="#984EA3"/>
<circle cx="730" cy="48" r="3" fill="#56B4E9"/>
<circle cx="730" cy="41" r="3" fill="#E69F00"/>
<circle cx="730" cy="339" r="3" fill="#C44E52"/>
<circle cx="730" cy="299" r="3" fill="#8C564B"/>
<circle cx="70" cy="20" r="4" fill="#0072B2"/>
<text x="78" y="24" text-anchor="start" font-size="12" fill="#0072B2">inte</text>
<circle cx="130" cy="20" r="4" fill="#CC79A7"/>
<text x="138" y="24" text-anchor="start" font-size="12" fill="#CC79A7">comp</text>
<circle cx="195" cy="20" r="4" fill="#D55E00"/>
<text x="203" y="24" text-anchor="start" font-size="12" fill="#D55E00">run</text>
<circle cx="250" cy="20" r="4" fill="#009E73"/>
<text x="258" y="24" text-anchor="start" font-size="12" fill="#009E73">wall</text>
<circle cx="315" cy="20" r="4" fill="#984EA3"/>
<text x="323" y="24" text-anchor="start" font-size="12" fill="#984EA3">self</text>
<circle cx="380" cy="20" r="4" fill="#56B4E9"/>
<text x="388" y="24" text-anchor="start" font-size="12" fill="#56B4E9">mem-inte</text>
<circle cx="470" cy="20" r="4" fill="#E69F00"/>
<text x="478" y="24" text-anchor="start" font-size="12" fill="#E69F00">mem-comp</text>
<circle cx="565" cy="20" r="4" fill="#C44E52"/>
<text x="573" y="24" text-anchor="start" font-size="12" fill="#C44E52">mem-run</text>
<circle cx="650" cy="20" r="4" fill="#8C564B"/>
<text x="658" y="24" text-anchor="start" font-size="12" fill="#8C564B">self-mem</text>
</svg>
