<svg width="800" height="400" xmlns="http://www.w3.org/2000/svg">
<rect width="800" height="400" fill="white"/>
<line x1="70" y1="40" x2="70" y2="340" stroke="#333" stroke-width="1"/>
<line x1="70" y1="340" x2="730" y2="340" stroke="#333" stroke-width="1"/>
<line x1="730" y1="40" x2="730" y2="340" stroke="#333" stroke-width="1"/>
<text x="65" y="344" text-anchor="end" font-size="11" fill="#333">0</text>
<text x="65" y="194" text-anchor="end" font-size="11" fill="#333">255000</text>
<text x="65" y="44" text-anchor="end" font-size="11" fill="#333">510000</text>
<text x="15" y="190" text-anchor="middle" font-size="12" fill="#333" transform="rotate(-90 15 190)">ms</text>
<text x="735" y="344" text-anchor="start" font-size="11" fill="#333">0</text>
<text x="735" y="194" text-anchor="start" font-size="11" fill="#333">10520500000</text>
<text x="735" y="44" text-anchor="start" font-size="11" fill="#333">21041000000</text>
<text x="785" y="190" text-anchor="middle" font-size="12" fill="#333" transform="rotate(90 785 190)">bytes</text>
<polyline points="70,122 143,117 216,118 290,121 363,122 436,121 510,94 583,86 656,41 730,46" fill="none" stroke="#0072B2" stroke-width="2"/>
<polyline points="70,165 143,162 216,161 290,163 363,162 436,147 510,140 583,132 656,92 730,96" fill="none" stroke="#CC79A7" stroke-width="2"/>
<polyline points="70,340 143,340 216,340 290,340 363,340 436,340 510,340 583,340 656,340 730,340" fill="none" stroke="#D55E00" stroke-width="2"/>
<polyline points="70,309 143,309 216,309 290,309 363,309 436,309 510,298 583,297 656,294 730,294" fill="none" stroke="#009E73" stroke-width="2"/>
<polyline points="70,299 143,299 216,299 290,299 363,299 436,299 510,297 583,297 656,301 730,301" fill="none" stroke="#56B4E9" stroke-width="2"/>
<polyline points="70,229 143,229 216,229 290,229 363,229 436,192 510,187 583,187 656,186 730,187" fill="none" stroke="#E69F00" stroke-width="2"/>
<polyline points="70,338 143,338 216,336 290,338 363,338 436,338 510,337 583,334 656,337 730,339" fill="none" stroke="#C44E52" stroke-width="2"/>
<polyline points="70,93 143,94 216,94 290,96 363,95 436,51 510,44 583,41 656,47 730,49" fill="none" stroke="#000000" stroke-width="2"/>
<circle cx="70" cy="122" r="3" fill="#0072B2"/>
<circle cx="70" cy="165" r="3" fill="#CC79A7"/>
<circle cx="70" cy="340" r="3" fill="#D55E00"/>
<circle cx="70" cy="309" r="3" fill="#009E73"/>
<circle cx="70" cy="299" r="3" fill="#56B4E9"/>
<circle cx="70" cy="229" r="3" fill="#E69F00"/>
<circle cx="70" cy="338" r="3" fill="#C44E52"/>
<circle cx="70" cy="93" r="3" fill="#000000"/>
<circle cx="143" cy="117" r="3" fill="#0072B2"/>
<circle cx="143" cy="162" r="3" fill="#CC79A7"/>
<circle cx="143" cy="340" r="3" fill="#D55E00"/>
<circle cx="143" cy="309" r="3" fill="#009E73"/>
<circle cx="143" cy="299" r="3" fill="#56B4E9"/>
<circle cx="143" cy="229" r="3" fill="#E69F00"/>
<circle cx="143" cy="338" r="3" fill="#C44E52"/>
<circle cx="143" cy="94" r="3" fill="#000000"/>
<circle cx="216" cy="118" r="3" fill="#0072B2"/>
<circle cx="216" cy="161" r="3" fill="#CC79A7"/>
<circle cx="216" cy="340" r="3" fill="#D55E00"/>
<circle cx="216" cy="309" r="3" fill="#009E73"/>
<circle cx="216" cy="299" r="3" fill="#56B4E9"/>
<circle cx="216" cy="229" r="3" fill="#E69F00"/>
<circle cx="216" cy="336" r="3" fill="#C44E52"/>
<circle cx="216" cy="94" r="3" fill="#000000"/>
<circle cx="290" cy="121" r="3" fill="#0072B2"/>
<circle cx="290" cy="163" r="3" fill="#CC79A7"/>
<circle cx="290" cy="340" r="3" fill="#D55E00"/>
<circle cx="290" cy="309" r="3" fill="#009E73"/>
<circle cx="290" cy="299" r="3" fill="#56B4E9"/>
<circle cx="290" cy="229" r="3" fill="#E69F00"/>
<circle cx="290" cy="338" r="3" fill="#C44E52"/>
<circle cx="290" cy="96" r="3" fill="#000000"/>
<circle cx="363" cy="122" r="3" fill="#0072B2"/>
<circle cx="363" cy="162" r="3" fill="#CC79A7"/>
<circle cx="363" cy="340" r="3" fill="#D55E00"/>
<circle cx="363" cy="309" r="3" fill="#009E73"/>
<circle cx="363" cy="299" r="3" fill="#56B4E9"/>
<circle cx="363" cy="229" r="3" fill="#E69F00"/>
<circle cx="363" cy="338" r="3" fill="#C44E52"/>
<circle cx="363" cy="95" r="3" fill="#000000"/>
<circle cx="436" cy="121" r="3" fill="#0072B2"/>
<circle cx="436" cy="147" r="3" fill="#CC79A7"/>
<circle cx="436" cy="340" r="3" fill="#D55E00"/>
<circle cx="436" cy="309" r="3" fill="#009E73"/>
<circle cx="436" cy="299" r="3" fill="#56B4E9"/>
<circle cx="436" cy="192" r="3" fill="#E69F00"/>
<circle cx="436" cy="338" r="3" fill="#C44E52"/>
<circle cx="436" cy="51" r="3" fill="#000000"/>
<circle cx="510" cy="94" r="3" fill="#0072B2"/>
<circle cx="510" cy="140" r="3" fill="#CC79A7"/>
<circle cx="510" cy="340" r="3" fill="#D55E00"/>
<circle cx="510" cy="298" r="3" fill="#009E73"/>
<circle cx="510" cy="297" r="3" fill="#56B4E9"/>
<circle cx="510" cy="187" r="3" fill="#E69F00"/>
<circle cx="510" cy="337" r="3" fill="#C44E52"/>
<circle cx="510" cy="44" r="3" fill="#000000"/>
<circle cx="583" cy="86" r="3" fill="#0072B2"/>
<circle cx="583" cy="132" r="3" fill="#CC79A7"/>
<circle cx="583" cy="340" r="3" fill="#D55E00"/>
<circle cx="583" cy="297" r="3" fill="#009E73"/>
<circle cx="583" cy="297" r="3" fill="#56B4E9"/>
<circle cx="583" cy="187" r="3" fill="#E69F00"/>
<circle cx="583" cy="334" r="3" fill="#C44E52"/>
<circle cx="583" cy="41" r="3" fill="#000000"/>
<circle cx="656" cy="41" r="3" fill="#0072B2"/>
<circle cx="656" cy="92" r="3" fill="#CC79A7"/>
<circle cx="656" cy="340" r="3" fill="#D55E00"/>
<circle cx="656" cy="294" r="3" fill="#009E73"/>
<circle cx="656" cy="301" r="3" fill="#56B4E9"/>
<circle cx="656" cy="186" r="3" fill="#E69F00"/>
<circle cx="656" cy="337" r="3" fill="#C44E52"/>
<circle cx="656" cy="47" r="3" fill="#000000"/>
<circle cx="730" cy="46" r="3" fill="#0072B2"/>
<circle cx="730" cy="96" r="3" fill="#CC79A7"/>
<circle cx="730" cy="340" r="3" fill="#D55E00"/>
<circle cx="730" cy="294" r="3" fill="#009E73"/>
<circle cx="730" cy="301" r="3" fill="#56B4E9"/>
<circle cx="730" cy="187" r="3" fill="#E69F00"/>
<circle cx="730" cy="339" r="3" fill="#C44E52"/>
<circle cx="730" cy="49" r="3" fill="#000000"/>
<circle cx="90" cy="20" r="4" fill="#0072B2"/>
<text x="98" y="24" text-anchor="start" font-size="12" fill="#0072B2">inte</text>
<circle cx="150" cy="20" r="4" fill="#CC79A7"/>
<text x="158" y="24" text-anchor="start" font-size="12" fill="#CC79A7">comp</text>
<circle cx="215" cy="20" r="4" fill="#D55E00"/>
<text x="223" y="24" text-anchor="start" font-size="12" fill="#D55E00">run</text>
<circle cx="270" cy="20" r="4" fill="#009E73"/>
<text x="278" y="24" text-anchor="start" font-size="12" fill="#009E73">wall</text>
<circle cx="335" cy="20" r="4" fill="#56B4E9"/>
<text x="343" y="24" text-anchor="start" font-size="12" fill="#56B4E9">mem-inte</text>
<circle cx="425" cy="20" r="4" fill="#E69F00"/>
<text x="433" y="24" text-anchor="start" font-size="12" fill="#E69F00">mem-comp</text>
<circle cx="520" cy="20" r="4" fill="#C44E52"/>
<text x="528" y="24" text-anchor="start" font-size="12" fill="#C44E52">mem-run</text>
<circle cx="605" cy="20" r="4" fill="#000000"/>
<text x="613" y="24" text-anchor="start" font-size="12" fill="#000000">mem-total</text>
</svg>
