<svg width="800" height="400" xmlns="http://www.w3.org/2000/svg">
<rect width="800" height="400" fill="white"/>
<line x1="70" y1="40" x2="70" y2="340" stroke="#333" stroke-width="1"/>
<line x1="70" y1="340" x2="780" y2="340" stroke="#333" stroke-width="1"/>
<text x="65" y="344" text-anchor="end" font-size="11" fill="#333">0</text>
<text x="65" y="194" text-anchor="end" font-size="11" fill="#333">80000</text>
<text x="65" y="44" text-anchor="end" font-size="11" fill="#333">160000</text>
<text x="15" y="190" text-anchor="middle" font-size="12" fill="#333" transform="rotate(-90 15 190)">ms</text>
<polyline points="70,111 148,109 227,109 306,107 385,44 464,45 543,42 622,44 701,148 780,147" fill="none" stroke="#0072B2" stroke-width="2"/>
<polyline points="70,263 148,261 227,263 306,262 385,206 464,205 543,202 622,204 701,265 780,264" fill="none" stroke="#D55E00" stroke-width="2"/>
<polyline points="70,129 148,128 227,130 306,127 385,71 464,70 543,65 622,64 701,164 780,162" fill="none" stroke="#CC79A7" stroke-width="2"/>
<polyline points="70,265 148,265 227,265 306,263 385,209 464,208 543,206 622,206 701,267 780,268" fill="none" stroke="#E69F00" stroke-width="2"/>
<polyline points="70,175 148,174 227,175 306,173 385,123 464,122 543,121 622,122 701,124 780,121" fill="none" stroke="#009E73" stroke-width="2"/>
<circle cx="70" cy="111" r="3" fill="#0072B2"/>
<circle cx="70" cy="263" r="3" fill="#D55E00"/>
<circle cx="70" cy="129" r="3" fill="#CC79A7"/>
<circle cx="70" cy="265" r="3" fill="#E69F00"/>
<circle cx="70" cy="175" r="3" fill="#009E73"/>
<circle cx="148" cy="109" r="3" fill="#0072B2"/>
<circle cx="148" cy="261" r="3" fill="#D55E00"/>
<circle cx="148" cy="128" r="3" fill="#CC79A7"/>
<circle cx="148" cy="265" r="3" fill="#E69F00"/>
<circle cx="148" cy="174" r="3" fill="#009E73"/>
<circle cx="227" cy="109" r="3" fill="#0072B2"/>
<circle cx="227" cy="263" r="3" fill="#D55E00"/>
<circle cx="227" cy="130" r="3" fill="#CC79A7"/>
<circle cx="227" cy="265" r="3" fill="#E69F00"/>
<circle cx="227" cy="175" r="3" fill="#009E73"/>
<circle cx="306" cy="107" r="3" fill="#0072B2"/>
<circle cx="306" cy="262" r="3" fill="#D55E00"/>
<circle cx="306" cy="127" r="3" fill="#CC79A7"/>
<circle cx="306" cy="263" r="3" fill="#E69F00"/>
<circle cx="306" cy="173" r="3" fill="#009E73"/>
<circle cx="385" cy="44" r="3" fill="#0072B2"/>
<circle cx="385" cy="206" r="3" fill="#D55E00"/>
<circle cx="385" cy="71" r="3" fill="#CC79A7"/>
<circle cx="385" cy="209" r="3" fill="#E69F00"/>
<circle cx="385" cy="123" r="3" fill="#009E73"/>
<circle cx="464" cy="45" r="3" fill="#0072B2"/>
<circle cx="464" cy="205" r="3" fill="#D55E00"/>
<circle cx="464" cy="70" r="3" fill="#CC79A7"/>
<circle cx="464" cy="208" r="3" fill="#E69F00"/>
<circle cx="464" cy="122" r="3" fill="#009E73"/>
<circle cx="543" cy="42" r="3" fill="#0072B2"/>
<circle cx="543" cy="202" r="3" fill="#D55E00"/>
<circle cx="543" cy="65" r="3" fill="#CC79A7"/>
<circle cx="543" cy="206" r="3" fill="#E69F00"/>
<circle cx="543" cy="121" r="3" fill="#009E73"/>
<circle cx="622" cy="44" r="3" fill="#0072B2"/>
<circle cx="622" cy="204" r="3" fill="#D55E00"/>
<circle cx="622" cy="64" r="3" fill="#CC79A7"/>
<circle cx="622" cy="206" r="3" fill="#E69F00"/>
<circle cx="622" cy="122" r="3" fill="#009E73"/>
<circle cx="701" cy="148" r="3" fill="#0072B2"/>
<circle cx="701" cy="265" r="3" fill="#D55E00"/>
<circle cx="701" cy="164" r="3" fill="#CC79A7"/>
<circle cx="701" cy="267" r="3" fill="#E69F00"/>
<circle cx="701" cy="124" r="3" fill="#009E73"/>
<circle cx="780" cy="147" r="3" fill="#0072B2"/>
<circle cx="780" cy="264" r="3" fill="#D55E00"/>
<circle cx="780" cy="162" r="3" fill="#CC79A7"/>
<circle cx="780" cy="268" r="3" fill="#E69F00"/>
<circle cx="780" cy="121" r="3" fill="#009E73"/>
<circle cx="90" cy="20" r="4" fill="#0072B2"/>
<text x="98" y="24" text-anchor="start" font-size="12" fill="#0072B2">ctil-i</text>
<circle cx="160" cy="20" r="4" fill="#D55E00"/>
<text x="168" y="24" text-anchor="start" font-size="12" fill="#D55E00">ctil-r</text>
<circle cx="230" cy="20" r="4" fill="#CC79A7"/>
<text x="238" y="24" text-anchor="start" font-size="12" fill="#CC79A7">til-i</text>
<circle cx="290" cy="20" r="4" fill="#E69F00"/>
<text x="298" y="24" text-anchor="start" font-size="12" fill="#E69F00">til-r</text>
<circle cx="350" cy="20" r="4" fill="#009E73"/>
<text x="358" y="24" text-anchor="start" font-size="12" fill="#009E73">Wall</text>
</svg>
