<svg width="800" height="400" xmlns="http://www.w3.org/2000/svg">
<rect width="800" height="400" fill="white"/>
<line x1="70" y1="40" x2="70" y2="340" stroke="#333" stroke-width="1"/>
<line x1="70" y1="340" x2="730" y2="340" stroke="#333" stroke-width="1"/>
<line x1="730" y1="40" x2="730" y2="340" stroke="#333" stroke-width="1"/>
<text x="65" y="344" text-anchor="end" font-size="11" fill="#333">0</text>
<text x="65" y="194" text-anchor="end" font-size="11" fill="#333">172500</text>
<text x="65" y="44" text-anchor="end" font-size="11" fill="#333">345000</text>
<text x="15" y="190" text-anchor="middle" font-size="12" fill="#333" transform="rotate(-90 15 190)">ms</text>
<text x="735" y="344" text-anchor="start" font-size="11" fill="#333">0</text>
<text x="735" y="194" text-anchor="start" font-size="11" fill="#333">8202500000</text>
<text x="735" y="44" text-anchor="start" font-size="11" fill="#333">16405000000</text>
<text x="785" y="190" text-anchor="middle" font-size="12" fill="#333" transform="rotate(90 785 190)">bytes</text>
<polyline points="70,100 143,98 216,92 290,93 363,95 436,87 510,86 583,44 656,41 730,44" fill="none" stroke="#0072B2" stroke-width="2"/>
<polyline points="70,122 143,123 216,117 290,115 363,116 436,110 510,108 583,105 656,102 730,103" fill="none" stroke="#CC79A7" stroke-width="2"/>
<polyline points="70,340 143,340 216,340 290,340 363,340 436,340 510,340 583,340 656,340 730,340" fill="none" stroke="#D55E00" stroke-width="2"/>
<polyline points="70,298 143,297 216,297 290,297 363,298 436,297 510,296 583,296 656,295 730,296" fill="none" stroke="#009E73" stroke-width="2"/>
<polyline points="70,294 143,294 216,294 290,294 363,293 436,292 510,292 583,291 656,290 730,291" fill="none" stroke="#56B4E9" stroke-width="2"/>
<polyline points="70,218 143,218 216,216 290,216 363,214 436,212 510,212 583,209 656,207 730,207" fill="none" stroke="#E69F00" stroke-width="2"/>
<polyline points="70,340 143,340 216,339 290,339 363,339 436,338 510,339 583,339 656,339 730,339" fill="none" stroke="#C44E52" stroke-width="2"/>
<polyline points="70,57 143,57 216,54 290,53 363,50 436,46 510,48 583,43 656,41 730,41" fill="none" stroke="#000000" stroke-width="2"/>
<circle cx="70" cy="100" r="3" fill="#0072B2"/>
<circle cx="70" cy="122" r="3" fill="#CC79A7"/>
<circle cx="70" cy="340" r="3" fill="#D55E00"/>
<circle cx="70" cy="298" r="3" fill="#009E73"/>
<circle cx="70" cy="294" r="3" fill="#56B4E9"/>
<circle cx="70" cy="218" r="3" fill="#E69F00"/>
<circle cx="70" cy="340" r="3" fill="#C44E52"/>
<circle cx="70" cy="57" r="3" fill="#000000"/>
<circle cx="143" cy="98" r="3" fill="#0072B2"/>
<circle cx="143" cy="123" r="3" fill="#CC79A7"/>
<circle cx="143" cy="340" r="3" fill="#D55E00"/>
<circle cx="143" cy="297" r="3" fill="#009E73"/>
<circle cx="143" cy="294" r="3" fill="#56B4E9"/>
<circle cx="143" cy="218" r="3" fill="#E69F00"/>
<circle cx="143" cy="340" r="3" fill="#C44E52"/>
<circle cx="143" cy="57" r="3" fill="#000000"/>
<circle cx="216" cy="92" r="3" fill="#0072B2"/>
<circle cx="216" cy="117" r="3" fill="#CC79A7"/>
<circle cx="216" cy="340" r="3" fill="#D55E00"/>
<circle cx="216" cy="297" r="3" fill="#009E73"/>
<circle cx="216" cy="294" r="3" fill="#56B4E9"/>
<circle cx="216" cy="216" r="3" fill="#E69F00"/>
<circle cx="216" cy="339" r="3" fill="#C44E52"/>
<circle cx="216" cy="54" r="3" fill="#000000"/>
<circle cx="290" cy="93" r="3" fill="#0072B2"/>
<circle cx="290" cy="115" r="3" fill="#CC79A7"/>
<circle cx="290" cy="340" r="3" fill="#D55E00"/>
<circle cx="290" cy="297" r="3" fill="#009E73"/>
<circle cx="290" cy="294" r="3" fill="#56B4E9"/>
<circle cx="290" cy="216" r="3" fill="#E69F00"/>
<circle cx="290" cy="339" r="3" fill="#C44E52"/>
<circle cx="290" cy="53" r="3" fill="#000000"/>
<circle cx="363" cy="95" r="3" fill="#0072B2"/>
<circle cx="363" cy="116" r="3" fill="#CC79A7"/>
<circle cx="363" cy="340" r="3" fill="#D55E00"/>
<circle cx="363" cy="298" r="3" fill="#009E73"/>
<circle cx="363" cy="293" r="3" fill="#56B4E9"/>
<circle cx="363" cy="214" r="3" fill="#E69F00"/>
<circle cx="363" cy="339" r="3" fill="#C44E52"/>
<circle cx="363" cy="50" r="3" fill="#000000"/>
<circle cx="436" cy="87" r="3" fill="#0072B2"/>
<circle cx="436" cy="110" r="3" fill="#CC79A7"/>
<circle cx="436" cy="340" r="3" fill="#D55E00"/>
<circle cx="436" cy="297" r="3" fill="#009E73"/>
<circle cx="436" cy="292" r="3" fill="#56B4E9"/>
<circle cx="436" cy="212" r="3" fill="#E69F00"/>
<circle cx="436" cy="338" r="3" fill="#C44E52"/>
<circle cx="436" cy="46" r="3" fill="#000000"/>
<circle cx="510" cy="86" r="3" fill="#0072B2"/>
<circle cx="510" cy="108" r="3" fill="#CC79A7"/>
<circle cx="510" cy="340" r="3" fill="#D55E00"/>
<circle cx="510" cy="296" r="3" fill="#009E73"/>
<circle cx="510" cy="292" r="3" fill="#56B4E9"/>
<circle cx="510" cy="212" r="3" fill="#E69F00"/>
<circle cx="510" cy="339" r="3" fill="#C44E52"/>
<circle cx="510" cy="48" r="3" fill="#000000"/>
<circle cx="583" cy="44" r="3" fill="#0072B2"/>
<circle cx="583" cy="105" r="3" fill="#CC79A7"/>
<circle cx="583" cy="340" r="3" fill="#D55E00"/>
<circle cx="583" cy="296" r="3" fill="#009E73"/>
<circle cx="583" cy="291" r="3" fill="#56B4E9"/>
<circle cx="583" cy="209" r="3" fill="#E69F00"/>
<circle cx="583" cy="339" r="3" fill="#C44E52"/>
<circle cx="583" cy="43" r="3" fill="#000000"/>
<circle cx="656" cy="41" r="3" fill="#0072B2"/>
<circle cx="656" cy="102" r="3" fill="#CC79A7"/>
<circle cx="656" cy="340" r="3" fill="#D55E00"/>
<circle cx="656" cy="295" r="3" fill="#009E73"/>
<circle cx="656" cy="290" r="3" fill="#56B4E9"/>
<circle cx="656" cy="207" r="3" fill="#E69F00"/>
<circle cx="656" cy="339" r="3" fill="#C44E52"/>
<circle cx="656" cy="41" r="3" fill="#000000"/>
<circle cx="730" cy="44" r="3" fill="#0072B2"/>
<circle cx="730" cy="103" r="3" fill="#CC79A7"/>
<circle cx="730" cy="340" r="3" fill="#D55E00"/>
<circle cx="730" cy="296" r="3" fill="#009E73"/>
<circle cx="730" cy="291" r="3" fill="#56B4E9"/>
<circle cx="730" cy="207" r="3" fill="#E69F00"/>
<circle cx="730" cy="339" r="3" fill="#C44E52"/>
<circle cx="730" cy="41" r="3" fill="#000000"/>
<circle cx="90" cy="20" r="4" fill="#0072B2"/>
<text x="98" y="24" text-anchor="start" font-size="12" fill="#0072B2">inte</text>
<circle cx="150" cy="20" r="4" fill="#CC79A7"/>
<text x="158" y="24" text-anchor="start" font-size="12" fill="#CC79A7">comp</text>
<circle cx="215" cy="20" r="4" fill="#D55E00"/>
<text x="223" y="24" text-anchor="start" font-size="12" fill="#D55E00">run</text>
<circle cx="270" cy="20" r="4" fill="#009E73"/>
<text x="278" y="24" text-anchor="start" font-size="12" fill="#009E73">wall</text>
<circle cx="335" cy="20" r="4" fill="#56B4E9"/>
<text x="343" y="24" text-anchor="start" font-size="12" fill="#56B4E9">mem-inte</text>
<circle cx="425" cy="20" r="4" fill="#E69F00"/>
<text x="433" y="24" text-anchor="start" font-size="12" fill="#E69F00">mem-comp</text>
<circle cx="520" cy="20" r="4" fill="#C44E52"/>
<text x="528" y="24" text-anchor="start" font-size="12" fill="#C44E52">mem-run</text>
<circle cx="605" cy="20" r="4" fill="#000000"/>
<text x="613" y="24" text-anchor="start" font-size="12" fill="#000000">mem-total</text>
</svg>
