<svg width="800" height="400" xmlns="http://www.w3.org/2000/svg">
<rect width="800" height="400" fill="white"/>
<line x1="70" y1="40" x2="70" y2="340" stroke="#333" stroke-width="1"/>
<line x1="70" y1="340" x2="730" y2="340" stroke="#333" stroke-width="1"/>
<line x1="730" y1="40" x2="730" y2="340" stroke="#333" stroke-width="1"/>
<text x="65" y="344" text-anchor="end" font-size="11" fill="#333">0</text>
<text x="65" y="194" text-anchor="end" font-size="11" fill="#333">339500</text>
<text x="65" y="44" text-anchor="end" font-size="11" fill="#333">679000</text>
<text x="15" y="190" text-anchor="middle" font-size="12" fill="#333" transform="rotate(-90 15 190)">ms</text>
<text x="735" y="344" text-anchor="start" font-size="11" fill="#333">0</text>
<text x="735" y="194" text-anchor="start" font-size="11" fill="#333">4965500000</text>
<text x="735" y="44" text-anchor="start" font-size="11" fill="#333">9931000000</text>
<text x="785" y="190" text-anchor="middle" font-size="12" fill="#333" transform="rotate(90 785 190)">bytes</text>
<polyline points="70,99 143,76 216,134 290,79 363,102 436,132 510,157 583,102 656,140 730,108" fill="none" stroke="#0072B2" stroke-width="2"/>
<polyline points="70,41 143,43 216,131 290,76 363,69 436,96 510,134 583,75 656,93 730,80" fill="none" stroke="#CC79A7" stroke-width="2"/>
<polyline points="70,340 143,340 216,340 290,340 363,340 436,340 510,340 583,340 656,340 730,340" fill="none" stroke="#D55E00" stroke-width="2"/>
<polyline points="70,255 143,253 216,273 290,260 363,259 436,269 510,278 583,262 656,270 730,260" fill="none" stroke="#009E73" stroke-width="2"/>
<polyline points="70,271 143,271 216,271 290,271 363,271 436,271 510,289 583,289 656,289 730,272" fill="none" stroke="#56B4E9" stroke-width="2"/>
<polyline points="70,203 143,204 216,204 290,204 363,204 436,203 510,223 583,223 656,223 730,206" fill="none" stroke="#E69F00" stroke-width="2"/>
<polyline points="70,340 143,340 216,340 290,340 363,340 436,340 510,340 583,340 656,340 730,340" fill="none" stroke="#C44E52" stroke-width="2"/>
<polyline points="70,41 143,41 216,42 290,41 363,42 436,41 510,81 583,81 656,81 730,45" fill="none" stroke="#000000" stroke-width="2"/>
<circle cx="70" cy="99" r="3" fill="#0072B2"/>
<circle cx="70" cy="41" r="3" fill="#CC79A7"/>
<circle cx="70" cy="340" r="3" fill="#D55E00"/>
<circle cx="70" cy="255" r="3" fill="#009E73"/>
<circle cx="70" cy="271" r="3" fill="#56B4E9"/>
<circle cx="70" cy="203" r="3" fill="#E69F00"/>
<circle cx="70" cy="340" r="3" fill="#C44E52"/>
<circle cx="70" cy="41" r="3" fill="#000000"/>
<circle cx="143" cy="76" r="3" fill="#0072B2"/>
<circle cx="143" cy="43" r="3" fill="#CC79A7"/>
<circle cx="143" cy="340" r="3" fill="#D55E00"/>
<circle cx="143" cy="253" r="3" fill="#009E73"/>
<circle cx="143" cy="271" r="3" fill="#56B4E9"/>
<circle cx="143" cy="204" r="3" fill="#E69F00"/>
<circle cx="143" cy="340" r="3" fill="#C44E52"/>
<circle cx="143" cy="41" r="3" fill="#000000"/>
<circle cx="216" cy="134" r="3" fill="#0072B2"/>
<circle cx="216" cy="131" r="3" fill="#CC79A7"/>
<circle cx="216" cy="340" r="3" fill="#D55E00"/>
<circle cx="216" cy="273" r="3" fill="#009E73"/>
<circle cx="216" cy="271" r="3" fill="#56B4E9"/>
<circle cx="216" cy="204" r="3" fill="#E69F00"/>
<circle cx="216" cy="340" r="3" fill="#C44E52"/>
<circle cx="216" cy="42" r="3" fill="#000000"/>
<circle cx="290" cy="79" r="3" fill="#0072B2"/>
<circle cx="290" cy="76" r="3" fill="#CC79A7"/>
<circle cx="290" cy="340" r="3" fill="#D55E00"/>
<circle cx="290" cy="260" r="3" fill="#009E73"/>
<circle cx="290" cy="271" r="3" fill="#56B4E9"/>
<circle cx="290" cy="204" r="3" fill="#E69F00"/>
<circle cx="290" cy="340" r="3" fill="#C44E52"/>
<circle cx="290" cy="41" r="3" fill="#000000"/>
<circle cx="363" cy="102" r="3" fill="#0072B2"/>
<circle cx="363" cy="69" r="3" fill="#CC79A7"/>
<circle cx="363" cy="340" r="3" fill="#D55E00"/>
<circle cx="363" cy="259" r="3" fill="#009E73"/>
<circle cx="363" cy="271" r="3" fill="#56B4E9"/>
<circle cx="363" cy="204" r="3" fill="#E69F00"/>
<circle cx="363" cy="340" r="3" fill="#C44E52"/>
<circle cx="363" cy="42" r="3" fill="#000000"/>
<circle cx="436" cy="132" r="3" fill="#0072B2"/>
<circle cx="436" cy="96" r="3" fill="#CC79A7"/>
<circle cx="436" cy="340" r="3" fill="#D55E00"/>
<circle cx="436" cy="269" r="3" fill="#009E73"/>
<circle cx="436" cy="271" r="3" fill="#56B4E9"/>
<circle cx="436" cy="203" r="3" fill="#E69F00"/>
<circle cx="436" cy="340" r="3" fill="#C44E52"/>
<circle cx="436" cy="41" r="3" fill="#000000"/>
<circle cx="510" cy="157" r="3" fill="#0072B2"/>
<circle cx="510" cy="134" r="3" fill="#CC79A7"/>
<circle cx="510" cy="340" r="3" fill="#D55E00"/>
<circle cx="510" cy="278" r="3" fill="#009E73"/>
<circle cx="510" cy="289" r="3" fill="#56B4E9"/>
<circle cx="510" cy="223" r="3" fill="#E69F00"/>
<circle cx="510" cy="340" r="3" fill="#C44E52"/>
<circle cx="510" cy="81" r="3" fill="#000000"/>
<circle cx="583" cy="102" r="3" fill="#0072B2"/>
<circle cx="583" cy="75" r="3" fill="#CC79A7"/>
<circle cx="583" cy="340" r="3" fill="#D55E00"/>
<circle cx="583" cy="262" r="3" fill="#009E73"/>
<circle cx="583" cy="289" r="3" fill="#56B4E9"/>
<circle cx="583" cy="223" r="3" fill="#E69F00"/>
<circle cx="583" cy="340" r="3" fill="#C44E52"/>
<circle cx="583" cy="81" r="3" fill="#000000"/>
<circle cx="656" cy="140" r="3" fill="#0072B2"/>
<circle cx="656" cy="93" r="3" fill="#CC79A7"/>
<circle cx="656" cy="340" r="3" fill="#D55E00"/>
<circle cx="656" cy="270" r="3" fill="#009E73"/>
<circle cx="656" cy="289" r="3" fill="#56B4E9"/>
<circle cx="656" cy="223" r="3" fill="#E69F00"/>
<circle cx="656" cy="340" r="3" fill="#C44E52"/>
<circle cx="656" cy="81" r="3" fill="#000000"/>
<circle cx="730" cy="108" r="3" fill="#0072B2"/>
<circle cx="730" cy="80" r="3" fill="#CC79A7"/>
<circle cx="730" cy="340" r="3" fill="#D55E00"/>
<circle cx="730" cy="260" r="3" fill="#009E73"/>
<circle cx="730" cy="272" r="3" fill="#56B4E9"/>
<circle cx="730" cy="206" r="3" fill="#E69F00"/>
<circle cx="730" cy="340" r="3" fill="#C44E52"/>
<circle cx="730" cy="45" r="3" fill="#000000"/>
<circle cx="90" cy="20" r="4" fill="#0072B2"/>
<text x="98" y="24" text-anchor="start" font-size="12" fill="#0072B2">inte</text>
<circle cx="150" cy="20" r="4" fill="#CC79A7"/>
<text x="158" y="24" text-anchor="start" font-size="12" fill="#CC79A7">comp</text>
<circle cx="215" cy="20" r="4" fill="#D55E00"/>
<text x="223" y="24" text-anchor="start" font-size="12" fill="#D55E00">run</text>
<circle cx="270" cy="20" r="4" fill="#009E73"/>
<text x="278" y="24" text-anchor="start" font-size="12" fill="#009E73">wall</text>
<circle cx="335" cy="20" r="4" fill="#56B4E9"/>
<text x="343" y="24" text-anchor="start" font-size="12" fill="#56B4E9">mem-inte</text>
<circle cx="425" cy="20" r="4" fill="#E69F00"/>
<text x="433" y="24" text-anchor="start" font-size="12" fill="#E69F00">mem-comp</text>
<circle cx="520" cy="20" r="4" fill="#C44E52"/>
<text x="528" y="24" text-anchor="start" font-size="12" fill="#C44E52">mem-run</text>
<circle cx="605" cy="20" r="4" fill="#000000"/>
<text x="613" y="24" text-anchor="start" font-size="12" fill="#000000">mem-total</text>
</svg>
