<svg width="800" height="400" xmlns="http://www.w3.org/2000/svg">
<rect width="800" height="400" fill="white"/>
<line x1="70" y1="40" x2="70" y2="340" stroke="#333" stroke-width="1"/>
<line x1="70" y1="340" x2="730" y2="340" stroke="#333" stroke-width="1"/>
<line x1="730" y1="40" x2="730" y2="340" stroke="#333" stroke-width="1"/>
<text x="65" y="344" text-anchor="end" font-size="11" fill="#333">0</text>
<text x="65" y="194" text-anchor="end" font-size="11" fill="#333">133000</text>
<text x="65" y="44" text-anchor="end" font-size="11" fill="#333">266000</text>
<text x="15" y="190" text-anchor="middle" font-size="12" fill="#333" transform="rotate(-90 15 190)">ms</text>
<text x="735" y="344" text-anchor="start" font-size="11" fill="#333">0</text>
<text x="735" y="194" text-anchor="start" font-size="11" fill="#333">5865000000</text>
<text x="735" y="44" text-anchor="start" font-size="11" fill="#333">11730000000</text>
<text x="785" y="190" text-anchor="middle" font-size="12" fill="#333" transform="rotate(90 785 190)">bytes</text>
<polyline points="70,83 143,70 216,67 290,71 363,75 436,211 510,217 583,209 656,200 730,200" fill="none" stroke="#0072B2" stroke-width="2"/>
<polyline points="70,49 143,43 216,41 290,45 363,50 436,199 510,205 583,195 656,186 730,187" fill="none" stroke="#CC79A7" stroke-width="2"/>
<polyline points="70,340 143,340 216,340 290,340 363,340 436,340 510,340 583,340 656,340 730,340" fill="none" stroke="#D55E00" stroke-width="2"/>
<polyline points="70,102 143,92 216,90 290,93 363,97 436,217 510,223 583,215 656,206 730,207" fill="none" stroke="#009E73" stroke-width="2"/>
<polyline points="70,246 143,246 216,246 290,246 363,246 436,246 510,246 583,246 656,246 730,246" fill="none" stroke="#56B4E9" stroke-width="2"/>
<polyline points="70,193 143,188 216,190 290,193 363,190 436,201 510,197 583,194 656,197 730,197" fill="none" stroke="#E69F00" stroke-width="2"/>
<polyline points="70,340 143,340 216,340 290,340 363,340 436,340 510,340 583,340 656,340 730,340" fill="none" stroke="#C44E52" stroke-width="2"/>
<polyline points="70,46 143,41 216,42 290,46 363,44 436,55 510,51 583,50 656,53 730,51" fill="none" stroke="#000000" stroke-width="2"/>
<circle cx="70" cy="83" r="3" fill="#0072B2"/>
<circle cx="70" cy="49" r="3" fill="#CC79A7"/>
<circle cx="70" cy="340" r="3" fill="#D55E00"/>
<circle cx="70" cy="102" r="3" fill="#009E73"/>
<circle cx="70" cy="246" r="3" fill="#56B4E9"/>
<circle cx="70" cy="193" r="3" fill="#E69F00"/>
<circle cx="70" cy="340" r="3" fill="#C44E52"/>
<circle cx="70" cy="46" r="3" fill="#000000"/>
<circle cx="143" cy="70" r="3" fill="#0072B2"/>
<circle cx="143" cy="43" r="3" fill="#CC79A7"/>
<circle cx="143" cy="340" r="3" fill="#D55E00"/>
<circle cx="143" cy="92" r="3" fill="#009E73"/>
<circle cx="143" cy="246" r="3" fill="#56B4E9"/>
<circle cx="143" cy="188" r="3" fill="#E69F00"/>
<circle cx="143" cy="340" r="3" fill="#C44E52"/>
<circle cx="143" cy="41" r="3" fill="#000000"/>
<circle cx="216" cy="67" r="3" fill="#0072B2"/>
<circle cx="216" cy="41" r="3" fill="#CC79A7"/>
<circle cx="216" cy="340" r="3" fill="#D55E00"/>
<circle cx="216" cy="90" r="3" fill="#009E73"/>
<circle cx="216" cy="246" r="3" fill="#56B4E9"/>
<circle cx="216" cy="190" r="3" fill="#E69F00"/>
<circle cx="216" cy="340" r="3" fill="#C44E52"/>
<circle cx="216" cy="42" r="3" fill="#000000"/>
<circle cx="290" cy="71" r="3" fill="#0072B2"/>
<circle cx="290" cy="45" r="3" fill="#CC79A7"/>
<circle cx="290" cy="340" r="3" fill="#D55E00"/>
<circle cx="290" cy="93" r="3" fill="#009E73"/>
<circle cx="290" cy="246" r="3" fill="#56B4E9"/>
<circle cx="290" cy="193" r="3" fill="#E69F00"/>
<circle cx="290" cy="340" r="3" fill="#C44E52"/>
<circle cx="290" cy="46" r="3" fill="#000000"/>
<circle cx="363" cy="75" r="3" fill="#0072B2"/>
<circle cx="363" cy="50" r="3" fill="#CC79A7"/>
<circle cx="363" cy="340" r="3" fill="#D55E00"/>
<circle cx="363" cy="97" r="3" fill="#009E73"/>
<circle cx="363" cy="246" r="3" fill="#56B4E9"/>
<circle cx="363" cy="190" r="3" fill="#E69F00"/>
<circle cx="363" cy="340" r="3" fill="#C44E52"/>
<circle cx="363" cy="44" r="3" fill="#000000"/>
<circle cx="436" cy="211" r="3" fill="#0072B2"/>
<circle cx="436" cy="199" r="3" fill="#CC79A7"/>
<circle cx="436" cy="340" r="3" fill="#D55E00"/>
<circle cx="436" cy="217" r="3" fill="#009E73"/>
<circle cx="436" cy="246" r="3" fill="#56B4E9"/>
<circle cx="436" cy="201" r="3" fill="#E69F00"/>
<circle cx="436" cy="340" r="3" fill="#C44E52"/>
<circle cx="436" cy="55" r="3" fill="#000000"/>
<circle cx="510" cy="217" r="3" fill="#0072B2"/>
<circle cx="510" cy="205" r="3" fill="#CC79A7"/>
<circle cx="510" cy="340" r="3" fill="#D55E00"/>
<circle cx="510" cy="223" r="3" fill="#009E73"/>
<circle cx="510" cy="246" r="3" fill="#56B4E9"/>
<circle cx="510" cy="197" r="3" fill="#E69F00"/>
<circle cx="510" cy="340" r="3" fill="#C44E52"/>
<circle cx="510" cy="51" r="3" fill="#000000"/>
<circle cx="583" cy="209" r="3" fill="#0072B2"/>
<circle cx="583" cy="195" r="3" fill="#CC79A7"/>
<circle cx="583" cy="340" r="3" fill="#D55E00"/>
<circle cx="583" cy="215" r="3" fill="#009E73"/>
<circle cx="583" cy="246" r="3" fill="#56B4E9"/>
<circle cx="583" cy="194" r="3" fill="#E69F00"/>
<circle cx="583" cy="340" r="3" fill="#C44E52"/>
<circle cx="583" cy="50" r="3" fill="#000000"/>
<circle cx="656" cy="200" r="3" fill="#0072B2"/>
<circle cx="656" cy="186" r="3" fill="#CC79A7"/>
<circle cx="656" cy="340" r="3" fill="#D55E00"/>
<circle cx="656" cy="206" r="3" fill="#009E73"/>
<circle cx="656" cy="246" r="3" fill="#56B4E9"/>
<circle cx="656" cy="197" r="3" fill="#E69F00"/>
<circle cx="656" cy="340" r="3" fill="#C44E52"/>
<circle cx="656" cy="53" r="3" fill="#000000"/>
<circle cx="730" cy="200" r="3" fill="#0072B2"/>
<circle cx="730" cy="187" r="3" fill="#CC79A7"/>
<circle cx="730" cy="340" r="3" fill="#D55E00"/>
<circle cx="730" cy="207" r="3" fill="#009E73"/>
<circle cx="730" cy="246" r="3" fill="#56B4E9"/>
<circle cx="730" cy="197" r="3" fill="#E69F00"/>
<circle cx="730" cy="340" r="3" fill="#C44E52"/>
<circle cx="730" cy="51" r="3" fill="#000000"/>
<circle cx="90" cy="20" r="4" fill="#0072B2"/>
<text x="98" y="24" text-anchor="start" font-size="12" fill="#0072B2">inte</text>
<circle cx="150" cy="20" r="4" fill="#CC79A7"/>
<text x="158" y="24" text-anchor="start" font-size="12" fill="#CC79A7">comp</text>
<circle cx="215" cy="20" r="4" fill="#D55E00"/>
<text x="223" y="24" text-anchor="start" font-size="12" fill="#D55E00">run</text>
<circle cx="270" cy="20" r="4" fill="#009E73"/>
<text x="278" y="24" text-anchor="start" font-size="12" fill="#009E73">wall</text>
<circle cx="335" cy="20" r="4" fill="#56B4E9"/>
<text x="343" y="24" text-anchor="start" font-size="12" fill="#56B4E9">mem-inte</text>
<circle cx="425" cy="20" r="4" fill="#E69F00"/>
<text x="433" y="24" text-anchor="start" font-size="12" fill="#E69F00">mem-comp</text>
<circle cx="520" cy="20" r="4" fill="#C44E52"/>
<text x="528" y="24" text-anchor="start" font-size="12" fill="#C44E52">mem-run</text>
<circle cx="605" cy="20" r="4" fill="#000000"/>
<text x="613" y="24" text-anchor="start" font-size="12" fill="#000000">mem-total</text>
</svg>
