<svg width="800" height="400" xmlns="http://www.w3.org/2000/svg">
<rect width="800" height="400" fill="white"/>
<line x1="70" y1="40" x2="70" y2="340" stroke="#333" stroke-width="1"/>
<line x1="70" y1="340" x2="730" y2="340" stroke="#333" stroke-width="1"/>
<line x1="730" y1="40" x2="730" y2="340" stroke="#333" stroke-width="1"/>
<text x="65" y="344" text-anchor="end" font-size="11" fill="#333">0</text>
<text x="65" y="194" text-anchor="end" font-size="11" fill="#333">283500</text>
<text x="65" y="44" text-anchor="end" font-size="11" fill="#333">567000</text>
<text x="15" y="190" text-anchor="middle" font-size="12" fill="#333" transform="rotate(-90 15 190)">ms</text>
<text x="735" y="344" text-anchor="start" font-size="11" fill="#333">0</text>
<text x="735" y="194" text-anchor="start" font-size="11" fill="#333">6231000000</text>
<text x="735" y="44" text-anchor="start" font-size="11" fill="#333">12462000000</text>
<text x="785" y="190" text-anchor="middle" font-size="12" fill="#333" transform="rotate(90 785 190)">bytes</text>
<polyline points="70,134 143,127 216,124 290,109 363,93 436,85 510,282 583,275 656,256 730,283" fill="none" stroke="#0072B2" stroke-width="2"/>
<polyline points="70,88 143,89 216,90 290,90 363,67 436,41 510,275 583,268 656,247 730,279" fill="none" stroke="#CC79A7" stroke-width="2"/>
<polyline points="70,340 143,340 216,340 290,340 363,340 436,340 510,340 583,340 656,340 730,340" fill="none" stroke="#D55E00" stroke-width="2"/>
<polyline points="70,268 143,268 216,269 290,267 363,260 436,256 510,284 583,275 656,258 730,287" fill="none" stroke="#009E73" stroke-width="2"/>
<polyline points="70,250 143,249 216,249 290,249 363,249 436,249 510,251 583,249 656,249 730,249" fill="none" stroke="#56B4E9" stroke-width="2"/>
<polyline points="70,201 143,198 216,199 290,202 363,195 436,190 510,207 583,202 656,205 730,205" fill="none" stroke="#E69F00" stroke-width="2"/>
<polyline points="70,340 143,340 216,340 290,340 363,340 436,340 510,340 583,340 656,340 730,340" fill="none" stroke="#C44E52" stroke-width="2"/>
<polyline points="70,51 143,49 216,50 290,53 363,46 436,41 510,67 583,61 656,64 730,65" fill="none" stroke="#000000" stroke-width="2"/>
<circle cx="70" cy="134" r="3" fill="#0072B2"/>
<circle cx="70" cy="88" r="3" fill="#CC79A7"/>
<circle cx="70" cy="340" r="3" fill="#D55E00"/>
<circle cx="70" cy="268" r="3" fill="#009E73"/>
<circle cx="70" cy="250" r="3" fill="#56B4E9"/>
<circle cx="70" cy="201" r="3" fill="#E69F00"/>
<circle cx="70" cy="340" r="3" fill="#C44E52"/>
<circle cx="70" cy="51" r="3" fill="#000000"/>
<circle cx="143" cy="127" r="3" fill="#0072B2"/>
<circle cx="143" cy="89" r="3" fill="#CC79A7"/>
<circle cx="143" cy="340" r="3" fill="#D55E00"/>
<circle cx="143" cy="268" r="3" fill="#009E73"/>
<circle cx="143" cy="249" r="3" fill="#56B4E9"/>
<circle cx="143" cy="198" r="3" fill="#E69F00"/>
<circle cx="143" cy="340" r="3" fill="#C44E52"/>
<circle cx="143" cy="49" r="3" fill="#000000"/>
<circle cx="216" cy="124" r="3" fill="#0072B2"/>
<circle cx="216" cy="90" r="3" fill="#CC79A7"/>
<circle cx="216" cy="340" r="3" fill="#D55E00"/>
<circle cx="216" cy="269" r="3" fill="#009E73"/>
<circle cx="216" cy="249" r="3" fill="#56B4E9"/>
<circle cx="216" cy="199" r="3" fill="#E69F00"/>
<circle cx="216" cy="340" r="3" fill="#C44E52"/>
<circle cx="216" cy="50" r="3" fill="#000000"/>
<circle cx="290" cy="109" r="3" fill="#0072B2"/>
<circle cx="290" cy="90" r="3" fill="#CC79A7"/>
<circle cx="290" cy="340" r="3" fill="#D55E00"/>
<circle cx="290" cy="267" r="3" fill="#009E73"/>
<circle cx="290" cy="249" r="3" fill="#56B4E9"/>
<circle cx="290" cy="202" r="3" fill="#E69F00"/>
<circle cx="290" cy="340" r="3" fill="#C44E52"/>
<circle cx="290" cy="53" r="3" fill="#000000"/>
<circle cx="363" cy="93" r="3" fill="#0072B2"/>
<circle cx="363" cy="67" r="3" fill="#CC79A7"/>
<circle cx="363" cy="340" r="3" fill="#D55E00"/>
<circle cx="363" cy="260" r="3" fill="#009E73"/>
<circle cx="363" cy="249" r="3" fill="#56B4E9"/>
<circle cx="363" cy="195" r="3" fill="#E69F00"/>
<circle cx="363" cy="340" r="3" fill="#C44E52"/>
<circle cx="363" cy="46" r="3" fill="#000000"/>
<circle cx="436" cy="85" r="3" fill="#0072B2"/>
<circle cx="436" cy="41" r="3" fill="#CC79A7"/>
<circle cx="436" cy="340" r="3" fill="#D55E00"/>
<circle cx="436" cy="256" r="3" fill="#009E73"/>
<circle cx="436" cy="249" r="3" fill="#56B4E9"/>
<circle cx="436" cy="190" r="3" fill="#E69F00"/>
<circle cx="436" cy="340" r="3" fill="#C44E52"/>
<circle cx="436" cy="41" r="3" fill="#000000"/>
<circle cx="510" cy="282" r="3" fill="#0072B2"/>
<circle cx="510" cy="275" r="3" fill="#CC79A7"/>
<circle cx="510" cy="340" r="3" fill="#D55E00"/>
<circle cx="510" cy="284" r="3" fill="#009E73"/>
<circle cx="510" cy="251" r="3" fill="#56B4E9"/>
<circle cx="510" cy="207" r="3" fill="#E69F00"/>
<circle cx="510" cy="340" r="3" fill="#C44E52"/>
<circle cx="510" cy="67" r="3" fill="#000000"/>
<circle cx="583" cy="275" r="3" fill="#0072B2"/>
<circle cx="583" cy="268" r="3" fill="#CC79A7"/>
<circle cx="583" cy="340" r="3" fill="#D55E00"/>
<circle cx="583" cy="275" r="3" fill="#009E73"/>
<circle cx="583" cy="249" r="3" fill="#56B4E9"/>
<circle cx="583" cy="202" r="3" fill="#E69F00"/>
<circle cx="583" cy="340" r="3" fill="#C44E52"/>
<circle cx="583" cy="61" r="3" fill="#000000"/>
<circle cx="656" cy="256" r="3" fill="#0072B2"/>
<circle cx="656" cy="247" r="3" fill="#CC79A7"/>
<circle cx="656" cy="340" r="3" fill="#D55E00"/>
<circle cx="656" cy="258" r="3" fill="#009E73"/>
<circle cx="656" cy="249" r="3" fill="#56B4E9"/>
<circle cx="656" cy="205" r="3" fill="#E69F00"/>
<circle cx="656" cy="340" r="3" fill="#C44E52"/>
<circle cx="656" cy="64" r="3" fill="#000000"/>
<circle cx="730" cy="283" r="3" fill="#0072B2"/>
<circle cx="730" cy="279" r="3" fill="#CC79A7"/>
<circle cx="730" cy="340" r="3" fill="#D55E00"/>
<circle cx="730" cy="287" r="3" fill="#009E73"/>
<circle cx="730" cy="249" r="3" fill="#56B4E9"/>
<circle cx="730" cy="205" r="3" fill="#E69F00"/>
<circle cx="730" cy="340" r="3" fill="#C44E52"/>
<circle cx="730" cy="65" r="3" fill="#000000"/>
<circle cx="90" cy="20" r="4" fill="#0072B2"/>
<text x="98" y="24" text-anchor="start" font-size="12" fill="#0072B2">inte</text>
<circle cx="150" cy="20" r="4" fill="#CC79A7"/>
<text x="158" y="24" text-anchor="start" font-size="12" fill="#CC79A7">comp</text>
<circle cx="215" cy="20" r="4" fill="#D55E00"/>
<text x="223" y="24" text-anchor="start" font-size="12" fill="#D55E00">run</text>
<circle cx="270" cy="20" r="4" fill="#009E73"/>
<text x="278" y="24" text-anchor="start" font-size="12" fill="#009E73">wall</text>
<circle cx="335" cy="20" r="4" fill="#56B4E9"/>
<text x="343" y="24" text-anchor="start" font-size="12" fill="#56B4E9">mem-inte</text>
<circle cx="425" cy="20" r="4" fill="#E69F00"/>
<text x="433" y="24" text-anchor="start" font-size="12" fill="#E69F00">mem-comp</text>
<circle cx="520" cy="20" r="4" fill="#C44E52"/>
<text x="528" y="24" text-anchor="start" font-size="12" fill="#C44E52">mem-run</text>
<circle cx="605" cy="20" r="4" fill="#000000"/>
<text x="613" y="24" text-anchor="start" font-size="12" fill="#000000">mem-total</text>
</svg>
