<svg width="800" height="400" xmlns="http://www.w3.org/2000/svg">
<rect width="800" height="400" fill="white"/>
<line x1="70" y1="40" x2="70" y2="340" stroke="#333" stroke-width="1"/>
<line x1="70" y1="340" x2="730" y2="340" stroke="#333" stroke-width="1"/>
<line x1="730" y1="40" x2="730" y2="340" stroke="#333" stroke-width="1"/>
<text x="65" y="344" text-anchor="end" font-size="11" fill="#333">0</text>
<text x="65" y="194" text-anchor="end" font-size="11" fill="#333">50500</text>
<text x="65" y="44" text-anchor="end" font-size="11" fill="#333">101000</text>
<text x="15" y="190" text-anchor="middle" font-size="12" fill="#333" transform="rotate(-90 15 190)">ms</text>
<text x="735" y="344" text-anchor="start" font-size="11" fill="#333">0</text>
<text x="735" y="194" text-anchor="start" font-size="11" fill="#333">5421500000</text>
<text x="735" y="44" text-anchor="start" font-size="11" fill="#333">10843000000</text>
<text x="785" y="190" text-anchor="middle" font-size="12" fill="#333" transform="rotate(90 785 190)">bytes</text>
<polyline points="70,83 143,87 216,82 290,81 363,82 436,81 510,85 583,87 656,86 730,82" fill="none" stroke="#0072B2" stroke-width="2"/>
<polyline points="70,47 143,52 216,48 290,43 363,46 436,44 510,45 583,48 656,49 730,44" fill="none" stroke="#CC79A7" stroke-width="2"/>
<polyline points="70,339 143,339 216,339 290,339 363,339 436,339 510,339 583,339 656,339 730,339" fill="none" stroke="#D55E00" stroke-width="2"/>
<polyline points="70,302 143,302 216,302 290,301 363,302 436,297 510,297 583,298 656,297 730,302" fill="none" stroke="#009E73" stroke-width="2"/>
<polyline points="70,269 143,274 216,274 290,275 363,276 436,271 510,273 583,275 656,274 730,270" fill="none" stroke="#56B4E9" stroke-width="2"/>
<polyline points="70,195 143,200 216,200 290,200 363,200 436,200 510,200 583,200 656,200 730,200" fill="none" stroke="#E69F00" stroke-width="2"/>
<polyline points="70,340 143,340 216,340 290,340 363,340 436,340 510,340 583,340 656,340 730,340" fill="none" stroke="#C44E52" stroke-width="2"/>
<polyline points="70,41 143,52 216,52 290,53 363,53 436,42 510,43 583,46 656,45 730,47" fill="none" stroke="#000000" stroke-width="2"/>
<circle cx="70" cy="83" r="3" fill="#0072B2"/>
<circle cx="70" cy="47" r="3" fill="#CC79A7"/>
<circle cx="70" cy="339" r="3" fill="#D55E00"/>
<circle cx="70" cy="302" r="3" fill="#009E73"/>
<circle cx="70" cy="269" r="3" fill="#56B4E9"/>
<circle cx="70" cy="195" r="3" fill="#E69F00"/>
<circle cx="70" cy="340" r="3" fill="#C44E52"/>
<circle cx="70" cy="41" r="3" fill="#000000"/>
<circle cx="143" cy="87" r="3" fill="#0072B2"/>
<circle cx="143" cy="52" r="3" fill="#CC79A7"/>
<circle cx="143" cy="339" r="3" fill="#D55E00"/>
<circle cx="143" cy="302" r="3" fill="#009E73"/>
<circle cx="143" cy="274" r="3" fill="#56B4E9"/>
<circle cx="143" cy="200" r="3" fill="#E69F00"/>
<circle cx="143" cy="340" r="3" fill="#C44E52"/>
<circle cx="143" cy="52" r="3" fill="#000000"/>
<circle cx="216" cy="82" r="3" fill="#0072B2"/>
<circle cx="216" cy="48" r="3" fill="#CC79A7"/>
<circle cx="216" cy="339" r="3" fill="#D55E00"/>
<circle cx="216" cy="302" r="3" fill="#009E73"/>
<circle cx="216" cy="274" r="3" fill="#56B4E9"/>
<circle cx="216" cy="200" r="3" fill="#E69F00"/>
<circle cx="216" cy="340" r="3" fill="#C44E52"/>
<circle cx="216" cy="52" r="3" fill="#000000"/>
<circle cx="290" cy="81" r="3" fill="#0072B2"/>
<circle cx="290" cy="43" r="3" fill="#CC79A7"/>
<circle cx="290" cy="339" r="3" fill="#D55E00"/>
<circle cx="290" cy="301" r="3" fill="#009E73"/>
<circle cx="290" cy="275" r="3" fill="#56B4E9"/>
<circle cx="290" cy="200" r="3" fill="#E69F00"/>
<circle cx="290" cy="340" r="3" fill="#C44E52"/>
<circle cx="290" cy="53" r="3" fill="#000000"/>
<circle cx="363" cy="82" r="3" fill="#0072B2"/>
<circle cx="363" cy="46" r="3" fill="#CC79A7"/>
<circle cx="363" cy="339" r="3" fill="#D55E00"/>
<circle cx="363" cy="302" r="3" fill="#009E73"/>
<circle cx="363" cy="276" r="3" fill="#56B4E9"/>
<circle cx="363" cy="200" r="3" fill="#E69F00"/>
<circle cx="363" cy="340" r="3" fill="#C44E52"/>
<circle cx="363" cy="53" r="3" fill="#000000"/>
<circle cx="436" cy="81" r="3" fill="#0072B2"/>
<circle cx="436" cy="44" r="3" fill="#CC79A7"/>
<circle cx="436" cy="339" r="3" fill="#D55E00"/>
<circle cx="436" cy="297" r="3" fill="#009E73"/>
<circle cx="436" cy="271" r="3" fill="#56B4E9"/>
<circle cx="436" cy="200" r="3" fill="#E69F00"/>
<circle cx="436" cy="340" r="3" fill="#C44E52"/>
<circle cx="436" cy="42" r="3" fill="#000000"/>
<circle cx="510" cy="85" r="3" fill="#0072B2"/>
<circle cx="510" cy="45" r="3" fill="#CC79A7"/>
<circle cx="510" cy="339" r="3" fill="#D55E00"/>
<circle cx="510" cy="297" r="3" fill="#009E73"/>
<circle cx="510" cy="273" r="3" fill="#56B4E9"/>
<circle cx="510" cy="200" r="3" fill="#E69F00"/>
<circle cx="510" cy="340" r="3" fill="#C44E52"/>
<circle cx="510" cy="43" r="3" fill="#000000"/>
<circle cx="583" cy="87" r="3" fill="#0072B2"/>
<circle cx="583" cy="48" r="3" fill="#CC79A7"/>
<circle cx="583" cy="339" r="3" fill="#D55E00"/>
<circle cx="583" cy="298" r="3" fill="#009E73"/>
<circle cx="583" cy="275" r="3" fill="#56B4E9"/>
<circle cx="583" cy="200" r="3" fill="#E69F00"/>
<circle cx="583" cy="340" r="3" fill="#C44E52"/>
<circle cx="583" cy="46" r="3" fill="#000000"/>
<circle cx="656" cy="86" r="3" fill="#0072B2"/>
<circle cx="656" cy="49" r="3" fill="#CC79A7"/>
<circle cx="656" cy="339" r="3" fill="#D55E00"/>
<circle cx="656" cy="297" r="3" fill="#009E73"/>
<circle cx="656" cy="274" r="3" fill="#56B4E9"/>
<circle cx="656" cy="200" r="3" fill="#E69F00"/>
<circle cx="656" cy="340" r="3" fill="#C44E52"/>
<circle cx="656" cy="45" r="3" fill="#000000"/>
<circle cx="730" cy="82" r="3" fill="#0072B2"/>
<circle cx="730" cy="44" r="3" fill="#CC79A7"/>
<circle cx="730" cy="339" r="3" fill="#D55E00"/>
<circle cx="730" cy="302" r="3" fill="#009E73"/>
<circle cx="730" cy="270" r="3" fill="#56B4E9"/>
<circle cx="730" cy="200" r="3" fill="#E69F00"/>
<circle cx="730" cy="340" r="3" fill="#C44E52"/>
<circle cx="730" cy="47" r="3" fill="#000000"/>
<circle cx="90" cy="20" r="4" fill="#0072B2"/>
<text x="98" y="24" text-anchor="start" font-size="12" fill="#0072B2">inte</text>
<circle cx="150" cy="20" r="4" fill="#CC79A7"/>
<text x="158" y="24" text-anchor="start" font-size="12" fill="#CC79A7">comp</text>
<circle cx="215" cy="20" r="4" fill="#D55E00"/>
<text x="223" y="24" text-anchor="start" font-size="12" fill="#D55E00">run</text>
<circle cx="270" cy="20" r="4" fill="#009E73"/>
<text x="278" y="24" text-anchor="start" font-size="12" fill="#009E73">wall</text>
<circle cx="335" cy="20" r="4" fill="#56B4E9"/>
<text x="343" y="24" text-anchor="start" font-size="12" fill="#56B4E9">mem-inte</text>
<circle cx="425" cy="20" r="4" fill="#E69F00"/>
<text x="433" y="24" text-anchor="start" font-size="12" fill="#E69F00">mem-comp</text>
<circle cx="520" cy="20" r="4" fill="#C44E52"/>
<text x="528" y="24" text-anchor="start" font-size="12" fill="#C44E52">mem-run</text>
<circle cx="605" cy="20" r="4" fill="#000000"/>
<text x="613" y="24" text-anchor="start" font-size="12" fill="#000000">mem-total</text>
</svg>
