<svg width="800" height="400" xmlns="http://www.w3.org/2000/svg">
<rect width="800" height="400" fill="white"/>
<line x1="70" y1="40" x2="70" y2="340" stroke="#333" stroke-width="1"/>
<line x1="70" y1="340" x2="730" y2="340" stroke="#333" stroke-width="1"/>
<line x1="730" y1="40" x2="730" y2="340" stroke="#333" stroke-width="1"/>
<text x="65" y="344" text-anchor="end" font-size="11" fill="#333">0</text>
<text x="65" y="194" text-anchor="end" font-size="11" fill="#333">120000</text>
<text x="65" y="44" text-anchor="end" font-size="11" fill="#333">240000</text>
<text x="15" y="190" text-anchor="middle" font-size="12" fill="#333" transform="rotate(-90 15 190)">ms</text>
<text x="735" y="344" text-anchor="start" font-size="11" fill="#333">0</text>
<text x="735" y="194" text-anchor="start" font-size="11" fill="#333">9820000000</text>
<text x="735" y="44" text-anchor="start" font-size="11" fill="#333">19640000000</text>
<text x="785" y="190" text-anchor="middle" font-size="12" fill="#333" transform="rotate(90 785 190)">bytes</text>
<polyline points="70,187 143,180 216,181 290,183 363,154 436,161 510,177 583,152 656,171 730,104" fill="none" stroke="#0072B2" stroke-width="2"/>
<polyline points="70,141 143,124 216,125 290,136 363,105 436,103 510,124 583,102 656,117 730,41" fill="none" stroke="#CC79A7" stroke-width="2"/>
<polyline points="70,340 143,339 216,340 290,340 363,340 436,339 510,340 583,340 656,340 730,339" fill="none" stroke="#D55E00" stroke-width="2"/>
<polyline points="70,297 143,295 216,296 290,296 363,288 436,291 510,295 583,288 656,293 730,275" fill="none" stroke="#009E73" stroke-width="2"/>
<polyline points="70,233 143,230 216,233 290,231 363,229 436,228 510,227 583,229 656,230 730,227" fill="none" stroke="#56B4E9" stroke-width="2"/>
<polyline points="70,224 143,224 216,225 290,226 363,225 436,224 510,225 583,224 656,225 730,224" fill="none" stroke="#E69F00" stroke-width="2"/>
<polyline points="70,339 143,339 216,339 290,339 363,339 436,338 510,339 583,339 656,338 730,337" fill="none" stroke="#C44E52" stroke-width="2"/>
<polyline points="70,61 143,43 216,62 290,45 363,58 436,57 510,41 583,60 656,60 730,49" fill="none" stroke="#000000" stroke-width="2"/>
<circle cx="70" cy="187" r="3" fill="#0072B2"/>
<circle cx="70" cy="141" r="3" fill="#CC79A7"/>
<circle cx="70" cy="340" r="3" fill="#D55E00"/>
<circle cx="70" cy="297" r="3" fill="#009E73"/>
<circle cx="70" cy="233" r="3" fill="#56B4E9"/>
<circle cx="70" cy="224" r="3" fill="#E69F00"/>
<circle cx="70" cy="339" r="3" fill="#C44E52"/>
<circle cx="70" cy="61" r="3" fill="#000000"/>
<circle cx="143" cy="180" r="3" fill="#0072B2"/>
<circle cx="143" cy="124" r="3" fill="#CC79A7"/>
<circle cx="143" cy="339" r="3" fill="#D55E00"/>
<circle cx="143" cy="295" r="3" fill="#009E73"/>
<circle cx="143" cy="230" r="3" fill="#56B4E9"/>
<circle cx="143" cy="224" r="3" fill="#E69F00"/>
<circle cx="143" cy="339" r="3" fill="#C44E52"/>
<circle cx="143" cy="43" r="3" fill="#000000"/>
<circle cx="216" cy="181" r="3" fill="#0072B2"/>
<circle cx="216" cy="125" r="3" fill="#CC79A7"/>
<circle cx="216" cy="340" r="3" fill="#D55E00"/>
<circle cx="216" cy="296" r="3" fill="#009E73"/>
<circle cx="216" cy="233" r="3" fill="#56B4E9"/>
<circle cx="216" cy="225" r="3" fill="#E69F00"/>
<circle cx="216" cy="339" r="3" fill="#C44E52"/>
<circle cx="216" cy="62" r="3" fill="#000000"/>
<circle cx="290" cy="183" r="3" fill="#0072B2"/>
<circle cx="290" cy="136" r="3" fill="#CC79A7"/>
<circle cx="290" cy="340" r="3" fill="#D55E00"/>
<circle cx="290" cy="296" r="3" fill="#009E73"/>
<circle cx="290" cy="231" r="3" fill="#56B4E9"/>
<circle cx="290" cy="226" r="3" fill="#E69F00"/>
<circle cx="290" cy="339" r="3" fill="#C44E52"/>
<circle cx="290" cy="45" r="3" fill="#000000"/>
<circle cx="363" cy="154" r="3" fill="#0072B2"/>
<circle cx="363" cy="105" r="3" fill="#CC79A7"/>
<circle cx="363" cy="340" r="3" fill="#D55E00"/>
<circle cx="363" cy="288" r="3" fill="#009E73"/>
<circle cx="363" cy="229" r="3" fill="#56B4E9"/>
<circle cx="363" cy="225" r="3" fill="#E69F00"/>
<circle cx="363" cy="339" r="3" fill="#C44E52"/>
<circle cx="363" cy="58" r="3" fill="#000000"/>
<circle cx="436" cy="161" r="3" fill="#0072B2"/>
<circle cx="436" cy="103" r="3" fill="#CC79A7"/>
<circle cx="436" cy="339" r="3" fill="#D55E00"/>
<circle cx="436" cy="291" r="3" fill="#009E73"/>
<circle cx="436" cy="228" r="3" fill="#56B4E9"/>
<circle cx="436" cy="224" r="3" fill="#E69F00"/>
<circle cx="436" cy="338" r="3" fill="#C44E52"/>
<circle cx="436" cy="57" r="3" fill="#000000"/>
<circle cx="510" cy="177" r="3" fill="#0072B2"/>
<circle cx="510" cy="124" r="3" fill="#CC79A7"/>
<circle cx="510" cy="340" r="3" fill="#D55E00"/>
<circle cx="510" cy="295" r="3" fill="#009E73"/>
<circle cx="510" cy="227" r="3" fill="#56B4E9"/>
<circle cx="510" cy="225" r="3" fill="#E69F00"/>
<circle cx="510" cy="339" r="3" fill="#C44E52"/>
<circle cx="510" cy="41" r="3" fill="#000000"/>
<circle cx="583" cy="152" r="3" fill="#0072B2"/>
<circle cx="583" cy="102" r="3" fill="#CC79A7"/>
<circle cx="583" cy="340" r="3" fill="#D55E00"/>
<circle cx="583" cy="288" r="3" fill="#009E73"/>
<circle cx="583" cy="229" r="3" fill="#56B4E9"/>
<circle cx="583" cy="224" r="3" fill="#E69F00"/>
<circle cx="583" cy="339" r="3" fill="#C44E52"/>
<circle cx="583" cy="60" r="3" fill="#000000"/>
<circle cx="656" cy="171" r="3" fill="#0072B2"/>
<circle cx="656" cy="117" r="3" fill="#CC79A7"/>
<circle cx="656" cy="340" r="3" fill="#D55E00"/>
<circle cx="656" cy="293" r="3" fill="#009E73"/>
<circle cx="656" cy="230" r="3" fill="#56B4E9"/>
<circle cx="656" cy="225" r="3" fill="#E69F00"/>
<circle cx="656" cy="338" r="3" fill="#C44E52"/>
<circle cx="656" cy="60" r="3" fill="#000000"/>
<circle cx="730" cy="104" r="3" fill="#0072B2"/>
<circle cx="730" cy="41" r="3" fill="#CC79A7"/>
<circle cx="730" cy="339" r="3" fill="#D55E00"/>
<circle cx="730" cy="275" r="3" fill="#009E73"/>
<circle cx="730" cy="227" r="3" fill="#56B4E9"/>
<circle cx="730" cy="224" r="3" fill="#E69F00"/>
<circle cx="730" cy="337" r="3" fill="#C44E52"/>
<circle cx="730" cy="49" r="3" fill="#000000"/>
<circle cx="90" cy="20" r="4" fill="#0072B2"/>
<text x="98" y="24" text-anchor="start" font-size="12" fill="#0072B2">inte</text>
<circle cx="150" cy="20" r="4" fill="#CC79A7"/>
<text x="158" y="24" text-anchor="start" font-size="12" fill="#CC79A7">comp</text>
<circle cx="215" cy="20" r="4" fill="#D55E00"/>
<text x="223" y="24" text-anchor="start" font-size="12" fill="#D55E00">run</text>
<circle cx="270" cy="20" r="4" fill="#009E73"/>
<text x="278" y="24" text-anchor="start" font-size="12" fill="#009E73">wall</text>
<circle cx="335" cy="20" r="4" fill="#56B4E9"/>
<text x="343" y="24" text-anchor="start" font-size="12" fill="#56B4E9">mem-inte</text>
<circle cx="425" cy="20" r="4" fill="#E69F00"/>
<text x="433" y="24" text-anchor="start" font-size="12" fill="#E69F00">mem-comp</text>
<circle cx="520" cy="20" r="4" fill="#C44E52"/>
<text x="528" y="24" text-anchor="start" font-size="12" fill="#C44E52">mem-run</text>
<circle cx="605" cy="20" r="4" fill="#000000"/>
<text x="613" y="24" text-anchor="start" font-size="12" fill="#000000">mem-total</text>
</svg>
