<svg width="800" height="400" xmlns="http://www.w3.org/2000/svg">
<rect width="800" height="400" fill="white"/>
<line x1="70" y1="40" x2="70" y2="340" stroke="#333" stroke-width="1"/>
<line x1="70" y1="340" x2="780" y2="340" stroke="#333" stroke-width="1"/>
<text x="65" y="344" text-anchor="end" font-size="11" fill="#333">0</text>
<text x="65" y="194" text-anchor="end" font-size="11" fill="#333">52000</text>
<text x="65" y="44" text-anchor="end" font-size="11" fill="#333">104000</text>
<text x="15" y="190" text-anchor="middle" font-size="12" fill="#333" transform="rotate(-90 15 190)">ms</text>
<polyline points="70,42 148,43 227,51 306,53 385,50 464,53 543,51 622,50 701,51 780,50" fill="none" stroke="#0072B2" stroke-width="2"/>
<polyline points="70,44 148,47 227,55 306,52 385,50 464,51 543,51 622,49 701,50 780,49" fill="none" stroke="#CC79A7" stroke-width="2"/>
<polyline points="70,336 148,336 227,336 306,336 385,336 464,336 543,336 622,336 701,336 780,336" fill="none" stroke="#D55E00" stroke-width="2"/>
<polyline points="70,298 148,299 227,299 306,300 385,299 464,299 543,299 622,299 701,299 780,298" fill="none" stroke="#009E73" stroke-width="2"/>
<circle cx="70" cy="42" r="3" fill="#0072B2"/>
<circle cx="70" cy="44" r="3" fill="#CC79A7"/>
<circle cx="70" cy="336" r="3" fill="#D55E00"/>
<circle cx="70" cy="298" r="3" fill="#009E73"/>
<circle cx="148" cy="43" r="3" fill="#0072B2"/>
<circle cx="148" cy="47" r="3" fill="#CC79A7"/>
<circle cx="148" cy="336" r="3" fill="#D55E00"/>
<circle cx="148" cy="299" r="3" fill="#009E73"/>
<circle cx="227" cy="51" r="3" fill="#0072B2"/>
<circle cx="227" cy="55" r="3" fill="#CC79A7"/>
<circle cx="227" cy="336" r="3" fill="#D55E00"/>
<circle cx="227" cy="299" r="3" fill="#009E73"/>
<circle cx="306" cy="53" r="3" fill="#0072B2"/>
<circle cx="306" cy="52" r="3" fill="#CC79A7"/>
<circle cx="306" cy="336" r="3" fill="#D55E00"/>
<circle cx="306" cy="300" r="3" fill="#009E73"/>
<circle cx="385" cy="50" r="3" fill="#0072B2"/>
<circle cx="385" cy="50" r="3" fill="#CC79A7"/>
<circle cx="385" cy="336" r="3" fill="#D55E00"/>
<circle cx="385" cy="299" r="3" fill="#009E73"/>
<circle cx="464" cy="53" r="3" fill="#0072B2"/>
<circle cx="464" cy="51" r="3" fill="#CC79A7"/>
<circle cx="464" cy="336" r="3" fill="#D55E00"/>
<circle cx="464" cy="299" r="3" fill="#009E73"/>
<circle cx="543" cy="51" r="3" fill="#0072B2"/>
<circle cx="543" cy="51" r="3" fill="#CC79A7"/>
<circle cx="543" cy="336" r="3" fill="#D55E00"/>
<circle cx="543" cy="299" r="3" fill="#009E73"/>
<circle cx="622" cy="50" r="3" fill="#0072B2"/>
<circle cx="622" cy="49" r="3" fill="#CC79A7"/>
<circle cx="622" cy="336" r="3" fill="#D55E00"/>
<circle cx="622" cy="299" r="3" fill="#009E73"/>
<circle cx="701" cy="51" r="3" fill="#0072B2"/>
<circle cx="701" cy="50" r="3" fill="#CC79A7"/>
<circle cx="701" cy="336" r="3" fill="#D55E00"/>
<circle cx="701" cy="299" r="3" fill="#009E73"/>
<circle cx="780" cy="50" r="3" fill="#0072B2"/>
<circle cx="780" cy="49" r="3" fill="#CC79A7"/>
<circle cx="780" cy="336" r="3" fill="#D55E00"/>
<circle cx="780" cy="298" r="3" fill="#009E73"/>
<circle cx="90" cy="20" r="4" fill="#0072B2"/>
<text x="98" y="24" text-anchor="start" font-size="12" fill="#0072B2">interpreted</text>
<circle cx="190" cy="20" r="4" fill="#CC79A7"/>
<text x="198" y="24" text-anchor="start" font-size="12" fill="#CC79A7">compiled</text>
<circle cx="275" cy="20" r="4" fill="#D55E00"/>
<text x="283" y="24" text-anchor="start" font-size="12" fill="#D55E00">executed</text>
<circle cx="355" cy="20" r="4" fill="#009E73"/>
<text x="363" y="24" text-anchor="start" font-size="12" fill="#009E73">wall</text>
</svg>
