<svg width="800" height="400" xmlns="http://www.w3.org/2000/svg">
<rect width="800" height="400" fill="white"/>
<line x1="70" y1="40" x2="70" y2="340" stroke="#333" stroke-width="1"/>
<line x1="70" y1="340" x2="780" y2="340" stroke="#333" stroke-width="1"/>
<text x="65" y="344" text-anchor="end" font-size="11" fill="#333">0</text>
<text x="65" y="194" text-anchor="end" font-size="11" fill="#333">63000</text>
<text x="65" y="44" text-anchor="end" font-size="11" fill="#333">126000</text>
<text x="15" y="190" text-anchor="middle" font-size="12" fill="#333" transform="rotate(-90 15 190)">ms</text>
<polyline points="70,46 148,48 227,42 306,45 385,42 464,52 543,51 622,50 701,49 780,47" fill="none" stroke="#0072B2" stroke-width="2"/>
<polyline points="70,241 148,241 227,241 306,241 385,242 464,242 543,243 622,242 701,242 780,240" fill="none" stroke="#D55E00" stroke-width="2"/>
<polyline points="70,70 148,71 227,75 306,75 385,70 464,66 543,67 622,67 701,72 780,70" fill="none" stroke="#CC79A7" stroke-width="2"/>
<polyline points="70,244 148,246 227,245 306,245 385,245 464,246 543,245 622,245 701,244 780,245" fill="none" stroke="#E69F00" stroke-width="2"/>
<polyline points="70,126 148,129 227,127 306,131 385,125 464,131 543,129 622,130 701,131 780,129" fill="none" stroke="#009E73" stroke-width="2"/>
<circle cx="70" cy="46" r="3" fill="#0072B2"/>
<circle cx="70" cy="241" r="3" fill="#D55E00"/>
<circle cx="70" cy="70" r="3" fill="#CC79A7"/>
<circle cx="70" cy="244" r="3" fill="#E69F00"/>
<circle cx="70" cy="126" r="3" fill="#009E73"/>
<circle cx="148" cy="48" r="3" fill="#0072B2"/>
<circle cx="148" cy="241" r="3" fill="#D55E00"/>
<circle cx="148" cy="71" r="3" fill="#CC79A7"/>
<circle cx="148" cy="246" r="3" fill="#E69F00"/>
<circle cx="148" cy="129" r="3" fill="#009E73"/>
<circle cx="227" cy="42" r="3" fill="#0072B2"/>
<circle cx="227" cy="241" r="3" fill="#D55E00"/>
<circle cx="227" cy="75" r="3" fill="#CC79A7"/>
<circle cx="227" cy="245" r="3" fill="#E69F00"/>
<circle cx="227" cy="127" r="3" fill="#009E73"/>
<circle cx="306" cy="45" r="3" fill="#0072B2"/>
<circle cx="306" cy="241" r="3" fill="#D55E00"/>
<circle cx="306" cy="75" r="3" fill="#CC79A7"/>
<circle cx="306" cy="245" r="3" fill="#E69F00"/>
<circle cx="306" cy="131" r="3" fill="#009E73"/>
<circle cx="385" cy="42" r="3" fill="#0072B2"/>
<circle cx="385" cy="242" r="3" fill="#D55E00"/>
<circle cx="385" cy="70" r="3" fill="#CC79A7"/>
<circle cx="385" cy="245" r="3" fill="#E69F00"/>
<circle cx="385" cy="125" r="3" fill="#009E73"/>
<circle cx="464" cy="52" r="3" fill="#0072B2"/>
<circle cx="464" cy="242" r="3" fill="#D55E00"/>
<circle cx="464" cy="66" r="3" fill="#CC79A7"/>
<circle cx="464" cy="246" r="3" fill="#E69F00"/>
<circle cx="464" cy="131" r="3" fill="#009E73"/>
<circle cx="543" cy="51" r="3" fill="#0072B2"/>
<circle cx="543" cy="243" r="3" fill="#D55E00"/>
<circle cx="543" cy="67" r="3" fill="#CC79A7"/>
<circle cx="543" cy="245" r="3" fill="#E69F00"/>
<circle cx="543" cy="129" r="3" fill="#009E73"/>
<circle cx="622" cy="50" r="3" fill="#0072B2"/>
<circle cx="622" cy="242" r="3" fill="#D55E00"/>
<circle cx="622" cy="67" r="3" fill="#CC79A7"/>
<circle cx="622" cy="245" r="3" fill="#E69F00"/>
<circle cx="622" cy="130" r="3" fill="#009E73"/>
<circle cx="701" cy="49" r="3" fill="#0072B2"/>
<circle cx="701" cy="242" r="3" fill="#D55E00"/>
<circle cx="701" cy="72" r="3" fill="#CC79A7"/>
<circle cx="701" cy="244" r="3" fill="#E69F00"/>
<circle cx="701" cy="131" r="3" fill="#009E73"/>
<circle cx="780" cy="47" r="3" fill="#0072B2"/>
<circle cx="780" cy="240" r="3" fill="#D55E00"/>
<circle cx="780" cy="70" r="3" fill="#CC79A7"/>
<circle cx="780" cy="245" r="3" fill="#E69F00"/>
<circle cx="780" cy="129" r="3" fill="#009E73"/>
<circle cx="90" cy="20" r="4" fill="#0072B2"/>
<text x="98" y="24" text-anchor="start" font-size="12" fill="#0072B2">ctil-i</text>
<circle cx="160" cy="20" r="4" fill="#D55E00"/>
<text x="168" y="24" text-anchor="start" font-size="12" fill="#D55E00">ctil-r</text>
<circle cx="230" cy="20" r="4" fill="#CC79A7"/>
<text x="238" y="24" text-anchor="start" font-size="12" fill="#CC79A7">til-i</text>
<circle cx="290" cy="20" r="4" fill="#E69F00"/>
<text x="298" y="24" text-anchor="start" font-size="12" fill="#E69F00">til-r</text>
<circle cx="350" cy="20" r="4" fill="#009E73"/>
<text x="358" y="24" text-anchor="start" font-size="12" fill="#009E73">Wall</text>
</svg>
