<svg width="800" height="400" xmlns="http://www.w3.org/2000/svg">
<rect width="800" height="400" fill="white"/>
<line x1="70" y1="40" x2="70" y2="340" stroke="#333" stroke-width="1"/>
<line x1="70" y1="340" x2="730" y2="340" stroke="#333" stroke-width="1"/>
<line x1="730" y1="40" x2="730" y2="340" stroke="#333" stroke-width="1"/>
<text x="65" y="344" text-anchor="end" font-size="11" fill="#333">0</text>
<text x="65" y="194" text-anchor="end" font-size="11" fill="#333">81000</text>
<text x="65" y="44" text-anchor="end" font-size="11" fill="#333">162000</text>
<text x="15" y="190" text-anchor="middle" font-size="12" fill="#333" transform="rotate(-90 15 190)">ms</text>
<text x="735" y="344" text-anchor="start" font-size="11" fill="#333">0</text>
<text x="735" y="194" text-anchor="start" font-size="11" fill="#333">6130500000</text>
<text x="735" y="44" text-anchor="start" font-size="11" fill="#333">12261000000</text>
<text x="785" y="190" text-anchor="middle" font-size="12" fill="#333" transform="rotate(90 785 190)">bytes</text>
<polyline points="70,133 143,145 216,108 290,112 363,133 436,108 510,108 583,111 656,72 730,106" fill="none" stroke="#0072B2" stroke-width="2"/>
<polyline points="70,111 143,126 216,85 290,89 363,112 436,85 510,86 583,89 656,42 730,81" fill="none" stroke="#CC79A7" stroke-width="2"/>
<polyline points="70,340 143,340 216,340 290,340 363,340 436,340 510,340 583,340 656,340 730,340" fill="none" stroke="#D55E00" stroke-width="2"/>
<polyline points="70,141 143,153 216,116 290,123 363,142 436,116 510,121 583,125 656,79 730,115" fill="none" stroke="#009E73" stroke-width="2"/>
<polyline points="70,250 143,250 216,250 290,250 363,250 436,250 510,250 583,250 656,250 730,250" fill="none" stroke="#56B4E9" stroke-width="2"/>
<polyline points="70,201 143,205 216,203 290,203 363,204 436,201 510,206 583,203 656,197 730,195" fill="none" stroke="#E69F00" stroke-width="2"/>
<polyline points="70,340 143,340 216,340 290,340 363,340 436,340 510,340 583,340 656,340 730,340" fill="none" stroke="#C44E52" stroke-width="2"/>
<polyline points="70,59 143,66 216,63 290,65 363,64 436,60 510,62 583,61 656,45 730,41" fill="none" stroke="#000000" stroke-width="2"/>
<circle cx="70" cy="133" r="3" fill="#0072B2"/>
<circle cx="70" cy="111" r="3" fill="#CC79A7"/>
<circle cx="70" cy="340" r="3" fill="#D55E00"/>
<circle cx="70" cy="141" r="3" fill="#009E73"/>
<circle cx="70" cy="250" r="3" fill="#56B4E9"/>
<circle cx="70" cy="201" r="3" fill="#E69F00"/>
<circle cx="70" cy="340" r="3" fill="#C44E52"/>
<circle cx="70" cy="59" r="3" fill="#000000"/>
<circle cx="143" cy="145" r="3" fill="#0072B2"/>
<circle cx="143" cy="126" r="3" fill="#CC79A7"/>
<circle cx="143" cy="340" r="3" fill="#D55E00"/>
<circle cx="143" cy="153" r="3" fill="#009E73"/>
<circle cx="143" cy="250" r="3" fill="#56B4E9"/>
<circle cx="143" cy="205" r="3" fill="#E69F00"/>
<circle cx="143" cy="340" r="3" fill="#C44E52"/>
<circle cx="143" cy="66" r="3" fill="#000000"/>
<circle cx="216" cy="108" r="3" fill="#0072B2"/>
<circle cx="216" cy="85" r="3" fill="#CC79A7"/>
<circle cx="216" cy="340" r="3" fill="#D55E00"/>
<circle cx="216" cy="116" r="3" fill="#009E73"/>
<circle cx="216" cy="250" r="3" fill="#56B4E9"/>
<circle cx="216" cy="203" r="3" fill="#E69F00"/>
<circle cx="216" cy="340" r="3" fill="#C44E52"/>
<circle cx="216" cy="63" r="3" fill="#000000"/>
<circle cx="290" cy="112" r="3" fill="#0072B2"/>
<circle cx="290" cy="89" r="3" fill="#CC79A7"/>
<circle cx="290" cy="340" r="3" fill="#D55E00"/>
<circle cx="290" cy="123" r="3" fill="#009E73"/>
<circle cx="290" cy="250" r="3" fill="#56B4E9"/>
<circle cx="290" cy="203" r="3" fill="#E69F00"/>
<circle cx="290" cy="340" r="3" fill="#C44E52"/>
<circle cx="290" cy="65" r="3" fill="#000000"/>
<circle cx="363" cy="133" r="3" fill="#0072B2"/>
<circle cx="363" cy="112" r="3" fill="#CC79A7"/>
<circle cx="363" cy="340" r="3" fill="#D55E00"/>
<circle cx="363" cy="142" r="3" fill="#009E73"/>
<circle cx="363" cy="250" r="3" fill="#56B4E9"/>
<circle cx="363" cy="204" r="3" fill="#E69F00"/>
<circle cx="363" cy="340" r="3" fill="#C44E52"/>
<circle cx="363" cy="64" r="3" fill="#000000"/>
<circle cx="436" cy="108" r="3" fill="#0072B2"/>
<circle cx="436" cy="85" r="3" fill="#CC79A7"/>
<circle cx="436" cy="340" r="3" fill="#D55E00"/>
<circle cx="436" cy="116" r="3" fill="#009E73"/>
<circle cx="436" cy="250" r="3" fill="#56B4E9"/>
<circle cx="436" cy="201" r="3" fill="#E69F00"/>
<circle cx="436" cy="340" r="3" fill="#C44E52"/>
<circle cx="436" cy="60" r="3" fill="#000000"/>
<circle cx="510" cy="108" r="3" fill="#0072B2"/>
<circle cx="510" cy="86" r="3" fill="#CC79A7"/>
<circle cx="510" cy="340" r="3" fill="#D55E00"/>
<circle cx="510" cy="121" r="3" fill="#009E73"/>
<circle cx="510" cy="250" r="3" fill="#56B4E9"/>
<circle cx="510" cy="206" r="3" fill="#E69F00"/>
<circle cx="510" cy="340" r="3" fill="#C44E52"/>
<circle cx="510" cy="62" r="3" fill="#000000"/>
<circle cx="583" cy="111" r="3" fill="#0072B2"/>
<circle cx="583" cy="89" r="3" fill="#CC79A7"/>
<circle cx="583" cy="340" r="3" fill="#D55E00"/>
<circle cx="583" cy="125" r="3" fill="#009E73"/>
<circle cx="583" cy="250" r="3" fill="#56B4E9"/>
<circle cx="583" cy="203" r="3" fill="#E69F00"/>
<circle cx="583" cy="340" r="3" fill="#C44E52"/>
<circle cx="583" cy="61" r="3" fill="#000000"/>
<circle cx="656" cy="72" r="3" fill="#0072B2"/>
<circle cx="656" cy="42" r="3" fill="#CC79A7"/>
<circle cx="656" cy="340" r="3" fill="#D55E00"/>
<circle cx="656" cy="79" r="3" fill="#009E73"/>
<circle cx="656" cy="250" r="3" fill="#56B4E9"/>
<circle cx="656" cy="197" r="3" fill="#E69F00"/>
<circle cx="656" cy="340" r="3" fill="#C44E52"/>
<circle cx="656" cy="45" r="3" fill="#000000"/>
<circle cx="730" cy="106" r="3" fill="#0072B2"/>
<circle cx="730" cy="81" r="3" fill="#CC79A7"/>
<circle cx="730" cy="340" r="3" fill="#D55E00"/>
<circle cx="730" cy="115" r="3" fill="#009E73"/>
<circle cx="730" cy="250" r="3" fill="#56B4E9"/>
<circle cx="730" cy="195" r="3" fill="#E69F00"/>
<circle cx="730" cy="340" r="3" fill="#C44E52"/>
<circle cx="730" cy="41" r="3" fill="#000000"/>
<circle cx="90" cy="20" r="4" fill="#0072B2"/>
<text x="98" y="24" text-anchor="start" font-size="12" fill="#0072B2">inte</text>
<circle cx="150" cy="20" r="4" fill="#CC79A7"/>
<text x="158" y="24" text-anchor="start" font-size="12" fill="#CC79A7">comp</text>
<circle cx="215" cy="20" r="4" fill="#D55E00"/>
<text x="223" y="24" text-anchor="start" font-size="12" fill="#D55E00">run</text>
<circle cx="270" cy="20" r="4" fill="#009E73"/>
<text x="278" y="24" text-anchor="start" font-size="12" fill="#009E73">wall</text>
<circle cx="335" cy="20" r="4" fill="#56B4E9"/>
<text x="343" y="24" text-anchor="start" font-size="12" fill="#56B4E9">mem-inte</text>
<circle cx="425" cy="20" r="4" fill="#E69F00"/>
<text x="433" y="24" text-anchor="start" font-size="12" fill="#E69F00">mem-comp</text>
<circle cx="520" cy="20" r="4" fill="#C44E52"/>
<text x="528" y="24" text-anchor="start" font-size="12" fill="#C44E52">mem-run</text>
<circle cx="605" cy="20" r="4" fill="#000000"/>
<text x="613" y="24" text-anchor="start" font-size="12" fill="#000000">mem-total</text>
</svg>
