<svg width="800" height="400" xmlns="http://www.w3.org/2000/svg">
<rect width="800" height="400" fill="white"/>
<line x1="70" y1="40" x2="70" y2="340" stroke="#333" stroke-width="1"/>
<line x1="70" y1="340" x2="730" y2="340" stroke="#333" stroke-width="1"/>
<line x1="730" y1="40" x2="730" y2="340" stroke="#333" stroke-width="1"/>
<text x="65" y="344" text-anchor="end" font-size="11" fill="#333">0</text>
<text x="65" y="194" text-anchor="end" font-size="11" fill="#333">201500</text>
<text x="65" y="44" text-anchor="end" font-size="11" fill="#333">403000</text>
<text x="15" y="190" text-anchor="middle" font-size="12" fill="#333" transform="rotate(-90 15 190)">ms</text>
<text x="735" y="344" text-anchor="start" font-size="11" fill="#333">0</text>
<text x="735" y="194" text-anchor="start" font-size="11" fill="#333">11396000000</text>
<text x="735" y="44" text-anchor="start" font-size="11" fill="#333">22792000000</text>
<text x="785" y="190" text-anchor="middle" font-size="12" fill="#333" transform="rotate(90 785 190)">bytes</text>
<polyline points="70,244 143,114 216,223 290,253 363,253 436,253 510,253 583,252 656,251 730,252" fill="none" stroke="#0072B2" stroke-width="2"/>
<polyline points="70,213 143,41 216,196 290,251 363,250 436,251 510,251 583,249 656,250 730,250" fill="none" stroke="#CC79A7" stroke-width="2"/>
<polyline points="70,340 143,339 216,340 290,340 363,340 436,340 510,340 583,340 656,340 730,340" fill="none" stroke="#D55E00" stroke-width="2"/>
<polyline points="70,314 143,280 216,309 290,328 363,328 436,328 510,328 583,328 656,328 730,328" fill="none" stroke="#009E73" stroke-width="2"/>
<polyline points="70,242 143,225 216,222 290,280 363,281 436,281 510,280 583,281 656,280 730,280" fill="none" stroke="#56B4E9" stroke-width="2"/>
<polyline points="70,238 143,218 216,217 290,257 363,255 436,256 510,256 583,253 656,257 730,255" fill="none" stroke="#E69F00" stroke-width="2"/>
<polyline points="70,339 143,338 216,339 290,340 363,340 436,340 510,340 583,340 656,340 730,340" fill="none" stroke="#C44E52" stroke-width="2"/>
<polyline points="70,90 143,41 216,48 290,163 363,162 436,164 510,162 583,161 656,164 730,162" fill="none" stroke="#000000" stroke-width="2"/>
<circle cx="70" cy="244" r="3" fill="#0072B2"/>
<circle cx="70" cy="213" r="3" fill="#CC79A7"/>
<circle cx="70" cy="340" r="3" fill="#D55E00"/>
<circle cx="70" cy="314" r="3" fill="#009E73"/>
<circle cx="70" cy="242" r="3" fill="#56B4E9"/>
<circle cx="70" cy="238" r="3" fill="#E69F00"/>
<circle cx="70" cy="339" r="3" fill="#C44E52"/>
<circle cx="70" cy="90" r="3" fill="#000000"/>
<circle cx="143" cy="114" r="3" fill="#0072B2"/>
<circle cx="143" cy="41" r="3" fill="#CC79A7"/>
<circle cx="143" cy="339" r="3" fill="#D55E00"/>
<circle cx="143" cy="280" r="3" fill="#009E73"/>
<circle cx="143" cy="225" r="3" fill="#56B4E9"/>
<circle cx="143" cy="218" r="3" fill="#E69F00"/>
<circle cx="143" cy="338" r="3" fill="#C44E52"/>
<circle cx="143" cy="41" r="3" fill="#000000"/>
<circle cx="216" cy="223" r="3" fill="#0072B2"/>
<circle cx="216" cy="196" r="3" fill="#CC79A7"/>
<circle cx="216" cy="340" r="3" fill="#D55E00"/>
<circle cx="216" cy="309" r="3" fill="#009E73"/>
<circle cx="216" cy="222" r="3" fill="#56B4E9"/>
<circle cx="216" cy="217" r="3" fill="#E69F00"/>
<circle cx="216" cy="339" r="3" fill="#C44E52"/>
<circle cx="216" cy="48" r="3" fill="#000000"/>
<circle cx="290" cy="253" r="3" fill="#0072B2"/>
<circle cx="290" cy="251" r="3" fill="#CC79A7"/>
<circle cx="290" cy="340" r="3" fill="#D55E00"/>
<circle cx="290" cy="328" r="3" fill="#009E73"/>
<circle cx="290" cy="280" r="3" fill="#56B4E9"/>
<circle cx="290" cy="257" r="3" fill="#E69F00"/>
<circle cx="290" cy="340" r="3" fill="#C44E52"/>
<circle cx="290" cy="163" r="3" fill="#000000"/>
<circle cx="363" cy="253" r="3" fill="#0072B2"/>
<circle cx="363" cy="250" r="3" fill="#CC79A7"/>
<circle cx="363" cy="340" r="3" fill="#D55E00"/>
<circle cx="363" cy="328" r="3" fill="#009E73"/>
<circle cx="363" cy="281" r="3" fill="#56B4E9"/>
<circle cx="363" cy="255" r="3" fill="#E69F00"/>
<circle cx="363" cy="340" r="3" fill="#C44E52"/>
<circle cx="363" cy="162" r="3" fill="#000000"/>
<circle cx="436" cy="253" r="3" fill="#0072B2"/>
<circle cx="436" cy="251" r="3" fill="#CC79A7"/>
<circle cx="436" cy="340" r="3" fill="#D55E00"/>
<circle cx="436" cy="328" r="3" fill="#009E73"/>
<circle cx="436" cy="281" r="3" fill="#56B4E9"/>
<circle cx="436" cy="256" r="3" fill="#E69F00"/>
<circle cx="436" cy="340" r="3" fill="#C44E52"/>
<circle cx="436" cy="164" r="3" fill="#000000"/>
<circle cx="510" cy="253" r="3" fill="#0072B2"/>
<circle cx="510" cy="251" r="3" fill="#CC79A7"/>
<circle cx="510" cy="340" r="3" fill="#D55E00"/>
<circle cx="510" cy="328" r="3" fill="#009E73"/>
<circle cx="510" cy="280" r="3" fill="#56B4E9"/>
<circle cx="510" cy="256" r="3" fill="#E69F00"/>
<circle cx="510" cy="340" r="3" fill="#C44E52"/>
<circle cx="510" cy="162" r="3" fill="#000000"/>
<circle cx="583" cy="252" r="3" fill="#0072B2"/>
<circle cx="583" cy="249" r="3" fill="#CC79A7"/>
<circle cx="583" cy="340" r="3" fill="#D55E00"/>
<circle cx="583" cy="328" r="3" fill="#009E73"/>
<circle cx="583" cy="281" r="3" fill="#56B4E9"/>
<circle cx="583" cy="253" r="3" fill="#E69F00"/>
<circle cx="583" cy="340" r="3" fill="#C44E52"/>
<circle cx="583" cy="161" r="3" fill="#000000"/>
<circle cx="656" cy="251" r="3" fill="#0072B2"/>
<circle cx="656" cy="250" r="3" fill="#CC79A7"/>
<circle cx="656" cy="340" r="3" fill="#D55E00"/>
<circle cx="656" cy="328" r="3" fill="#009E73"/>
<circle cx="656" cy="280" r="3" fill="#56B4E9"/>
<circle cx="656" cy="257" r="3" fill="#E69F00"/>
<circle cx="656" cy="340" r="3" fill="#C44E52"/>
<circle cx="656" cy="164" r="3" fill="#000000"/>
<circle cx="730" cy="252" r="3" fill="#0072B2"/>
<circle cx="730" cy="250" r="3" fill="#CC79A7"/>
<circle cx="730" cy="340" r="3" fill="#D55E00"/>
<circle cx="730" cy="328" r="3" fill="#009E73"/>
<circle cx="730" cy="280" r="3" fill="#56B4E9"/>
<circle cx="730" cy="255" r="3" fill="#E69F00"/>
<circle cx="730" cy="340" r="3" fill="#C44E52"/>
<circle cx="730" cy="162" r="3" fill="#000000"/>
<circle cx="90" cy="20" r="4" fill="#0072B2"/>
<text x="98" y="24" text-anchor="start" font-size="12" fill="#0072B2">inte</text>
<circle cx="150" cy="20" r="4" fill="#CC79A7"/>
<text x="158" y="24" text-anchor="start" font-size="12" fill="#CC79A7">comp</text>
<circle cx="215" cy="20" r="4" fill="#D55E00"/>
<text x="223" y="24" text-anchor="start" font-size="12" fill="#D55E00">run</text>
<circle cx="270" cy="20" r="4" fill="#009E73"/>
<text x="278" y="24" text-anchor="start" font-size="12" fill="#009E73">wall</text>
<circle cx="335" cy="20" r="4" fill="#56B4E9"/>
<text x="343" y="24" text-anchor="start" font-size="12" fill="#56B4E9">mem-inte</text>
<circle cx="425" cy="20" r="4" fill="#E69F00"/>
<text x="433" y="24" text-anchor="start" font-size="12" fill="#E69F00">mem-comp</text>
<circle cx="520" cy="20" r="4" fill="#C44E52"/>
<text x="528" y="24" text-anchor="start" font-size="12" fill="#C44E52">mem-run</text>
<circle cx="605" cy="20" r="4" fill="#000000"/>
<text x="613" y="24" text-anchor="start" font-size="12" fill="#000000">mem-total</text>
</svg>
