<svg width="800" height="400" xmlns="http://www.w3.org/2000/svg">
<rect width="800" height="400" fill="white"/>
<line x1="70" y1="40" x2="70" y2="340" stroke="#333" stroke-width="1"/>
<line x1="70" y1="340" x2="780" y2="340" stroke="#333" stroke-width="1"/>
<text x="65" y="344" text-anchor="end" font-size="11" fill="#333">0</text>
<text x="65" y="194" text-anchor="end" font-size="11" fill="#333">33000</text>
<text x="65" y="44" text-anchor="end" font-size="11" fill="#333">66000</text>
<text x="15" y="190" text-anchor="middle" font-size="12" fill="#333" transform="rotate(-90 15 190)">ms</text>
<polyline points="70,44 148,48 227,45 306,47 385,43 464,47 543,42 622,41 701,43 780,41" fill="none" stroke="#0072B2" stroke-width="2"/>
<polyline points="70,230 148,231 227,230 306,231 385,230 464,231 543,227 622,229 701,230 780,229" fill="none" stroke="#D55E00" stroke-width="2"/>
<polyline points="70,65 148,65 227,63 306,65 385,62 464,64 543,58 622,59 701,63 780,58" fill="none" stroke="#CC79A7" stroke-width="2"/>
<polyline points="70,236 148,234 227,233 306,235 385,234 464,234 543,229 622,233 701,234 780,232" fill="none" stroke="#E69F00" stroke-width="2"/>
<polyline points="70,108 148,109 227,108 306,109 385,106 464,109 543,106 622,105 701,105 780,103" fill="none" stroke="#009E73" stroke-width="2"/>
<circle cx="70" cy="44" r="3" fill="#0072B2"/>
<circle cx="70" cy="230" r="3" fill="#D55E00"/>
<circle cx="70" cy="65" r="3" fill="#CC79A7"/>
<circle cx="70" cy="236" r="3" fill="#E69F00"/>
<circle cx="70" cy="108" r="3" fill="#009E73"/>
<circle cx="148" cy="48" r="3" fill="#0072B2"/>
<circle cx="148" cy="231" r="3" fill="#D55E00"/>
<circle cx="148" cy="65" r="3" fill="#CC79A7"/>
<circle cx="148" cy="234" r="3" fill="#E69F00"/>
<circle cx="148" cy="109" r="3" fill="#009E73"/>
<circle cx="227" cy="45" r="3" fill="#0072B2"/>
<circle cx="227" cy="230" r="3" fill="#D55E00"/>
<circle cx="227" cy="63" r="3" fill="#CC79A7"/>
<circle cx="227" cy="233" r="3" fill="#E69F00"/>
<circle cx="227" cy="108" r="3" fill="#009E73"/>
<circle cx="306" cy="47" r="3" fill="#0072B2"/>
<circle cx="306" cy="231" r="3" fill="#D55E00"/>
<circle cx="306" cy="65" r="3" fill="#CC79A7"/>
<circle cx="306" cy="235" r="3" fill="#E69F00"/>
<circle cx="306" cy="109" r="3" fill="#009E73"/>
<circle cx="385" cy="43" r="3" fill="#0072B2"/>
<circle cx="385" cy="230" r="3" fill="#D55E00"/>
<circle cx="385" cy="62" r="3" fill="#CC79A7"/>
<circle cx="385" cy="234" r="3" fill="#E69F00"/>
<circle cx="385" cy="106" r="3" fill="#009E73"/>
<circle cx="464" cy="47" r="3" fill="#0072B2"/>
<circle cx="464" cy="231" r="3" fill="#D55E00"/>
<circle cx="464" cy="64" r="3" fill="#CC79A7"/>
<circle cx="464" cy="234" r="3" fill="#E69F00"/>
<circle cx="464" cy="109" r="3" fill="#009E73"/>
<circle cx="543" cy="42" r="3" fill="#0072B2"/>
<circle cx="543" cy="227" r="3" fill="#D55E00"/>
<circle cx="543" cy="58" r="3" fill="#CC79A7"/>
<circle cx="543" cy="229" r="3" fill="#E69F00"/>
<circle cx="543" cy="106" r="3" fill="#009E73"/>
<circle cx="622" cy="41" r="3" fill="#0072B2"/>
<circle cx="622" cy="229" r="3" fill="#D55E00"/>
<circle cx="622" cy="59" r="3" fill="#CC79A7"/>
<circle cx="622" cy="233" r="3" fill="#E69F00"/>
<circle cx="622" cy="105" r="3" fill="#009E73"/>
<circle cx="701" cy="43" r="3" fill="#0072B2"/>
<circle cx="701" cy="230" r="3" fill="#D55E00"/>
<circle cx="701" cy="63" r="3" fill="#CC79A7"/>
<circle cx="701" cy="234" r="3" fill="#E69F00"/>
<circle cx="701" cy="105" r="3" fill="#009E73"/>
<circle cx="780" cy="41" r="3" fill="#0072B2"/>
<circle cx="780" cy="229" r="3" fill="#D55E00"/>
<circle cx="780" cy="58" r="3" fill="#CC79A7"/>
<circle cx="780" cy="232" r="3" fill="#E69F00"/>
<circle cx="780" cy="103" r="3" fill="#009E73"/>
<circle cx="90" cy="20" r="4" fill="#0072B2"/>
<text x="98" y="24" text-anchor="start" font-size="12" fill="#0072B2">ctil-i</text>
<circle cx="160" cy="20" r="4" fill="#D55E00"/>
<text x="168" y="24" text-anchor="start" font-size="12" fill="#D55E00">ctil-r</text>
<circle cx="230" cy="20" r="4" fill="#CC79A7"/>
<text x="238" y="24" text-anchor="start" font-size="12" fill="#CC79A7">til-i</text>
<circle cx="290" cy="20" r="4" fill="#E69F00"/>
<text x="298" y="24" text-anchor="start" font-size="12" fill="#E69F00">til-r</text>
<circle cx="350" cy="20" r="4" fill="#009E73"/>
<text x="358" y="24" text-anchor="start" font-size="12" fill="#009E73">Wall</text>
</svg>
