<svg width="800" height="400" xmlns="http://www.w3.org/2000/svg">
<rect width="800" height="400" fill="white"/>
<line x1="70" y1="40" x2="70" y2="340" stroke="#333" stroke-width="1"/>
<line x1="70" y1="340" x2="730" y2="340" stroke="#333" stroke-width="1"/>
<line x1="730" y1="40" x2="730" y2="340" stroke="#333" stroke-width="1"/>
<text x="65" y="344" text-anchor="end" font-size="11" fill="#333">0</text>
<text x="65" y="194" text-anchor="end" font-size="11" fill="#333">261000</text>
<text x="65" y="44" text-anchor="end" font-size="11" fill="#333">522000</text>
<text x="15" y="190" text-anchor="middle" font-size="12" fill="#333" transform="rotate(-90 15 190)">ms</text>
<text x="735" y="344" text-anchor="start" font-size="11" fill="#333">0</text>
<text x="735" y="194" text-anchor="start" font-size="11" fill="#333">1000000</text>
<text x="735" y="44" text-anchor="start" font-size="11" fill="#333">2000000</text>
<text x="785" y="190" text-anchor="middle" font-size="12" fill="#333" transform="rotate(90 785 190)">bytes</text>
<polyline points="70,100 143,104 216,112 290,117 363,128 436,125 510,127 583,68 656,137 730,90" fill="none" stroke="#0072B2" stroke-width="2"/>
<polyline points="70,62 143,78 216,80 290,88 363,100 436,78 510,81 583,41 656,98 730,62" fill="none" stroke="#CC79A7" stroke-width="2"/>
<polyline points="70,339 143,339 216,339 290,339 363,339 436,339 510,339 583,339 656,339 730,339" fill="none" stroke="#D55E00" stroke-width="2"/>
<polyline points="70,260 143,264 216,266 290,266 363,266 436,266 510,268 583,253 656,270 730,259" fill="none" stroke="#009E73" stroke-width="2"/>
<polyline points="70,46 143,46 216,46 290,46 363,46 436,46 510,46 583,46 656,46 730,46" fill="none" stroke="#56B4E9" stroke-width="2"/>
<circle cx="70" cy="100" r="3" fill="#0072B2"/>
<circle cx="70" cy="62" r="3" fill="#CC79A7"/>
<circle cx="70" cy="339" r="3" fill="#D55E00"/>
<circle cx="70" cy="260" r="3" fill="#009E73"/>
<circle cx="70" cy="46" r="3" fill="#56B4E9"/>
<circle cx="143" cy="104" r="3" fill="#0072B2"/>
<circle cx="143" cy="78" r="3" fill="#CC79A7"/>
<circle cx="143" cy="339" r="3" fill="#D55E00"/>
<circle cx="143" cy="264" r="3" fill="#009E73"/>
<circle cx="143" cy="46" r="3" fill="#56B4E9"/>
<circle cx="216" cy="112" r="3" fill="#0072B2"/>
<circle cx="216" cy="80" r="3" fill="#CC79A7"/>
<circle cx="216" cy="339" r="3" fill="#D55E00"/>
<circle cx="216" cy="266" r="3" fill="#009E73"/>
<circle cx="216" cy="46" r="3" fill="#56B4E9"/>
<circle cx="290" cy="117" r="3" fill="#0072B2"/>
<circle cx="290" cy="88" r="3" fill="#CC79A7"/>
<circle cx="290" cy="339" r="3" fill="#D55E00"/>
<circle cx="290" cy="266" r="3" fill="#009E73"/>
<circle cx="290" cy="46" r="3" fill="#56B4E9"/>
<circle cx="363" cy="128" r="3" fill="#0072B2"/>
<circle cx="363" cy="100" r="3" fill="#CC79A7"/>
<circle cx="363" cy="339" r="3" fill="#D55E00"/>
<circle cx="363" cy="266" r="3" fill="#009E73"/>
<circle cx="363" cy="46" r="3" fill="#56B4E9"/>
<circle cx="436" cy="125" r="3" fill="#0072B2"/>
<circle cx="436" cy="78" r="3" fill="#CC79A7"/>
<circle cx="436" cy="339" r="3" fill="#D55E00"/>
<circle cx="436" cy="266" r="3" fill="#009E73"/>
<circle cx="436" cy="46" r="3" fill="#56B4E9"/>
<circle cx="510" cy="127" r="3" fill="#0072B2"/>
<circle cx="510" cy="81" r="3" fill="#CC79A7"/>
<circle cx="510" cy="339" r="3" fill="#D55E00"/>
<circle cx="510" cy="268" r="3" fill="#009E73"/>
<circle cx="510" cy="46" r="3" fill="#56B4E9"/>
<circle cx="583" cy="68" r="3" fill="#0072B2"/>
<circle cx="583" cy="41" r="3" fill="#CC79A7"/>
<circle cx="583" cy="339" r="3" fill="#D55E00"/>
<circle cx="583" cy="253" r="3" fill="#009E73"/>
<circle cx="583" cy="46" r="3" fill="#56B4E9"/>
<circle cx="656" cy="137" r="3" fill="#0072B2"/>
<circle cx="656" cy="98" r="3" fill="#CC79A7"/>
<circle cx="656" cy="339" r="3" fill="#D55E00"/>
<circle cx="656" cy="270" r="3" fill="#009E73"/>
<circle cx="656" cy="46" r="3" fill="#56B4E9"/>
<circle cx="730" cy="90" r="3" fill="#0072B2"/>
<circle cx="730" cy="62" r="3" fill="#CC79A7"/>
<circle cx="730" cy="339" r="3" fill="#D55E00"/>
<circle cx="730" cy="259" r="3" fill="#009E73"/>
<circle cx="730" cy="46" r="3" fill="#56B4E9"/>
<circle cx="90" cy="20" r="4" fill="#0072B2"/>
<text x="98" y="24" text-anchor="start" font-size="12" fill="#0072B2">interpreted</text>
<circle cx="190" cy="20" r="4" fill="#CC79A7"/>
<text x="198" y="24" text-anchor="start" font-size="12" fill="#CC79A7">compiled</text>
<circle cx="275" cy="20" r="4" fill="#D55E00"/>
<text x="283" y="24" text-anchor="start" font-size="12" fill="#D55E00">executed</text>
<circle cx="355" cy="20" r="4" fill="#009E73"/>
<text x="363" y="24" text-anchor="start" font-size="12" fill="#009E73">wall</text>
<circle cx="420" cy="20" r="4" fill="#56B4E9"/>
<text x="428" y="24" text-anchor="start" font-size="12" fill="#56B4E9">memory</text>
</svg>
