<svg width="800" height="400" xmlns="http://www.w3.org/2000/svg">
<rect width="800" height="400" fill="white"/>
<line x1="70" y1="40" x2="70" y2="340" stroke="#333" stroke-width="1"/>
<line x1="70" y1="340" x2="730" y2="340" stroke="#333" stroke-width="1"/>
<line x1="730" y1="40" x2="730" y2="340" stroke="#333" stroke-width="1"/>
<text x="65" y="344" text-anchor="end" font-size="11" fill="#333">0</text>
<text x="65" y="194" text-anchor="end" font-size="11" fill="#333">46000</text>
<text x="65" y="44" text-anchor="end" font-size="11" fill="#333">92000</text>
<text x="15" y="190" text-anchor="middle" font-size="12" fill="#333" transform="rotate(-90 15 190)">ms</text>
<text x="735" y="344" text-anchor="start" font-size="11" fill="#333">0</text>
<text x="735" y="194" text-anchor="start" font-size="11" fill="#333">8084500000</text>
<text x="735" y="44" text-anchor="start" font-size="11" fill="#333">16169000000</text>
<text x="785" y="190" text-anchor="middle" font-size="12" fill="#333" transform="rotate(90 785 190)">bytes</text>
<polyline points="70,121 143,121 216,123 290,119 363,114 436,120 510,120 583,119 656,90 730,87" fill="none" stroke="#0072B2" stroke-width="2"/>
<polyline points="70,78 143,79 216,79 290,75 363,72 436,77 510,78 583,77 656,45 730,42" fill="none" stroke="#CC79A7" stroke-width="2"/>
<polyline points="70,339 143,339 216,339 290,339 363,339 436,339 510,339 583,339 656,339 730,339" fill="none" stroke="#D55E00" stroke-width="2"/>
<polyline points="70,164 143,164 216,163 290,165 363,158 436,162 510,163 583,304 656,301 730,301" fill="none" stroke="#009E73" stroke-width="2"/>
<polyline points="70,293 143,289 216,291 290,292 363,292 436,290 510,292 583,291 656,247 730,242" fill="none" stroke="#56B4E9" stroke-width="2"/>
<polyline points="70,246 143,246 216,246 290,245 363,245 436,245 510,245 583,245 656,195 730,197" fill="none" stroke="#E69F00" stroke-width="2"/>
<polyline points="70,340 143,340 216,340 290,340 363,340 436,340 510,340 583,340 656,340 730,340" fill="none" stroke="#C44E52" stroke-width="2"/>
<polyline points="70,152 143,148 216,151 290,151 363,151 436,149 510,151 583,144 656,44 730,41" fill="none" stroke="#000000" stroke-width="2"/>
<circle cx="70" cy="121" r="3" fill="#0072B2"/>
<circle cx="70" cy="78" r="3" fill="#CC79A7"/>
<circle cx="70" cy="339" r="3" fill="#D55E00"/>
<circle cx="70" cy="164" r="3" fill="#009E73"/>
<circle cx="70" cy="293" r="3" fill="#56B4E9"/>
<circle cx="70" cy="246" r="3" fill="#E69F00"/>
<circle cx="70" cy="340" r="3" fill="#C44E52"/>
<circle cx="70" cy="152" r="3" fill="#000000"/>
<circle cx="143" cy="121" r="3" fill="#0072B2"/>
<circle cx="143" cy="79" r="3" fill="#CC79A7"/>
<circle cx="143" cy="339" r="3" fill="#D55E00"/>
<circle cx="143" cy="164" r="3" fill="#009E73"/>
<circle cx="143" cy="289" r="3" fill="#56B4E9"/>
<circle cx="143" cy="246" r="3" fill="#E69F00"/>
<circle cx="143" cy="340" r="3" fill="#C44E52"/>
<circle cx="143" cy="148" r="3" fill="#000000"/>
<circle cx="216" cy="123" r="3" fill="#0072B2"/>
<circle cx="216" cy="79" r="3" fill="#CC79A7"/>
<circle cx="216" cy="339" r="3" fill="#D55E00"/>
<circle cx="216" cy="163" r="3" fill="#009E73"/>
<circle cx="216" cy="291" r="3" fill="#56B4E9"/>
<circle cx="216" cy="246" r="3" fill="#E69F00"/>
<circle cx="216" cy="340" r="3" fill="#C44E52"/>
<circle cx="216" cy="151" r="3" fill="#000000"/>
<circle cx="290" cy="119" r="3" fill="#0072B2"/>
<circle cx="290" cy="75" r="3" fill="#CC79A7"/>
<circle cx="290" cy="339" r="3" fill="#D55E00"/>
<circle cx="290" cy="165" r="3" fill="#009E73"/>
<circle cx="290" cy="292" r="3" fill="#56B4E9"/>
<circle cx="290" cy="245" r="3" fill="#E69F00"/>
<circle cx="290" cy="340" r="3" fill="#C44E52"/>
<circle cx="290" cy="151" r="3" fill="#000000"/>
<circle cx="363" cy="114" r="3" fill="#0072B2"/>
<circle cx="363" cy="72" r="3" fill="#CC79A7"/>
<circle cx="363" cy="339" r="3" fill="#D55E00"/>
<circle cx="363" cy="158" r="3" fill="#009E73"/>
<circle cx="363" cy="292" r="3" fill="#56B4E9"/>
<circle cx="363" cy="245" r="3" fill="#E69F00"/>
<circle cx="363" cy="340" r="3" fill="#C44E52"/>
<circle cx="363" cy="151" r="3" fill="#000000"/>
<circle cx="436" cy="120" r="3" fill="#0072B2"/>
<circle cx="436" cy="77" r="3" fill="#CC79A7"/>
<circle cx="436" cy="339" r="3" fill="#D55E00"/>
<circle cx="436" cy="162" r="3" fill="#009E73"/>
<circle cx="436" cy="290" r="3" fill="#56B4E9"/>
<circle cx="436" cy="245" r="3" fill="#E69F00"/>
<circle cx="436" cy="340" r="3" fill="#C44E52"/>
<circle cx="436" cy="149" r="3" fill="#000000"/>
<circle cx="510" cy="120" r="3" fill="#0072B2"/>
<circle cx="510" cy="78" r="3" fill="#CC79A7"/>
<circle cx="510" cy="339" r="3" fill="#D55E00"/>
<circle cx="510" cy="163" r="3" fill="#009E73"/>
<circle cx="510" cy="292" r="3" fill="#56B4E9"/>
<circle cx="510" cy="245" r="3" fill="#E69F00"/>
<circle cx="510" cy="340" r="3" fill="#C44E52"/>
<circle cx="510" cy="151" r="3" fill="#000000"/>
<circle cx="583" cy="119" r="3" fill="#0072B2"/>
<circle cx="583" cy="77" r="3" fill="#CC79A7"/>
<circle cx="583" cy="339" r="3" fill="#D55E00"/>
<circle cx="583" cy="304" r="3" fill="#009E73"/>
<circle cx="583" cy="291" r="3" fill="#56B4E9"/>
<circle cx="583" cy="245" r="3" fill="#E69F00"/>
<circle cx="583" cy="340" r="3" fill="#C44E52"/>
<circle cx="583" cy="144" r="3" fill="#000000"/>
<circle cx="656" cy="90" r="3" fill="#0072B2"/>
<circle cx="656" cy="45" r="3" fill="#CC79A7"/>
<circle cx="656" cy="339" r="3" fill="#D55E00"/>
<circle cx="656" cy="301" r="3" fill="#009E73"/>
<circle cx="656" cy="247" r="3" fill="#56B4E9"/>
<circle cx="656" cy="195" r="3" fill="#E69F00"/>
<circle cx="656" cy="340" r="3" fill="#C44E52"/>
<circle cx="656" cy="44" r="3" fill="#000000"/>
<circle cx="730" cy="87" r="3" fill="#0072B2"/>
<circle cx="730" cy="42" r="3" fill="#CC79A7"/>
<circle cx="730" cy="339" r="3" fill="#D55E00"/>
<circle cx="730" cy="301" r="3" fill="#009E73"/>
<circle cx="730" cy="242" r="3" fill="#56B4E9"/>
<circle cx="730" cy="197" r="3" fill="#E69F00"/>
<circle cx="730" cy="340" r="3" fill="#C44E52"/>
<circle cx="730" cy="41" r="3" fill="#000000"/>
<circle cx="90" cy="20" r="4" fill="#0072B2"/>
<text x="98" y="24" text-anchor="start" font-size="12" fill="#0072B2">inte</text>
<circle cx="150" cy="20" r="4" fill="#CC79A7"/>
<text x="158" y="24" text-anchor="start" font-size="12" fill="#CC79A7">comp</text>
<circle cx="215" cy="20" r="4" fill="#D55E00"/>
<text x="223" y="24" text-anchor="start" font-size="12" fill="#D55E00">run</text>
<circle cx="270" cy="20" r="4" fill="#009E73"/>
<text x="278" y="24" text-anchor="start" font-size="12" fill="#009E73">wall</text>
<circle cx="335" cy="20" r="4" fill="#56B4E9"/>
<text x="343" y="24" text-anchor="start" font-size="12" fill="#56B4E9">mem-inte</text>
<circle cx="425" cy="20" r="4" fill="#E69F00"/>
<text x="433" y="24" text-anchor="start" font-size="12" fill="#E69F00">mem-comp</text>
<circle cx="520" cy="20" r="4" fill="#C44E52"/>
<text x="528" y="24" text-anchor="start" font-size="12" fill="#C44E52">mem-run</text>
<circle cx="605" cy="20" r="4" fill="#000000"/>
<text x="613" y="24" text-anchor="start" font-size="12" fill="#000000">mem-total</text>
</svg>
