<svg width="800" height="400" xmlns="http://www.w3.org/2000/svg">
<rect width="800" height="400" fill="white"/>
<line x1="70" y1="40" x2="70" y2="340" stroke="#333" stroke-width="1"/>
<line x1="70" y1="340" x2="730" y2="340" stroke="#333" stroke-width="1"/>
<line x1="730" y1="40" x2="730" y2="340" stroke="#333" stroke-width="1"/>
<text x="65" y="344" text-anchor="end" font-size="11" fill="#333">0</text>
<text x="65" y="194" text-anchor="end" font-size="11" fill="#333">481000</text>
<text x="65" y="44" text-anchor="end" font-size="11" fill="#333">962000</text>
<text x="15" y="190" text-anchor="middle" font-size="12" fill="#333" transform="rotate(-90 15 190)">ms</text>
<text x="735" y="344" text-anchor="start" font-size="11" fill="#333">0</text>
<text x="735" y="194" text-anchor="start" font-size="11" fill="#333">61154000000</text>
<text x="735" y="44" text-anchor="start" font-size="11" fill="#333">122308000000</text>
<text x="785" y="190" text-anchor="middle" font-size="12" fill="#333" transform="rotate(90 785 190)">bytes</text>
<polyline points="70,76 143,79 216,172 290,176 363,171 436,175 510,175 583,175 656,176 730,174" fill="none" stroke="#0072B2" stroke-width="2"/>
<polyline points="70,41 143,41 216,142 290,144 363,141 436,139 510,141 583,139 656,139 730,140" fill="none" stroke="#CC79A7" stroke-width="2"/>
<polyline points="70,340 143,340 216,340 290,340 363,340 436,340 510,340 583,340 656,340 730,340" fill="none" stroke="#D55E00" stroke-width="2"/>
<polyline points="70,304 143,304 216,317 290,317 363,317 436,317 510,317 583,317 656,317 730,317" fill="none" stroke="#009E73" stroke-width="2"/>
<polyline points="70,169 143,169 216,252 290,252 363,250 436,251 510,251 583,250 656,250 730,251" fill="none" stroke="#984EA3" stroke-width="2"/>
<polyline points="70,49 143,49 216,86 290,86 363,85 436,85 510,86 583,85 656,86 730,86" fill="none" stroke="#56B4E9" stroke-width="2"/>
<polyline points="70,43 143,41 216,79 290,78 363,78 436,78 510,78 583,79 656,78 730,79" fill="none" stroke="#E69F00" stroke-width="2"/>
<polyline points="70,339 143,339 216,339 290,339 363,339 436,338 510,338 583,339 656,339 730,339" fill="none" stroke="#C44E52" stroke-width="2"/>
<polyline points="70,293 143,293 216,305 290,305 363,305 436,305 510,305 583,306 656,306 730,306" fill="none" stroke="#8C564B" stroke-width="2"/>
<circle cx="70" cy="76" r="3" fill="#0072B2"/>
<circle cx="70" cy="41" r="3" fill="#CC79A7"/>
<circle cx="70" cy="340" r="3" fill="#D55E00"/>
<circle cx="70" cy="304" r="3" fill="#009E73"/>
<circle cx="70" cy="169" r="3" fill="#984EA3"/>
<circle cx="70" cy="49" r="3" fill="#56B4E9"/>
<circle cx="70" cy="43" r="3" fill="#E69F00"/>
<circle cx="70" cy="339" r="3" fill="#C44E52"/>
<circle cx="70" cy="293" r="3" fill="#8C564B"/>
<circle cx="143" cy="79" r="3" fill="#0072B2"/>
<circle cx="143" cy="41" r="3" fill="#CC79A7"/>
<circle cx="143" cy="340" r="3" fill="#D55E00"/>
<circle cx="143" cy="304" r="3" fill="#009E73"/>
<circle cx="143" cy="169" r="3" fill="#984EA3"/>
<circle cx="143" cy="49" r="3" fill="#56B4E9"/>
<circle cx="143" cy="41" r="3" fill="#E69F00"/>
<circle cx="143" cy="339" r="3" fill="#C44E52"/>
<circle cx="143" cy="293" r="3" fill="#8C564B"/>
<circle cx="216" cy="172" r="3" fill="#0072B2"/>
<circle cx="216" cy="142" r="3" fill="#CC79A7"/>
<circle cx="216" cy="340" r="3" fill="#D55E00"/>
<circle cx="216" cy="317" r="3" fill="#009E73"/>
<circle cx="216" cy="252" r="3" fill="#984EA3"/>
<circle cx="216" cy="86" r="3" fill="#56B4E9"/>
<circle cx="216" cy="79" r="3" fill="#E69F00"/>
<circle cx="216" cy="339" r="3" fill="#C44E52"/>
<circle cx="216" cy="305" r="3" fill="#8C564B"/>
<circle cx="290" cy="176" r="3" fill="#0072B2"/>
<circle cx="290" cy="144" r="3" fill="#CC79A7"/>
<circle cx="290" cy="340" r="3" fill="#D55E00"/>
<circle cx="290" cy="317" r="3" fill="#009E73"/>
<circle cx="290" cy="252" r="3" fill="#984EA3"/>
<circle cx="290" cy="86" r="3" fill="#56B4E9"/>
<circle cx="290" cy="78" r="3" fill="#E69F00"/>
<circle cx="290" cy="339" r="3" fill="#C44E52"/>
<circle cx="290" cy="305" r="3" fill="#8C564B"/>
<circle cx="363" cy="171" r="3" fill="#0072B2"/>
<circle cx="363" cy="141" r="3" fill="#CC79A7"/>
<circle cx="363" cy="340" r="3" fill="#D55E00"/>
<circle cx="363" cy="317" r="3" fill="#009E73"/>
<circle cx="363" cy="250" r="3" fill="#984EA3"/>
<circle cx="363" cy="85" r="3" fill="#56B4E9"/>
<circle cx="363" cy="78" r="3" fill="#E69F00"/>
<circle cx="363" cy="339" r="3" fill="#C44E52"/>
<circle cx="363" cy="305" r="3" fill="#8C564B"/>
<circle cx="436" cy="175" r="3" fill="#0072B2"/>
<circle cx="436" cy="139" r="3" fill="#CC79A7"/>
<circle cx="436" cy="340" r="3" fill="#D55E00"/>
<circle cx="436" cy="317" r="3" fill="#009E73"/>
<circle cx="436" cy="251" r="3" fill="#984EA3"/>
<circle cx="436" cy="85" r="3" fill="#56B4E9"/>
<circle cx="436" cy="78" r="3" fill="#E69F00"/>
<circle cx="436" cy="338" r="3" fill="#C44E52"/>
<circle cx="436" cy="305" r="3" fill="#8C564B"/>
<circle cx="510" cy="175" r="3" fill="#0072B2"/>
<circle cx="510" cy="141" r="3" fill="#CC79A7"/>
<circle cx="510" cy="340" r="3" fill="#D55E00"/>
<circle cx="510" cy="317" r="3" fill="#009E73"/>
<circle cx="510" cy="251" r="3" fill="#984EA3"/>
<circle cx="510" cy="86" r="3" fill="#56B4E9"/>
<circle cx="510" cy="78" r="3" fill="#E69F00"/>
<circle cx="510" cy="338" r="3" fill="#C44E52"/>
<circle cx="510" cy="305" r="3" fill="#8C564B"/>
<circle cx="583" cy="175" r="3" fill="#0072B2"/>
<circle cx="583" cy="139" r="3" fill="#CC79A7"/>
<circle cx="583" cy="340" r="3" fill="#D55E00"/>
<circle cx="583" cy="317" r="3" fill="#009E73"/>
<circle cx="583" cy="250" r="3" fill="#984EA3"/>
<circle cx="583" cy="85" r="3" fill="#56B4E9"/>
<circle cx="583" cy="79" r="3" fill="#E69F00"/>
<circle cx="583" cy="339" r="3" fill="#C44E52"/>
<circle cx="583" cy="306" r="3" fill="#8C564B"/>
<circle cx="656" cy="176" r="3" fill="#0072B2"/>
<circle cx="656" cy="139" r="3" fill="#CC79A7"/>
<circle cx="656" cy="340" r="3" fill="#D55E00"/>
<circle cx="656" cy="317" r="3" fill="#009E73"/>
<circle cx="656" cy="250" r="3" fill="#984EA3"/>
<circle cx="656" cy="86" r="3" fill="#56B4E9"/>
<circle cx="656" cy="78" r="3" fill="#E69F00"/>
<circle cx="656" cy="339" r="3" fill="#C44E52"/>
<circle cx="656" cy="306" r="3" fill="#8C564B"/>
<circle cx="730" cy="174" r="3" fill="#0072B2"/>
<circle cx="730" cy="140" r="3" fill="#CC79A7"/>
<circle cx="730" cy="340" r="3" fill="#D55E00"/>
<circle cx="730" cy="317" r="3" fill="#009E73"/>
<circle cx="730" cy="251" r="3" fill="#984EA3"/>
<circle cx="730" cy="86" r="3" fill="#56B4E9"/>
<circle cx="730" cy="79" r="3" fill="#E69F00"/>
<circle cx="730" cy="339" r="3" fill="#C44E52"/>
<circle cx="730" cy="306" r="3" fill="#8C564B"/>
<circle cx="70" cy="20" r="4" fill="#0072B2"/>
<text x="78" y="24" text-anchor="start" font-size="12" fill="#0072B2">inte</text>
<circle cx="130" cy="20" r="4" fill="#CC79A7"/>
<text x="138" y="24" text-anchor="start" font-size="12" fill="#CC79A7">comp</text>
<circle cx="195" cy="20" r="4" fill="#D55E00"/>
<text x="203" y="24" text-anchor="start" font-size="12" fill="#D55E00">run</text>
<circle cx="250" cy="20" r="4" fill="#009E73"/>
<text x="258" y="24" text-anchor="start" font-size="12" fill="#009E73">wall</text>
<circle cx="315" cy="20" r="4" fill="#984EA3"/>
<text x="323" y="24" text-anchor="start" font-size="12" fill="#984EA3">self</text>
<circle cx="380" cy="20" r="4" fill="#56B4E9"/>
<text x="388" y="24" text-anchor="start" font-size="12" fill="#56B4E9">mem-inte</text>
<circle cx="470" cy="20" r="4" fill="#E69F00"/>
<text x="478" y="24" text-anchor="start" font-size="12" fill="#E69F00">mem-comp</text>
<circle cx="565" cy="20" r="4" fill="#C44E52"/>
<text x="573" y="24" text-anchor="start" font-size="12" fill="#C44E52">mem-run</text>
<circle cx="650" cy="20" r="4" fill="#8C564B"/>
<text x="658" y="24" text-anchor="start" font-size="12" fill="#8C564B">self-mem</text>
</svg>
