<svg width="800" height="400" xmlns="http://www.w3.org/2000/svg">
<rect width="800" height="400" fill="white"/>
<line x1="70" y1="40" x2="70" y2="340" stroke="#333" stroke-width="1"/>
<line x1="70" y1="340" x2="730" y2="340" stroke="#333" stroke-width="1"/>
<line x1="730" y1="40" x2="730" y2="340" stroke="#333" stroke-width="1"/>
<text x="65" y="344" text-anchor="end" font-size="11" fill="#333">0</text>
<text x="65" y="194" text-anchor="end" font-size="11" fill="#333">67000</text>
<text x="65" y="44" text-anchor="end" font-size="11" fill="#333">134000</text>
<text x="15" y="190" text-anchor="middle" font-size="12" fill="#333" transform="rotate(-90 15 190)">ms</text>
<text x="735" y="344" text-anchor="start" font-size="11" fill="#333">0</text>
<text x="735" y="194" text-anchor="start" font-size="11" fill="#333">6702500000</text>
<text x="735" y="44" text-anchor="start" font-size="11" fill="#333">13405000000</text>
<text x="785" y="190" text-anchor="middle" font-size="12" fill="#333" transform="rotate(90 785 190)">bytes</text>
<polyline points="70,108 143,96 216,93 290,97 363,73 436,89 510,89 583,101 656,94 730,82" fill="none" stroke="#0072B2" stroke-width="2"/>
<polyline points="70,79 143,68 216,63 290,67 363,41 436,63 510,64 583,78 656,68 730,59" fill="none" stroke="#CC79A7" stroke-width="2"/>
<polyline points="70,340 143,340 216,340 290,340 363,340 436,340 510,340 583,340 656,340 730,340" fill="none" stroke="#D55E00" stroke-width="2"/>
<polyline points="70,114 143,105 216,99 290,103 363,78 436,99 510,100 583,113 656,101 730,95" fill="none" stroke="#009E73" stroke-width="2"/>
<polyline points="70,257 143,257 216,257 290,257 363,257 436,258 510,258 583,258 656,258 730,258" fill="none" stroke="#56B4E9" stroke-width="2"/>
<polyline points="70,204 143,195 216,196 290,192 363,194 436,211 510,218 583,217 656,215 730,214" fill="none" stroke="#E69F00" stroke-width="2"/>
<polyline points="70,340 143,340 216,340 290,340 363,340 436,340 510,340 583,340 656,340 730,340" fill="none" stroke="#C44E52" stroke-width="2"/>
<polyline points="70,58 143,46 216,50 290,41 363,45 436,83 510,89 583,90 656,89 730,86" fill="none" stroke="#000000" stroke-width="2"/>
<circle cx="70" cy="108" r="3" fill="#0072B2"/>
<circle cx="70" cy="79" r="3" fill="#CC79A7"/>
<circle cx="70" cy="340" r="3" fill="#D55E00"/>
<circle cx="70" cy="114" r="3" fill="#009E73"/>
<circle cx="70" cy="257" r="3" fill="#56B4E9"/>
<circle cx="70" cy="204" r="3" fill="#E69F00"/>
<circle cx="70" cy="340" r="3" fill="#C44E52"/>
<circle cx="70" cy="58" r="3" fill="#000000"/>
<circle cx="143" cy="96" r="3" fill="#0072B2"/>
<circle cx="143" cy="68" r="3" fill="#CC79A7"/>
<circle cx="143" cy="340" r="3" fill="#D55E00"/>
<circle cx="143" cy="105" r="3" fill="#009E73"/>
<circle cx="143" cy="257" r="3" fill="#56B4E9"/>
<circle cx="143" cy="195" r="3" fill="#E69F00"/>
<circle cx="143" cy="340" r="3" fill="#C44E52"/>
<circle cx="143" cy="46" r="3" fill="#000000"/>
<circle cx="216" cy="93" r="3" fill="#0072B2"/>
<circle cx="216" cy="63" r="3" fill="#CC79A7"/>
<circle cx="216" cy="340" r="3" fill="#D55E00"/>
<circle cx="216" cy="99" r="3" fill="#009E73"/>
<circle cx="216" cy="257" r="3" fill="#56B4E9"/>
<circle cx="216" cy="196" r="3" fill="#E69F00"/>
<circle cx="216" cy="340" r="3" fill="#C44E52"/>
<circle cx="216" cy="50" r="3" fill="#000000"/>
<circle cx="290" cy="97" r="3" fill="#0072B2"/>
<circle cx="290" cy="67" r="3" fill="#CC79A7"/>
<circle cx="290" cy="340" r="3" fill="#D55E00"/>
<circle cx="290" cy="103" r="3" fill="#009E73"/>
<circle cx="290" cy="257" r="3" fill="#56B4E9"/>
<circle cx="290" cy="192" r="3" fill="#E69F00"/>
<circle cx="290" cy="340" r="3" fill="#C44E52"/>
<circle cx="290" cy="41" r="3" fill="#000000"/>
<circle cx="363" cy="73" r="3" fill="#0072B2"/>
<circle cx="363" cy="41" r="3" fill="#CC79A7"/>
<circle cx="363" cy="340" r="3" fill="#D55E00"/>
<circle cx="363" cy="78" r="3" fill="#009E73"/>
<circle cx="363" cy="257" r="3" fill="#56B4E9"/>
<circle cx="363" cy="194" r="3" fill="#E69F00"/>
<circle cx="363" cy="340" r="3" fill="#C44E52"/>
<circle cx="363" cy="45" r="3" fill="#000000"/>
<circle cx="436" cy="89" r="3" fill="#0072B2"/>
<circle cx="436" cy="63" r="3" fill="#CC79A7"/>
<circle cx="436" cy="340" r="3" fill="#D55E00"/>
<circle cx="436" cy="99" r="3" fill="#009E73"/>
<circle cx="436" cy="258" r="3" fill="#56B4E9"/>
<circle cx="436" cy="211" r="3" fill="#E69F00"/>
<circle cx="436" cy="340" r="3" fill="#C44E52"/>
<circle cx="436" cy="83" r="3" fill="#000000"/>
<circle cx="510" cy="89" r="3" fill="#0072B2"/>
<circle cx="510" cy="64" r="3" fill="#CC79A7"/>
<circle cx="510" cy="340" r="3" fill="#D55E00"/>
<circle cx="510" cy="100" r="3" fill="#009E73"/>
<circle cx="510" cy="258" r="3" fill="#56B4E9"/>
<circle cx="510" cy="218" r="3" fill="#E69F00"/>
<circle cx="510" cy="340" r="3" fill="#C44E52"/>
<circle cx="510" cy="89" r="3" fill="#000000"/>
<circle cx="583" cy="101" r="3" fill="#0072B2"/>
<circle cx="583" cy="78" r="3" fill="#CC79A7"/>
<circle cx="583" cy="340" r="3" fill="#D55E00"/>
<circle cx="583" cy="113" r="3" fill="#009E73"/>
<circle cx="583" cy="258" r="3" fill="#56B4E9"/>
<circle cx="583" cy="217" r="3" fill="#E69F00"/>
<circle cx="583" cy="340" r="3" fill="#C44E52"/>
<circle cx="583" cy="90" r="3" fill="#000000"/>
<circle cx="656" cy="94" r="3" fill="#0072B2"/>
<circle cx="656" cy="68" r="3" fill="#CC79A7"/>
<circle cx="656" cy="340" r="3" fill="#D55E00"/>
<circle cx="656" cy="101" r="3" fill="#009E73"/>
<circle cx="656" cy="258" r="3" fill="#56B4E9"/>
<circle cx="656" cy="215" r="3" fill="#E69F00"/>
<circle cx="656" cy="340" r="3" fill="#C44E52"/>
<circle cx="656" cy="89" r="3" fill="#000000"/>
<circle cx="730" cy="82" r="3" fill="#0072B2"/>
<circle cx="730" cy="59" r="3" fill="#CC79A7"/>
<circle cx="730" cy="340" r="3" fill="#D55E00"/>
<circle cx="730" cy="95" r="3" fill="#009E73"/>
<circle cx="730" cy="258" r="3" fill="#56B4E9"/>
<circle cx="730" cy="214" r="3" fill="#E69F00"/>
<circle cx="730" cy="340" r="3" fill="#C44E52"/>
<circle cx="730" cy="86" r="3" fill="#000000"/>
<circle cx="90" cy="20" r="4" fill="#0072B2"/>
<text x="98" y="24" text-anchor="start" font-size="12" fill="#0072B2">inte</text>
<circle cx="150" cy="20" r="4" fill="#CC79A7"/>
<text x="158" y="24" text-anchor="start" font-size="12" fill="#CC79A7">comp</text>
<circle cx="215" cy="20" r="4" fill="#D55E00"/>
<text x="223" y="24" text-anchor="start" font-size="12" fill="#D55E00">run</text>
<circle cx="270" cy="20" r="4" fill="#009E73"/>
<text x="278" y="24" text-anchor="start" font-size="12" fill="#009E73">wall</text>
<circle cx="335" cy="20" r="4" fill="#56B4E9"/>
<text x="343" y="24" text-anchor="start" font-size="12" fill="#56B4E9">mem-inte</text>
<circle cx="425" cy="20" r="4" fill="#E69F00"/>
<text x="433" y="24" text-anchor="start" font-size="12" fill="#E69F00">mem-comp</text>
<circle cx="520" cy="20" r="4" fill="#C44E52"/>
<text x="528" y="24" text-anchor="start" font-size="12" fill="#C44E52">mem-run</text>
<circle cx="605" cy="20" r="4" fill="#000000"/>
<text x="613" y="24" text-anchor="start" font-size="12" fill="#000000">mem-total</text>
</svg>
