<svg width="800" height="400" xmlns="http://www.w3.org/2000/svg">
<rect width="800" height="400" fill="white"/>
<line x1="70" y1="40" x2="70" y2="340" stroke="#333" stroke-width="1"/>
<line x1="70" y1="340" x2="730" y2="340" stroke="#333" stroke-width="1"/>
<line x1="730" y1="40" x2="730" y2="340" stroke="#333" stroke-width="1"/>
<text x="65" y="344" text-anchor="end" font-size="11" fill="#333">0</text>
<text x="65" y="194" text-anchor="end" font-size="11" fill="#333">382000</text>
<text x="65" y="44" text-anchor="end" font-size="11" fill="#333">764000</text>
<text x="15" y="190" text-anchor="middle" font-size="12" fill="#333" transform="rotate(-90 15 190)">ms</text>
<text x="735" y="344" text-anchor="start" font-size="11" fill="#333">0</text>
<text x="735" y="194" text-anchor="start" font-size="11" fill="#333">10685000000</text>
<text x="735" y="44" text-anchor="start" font-size="11" fill="#333">21370000000</text>
<text x="785" y="190" text-anchor="middle" font-size="12" fill="#333" transform="rotate(90 785 190)">bytes</text>
<polyline points="70,60 143,62 216,64 290,47 363,48 436,48 510,41 583,45 656,53 730,72" fill="none" stroke="#0072B2" stroke-width="2"/>
<polyline points="70,89 143,94 216,96 290,89 363,89 436,90 510,84 583,87 656,96 730,112" fill="none" stroke="#CC79A7" stroke-width="2"/>
<polyline points="70,340 143,340 216,340 290,340 363,340 436,340 510,340 583,340 656,340 730,340" fill="none" stroke="#D55E00" stroke-width="2"/>
<polyline points="70,301 143,301 216,301 290,300 363,300 436,300 510,299 583,299 656,300 730,301" fill="none" stroke="#009E73" stroke-width="2"/>
<polyline points="70,301 143,301 216,301 290,301 363,301 436,301 510,301 583,301 656,301 730,301" fill="none" stroke="#56B4E9" stroke-width="2"/>
<polyline points="70,181 143,193 216,193 290,193 363,193 436,193 510,193 583,193 656,193 730,194" fill="none" stroke="#E69F00" stroke-width="2"/>
<polyline points="70,334 143,335 216,337 290,335 363,334 436,336 510,333 583,335 656,335 730,334" fill="none" stroke="#C44E52" stroke-width="2"/>
<polyline points="70,41 143,55 216,57 290,55 363,53 436,56 510,53 583,55 656,55 730,45" fill="none" stroke="#000000" stroke-width="2"/>
<circle cx="70" cy="60" r="3" fill="#0072B2"/>
<circle cx="70" cy="89" r="3" fill="#CC79A7"/>
<circle cx="70" cy="340" r="3" fill="#D55E00"/>
<circle cx="70" cy="301" r="3" fill="#009E73"/>
<circle cx="70" cy="301" r="3" fill="#56B4E9"/>
<circle cx="70" cy="181" r="3" fill="#E69F00"/>
<circle cx="70" cy="334" r="3" fill="#C44E52"/>
<circle cx="70" cy="41" r="3" fill="#000000"/>
<circle cx="143" cy="62" r="3" fill="#0072B2"/>
<circle cx="143" cy="94" r="3" fill="#CC79A7"/>
<circle cx="143" cy="340" r="3" fill="#D55E00"/>
<circle cx="143" cy="301" r="3" fill="#009E73"/>
<circle cx="143" cy="301" r="3" fill="#56B4E9"/>
<circle cx="143" cy="193" r="3" fill="#E69F00"/>
<circle cx="143" cy="335" r="3" fill="#C44E52"/>
<circle cx="143" cy="55" r="3" fill="#000000"/>
<circle cx="216" cy="64" r="3" fill="#0072B2"/>
<circle cx="216" cy="96" r="3" fill="#CC79A7"/>
<circle cx="216" cy="340" r="3" fill="#D55E00"/>
<circle cx="216" cy="301" r="3" fill="#009E73"/>
<circle cx="216" cy="301" r="3" fill="#56B4E9"/>
<circle cx="216" cy="193" r="3" fill="#E69F00"/>
<circle cx="216" cy="337" r="3" fill="#C44E52"/>
<circle cx="216" cy="57" r="3" fill="#000000"/>
<circle cx="290" cy="47" r="3" fill="#0072B2"/>
<circle cx="290" cy="89" r="3" fill="#CC79A7"/>
<circle cx="290" cy="340" r="3" fill="#D55E00"/>
<circle cx="290" cy="300" r="3" fill="#009E73"/>
<circle cx="290" cy="301" r="3" fill="#56B4E9"/>
<circle cx="290" cy="193" r="3" fill="#E69F00"/>
<circle cx="290" cy="335" r="3" fill="#C44E52"/>
<circle cx="290" cy="55" r="3" fill="#000000"/>
<circle cx="363" cy="48" r="3" fill="#0072B2"/>
<circle cx="363" cy="89" r="3" fill="#CC79A7"/>
<circle cx="363" cy="340" r="3" fill="#D55E00"/>
<circle cx="363" cy="300" r="3" fill="#009E73"/>
<circle cx="363" cy="301" r="3" fill="#56B4E9"/>
<circle cx="363" cy="193" r="3" fill="#E69F00"/>
<circle cx="363" cy="334" r="3" fill="#C44E52"/>
<circle cx="363" cy="53" r="3" fill="#000000"/>
<circle cx="436" cy="48" r="3" fill="#0072B2"/>
<circle cx="436" cy="90" r="3" fill="#CC79A7"/>
<circle cx="436" cy="340" r="3" fill="#D55E00"/>
<circle cx="436" cy="300" r="3" fill="#009E73"/>
<circle cx="436" cy="301" r="3" fill="#56B4E9"/>
<circle cx="436" cy="193" r="3" fill="#E69F00"/>
<circle cx="436" cy="336" r="3" fill="#C44E52"/>
<circle cx="436" cy="56" r="3" fill="#000000"/>
<circle cx="510" cy="41" r="3" fill="#0072B2"/>
<circle cx="510" cy="84" r="3" fill="#CC79A7"/>
<circle cx="510" cy="340" r="3" fill="#D55E00"/>
<circle cx="510" cy="299" r="3" fill="#009E73"/>
<circle cx="510" cy="301" r="3" fill="#56B4E9"/>
<circle cx="510" cy="193" r="3" fill="#E69F00"/>
<circle cx="510" cy="333" r="3" fill="#C44E52"/>
<circle cx="510" cy="53" r="3" fill="#000000"/>
<circle cx="583" cy="45" r="3" fill="#0072B2"/>
<circle cx="583" cy="87" r="3" fill="#CC79A7"/>
<circle cx="583" cy="340" r="3" fill="#D55E00"/>
<circle cx="583" cy="299" r="3" fill="#009E73"/>
<circle cx="583" cy="301" r="3" fill="#56B4E9"/>
<circle cx="583" cy="193" r="3" fill="#E69F00"/>
<circle cx="583" cy="335" r="3" fill="#C44E52"/>
<circle cx="583" cy="55" r="3" fill="#000000"/>
<circle cx="656" cy="53" r="3" fill="#0072B2"/>
<circle cx="656" cy="96" r="3" fill="#CC79A7"/>
<circle cx="656" cy="340" r="3" fill="#D55E00"/>
<circle cx="656" cy="300" r="3" fill="#009E73"/>
<circle cx="656" cy="301" r="3" fill="#56B4E9"/>
<circle cx="656" cy="193" r="3" fill="#E69F00"/>
<circle cx="656" cy="335" r="3" fill="#C44E52"/>
<circle cx="656" cy="55" r="3" fill="#000000"/>
<circle cx="730" cy="72" r="3" fill="#0072B2"/>
<circle cx="730" cy="112" r="3" fill="#CC79A7"/>
<circle cx="730" cy="340" r="3" fill="#D55E00"/>
<circle cx="730" cy="301" r="3" fill="#009E73"/>
<circle cx="730" cy="301" r="3" fill="#56B4E9"/>
<circle cx="730" cy="194" r="3" fill="#E69F00"/>
<circle cx="730" cy="334" r="3" fill="#C44E52"/>
<circle cx="730" cy="45" r="3" fill="#000000"/>
<circle cx="90" cy="20" r="4" fill="#0072B2"/>
<text x="98" y="24" text-anchor="start" font-size="12" fill="#0072B2">inte</text>
<circle cx="150" cy="20" r="4" fill="#CC79A7"/>
<text x="158" y="24" text-anchor="start" font-size="12" fill="#CC79A7">comp</text>
<circle cx="215" cy="20" r="4" fill="#D55E00"/>
<text x="223" y="24" text-anchor="start" font-size="12" fill="#D55E00">run</text>
<circle cx="270" cy="20" r="4" fill="#009E73"/>
<text x="278" y="24" text-anchor="start" font-size="12" fill="#009E73">wall</text>
<circle cx="335" cy="20" r="4" fill="#56B4E9"/>
<text x="343" y="24" text-anchor="start" font-size="12" fill="#56B4E9">mem-inte</text>
<circle cx="425" cy="20" r="4" fill="#E69F00"/>
<text x="433" y="24" text-anchor="start" font-size="12" fill="#E69F00">mem-comp</text>
<circle cx="520" cy="20" r="4" fill="#C44E52"/>
<text x="528" y="24" text-anchor="start" font-size="12" fill="#C44E52">mem-run</text>
<circle cx="605" cy="20" r="4" fill="#000000"/>
<text x="613" y="24" text-anchor="start" font-size="12" fill="#000000">mem-total</text>
</svg>
