<svg width="800" height="400" xmlns="http://www.w3.org/2000/svg">
<rect width="800" height="400" fill="white"/>
<line x1="70" y1="40" x2="70" y2="340" stroke="#333" stroke-width="1"/>
<line x1="70" y1="340" x2="730" y2="340" stroke="#333" stroke-width="1"/>
<line x1="730" y1="40" x2="730" y2="340" stroke="#333" stroke-width="1"/>
<text x="65" y="344" text-anchor="end" font-size="11" fill="#333">0</text>
<text x="65" y="194" text-anchor="end" font-size="11" fill="#333">348000</text>
<text x="65" y="44" text-anchor="end" font-size="11" fill="#333">696000</text>
<text x="15" y="190" text-anchor="middle" font-size="12" fill="#333" transform="rotate(-90 15 190)">ms</text>
<text x="735" y="344" text-anchor="start" font-size="11" fill="#333">0</text>
<text x="735" y="194" text-anchor="start" font-size="11" fill="#333">10904000000</text>
<text x="735" y="44" text-anchor="start" font-size="11" fill="#333">21808000000</text>
<text x="785" y="190" text-anchor="middle" font-size="12" fill="#333" transform="rotate(90 785 190)">bytes</text>
<polyline points="70,43 143,50 216,49 290,52 363,48 436,51 510,44 583,46 656,41 730,41" fill="none" stroke="#0072B2" stroke-width="2"/>
<polyline points="70,86 143,91 216,83 290,87 363,83 436,87 510,82 583,85 656,77 730,77" fill="none" stroke="#CC79A7" stroke-width="2"/>
<polyline points="70,340 143,340 216,340 290,340 363,340 436,340 510,340 583,340 656,340 730,340" fill="none" stroke="#D55E00" stroke-width="2"/>
<polyline points="70,297 143,298 216,298 290,298 363,297 436,298 510,297 583,297 656,296 730,296" fill="none" stroke="#009E73" stroke-width="2"/>
<polyline points="70,302 143,302 216,302 290,302 363,302 436,302 510,300 583,300 656,300 730,299" fill="none" stroke="#56B4E9" stroke-width="2"/>
<polyline points="70,197 143,197 216,194 290,194 363,194 436,194 510,191 583,191 656,192 730,189" fill="none" stroke="#E69F00" stroke-width="2"/>
<polyline points="70,334 143,336 216,335 290,335 363,335 436,335 510,333 583,336 656,332 730,334" fill="none" stroke="#C44E52" stroke-width="2"/>
<polyline points="70,51 143,53 216,50 290,49 363,50 436,49 510,42 583,45 656,41 730,41" fill="none" stroke="#000000" stroke-width="2"/>
<circle cx="70" cy="43" r="3" fill="#0072B2"/>
<circle cx="70" cy="86" r="3" fill="#CC79A7"/>
<circle cx="70" cy="340" r="3" fill="#D55E00"/>
<circle cx="70" cy="297" r="3" fill="#009E73"/>
<circle cx="70" cy="302" r="3" fill="#56B4E9"/>
<circle cx="70" cy="197" r="3" fill="#E69F00"/>
<circle cx="70" cy="334" r="3" fill="#C44E52"/>
<circle cx="70" cy="51" r="3" fill="#000000"/>
<circle cx="143" cy="50" r="3" fill="#0072B2"/>
<circle cx="143" cy="91" r="3" fill="#CC79A7"/>
<circle cx="143" cy="340" r="3" fill="#D55E00"/>
<circle cx="143" cy="298" r="3" fill="#009E73"/>
<circle cx="143" cy="302" r="3" fill="#56B4E9"/>
<circle cx="143" cy="197" r="3" fill="#E69F00"/>
<circle cx="143" cy="336" r="3" fill="#C44E52"/>
<circle cx="143" cy="53" r="3" fill="#000000"/>
<circle cx="216" cy="49" r="3" fill="#0072B2"/>
<circle cx="216" cy="83" r="3" fill="#CC79A7"/>
<circle cx="216" cy="340" r="3" fill="#D55E00"/>
<circle cx="216" cy="298" r="3" fill="#009E73"/>
<circle cx="216" cy="302" r="3" fill="#56B4E9"/>
<circle cx="216" cy="194" r="3" fill="#E69F00"/>
<circle cx="216" cy="335" r="3" fill="#C44E52"/>
<circle cx="216" cy="50" r="3" fill="#000000"/>
<circle cx="290" cy="52" r="3" fill="#0072B2"/>
<circle cx="290" cy="87" r="3" fill="#CC79A7"/>
<circle cx="290" cy="340" r="3" fill="#D55E00"/>
<circle cx="290" cy="298" r="3" fill="#009E73"/>
<circle cx="290" cy="302" r="3" fill="#56B4E9"/>
<circle cx="290" cy="194" r="3" fill="#E69F00"/>
<circle cx="290" cy="335" r="3" fill="#C44E52"/>
<circle cx="290" cy="49" r="3" fill="#000000"/>
<circle cx="363" cy="48" r="3" fill="#0072B2"/>
<circle cx="363" cy="83" r="3" fill="#CC79A7"/>
<circle cx="363" cy="340" r="3" fill="#D55E00"/>
<circle cx="363" cy="297" r="3" fill="#009E73"/>
<circle cx="363" cy="302" r="3" fill="#56B4E9"/>
<circle cx="363" cy="194" r="3" fill="#E69F00"/>
<circle cx="363" cy="335" r="3" fill="#C44E52"/>
<circle cx="363" cy="50" r="3" fill="#000000"/>
<circle cx="436" cy="51" r="3" fill="#0072B2"/>
<circle cx="436" cy="87" r="3" fill="#CC79A7"/>
<circle cx="436" cy="340" r="3" fill="#D55E00"/>
<circle cx="436" cy="298" r="3" fill="#009E73"/>
<circle cx="436" cy="302" r="3" fill="#56B4E9"/>
<circle cx="436" cy="194" r="3" fill="#E69F00"/>
<circle cx="436" cy="335" r="3" fill="#C44E52"/>
<circle cx="436" cy="49" r="3" fill="#000000"/>
<circle cx="510" cy="44" r="3" fill="#0072B2"/>
<circle cx="510" cy="82" r="3" fill="#CC79A7"/>
<circle cx="510" cy="340" r="3" fill="#D55E00"/>
<circle cx="510" cy="297" r="3" fill="#009E73"/>
<circle cx="510" cy="300" r="3" fill="#56B4E9"/>
<circle cx="510" cy="191" r="3" fill="#E69F00"/>
<circle cx="510" cy="333" r="3" fill="#C44E52"/>
<circle cx="510" cy="42" r="3" fill="#000000"/>
<circle cx="583" cy="46" r="3" fill="#0072B2"/>
<circle cx="583" cy="85" r="3" fill="#CC79A7"/>
<circle cx="583" cy="340" r="3" fill="#D55E00"/>
<circle cx="583" cy="297" r="3" fill="#009E73"/>
<circle cx="583" cy="300" r="3" fill="#56B4E9"/>
<circle cx="583" cy="191" r="3" fill="#E69F00"/>
<circle cx="583" cy="336" r="3" fill="#C44E52"/>
<circle cx="583" cy="45" r="3" fill="#000000"/>
<circle cx="656" cy="41" r="3" fill="#0072B2"/>
<circle cx="656" cy="77" r="3" fill="#CC79A7"/>
<circle cx="656" cy="340" r="3" fill="#D55E00"/>
<circle cx="656" cy="296" r="3" fill="#009E73"/>
<circle cx="656" cy="300" r="3" fill="#56B4E9"/>
<circle cx="656" cy="192" r="3" fill="#E69F00"/>
<circle cx="656" cy="332" r="3" fill="#C44E52"/>
<circle cx="656" cy="41" r="3" fill="#000000"/>
<circle cx="730" cy="41" r="3" fill="#0072B2"/>
<circle cx="730" cy="77" r="3" fill="#CC79A7"/>
<circle cx="730" cy="340" r="3" fill="#D55E00"/>
<circle cx="730" cy="296" r="3" fill="#009E73"/>
<circle cx="730" cy="299" r="3" fill="#56B4E9"/>
<circle cx="730" cy="189" r="3" fill="#E69F00"/>
<circle cx="730" cy="334" r="3" fill="#C44E52"/>
<circle cx="730" cy="41" r="3" fill="#000000"/>
<circle cx="90" cy="20" r="4" fill="#0072B2"/>
<text x="98" y="24" text-anchor="start" font-size="12" fill="#0072B2">inte</text>
<circle cx="150" cy="20" r="4" fill="#CC79A7"/>
<text x="158" y="24" text-anchor="start" font-size="12" fill="#CC79A7">comp</text>
<circle cx="215" cy="20" r="4" fill="#D55E00"/>
<text x="223" y="24" text-anchor="start" font-size="12" fill="#D55E00">run</text>
<circle cx="270" cy="20" r="4" fill="#009E73"/>
<text x="278" y="24" text-anchor="start" font-size="12" fill="#009E73">wall</text>
<circle cx="335" cy="20" r="4" fill="#56B4E9"/>
<text x="343" y="24" text-anchor="start" font-size="12" fill="#56B4E9">mem-inte</text>
<circle cx="425" cy="20" r="4" fill="#E69F00"/>
<text x="433" y="24" text-anchor="start" font-size="12" fill="#E69F00">mem-comp</text>
<circle cx="520" cy="20" r="4" fill="#C44E52"/>
<text x="528" y="24" text-anchor="start" font-size="12" fill="#C44E52">mem-run</text>
<circle cx="605" cy="20" r="4" fill="#000000"/>
<text x="613" y="24" text-anchor="start" font-size="12" fill="#000000">mem-total</text>
</svg>
