<svg width="800" height="400" xmlns="http://www.w3.org/2000/svg">
<rect width="800" height="400" fill="white"/>
<line x1="70" y1="40" x2="70" y2="340" stroke="#333" stroke-width="1"/>
<line x1="70" y1="340" x2="780" y2="340" stroke="#333" stroke-width="1"/>
<text x="65" y="344" text-anchor="end" font-size="11" fill="#333">0</text>
<text x="65" y="194" text-anchor="end" font-size="11" fill="#333">94500</text>
<text x="65" y="44" text-anchor="end" font-size="11" fill="#333">189000</text>
<text x="15" y="190" text-anchor="middle" font-size="12" fill="#333" transform="rotate(-90 15 190)">ms</text>
<polyline points="70,68 148,68 227,70 306,72 385,42 464,45 543,48 622,42 701,48 780,43" fill="none" stroke="#0072B2" stroke-width="2"/>
<polyline points="70,71 148,71 227,73 306,75 385,52 464,53 543,54 622,49 701,44 780,49" fill="none" stroke="#CC79A7" stroke-width="2"/>
<polyline points="70,338 148,338 227,338 306,338 385,338 464,338 543,338 622,338 701,338 780,338" fill="none" stroke="#D55E00" stroke-width="2"/>
<polyline points="70,305 148,305 227,305 306,305 385,302 464,302 543,302 622,302 701,302 780,302" fill="none" stroke="#009E73" stroke-width="2"/>
<circle cx="70" cy="68" r="3" fill="#0072B2"/>
<circle cx="70" cy="71" r="3" fill="#CC79A7"/>
<circle cx="70" cy="338" r="3" fill="#D55E00"/>
<circle cx="70" cy="305" r="3" fill="#009E73"/>
<circle cx="148" cy="68" r="3" fill="#0072B2"/>
<circle cx="148" cy="71" r="3" fill="#CC79A7"/>
<circle cx="148" cy="338" r="3" fill="#D55E00"/>
<circle cx="148" cy="305" r="3" fill="#009E73"/>
<circle cx="227" cy="70" r="3" fill="#0072B2"/>
<circle cx="227" cy="73" r="3" fill="#CC79A7"/>
<circle cx="227" cy="338" r="3" fill="#D55E00"/>
<circle cx="227" cy="305" r="3" fill="#009E73"/>
<circle cx="306" cy="72" r="3" fill="#0072B2"/>
<circle cx="306" cy="75" r="3" fill="#CC79A7"/>
<circle cx="306" cy="338" r="3" fill="#D55E00"/>
<circle cx="306" cy="305" r="3" fill="#009E73"/>
<circle cx="385" cy="42" r="3" fill="#0072B2"/>
<circle cx="385" cy="52" r="3" fill="#CC79A7"/>
<circle cx="385" cy="338" r="3" fill="#D55E00"/>
<circle cx="385" cy="302" r="3" fill="#009E73"/>
<circle cx="464" cy="45" r="3" fill="#0072B2"/>
<circle cx="464" cy="53" r="3" fill="#CC79A7"/>
<circle cx="464" cy="338" r="3" fill="#D55E00"/>
<circle cx="464" cy="302" r="3" fill="#009E73"/>
<circle cx="543" cy="48" r="3" fill="#0072B2"/>
<circle cx="543" cy="54" r="3" fill="#CC79A7"/>
<circle cx="543" cy="338" r="3" fill="#D55E00"/>
<circle cx="543" cy="302" r="3" fill="#009E73"/>
<circle cx="622" cy="42" r="3" fill="#0072B2"/>
<circle cx="622" cy="49" r="3" fill="#CC79A7"/>
<circle cx="622" cy="338" r="3" fill="#D55E00"/>
<circle cx="622" cy="302" r="3" fill="#009E73"/>
<circle cx="701" cy="48" r="3" fill="#0072B2"/>
<circle cx="701" cy="44" r="3" fill="#CC79A7"/>
<circle cx="701" cy="338" r="3" fill="#D55E00"/>
<circle cx="701" cy="302" r="3" fill="#009E73"/>
<circle cx="780" cy="43" r="3" fill="#0072B2"/>
<circle cx="780" cy="49" r="3" fill="#CC79A7"/>
<circle cx="780" cy="338" r="3" fill="#D55E00"/>
<circle cx="780" cy="302" r="3" fill="#009E73"/>
<circle cx="90" cy="20" r="4" fill="#0072B2"/>
<text x="98" y="24" text-anchor="start" font-size="12" fill="#0072B2">interpreted</text>
<circle cx="190" cy="20" r="4" fill="#CC79A7"/>
<text x="198" y="24" text-anchor="start" font-size="12" fill="#CC79A7">compiled</text>
<circle cx="275" cy="20" r="4" fill="#D55E00"/>
<text x="283" y="24" text-anchor="start" font-size="12" fill="#D55E00">executed</text>
<circle cx="355" cy="20" r="4" fill="#009E73"/>
<text x="363" y="24" text-anchor="start" font-size="12" fill="#009E73">wall</text>
</svg>
