<svg width="800" height="400" xmlns="http://www.w3.org/2000/svg">
<rect width="800" height="400" fill="white"/>
<line x1="70" y1="40" x2="70" y2="340" stroke="#333" stroke-width="1"/>
<line x1="70" y1="340" x2="730" y2="340" stroke="#333" stroke-width="1"/>
<line x1="730" y1="40" x2="730" y2="340" stroke="#333" stroke-width="1"/>
<text x="65" y="344" text-anchor="end" font-size="11" fill="#333">0</text>
<text x="65" y="194" text-anchor="end" font-size="11" fill="#333">110500</text>
<text x="65" y="44" text-anchor="end" font-size="11" fill="#333">221000</text>
<text x="15" y="190" text-anchor="middle" font-size="12" fill="#333" transform="rotate(-90 15 190)">ms</text>
<text x="735" y="344" text-anchor="start" font-size="11" fill="#333">0</text>
<text x="735" y="194" text-anchor="start" font-size="11" fill="#333">7106000000</text>
<text x="735" y="44" text-anchor="start" font-size="11" fill="#333">14212000000</text>
<text x="785" y="190" text-anchor="middle" font-size="12" fill="#333" transform="rotate(90 785 190)">bytes</text>
<polyline points="70,168 143,163 216,167 290,187 363,213 436,192 510,180 583,130 656,114 730,121" fill="none" stroke="#0072B2" stroke-width="2"/>
<polyline points="70,115 143,106 216,114 290,123 363,157 436,142 510,133 583,59 656,41 730,48" fill="none" stroke="#CC79A7" stroke-width="2"/>
<polyline points="70,340 143,340 216,340 290,339 363,339 436,340 510,340 583,339 656,339 730,339" fill="none" stroke="#D55E00" stroke-width="2"/>
<polyline points="70,291 143,290 216,291 290,294 363,301 436,297 510,294 583,279 656,275 730,276" fill="none" stroke="#009E73" stroke-width="2"/>
<polyline points="70,282 143,285 216,285 290,284 363,284 436,284 510,285 583,285 656,236 730,239" fill="none" stroke="#56B4E9" stroke-width="2"/>
<polyline points="70,226 143,230 216,229 290,228 363,228 436,229 510,228 583,228 656,228 730,228" fill="none" stroke="#E69F00" stroke-width="2"/>
<polyline points="70,338 143,338 216,338 290,338 363,338 436,338 510,338 583,336 656,336 730,337" fill="none" stroke="#C44E52" stroke-width="2"/>
<polyline points="70,84 143,77 216,76 290,74 363,95 436,75 510,103 583,95 656,41 730,41" fill="none" stroke="#000000" stroke-width="2"/>
<circle cx="70" cy="168" r="3" fill="#0072B2"/>
<circle cx="70" cy="115" r="3" fill="#CC79A7"/>
<circle cx="70" cy="340" r="3" fill="#D55E00"/>
<circle cx="70" cy="291" r="3" fill="#009E73"/>
<circle cx="70" cy="282" r="3" fill="#56B4E9"/>
<circle cx="70" cy="226" r="3" fill="#E69F00"/>
<circle cx="70" cy="338" r="3" fill="#C44E52"/>
<circle cx="70" cy="84" r="3" fill="#000000"/>
<circle cx="143" cy="163" r="3" fill="#0072B2"/>
<circle cx="143" cy="106" r="3" fill="#CC79A7"/>
<circle cx="143" cy="340" r="3" fill="#D55E00"/>
<circle cx="143" cy="290" r="3" fill="#009E73"/>
<circle cx="143" cy="285" r="3" fill="#56B4E9"/>
<circle cx="143" cy="230" r="3" fill="#E69F00"/>
<circle cx="143" cy="338" r="3" fill="#C44E52"/>
<circle cx="143" cy="77" r="3" fill="#000000"/>
<circle cx="216" cy="167" r="3" fill="#0072B2"/>
<circle cx="216" cy="114" r="3" fill="#CC79A7"/>
<circle cx="216" cy="340" r="3" fill="#D55E00"/>
<circle cx="216" cy="291" r="3" fill="#009E73"/>
<circle cx="216" cy="285" r="3" fill="#56B4E9"/>
<circle cx="216" cy="229" r="3" fill="#E69F00"/>
<circle cx="216" cy="338" r="3" fill="#C44E52"/>
<circle cx="216" cy="76" r="3" fill="#000000"/>
<circle cx="290" cy="187" r="3" fill="#0072B2"/>
<circle cx="290" cy="123" r="3" fill="#CC79A7"/>
<circle cx="290" cy="339" r="3" fill="#D55E00"/>
<circle cx="290" cy="294" r="3" fill="#009E73"/>
<circle cx="290" cy="284" r="3" fill="#56B4E9"/>
<circle cx="290" cy="228" r="3" fill="#E69F00"/>
<circle cx="290" cy="338" r="3" fill="#C44E52"/>
<circle cx="290" cy="74" r="3" fill="#000000"/>
<circle cx="363" cy="213" r="3" fill="#0072B2"/>
<circle cx="363" cy="157" r="3" fill="#CC79A7"/>
<circle cx="363" cy="339" r="3" fill="#D55E00"/>
<circle cx="363" cy="301" r="3" fill="#009E73"/>
<circle cx="363" cy="284" r="3" fill="#56B4E9"/>
<circle cx="363" cy="228" r="3" fill="#E69F00"/>
<circle cx="363" cy="338" r="3" fill="#C44E52"/>
<circle cx="363" cy="95" r="3" fill="#000000"/>
<circle cx="436" cy="192" r="3" fill="#0072B2"/>
<circle cx="436" cy="142" r="3" fill="#CC79A7"/>
<circle cx="436" cy="340" r="3" fill="#D55E00"/>
<circle cx="436" cy="297" r="3" fill="#009E73"/>
<circle cx="436" cy="284" r="3" fill="#56B4E9"/>
<circle cx="436" cy="229" r="3" fill="#E69F00"/>
<circle cx="436" cy="338" r="3" fill="#C44E52"/>
<circle cx="436" cy="75" r="3" fill="#000000"/>
<circle cx="510" cy="180" r="3" fill="#0072B2"/>
<circle cx="510" cy="133" r="3" fill="#CC79A7"/>
<circle cx="510" cy="340" r="3" fill="#D55E00"/>
<circle cx="510" cy="294" r="3" fill="#009E73"/>
<circle cx="510" cy="285" r="3" fill="#56B4E9"/>
<circle cx="510" cy="228" r="3" fill="#E69F00"/>
<circle cx="510" cy="338" r="3" fill="#C44E52"/>
<circle cx="510" cy="103" r="3" fill="#000000"/>
<circle cx="583" cy="130" r="3" fill="#0072B2"/>
<circle cx="583" cy="59" r="3" fill="#CC79A7"/>
<circle cx="583" cy="339" r="3" fill="#D55E00"/>
<circle cx="583" cy="279" r="3" fill="#009E73"/>
<circle cx="583" cy="285" r="3" fill="#56B4E9"/>
<circle cx="583" cy="228" r="3" fill="#E69F00"/>
<circle cx="583" cy="336" r="3" fill="#C44E52"/>
<circle cx="583" cy="95" r="3" fill="#000000"/>
<circle cx="656" cy="114" r="3" fill="#0072B2"/>
<circle cx="656" cy="41" r="3" fill="#CC79A7"/>
<circle cx="656" cy="339" r="3" fill="#D55E00"/>
<circle cx="656" cy="275" r="3" fill="#009E73"/>
<circle cx="656" cy="236" r="3" fill="#56B4E9"/>
<circle cx="656" cy="228" r="3" fill="#E69F00"/>
<circle cx="656" cy="336" r="3" fill="#C44E52"/>
<circle cx="656" cy="41" r="3" fill="#000000"/>
<circle cx="730" cy="121" r="3" fill="#0072B2"/>
<circle cx="730" cy="48" r="3" fill="#CC79A7"/>
<circle cx="730" cy="339" r="3" fill="#D55E00"/>
<circle cx="730" cy="276" r="3" fill="#009E73"/>
<circle cx="730" cy="239" r="3" fill="#56B4E9"/>
<circle cx="730" cy="228" r="3" fill="#E69F00"/>
<circle cx="730" cy="337" r="3" fill="#C44E52"/>
<circle cx="730" cy="41" r="3" fill="#000000"/>
<circle cx="90" cy="20" r="4" fill="#0072B2"/>
<text x="98" y="24" text-anchor="start" font-size="12" fill="#0072B2">inte</text>
<circle cx="150" cy="20" r="4" fill="#CC79A7"/>
<text x="158" y="24" text-anchor="start" font-size="12" fill="#CC79A7">comp</text>
<circle cx="215" cy="20" r="4" fill="#D55E00"/>
<text x="223" y="24" text-anchor="start" font-size="12" fill="#D55E00">run</text>
<circle cx="270" cy="20" r="4" fill="#009E73"/>
<text x="278" y="24" text-anchor="start" font-size="12" fill="#009E73">wall</text>
<circle cx="335" cy="20" r="4" fill="#56B4E9"/>
<text x="343" y="24" text-anchor="start" font-size="12" fill="#56B4E9">mem-inte</text>
<circle cx="425" cy="20" r="4" fill="#E69F00"/>
<text x="433" y="24" text-anchor="start" font-size="12" fill="#E69F00">mem-comp</text>
<circle cx="520" cy="20" r="4" fill="#C44E52"/>
<text x="528" y="24" text-anchor="start" font-size="12" fill="#C44E52">mem-run</text>
<circle cx="605" cy="20" r="4" fill="#000000"/>
<text x="613" y="24" text-anchor="start" font-size="12" fill="#000000">mem-total</text>
</svg>
