<svg width="800" height="400" xmlns="http://www.w3.org/2000/svg">
<rect width="800" height="400" fill="white"/>
<line x1="70" y1="40" x2="70" y2="340" stroke="#333" stroke-width="1"/>
<line x1="70" y1="340" x2="780" y2="340" stroke="#333" stroke-width="1"/>
<text x="65" y="344" text-anchor="end" font-size="11" fill="#333">0</text>
<text x="65" y="194" text-anchor="end" font-size="11" fill="#333">195500</text>
<text x="65" y="44" text-anchor="end" font-size="11" fill="#333">391000</text>
<text x="15" y="190" text-anchor="middle" font-size="12" fill="#333" transform="rotate(-90 15 190)">ms</text>
<polyline points="70,339 107,339 144,339 182,339 219,339 256,339 294,230 331,229 368,231 406,230 443,230 481,229 518,231 555,230 593,227 630,230 667,226 705,229 742,297 780,297" fill="none" stroke="#2196F3" stroke-width="2"/>
<polyline points="70,335 107,335 144,335 182,335 219,335 256,335 294,300 331,300 368,301 406,300 443,300 481,300 518,301 555,300 593,299 630,300 667,299 705,300 742,323 780,323" fill="none" stroke="#F44336" stroke-width="2"/>
<polyline points="70,334 107,334 144,335 182,335 219,335 256,335 294,48 331,48 368,54 406,50 443,51 481,50 518,52 555,50 593,41 630,51 667,42 705,45 742,227 780,226" fill="none" stroke="#4CAF50" stroke-width="2"/>
<circle cx="70" cy="339" r="3" fill="#2196F3"/>
<circle cx="70" cy="335" r="3" fill="#F44336"/>
<circle cx="70" cy="334" r="3" fill="#4CAF50"/>
<circle cx="107" cy="339" r="3" fill="#2196F3"/>
<circle cx="107" cy="335" r="3" fill="#F44336"/>
<circle cx="107" cy="334" r="3" fill="#4CAF50"/>
<circle cx="144" cy="339" r="3" fill="#2196F3"/>
<circle cx="144" cy="335" r="3" fill="#F44336"/>
<circle cx="144" cy="335" r="3" fill="#4CAF50"/>
<circle cx="182" cy="339" r="3" fill="#2196F3"/>
<circle cx="182" cy="335" r="3" fill="#F44336"/>
<circle cx="182" cy="335" r="3" fill="#4CAF50"/>
<circle cx="219" cy="339" r="3" fill="#2196F3"/>
<circle cx="219" cy="335" r="3" fill="#F44336"/>
<circle cx="219" cy="335" r="3" fill="#4CAF50"/>
<circle cx="256" cy="339" r="3" fill="#2196F3"/>
<circle cx="256" cy="335" r="3" fill="#F44336"/>
<circle cx="256" cy="335" r="3" fill="#4CAF50"/>
<circle cx="294" cy="230" r="3" fill="#2196F3"/>
<circle cx="294" cy="300" r="3" fill="#F44336"/>
<circle cx="294" cy="48" r="3" fill="#4CAF50"/>
<circle cx="331" cy="229" r="3" fill="#2196F3"/>
<circle cx="331" cy="300" r="3" fill="#F44336"/>
<circle cx="331" cy="48" r="3" fill="#4CAF50"/>
<circle cx="368" cy="231" r="3" fill="#2196F3"/>
<circle cx="368" cy="301" r="3" fill="#F44336"/>
<circle cx="368" cy="54" r="3" fill="#4CAF50"/>
<circle cx="406" cy="230" r="3" fill="#2196F3"/>
<circle cx="406" cy="300" r="3" fill="#F44336"/>
<circle cx="406" cy="50" r="3" fill="#4CAF50"/>
<circle cx="443" cy="230" r="3" fill="#2196F3"/>
<circle cx="443" cy="300" r="3" fill="#F44336"/>
<circle cx="443" cy="51" r="3" fill="#4CAF50"/>
<circle cx="481" cy="229" r="3" fill="#2196F3"/>
<circle cx="481" cy="300" r="3" fill="#F44336"/>
<circle cx="481" cy="50" r="3" fill="#4CAF50"/>
<circle cx="518" cy="231" r="3" fill="#2196F3"/>
<circle cx="518" cy="301" r="3" fill="#F44336"/>
<circle cx="518" cy="52" r="3" fill="#4CAF50"/>
<circle cx="555" cy="230" r="3" fill="#2196F3"/>
<circle cx="555" cy="300" r="3" fill="#F44336"/>
<circle cx="555" cy="50" r="3" fill="#4CAF50"/>
<circle cx="593" cy="227" r="3" fill="#2196F3"/>
<circle cx="593" cy="299" r="3" fill="#F44336"/>
<circle cx="593" cy="41" r="3" fill="#4CAF50"/>
<circle cx="630" cy="230" r="3" fill="#2196F3"/>
<circle cx="630" cy="300" r="3" fill="#F44336"/>
<circle cx="630" cy="51" r="3" fill="#4CAF50"/>
<circle cx="667" cy="226" r="3" fill="#2196F3"/>
<circle cx="667" cy="299" r="3" fill="#F44336"/>
<circle cx="667" cy="42" r="3" fill="#4CAF50"/>
<circle cx="705" cy="229" r="3" fill="#2196F3"/>
<circle cx="705" cy="300" r="3" fill="#F44336"/>
<circle cx="705" cy="45" r="3" fill="#4CAF50"/>
<circle cx="742" cy="297" r="3" fill="#2196F3"/>
<circle cx="742" cy="323" r="3" fill="#F44336"/>
<circle cx="742" cy="227" r="3" fill="#4CAF50"/>
<circle cx="780" cy="297" r="3" fill="#2196F3"/>
<circle cx="780" cy="323" r="3" fill="#F44336"/>
<circle cx="780" cy="226" r="3" fill="#4CAF50"/>
<circle cx="90" cy="20" r="4" fill="#2196F3"/>
<text x="98" y="24" text-anchor="start" font-size="12" fill="#2196F3">Interpreted</text>
<circle cx="200" cy="20" r="4" fill="#F44336"/>
<text x="208" y="24" text-anchor="start" font-size="12" fill="#F44336">Compiled</text>
<circle cx="300" cy="20" r="4" fill="#4CAF50"/>
<text x="308" y="24" text-anchor="start" font-size="12" fill="#4CAF50">Wall-clock</text>
</svg>
