<svg width="800" height="400" xmlns="http://www.w3.org/2000/svg">
<rect width="800" height="400" fill="white"/>
<line x1="70" y1="40" x2="70" y2="340" stroke="#333" stroke-width="1"/>
<line x1="70" y1="340" x2="780" y2="340" stroke="#333" stroke-width="1"/>
<text x="65" y="344" text-anchor="end" font-size="11" fill="#333">0</text>
<text x="65" y="194" text-anchor="end" font-size="11" fill="#333">4000</text>
<text x="65" y="44" text-anchor="end" font-size="11" fill="#333">8000</text>
<text x="15" y="190" text-anchor="middle" font-size="12" fill="#333" transform="rotate(-90 15 190)">ms</text>
<polyline points="70,268 102,266 134,269 166,265 199,269 231,267 263,263 295,265 328,260 360,260 392,265 425,261 457,261 489,265 521,259 554,261 586,262 618,266 650,265 683,262 715,263 747,265 780,265" fill="none" stroke="#2196F3" stroke-width="2"/>
<polyline points="70,131 102,132 134,133 166,128 199,130 231,135 263,127 295,127 328,127 360,128 392,128 425,123 457,122 489,128 521,127 554,136 586,130 618,126 650,125 683,128 715,128 747,133 780,128" fill="none" stroke="#F44336" stroke-width="2"/>
<polyline points="70,79 102,80 134,80 166,78 199,84 231,71 263,69 295,69 328,66 360,63 392,64 425,65 457,65 489,66 521,66 554,63 586,61 618,61 650,67 683,61 715,65 747,68 780,65" fill="none" stroke="#4CAF50" stroke-width="2"/>
<circle cx="70" cy="268" r="3" fill="#2196F3"/>
<circle cx="70" cy="131" r="3" fill="#F44336"/>
<circle cx="70" cy="79" r="3" fill="#4CAF50"/>
<circle cx="102" cy="266" r="3" fill="#2196F3"/>
<circle cx="102" cy="132" r="3" fill="#F44336"/>
<circle cx="102" cy="80" r="3" fill="#4CAF50"/>
<circle cx="134" cy="269" r="3" fill="#2196F3"/>
<circle cx="134" cy="133" r="3" fill="#F44336"/>
<circle cx="134" cy="80" r="3" fill="#4CAF50"/>
<circle cx="166" cy="265" r="3" fill="#2196F3"/>
<circle cx="166" cy="128" r="3" fill="#F44336"/>
<circle cx="166" cy="78" r="3" fill="#4CAF50"/>
<circle cx="199" cy="269" r="3" fill="#2196F3"/>
<circle cx="199" cy="130" r="3" fill="#F44336"/>
<circle cx="199" cy="84" r="3" fill="#4CAF50"/>
<circle cx="231" cy="267" r="3" fill="#2196F3"/>
<circle cx="231" cy="135" r="3" fill="#F44336"/>
<circle cx="231" cy="71" r="3" fill="#4CAF50"/>
<circle cx="263" cy="263" r="3" fill="#2196F3"/>
<circle cx="263" cy="127" r="3" fill="#F44336"/>
<circle cx="263" cy="69" r="3" fill="#4CAF50"/>
<circle cx="295" cy="265" r="3" fill="#2196F3"/>
<circle cx="295" cy="127" r="3" fill="#F44336"/>
<circle cx="295" cy="69" r="3" fill="#4CAF50"/>
<circle cx="328" cy="260" r="3" fill="#2196F3"/>
<circle cx="328" cy="127" r="3" fill="#F44336"/>
<circle cx="328" cy="66" r="3" fill="#4CAF50"/>
<circle cx="360" cy="260" r="3" fill="#2196F3"/>
<circle cx="360" cy="128" r="3" fill="#F44336"/>
<circle cx="360" cy="63" r="3" fill="#4CAF50"/>
<circle cx="392" cy="265" r="3" fill="#2196F3"/>
<circle cx="392" cy="128" r="3" fill="#F44336"/>
<circle cx="392" cy="64" r="3" fill="#4CAF50"/>
<circle cx="425" cy="261" r="3" fill="#2196F3"/>
<circle cx="425" cy="123" r="3" fill="#F44336"/>
<circle cx="425" cy="65" r="3" fill="#4CAF50"/>
<circle cx="457" cy="261" r="3" fill="#2196F3"/>
<circle cx="457" cy="122" r="3" fill="#F44336"/>
<circle cx="457" cy="65" r="3" fill="#4CAF50"/>
<circle cx="489" cy="265" r="3" fill="#2196F3"/>
<circle cx="489" cy="128" r="3" fill="#F44336"/>
<circle cx="489" cy="66" r="3" fill="#4CAF50"/>
<circle cx="521" cy="259" r="3" fill="#2196F3"/>
<circle cx="521" cy="127" r="3" fill="#F44336"/>
<circle cx="521" cy="66" r="3" fill="#4CAF50"/>
<circle cx="554" cy="261" r="3" fill="#2196F3"/>
<circle cx="554" cy="136" r="3" fill="#F44336"/>
<circle cx="554" cy="63" r="3" fill="#4CAF50"/>
<circle cx="586" cy="262" r="3" fill="#2196F3"/>
<circle cx="586" cy="130" r="3" fill="#F44336"/>
<circle cx="586" cy="61" r="3" fill="#4CAF50"/>
<circle cx="618" cy="266" r="3" fill="#2196F3"/>
<circle cx="618" cy="126" r="3" fill="#F44336"/>
<circle cx="618" cy="61" r="3" fill="#4CAF50"/>
<circle cx="650" cy="265" r="3" fill="#2196F3"/>
<circle cx="650" cy="125" r="3" fill="#F44336"/>
<circle cx="650" cy="67" r="3" fill="#4CAF50"/>
<circle cx="683" cy="262" r="3" fill="#2196F3"/>
<circle cx="683" cy="128" r="3" fill="#F44336"/>
<circle cx="683" cy="61" r="3" fill="#4CAF50"/>
<circle cx="715" cy="263" r="3" fill="#2196F3"/>
<circle cx="715" cy="128" r="3" fill="#F44336"/>
<circle cx="715" cy="65" r="3" fill="#4CAF50"/>
<circle cx="747" cy="265" r="3" fill="#2196F3"/>
<circle cx="747" cy="133" r="3" fill="#F44336"/>
<circle cx="747" cy="68" r="3" fill="#4CAF50"/>
<circle cx="780" cy="265" r="3" fill="#2196F3"/>
<circle cx="780" cy="128" r="3" fill="#F44336"/>
<circle cx="780" cy="65" r="3" fill="#4CAF50"/>
<text x="70" y="355" text-anchor="middle" font-size="10" fill="#666">d31c3d3</text>
<text x="102" y="355" text-anchor="middle" font-size="10" fill="#666">577b0f6</text>
<text x="134" y="355" text-anchor="middle" font-size="10" fill="#666">a0e3a8f</text>
<text x="166" y="355" text-anchor="middle" font-size="10" fill="#666">32b7787</text>
<text x="199" y="355" text-anchor="middle" font-size="10" fill="#666">940e369</text>
<text x="231" y="355" text-anchor="middle" font-size="10" fill="#666">78956c1</text>
<text x="263" y="355" text-anchor="middle" font-size="10" fill="#666">1a288e9</text>
<text x="295" y="355" text-anchor="middle" font-size="10" fill="#666">f1c0746</text>
<text x="328" y="355" text-anchor="middle" font-size="10" fill="#666">efad3b5</text>
<text x="360" y="355" text-anchor="middle" font-size="10" fill="#666">d3839be</text>
<text x="392" y="355" text-anchor="middle" font-size="10" fill="#666">a0c21b2</text>
<text x="425" y="355" text-anchor="middle" font-size="10" fill="#666">c3d3d81</text>
<text x="457" y="355" text-anchor="middle" font-size="10" fill="#666">e40d897</text>
<text x="489" y="355" text-anchor="middle" font-size="10" fill="#666">0b1ed97</text>
<text x="521" y="355" text-anchor="middle" font-size="10" fill="#666">6a5ae3f</text>
<text x="554" y="355" text-anchor="middle" font-size="10" fill="#666">59cf448</text>
<text x="586" y="355" text-anchor="middle" font-size="10" fill="#666">42b3e04</text>
<text x="618" y="355" text-anchor="middle" font-size="10" fill="#666">bd9421a</text>
<text x="650" y="355" text-anchor="middle" font-size="10" fill="#666">f80812f</text>
<text x="683" y="355" text-anchor="middle" font-size="10" fill="#666">448a5fe</text>
<text x="715" y="355" text-anchor="middle" font-size="10" fill="#666">b16c1cc</text>
<text x="747" y="355" text-anchor="middle" font-size="10" fill="#666">44c334c</text>
<text x="780" y="355" text-anchor="middle" font-size="10" fill="#666">aa51d1a</text>
<circle cx="90" cy="20" r="4" fill="#2196F3"/>
<text x="98" y="24" text-anchor="start" font-size="12" fill="#2196F3">Interpreted</text>
<circle cx="200" cy="20" r="4" fill="#F44336"/>
<text x="208" y="24" text-anchor="start" font-size="12" fill="#F44336">Compiled</text>
<circle cx="300" cy="20" r="4" fill="#4CAF50"/>
<text x="308" y="24" text-anchor="start" font-size="12" fill="#4CAF50">Wall-clock</text>
</svg>
