<svg width="800" height="400" xmlns="http://www.w3.org/2000/svg">
<rect width="800" height="400" fill="white"/>
<line x1="70" y1="40" x2="70" y2="340" stroke="#333" stroke-width="1"/>
<line x1="70" y1="340" x2="730" y2="340" stroke="#333" stroke-width="1"/>
<line x1="730" y1="40" x2="730" y2="340" stroke="#333" stroke-width="1"/>
<text x="65" y="344" text-anchor="end" font-size="11" fill="#333">0</text>
<text x="65" y="194" text-anchor="end" font-size="11" fill="#333">81000</text>
<text x="65" y="44" text-anchor="end" font-size="11" fill="#333">162000</text>
<text x="15" y="190" text-anchor="middle" font-size="12" fill="#333" transform="rotate(-90 15 190)">ms</text>
<text x="735" y="344" text-anchor="start" font-size="11" fill="#333">0</text>
<text x="735" y="194" text-anchor="start" font-size="11" fill="#333">6044000000</text>
<text x="735" y="44" text-anchor="start" font-size="11" fill="#333">12088000000</text>
<text x="785" y="190" text-anchor="middle" font-size="12" fill="#333" transform="rotate(90 785 190)">bytes</text>
<polyline points="70,129 143,133 216,145 290,108 363,112 436,133 510,108 583,108 656,111 730,72" fill="none" stroke="#0072B2" stroke-width="2"/>
<polyline points="70,108 143,111 216,126 290,85 363,89 436,112 510,85 583,86 656,89 730,42" fill="none" stroke="#CC79A7" stroke-width="2"/>
<polyline points="70,340 143,340 216,340 290,340 363,340 436,340 510,340 583,340 656,340 730,340" fill="none" stroke="#D55E00" stroke-width="2"/>
<polyline points="70,139 143,141 216,153 290,116 363,123 436,142 510,116 583,121 656,125 730,79" fill="none" stroke="#009E73" stroke-width="2"/>
<polyline points="70,248 143,248 216,248 290,248 363,248 436,248 510,248 583,248 656,248 730,248" fill="none" stroke="#56B4E9" stroke-width="2"/>
<polyline points="70,198 143,199 216,203 290,201 363,201 436,202 510,199 583,204 656,201 730,194" fill="none" stroke="#E69F00" stroke-width="2"/>
<polyline points="70,340 143,340 216,340 290,340 363,340 436,340 510,340 583,340 656,340 730,340" fill="none" stroke="#C44E52" stroke-width="2"/>
<polyline points="70,56 143,55 216,62 290,59 363,61 436,60 510,56 583,58 656,57 730,41" fill="none" stroke="#000000" stroke-width="2"/>
<circle cx="70" cy="129" r="3" fill="#0072B2"/>
<circle cx="70" cy="108" r="3" fill="#CC79A7"/>
<circle cx="70" cy="340" r="3" fill="#D55E00"/>
<circle cx="70" cy="139" r="3" fill="#009E73"/>
<circle cx="70" cy="248" r="3" fill="#56B4E9"/>
<circle cx="70" cy="198" r="3" fill="#E69F00"/>
<circle cx="70" cy="340" r="3" fill="#C44E52"/>
<circle cx="70" cy="56" r="3" fill="#000000"/>
<circle cx="143" cy="133" r="3" fill="#0072B2"/>
<circle cx="143" cy="111" r="3" fill="#CC79A7"/>
<circle cx="143" cy="340" r="3" fill="#D55E00"/>
<circle cx="143" cy="141" r="3" fill="#009E73"/>
<circle cx="143" cy="248" r="3" fill="#56B4E9"/>
<circle cx="143" cy="199" r="3" fill="#E69F00"/>
<circle cx="143" cy="340" r="3" fill="#C44E52"/>
<circle cx="143" cy="55" r="3" fill="#000000"/>
<circle cx="216" cy="145" r="3" fill="#0072B2"/>
<circle cx="216" cy="126" r="3" fill="#CC79A7"/>
<circle cx="216" cy="340" r="3" fill="#D55E00"/>
<circle cx="216" cy="153" r="3" fill="#009E73"/>
<circle cx="216" cy="248" r="3" fill="#56B4E9"/>
<circle cx="216" cy="203" r="3" fill="#E69F00"/>
<circle cx="216" cy="340" r="3" fill="#C44E52"/>
<circle cx="216" cy="62" r="3" fill="#000000"/>
<circle cx="290" cy="108" r="3" fill="#0072B2"/>
<circle cx="290" cy="85" r="3" fill="#CC79A7"/>
<circle cx="290" cy="340" r="3" fill="#D55E00"/>
<circle cx="290" cy="116" r="3" fill="#009E73"/>
<circle cx="290" cy="248" r="3" fill="#56B4E9"/>
<circle cx="290" cy="201" r="3" fill="#E69F00"/>
<circle cx="290" cy="340" r="3" fill="#C44E52"/>
<circle cx="290" cy="59" r="3" fill="#000000"/>
<circle cx="363" cy="112" r="3" fill="#0072B2"/>
<circle cx="363" cy="89" r="3" fill="#CC79A7"/>
<circle cx="363" cy="340" r="3" fill="#D55E00"/>
<circle cx="363" cy="123" r="3" fill="#009E73"/>
<circle cx="363" cy="248" r="3" fill="#56B4E9"/>
<circle cx="363" cy="201" r="3" fill="#E69F00"/>
<circle cx="363" cy="340" r="3" fill="#C44E52"/>
<circle cx="363" cy="61" r="3" fill="#000000"/>
<circle cx="436" cy="133" r="3" fill="#0072B2"/>
<circle cx="436" cy="112" r="3" fill="#CC79A7"/>
<circle cx="436" cy="340" r="3" fill="#D55E00"/>
<circle cx="436" cy="142" r="3" fill="#009E73"/>
<circle cx="436" cy="248" r="3" fill="#56B4E9"/>
<circle cx="436" cy="202" r="3" fill="#E69F00"/>
<circle cx="436" cy="340" r="3" fill="#C44E52"/>
<circle cx="436" cy="60" r="3" fill="#000000"/>
<circle cx="510" cy="108" r="3" fill="#0072B2"/>
<circle cx="510" cy="85" r="3" fill="#CC79A7"/>
<circle cx="510" cy="340" r="3" fill="#D55E00"/>
<circle cx="510" cy="116" r="3" fill="#009E73"/>
<circle cx="510" cy="248" r="3" fill="#56B4E9"/>
<circle cx="510" cy="199" r="3" fill="#E69F00"/>
<circle cx="510" cy="340" r="3" fill="#C44E52"/>
<circle cx="510" cy="56" r="3" fill="#000000"/>
<circle cx="583" cy="108" r="3" fill="#0072B2"/>
<circle cx="583" cy="86" r="3" fill="#CC79A7"/>
<circle cx="583" cy="340" r="3" fill="#D55E00"/>
<circle cx="583" cy="121" r="3" fill="#009E73"/>
<circle cx="583" cy="248" r="3" fill="#56B4E9"/>
<circle cx="583" cy="204" r="3" fill="#E69F00"/>
<circle cx="583" cy="340" r="3" fill="#C44E52"/>
<circle cx="583" cy="58" r="3" fill="#000000"/>
<circle cx="656" cy="111" r="3" fill="#0072B2"/>
<circle cx="656" cy="89" r="3" fill="#CC79A7"/>
<circle cx="656" cy="340" r="3" fill="#D55E00"/>
<circle cx="656" cy="125" r="3" fill="#009E73"/>
<circle cx="656" cy="248" r="3" fill="#56B4E9"/>
<circle cx="656" cy="201" r="3" fill="#E69F00"/>
<circle cx="656" cy="340" r="3" fill="#C44E52"/>
<circle cx="656" cy="57" r="3" fill="#000000"/>
<circle cx="730" cy="72" r="3" fill="#0072B2"/>
<circle cx="730" cy="42" r="3" fill="#CC79A7"/>
<circle cx="730" cy="340" r="3" fill="#D55E00"/>
<circle cx="730" cy="79" r="3" fill="#009E73"/>
<circle cx="730" cy="248" r="3" fill="#56B4E9"/>
<circle cx="730" cy="194" r="3" fill="#E69F00"/>
<circle cx="730" cy="340" r="3" fill="#C44E52"/>
<circle cx="730" cy="41" r="3" fill="#000000"/>
<circle cx="90" cy="20" r="4" fill="#0072B2"/>
<text x="98" y="24" text-anchor="start" font-size="12" fill="#0072B2">inte</text>
<circle cx="150" cy="20" r="4" fill="#CC79A7"/>
<text x="158" y="24" text-anchor="start" font-size="12" fill="#CC79A7">comp</text>
<circle cx="215" cy="20" r="4" fill="#D55E00"/>
<text x="223" y="24" text-anchor="start" font-size="12" fill="#D55E00">run</text>
<circle cx="270" cy="20" r="4" fill="#009E73"/>
<text x="278" y="24" text-anchor="start" font-size="12" fill="#009E73">wall</text>
<circle cx="335" cy="20" r="4" fill="#56B4E9"/>
<text x="343" y="24" text-anchor="start" font-size="12" fill="#56B4E9">mem-inte</text>
<circle cx="425" cy="20" r="4" fill="#E69F00"/>
<text x="433" y="24" text-anchor="start" font-size="12" fill="#E69F00">mem-comp</text>
<circle cx="520" cy="20" r="4" fill="#C44E52"/>
<text x="528" y="24" text-anchor="start" font-size="12" fill="#C44E52">mem-run</text>
<circle cx="605" cy="20" r="4" fill="#000000"/>
<text x="613" y="24" text-anchor="start" font-size="12" fill="#000000">mem-total</text>
</svg>
