<svg width="800" height="400" xmlns="http://www.w3.org/2000/svg">
<rect width="800" height="400" fill="white"/>
<line x1="70" y1="40" x2="70" y2="340" stroke="#333" stroke-width="1"/>
<line x1="70" y1="340" x2="730" y2="340" stroke="#333" stroke-width="1"/>
<line x1="730" y1="40" x2="730" y2="340" stroke="#333" stroke-width="1"/>
<text x="65" y="344" text-anchor="end" font-size="11" fill="#333">0</text>
<text x="65" y="194" text-anchor="end" font-size="11" fill="#333">51500</text>
<text x="65" y="44" text-anchor="end" font-size="11" fill="#333">103000</text>
<text x="15" y="190" text-anchor="middle" font-size="12" fill="#333" transform="rotate(-90 15 190)">ms</text>
<text x="735" y="344" text-anchor="start" font-size="11" fill="#333">0</text>
<text x="735" y="194" text-anchor="start" font-size="11" fill="#333">5438000000</text>
<text x="735" y="44" text-anchor="start" font-size="11" fill="#333">10876000000</text>
<text x="785" y="190" text-anchor="middle" font-size="12" fill="#333" transform="rotate(90 785 190)">bytes</text>
<polyline points="70,82 143,84 216,86 290,86 363,88 436,84 510,90 583,86 656,87 730,81" fill="none" stroke="#0072B2" stroke-width="2"/>
<polyline points="70,44 143,45 216,48 290,47 363,46 436,47 510,51 583,49 656,51 730,41" fill="none" stroke="#CC79A7" stroke-width="2"/>
<polyline points="70,339 143,339 216,339 290,339 363,339 436,339 510,339 583,339 656,339 730,339" fill="none" stroke="#D55E00" stroke-width="2"/>
<polyline points="70,301 143,302 216,302 290,302 363,298 436,303 510,302 583,302 656,302 730,301" fill="none" stroke="#009E73" stroke-width="2"/>
<polyline points="70,273 143,273 216,273 290,273 363,273 436,272 510,274 583,273 656,274 730,272" fill="none" stroke="#56B4E9" stroke-width="2"/>
<polyline points="70,197 143,197 216,197 290,197 363,197 436,197 510,197 583,197 656,197 730,196" fill="none" stroke="#E69F00" stroke-width="2"/>
<polyline points="70,340 143,340 216,340 290,340 363,340 436,340 510,340 583,340 656,340 730,340" fill="none" stroke="#C44E52" stroke-width="2"/>
<polyline points="70,43 143,42 216,42 290,42 363,42 436,42 510,44 583,42 656,44 730,41" fill="none" stroke="#000000" stroke-width="2"/>
<circle cx="70" cy="82" r="3" fill="#0072B2"/>
<circle cx="70" cy="44" r="3" fill="#CC79A7"/>
<circle cx="70" cy="339" r="3" fill="#D55E00"/>
<circle cx="70" cy="301" r="3" fill="#009E73"/>
<circle cx="70" cy="273" r="3" fill="#56B4E9"/>
<circle cx="70" cy="197" r="3" fill="#E69F00"/>
<circle cx="70" cy="340" r="3" fill="#C44E52"/>
<circle cx="70" cy="43" r="3" fill="#000000"/>
<circle cx="143" cy="84" r="3" fill="#0072B2"/>
<circle cx="143" cy="45" r="3" fill="#CC79A7"/>
<circle cx="143" cy="339" r="3" fill="#D55E00"/>
<circle cx="143" cy="302" r="3" fill="#009E73"/>
<circle cx="143" cy="273" r="3" fill="#56B4E9"/>
<circle cx="143" cy="197" r="3" fill="#E69F00"/>
<circle cx="143" cy="340" r="3" fill="#C44E52"/>
<circle cx="143" cy="42" r="3" fill="#000000"/>
<circle cx="216" cy="86" r="3" fill="#0072B2"/>
<circle cx="216" cy="48" r="3" fill="#CC79A7"/>
<circle cx="216" cy="339" r="3" fill="#D55E00"/>
<circle cx="216" cy="302" r="3" fill="#009E73"/>
<circle cx="216" cy="273" r="3" fill="#56B4E9"/>
<circle cx="216" cy="197" r="3" fill="#E69F00"/>
<circle cx="216" cy="340" r="3" fill="#C44E52"/>
<circle cx="216" cy="42" r="3" fill="#000000"/>
<circle cx="290" cy="86" r="3" fill="#0072B2"/>
<circle cx="290" cy="47" r="3" fill="#CC79A7"/>
<circle cx="290" cy="339" r="3" fill="#D55E00"/>
<circle cx="290" cy="302" r="3" fill="#009E73"/>
<circle cx="290" cy="273" r="3" fill="#56B4E9"/>
<circle cx="290" cy="197" r="3" fill="#E69F00"/>
<circle cx="290" cy="340" r="3" fill="#C44E52"/>
<circle cx="290" cy="42" r="3" fill="#000000"/>
<circle cx="363" cy="88" r="3" fill="#0072B2"/>
<circle cx="363" cy="46" r="3" fill="#CC79A7"/>
<circle cx="363" cy="339" r="3" fill="#D55E00"/>
<circle cx="363" cy="298" r="3" fill="#009E73"/>
<circle cx="363" cy="273" r="3" fill="#56B4E9"/>
<circle cx="363" cy="197" r="3" fill="#E69F00"/>
<circle cx="363" cy="340" r="3" fill="#C44E52"/>
<circle cx="363" cy="42" r="3" fill="#000000"/>
<circle cx="436" cy="84" r="3" fill="#0072B2"/>
<circle cx="436" cy="47" r="3" fill="#CC79A7"/>
<circle cx="436" cy="339" r="3" fill="#D55E00"/>
<circle cx="436" cy="303" r="3" fill="#009E73"/>
<circle cx="436" cy="272" r="3" fill="#56B4E9"/>
<circle cx="436" cy="197" r="3" fill="#E69F00"/>
<circle cx="436" cy="340" r="3" fill="#C44E52"/>
<circle cx="436" cy="42" r="3" fill="#000000"/>
<circle cx="510" cy="90" r="3" fill="#0072B2"/>
<circle cx="510" cy="51" r="3" fill="#CC79A7"/>
<circle cx="510" cy="339" r="3" fill="#D55E00"/>
<circle cx="510" cy="302" r="3" fill="#009E73"/>
<circle cx="510" cy="274" r="3" fill="#56B4E9"/>
<circle cx="510" cy="197" r="3" fill="#E69F00"/>
<circle cx="510" cy="340" r="3" fill="#C44E52"/>
<circle cx="510" cy="44" r="3" fill="#000000"/>
<circle cx="583" cy="86" r="3" fill="#0072B2"/>
<circle cx="583" cy="49" r="3" fill="#CC79A7"/>
<circle cx="583" cy="339" r="3" fill="#D55E00"/>
<circle cx="583" cy="302" r="3" fill="#009E73"/>
<circle cx="583" cy="273" r="3" fill="#56B4E9"/>
<circle cx="583" cy="197" r="3" fill="#E69F00"/>
<circle cx="583" cy="340" r="3" fill="#C44E52"/>
<circle cx="583" cy="42" r="3" fill="#000000"/>
<circle cx="656" cy="87" r="3" fill="#0072B2"/>
<circle cx="656" cy="51" r="3" fill="#CC79A7"/>
<circle cx="656" cy="339" r="3" fill="#D55E00"/>
<circle cx="656" cy="302" r="3" fill="#009E73"/>
<circle cx="656" cy="274" r="3" fill="#56B4E9"/>
<circle cx="656" cy="197" r="3" fill="#E69F00"/>
<circle cx="656" cy="340" r="3" fill="#C44E52"/>
<circle cx="656" cy="44" r="3" fill="#000000"/>
<circle cx="730" cy="81" r="3" fill="#0072B2"/>
<circle cx="730" cy="41" r="3" fill="#CC79A7"/>
<circle cx="730" cy="339" r="3" fill="#D55E00"/>
<circle cx="730" cy="301" r="3" fill="#009E73"/>
<circle cx="730" cy="272" r="3" fill="#56B4E9"/>
<circle cx="730" cy="196" r="3" fill="#E69F00"/>
<circle cx="730" cy="340" r="3" fill="#C44E52"/>
<circle cx="730" cy="41" r="3" fill="#000000"/>
<circle cx="90" cy="20" r="4" fill="#0072B2"/>
<text x="98" y="24" text-anchor="start" font-size="12" fill="#0072B2">inte</text>
<circle cx="150" cy="20" r="4" fill="#CC79A7"/>
<text x="158" y="24" text-anchor="start" font-size="12" fill="#CC79A7">comp</text>
<circle cx="215" cy="20" r="4" fill="#D55E00"/>
<text x="223" y="24" text-anchor="start" font-size="12" fill="#D55E00">run</text>
<circle cx="270" cy="20" r="4" fill="#009E73"/>
<text x="278" y="24" text-anchor="start" font-size="12" fill="#009E73">wall</text>
<circle cx="335" cy="20" r="4" fill="#56B4E9"/>
<text x="343" y="24" text-anchor="start" font-size="12" fill="#56B4E9">mem-inte</text>
<circle cx="425" cy="20" r="4" fill="#E69F00"/>
<text x="433" y="24" text-anchor="start" font-size="12" fill="#E69F00">mem-comp</text>
<circle cx="520" cy="20" r="4" fill="#C44E52"/>
<text x="528" y="24" text-anchor="start" font-size="12" fill="#C44E52">mem-run</text>
<circle cx="605" cy="20" r="4" fill="#000000"/>
<text x="613" y="24" text-anchor="start" font-size="12" fill="#000000">mem-total</text>
</svg>
