<svg width="800" height="400" xmlns="http://www.w3.org/2000/svg">
<rect width="800" height="400" fill="white"/>
<line x1="70" y1="40" x2="70" y2="340" stroke="#333" stroke-width="1"/>
<line x1="70" y1="340" x2="780" y2="340" stroke="#333" stroke-width="1"/>
<text x="65" y="344" text-anchor="end" font-size="11" fill="#333">0</text>
<text x="65" y="194" text-anchor="end" font-size="11" fill="#333">4000</text>
<text x="65" y="44" text-anchor="end" font-size="11" fill="#333">8000</text>
<text x="15" y="190" text-anchor="middle" font-size="12" fill="#333" transform="rotate(-90 15 190)">ms</text>
<polyline points="70,268 103,266 137,269 171,265 205,269 239,267 272,263 306,265 340,260 374,260 408,265 441,261 475,261 509,265 543,259 577,261 610,262 644,266 678,265 712,262 746,263 780,265" fill="none" stroke="#2196F3" stroke-width="2"/>
<polyline points="70,131 103,132 137,133 171,128 205,130 239,135 272,127 306,127 340,127 374,128 408,128 441,123 475,122 509,128 543,127 577,136 610,130 644,126 678,125 712,128 746,128 780,133" fill="none" stroke="#F44336" stroke-width="2"/>
<polyline points="70,79 103,80 137,80 171,78 205,84 239,71 272,69 306,69 340,66 374,63 408,64 441,65 475,65 509,66 543,66 577,63 610,61 644,61 678,67 712,61 746,65 780,68" fill="none" stroke="#4CAF50" stroke-width="2"/>
<circle cx="70" cy="268" r="3" fill="#2196F3"/>
<circle cx="70" cy="131" r="3" fill="#F44336"/>
<circle cx="70" cy="79" r="3" fill="#4CAF50"/>
<circle cx="103" cy="266" r="3" fill="#2196F3"/>
<circle cx="103" cy="132" r="3" fill="#F44336"/>
<circle cx="103" cy="80" r="3" fill="#4CAF50"/>
<circle cx="137" cy="269" r="3" fill="#2196F3"/>
<circle cx="137" cy="133" r="3" fill="#F44336"/>
<circle cx="137" cy="80" r="3" fill="#4CAF50"/>
<circle cx="171" cy="265" r="3" fill="#2196F3"/>
<circle cx="171" cy="128" r="3" fill="#F44336"/>
<circle cx="171" cy="78" r="3" fill="#4CAF50"/>
<circle cx="205" cy="269" r="3" fill="#2196F3"/>
<circle cx="205" cy="130" r="3" fill="#F44336"/>
<circle cx="205" cy="84" r="3" fill="#4CAF50"/>
<circle cx="239" cy="267" r="3" fill="#2196F3"/>
<circle cx="239" cy="135" r="3" fill="#F44336"/>
<circle cx="239" cy="71" r="3" fill="#4CAF50"/>
<circle cx="272" cy="263" r="3" fill="#2196F3"/>
<circle cx="272" cy="127" r="3" fill="#F44336"/>
<circle cx="272" cy="69" r="3" fill="#4CAF50"/>
<circle cx="306" cy="265" r="3" fill="#2196F3"/>
<circle cx="306" cy="127" r="3" fill="#F44336"/>
<circle cx="306" cy="69" r="3" fill="#4CAF50"/>
<circle cx="340" cy="260" r="3" fill="#2196F3"/>
<circle cx="340" cy="127" r="3" fill="#F44336"/>
<circle cx="340" cy="66" r="3" fill="#4CAF50"/>
<circle cx="374" cy="260" r="3" fill="#2196F3"/>
<circle cx="374" cy="128" r="3" fill="#F44336"/>
<circle cx="374" cy="63" r="3" fill="#4CAF50"/>
<circle cx="408" cy="265" r="3" fill="#2196F3"/>
<circle cx="408" cy="128" r="3" fill="#F44336"/>
<circle cx="408" cy="64" r="3" fill="#4CAF50"/>
<circle cx="441" cy="261" r="3" fill="#2196F3"/>
<circle cx="441" cy="123" r="3" fill="#F44336"/>
<circle cx="441" cy="65" r="3" fill="#4CAF50"/>
<circle cx="475" cy="261" r="3" fill="#2196F3"/>
<circle cx="475" cy="122" r="3" fill="#F44336"/>
<circle cx="475" cy="65" r="3" fill="#4CAF50"/>
<circle cx="509" cy="265" r="3" fill="#2196F3"/>
<circle cx="509" cy="128" r="3" fill="#F44336"/>
<circle cx="509" cy="66" r="3" fill="#4CAF50"/>
<circle cx="543" cy="259" r="3" fill="#2196F3"/>
<circle cx="543" cy="127" r="3" fill="#F44336"/>
<circle cx="543" cy="66" r="3" fill="#4CAF50"/>
<circle cx="577" cy="261" r="3" fill="#2196F3"/>
<circle cx="577" cy="136" r="3" fill="#F44336"/>
<circle cx="577" cy="63" r="3" fill="#4CAF50"/>
<circle cx="610" cy="262" r="3" fill="#2196F3"/>
<circle cx="610" cy="130" r="3" fill="#F44336"/>
<circle cx="610" cy="61" r="3" fill="#4CAF50"/>
<circle cx="644" cy="266" r="3" fill="#2196F3"/>
<circle cx="644" cy="126" r="3" fill="#F44336"/>
<circle cx="644" cy="61" r="3" fill="#4CAF50"/>
<circle cx="678" cy="265" r="3" fill="#2196F3"/>
<circle cx="678" cy="125" r="3" fill="#F44336"/>
<circle cx="678" cy="67" r="3" fill="#4CAF50"/>
<circle cx="712" cy="262" r="3" fill="#2196F3"/>
<circle cx="712" cy="128" r="3" fill="#F44336"/>
<circle cx="712" cy="61" r="3" fill="#4CAF50"/>
<circle cx="746" cy="263" r="3" fill="#2196F3"/>
<circle cx="746" cy="128" r="3" fill="#F44336"/>
<circle cx="746" cy="65" r="3" fill="#4CAF50"/>
<circle cx="780" cy="265" r="3" fill="#2196F3"/>
<circle cx="780" cy="133" r="3" fill="#F44336"/>
<circle cx="780" cy="68" r="3" fill="#4CAF50"/>
<text x="70" y="355" text-anchor="middle" font-size="10" fill="#666">d31c3d3</text>
<text x="103" y="355" text-anchor="middle" font-size="10" fill="#666">577b0f6</text>
<text x="137" y="355" text-anchor="middle" font-size="10" fill="#666">a0e3a8f</text>
<text x="171" y="355" text-anchor="middle" font-size="10" fill="#666">32b7787</text>
<text x="205" y="355" text-anchor="middle" font-size="10" fill="#666">940e369</text>
<text x="239" y="355" text-anchor="middle" font-size="10" fill="#666">78956c1</text>
<text x="272" y="355" text-anchor="middle" font-size="10" fill="#666">1a288e9</text>
<text x="306" y="355" text-anchor="middle" font-size="10" fill="#666">f1c0746</text>
<text x="340" y="355" text-anchor="middle" font-size="10" fill="#666">efad3b5</text>
<text x="374" y="355" text-anchor="middle" font-size="10" fill="#666">d3839be</text>
<text x="408" y="355" text-anchor="middle" font-size="10" fill="#666">a0c21b2</text>
<text x="441" y="355" text-anchor="middle" font-size="10" fill="#666">c3d3d81</text>
<text x="475" y="355" text-anchor="middle" font-size="10" fill="#666">e40d897</text>
<text x="509" y="355" text-anchor="middle" font-size="10" fill="#666">0b1ed97</text>
<text x="543" y="355" text-anchor="middle" font-size="10" fill="#666">6a5ae3f</text>
<text x="577" y="355" text-anchor="middle" font-size="10" fill="#666">59cf448</text>
<text x="610" y="355" text-anchor="middle" font-size="10" fill="#666">42b3e04</text>
<text x="644" y="355" text-anchor="middle" font-size="10" fill="#666">bd9421a</text>
<text x="678" y="355" text-anchor="middle" font-size="10" fill="#666">f80812f</text>
<text x="712" y="355" text-anchor="middle" font-size="10" fill="#666">448a5fe</text>
<text x="746" y="355" text-anchor="middle" font-size="10" fill="#666">b16c1cc</text>
<text x="780" y="355" text-anchor="middle" font-size="10" fill="#666">44c334c</text>
<circle cx="90" cy="20" r="4" fill="#2196F3"/>
<text x="98" y="24" text-anchor="start" font-size="12" fill="#2196F3">Interpreted</text>
<circle cx="200" cy="20" r="4" fill="#F44336"/>
<text x="208" y="24" text-anchor="start" font-size="12" fill="#F44336">Compiled</text>
<circle cx="300" cy="20" r="4" fill="#4CAF50"/>
<text x="308" y="24" text-anchor="start" font-size="12" fill="#4CAF50">Wall-clock</text>
</svg>
