<svg width="800" height="400" xmlns="http://www.w3.org/2000/svg">
<rect width="800" height="400" fill="white"/>
<line x1="70" y1="40" x2="70" y2="340" stroke="#333" stroke-width="1"/>
<line x1="70" y1="340" x2="730" y2="340" stroke="#333" stroke-width="1"/>
<line x1="730" y1="40" x2="730" y2="340" stroke="#333" stroke-width="1"/>
<text x="65" y="344" text-anchor="end" font-size="11" fill="#333">0</text>
<text x="65" y="194" text-anchor="end" font-size="11" fill="#333">139500</text>
<text x="65" y="44" text-anchor="end" font-size="11" fill="#333">279000</text>
<text x="15" y="190" text-anchor="middle" font-size="12" fill="#333" transform="rotate(-90 15 190)">ms</text>
<text x="735" y="344" text-anchor="start" font-size="11" fill="#333">0</text>
<text x="735" y="194" text-anchor="start" font-size="11" fill="#333">7715000000</text>
<text x="735" y="44" text-anchor="start" font-size="11" fill="#333">15430000000</text>
<text x="785" y="190" text-anchor="middle" font-size="12" fill="#333" transform="rotate(90 785 190)">bytes</text>
<polyline points="70,45 143,46 216,54 290,51 363,50 436,50 510,49 583,41 656,46 730,44" fill="none" stroke="#0072B2" stroke-width="2"/>
<polyline points="70,72 143,76 216,81 290,81 363,77 436,76 510,76 583,73 656,75 730,75" fill="none" stroke="#CC79A7" stroke-width="2"/>
<polyline points="70,340 143,340 216,340 290,340 363,340 436,340 510,340 583,340 656,340 730,340" fill="none" stroke="#D55E00" stroke-width="2"/>
<polyline points="70,288 143,288 216,289 290,288 363,288 436,288 510,288 583,288 656,288 730,287" fill="none" stroke="#009E73" stroke-width="2"/>
<polyline points="70,293 143,293 216,294 290,294 363,294 436,294 510,294 583,294 656,294 730,294" fill="none" stroke="#56B4E9" stroke-width="2"/>
<polyline points="70,213 143,213 216,215 290,215 363,215 436,215 510,213 583,213 656,213 730,213" fill="none" stroke="#E69F00" stroke-width="2"/>
<polyline points="70,339 143,339 216,339 290,338 363,339 436,339 510,339 583,339 656,339 730,339" fill="none" stroke="#C44E52" stroke-width="2"/>
<polyline points="70,41 143,41 216,42 290,44 363,46 436,46 510,41 583,42 656,41 730,42" fill="none" stroke="#000000" stroke-width="2"/>
<circle cx="70" cy="45" r="3" fill="#0072B2"/>
<circle cx="70" cy="72" r="3" fill="#CC79A7"/>
<circle cx="70" cy="340" r="3" fill="#D55E00"/>
<circle cx="70" cy="288" r="3" fill="#009E73"/>
<circle cx="70" cy="293" r="3" fill="#56B4E9"/>
<circle cx="70" cy="213" r="3" fill="#E69F00"/>
<circle cx="70" cy="339" r="3" fill="#C44E52"/>
<circle cx="70" cy="41" r="3" fill="#000000"/>
<circle cx="143" cy="46" r="3" fill="#0072B2"/>
<circle cx="143" cy="76" r="3" fill="#CC79A7"/>
<circle cx="143" cy="340" r="3" fill="#D55E00"/>
<circle cx="143" cy="288" r="3" fill="#009E73"/>
<circle cx="143" cy="293" r="3" fill="#56B4E9"/>
<circle cx="143" cy="213" r="3" fill="#E69F00"/>
<circle cx="143" cy="339" r="3" fill="#C44E52"/>
<circle cx="143" cy="41" r="3" fill="#000000"/>
<circle cx="216" cy="54" r="3" fill="#0072B2"/>
<circle cx="216" cy="81" r="3" fill="#CC79A7"/>
<circle cx="216" cy="340" r="3" fill="#D55E00"/>
<circle cx="216" cy="289" r="3" fill="#009E73"/>
<circle cx="216" cy="294" r="3" fill="#56B4E9"/>
<circle cx="216" cy="215" r="3" fill="#E69F00"/>
<circle cx="216" cy="339" r="3" fill="#C44E52"/>
<circle cx="216" cy="42" r="3" fill="#000000"/>
<circle cx="290" cy="51" r="3" fill="#0072B2"/>
<circle cx="290" cy="81" r="3" fill="#CC79A7"/>
<circle cx="290" cy="340" r="3" fill="#D55E00"/>
<circle cx="290" cy="288" r="3" fill="#009E73"/>
<circle cx="290" cy="294" r="3" fill="#56B4E9"/>
<circle cx="290" cy="215" r="3" fill="#E69F00"/>
<circle cx="290" cy="338" r="3" fill="#C44E52"/>
<circle cx="290" cy="44" r="3" fill="#000000"/>
<circle cx="363" cy="50" r="3" fill="#0072B2"/>
<circle cx="363" cy="77" r="3" fill="#CC79A7"/>
<circle cx="363" cy="340" r="3" fill="#D55E00"/>
<circle cx="363" cy="288" r="3" fill="#009E73"/>
<circle cx="363" cy="294" r="3" fill="#56B4E9"/>
<circle cx="363" cy="215" r="3" fill="#E69F00"/>
<circle cx="363" cy="339" r="3" fill="#C44E52"/>
<circle cx="363" cy="46" r="3" fill="#000000"/>
<circle cx="436" cy="50" r="3" fill="#0072B2"/>
<circle cx="436" cy="76" r="3" fill="#CC79A7"/>
<circle cx="436" cy="340" r="3" fill="#D55E00"/>
<circle cx="436" cy="288" r="3" fill="#009E73"/>
<circle cx="436" cy="294" r="3" fill="#56B4E9"/>
<circle cx="436" cy="215" r="3" fill="#E69F00"/>
<circle cx="436" cy="339" r="3" fill="#C44E52"/>
<circle cx="436" cy="46" r="3" fill="#000000"/>
<circle cx="510" cy="49" r="3" fill="#0072B2"/>
<circle cx="510" cy="76" r="3" fill="#CC79A7"/>
<circle cx="510" cy="340" r="3" fill="#D55E00"/>
<circle cx="510" cy="288" r="3" fill="#009E73"/>
<circle cx="510" cy="294" r="3" fill="#56B4E9"/>
<circle cx="510" cy="213" r="3" fill="#E69F00"/>
<circle cx="510" cy="339" r="3" fill="#C44E52"/>
<circle cx="510" cy="41" r="3" fill="#000000"/>
<circle cx="583" cy="41" r="3" fill="#0072B2"/>
<circle cx="583" cy="73" r="3" fill="#CC79A7"/>
<circle cx="583" cy="340" r="3" fill="#D55E00"/>
<circle cx="583" cy="288" r="3" fill="#009E73"/>
<circle cx="583" cy="294" r="3" fill="#56B4E9"/>
<circle cx="583" cy="213" r="3" fill="#E69F00"/>
<circle cx="583" cy="339" r="3" fill="#C44E52"/>
<circle cx="583" cy="42" r="3" fill="#000000"/>
<circle cx="656" cy="46" r="3" fill="#0072B2"/>
<circle cx="656" cy="75" r="3" fill="#CC79A7"/>
<circle cx="656" cy="340" r="3" fill="#D55E00"/>
<circle cx="656" cy="288" r="3" fill="#009E73"/>
<circle cx="656" cy="294" r="3" fill="#56B4E9"/>
<circle cx="656" cy="213" r="3" fill="#E69F00"/>
<circle cx="656" cy="339" r="3" fill="#C44E52"/>
<circle cx="656" cy="41" r="3" fill="#000000"/>
<circle cx="730" cy="44" r="3" fill="#0072B2"/>
<circle cx="730" cy="75" r="3" fill="#CC79A7"/>
<circle cx="730" cy="340" r="3" fill="#D55E00"/>
<circle cx="730" cy="287" r="3" fill="#009E73"/>
<circle cx="730" cy="294" r="3" fill="#56B4E9"/>
<circle cx="730" cy="213" r="3" fill="#E69F00"/>
<circle cx="730" cy="339" r="3" fill="#C44E52"/>
<circle cx="730" cy="42" r="3" fill="#000000"/>
<circle cx="90" cy="20" r="4" fill="#0072B2"/>
<text x="98" y="24" text-anchor="start" font-size="12" fill="#0072B2">inte</text>
<circle cx="150" cy="20" r="4" fill="#CC79A7"/>
<text x="158" y="24" text-anchor="start" font-size="12" fill="#CC79A7">comp</text>
<circle cx="215" cy="20" r="4" fill="#D55E00"/>
<text x="223" y="24" text-anchor="start" font-size="12" fill="#D55E00">run</text>
<circle cx="270" cy="20" r="4" fill="#009E73"/>
<text x="278" y="24" text-anchor="start" font-size="12" fill="#009E73">wall</text>
<circle cx="335" cy="20" r="4" fill="#56B4E9"/>
<text x="343" y="24" text-anchor="start" font-size="12" fill="#56B4E9">mem-inte</text>
<circle cx="425" cy="20" r="4" fill="#E69F00"/>
<text x="433" y="24" text-anchor="start" font-size="12" fill="#E69F00">mem-comp</text>
<circle cx="520" cy="20" r="4" fill="#C44E52"/>
<text x="528" y="24" text-anchor="start" font-size="12" fill="#C44E52">mem-run</text>
<circle cx="605" cy="20" r="4" fill="#000000"/>
<text x="613" y="24" text-anchor="start" font-size="12" fill="#000000">mem-total</text>
</svg>
