<svg width="800" height="400" xmlns="http://www.w3.org/2000/svg">
<rect width="800" height="400" fill="white"/>
<line x1="70" y1="40" x2="70" y2="340" stroke="#333" stroke-width="1"/>
<line x1="70" y1="340" x2="780" y2="340" stroke="#333" stroke-width="1"/>
<text x="65" y="344" text-anchor="end" font-size="11" fill="#333">0</text>
<text x="65" y="194" text-anchor="end" font-size="11" fill="#333">123000</text>
<text x="65" y="44" text-anchor="end" font-size="11" fill="#333">246000</text>
<text x="15" y="190" text-anchor="middle" font-size="12" fill="#333" transform="rotate(-90 15 190)">ms</text>
<polyline points="70,147 148,148 227,146 306,148 385,215 464,215 543,215 622,216 701,210 780,42" fill="none" stroke="#0072B2" stroke-width="2"/>
<polyline points="70,253 148,253 227,251 306,252 385,291 464,291 543,291 622,291 701,290 780,174" fill="none" stroke="#D55E00" stroke-width="2"/>
<polyline points="70,165 148,165 227,162 306,161 385,226 464,224 543,227 622,226 701,225 780,59" fill="none" stroke="#CC79A7" stroke-width="2"/>
<polyline points="70,255 148,255 227,253 306,253 385,293 464,293 543,293 622,293 701,293 780,178" fill="none" stroke="#E69F00" stroke-width="2"/>
<polyline points="70,199 148,199 227,198 306,198 385,200 464,198 543,200 622,200 701,194 780,104" fill="none" stroke="#009E73" stroke-width="2"/>
<circle cx="70" cy="147" r="3" fill="#0072B2"/>
<circle cx="70" cy="253" r="3" fill="#D55E00"/>
<circle cx="70" cy="165" r="3" fill="#CC79A7"/>
<circle cx="70" cy="255" r="3" fill="#E69F00"/>
<circle cx="70" cy="199" r="3" fill="#009E73"/>
<circle cx="148" cy="148" r="3" fill="#0072B2"/>
<circle cx="148" cy="253" r="3" fill="#D55E00"/>
<circle cx="148" cy="165" r="3" fill="#CC79A7"/>
<circle cx="148" cy="255" r="3" fill="#E69F00"/>
<circle cx="148" cy="199" r="3" fill="#009E73"/>
<circle cx="227" cy="146" r="3" fill="#0072B2"/>
<circle cx="227" cy="251" r="3" fill="#D55E00"/>
<circle cx="227" cy="162" r="3" fill="#CC79A7"/>
<circle cx="227" cy="253" r="3" fill="#E69F00"/>
<circle cx="227" cy="198" r="3" fill="#009E73"/>
<circle cx="306" cy="148" r="3" fill="#0072B2"/>
<circle cx="306" cy="252" r="3" fill="#D55E00"/>
<circle cx="306" cy="161" r="3" fill="#CC79A7"/>
<circle cx="306" cy="253" r="3" fill="#E69F00"/>
<circle cx="306" cy="198" r="3" fill="#009E73"/>
<circle cx="385" cy="215" r="3" fill="#0072B2"/>
<circle cx="385" cy="291" r="3" fill="#D55E00"/>
<circle cx="385" cy="226" r="3" fill="#CC79A7"/>
<circle cx="385" cy="293" r="3" fill="#E69F00"/>
<circle cx="385" cy="200" r="3" fill="#009E73"/>
<circle cx="464" cy="215" r="3" fill="#0072B2"/>
<circle cx="464" cy="291" r="3" fill="#D55E00"/>
<circle cx="464" cy="224" r="3" fill="#CC79A7"/>
<circle cx="464" cy="293" r="3" fill="#E69F00"/>
<circle cx="464" cy="198" r="3" fill="#009E73"/>
<circle cx="543" cy="215" r="3" fill="#0072B2"/>
<circle cx="543" cy="291" r="3" fill="#D55E00"/>
<circle cx="543" cy="227" r="3" fill="#CC79A7"/>
<circle cx="543" cy="293" r="3" fill="#E69F00"/>
<circle cx="543" cy="200" r="3" fill="#009E73"/>
<circle cx="622" cy="216" r="3" fill="#0072B2"/>
<circle cx="622" cy="291" r="3" fill="#D55E00"/>
<circle cx="622" cy="226" r="3" fill="#CC79A7"/>
<circle cx="622" cy="293" r="3" fill="#E69F00"/>
<circle cx="622" cy="200" r="3" fill="#009E73"/>
<circle cx="701" cy="210" r="3" fill="#0072B2"/>
<circle cx="701" cy="290" r="3" fill="#D55E00"/>
<circle cx="701" cy="225" r="3" fill="#CC79A7"/>
<circle cx="701" cy="293" r="3" fill="#E69F00"/>
<circle cx="701" cy="194" r="3" fill="#009E73"/>
<circle cx="780" cy="42" r="3" fill="#0072B2"/>
<circle cx="780" cy="174" r="3" fill="#D55E00"/>
<circle cx="780" cy="59" r="3" fill="#CC79A7"/>
<circle cx="780" cy="178" r="3" fill="#E69F00"/>
<circle cx="780" cy="104" r="3" fill="#009E73"/>
<circle cx="90" cy="20" r="4" fill="#0072B2"/>
<text x="98" y="24" text-anchor="start" font-size="12" fill="#0072B2">ctil-i</text>
<circle cx="160" cy="20" r="4" fill="#D55E00"/>
<text x="168" y="24" text-anchor="start" font-size="12" fill="#D55E00">ctil-r</text>
<circle cx="230" cy="20" r="4" fill="#CC79A7"/>
<text x="238" y="24" text-anchor="start" font-size="12" fill="#CC79A7">til-i</text>
<circle cx="290" cy="20" r="4" fill="#E69F00"/>
<text x="298" y="24" text-anchor="start" font-size="12" fill="#E69F00">til-r</text>
<circle cx="350" cy="20" r="4" fill="#009E73"/>
<text x="358" y="24" text-anchor="start" font-size="12" fill="#009E73">Wall</text>
</svg>
