<svg width="800" height="400" xmlns="http://www.w3.org/2000/svg">
<rect width="800" height="400" fill="white"/>
<line x1="70" y1="40" x2="70" y2="340" stroke="#333" stroke-width="1"/>
<line x1="70" y1="340" x2="780" y2="340" stroke="#333" stroke-width="1"/>
<text x="65" y="344" text-anchor="end" font-size="11" fill="#333">0</text>
<text x="65" y="194" text-anchor="end" font-size="11" fill="#333">195500</text>
<text x="65" y="44" text-anchor="end" font-size="11" fill="#333">391000</text>
<text x="15" y="190" text-anchor="middle" font-size="12" fill="#333" transform="rotate(-90 15 190)">ms</text>
<polyline points="70,231 107,230 144,227 182,230 219,226 256,229 294,297 331,297 368,300 406,300 443,301 481,301 518,300 555,300 593,301 630,297 667,297 705,295 742,294 780,295" fill="none" stroke="#2196F3" stroke-width="2"/>
<polyline points="70,301 107,300 144,299 182,300 219,299 256,300 294,323 331,323 368,326 406,326 443,326 481,326 518,326 555,326 593,326 630,326 667,326 705,323 742,324 780,323" fill="none" stroke="#F44336" stroke-width="2"/>
<polyline points="70,52 107,50 144,41 182,51 219,42 256,45 294,227 331,226 368,226 406,228 443,228 481,229 518,226 555,228 593,227 630,225 667,225 705,220 742,219 780,219" fill="none" stroke="#4CAF50" stroke-width="2"/>
<circle cx="70" cy="231" r="3" fill="#2196F3"/>
<circle cx="70" cy="301" r="3" fill="#F44336"/>
<circle cx="70" cy="52" r="3" fill="#4CAF50"/>
<circle cx="107" cy="230" r="3" fill="#2196F3"/>
<circle cx="107" cy="300" r="3" fill="#F44336"/>
<circle cx="107" cy="50" r="3" fill="#4CAF50"/>
<circle cx="144" cy="227" r="3" fill="#2196F3"/>
<circle cx="144" cy="299" r="3" fill="#F44336"/>
<circle cx="144" cy="41" r="3" fill="#4CAF50"/>
<circle cx="182" cy="230" r="3" fill="#2196F3"/>
<circle cx="182" cy="300" r="3" fill="#F44336"/>
<circle cx="182" cy="51" r="3" fill="#4CAF50"/>
<circle cx="219" cy="226" r="3" fill="#2196F3"/>
<circle cx="219" cy="299" r="3" fill="#F44336"/>
<circle cx="219" cy="42" r="3" fill="#4CAF50"/>
<circle cx="256" cy="229" r="3" fill="#2196F3"/>
<circle cx="256" cy="300" r="3" fill="#F44336"/>
<circle cx="256" cy="45" r="3" fill="#4CAF50"/>
<circle cx="294" cy="297" r="3" fill="#2196F3"/>
<circle cx="294" cy="323" r="3" fill="#F44336"/>
<circle cx="294" cy="227" r="3" fill="#4CAF50"/>
<circle cx="331" cy="297" r="3" fill="#2196F3"/>
<circle cx="331" cy="323" r="3" fill="#F44336"/>
<circle cx="331" cy="226" r="3" fill="#4CAF50"/>
<circle cx="368" cy="300" r="3" fill="#2196F3"/>
<circle cx="368" cy="326" r="3" fill="#F44336"/>
<circle cx="368" cy="226" r="3" fill="#4CAF50"/>
<circle cx="406" cy="300" r="3" fill="#2196F3"/>
<circle cx="406" cy="326" r="3" fill="#F44336"/>
<circle cx="406" cy="228" r="3" fill="#4CAF50"/>
<circle cx="443" cy="301" r="3" fill="#2196F3"/>
<circle cx="443" cy="326" r="3" fill="#F44336"/>
<circle cx="443" cy="228" r="3" fill="#4CAF50"/>
<circle cx="481" cy="301" r="3" fill="#2196F3"/>
<circle cx="481" cy="326" r="3" fill="#F44336"/>
<circle cx="481" cy="229" r="3" fill="#4CAF50"/>
<circle cx="518" cy="300" r="3" fill="#2196F3"/>
<circle cx="518" cy="326" r="3" fill="#F44336"/>
<circle cx="518" cy="226" r="3" fill="#4CAF50"/>
<circle cx="555" cy="300" r="3" fill="#2196F3"/>
<circle cx="555" cy="326" r="3" fill="#F44336"/>
<circle cx="555" cy="228" r="3" fill="#4CAF50"/>
<circle cx="593" cy="301" r="3" fill="#2196F3"/>
<circle cx="593" cy="326" r="3" fill="#F44336"/>
<circle cx="593" cy="227" r="3" fill="#4CAF50"/>
<circle cx="630" cy="297" r="3" fill="#2196F3"/>
<circle cx="630" cy="326" r="3" fill="#F44336"/>
<circle cx="630" cy="225" r="3" fill="#4CAF50"/>
<circle cx="667" cy="297" r="3" fill="#2196F3"/>
<circle cx="667" cy="326" r="3" fill="#F44336"/>
<circle cx="667" cy="225" r="3" fill="#4CAF50"/>
<circle cx="705" cy="295" r="3" fill="#2196F3"/>
<circle cx="705" cy="323" r="3" fill="#F44336"/>
<circle cx="705" cy="220" r="3" fill="#4CAF50"/>
<circle cx="742" cy="294" r="3" fill="#2196F3"/>
<circle cx="742" cy="324" r="3" fill="#F44336"/>
<circle cx="742" cy="219" r="3" fill="#4CAF50"/>
<circle cx="780" cy="295" r="3" fill="#2196F3"/>
<circle cx="780" cy="323" r="3" fill="#F44336"/>
<circle cx="780" cy="219" r="3" fill="#4CAF50"/>
<circle cx="90" cy="20" r="4" fill="#2196F3"/>
<text x="98" y="24" text-anchor="start" font-size="12" fill="#2196F3">Interpreted</text>
<circle cx="200" cy="20" r="4" fill="#F44336"/>
<text x="208" y="24" text-anchor="start" font-size="12" fill="#F44336">Compiled</text>
<circle cx="300" cy="20" r="4" fill="#4CAF50"/>
<text x="308" y="24" text-anchor="start" font-size="12" fill="#4CAF50">Wall-clock</text>
</svg>
