<svg width="800" height="400" xmlns="http://www.w3.org/2000/svg">
<rect width="800" height="400" fill="white"/>
<line x1="70" y1="40" x2="70" y2="340" stroke="#333" stroke-width="1"/>
<line x1="70" y1="340" x2="780" y2="340" stroke="#333" stroke-width="1"/>
<text x="65" y="344" text-anchor="end" font-size="11" fill="#333">0</text>
<text x="65" y="194" text-anchor="end" font-size="11" fill="#333">4000</text>
<text x="65" y="44" text-anchor="end" font-size="11" fill="#333">8000</text>
<text x="15" y="190" text-anchor="middle" font-size="12" fill="#333" transform="rotate(-90 15 190)">ms</text>
<polyline points="70,268 91,266 113,269 134,265 156,269 177,267 199,263 220,265 242,260 263,260 285,265 306,261 328,261 349,265 371,259 392,261 414,262 435,266 457,265 478,262 500,263 521,265 543,265 564,265 586,263 607,262 629,264 650,265 672,264 693,262 715,264 736,260 758,263 780,264" fill="none" stroke="#2196F3" stroke-width="2"/>
<polyline points="70,131 91,132 113,133 134,128 156,130 177,135 199,127 220,127 242,127 263,128 285,128 306,123 328,122 349,128 371,127 392,136 414,130 435,126 457,125 478,128 500,128 521,133 543,128 564,135 586,96 607,103 629,101 650,105 672,103 693,104 715,105 736,105 758,99 780,99" fill="none" stroke="#F44336" stroke-width="2"/>
<polyline points="70,79 91,80 113,80 134,78 156,84 177,71 199,69 220,69 242,66 263,63 285,64 306,65 328,65 349,66 371,66 392,63 414,61 435,61 457,67 478,61 500,65 521,68 543,65 564,66 586,57 607,63 629,57 650,58 672,63 693,65 715,56 736,49 758,53 780,52" fill="none" stroke="#4CAF50" stroke-width="2"/>
<circle cx="70" cy="268" r="3" fill="#2196F3"/>
<circle cx="70" cy="131" r="3" fill="#F44336"/>
<circle cx="70" cy="79" r="3" fill="#4CAF50"/>
<circle cx="91" cy="266" r="3" fill="#2196F3"/>
<circle cx="91" cy="132" r="3" fill="#F44336"/>
<circle cx="91" cy="80" r="3" fill="#4CAF50"/>
<circle cx="113" cy="269" r="3" fill="#2196F3"/>
<circle cx="113" cy="133" r="3" fill="#F44336"/>
<circle cx="113" cy="80" r="3" fill="#4CAF50"/>
<circle cx="134" cy="265" r="3" fill="#2196F3"/>
<circle cx="134" cy="128" r="3" fill="#F44336"/>
<circle cx="134" cy="78" r="3" fill="#4CAF50"/>
<circle cx="156" cy="269" r="3" fill="#2196F3"/>
<circle cx="156" cy="130" r="3" fill="#F44336"/>
<circle cx="156" cy="84" r="3" fill="#4CAF50"/>
<circle cx="177" cy="267" r="3" fill="#2196F3"/>
<circle cx="177" cy="135" r="3" fill="#F44336"/>
<circle cx="177" cy="71" r="3" fill="#4CAF50"/>
<circle cx="199" cy="263" r="3" fill="#2196F3"/>
<circle cx="199" cy="127" r="3" fill="#F44336"/>
<circle cx="199" cy="69" r="3" fill="#4CAF50"/>
<circle cx="220" cy="265" r="3" fill="#2196F3"/>
<circle cx="220" cy="127" r="3" fill="#F44336"/>
<circle cx="220" cy="69" r="3" fill="#4CAF50"/>
<circle cx="242" cy="260" r="3" fill="#2196F3"/>
<circle cx="242" cy="127" r="3" fill="#F44336"/>
<circle cx="242" cy="66" r="3" fill="#4CAF50"/>
<circle cx="263" cy="260" r="3" fill="#2196F3"/>
<circle cx="263" cy="128" r="3" fill="#F44336"/>
<circle cx="263" cy="63" r="3" fill="#4CAF50"/>
<circle cx="285" cy="265" r="3" fill="#2196F3"/>
<circle cx="285" cy="128" r="3" fill="#F44336"/>
<circle cx="285" cy="64" r="3" fill="#4CAF50"/>
<circle cx="306" cy="261" r="3" fill="#2196F3"/>
<circle cx="306" cy="123" r="3" fill="#F44336"/>
<circle cx="306" cy="65" r="3" fill="#4CAF50"/>
<circle cx="328" cy="261" r="3" fill="#2196F3"/>
<circle cx="328" cy="122" r="3" fill="#F44336"/>
<circle cx="328" cy="65" r="3" fill="#4CAF50"/>
<circle cx="349" cy="265" r="3" fill="#2196F3"/>
<circle cx="349" cy="128" r="3" fill="#F44336"/>
<circle cx="349" cy="66" r="3" fill="#4CAF50"/>
<circle cx="371" cy="259" r="3" fill="#2196F3"/>
<circle cx="371" cy="127" r="3" fill="#F44336"/>
<circle cx="371" cy="66" r="3" fill="#4CAF50"/>
<circle cx="392" cy="261" r="3" fill="#2196F3"/>
<circle cx="392" cy="136" r="3" fill="#F44336"/>
<circle cx="392" cy="63" r="3" fill="#4CAF50"/>
<circle cx="414" cy="262" r="3" fill="#2196F3"/>
<circle cx="414" cy="130" r="3" fill="#F44336"/>
<circle cx="414" cy="61" r="3" fill="#4CAF50"/>
<circle cx="435" cy="266" r="3" fill="#2196F3"/>
<circle cx="435" cy="126" r="3" fill="#F44336"/>
<circle cx="435" cy="61" r="3" fill="#4CAF50"/>
<circle cx="457" cy="265" r="3" fill="#2196F3"/>
<circle cx="457" cy="125" r="3" fill="#F44336"/>
<circle cx="457" cy="67" r="3" fill="#4CAF50"/>
<circle cx="478" cy="262" r="3" fill="#2196F3"/>
<circle cx="478" cy="128" r="3" fill="#F44336"/>
<circle cx="478" cy="61" r="3" fill="#4CAF50"/>
<circle cx="500" cy="263" r="3" fill="#2196F3"/>
<circle cx="500" cy="128" r="3" fill="#F44336"/>
<circle cx="500" cy="65" r="3" fill="#4CAF50"/>
<circle cx="521" cy="265" r="3" fill="#2196F3"/>
<circle cx="521" cy="133" r="3" fill="#F44336"/>
<circle cx="521" cy="68" r="3" fill="#4CAF50"/>
<circle cx="543" cy="265" r="3" fill="#2196F3"/>
<circle cx="543" cy="128" r="3" fill="#F44336"/>
<circle cx="543" cy="65" r="3" fill="#4CAF50"/>
<circle cx="564" cy="265" r="3" fill="#2196F3"/>
<circle cx="564" cy="135" r="3" fill="#F44336"/>
<circle cx="564" cy="66" r="3" fill="#4CAF50"/>
<circle cx="586" cy="263" r="3" fill="#2196F3"/>
<circle cx="586" cy="96" r="3" fill="#F44336"/>
<circle cx="586" cy="57" r="3" fill="#4CAF50"/>
<circle cx="607" cy="262" r="3" fill="#2196F3"/>
<circle cx="607" cy="103" r="3" fill="#F44336"/>
<circle cx="607" cy="63" r="3" fill="#4CAF50"/>
<circle cx="629" cy="264" r="3" fill="#2196F3"/>
<circle cx="629" cy="101" r="3" fill="#F44336"/>
<circle cx="629" cy="57" r="3" fill="#4CAF50"/>
<circle cx="650" cy="265" r="3" fill="#2196F3"/>
<circle cx="650" cy="105" r="3" fill="#F44336"/>
<circle cx="650" cy="58" r="3" fill="#4CAF50"/>
<circle cx="672" cy="264" r="3" fill="#2196F3"/>
<circle cx="672" cy="103" r="3" fill="#F44336"/>
<circle cx="672" cy="63" r="3" fill="#4CAF50"/>
<circle cx="693" cy="262" r="3" fill="#2196F3"/>
<circle cx="693" cy="104" r="3" fill="#F44336"/>
<circle cx="693" cy="65" r="3" fill="#4CAF50"/>
<circle cx="715" cy="264" r="3" fill="#2196F3"/>
<circle cx="715" cy="105" r="3" fill="#F44336"/>
<circle cx="715" cy="56" r="3" fill="#4CAF50"/>
<circle cx="736" cy="260" r="3" fill="#2196F3"/>
<circle cx="736" cy="105" r="3" fill="#F44336"/>
<circle cx="736" cy="49" r="3" fill="#4CAF50"/>
<circle cx="758" cy="263" r="3" fill="#2196F3"/>
<circle cx="758" cy="99" r="3" fill="#F44336"/>
<circle cx="758" cy="53" r="3" fill="#4CAF50"/>
<circle cx="780" cy="264" r="3" fill="#2196F3"/>
<circle cx="780" cy="99" r="3" fill="#F44336"/>
<circle cx="780" cy="52" r="3" fill="#4CAF50"/>
<text x="70" y="355" text-anchor="middle" font-size="10" fill="#666">d31c3d3</text>
<text x="91" y="355" text-anchor="middle" font-size="10" fill="#666">577b0f6</text>
<text x="113" y="355" text-anchor="middle" font-size="10" fill="#666">a0e3a8f</text>
<text x="134" y="355" text-anchor="middle" font-size="10" fill="#666">32b7787</text>
<text x="156" y="355" text-anchor="middle" font-size="10" fill="#666">940e369</text>
<text x="177" y="355" text-anchor="middle" font-size="10" fill="#666">78956c1</text>
<text x="199" y="355" text-anchor="middle" font-size="10" fill="#666">1a288e9</text>
<text x="220" y="355" text-anchor="middle" font-size="10" fill="#666">f1c0746</text>
<text x="242" y="355" text-anchor="middle" font-size="10" fill="#666">efad3b5</text>
<text x="263" y="355" text-anchor="middle" font-size="10" fill="#666">d3839be</text>
<text x="285" y="355" text-anchor="middle" font-size="10" fill="#666">a0c21b2</text>
<text x="306" y="355" text-anchor="middle" font-size="10" fill="#666">c3d3d81</text>
<text x="328" y="355" text-anchor="middle" font-size="10" fill="#666">e40d897</text>
<text x="349" y="355" text-anchor="middle" font-size="10" fill="#666">0b1ed97</text>
<text x="371" y="355" text-anchor="middle" font-size="10" fill="#666">6a5ae3f</text>
<text x="392" y="355" text-anchor="middle" font-size="10" fill="#666">59cf448</text>
<text x="414" y="355" text-anchor="middle" font-size="10" fill="#666">42b3e04</text>
<text x="435" y="355" text-anchor="middle" font-size="10" fill="#666">bd9421a</text>
<text x="457" y="355" text-anchor="middle" font-size="10" fill="#666">f80812f</text>
<text x="478" y="355" text-anchor="middle" font-size="10" fill="#666">448a5fe</text>
<text x="500" y="355" text-anchor="middle" font-size="10" fill="#666">b16c1cc</text>
<text x="521" y="355" text-anchor="middle" font-size="10" fill="#666">44c334c</text>
<text x="543" y="355" text-anchor="middle" font-size="10" fill="#666">aa51d1a</text>
<text x="564" y="355" text-anchor="middle" font-size="10" fill="#666">9bee79a</text>
<text x="586" y="355" text-anchor="middle" font-size="10" fill="#666">4380346</text>
<text x="607" y="355" text-anchor="middle" font-size="10" fill="#666">2a587a9</text>
<text x="629" y="355" text-anchor="middle" font-size="10" fill="#666">efb005a</text>
<text x="650" y="355" text-anchor="middle" font-size="10" fill="#666">1c3b72e</text>
<text x="672" y="355" text-anchor="middle" font-size="10" fill="#666">ff7c733</text>
<text x="693" y="355" text-anchor="middle" font-size="10" fill="#666">962897f</text>
<text x="715" y="355" text-anchor="middle" font-size="10" fill="#666">dfec04b</text>
<text x="736" y="355" text-anchor="middle" font-size="10" fill="#666">60e18de</text>
<text x="758" y="355" text-anchor="middle" font-size="10" fill="#666">80a0d41</text>
<text x="780" y="355" text-anchor="middle" font-size="10" fill="#666">e200726</text>
<circle cx="90" cy="20" r="4" fill="#2196F3"/>
<text x="98" y="24" text-anchor="start" font-size="12" fill="#2196F3">Interpreted</text>
<circle cx="200" cy="20" r="4" fill="#F44336"/>
<text x="208" y="24" text-anchor="start" font-size="12" fill="#F44336">Compiled</text>
<circle cx="300" cy="20" r="4" fill="#4CAF50"/>
<text x="308" y="24" text-anchor="start" font-size="12" fill="#4CAF50">Wall-clock</text>
</svg>
