<svg width="800" height="400" xmlns="http://www.w3.org/2000/svg">
<rect width="800" height="400" fill="white"/>
<line x1="70" y1="40" x2="70" y2="340" stroke="#333" stroke-width="1"/>
<line x1="70" y1="340" x2="730" y2="340" stroke="#333" stroke-width="1"/>
<line x1="730" y1="40" x2="730" y2="340" stroke="#333" stroke-width="1"/>
<text x="65" y="344" text-anchor="end" font-size="11" fill="#333">0</text>
<text x="65" y="194" text-anchor="end" font-size="11" fill="#333">105500</text>
<text x="65" y="44" text-anchor="end" font-size="11" fill="#333">211000</text>
<text x="15" y="190" text-anchor="middle" font-size="12" fill="#333" transform="rotate(-90 15 190)">ms</text>
<text x="735" y="344" text-anchor="start" font-size="11" fill="#333">0</text>
<text x="735" y="194" text-anchor="start" font-size="11" fill="#333">7046000000</text>
<text x="735" y="44" text-anchor="start" font-size="11" fill="#333">14092000000</text>
<text x="785" y="190" text-anchor="middle" font-size="12" fill="#333" transform="rotate(90 785 190)">bytes</text>
<polyline points="70,60 143,61 216,58 290,55 363,61 436,64 510,66 583,69 656,68 730,63" fill="none" stroke="#0072B2" stroke-width="2"/>
<polyline points="70,45 143,43 216,44 290,42 363,49 436,49 510,53 583,52 656,52 730,46" fill="none" stroke="#CC79A7" stroke-width="2"/>
<polyline points="70,340 143,340 216,340 290,340 363,340 436,340 510,340 583,340 656,340 730,340" fill="none" stroke="#D55E00" stroke-width="2"/>
<polyline points="70,283 143,284 216,284 290,282 363,284 436,285 510,285 583,285 656,285 730,284" fill="none" stroke="#009E73" stroke-width="2"/>
<polyline points="70,290 143,290 216,290 290,290 363,291 436,291 510,291 583,291 656,291 730,283" fill="none" stroke="#56B4E9" stroke-width="2"/>
<polyline points="70,220 143,220 216,220 290,220 363,220 436,220 510,221 583,221 656,221 730,212" fill="none" stroke="#E69F00" stroke-width="2"/>
<polyline points="70,340 143,340 216,340 290,340 363,340 436,340 510,340 583,340 656,340 730,340" fill="none" stroke="#C44E52" stroke-width="2"/>
<polyline points="70,56 143,55 216,57 290,56 363,56 436,57 510,56 583,57 656,58 730,41" fill="none" stroke="#000000" stroke-width="2"/>
<circle cx="70" cy="60" r="3" fill="#0072B2"/>
<circle cx="70" cy="45" r="3" fill="#CC79A7"/>
<circle cx="70" cy="340" r="3" fill="#D55E00"/>
<circle cx="70" cy="283" r="3" fill="#009E73"/>
<circle cx="70" cy="290" r="3" fill="#56B4E9"/>
<circle cx="70" cy="220" r="3" fill="#E69F00"/>
<circle cx="70" cy="340" r="3" fill="#C44E52"/>
<circle cx="70" cy="56" r="3" fill="#000000"/>
<circle cx="143" cy="61" r="3" fill="#0072B2"/>
<circle cx="143" cy="43" r="3" fill="#CC79A7"/>
<circle cx="143" cy="340" r="3" fill="#D55E00"/>
<circle cx="143" cy="284" r="3" fill="#009E73"/>
<circle cx="143" cy="290" r="3" fill="#56B4E9"/>
<circle cx="143" cy="220" r="3" fill="#E69F00"/>
<circle cx="143" cy="340" r="3" fill="#C44E52"/>
<circle cx="143" cy="55" r="3" fill="#000000"/>
<circle cx="216" cy="58" r="3" fill="#0072B2"/>
<circle cx="216" cy="44" r="3" fill="#CC79A7"/>
<circle cx="216" cy="340" r="3" fill="#D55E00"/>
<circle cx="216" cy="284" r="3" fill="#009E73"/>
<circle cx="216" cy="290" r="3" fill="#56B4E9"/>
<circle cx="216" cy="220" r="3" fill="#E69F00"/>
<circle cx="216" cy="340" r="3" fill="#C44E52"/>
<circle cx="216" cy="57" r="3" fill="#000000"/>
<circle cx="290" cy="55" r="3" fill="#0072B2"/>
<circle cx="290" cy="42" r="3" fill="#CC79A7"/>
<circle cx="290" cy="340" r="3" fill="#D55E00"/>
<circle cx="290" cy="282" r="3" fill="#009E73"/>
<circle cx="290" cy="290" r="3" fill="#56B4E9"/>
<circle cx="290" cy="220" r="3" fill="#E69F00"/>
<circle cx="290" cy="340" r="3" fill="#C44E52"/>
<circle cx="290" cy="56" r="3" fill="#000000"/>
<circle cx="363" cy="61" r="3" fill="#0072B2"/>
<circle cx="363" cy="49" r="3" fill="#CC79A7"/>
<circle cx="363" cy="340" r="3" fill="#D55E00"/>
<circle cx="363" cy="284" r="3" fill="#009E73"/>
<circle cx="363" cy="291" r="3" fill="#56B4E9"/>
<circle cx="363" cy="220" r="3" fill="#E69F00"/>
<circle cx="363" cy="340" r="3" fill="#C44E52"/>
<circle cx="363" cy="56" r="3" fill="#000000"/>
<circle cx="436" cy="64" r="3" fill="#0072B2"/>
<circle cx="436" cy="49" r="3" fill="#CC79A7"/>
<circle cx="436" cy="340" r="3" fill="#D55E00"/>
<circle cx="436" cy="285" r="3" fill="#009E73"/>
<circle cx="436" cy="291" r="3" fill="#56B4E9"/>
<circle cx="436" cy="220" r="3" fill="#E69F00"/>
<circle cx="436" cy="340" r="3" fill="#C44E52"/>
<circle cx="436" cy="57" r="3" fill="#000000"/>
<circle cx="510" cy="66" r="3" fill="#0072B2"/>
<circle cx="510" cy="53" r="3" fill="#CC79A7"/>
<circle cx="510" cy="340" r="3" fill="#D55E00"/>
<circle cx="510" cy="285" r="3" fill="#009E73"/>
<circle cx="510" cy="291" r="3" fill="#56B4E9"/>
<circle cx="510" cy="221" r="3" fill="#E69F00"/>
<circle cx="510" cy="340" r="3" fill="#C44E52"/>
<circle cx="510" cy="56" r="3" fill="#000000"/>
<circle cx="583" cy="69" r="3" fill="#0072B2"/>
<circle cx="583" cy="52" r="3" fill="#CC79A7"/>
<circle cx="583" cy="340" r="3" fill="#D55E00"/>
<circle cx="583" cy="285" r="3" fill="#009E73"/>
<circle cx="583" cy="291" r="3" fill="#56B4E9"/>
<circle cx="583" cy="221" r="3" fill="#E69F00"/>
<circle cx="583" cy="340" r="3" fill="#C44E52"/>
<circle cx="583" cy="57" r="3" fill="#000000"/>
<circle cx="656" cy="68" r="3" fill="#0072B2"/>
<circle cx="656" cy="52" r="3" fill="#CC79A7"/>
<circle cx="656" cy="340" r="3" fill="#D55E00"/>
<circle cx="656" cy="285" r="3" fill="#009E73"/>
<circle cx="656" cy="291" r="3" fill="#56B4E9"/>
<circle cx="656" cy="221" r="3" fill="#E69F00"/>
<circle cx="656" cy="340" r="3" fill="#C44E52"/>
<circle cx="656" cy="58" r="3" fill="#000000"/>
<circle cx="730" cy="63" r="3" fill="#0072B2"/>
<circle cx="730" cy="46" r="3" fill="#CC79A7"/>
<circle cx="730" cy="340" r="3" fill="#D55E00"/>
<circle cx="730" cy="284" r="3" fill="#009E73"/>
<circle cx="730" cy="283" r="3" fill="#56B4E9"/>
<circle cx="730" cy="212" r="3" fill="#E69F00"/>
<circle cx="730" cy="340" r="3" fill="#C44E52"/>
<circle cx="730" cy="41" r="3" fill="#000000"/>
<circle cx="90" cy="20" r="4" fill="#0072B2"/>
<text x="98" y="24" text-anchor="start" font-size="12" fill="#0072B2">inte</text>
<circle cx="150" cy="20" r="4" fill="#CC79A7"/>
<text x="158" y="24" text-anchor="start" font-size="12" fill="#CC79A7">comp</text>
<circle cx="215" cy="20" r="4" fill="#D55E00"/>
<text x="223" y="24" text-anchor="start" font-size="12" fill="#D55E00">run</text>
<circle cx="270" cy="20" r="4" fill="#009E73"/>
<text x="278" y="24" text-anchor="start" font-size="12" fill="#009E73">wall</text>
<circle cx="335" cy="20" r="4" fill="#56B4E9"/>
<text x="343" y="24" text-anchor="start" font-size="12" fill="#56B4E9">mem-inte</text>
<circle cx="425" cy="20" r="4" fill="#E69F00"/>
<text x="433" y="24" text-anchor="start" font-size="12" fill="#E69F00">mem-comp</text>
<circle cx="520" cy="20" r="4" fill="#C44E52"/>
<text x="528" y="24" text-anchor="start" font-size="12" fill="#C44E52">mem-run</text>
<circle cx="605" cy="20" r="4" fill="#000000"/>
<text x="613" y="24" text-anchor="start" font-size="12" fill="#000000">mem-total</text>
</svg>
