<svg width="800" height="400" xmlns="http://www.w3.org/2000/svg">
<rect width="800" height="400" fill="white"/>
<line x1="70" y1="40" x2="70" y2="340" stroke="#333" stroke-width="1"/>
<line x1="70" y1="340" x2="730" y2="340" stroke="#333" stroke-width="1"/>
<line x1="730" y1="40" x2="730" y2="340" stroke="#333" stroke-width="1"/>
<text x="65" y="344" text-anchor="end" font-size="11" fill="#333">0</text>
<text x="65" y="194" text-anchor="end" font-size="11" fill="#333">226000</text>
<text x="65" y="44" text-anchor="end" font-size="11" fill="#333">452000</text>
<text x="15" y="190" text-anchor="middle" font-size="12" fill="#333" transform="rotate(-90 15 190)">ms</text>
<text x="735" y="344" text-anchor="start" font-size="11" fill="#333">0</text>
<text x="735" y="194" text-anchor="start" font-size="11" fill="#333">36146500000</text>
<text x="735" y="44" text-anchor="start" font-size="11" fill="#333">72293000000</text>
<text x="785" y="190" text-anchor="middle" font-size="12" fill="#333" transform="rotate(90 785 190)">bytes</text>
<polyline points="70,41 143,57 216,54 290,52 363,56 436,48 510,53 583,52 656,56 730,51" fill="none" stroke="#0072B2" stroke-width="2"/>
<polyline points="70,95 143,97 216,100 290,103 363,98 436,91 510,93 583,97 656,95 730,93" fill="none" stroke="#CC79A7" stroke-width="2"/>
<polyline points="70,340 143,340 216,340 290,340 363,340 436,340 510,340 583,340 656,340 730,340" fill="none" stroke="#D55E00" stroke-width="2"/>
<polyline points="70,283 143,284 216,284 290,284 363,284 436,283 510,283 583,283 656,284 730,283" fill="none" stroke="#009E73" stroke-width="2"/>
<polyline points="70,269 143,271 216,270 290,270 363,270 436,269 510,270 583,271 656,271 730,272" fill="none" stroke="#984EA3" stroke-width="2"/>
<polyline points="70,43 143,43 216,41 290,41 363,41 436,45 510,45 583,44 656,44 730,42" fill="none" stroke="#56B4E9" stroke-width="2"/>
<polyline points="70,51 143,51 216,48 290,48 363,48 436,52 510,52 583,52 656,52 730,50" fill="none" stroke="#E69F00" stroke-width="2"/>
<polyline points="70,337 143,338 216,338 290,338 363,338 436,337 510,338 583,338 656,338 730,338" fill="none" stroke="#C44E52" stroke-width="2"/>
<polyline points="70,300 143,300 216,300 290,300 363,300 436,301 510,301 583,301 656,301 730,301" fill="none" stroke="#8C564B" stroke-width="2"/>
<circle cx="70" cy="41" r="3" fill="#0072B2"/>
<circle cx="70" cy="95" r="3" fill="#CC79A7"/>
<circle cx="70" cy="340" r="3" fill="#D55E00"/>
<circle cx="70" cy="283" r="3" fill="#009E73"/>
<circle cx="70" cy="269" r="3" fill="#984EA3"/>
<circle cx="70" cy="43" r="3" fill="#56B4E9"/>
<circle cx="70" cy="51" r="3" fill="#E69F00"/>
<circle cx="70" cy="337" r="3" fill="#C44E52"/>
<circle cx="70" cy="300" r="3" fill="#8C564B"/>
<circle cx="143" cy="57" r="3" fill="#0072B2"/>
<circle cx="143" cy="97" r="3" fill="#CC79A7"/>
<circle cx="143" cy="340" r="3" fill="#D55E00"/>
<circle cx="143" cy="284" r="3" fill="#009E73"/>
<circle cx="143" cy="271" r="3" fill="#984EA3"/>
<circle cx="143" cy="43" r="3" fill="#56B4E9"/>
<circle cx="143" cy="51" r="3" fill="#E69F00"/>
<circle cx="143" cy="338" r="3" fill="#C44E52"/>
<circle cx="143" cy="300" r="3" fill="#8C564B"/>
<circle cx="216" cy="54" r="3" fill="#0072B2"/>
<circle cx="216" cy="100" r="3" fill="#CC79A7"/>
<circle cx="216" cy="340" r="3" fill="#D55E00"/>
<circle cx="216" cy="284" r="3" fill="#009E73"/>
<circle cx="216" cy="270" r="3" fill="#984EA3"/>
<circle cx="216" cy="41" r="3" fill="#56B4E9"/>
<circle cx="216" cy="48" r="3" fill="#E69F00"/>
<circle cx="216" cy="338" r="3" fill="#C44E52"/>
<circle cx="216" cy="300" r="3" fill="#8C564B"/>
<circle cx="290" cy="52" r="3" fill="#0072B2"/>
<circle cx="290" cy="103" r="3" fill="#CC79A7"/>
<circle cx="290" cy="340" r="3" fill="#D55E00"/>
<circle cx="290" cy="284" r="3" fill="#009E73"/>
<circle cx="290" cy="270" r="3" fill="#984EA3"/>
<circle cx="290" cy="41" r="3" fill="#56B4E9"/>
<circle cx="290" cy="48" r="3" fill="#E69F00"/>
<circle cx="290" cy="338" r="3" fill="#C44E52"/>
<circle cx="290" cy="300" r="3" fill="#8C564B"/>
<circle cx="363" cy="56" r="3" fill="#0072B2"/>
<circle cx="363" cy="98" r="3" fill="#CC79A7"/>
<circle cx="363" cy="340" r="3" fill="#D55E00"/>
<circle cx="363" cy="284" r="3" fill="#009E73"/>
<circle cx="363" cy="270" r="3" fill="#984EA3"/>
<circle cx="363" cy="41" r="3" fill="#56B4E9"/>
<circle cx="363" cy="48" r="3" fill="#E69F00"/>
<circle cx="363" cy="338" r="3" fill="#C44E52"/>
<circle cx="363" cy="300" r="3" fill="#8C564B"/>
<circle cx="436" cy="48" r="3" fill="#0072B2"/>
<circle cx="436" cy="91" r="3" fill="#CC79A7"/>
<circle cx="436" cy="340" r="3" fill="#D55E00"/>
<circle cx="436" cy="283" r="3" fill="#009E73"/>
<circle cx="436" cy="269" r="3" fill="#984EA3"/>
<circle cx="436" cy="45" r="3" fill="#56B4E9"/>
<circle cx="436" cy="52" r="3" fill="#E69F00"/>
<circle cx="436" cy="337" r="3" fill="#C44E52"/>
<circle cx="436" cy="301" r="3" fill="#8C564B"/>
<circle cx="510" cy="53" r="3" fill="#0072B2"/>
<circle cx="510" cy="93" r="3" fill="#CC79A7"/>
<circle cx="510" cy="340" r="3" fill="#D55E00"/>
<circle cx="510" cy="283" r="3" fill="#009E73"/>
<circle cx="510" cy="270" r="3" fill="#984EA3"/>
<circle cx="510" cy="45" r="3" fill="#56B4E9"/>
<circle cx="510" cy="52" r="3" fill="#E69F00"/>
<circle cx="510" cy="338" r="3" fill="#C44E52"/>
<circle cx="510" cy="301" r="3" fill="#8C564B"/>
<circle cx="583" cy="52" r="3" fill="#0072B2"/>
<circle cx="583" cy="97" r="3" fill="#CC79A7"/>
<circle cx="583" cy="340" r="3" fill="#D55E00"/>
<circle cx="583" cy="283" r="3" fill="#009E73"/>
<circle cx="583" cy="271" r="3" fill="#984EA3"/>
<circle cx="583" cy="44" r="3" fill="#56B4E9"/>
<circle cx="583" cy="52" r="3" fill="#E69F00"/>
<circle cx="583" cy="338" r="3" fill="#C44E52"/>
<circle cx="583" cy="301" r="3" fill="#8C564B"/>
<circle cx="656" cy="56" r="3" fill="#0072B2"/>
<circle cx="656" cy="95" r="3" fill="#CC79A7"/>
<circle cx="656" cy="340" r="3" fill="#D55E00"/>
<circle cx="656" cy="284" r="3" fill="#009E73"/>
<circle cx="656" cy="271" r="3" fill="#984EA3"/>
<circle cx="656" cy="44" r="3" fill="#56B4E9"/>
<circle cx="656" cy="52" r="3" fill="#E69F00"/>
<circle cx="656" cy="338" r="3" fill="#C44E52"/>
<circle cx="656" cy="301" r="3" fill="#8C564B"/>
<circle cx="730" cy="51" r="3" fill="#0072B2"/>
<circle cx="730" cy="93" r="3" fill="#CC79A7"/>
<circle cx="730" cy="340" r="3" fill="#D55E00"/>
<circle cx="730" cy="283" r="3" fill="#009E73"/>
<circle cx="730" cy="272" r="3" fill="#984EA3"/>
<circle cx="730" cy="42" r="3" fill="#56B4E9"/>
<circle cx="730" cy="50" r="3" fill="#E69F00"/>
<circle cx="730" cy="338" r="3" fill="#C44E52"/>
<circle cx="730" cy="301" r="3" fill="#8C564B"/>
<circle cx="70" cy="20" r="4" fill="#0072B2"/>
<text x="78" y="24" text-anchor="start" font-size="12" fill="#0072B2">inte</text>
<circle cx="130" cy="20" r="4" fill="#CC79A7"/>
<text x="138" y="24" text-anchor="start" font-size="12" fill="#CC79A7">comp</text>
<circle cx="195" cy="20" r="4" fill="#D55E00"/>
<text x="203" y="24" text-anchor="start" font-size="12" fill="#D55E00">run</text>
<circle cx="250" cy="20" r="4" fill="#009E73"/>
<text x="258" y="24" text-anchor="start" font-size="12" fill="#009E73">wall</text>
<circle cx="315" cy="20" r="4" fill="#984EA3"/>
<text x="323" y="24" text-anchor="start" font-size="12" fill="#984EA3">self</text>
<circle cx="380" cy="20" r="4" fill="#56B4E9"/>
<text x="388" y="24" text-anchor="start" font-size="12" fill="#56B4E9">mem-inte</text>
<circle cx="470" cy="20" r="4" fill="#E69F00"/>
<text x="478" y="24" text-anchor="start" font-size="12" fill="#E69F00">mem-comp</text>
<circle cx="565" cy="20" r="4" fill="#C44E52"/>
<text x="573" y="24" text-anchor="start" font-size="12" fill="#C44E52">mem-run</text>
<circle cx="650" cy="20" r="4" fill="#8C564B"/>
<text x="658" y="24" text-anchor="start" font-size="12" fill="#8C564B">self-mem</text>
</svg>
