<svg width="800" height="400" xmlns="http://www.w3.org/2000/svg">
<rect width="800" height="400" fill="white"/>
<line x1="70" y1="40" x2="70" y2="340" stroke="#333" stroke-width="1"/>
<line x1="70" y1="340" x2="730" y2="340" stroke="#333" stroke-width="1"/>
<line x1="730" y1="40" x2="730" y2="340" stroke="#333" stroke-width="1"/>
<text x="65" y="344" text-anchor="end" font-size="11" fill="#333">0</text>
<text x="65" y="194" text-anchor="end" font-size="11" fill="#333">261000</text>
<text x="65" y="44" text-anchor="end" font-size="11" fill="#333">522000</text>
<text x="15" y="190" text-anchor="middle" font-size="12" fill="#333" transform="rotate(-90 15 190)">ms</text>
<text x="735" y="344" text-anchor="start" font-size="11" fill="#333">0</text>
<text x="735" y="194" text-anchor="start" font-size="11" fill="#333">6241500000</text>
<text x="735" y="44" text-anchor="start" font-size="11" fill="#333">12483000000</text>
<text x="785" y="190" text-anchor="middle" font-size="12" fill="#333" transform="rotate(90 785 190)">bytes</text>
<polyline points="70,125 143,127 216,68 290,137 363,90 436,125 510,117 583,116 656,85 730,91" fill="none" stroke="#0072B2" stroke-width="2"/>
<polyline points="70,78 143,81 216,41 290,98 363,62 436,95 510,63 583,60 656,59 730,60" fill="none" stroke="#CC79A7" stroke-width="2"/>
<polyline points="70,339 143,339 216,339 290,339 363,339 436,340 510,340 583,340 656,340 730,340" fill="none" stroke="#D55E00" stroke-width="2"/>
<polyline points="70,266 143,268 216,253 290,270 363,259 436,265 510,263 583,263 656,258 730,261" fill="none" stroke="#009E73" stroke-width="2"/>
<polyline points="70,340 143,340 216,340 290,340 363,340 436,249 510,249 583,249 656,249 730,249" fill="none" stroke="#56B4E9" stroke-width="2"/>
<polyline points="70,340 143,340 216,340 290,340 363,340 436,191 510,194 583,197 656,198 730,201" fill="none" stroke="#E69F00" stroke-width="2"/>
<polyline points="70,340 143,340 216,340 290,340 363,340 436,340 510,340 583,340 656,340 730,340" fill="none" stroke="#C44E52" stroke-width="2"/>
<polyline points="70,340 143,340 216,340 290,340 363,340 436,41 510,42 583,41 656,47 730,50" fill="none" stroke="#000000" stroke-width="2"/>
<circle cx="70" cy="125" r="3" fill="#0072B2"/>
<circle cx="70" cy="78" r="3" fill="#CC79A7"/>
<circle cx="70" cy="339" r="3" fill="#D55E00"/>
<circle cx="70" cy="266" r="3" fill="#009E73"/>
<circle cx="70" cy="340" r="3" fill="#56B4E9"/>
<circle cx="70" cy="340" r="3" fill="#E69F00"/>
<circle cx="70" cy="340" r="3" fill="#C44E52"/>
<circle cx="70" cy="340" r="3" fill="#000000"/>
<circle cx="143" cy="127" r="3" fill="#0072B2"/>
<circle cx="143" cy="81" r="3" fill="#CC79A7"/>
<circle cx="143" cy="339" r="3" fill="#D55E00"/>
<circle cx="143" cy="268" r="3" fill="#009E73"/>
<circle cx="143" cy="340" r="3" fill="#56B4E9"/>
<circle cx="143" cy="340" r="3" fill="#E69F00"/>
<circle cx="143" cy="340" r="3" fill="#C44E52"/>
<circle cx="143" cy="340" r="3" fill="#000000"/>
<circle cx="216" cy="68" r="3" fill="#0072B2"/>
<circle cx="216" cy="41" r="3" fill="#CC79A7"/>
<circle cx="216" cy="339" r="3" fill="#D55E00"/>
<circle cx="216" cy="253" r="3" fill="#009E73"/>
<circle cx="216" cy="340" r="3" fill="#56B4E9"/>
<circle cx="216" cy="340" r="3" fill="#E69F00"/>
<circle cx="216" cy="340" r="3" fill="#C44E52"/>
<circle cx="216" cy="340" r="3" fill="#000000"/>
<circle cx="290" cy="137" r="3" fill="#0072B2"/>
<circle cx="290" cy="98" r="3" fill="#CC79A7"/>
<circle cx="290" cy="339" r="3" fill="#D55E00"/>
<circle cx="290" cy="270" r="3" fill="#009E73"/>
<circle cx="290" cy="340" r="3" fill="#56B4E9"/>
<circle cx="290" cy="340" r="3" fill="#E69F00"/>
<circle cx="290" cy="340" r="3" fill="#C44E52"/>
<circle cx="290" cy="340" r="3" fill="#000000"/>
<circle cx="363" cy="90" r="3" fill="#0072B2"/>
<circle cx="363" cy="62" r="3" fill="#CC79A7"/>
<circle cx="363" cy="339" r="3" fill="#D55E00"/>
<circle cx="363" cy="259" r="3" fill="#009E73"/>
<circle cx="363" cy="340" r="3" fill="#56B4E9"/>
<circle cx="363" cy="340" r="3" fill="#E69F00"/>
<circle cx="363" cy="340" r="3" fill="#C44E52"/>
<circle cx="363" cy="340" r="3" fill="#000000"/>
<circle cx="436" cy="125" r="3" fill="#0072B2"/>
<circle cx="436" cy="95" r="3" fill="#CC79A7"/>
<circle cx="436" cy="340" r="3" fill="#D55E00"/>
<circle cx="436" cy="265" r="3" fill="#009E73"/>
<circle cx="436" cy="249" r="3" fill="#56B4E9"/>
<circle cx="436" cy="191" r="3" fill="#E69F00"/>
<circle cx="436" cy="340" r="3" fill="#C44E52"/>
<circle cx="436" cy="41" r="3" fill="#000000"/>
<circle cx="510" cy="117" r="3" fill="#0072B2"/>
<circle cx="510" cy="63" r="3" fill="#CC79A7"/>
<circle cx="510" cy="340" r="3" fill="#D55E00"/>
<circle cx="510" cy="263" r="3" fill="#009E73"/>
<circle cx="510" cy="249" r="3" fill="#56B4E9"/>
<circle cx="510" cy="194" r="3" fill="#E69F00"/>
<circle cx="510" cy="340" r="3" fill="#C44E52"/>
<circle cx="510" cy="42" r="3" fill="#000000"/>
<circle cx="583" cy="116" r="3" fill="#0072B2"/>
<circle cx="583" cy="60" r="3" fill="#CC79A7"/>
<circle cx="583" cy="340" r="3" fill="#D55E00"/>
<circle cx="583" cy="263" r="3" fill="#009E73"/>
<circle cx="583" cy="249" r="3" fill="#56B4E9"/>
<circle cx="583" cy="197" r="3" fill="#E69F00"/>
<circle cx="583" cy="340" r="3" fill="#C44E52"/>
<circle cx="583" cy="41" r="3" fill="#000000"/>
<circle cx="656" cy="85" r="3" fill="#0072B2"/>
<circle cx="656" cy="59" r="3" fill="#CC79A7"/>
<circle cx="656" cy="340" r="3" fill="#D55E00"/>
<circle cx="656" cy="258" r="3" fill="#009E73"/>
<circle cx="656" cy="249" r="3" fill="#56B4E9"/>
<circle cx="656" cy="198" r="3" fill="#E69F00"/>
<circle cx="656" cy="340" r="3" fill="#C44E52"/>
<circle cx="656" cy="47" r="3" fill="#000000"/>
<circle cx="730" cy="91" r="3" fill="#0072B2"/>
<circle cx="730" cy="60" r="3" fill="#CC79A7"/>
<circle cx="730" cy="340" r="3" fill="#D55E00"/>
<circle cx="730" cy="261" r="3" fill="#009E73"/>
<circle cx="730" cy="249" r="3" fill="#56B4E9"/>
<circle cx="730" cy="201" r="3" fill="#E69F00"/>
<circle cx="730" cy="340" r="3" fill="#C44E52"/>
<circle cx="730" cy="50" r="3" fill="#000000"/>
<circle cx="90" cy="20" r="4" fill="#0072B2"/>
<text x="98" y="24" text-anchor="start" font-size="12" fill="#0072B2">inte</text>
<circle cx="150" cy="20" r="4" fill="#CC79A7"/>
<text x="158" y="24" text-anchor="start" font-size="12" fill="#CC79A7">comp</text>
<circle cx="215" cy="20" r="4" fill="#D55E00"/>
<text x="223" y="24" text-anchor="start" font-size="12" fill="#D55E00">run</text>
<circle cx="270" cy="20" r="4" fill="#009E73"/>
<text x="278" y="24" text-anchor="start" font-size="12" fill="#009E73">wall</text>
<circle cx="335" cy="20" r="4" fill="#56B4E9"/>
<text x="343" y="24" text-anchor="start" font-size="12" fill="#56B4E9">mem-inte</text>
<circle cx="425" cy="20" r="4" fill="#E69F00"/>
<text x="433" y="24" text-anchor="start" font-size="12" fill="#E69F00">mem-comp</text>
<circle cx="520" cy="20" r="4" fill="#C44E52"/>
<text x="528" y="24" text-anchor="start" font-size="12" fill="#C44E52">mem-run</text>
<circle cx="605" cy="20" r="4" fill="#000000"/>
<text x="613" y="24" text-anchor="start" font-size="12" fill="#000000">mem-total</text>
</svg>
