<svg width="800" height="400" xmlns="http://www.w3.org/2000/svg">
<rect width="800" height="400" fill="white"/>
<line x1="70" y1="40" x2="70" y2="340" stroke="#333" stroke-width="1"/>
<line x1="70" y1="340" x2="730" y2="340" stroke="#333" stroke-width="1"/>
<line x1="730" y1="40" x2="730" y2="340" stroke="#333" stroke-width="1"/>
<text x="65" y="344" text-anchor="end" font-size="11" fill="#333">0</text>
<text x="65" y="194" text-anchor="end" font-size="11" fill="#333">601000</text>
<text x="65" y="44" text-anchor="end" font-size="11" fill="#333">1202000</text>
<text x="15" y="190" text-anchor="middle" font-size="12" fill="#333" transform="rotate(-90 15 190)">ms</text>
<text x="735" y="344" text-anchor="start" font-size="11" fill="#333">0</text>
<text x="735" y="194" text-anchor="start" font-size="11" fill="#333">67055000000</text>
<text x="735" y="44" text-anchor="start" font-size="11" fill="#333">134110000000</text>
<text x="785" y="190" text-anchor="middle" font-size="12" fill="#333" transform="rotate(90 785 190)">bytes</text>
<polyline points="70,75 143,72 216,71 290,72 363,70 436,68 510,64 583,72 656,67 730,41" fill="none" stroke="#0072B2" stroke-width="2"/>
<polyline points="70,73 143,75 216,71 290,71 363,68 436,66 510,68 583,68 656,64 730,50" fill="none" stroke="#CC79A7" stroke-width="2"/>
<polyline points="70,340 143,340 216,340 290,340 363,340 436,340 510,340 583,340 656,340 730,340" fill="none" stroke="#D55E00" stroke-width="2"/>
<polyline points="70,305 143,305 216,305 290,305 363,305 436,304 510,304 583,304 656,305 730,302" fill="none" stroke="#009E73" stroke-width="2"/>
<polyline points="70,119 143,120 216,121 290,120 363,117 436,118 510,119 583,116 656,117 730,111" fill="none" stroke="#984EA3" stroke-width="2"/>
<polyline points="70,50 143,49 216,51 290,50 363,50 436,51 510,51 583,50 656,50 730,42" fill="none" stroke="#56B4E9" stroke-width="2"/>
<polyline points="70,51 143,51 216,50 290,52 363,50 436,51 510,50 583,51 656,50 730,41" fill="none" stroke="#E69F00" stroke-width="2"/>
<polyline points="70,340 143,340 216,340 290,340 363,340 436,339 510,339 583,340 656,339 730,340" fill="none" stroke="#C44E52" stroke-width="2"/>
<polyline points="70,297 143,297 216,297 290,298 363,297 436,297 510,297 583,297 656,297 730,297" fill="none" stroke="#8C564B" stroke-width="2"/>
<circle cx="70" cy="75" r="3" fill="#0072B2"/>
<circle cx="70" cy="73" r="3" fill="#CC79A7"/>
<circle cx="70" cy="340" r="3" fill="#D55E00"/>
<circle cx="70" cy="305" r="3" fill="#009E73"/>
<circle cx="70" cy="119" r="3" fill="#984EA3"/>
<circle cx="70" cy="50" r="3" fill="#56B4E9"/>
<circle cx="70" cy="51" r="3" fill="#E69F00"/>
<circle cx="70" cy="340" r="3" fill="#C44E52"/>
<circle cx="70" cy="297" r="3" fill="#8C564B"/>
<circle cx="143" cy="72" r="3" fill="#0072B2"/>
<circle cx="143" cy="75" r="3" fill="#CC79A7"/>
<circle cx="143" cy="340" r="3" fill="#D55E00"/>
<circle cx="143" cy="305" r="3" fill="#009E73"/>
<circle cx="143" cy="120" r="3" fill="#984EA3"/>
<circle cx="143" cy="49" r="3" fill="#56B4E9"/>
<circle cx="143" cy="51" r="3" fill="#E69F00"/>
<circle cx="143" cy="340" r="3" fill="#C44E52"/>
<circle cx="143" cy="297" r="3" fill="#8C564B"/>
<circle cx="216" cy="71" r="3" fill="#0072B2"/>
<circle cx="216" cy="71" r="3" fill="#CC79A7"/>
<circle cx="216" cy="340" r="3" fill="#D55E00"/>
<circle cx="216" cy="305" r="3" fill="#009E73"/>
<circle cx="216" cy="121" r="3" fill="#984EA3"/>
<circle cx="216" cy="51" r="3" fill="#56B4E9"/>
<circle cx="216" cy="50" r="3" fill="#E69F00"/>
<circle cx="216" cy="340" r="3" fill="#C44E52"/>
<circle cx="216" cy="297" r="3" fill="#8C564B"/>
<circle cx="290" cy="72" r="3" fill="#0072B2"/>
<circle cx="290" cy="71" r="3" fill="#CC79A7"/>
<circle cx="290" cy="340" r="3" fill="#D55E00"/>
<circle cx="290" cy="305" r="3" fill="#009E73"/>
<circle cx="290" cy="120" r="3" fill="#984EA3"/>
<circle cx="290" cy="50" r="3" fill="#56B4E9"/>
<circle cx="290" cy="52" r="3" fill="#E69F00"/>
<circle cx="290" cy="340" r="3" fill="#C44E52"/>
<circle cx="290" cy="298" r="3" fill="#8C564B"/>
<circle cx="363" cy="70" r="3" fill="#0072B2"/>
<circle cx="363" cy="68" r="3" fill="#CC79A7"/>
<circle cx="363" cy="340" r="3" fill="#D55E00"/>
<circle cx="363" cy="305" r="3" fill="#009E73"/>
<circle cx="363" cy="117" r="3" fill="#984EA3"/>
<circle cx="363" cy="50" r="3" fill="#56B4E9"/>
<circle cx="363" cy="50" r="3" fill="#E69F00"/>
<circle cx="363" cy="340" r="3" fill="#C44E52"/>
<circle cx="363" cy="297" r="3" fill="#8C564B"/>
<circle cx="436" cy="68" r="3" fill="#0072B2"/>
<circle cx="436" cy="66" r="3" fill="#CC79A7"/>
<circle cx="436" cy="340" r="3" fill="#D55E00"/>
<circle cx="436" cy="304" r="3" fill="#009E73"/>
<circle cx="436" cy="118" r="3" fill="#984EA3"/>
<circle cx="436" cy="51" r="3" fill="#56B4E9"/>
<circle cx="436" cy="51" r="3" fill="#E69F00"/>
<circle cx="436" cy="339" r="3" fill="#C44E52"/>
<circle cx="436" cy="297" r="3" fill="#8C564B"/>
<circle cx="510" cy="64" r="3" fill="#0072B2"/>
<circle cx="510" cy="68" r="3" fill="#CC79A7"/>
<circle cx="510" cy="340" r="3" fill="#D55E00"/>
<circle cx="510" cy="304" r="3" fill="#009E73"/>
<circle cx="510" cy="119" r="3" fill="#984EA3"/>
<circle cx="510" cy="51" r="3" fill="#56B4E9"/>
<circle cx="510" cy="50" r="3" fill="#E69F00"/>
<circle cx="510" cy="339" r="3" fill="#C44E52"/>
<circle cx="510" cy="297" r="3" fill="#8C564B"/>
<circle cx="583" cy="72" r="3" fill="#0072B2"/>
<circle cx="583" cy="68" r="3" fill="#CC79A7"/>
<circle cx="583" cy="340" r="3" fill="#D55E00"/>
<circle cx="583" cy="304" r="3" fill="#009E73"/>
<circle cx="583" cy="116" r="3" fill="#984EA3"/>
<circle cx="583" cy="50" r="3" fill="#56B4E9"/>
<circle cx="583" cy="51" r="3" fill="#E69F00"/>
<circle cx="583" cy="340" r="3" fill="#C44E52"/>
<circle cx="583" cy="297" r="3" fill="#8C564B"/>
<circle cx="656" cy="67" r="3" fill="#0072B2"/>
<circle cx="656" cy="64" r="3" fill="#CC79A7"/>
<circle cx="656" cy="340" r="3" fill="#D55E00"/>
<circle cx="656" cy="305" r="3" fill="#009E73"/>
<circle cx="656" cy="117" r="3" fill="#984EA3"/>
<circle cx="656" cy="50" r="3" fill="#56B4E9"/>
<circle cx="656" cy="50" r="3" fill="#E69F00"/>
<circle cx="656" cy="339" r="3" fill="#C44E52"/>
<circle cx="656" cy="297" r="3" fill="#8C564B"/>
<circle cx="730" cy="41" r="3" fill="#0072B2"/>
<circle cx="730" cy="50" r="3" fill="#CC79A7"/>
<circle cx="730" cy="340" r="3" fill="#D55E00"/>
<circle cx="730" cy="302" r="3" fill="#009E73"/>
<circle cx="730" cy="111" r="3" fill="#984EA3"/>
<circle cx="730" cy="42" r="3" fill="#56B4E9"/>
<circle cx="730" cy="41" r="3" fill="#E69F00"/>
<circle cx="730" cy="340" r="3" fill="#C44E52"/>
<circle cx="730" cy="297" r="3" fill="#8C564B"/>
<circle cx="70" cy="20" r="4" fill="#0072B2"/>
<text x="78" y="24" text-anchor="start" font-size="12" fill="#0072B2">inte</text>
<circle cx="130" cy="20" r="4" fill="#CC79A7"/>
<text x="138" y="24" text-anchor="start" font-size="12" fill="#CC79A7">comp</text>
<circle cx="195" cy="20" r="4" fill="#D55E00"/>
<text x="203" y="24" text-anchor="start" font-size="12" fill="#D55E00">run</text>
<circle cx="250" cy="20" r="4" fill="#009E73"/>
<text x="258" y="24" text-anchor="start" font-size="12" fill="#009E73">wall</text>
<circle cx="315" cy="20" r="4" fill="#984EA3"/>
<text x="323" y="24" text-anchor="start" font-size="12" fill="#984EA3">self</text>
<circle cx="380" cy="20" r="4" fill="#56B4E9"/>
<text x="388" y="24" text-anchor="start" font-size="12" fill="#56B4E9">mem-inte</text>
<circle cx="470" cy="20" r="4" fill="#E69F00"/>
<text x="478" y="24" text-anchor="start" font-size="12" fill="#E69F00">mem-comp</text>
<circle cx="565" cy="20" r="4" fill="#C44E52"/>
<text x="573" y="24" text-anchor="start" font-size="12" fill="#C44E52">mem-run</text>
<circle cx="650" cy="20" r="4" fill="#8C564B"/>
<text x="658" y="24" text-anchor="start" font-size="12" fill="#8C564B">self-mem</text>
</svg>
