<svg width="800" height="400" xmlns="http://www.w3.org/2000/svg">
<rect width="800" height="400" fill="white"/>
<line x1="70" y1="40" x2="70" y2="340" stroke="#333" stroke-width="1"/>
<line x1="70" y1="340" x2="730" y2="340" stroke="#333" stroke-width="1"/>
<line x1="730" y1="40" x2="730" y2="340" stroke="#333" stroke-width="1"/>
<text x="65" y="344" text-anchor="end" font-size="11" fill="#333">0</text>
<text x="65" y="194" text-anchor="end" font-size="11" fill="#333">99500</text>
<text x="65" y="44" text-anchor="end" font-size="11" fill="#333">199000</text>
<text x="15" y="190" text-anchor="middle" font-size="12" fill="#333" transform="rotate(-90 15 190)">ms</text>
<text x="735" y="344" text-anchor="start" font-size="11" fill="#333">0</text>
<text x="735" y="194" text-anchor="start" font-size="11" fill="#333">51914000000</text>
<text x="735" y="44" text-anchor="start" font-size="11" fill="#333">103828000000</text>
<text x="785" y="190" text-anchor="middle" font-size="12" fill="#333" transform="rotate(90 785 190)">bytes</text>
<polyline points="70,186 143,146 216,174 290,180 363,174 436,113 510,100 583,147 656,161 730,174" fill="none" stroke="#0072B2" stroke-width="2"/>
<polyline points="70,171 143,128 216,159 290,168 363,156 436,55 510,41 583,129 656,145 730,159" fill="none" stroke="#CC79A7" stroke-width="2"/>
<polyline points="70,340 143,340 216,340 290,340 363,340 436,340 510,340 583,340 656,340 730,340" fill="none" stroke="#D55E00" stroke-width="2"/>
<polyline points="70,191 143,156 216,179 290,184 363,178 436,278 510,275 583,153 656,168 730,175" fill="none" stroke="#009E73" stroke-width="2"/>
<polyline points="70,330 143,330 216,330 290,330 363,330 436,330 510,330 583,330 656,330 730,330" fill="none" stroke="#56B4E9" stroke-width="2"/>
<polyline points="70,324 143,325 216,324 290,325 363,324 436,321 510,321 583,324 656,325 730,325" fill="none" stroke="#E69F00" stroke-width="2"/>
<polyline points="70,340 143,340 216,340 290,340 363,340 436,340 510,340 583,340 656,340 730,340" fill="none" stroke="#C44E52" stroke-width="2"/>
<polyline points="70,308 143,309 216,309 290,309 363,308 436,101 510,41 583,308 656,309 730,309" fill="none" stroke="#000000" stroke-width="2"/>
<circle cx="70" cy="186" r="3" fill="#0072B2"/>
<circle cx="70" cy="171" r="3" fill="#CC79A7"/>
<circle cx="70" cy="340" r="3" fill="#D55E00"/>
<circle cx="70" cy="191" r="3" fill="#009E73"/>
<circle cx="70" cy="330" r="3" fill="#56B4E9"/>
<circle cx="70" cy="324" r="3" fill="#E69F00"/>
<circle cx="70" cy="340" r="3" fill="#C44E52"/>
<circle cx="70" cy="308" r="3" fill="#000000"/>
<circle cx="143" cy="146" r="3" fill="#0072B2"/>
<circle cx="143" cy="128" r="3" fill="#CC79A7"/>
<circle cx="143" cy="340" r="3" fill="#D55E00"/>
<circle cx="143" cy="156" r="3" fill="#009E73"/>
<circle cx="143" cy="330" r="3" fill="#56B4E9"/>
<circle cx="143" cy="325" r="3" fill="#E69F00"/>
<circle cx="143" cy="340" r="3" fill="#C44E52"/>
<circle cx="143" cy="309" r="3" fill="#000000"/>
<circle cx="216" cy="174" r="3" fill="#0072B2"/>
<circle cx="216" cy="159" r="3" fill="#CC79A7"/>
<circle cx="216" cy="340" r="3" fill="#D55E00"/>
<circle cx="216" cy="179" r="3" fill="#009E73"/>
<circle cx="216" cy="330" r="3" fill="#56B4E9"/>
<circle cx="216" cy="324" r="3" fill="#E69F00"/>
<circle cx="216" cy="340" r="3" fill="#C44E52"/>
<circle cx="216" cy="309" r="3" fill="#000000"/>
<circle cx="290" cy="180" r="3" fill="#0072B2"/>
<circle cx="290" cy="168" r="3" fill="#CC79A7"/>
<circle cx="290" cy="340" r="3" fill="#D55E00"/>
<circle cx="290" cy="184" r="3" fill="#009E73"/>
<circle cx="290" cy="330" r="3" fill="#56B4E9"/>
<circle cx="290" cy="325" r="3" fill="#E69F00"/>
<circle cx="290" cy="340" r="3" fill="#C44E52"/>
<circle cx="290" cy="309" r="3" fill="#000000"/>
<circle cx="363" cy="174" r="3" fill="#0072B2"/>
<circle cx="363" cy="156" r="3" fill="#CC79A7"/>
<circle cx="363" cy="340" r="3" fill="#D55E00"/>
<circle cx="363" cy="178" r="3" fill="#009E73"/>
<circle cx="363" cy="330" r="3" fill="#56B4E9"/>
<circle cx="363" cy="324" r="3" fill="#E69F00"/>
<circle cx="363" cy="340" r="3" fill="#C44E52"/>
<circle cx="363" cy="308" r="3" fill="#000000"/>
<circle cx="436" cy="113" r="3" fill="#0072B2"/>
<circle cx="436" cy="55" r="3" fill="#CC79A7"/>
<circle cx="436" cy="340" r="3" fill="#D55E00"/>
<circle cx="436" cy="278" r="3" fill="#009E73"/>
<circle cx="436" cy="330" r="3" fill="#56B4E9"/>
<circle cx="436" cy="321" r="3" fill="#E69F00"/>
<circle cx="436" cy="340" r="3" fill="#C44E52"/>
<circle cx="436" cy="101" r="3" fill="#000000"/>
<circle cx="510" cy="100" r="3" fill="#0072B2"/>
<circle cx="510" cy="41" r="3" fill="#CC79A7"/>
<circle cx="510" cy="340" r="3" fill="#D55E00"/>
<circle cx="510" cy="275" r="3" fill="#009E73"/>
<circle cx="510" cy="330" r="3" fill="#56B4E9"/>
<circle cx="510" cy="321" r="3" fill="#E69F00"/>
<circle cx="510" cy="340" r="3" fill="#C44E52"/>
<circle cx="510" cy="41" r="3" fill="#000000"/>
<circle cx="583" cy="147" r="3" fill="#0072B2"/>
<circle cx="583" cy="129" r="3" fill="#CC79A7"/>
<circle cx="583" cy="340" r="3" fill="#D55E00"/>
<circle cx="583" cy="153" r="3" fill="#009E73"/>
<circle cx="583" cy="330" r="3" fill="#56B4E9"/>
<circle cx="583" cy="324" r="3" fill="#E69F00"/>
<circle cx="583" cy="340" r="3" fill="#C44E52"/>
<circle cx="583" cy="308" r="3" fill="#000000"/>
<circle cx="656" cy="161" r="3" fill="#0072B2"/>
<circle cx="656" cy="145" r="3" fill="#CC79A7"/>
<circle cx="656" cy="340" r="3" fill="#D55E00"/>
<circle cx="656" cy="168" r="3" fill="#009E73"/>
<circle cx="656" cy="330" r="3" fill="#56B4E9"/>
<circle cx="656" cy="325" r="3" fill="#E69F00"/>
<circle cx="656" cy="340" r="3" fill="#C44E52"/>
<circle cx="656" cy="309" r="3" fill="#000000"/>
<circle cx="730" cy="174" r="3" fill="#0072B2"/>
<circle cx="730" cy="159" r="3" fill="#CC79A7"/>
<circle cx="730" cy="340" r="3" fill="#D55E00"/>
<circle cx="730" cy="175" r="3" fill="#009E73"/>
<circle cx="730" cy="330" r="3" fill="#56B4E9"/>
<circle cx="730" cy="325" r="3" fill="#E69F00"/>
<circle cx="730" cy="340" r="3" fill="#C44E52"/>
<circle cx="730" cy="309" r="3" fill="#000000"/>
<circle cx="90" cy="20" r="4" fill="#0072B2"/>
<text x="98" y="24" text-anchor="start" font-size="12" fill="#0072B2">inte</text>
<circle cx="150" cy="20" r="4" fill="#CC79A7"/>
<text x="158" y="24" text-anchor="start" font-size="12" fill="#CC79A7">comp</text>
<circle cx="215" cy="20" r="4" fill="#D55E00"/>
<text x="223" y="24" text-anchor="start" font-size="12" fill="#D55E00">run</text>
<circle cx="270" cy="20" r="4" fill="#009E73"/>
<text x="278" y="24" text-anchor="start" font-size="12" fill="#009E73">wall</text>
<circle cx="335" cy="20" r="4" fill="#56B4E9"/>
<text x="343" y="24" text-anchor="start" font-size="12" fill="#56B4E9">mem-inte</text>
<circle cx="425" cy="20" r="4" fill="#E69F00"/>
<text x="433" y="24" text-anchor="start" font-size="12" fill="#E69F00">mem-comp</text>
<circle cx="520" cy="20" r="4" fill="#C44E52"/>
<text x="528" y="24" text-anchor="start" font-size="12" fill="#C44E52">mem-run</text>
<circle cx="605" cy="20" r="4" fill="#000000"/>
<text x="613" y="24" text-anchor="start" font-size="12" fill="#000000">mem-total</text>
</svg>
