<svg width="800" height="400" xmlns="http://www.w3.org/2000/svg">
<rect width="800" height="400" fill="white"/>
<line x1="70" y1="40" x2="70" y2="340" stroke="#333" stroke-width="1"/>
<line x1="70" y1="340" x2="730" y2="340" stroke="#333" stroke-width="1"/>
<line x1="730" y1="40" x2="730" y2="340" stroke="#333" stroke-width="1"/>
<text x="65" y="344" text-anchor="end" font-size="11" fill="#333">0</text>
<text x="65" y="194" text-anchor="end" font-size="11" fill="#333">48500</text>
<text x="65" y="44" text-anchor="end" font-size="11" fill="#333">97000</text>
<text x="15" y="190" text-anchor="middle" font-size="12" fill="#333" transform="rotate(-90 15 190)">ms</text>
<text x="735" y="344" text-anchor="start" font-size="11" fill="#333">0</text>
<text x="735" y="194" text-anchor="start" font-size="11" fill="#333">5049500000</text>
<text x="735" y="44" text-anchor="start" font-size="11" fill="#333">10099000000</text>
<text x="785" y="190" text-anchor="middle" font-size="12" fill="#333" transform="rotate(90 785 190)">bytes</text>
<polyline points="70,126 143,124 216,127 290,124 363,121 436,123 510,120 583,104 656,99 730,87" fill="none" stroke="#0072B2" stroke-width="2"/>
<polyline points="70,81 143,79 216,83 290,79 363,75 436,83 510,81 583,70 656,62 730,41" fill="none" stroke="#CC79A7" stroke-width="2"/>
<polyline points="70,339 143,339 216,339 290,339 363,339 436,339 510,339 583,339 656,339 730,339" fill="none" stroke="#D55E00" stroke-width="2"/>
<polyline points="70,305 143,305 216,305 290,305 363,305 436,304 510,305 583,304 656,303 730,302" fill="none" stroke="#009E73" stroke-width="2"/>
<polyline points="70,275 143,276 216,277 290,276 363,275 436,272 510,277 583,275 656,274 730,272" fill="none" stroke="#56B4E9" stroke-width="2"/>
<polyline points="70,202 143,202 216,202 290,202 363,202 436,202 510,202 583,198 656,198 730,191" fill="none" stroke="#E69F00" stroke-width="2"/>
<polyline points="70,340 143,340 216,340 290,340 363,340 436,340 510,340 583,340 656,340 730,340" fill="none" stroke="#C44E52" stroke-width="2"/>
<polyline points="70,54 143,55 216,56 290,55 363,54 436,51 510,56 583,51 656,49 730,41" fill="none" stroke="#000000" stroke-width="2"/>
<circle cx="70" cy="126" r="3" fill="#0072B2"/>
<circle cx="70" cy="81" r="3" fill="#CC79A7"/>
<circle cx="70" cy="339" r="3" fill="#D55E00"/>
<circle cx="70" cy="305" r="3" fill="#009E73"/>
<circle cx="70" cy="275" r="3" fill="#56B4E9"/>
<circle cx="70" cy="202" r="3" fill="#E69F00"/>
<circle cx="70" cy="340" r="3" fill="#C44E52"/>
<circle cx="70" cy="54" r="3" fill="#000000"/>
<circle cx="143" cy="124" r="3" fill="#0072B2"/>
<circle cx="143" cy="79" r="3" fill="#CC79A7"/>
<circle cx="143" cy="339" r="3" fill="#D55E00"/>
<circle cx="143" cy="305" r="3" fill="#009E73"/>
<circle cx="143" cy="276" r="3" fill="#56B4E9"/>
<circle cx="143" cy="202" r="3" fill="#E69F00"/>
<circle cx="143" cy="340" r="3" fill="#C44E52"/>
<circle cx="143" cy="55" r="3" fill="#000000"/>
<circle cx="216" cy="127" r="3" fill="#0072B2"/>
<circle cx="216" cy="83" r="3" fill="#CC79A7"/>
<circle cx="216" cy="339" r="3" fill="#D55E00"/>
<circle cx="216" cy="305" r="3" fill="#009E73"/>
<circle cx="216" cy="277" r="3" fill="#56B4E9"/>
<circle cx="216" cy="202" r="3" fill="#E69F00"/>
<circle cx="216" cy="340" r="3" fill="#C44E52"/>
<circle cx="216" cy="56" r="3" fill="#000000"/>
<circle cx="290" cy="124" r="3" fill="#0072B2"/>
<circle cx="290" cy="79" r="3" fill="#CC79A7"/>
<circle cx="290" cy="339" r="3" fill="#D55E00"/>
<circle cx="290" cy="305" r="3" fill="#009E73"/>
<circle cx="290" cy="276" r="3" fill="#56B4E9"/>
<circle cx="290" cy="202" r="3" fill="#E69F00"/>
<circle cx="290" cy="340" r="3" fill="#C44E52"/>
<circle cx="290" cy="55" r="3" fill="#000000"/>
<circle cx="363" cy="121" r="3" fill="#0072B2"/>
<circle cx="363" cy="75" r="3" fill="#CC79A7"/>
<circle cx="363" cy="339" r="3" fill="#D55E00"/>
<circle cx="363" cy="305" r="3" fill="#009E73"/>
<circle cx="363" cy="275" r="3" fill="#56B4E9"/>
<circle cx="363" cy="202" r="3" fill="#E69F00"/>
<circle cx="363" cy="340" r="3" fill="#C44E52"/>
<circle cx="363" cy="54" r="3" fill="#000000"/>
<circle cx="436" cy="123" r="3" fill="#0072B2"/>
<circle cx="436" cy="83" r="3" fill="#CC79A7"/>
<circle cx="436" cy="339" r="3" fill="#D55E00"/>
<circle cx="436" cy="304" r="3" fill="#009E73"/>
<circle cx="436" cy="272" r="3" fill="#56B4E9"/>
<circle cx="436" cy="202" r="3" fill="#E69F00"/>
<circle cx="436" cy="340" r="3" fill="#C44E52"/>
<circle cx="436" cy="51" r="3" fill="#000000"/>
<circle cx="510" cy="120" r="3" fill="#0072B2"/>
<circle cx="510" cy="81" r="3" fill="#CC79A7"/>
<circle cx="510" cy="339" r="3" fill="#D55E00"/>
<circle cx="510" cy="305" r="3" fill="#009E73"/>
<circle cx="510" cy="277" r="3" fill="#56B4E9"/>
<circle cx="510" cy="202" r="3" fill="#E69F00"/>
<circle cx="510" cy="340" r="3" fill="#C44E52"/>
<circle cx="510" cy="56" r="3" fill="#000000"/>
<circle cx="583" cy="104" r="3" fill="#0072B2"/>
<circle cx="583" cy="70" r="3" fill="#CC79A7"/>
<circle cx="583" cy="339" r="3" fill="#D55E00"/>
<circle cx="583" cy="304" r="3" fill="#009E73"/>
<circle cx="583" cy="275" r="3" fill="#56B4E9"/>
<circle cx="583" cy="198" r="3" fill="#E69F00"/>
<circle cx="583" cy="340" r="3" fill="#C44E52"/>
<circle cx="583" cy="51" r="3" fill="#000000"/>
<circle cx="656" cy="99" r="3" fill="#0072B2"/>
<circle cx="656" cy="62" r="3" fill="#CC79A7"/>
<circle cx="656" cy="339" r="3" fill="#D55E00"/>
<circle cx="656" cy="303" r="3" fill="#009E73"/>
<circle cx="656" cy="274" r="3" fill="#56B4E9"/>
<circle cx="656" cy="198" r="3" fill="#E69F00"/>
<circle cx="656" cy="340" r="3" fill="#C44E52"/>
<circle cx="656" cy="49" r="3" fill="#000000"/>
<circle cx="730" cy="87" r="3" fill="#0072B2"/>
<circle cx="730" cy="41" r="3" fill="#CC79A7"/>
<circle cx="730" cy="339" r="3" fill="#D55E00"/>
<circle cx="730" cy="302" r="3" fill="#009E73"/>
<circle cx="730" cy="272" r="3" fill="#56B4E9"/>
<circle cx="730" cy="191" r="3" fill="#E69F00"/>
<circle cx="730" cy="340" r="3" fill="#C44E52"/>
<circle cx="730" cy="41" r="3" fill="#000000"/>
<circle cx="90" cy="20" r="4" fill="#0072B2"/>
<text x="98" y="24" text-anchor="start" font-size="12" fill="#0072B2">inte</text>
<circle cx="150" cy="20" r="4" fill="#CC79A7"/>
<text x="158" y="24" text-anchor="start" font-size="12" fill="#CC79A7">comp</text>
<circle cx="215" cy="20" r="4" fill="#D55E00"/>
<text x="223" y="24" text-anchor="start" font-size="12" fill="#D55E00">run</text>
<circle cx="270" cy="20" r="4" fill="#009E73"/>
<text x="278" y="24" text-anchor="start" font-size="12" fill="#009E73">wall</text>
<circle cx="335" cy="20" r="4" fill="#56B4E9"/>
<text x="343" y="24" text-anchor="start" font-size="12" fill="#56B4E9">mem-inte</text>
<circle cx="425" cy="20" r="4" fill="#E69F00"/>
<text x="433" y="24" text-anchor="start" font-size="12" fill="#E69F00">mem-comp</text>
<circle cx="520" cy="20" r="4" fill="#C44E52"/>
<text x="528" y="24" text-anchor="start" font-size="12" fill="#C44E52">mem-run</text>
<circle cx="605" cy="20" r="4" fill="#000000"/>
<text x="613" y="24" text-anchor="start" font-size="12" fill="#000000">mem-total</text>
</svg>
