<svg width="800" height="400" xmlns="http://www.w3.org/2000/svg">
<rect width="800" height="400" fill="white"/>
<line x1="70" y1="40" x2="70" y2="340" stroke="#333" stroke-width="1"/>
<line x1="70" y1="340" x2="730" y2="340" stroke="#333" stroke-width="1"/>
<line x1="730" y1="40" x2="730" y2="340" stroke="#333" stroke-width="1"/>
<text x="65" y="344" text-anchor="end" font-size="11" fill="#333">0</text>
<text x="65" y="194" text-anchor="end" font-size="11" fill="#333">357000</text>
<text x="65" y="44" text-anchor="end" font-size="11" fill="#333">714000</text>
<text x="15" y="190" text-anchor="middle" font-size="12" fill="#333" transform="rotate(-90 15 190)">ms</text>
<text x="735" y="344" text-anchor="start" font-size="11" fill="#333">0</text>
<text x="735" y="194" text-anchor="start" font-size="11" fill="#333">10685000000</text>
<text x="735" y="44" text-anchor="start" font-size="11" fill="#333">21370000000</text>
<text x="785" y="190" text-anchor="middle" font-size="12" fill="#333" transform="rotate(90 785 190)">bytes</text>
<polyline points="70,83 143,81 216,80 290,80 363,81 436,47 510,43 583,41 656,43 730,44" fill="none" stroke="#0072B2" stroke-width="2"/>
<polyline points="70,104 143,102 216,102 290,102 363,103 436,77 510,72 583,71 656,76 730,79" fill="none" stroke="#CC79A7" stroke-width="2"/>
<polyline points="70,340 143,340 216,340 290,340 363,340 436,340 510,340 583,340 656,340 730,340" fill="none" stroke="#D55E00" stroke-width="2"/>
<polyline points="70,307 143,307 216,307 290,307 363,307 436,299 510,298 583,298 656,298 730,298" fill="none" stroke="#009E73" stroke-width="2"/>
<polyline points="70,303 143,303 216,303 290,303 363,303 436,301 510,301 583,301 656,301 730,301" fill="none" stroke="#56B4E9" stroke-width="2"/>
<polyline points="70,186 143,186 216,186 290,186 363,186 436,181 510,181 583,181 656,193 730,193" fill="none" stroke="#E69F00" stroke-width="2"/>
<polyline points="70,337 143,336 216,337 290,338 363,337 436,337 510,336 583,334 656,335 730,337" fill="none" stroke="#C44E52" stroke-width="2"/>
<polyline points="70,51 143,50 216,49 290,51 363,50 436,43 510,43 583,41 656,55 730,57" fill="none" stroke="#000000" stroke-width="2"/>
<circle cx="70" cy="83" r="3" fill="#0072B2"/>
<circle cx="70" cy="104" r="3" fill="#CC79A7"/>
<circle cx="70" cy="340" r="3" fill="#D55E00"/>
<circle cx="70" cy="307" r="3" fill="#009E73"/>
<circle cx="70" cy="303" r="3" fill="#56B4E9"/>
<circle cx="70" cy="186" r="3" fill="#E69F00"/>
<circle cx="70" cy="337" r="3" fill="#C44E52"/>
<circle cx="70" cy="51" r="3" fill="#000000"/>
<circle cx="143" cy="81" r="3" fill="#0072B2"/>
<circle cx="143" cy="102" r="3" fill="#CC79A7"/>
<circle cx="143" cy="340" r="3" fill="#D55E00"/>
<circle cx="143" cy="307" r="3" fill="#009E73"/>
<circle cx="143" cy="303" r="3" fill="#56B4E9"/>
<circle cx="143" cy="186" r="3" fill="#E69F00"/>
<circle cx="143" cy="336" r="3" fill="#C44E52"/>
<circle cx="143" cy="50" r="3" fill="#000000"/>
<circle cx="216" cy="80" r="3" fill="#0072B2"/>
<circle cx="216" cy="102" r="3" fill="#CC79A7"/>
<circle cx="216" cy="340" r="3" fill="#D55E00"/>
<circle cx="216" cy="307" r="3" fill="#009E73"/>
<circle cx="216" cy="303" r="3" fill="#56B4E9"/>
<circle cx="216" cy="186" r="3" fill="#E69F00"/>
<circle cx="216" cy="337" r="3" fill="#C44E52"/>
<circle cx="216" cy="49" r="3" fill="#000000"/>
<circle cx="290" cy="80" r="3" fill="#0072B2"/>
<circle cx="290" cy="102" r="3" fill="#CC79A7"/>
<circle cx="290" cy="340" r="3" fill="#D55E00"/>
<circle cx="290" cy="307" r="3" fill="#009E73"/>
<circle cx="290" cy="303" r="3" fill="#56B4E9"/>
<circle cx="290" cy="186" r="3" fill="#E69F00"/>
<circle cx="290" cy="338" r="3" fill="#C44E52"/>
<circle cx="290" cy="51" r="3" fill="#000000"/>
<circle cx="363" cy="81" r="3" fill="#0072B2"/>
<circle cx="363" cy="103" r="3" fill="#CC79A7"/>
<circle cx="363" cy="340" r="3" fill="#D55E00"/>
<circle cx="363" cy="307" r="3" fill="#009E73"/>
<circle cx="363" cy="303" r="3" fill="#56B4E9"/>
<circle cx="363" cy="186" r="3" fill="#E69F00"/>
<circle cx="363" cy="337" r="3" fill="#C44E52"/>
<circle cx="363" cy="50" r="3" fill="#000000"/>
<circle cx="436" cy="47" r="3" fill="#0072B2"/>
<circle cx="436" cy="77" r="3" fill="#CC79A7"/>
<circle cx="436" cy="340" r="3" fill="#D55E00"/>
<circle cx="436" cy="299" r="3" fill="#009E73"/>
<circle cx="436" cy="301" r="3" fill="#56B4E9"/>
<circle cx="436" cy="181" r="3" fill="#E69F00"/>
<circle cx="436" cy="337" r="3" fill="#C44E52"/>
<circle cx="436" cy="43" r="3" fill="#000000"/>
<circle cx="510" cy="43" r="3" fill="#0072B2"/>
<circle cx="510" cy="72" r="3" fill="#CC79A7"/>
<circle cx="510" cy="340" r="3" fill="#D55E00"/>
<circle cx="510" cy="298" r="3" fill="#009E73"/>
<circle cx="510" cy="301" r="3" fill="#56B4E9"/>
<circle cx="510" cy="181" r="3" fill="#E69F00"/>
<circle cx="510" cy="336" r="3" fill="#C44E52"/>
<circle cx="510" cy="43" r="3" fill="#000000"/>
<circle cx="583" cy="41" r="3" fill="#0072B2"/>
<circle cx="583" cy="71" r="3" fill="#CC79A7"/>
<circle cx="583" cy="340" r="3" fill="#D55E00"/>
<circle cx="583" cy="298" r="3" fill="#009E73"/>
<circle cx="583" cy="301" r="3" fill="#56B4E9"/>
<circle cx="583" cy="181" r="3" fill="#E69F00"/>
<circle cx="583" cy="334" r="3" fill="#C44E52"/>
<circle cx="583" cy="41" r="3" fill="#000000"/>
<circle cx="656" cy="43" r="3" fill="#0072B2"/>
<circle cx="656" cy="76" r="3" fill="#CC79A7"/>
<circle cx="656" cy="340" r="3" fill="#D55E00"/>
<circle cx="656" cy="298" r="3" fill="#009E73"/>
<circle cx="656" cy="301" r="3" fill="#56B4E9"/>
<circle cx="656" cy="193" r="3" fill="#E69F00"/>
<circle cx="656" cy="335" r="3" fill="#C44E52"/>
<circle cx="656" cy="55" r="3" fill="#000000"/>
<circle cx="730" cy="44" r="3" fill="#0072B2"/>
<circle cx="730" cy="79" r="3" fill="#CC79A7"/>
<circle cx="730" cy="340" r="3" fill="#D55E00"/>
<circle cx="730" cy="298" r="3" fill="#009E73"/>
<circle cx="730" cy="301" r="3" fill="#56B4E9"/>
<circle cx="730" cy="193" r="3" fill="#E69F00"/>
<circle cx="730" cy="337" r="3" fill="#C44E52"/>
<circle cx="730" cy="57" r="3" fill="#000000"/>
<circle cx="90" cy="20" r="4" fill="#0072B2"/>
<text x="98" y="24" text-anchor="start" font-size="12" fill="#0072B2">inte</text>
<circle cx="150" cy="20" r="4" fill="#CC79A7"/>
<text x="158" y="24" text-anchor="start" font-size="12" fill="#CC79A7">comp</text>
<circle cx="215" cy="20" r="4" fill="#D55E00"/>
<text x="223" y="24" text-anchor="start" font-size="12" fill="#D55E00">run</text>
<circle cx="270" cy="20" r="4" fill="#009E73"/>
<text x="278" y="24" text-anchor="start" font-size="12" fill="#009E73">wall</text>
<circle cx="335" cy="20" r="4" fill="#56B4E9"/>
<text x="343" y="24" text-anchor="start" font-size="12" fill="#56B4E9">mem-inte</text>
<circle cx="425" cy="20" r="4" fill="#E69F00"/>
<text x="433" y="24" text-anchor="start" font-size="12" fill="#E69F00">mem-comp</text>
<circle cx="520" cy="20" r="4" fill="#C44E52"/>
<text x="528" y="24" text-anchor="start" font-size="12" fill="#C44E52">mem-run</text>
<circle cx="605" cy="20" r="4" fill="#000000"/>
<text x="613" y="24" text-anchor="start" font-size="12" fill="#000000">mem-total</text>
</svg>
