<svg width="800" height="400" xmlns="http://www.w3.org/2000/svg">
<rect width="800" height="400" fill="white"/>
<line x1="70" y1="40" x2="70" y2="340" stroke="#333" stroke-width="1"/>
<line x1="70" y1="340" x2="730" y2="340" stroke="#333" stroke-width="1"/>
<line x1="730" y1="40" x2="730" y2="340" stroke="#333" stroke-width="1"/>
<text x="65" y="344" text-anchor="end" font-size="11" fill="#333">0</text>
<text x="65" y="194" text-anchor="end" font-size="11" fill="#333">107000</text>
<text x="65" y="44" text-anchor="end" font-size="11" fill="#333">214000</text>
<text x="15" y="190" text-anchor="middle" font-size="12" fill="#333" transform="rotate(-90 15 190)">ms</text>
<text x="735" y="344" text-anchor="start" font-size="11" fill="#333">0</text>
<text x="735" y="194" text-anchor="start" font-size="11" fill="#333">10553000000</text>
<text x="735" y="44" text-anchor="start" font-size="11" fill="#333">21106000000</text>
<text x="785" y="190" text-anchor="middle" font-size="12" fill="#333" transform="rotate(90 785 190)">bytes</text>
<polyline points="70,150 143,159 216,162 290,162 363,161 436,137 510,144 583,143 656,148 730,144" fill="none" stroke="#0072B2" stroke-width="2"/>
<polyline points="70,55 143,62 216,63 290,63 363,62 436,41 510,46 583,47 656,62 730,52" fill="none" stroke="#CC79A7" stroke-width="2"/>
<polyline points="70,339 143,339 216,339 290,340 363,340 436,339 510,340 583,340 656,340 730,340" fill="none" stroke="#D55E00" stroke-width="2"/>
<polyline points="70,308 143,309 216,308 290,309 363,307 436,305 510,308 583,307 656,307 730,308" fill="none" stroke="#009E73" stroke-width="2"/>
<polyline points="70,300 143,300 216,300 290,300 363,300 436,297 510,297 583,298 656,298 730,298" fill="none" stroke="#56B4E9" stroke-width="2"/>
<polyline points="70,193 143,191 216,191 290,191 363,191 436,188 510,188 583,189 656,189 730,189" fill="none" stroke="#E69F00" stroke-width="2"/>
<polyline points="70,338 143,339 216,339 290,339 363,339 436,339 510,339 583,339 656,340 730,340" fill="none" stroke="#C44E52" stroke-width="2"/>
<polyline points="70,51 143,49 216,49 290,49 363,47 436,41 510,42 583,41 656,42 730,44" fill="none" stroke="#000000" stroke-width="2"/>
<circle cx="70" cy="150" r="3" fill="#0072B2"/>
<circle cx="70" cy="55" r="3" fill="#CC79A7"/>
<circle cx="70" cy="339" r="3" fill="#D55E00"/>
<circle cx="70" cy="308" r="3" fill="#009E73"/>
<circle cx="70" cy="300" r="3" fill="#56B4E9"/>
<circle cx="70" cy="193" r="3" fill="#E69F00"/>
<circle cx="70" cy="338" r="3" fill="#C44E52"/>
<circle cx="70" cy="51" r="3" fill="#000000"/>
<circle cx="143" cy="159" r="3" fill="#0072B2"/>
<circle cx="143" cy="62" r="3" fill="#CC79A7"/>
<circle cx="143" cy="339" r="3" fill="#D55E00"/>
<circle cx="143" cy="309" r="3" fill="#009E73"/>
<circle cx="143" cy="300" r="3" fill="#56B4E9"/>
<circle cx="143" cy="191" r="3" fill="#E69F00"/>
<circle cx="143" cy="339" r="3" fill="#C44E52"/>
<circle cx="143" cy="49" r="3" fill="#000000"/>
<circle cx="216" cy="162" r="3" fill="#0072B2"/>
<circle cx="216" cy="63" r="3" fill="#CC79A7"/>
<circle cx="216" cy="339" r="3" fill="#D55E00"/>
<circle cx="216" cy="308" r="3" fill="#009E73"/>
<circle cx="216" cy="300" r="3" fill="#56B4E9"/>
<circle cx="216" cy="191" r="3" fill="#E69F00"/>
<circle cx="216" cy="339" r="3" fill="#C44E52"/>
<circle cx="216" cy="49" r="3" fill="#000000"/>
<circle cx="290" cy="162" r="3" fill="#0072B2"/>
<circle cx="290" cy="63" r="3" fill="#CC79A7"/>
<circle cx="290" cy="340" r="3" fill="#D55E00"/>
<circle cx="290" cy="309" r="3" fill="#009E73"/>
<circle cx="290" cy="300" r="3" fill="#56B4E9"/>
<circle cx="290" cy="191" r="3" fill="#E69F00"/>
<circle cx="290" cy="339" r="3" fill="#C44E52"/>
<circle cx="290" cy="49" r="3" fill="#000000"/>
<circle cx="363" cy="161" r="3" fill="#0072B2"/>
<circle cx="363" cy="62" r="3" fill="#CC79A7"/>
<circle cx="363" cy="340" r="3" fill="#D55E00"/>
<circle cx="363" cy="307" r="3" fill="#009E73"/>
<circle cx="363" cy="300" r="3" fill="#56B4E9"/>
<circle cx="363" cy="191" r="3" fill="#E69F00"/>
<circle cx="363" cy="339" r="3" fill="#C44E52"/>
<circle cx="363" cy="47" r="3" fill="#000000"/>
<circle cx="436" cy="137" r="3" fill="#0072B2"/>
<circle cx="436" cy="41" r="3" fill="#CC79A7"/>
<circle cx="436" cy="339" r="3" fill="#D55E00"/>
<circle cx="436" cy="305" r="3" fill="#009E73"/>
<circle cx="436" cy="297" r="3" fill="#56B4E9"/>
<circle cx="436" cy="188" r="3" fill="#E69F00"/>
<circle cx="436" cy="339" r="3" fill="#C44E52"/>
<circle cx="436" cy="41" r="3" fill="#000000"/>
<circle cx="510" cy="144" r="3" fill="#0072B2"/>
<circle cx="510" cy="46" r="3" fill="#CC79A7"/>
<circle cx="510" cy="340" r="3" fill="#D55E00"/>
<circle cx="510" cy="308" r="3" fill="#009E73"/>
<circle cx="510" cy="297" r="3" fill="#56B4E9"/>
<circle cx="510" cy="188" r="3" fill="#E69F00"/>
<circle cx="510" cy="339" r="3" fill="#C44E52"/>
<circle cx="510" cy="42" r="3" fill="#000000"/>
<circle cx="583" cy="143" r="3" fill="#0072B2"/>
<circle cx="583" cy="47" r="3" fill="#CC79A7"/>
<circle cx="583" cy="340" r="3" fill="#D55E00"/>
<circle cx="583" cy="307" r="3" fill="#009E73"/>
<circle cx="583" cy="298" r="3" fill="#56B4E9"/>
<circle cx="583" cy="189" r="3" fill="#E69F00"/>
<circle cx="583" cy="339" r="3" fill="#C44E52"/>
<circle cx="583" cy="41" r="3" fill="#000000"/>
<circle cx="656" cy="148" r="3" fill="#0072B2"/>
<circle cx="656" cy="62" r="3" fill="#CC79A7"/>
<circle cx="656" cy="340" r="3" fill="#D55E00"/>
<circle cx="656" cy="307" r="3" fill="#009E73"/>
<circle cx="656" cy="298" r="3" fill="#56B4E9"/>
<circle cx="656" cy="189" r="3" fill="#E69F00"/>
<circle cx="656" cy="340" r="3" fill="#C44E52"/>
<circle cx="656" cy="42" r="3" fill="#000000"/>
<circle cx="730" cy="144" r="3" fill="#0072B2"/>
<circle cx="730" cy="52" r="3" fill="#CC79A7"/>
<circle cx="730" cy="340" r="3" fill="#D55E00"/>
<circle cx="730" cy="308" r="3" fill="#009E73"/>
<circle cx="730" cy="298" r="3" fill="#56B4E9"/>
<circle cx="730" cy="189" r="3" fill="#E69F00"/>
<circle cx="730" cy="340" r="3" fill="#C44E52"/>
<circle cx="730" cy="44" r="3" fill="#000000"/>
<circle cx="90" cy="20" r="4" fill="#0072B2"/>
<text x="98" y="24" text-anchor="start" font-size="12" fill="#0072B2">inte</text>
<circle cx="150" cy="20" r="4" fill="#CC79A7"/>
<text x="158" y="24" text-anchor="start" font-size="12" fill="#CC79A7">comp</text>
<circle cx="215" cy="20" r="4" fill="#D55E00"/>
<text x="223" y="24" text-anchor="start" font-size="12" fill="#D55E00">run</text>
<circle cx="270" cy="20" r="4" fill="#009E73"/>
<text x="278" y="24" text-anchor="start" font-size="12" fill="#009E73">wall</text>
<circle cx="335" cy="20" r="4" fill="#56B4E9"/>
<text x="343" y="24" text-anchor="start" font-size="12" fill="#56B4E9">mem-inte</text>
<circle cx="425" cy="20" r="4" fill="#E69F00"/>
<text x="433" y="24" text-anchor="start" font-size="12" fill="#E69F00">mem-comp</text>
<circle cx="520" cy="20" r="4" fill="#C44E52"/>
<text x="528" y="24" text-anchor="start" font-size="12" fill="#C44E52">mem-run</text>
<circle cx="605" cy="20" r="4" fill="#000000"/>
<text x="613" y="24" text-anchor="start" font-size="12" fill="#000000">mem-total</text>
</svg>
