<svg width="800" height="400" xmlns="http://www.w3.org/2000/svg">
<rect width="800" height="400" fill="white"/>
<line x1="70" y1="40" x2="70" y2="340" stroke="#333" stroke-width="1"/>
<line x1="70" y1="340" x2="780" y2="340" stroke="#333" stroke-width="1"/>
<text x="65" y="344" text-anchor="end" font-size="11" fill="#333">0</text>
<text x="65" y="194" text-anchor="end" font-size="11" fill="#333">51000</text>
<text x="65" y="44" text-anchor="end" font-size="11" fill="#333">102000</text>
<text x="15" y="190" text-anchor="middle" font-size="12" fill="#333" transform="rotate(-90 15 190)">ms</text>
<polyline points="70,46 148,47 227,44 306,48 385,46 464,44 543,46 622,44 701,105 780,105" fill="none" stroke="#0072B2" stroke-width="2"/>
<polyline points="70,49 148,46 227,45 306,46 385,45 464,43 543,44 622,44 701,99 780,96" fill="none" stroke="#CC79A7" stroke-width="2"/>
<polyline points="70,335 148,335 227,335 306,335 385,335 464,335 543,335 622,335 701,335 780,335" fill="none" stroke="#D55E00" stroke-width="2"/>
<polyline points="70,299 148,299 227,298 306,298 385,298 464,298 543,298 622,297 701,306 780,306" fill="none" stroke="#009E73" stroke-width="2"/>
<circle cx="70" cy="46" r="3" fill="#0072B2"/>
<circle cx="70" cy="49" r="3" fill="#CC79A7"/>
<circle cx="70" cy="335" r="3" fill="#D55E00"/>
<circle cx="70" cy="299" r="3" fill="#009E73"/>
<circle cx="148" cy="47" r="3" fill="#0072B2"/>
<circle cx="148" cy="46" r="3" fill="#CC79A7"/>
<circle cx="148" cy="335" r="3" fill="#D55E00"/>
<circle cx="148" cy="299" r="3" fill="#009E73"/>
<circle cx="227" cy="44" r="3" fill="#0072B2"/>
<circle cx="227" cy="45" r="3" fill="#CC79A7"/>
<circle cx="227" cy="335" r="3" fill="#D55E00"/>
<circle cx="227" cy="298" r="3" fill="#009E73"/>
<circle cx="306" cy="48" r="3" fill="#0072B2"/>
<circle cx="306" cy="46" r="3" fill="#CC79A7"/>
<circle cx="306" cy="335" r="3" fill="#D55E00"/>
<circle cx="306" cy="298" r="3" fill="#009E73"/>
<circle cx="385" cy="46" r="3" fill="#0072B2"/>
<circle cx="385" cy="45" r="3" fill="#CC79A7"/>
<circle cx="385" cy="335" r="3" fill="#D55E00"/>
<circle cx="385" cy="298" r="3" fill="#009E73"/>
<circle cx="464" cy="44" r="3" fill="#0072B2"/>
<circle cx="464" cy="43" r="3" fill="#CC79A7"/>
<circle cx="464" cy="335" r="3" fill="#D55E00"/>
<circle cx="464" cy="298" r="3" fill="#009E73"/>
<circle cx="543" cy="46" r="3" fill="#0072B2"/>
<circle cx="543" cy="44" r="3" fill="#CC79A7"/>
<circle cx="543" cy="335" r="3" fill="#D55E00"/>
<circle cx="543" cy="298" r="3" fill="#009E73"/>
<circle cx="622" cy="44" r="3" fill="#0072B2"/>
<circle cx="622" cy="44" r="3" fill="#CC79A7"/>
<circle cx="622" cy="335" r="3" fill="#D55E00"/>
<circle cx="622" cy="297" r="3" fill="#009E73"/>
<circle cx="701" cy="105" r="3" fill="#0072B2"/>
<circle cx="701" cy="99" r="3" fill="#CC79A7"/>
<circle cx="701" cy="335" r="3" fill="#D55E00"/>
<circle cx="701" cy="306" r="3" fill="#009E73"/>
<circle cx="780" cy="105" r="3" fill="#0072B2"/>
<circle cx="780" cy="96" r="3" fill="#CC79A7"/>
<circle cx="780" cy="335" r="3" fill="#D55E00"/>
<circle cx="780" cy="306" r="3" fill="#009E73"/>
<circle cx="90" cy="20" r="4" fill="#0072B2"/>
<text x="98" y="24" text-anchor="start" font-size="12" fill="#0072B2">interpreted</text>
<circle cx="190" cy="20" r="4" fill="#CC79A7"/>
<text x="198" y="24" text-anchor="start" font-size="12" fill="#CC79A7">compiled</text>
<circle cx="275" cy="20" r="4" fill="#D55E00"/>
<text x="283" y="24" text-anchor="start" font-size="12" fill="#D55E00">executed</text>
<circle cx="355" cy="20" r="4" fill="#009E73"/>
<text x="363" y="24" text-anchor="start" font-size="12" fill="#009E73">wall</text>
</svg>
