<svg width="800" height="400" xmlns="http://www.w3.org/2000/svg">
<rect width="800" height="400" fill="white"/>
<line x1="70" y1="40" x2="70" y2="340" stroke="#333" stroke-width="1"/>
<line x1="70" y1="340" x2="730" y2="340" stroke="#333" stroke-width="1"/>
<line x1="730" y1="40" x2="730" y2="340" stroke="#333" stroke-width="1"/>
<text x="65" y="344" text-anchor="end" font-size="11" fill="#333">0</text>
<text x="65" y="194" text-anchor="end" font-size="11" fill="#333">305500</text>
<text x="65" y="44" text-anchor="end" font-size="11" fill="#333">611000</text>
<text x="15" y="190" text-anchor="middle" font-size="12" fill="#333" transform="rotate(-90 15 190)">ms</text>
<text x="735" y="344" text-anchor="start" font-size="11" fill="#333">0</text>
<text x="735" y="194" text-anchor="start" font-size="11" fill="#333">10989000000</text>
<text x="735" y="44" text-anchor="start" font-size="11" fill="#333">21978000000</text>
<text x="785" y="190" text-anchor="middle" font-size="12" fill="#333" transform="rotate(90 785 190)">bytes</text>
<polyline points="70,41 143,92 216,86 290,175 363,171 436,173 510,172 583,170 656,171 730,169" fill="none" stroke="#0072B2" stroke-width="2"/>
<polyline points="70,71 143,80 216,72 290,154 363,151 436,150 510,150 583,148 656,151 730,148" fill="none" stroke="#CC79A7" stroke-width="2"/>
<polyline points="70,340 143,340 216,340 290,340 363,340 436,340 510,340 583,340 656,340 730,340" fill="none" stroke="#D55E00" stroke-width="2"/>
<polyline points="70,296 143,299 216,299 290,312 363,311 436,312 510,311 583,311 656,311 730,311" fill="none" stroke="#009E73" stroke-width="2"/>
<polyline points="70,300 143,300 216,300 290,302 363,301 436,301 510,301 583,301 656,301 730,301" fill="none" stroke="#56B4E9" stroke-width="2"/>
<polyline points="70,190 143,191 216,191 290,194 363,194 436,194 510,194 583,194 656,194 730,193" fill="none" stroke="#E69F00" stroke-width="2"/>
<polyline points="70,332 143,334 216,334 290,338 363,336 436,338 510,338 583,334 656,336 730,337" fill="none" stroke="#C44E52" stroke-width="2"/>
<polyline points="70,41 143,42 216,43 290,57 363,54 436,57 510,56 583,52 656,54 730,55" fill="none" stroke="#000000" stroke-width="2"/>
<circle cx="70" cy="41" r="3" fill="#0072B2"/>
<circle cx="70" cy="71" r="3" fill="#CC79A7"/>
<circle cx="70" cy="340" r="3" fill="#D55E00"/>
<circle cx="70" cy="296" r="3" fill="#009E73"/>
<circle cx="70" cy="300" r="3" fill="#56B4E9"/>
<circle cx="70" cy="190" r="3" fill="#E69F00"/>
<circle cx="70" cy="332" r="3" fill="#C44E52"/>
<circle cx="70" cy="41" r="3" fill="#000000"/>
<circle cx="143" cy="92" r="3" fill="#0072B2"/>
<circle cx="143" cy="80" r="3" fill="#CC79A7"/>
<circle cx="143" cy="340" r="3" fill="#D55E00"/>
<circle cx="143" cy="299" r="3" fill="#009E73"/>
<circle cx="143" cy="300" r="3" fill="#56B4E9"/>
<circle cx="143" cy="191" r="3" fill="#E69F00"/>
<circle cx="143" cy="334" r="3" fill="#C44E52"/>
<circle cx="143" cy="42" r="3" fill="#000000"/>
<circle cx="216" cy="86" r="3" fill="#0072B2"/>
<circle cx="216" cy="72" r="3" fill="#CC79A7"/>
<circle cx="216" cy="340" r="3" fill="#D55E00"/>
<circle cx="216" cy="299" r="3" fill="#009E73"/>
<circle cx="216" cy="300" r="3" fill="#56B4E9"/>
<circle cx="216" cy="191" r="3" fill="#E69F00"/>
<circle cx="216" cy="334" r="3" fill="#C44E52"/>
<circle cx="216" cy="43" r="3" fill="#000000"/>
<circle cx="290" cy="175" r="3" fill="#0072B2"/>
<circle cx="290" cy="154" r="3" fill="#CC79A7"/>
<circle cx="290" cy="340" r="3" fill="#D55E00"/>
<circle cx="290" cy="312" r="3" fill="#009E73"/>
<circle cx="290" cy="302" r="3" fill="#56B4E9"/>
<circle cx="290" cy="194" r="3" fill="#E69F00"/>
<circle cx="290" cy="338" r="3" fill="#C44E52"/>
<circle cx="290" cy="57" r="3" fill="#000000"/>
<circle cx="363" cy="171" r="3" fill="#0072B2"/>
<circle cx="363" cy="151" r="3" fill="#CC79A7"/>
<circle cx="363" cy="340" r="3" fill="#D55E00"/>
<circle cx="363" cy="311" r="3" fill="#009E73"/>
<circle cx="363" cy="301" r="3" fill="#56B4E9"/>
<circle cx="363" cy="194" r="3" fill="#E69F00"/>
<circle cx="363" cy="336" r="3" fill="#C44E52"/>
<circle cx="363" cy="54" r="3" fill="#000000"/>
<circle cx="436" cy="173" r="3" fill="#0072B2"/>
<circle cx="436" cy="150" r="3" fill="#CC79A7"/>
<circle cx="436" cy="340" r="3" fill="#D55E00"/>
<circle cx="436" cy="312" r="3" fill="#009E73"/>
<circle cx="436" cy="301" r="3" fill="#56B4E9"/>
<circle cx="436" cy="194" r="3" fill="#E69F00"/>
<circle cx="436" cy="338" r="3" fill="#C44E52"/>
<circle cx="436" cy="57" r="3" fill="#000000"/>
<circle cx="510" cy="172" r="3" fill="#0072B2"/>
<circle cx="510" cy="150" r="3" fill="#CC79A7"/>
<circle cx="510" cy="340" r="3" fill="#D55E00"/>
<circle cx="510" cy="311" r="3" fill="#009E73"/>
<circle cx="510" cy="301" r="3" fill="#56B4E9"/>
<circle cx="510" cy="194" r="3" fill="#E69F00"/>
<circle cx="510" cy="338" r="3" fill="#C44E52"/>
<circle cx="510" cy="56" r="3" fill="#000000"/>
<circle cx="583" cy="170" r="3" fill="#0072B2"/>
<circle cx="583" cy="148" r="3" fill="#CC79A7"/>
<circle cx="583" cy="340" r="3" fill="#D55E00"/>
<circle cx="583" cy="311" r="3" fill="#009E73"/>
<circle cx="583" cy="301" r="3" fill="#56B4E9"/>
<circle cx="583" cy="194" r="3" fill="#E69F00"/>
<circle cx="583" cy="334" r="3" fill="#C44E52"/>
<circle cx="583" cy="52" r="3" fill="#000000"/>
<circle cx="656" cy="171" r="3" fill="#0072B2"/>
<circle cx="656" cy="151" r="3" fill="#CC79A7"/>
<circle cx="656" cy="340" r="3" fill="#D55E00"/>
<circle cx="656" cy="311" r="3" fill="#009E73"/>
<circle cx="656" cy="301" r="3" fill="#56B4E9"/>
<circle cx="656" cy="194" r="3" fill="#E69F00"/>
<circle cx="656" cy="336" r="3" fill="#C44E52"/>
<circle cx="656" cy="54" r="3" fill="#000000"/>
<circle cx="730" cy="169" r="3" fill="#0072B2"/>
<circle cx="730" cy="148" r="3" fill="#CC79A7"/>
<circle cx="730" cy="340" r="3" fill="#D55E00"/>
<circle cx="730" cy="311" r="3" fill="#009E73"/>
<circle cx="730" cy="301" r="3" fill="#56B4E9"/>
<circle cx="730" cy="193" r="3" fill="#E69F00"/>
<circle cx="730" cy="337" r="3" fill="#C44E52"/>
<circle cx="730" cy="55" r="3" fill="#000000"/>
<circle cx="90" cy="20" r="4" fill="#0072B2"/>
<text x="98" y="24" text-anchor="start" font-size="12" fill="#0072B2">inte</text>
<circle cx="150" cy="20" r="4" fill="#CC79A7"/>
<text x="158" y="24" text-anchor="start" font-size="12" fill="#CC79A7">comp</text>
<circle cx="215" cy="20" r="4" fill="#D55E00"/>
<text x="223" y="24" text-anchor="start" font-size="12" fill="#D55E00">run</text>
<circle cx="270" cy="20" r="4" fill="#009E73"/>
<text x="278" y="24" text-anchor="start" font-size="12" fill="#009E73">wall</text>
<circle cx="335" cy="20" r="4" fill="#56B4E9"/>
<text x="343" y="24" text-anchor="start" font-size="12" fill="#56B4E9">mem-inte</text>
<circle cx="425" cy="20" r="4" fill="#E69F00"/>
<text x="433" y="24" text-anchor="start" font-size="12" fill="#E69F00">mem-comp</text>
<circle cx="520" cy="20" r="4" fill="#C44E52"/>
<text x="528" y="24" text-anchor="start" font-size="12" fill="#C44E52">mem-run</text>
<circle cx="605" cy="20" r="4" fill="#000000"/>
<text x="613" y="24" text-anchor="start" font-size="12" fill="#000000">mem-total</text>
</svg>
