<svg width="800" height="400" xmlns="http://www.w3.org/2000/svg">
<rect width="800" height="400" fill="white"/>
<line x1="70" y1="40" x2="70" y2="340" stroke="#333" stroke-width="1"/>
<line x1="70" y1="340" x2="730" y2="340" stroke="#333" stroke-width="1"/>
<line x1="730" y1="40" x2="730" y2="340" stroke="#333" stroke-width="1"/>
<text x="65" y="344" text-anchor="end" font-size="11" fill="#333">0</text>
<text x="65" y="194" text-anchor="end" font-size="11" fill="#333">127000</text>
<text x="65" y="44" text-anchor="end" font-size="11" fill="#333">254000</text>
<text x="15" y="190" text-anchor="middle" font-size="12" fill="#333" transform="rotate(-90 15 190)">ms</text>
<text x="735" y="344" text-anchor="start" font-size="11" fill="#333">0</text>
<text x="735" y="194" text-anchor="start" font-size="11" fill="#333">8588000000</text>
<text x="735" y="44" text-anchor="start" font-size="11" fill="#333">17176000000</text>
<text x="785" y="190" text-anchor="middle" font-size="12" fill="#333" transform="rotate(90 785 190)">bytes</text>
<polyline points="70,62 143,66 216,60 290,63 363,59 436,60 510,61 583,60 656,63 730,41" fill="none" stroke="#0072B2" stroke-width="2"/>
<polyline points="70,91 143,94 216,93 290,93 363,90 436,89 510,91 583,88 656,93 730,72" fill="none" stroke="#CC79A7" stroke-width="2"/>
<polyline points="70,340 143,340 216,340 290,340 363,340 436,340 510,340 583,340 656,340 730,340" fill="none" stroke="#D55E00" stroke-width="2"/>
<polyline points="70,289 143,289 216,288 290,289 363,288 436,288 510,289 583,288 656,289 730,285" fill="none" stroke="#009E73" stroke-width="2"/>
<polyline points="70,286 143,286 216,286 290,286 363,286 436,286 510,286 583,286 656,286 730,286" fill="none" stroke="#56B4E9" stroke-width="2"/>
<polyline points="70,219 143,219 216,219 290,219 363,219 436,219 510,219 583,219 656,219 730,219" fill="none" stroke="#E69F00" stroke-width="2"/>
<polyline points="70,339 143,340 216,340 290,339 363,340 436,340 510,340 583,339 656,340 730,340" fill="none" stroke="#C44E52" stroke-width="2"/>
<polyline points="70,42 143,41 216,42 290,43 363,44 436,44 510,43 583,43 656,44 730,41" fill="none" stroke="#000000" stroke-width="2"/>
<circle cx="70" cy="62" r="3" fill="#0072B2"/>
<circle cx="70" cy="91" r="3" fill="#CC79A7"/>
<circle cx="70" cy="340" r="3" fill="#D55E00"/>
<circle cx="70" cy="289" r="3" fill="#009E73"/>
<circle cx="70" cy="286" r="3" fill="#56B4E9"/>
<circle cx="70" cy="219" r="3" fill="#E69F00"/>
<circle cx="70" cy="339" r="3" fill="#C44E52"/>
<circle cx="70" cy="42" r="3" fill="#000000"/>
<circle cx="143" cy="66" r="3" fill="#0072B2"/>
<circle cx="143" cy="94" r="3" fill="#CC79A7"/>
<circle cx="143" cy="340" r="3" fill="#D55E00"/>
<circle cx="143" cy="289" r="3" fill="#009E73"/>
<circle cx="143" cy="286" r="3" fill="#56B4E9"/>
<circle cx="143" cy="219" r="3" fill="#E69F00"/>
<circle cx="143" cy="340" r="3" fill="#C44E52"/>
<circle cx="143" cy="41" r="3" fill="#000000"/>
<circle cx="216" cy="60" r="3" fill="#0072B2"/>
<circle cx="216" cy="93" r="3" fill="#CC79A7"/>
<circle cx="216" cy="340" r="3" fill="#D55E00"/>
<circle cx="216" cy="288" r="3" fill="#009E73"/>
<circle cx="216" cy="286" r="3" fill="#56B4E9"/>
<circle cx="216" cy="219" r="3" fill="#E69F00"/>
<circle cx="216" cy="340" r="3" fill="#C44E52"/>
<circle cx="216" cy="42" r="3" fill="#000000"/>
<circle cx="290" cy="63" r="3" fill="#0072B2"/>
<circle cx="290" cy="93" r="3" fill="#CC79A7"/>
<circle cx="290" cy="340" r="3" fill="#D55E00"/>
<circle cx="290" cy="289" r="3" fill="#009E73"/>
<circle cx="290" cy="286" r="3" fill="#56B4E9"/>
<circle cx="290" cy="219" r="3" fill="#E69F00"/>
<circle cx="290" cy="339" r="3" fill="#C44E52"/>
<circle cx="290" cy="43" r="3" fill="#000000"/>
<circle cx="363" cy="59" r="3" fill="#0072B2"/>
<circle cx="363" cy="90" r="3" fill="#CC79A7"/>
<circle cx="363" cy="340" r="3" fill="#D55E00"/>
<circle cx="363" cy="288" r="3" fill="#009E73"/>
<circle cx="363" cy="286" r="3" fill="#56B4E9"/>
<circle cx="363" cy="219" r="3" fill="#E69F00"/>
<circle cx="363" cy="340" r="3" fill="#C44E52"/>
<circle cx="363" cy="44" r="3" fill="#000000"/>
<circle cx="436" cy="60" r="3" fill="#0072B2"/>
<circle cx="436" cy="89" r="3" fill="#CC79A7"/>
<circle cx="436" cy="340" r="3" fill="#D55E00"/>
<circle cx="436" cy="288" r="3" fill="#009E73"/>
<circle cx="436" cy="286" r="3" fill="#56B4E9"/>
<circle cx="436" cy="219" r="3" fill="#E69F00"/>
<circle cx="436" cy="340" r="3" fill="#C44E52"/>
<circle cx="436" cy="44" r="3" fill="#000000"/>
<circle cx="510" cy="61" r="3" fill="#0072B2"/>
<circle cx="510" cy="91" r="3" fill="#CC79A7"/>
<circle cx="510" cy="340" r="3" fill="#D55E00"/>
<circle cx="510" cy="289" r="3" fill="#009E73"/>
<circle cx="510" cy="286" r="3" fill="#56B4E9"/>
<circle cx="510" cy="219" r="3" fill="#E69F00"/>
<circle cx="510" cy="340" r="3" fill="#C44E52"/>
<circle cx="510" cy="43" r="3" fill="#000000"/>
<circle cx="583" cy="60" r="3" fill="#0072B2"/>
<circle cx="583" cy="88" r="3" fill="#CC79A7"/>
<circle cx="583" cy="340" r="3" fill="#D55E00"/>
<circle cx="583" cy="288" r="3" fill="#009E73"/>
<circle cx="583" cy="286" r="3" fill="#56B4E9"/>
<circle cx="583" cy="219" r="3" fill="#E69F00"/>
<circle cx="583" cy="339" r="3" fill="#C44E52"/>
<circle cx="583" cy="43" r="3" fill="#000000"/>
<circle cx="656" cy="63" r="3" fill="#0072B2"/>
<circle cx="656" cy="93" r="3" fill="#CC79A7"/>
<circle cx="656" cy="340" r="3" fill="#D55E00"/>
<circle cx="656" cy="289" r="3" fill="#009E73"/>
<circle cx="656" cy="286" r="3" fill="#56B4E9"/>
<circle cx="656" cy="219" r="3" fill="#E69F00"/>
<circle cx="656" cy="340" r="3" fill="#C44E52"/>
<circle cx="656" cy="44" r="3" fill="#000000"/>
<circle cx="730" cy="41" r="3" fill="#0072B2"/>
<circle cx="730" cy="72" r="3" fill="#CC79A7"/>
<circle cx="730" cy="340" r="3" fill="#D55E00"/>
<circle cx="730" cy="285" r="3" fill="#009E73"/>
<circle cx="730" cy="286" r="3" fill="#56B4E9"/>
<circle cx="730" cy="219" r="3" fill="#E69F00"/>
<circle cx="730" cy="340" r="3" fill="#C44E52"/>
<circle cx="730" cy="41" r="3" fill="#000000"/>
<circle cx="90" cy="20" r="4" fill="#0072B2"/>
<text x="98" y="24" text-anchor="start" font-size="12" fill="#0072B2">inte</text>
<circle cx="150" cy="20" r="4" fill="#CC79A7"/>
<text x="158" y="24" text-anchor="start" font-size="12" fill="#CC79A7">comp</text>
<circle cx="215" cy="20" r="4" fill="#D55E00"/>
<text x="223" y="24" text-anchor="start" font-size="12" fill="#D55E00">run</text>
<circle cx="270" cy="20" r="4" fill="#009E73"/>
<text x="278" y="24" text-anchor="start" font-size="12" fill="#009E73">wall</text>
<circle cx="335" cy="20" r="4" fill="#56B4E9"/>
<text x="343" y="24" text-anchor="start" font-size="12" fill="#56B4E9">mem-inte</text>
<circle cx="425" cy="20" r="4" fill="#E69F00"/>
<text x="433" y="24" text-anchor="start" font-size="12" fill="#E69F00">mem-comp</text>
<circle cx="520" cy="20" r="4" fill="#C44E52"/>
<text x="528" y="24" text-anchor="start" font-size="12" fill="#C44E52">mem-run</text>
<circle cx="605" cy="20" r="4" fill="#000000"/>
<text x="613" y="24" text-anchor="start" font-size="12" fill="#000000">mem-total</text>
</svg>
