<svg width="800" height="400" xmlns="http://www.w3.org/2000/svg">
<rect width="800" height="400" fill="white"/>
<line x1="70" y1="40" x2="70" y2="340" stroke="#333" stroke-width="1"/>
<line x1="70" y1="340" x2="730" y2="340" stroke="#333" stroke-width="1"/>
<line x1="730" y1="40" x2="730" y2="340" stroke="#333" stroke-width="1"/>
<text x="65" y="344" text-anchor="end" font-size="11" fill="#333">0</text>
<text x="65" y="194" text-anchor="end" font-size="11" fill="#333">129000</text>
<text x="65" y="44" text-anchor="end" font-size="11" fill="#333">258000</text>
<text x="15" y="190" text-anchor="middle" font-size="12" fill="#333" transform="rotate(-90 15 190)">ms</text>
<text x="735" y="344" text-anchor="start" font-size="11" fill="#333">0</text>
<text x="735" y="194" text-anchor="start" font-size="11" fill="#333">5795000000</text>
<text x="735" y="44" text-anchor="start" font-size="11" fill="#333">11590000000</text>
<text x="785" y="190" text-anchor="middle" font-size="12" fill="#333" transform="rotate(90 785 190)">bytes</text>
<polyline points="70,67 143,207 216,213 290,205 363,195 436,196 510,190 583,191 656,201 730,200" fill="none" stroke="#0072B2" stroke-width="2"/>
<polyline points="70,41 143,195 216,201 290,191 363,181 436,182 510,176 583,178 656,187 730,186" fill="none" stroke="#CC79A7" stroke-width="2"/>
<polyline points="70,340 143,340 216,340 290,340 363,340 436,340 510,340 583,340 656,340 730,340" fill="none" stroke="#D55E00" stroke-width="2"/>
<polyline points="70,89 143,213 216,220 290,212 363,202 436,202 510,198 583,201 656,208 730,207" fill="none" stroke="#009E73" stroke-width="2"/>
<polyline points="70,245 143,245 216,245 290,245 363,245 436,245 510,245 583,245 656,245 730,245" fill="none" stroke="#56B4E9" stroke-width="2"/>
<polyline points="70,188 143,199 216,196 290,193 363,195 436,196 510,197 583,196 656,199 730,197" fill="none" stroke="#E69F00" stroke-width="2"/>
<polyline points="70,340 143,340 216,340 290,340 363,340 436,340 510,340 583,340 656,340 730,340" fill="none" stroke="#C44E52" stroke-width="2"/>
<polyline points="70,41 143,51 216,48 290,46 363,49 436,48 510,50 583,50 656,53 730,50" fill="none" stroke="#000000" stroke-width="2"/>
<circle cx="70" cy="67" r="3" fill="#0072B2"/>
<circle cx="70" cy="41" r="3" fill="#CC79A7"/>
<circle cx="70" cy="340" r="3" fill="#D55E00"/>
<circle cx="70" cy="89" r="3" fill="#009E73"/>
<circle cx="70" cy="245" r="3" fill="#56B4E9"/>
<circle cx="70" cy="188" r="3" fill="#E69F00"/>
<circle cx="70" cy="340" r="3" fill="#C44E52"/>
<circle cx="70" cy="41" r="3" fill="#000000"/>
<circle cx="143" cy="207" r="3" fill="#0072B2"/>
<circle cx="143" cy="195" r="3" fill="#CC79A7"/>
<circle cx="143" cy="340" r="3" fill="#D55E00"/>
<circle cx="143" cy="213" r="3" fill="#009E73"/>
<circle cx="143" cy="245" r="3" fill="#56B4E9"/>
<circle cx="143" cy="199" r="3" fill="#E69F00"/>
<circle cx="143" cy="340" r="3" fill="#C44E52"/>
<circle cx="143" cy="51" r="3" fill="#000000"/>
<circle cx="216" cy="213" r="3" fill="#0072B2"/>
<circle cx="216" cy="201" r="3" fill="#CC79A7"/>
<circle cx="216" cy="340" r="3" fill="#D55E00"/>
<circle cx="216" cy="220" r="3" fill="#009E73"/>
<circle cx="216" cy="245" r="3" fill="#56B4E9"/>
<circle cx="216" cy="196" r="3" fill="#E69F00"/>
<circle cx="216" cy="340" r="3" fill="#C44E52"/>
<circle cx="216" cy="48" r="3" fill="#000000"/>
<circle cx="290" cy="205" r="3" fill="#0072B2"/>
<circle cx="290" cy="191" r="3" fill="#CC79A7"/>
<circle cx="290" cy="340" r="3" fill="#D55E00"/>
<circle cx="290" cy="212" r="3" fill="#009E73"/>
<circle cx="290" cy="245" r="3" fill="#56B4E9"/>
<circle cx="290" cy="193" r="3" fill="#E69F00"/>
<circle cx="290" cy="340" r="3" fill="#C44E52"/>
<circle cx="290" cy="46" r="3" fill="#000000"/>
<circle cx="363" cy="195" r="3" fill="#0072B2"/>
<circle cx="363" cy="181" r="3" fill="#CC79A7"/>
<circle cx="363" cy="340" r="3" fill="#D55E00"/>
<circle cx="363" cy="202" r="3" fill="#009E73"/>
<circle cx="363" cy="245" r="3" fill="#56B4E9"/>
<circle cx="363" cy="195" r="3" fill="#E69F00"/>
<circle cx="363" cy="340" r="3" fill="#C44E52"/>
<circle cx="363" cy="49" r="3" fill="#000000"/>
<circle cx="436" cy="196" r="3" fill="#0072B2"/>
<circle cx="436" cy="182" r="3" fill="#CC79A7"/>
<circle cx="436" cy="340" r="3" fill="#D55E00"/>
<circle cx="436" cy="202" r="3" fill="#009E73"/>
<circle cx="436" cy="245" r="3" fill="#56B4E9"/>
<circle cx="436" cy="196" r="3" fill="#E69F00"/>
<circle cx="436" cy="340" r="3" fill="#C44E52"/>
<circle cx="436" cy="48" r="3" fill="#000000"/>
<circle cx="510" cy="190" r="3" fill="#0072B2"/>
<circle cx="510" cy="176" r="3" fill="#CC79A7"/>
<circle cx="510" cy="340" r="3" fill="#D55E00"/>
<circle cx="510" cy="198" r="3" fill="#009E73"/>
<circle cx="510" cy="245" r="3" fill="#56B4E9"/>
<circle cx="510" cy="197" r="3" fill="#E69F00"/>
<circle cx="510" cy="340" r="3" fill="#C44E52"/>
<circle cx="510" cy="50" r="3" fill="#000000"/>
<circle cx="583" cy="191" r="3" fill="#0072B2"/>
<circle cx="583" cy="178" r="3" fill="#CC79A7"/>
<circle cx="583" cy="340" r="3" fill="#D55E00"/>
<circle cx="583" cy="201" r="3" fill="#009E73"/>
<circle cx="583" cy="245" r="3" fill="#56B4E9"/>
<circle cx="583" cy="196" r="3" fill="#E69F00"/>
<circle cx="583" cy="340" r="3" fill="#C44E52"/>
<circle cx="583" cy="50" r="3" fill="#000000"/>
<circle cx="656" cy="201" r="3" fill="#0072B2"/>
<circle cx="656" cy="187" r="3" fill="#CC79A7"/>
<circle cx="656" cy="340" r="3" fill="#D55E00"/>
<circle cx="656" cy="208" r="3" fill="#009E73"/>
<circle cx="656" cy="245" r="3" fill="#56B4E9"/>
<circle cx="656" cy="199" r="3" fill="#E69F00"/>
<circle cx="656" cy="340" r="3" fill="#C44E52"/>
<circle cx="656" cy="53" r="3" fill="#000000"/>
<circle cx="730" cy="200" r="3" fill="#0072B2"/>
<circle cx="730" cy="186" r="3" fill="#CC79A7"/>
<circle cx="730" cy="340" r="3" fill="#D55E00"/>
<circle cx="730" cy="207" r="3" fill="#009E73"/>
<circle cx="730" cy="245" r="3" fill="#56B4E9"/>
<circle cx="730" cy="197" r="3" fill="#E69F00"/>
<circle cx="730" cy="340" r="3" fill="#C44E52"/>
<circle cx="730" cy="50" r="3" fill="#000000"/>
<circle cx="90" cy="20" r="4" fill="#0072B2"/>
<text x="98" y="24" text-anchor="start" font-size="12" fill="#0072B2">inte</text>
<circle cx="150" cy="20" r="4" fill="#CC79A7"/>
<text x="158" y="24" text-anchor="start" font-size="12" fill="#CC79A7">comp</text>
<circle cx="215" cy="20" r="4" fill="#D55E00"/>
<text x="223" y="24" text-anchor="start" font-size="12" fill="#D55E00">run</text>
<circle cx="270" cy="20" r="4" fill="#009E73"/>
<text x="278" y="24" text-anchor="start" font-size="12" fill="#009E73">wall</text>
<circle cx="335" cy="20" r="4" fill="#56B4E9"/>
<text x="343" y="24" text-anchor="start" font-size="12" fill="#56B4E9">mem-inte</text>
<circle cx="425" cy="20" r="4" fill="#E69F00"/>
<text x="433" y="24" text-anchor="start" font-size="12" fill="#E69F00">mem-comp</text>
<circle cx="520" cy="20" r="4" fill="#C44E52"/>
<text x="528" y="24" text-anchor="start" font-size="12" fill="#C44E52">mem-run</text>
<circle cx="605" cy="20" r="4" fill="#000000"/>
<text x="613" y="24" text-anchor="start" font-size="12" fill="#000000">mem-total</text>
</svg>
