<svg width="800" height="400" xmlns="http://www.w3.org/2000/svg">
<rect width="800" height="400" fill="white"/>
<line x1="70" y1="40" x2="70" y2="340" stroke="#333" stroke-width="1"/>
<line x1="70" y1="340" x2="730" y2="340" stroke="#333" stroke-width="1"/>
<line x1="730" y1="40" x2="730" y2="340" stroke="#333" stroke-width="1"/>
<text x="65" y="344" text-anchor="end" font-size="11" fill="#333">0</text>
<text x="65" y="194" text-anchor="end" font-size="11" fill="#333">584000</text>
<text x="65" y="44" text-anchor="end" font-size="11" fill="#333">1168000</text>
<text x="15" y="190" text-anchor="middle" font-size="12" fill="#333" transform="rotate(-90 15 190)">ms</text>
<text x="735" y="344" text-anchor="start" font-size="11" fill="#333">0</text>
<text x="735" y="194" text-anchor="start" font-size="11" fill="#333">69434500000</text>
<text x="735" y="44" text-anchor="start" font-size="11" fill="#333">138869000000</text>
<text x="785" y="190" text-anchor="middle" font-size="12" fill="#333" transform="rotate(90 785 190)">bytes</text>
<polyline points="70,58 143,54 216,86 290,90 363,89 436,118 510,135 583,136 656,115 730,116" fill="none" stroke="#0072B2" stroke-width="2"/>
<polyline points="70,41 143,44 216,79 290,78 363,75 436,109 510,109 583,109 656,118 730,118" fill="none" stroke="#CC79A7" stroke-width="2"/>
<polyline points="70,340 143,340 216,340 290,340 363,340 436,340 510,340 583,340 656,340 730,340" fill="none" stroke="#D55E00" stroke-width="2"/>
<polyline points="70,303 143,303 216,306 290,307 363,307 436,311 510,312 583,312 656,307 730,307" fill="none" stroke="#009E73" stroke-width="2"/>
<polyline points="70,194 143,192 216,195 290,196 363,195 436,197 510,199 583,198 656,199 730,196" fill="none" stroke="#984EA3" stroke-width="2"/>
<polyline points="70,48 143,49 216,64 290,67 363,66 436,81 510,77 583,76 656,69 730,70" fill="none" stroke="#56B4E9" stroke-width="2"/>
<polyline points="70,41 143,41 216,57 290,59 363,58 436,74 510,69 583,69 656,69 730,72" fill="none" stroke="#E69F00" stroke-width="2"/>
<polyline points="70,340 143,340 216,340 290,340 363,339 436,340 510,340 583,340 656,340 730,340" fill="none" stroke="#C44E52" stroke-width="2"/>
<polyline points="70,298 143,297 216,298 290,298 363,299 436,299 510,299 583,298 656,298 730,298" fill="none" stroke="#8C564B" stroke-width="2"/>
<circle cx="70" cy="58" r="3" fill="#0072B2"/>
<circle cx="70" cy="41" r="3" fill="#CC79A7"/>
<circle cx="70" cy="340" r="3" fill="#D55E00"/>
<circle cx="70" cy="303" r="3" fill="#009E73"/>
<circle cx="70" cy="194" r="3" fill="#984EA3"/>
<circle cx="70" cy="48" r="3" fill="#56B4E9"/>
<circle cx="70" cy="41" r="3" fill="#E69F00"/>
<circle cx="70" cy="340" r="3" fill="#C44E52"/>
<circle cx="70" cy="298" r="3" fill="#8C564B"/>
<circle cx="143" cy="54" r="3" fill="#0072B2"/>
<circle cx="143" cy="44" r="3" fill="#CC79A7"/>
<circle cx="143" cy="340" r="3" fill="#D55E00"/>
<circle cx="143" cy="303" r="3" fill="#009E73"/>
<circle cx="143" cy="192" r="3" fill="#984EA3"/>
<circle cx="143" cy="49" r="3" fill="#56B4E9"/>
<circle cx="143" cy="41" r="3" fill="#E69F00"/>
<circle cx="143" cy="340" r="3" fill="#C44E52"/>
<circle cx="143" cy="297" r="3" fill="#8C564B"/>
<circle cx="216" cy="86" r="3" fill="#0072B2"/>
<circle cx="216" cy="79" r="3" fill="#CC79A7"/>
<circle cx="216" cy="340" r="3" fill="#D55E00"/>
<circle cx="216" cy="306" r="3" fill="#009E73"/>
<circle cx="216" cy="195" r="3" fill="#984EA3"/>
<circle cx="216" cy="64" r="3" fill="#56B4E9"/>
<circle cx="216" cy="57" r="3" fill="#E69F00"/>
<circle cx="216" cy="340" r="3" fill="#C44E52"/>
<circle cx="216" cy="298" r="3" fill="#8C564B"/>
<circle cx="290" cy="90" r="3" fill="#0072B2"/>
<circle cx="290" cy="78" r="3" fill="#CC79A7"/>
<circle cx="290" cy="340" r="3" fill="#D55E00"/>
<circle cx="290" cy="307" r="3" fill="#009E73"/>
<circle cx="290" cy="196" r="3" fill="#984EA3"/>
<circle cx="290" cy="67" r="3" fill="#56B4E9"/>
<circle cx="290" cy="59" r="3" fill="#E69F00"/>
<circle cx="290" cy="340" r="3" fill="#C44E52"/>
<circle cx="290" cy="298" r="3" fill="#8C564B"/>
<circle cx="363" cy="89" r="3" fill="#0072B2"/>
<circle cx="363" cy="75" r="3" fill="#CC79A7"/>
<circle cx="363" cy="340" r="3" fill="#D55E00"/>
<circle cx="363" cy="307" r="3" fill="#009E73"/>
<circle cx="363" cy="195" r="3" fill="#984EA3"/>
<circle cx="363" cy="66" r="3" fill="#56B4E9"/>
<circle cx="363" cy="58" r="3" fill="#E69F00"/>
<circle cx="363" cy="339" r="3" fill="#C44E52"/>
<circle cx="363" cy="299" r="3" fill="#8C564B"/>
<circle cx="436" cy="118" r="3" fill="#0072B2"/>
<circle cx="436" cy="109" r="3" fill="#CC79A7"/>
<circle cx="436" cy="340" r="3" fill="#D55E00"/>
<circle cx="436" cy="311" r="3" fill="#009E73"/>
<circle cx="436" cy="197" r="3" fill="#984EA3"/>
<circle cx="436" cy="81" r="3" fill="#56B4E9"/>
<circle cx="436" cy="74" r="3" fill="#E69F00"/>
<circle cx="436" cy="340" r="3" fill="#C44E52"/>
<circle cx="436" cy="299" r="3" fill="#8C564B"/>
<circle cx="510" cy="135" r="3" fill="#0072B2"/>
<circle cx="510" cy="109" r="3" fill="#CC79A7"/>
<circle cx="510" cy="340" r="3" fill="#D55E00"/>
<circle cx="510" cy="312" r="3" fill="#009E73"/>
<circle cx="510" cy="199" r="3" fill="#984EA3"/>
<circle cx="510" cy="77" r="3" fill="#56B4E9"/>
<circle cx="510" cy="69" r="3" fill="#E69F00"/>
<circle cx="510" cy="340" r="3" fill="#C44E52"/>
<circle cx="510" cy="299" r="3" fill="#8C564B"/>
<circle cx="583" cy="136" r="3" fill="#0072B2"/>
<circle cx="583" cy="109" r="3" fill="#CC79A7"/>
<circle cx="583" cy="340" r="3" fill="#D55E00"/>
<circle cx="583" cy="312" r="3" fill="#009E73"/>
<circle cx="583" cy="198" r="3" fill="#984EA3"/>
<circle cx="583" cy="76" r="3" fill="#56B4E9"/>
<circle cx="583" cy="69" r="3" fill="#E69F00"/>
<circle cx="583" cy="340" r="3" fill="#C44E52"/>
<circle cx="583" cy="298" r="3" fill="#8C564B"/>
<circle cx="656" cy="115" r="3" fill="#0072B2"/>
<circle cx="656" cy="118" r="3" fill="#CC79A7"/>
<circle cx="656" cy="340" r="3" fill="#D55E00"/>
<circle cx="656" cy="307" r="3" fill="#009E73"/>
<circle cx="656" cy="199" r="3" fill="#984EA3"/>
<circle cx="656" cy="69" r="3" fill="#56B4E9"/>
<circle cx="656" cy="69" r="3" fill="#E69F00"/>
<circle cx="656" cy="340" r="3" fill="#C44E52"/>
<circle cx="656" cy="298" r="3" fill="#8C564B"/>
<circle cx="730" cy="116" r="3" fill="#0072B2"/>
<circle cx="730" cy="118" r="3" fill="#CC79A7"/>
<circle cx="730" cy="340" r="3" fill="#D55E00"/>
<circle cx="730" cy="307" r="3" fill="#009E73"/>
<circle cx="730" cy="196" r="3" fill="#984EA3"/>
<circle cx="730" cy="70" r="3" fill="#56B4E9"/>
<circle cx="730" cy="72" r="3" fill="#E69F00"/>
<circle cx="730" cy="340" r="3" fill="#C44E52"/>
<circle cx="730" cy="298" r="3" fill="#8C564B"/>
<circle cx="70" cy="20" r="4" fill="#0072B2"/>
<text x="78" y="24" text-anchor="start" font-size="12" fill="#0072B2">inte</text>
<circle cx="130" cy="20" r="4" fill="#CC79A7"/>
<text x="138" y="24" text-anchor="start" font-size="12" fill="#CC79A7">comp</text>
<circle cx="195" cy="20" r="4" fill="#D55E00"/>
<text x="203" y="24" text-anchor="start" font-size="12" fill="#D55E00">run</text>
<circle cx="250" cy="20" r="4" fill="#009E73"/>
<text x="258" y="24" text-anchor="start" font-size="12" fill="#009E73">wall</text>
<circle cx="315" cy="20" r="4" fill="#984EA3"/>
<text x="323" y="24" text-anchor="start" font-size="12" fill="#984EA3">self</text>
<circle cx="380" cy="20" r="4" fill="#56B4E9"/>
<text x="388" y="24" text-anchor="start" font-size="12" fill="#56B4E9">mem-inte</text>
<circle cx="470" cy="20" r="4" fill="#E69F00"/>
<text x="478" y="24" text-anchor="start" font-size="12" fill="#E69F00">mem-comp</text>
<circle cx="565" cy="20" r="4" fill="#C44E52"/>
<text x="573" y="24" text-anchor="start" font-size="12" fill="#C44E52">mem-run</text>
<circle cx="650" cy="20" r="4" fill="#8C564B"/>
<text x="658" y="24" text-anchor="start" font-size="12" fill="#8C564B">self-mem</text>
</svg>
