<svg width="800" height="400" xmlns="http://www.w3.org/2000/svg">
<rect width="800" height="400" fill="white"/>
<line x1="70" y1="40" x2="70" y2="340" stroke="#333" stroke-width="1"/>
<line x1="70" y1="340" x2="730" y2="340" stroke="#333" stroke-width="1"/>
<line x1="730" y1="40" x2="730" y2="340" stroke="#333" stroke-width="1"/>
<text x="65" y="344" text-anchor="end" font-size="11" fill="#333">0</text>
<text x="65" y="194" text-anchor="end" font-size="11" fill="#333">374500</text>
<text x="65" y="44" text-anchor="end" font-size="11" fill="#333">749000</text>
<text x="15" y="190" text-anchor="middle" font-size="12" fill="#333" transform="rotate(-90 15 190)">ms</text>
<text x="735" y="344" text-anchor="start" font-size="11" fill="#333">0</text>
<text x="735" y="194" text-anchor="start" font-size="11" fill="#333">10685000000</text>
<text x="735" y="44" text-anchor="start" font-size="11" fill="#333">21370000000</text>
<text x="785" y="190" text-anchor="middle" font-size="12" fill="#333" transform="rotate(90 785 190)">bytes</text>
<polyline points="70,93 143,93 216,92 290,93 363,61 436,57 510,55 583,57 656,58 730,41" fill="none" stroke="#0072B2" stroke-width="2"/>
<polyline points="70,114 143,113 216,114 290,114 363,89 436,85 510,84 583,89 656,91 730,84" fill="none" stroke="#CC79A7" stroke-width="2"/>
<polyline points="70,340 143,340 216,340 290,340 363,340 436,340 510,340 583,340 656,340 730,340" fill="none" stroke="#D55E00" stroke-width="2"/>
<polyline points="70,308 143,308 216,308 290,308 363,300 436,300 510,300 583,300 656,300 730,299" fill="none" stroke="#009E73" stroke-width="2"/>
<polyline points="70,303 143,303 216,303 290,303 363,301 436,301 510,301 583,301 656,301 730,301" fill="none" stroke="#56B4E9" stroke-width="2"/>
<polyline points="70,186 143,186 216,186 290,186 363,181 436,181 510,181 583,193 656,193 730,193" fill="none" stroke="#E69F00" stroke-width="2"/>
<polyline points="70,336 143,337 216,338 290,337 363,337 436,336 510,334 583,335 656,337 730,335" fill="none" stroke="#C44E52" stroke-width="2"/>
<polyline points="70,50 143,49 216,51 290,50 363,43 436,43 510,41 583,55 656,57 730,55" fill="none" stroke="#000000" stroke-width="2"/>
<circle cx="70" cy="93" r="3" fill="#0072B2"/>
<circle cx="70" cy="114" r="3" fill="#CC79A7"/>
<circle cx="70" cy="340" r="3" fill="#D55E00"/>
<circle cx="70" cy="308" r="3" fill="#009E73"/>
<circle cx="70" cy="303" r="3" fill="#56B4E9"/>
<circle cx="70" cy="186" r="3" fill="#E69F00"/>
<circle cx="70" cy="336" r="3" fill="#C44E52"/>
<circle cx="70" cy="50" r="3" fill="#000000"/>
<circle cx="143" cy="93" r="3" fill="#0072B2"/>
<circle cx="143" cy="113" r="3" fill="#CC79A7"/>
<circle cx="143" cy="340" r="3" fill="#D55E00"/>
<circle cx="143" cy="308" r="3" fill="#009E73"/>
<circle cx="143" cy="303" r="3" fill="#56B4E9"/>
<circle cx="143" cy="186" r="3" fill="#E69F00"/>
<circle cx="143" cy="337" r="3" fill="#C44E52"/>
<circle cx="143" cy="49" r="3" fill="#000000"/>
<circle cx="216" cy="92" r="3" fill="#0072B2"/>
<circle cx="216" cy="114" r="3" fill="#CC79A7"/>
<circle cx="216" cy="340" r="3" fill="#D55E00"/>
<circle cx="216" cy="308" r="3" fill="#009E73"/>
<circle cx="216" cy="303" r="3" fill="#56B4E9"/>
<circle cx="216" cy="186" r="3" fill="#E69F00"/>
<circle cx="216" cy="338" r="3" fill="#C44E52"/>
<circle cx="216" cy="51" r="3" fill="#000000"/>
<circle cx="290" cy="93" r="3" fill="#0072B2"/>
<circle cx="290" cy="114" r="3" fill="#CC79A7"/>
<circle cx="290" cy="340" r="3" fill="#D55E00"/>
<circle cx="290" cy="308" r="3" fill="#009E73"/>
<circle cx="290" cy="303" r="3" fill="#56B4E9"/>
<circle cx="290" cy="186" r="3" fill="#E69F00"/>
<circle cx="290" cy="337" r="3" fill="#C44E52"/>
<circle cx="290" cy="50" r="3" fill="#000000"/>
<circle cx="363" cy="61" r="3" fill="#0072B2"/>
<circle cx="363" cy="89" r="3" fill="#CC79A7"/>
<circle cx="363" cy="340" r="3" fill="#D55E00"/>
<circle cx="363" cy="300" r="3" fill="#009E73"/>
<circle cx="363" cy="301" r="3" fill="#56B4E9"/>
<circle cx="363" cy="181" r="3" fill="#E69F00"/>
<circle cx="363" cy="337" r="3" fill="#C44E52"/>
<circle cx="363" cy="43" r="3" fill="#000000"/>
<circle cx="436" cy="57" r="3" fill="#0072B2"/>
<circle cx="436" cy="85" r="3" fill="#CC79A7"/>
<circle cx="436" cy="340" r="3" fill="#D55E00"/>
<circle cx="436" cy="300" r="3" fill="#009E73"/>
<circle cx="436" cy="301" r="3" fill="#56B4E9"/>
<circle cx="436" cy="181" r="3" fill="#E69F00"/>
<circle cx="436" cy="336" r="3" fill="#C44E52"/>
<circle cx="436" cy="43" r="3" fill="#000000"/>
<circle cx="510" cy="55" r="3" fill="#0072B2"/>
<circle cx="510" cy="84" r="3" fill="#CC79A7"/>
<circle cx="510" cy="340" r="3" fill="#D55E00"/>
<circle cx="510" cy="300" r="3" fill="#009E73"/>
<circle cx="510" cy="301" r="3" fill="#56B4E9"/>
<circle cx="510" cy="181" r="3" fill="#E69F00"/>
<circle cx="510" cy="334" r="3" fill="#C44E52"/>
<circle cx="510" cy="41" r="3" fill="#000000"/>
<circle cx="583" cy="57" r="3" fill="#0072B2"/>
<circle cx="583" cy="89" r="3" fill="#CC79A7"/>
<circle cx="583" cy="340" r="3" fill="#D55E00"/>
<circle cx="583" cy="300" r="3" fill="#009E73"/>
<circle cx="583" cy="301" r="3" fill="#56B4E9"/>
<circle cx="583" cy="193" r="3" fill="#E69F00"/>
<circle cx="583" cy="335" r="3" fill="#C44E52"/>
<circle cx="583" cy="55" r="3" fill="#000000"/>
<circle cx="656" cy="58" r="3" fill="#0072B2"/>
<circle cx="656" cy="91" r="3" fill="#CC79A7"/>
<circle cx="656" cy="340" r="3" fill="#D55E00"/>
<circle cx="656" cy="300" r="3" fill="#009E73"/>
<circle cx="656" cy="301" r="3" fill="#56B4E9"/>
<circle cx="656" cy="193" r="3" fill="#E69F00"/>
<circle cx="656" cy="337" r="3" fill="#C44E52"/>
<circle cx="656" cy="57" r="3" fill="#000000"/>
<circle cx="730" cy="41" r="3" fill="#0072B2"/>
<circle cx="730" cy="84" r="3" fill="#CC79A7"/>
<circle cx="730" cy="340" r="3" fill="#D55E00"/>
<circle cx="730" cy="299" r="3" fill="#009E73"/>
<circle cx="730" cy="301" r="3" fill="#56B4E9"/>
<circle cx="730" cy="193" r="3" fill="#E69F00"/>
<circle cx="730" cy="335" r="3" fill="#C44E52"/>
<circle cx="730" cy="55" r="3" fill="#000000"/>
<circle cx="90" cy="20" r="4" fill="#0072B2"/>
<text x="98" y="24" text-anchor="start" font-size="12" fill="#0072B2">inte</text>
<circle cx="150" cy="20" r="4" fill="#CC79A7"/>
<text x="158" y="24" text-anchor="start" font-size="12" fill="#CC79A7">comp</text>
<circle cx="215" cy="20" r="4" fill="#D55E00"/>
<text x="223" y="24" text-anchor="start" font-size="12" fill="#D55E00">run</text>
<circle cx="270" cy="20" r="4" fill="#009E73"/>
<text x="278" y="24" text-anchor="start" font-size="12" fill="#009E73">wall</text>
<circle cx="335" cy="20" r="4" fill="#56B4E9"/>
<text x="343" y="24" text-anchor="start" font-size="12" fill="#56B4E9">mem-inte</text>
<circle cx="425" cy="20" r="4" fill="#E69F00"/>
<text x="433" y="24" text-anchor="start" font-size="12" fill="#E69F00">mem-comp</text>
<circle cx="520" cy="20" r="4" fill="#C44E52"/>
<text x="528" y="24" text-anchor="start" font-size="12" fill="#C44E52">mem-run</text>
<circle cx="605" cy="20" r="4" fill="#000000"/>
<text x="613" y="24" text-anchor="start" font-size="12" fill="#000000">mem-total</text>
</svg>
