<svg width="800" height="400" xmlns="http://www.w3.org/2000/svg">
<rect width="800" height="400" fill="white"/>
<line x1="70" y1="40" x2="70" y2="340" stroke="#333" stroke-width="1"/>
<line x1="70" y1="340" x2="730" y2="340" stroke="#333" stroke-width="1"/>
<line x1="730" y1="40" x2="730" y2="340" stroke="#333" stroke-width="1"/>
<text x="65" y="344" text-anchor="end" font-size="11" fill="#333">0</text>
<text x="65" y="194" text-anchor="end" font-size="11" fill="#333">283500</text>
<text x="65" y="44" text-anchor="end" font-size="11" fill="#333">567000</text>
<text x="15" y="190" text-anchor="middle" font-size="12" fill="#333" transform="rotate(-90 15 190)">ms</text>
<text x="735" y="344" text-anchor="start" font-size="11" fill="#333">0</text>
<text x="735" y="194" text-anchor="start" font-size="11" fill="#333">6231000000</text>
<text x="735" y="44" text-anchor="start" font-size="11" fill="#333">12462000000</text>
<text x="785" y="190" text-anchor="middle" font-size="12" fill="#333" transform="rotate(90 785 190)">bytes</text>
<polyline points="70,124 143,109 216,93 290,85 363,282 436,275 510,256 583,283 656,284 730,282" fill="none" stroke="#0072B2" stroke-width="2"/>
<polyline points="70,90 143,90 216,67 290,41 363,275 436,268 510,247 583,279 656,277 730,276" fill="none" stroke="#CC79A7" stroke-width="2"/>
<polyline points="70,340 143,340 216,340 290,340 363,340 436,340 510,340 583,340 656,340 730,340" fill="none" stroke="#D55E00" stroke-width="2"/>
<polyline points="70,269 143,267 216,260 290,256 363,284 436,275 510,258 583,287 656,285 730,284" fill="none" stroke="#009E73" stroke-width="2"/>
<polyline points="70,249 143,249 216,249 290,249 363,251 436,249 510,249 583,249 656,249 730,249" fill="none" stroke="#56B4E9" stroke-width="2"/>
<polyline points="70,199 143,202 216,195 290,190 363,207 436,202 510,205 583,205 656,203 730,203" fill="none" stroke="#E69F00" stroke-width="2"/>
<polyline points="70,340 143,340 216,340 290,340 363,340 436,340 510,340 583,340 656,340 730,340" fill="none" stroke="#C44E52" stroke-width="2"/>
<polyline points="70,50 143,53 216,46 290,41 363,67 436,61 510,64 583,65 656,64 730,64" fill="none" stroke="#000000" stroke-width="2"/>
<circle cx="70" cy="124" r="3" fill="#0072B2"/>
<circle cx="70" cy="90" r="3" fill="#CC79A7"/>
<circle cx="70" cy="340" r="3" fill="#D55E00"/>
<circle cx="70" cy="269" r="3" fill="#009E73"/>
<circle cx="70" cy="249" r="3" fill="#56B4E9"/>
<circle cx="70" cy="199" r="3" fill="#E69F00"/>
<circle cx="70" cy="340" r="3" fill="#C44E52"/>
<circle cx="70" cy="50" r="3" fill="#000000"/>
<circle cx="143" cy="109" r="3" fill="#0072B2"/>
<circle cx="143" cy="90" r="3" fill="#CC79A7"/>
<circle cx="143" cy="340" r="3" fill="#D55E00"/>
<circle cx="143" cy="267" r="3" fill="#009E73"/>
<circle cx="143" cy="249" r="3" fill="#56B4E9"/>
<circle cx="143" cy="202" r="3" fill="#E69F00"/>
<circle cx="143" cy="340" r="3" fill="#C44E52"/>
<circle cx="143" cy="53" r="3" fill="#000000"/>
<circle cx="216" cy="93" r="3" fill="#0072B2"/>
<circle cx="216" cy="67" r="3" fill="#CC79A7"/>
<circle cx="216" cy="340" r="3" fill="#D55E00"/>
<circle cx="216" cy="260" r="3" fill="#009E73"/>
<circle cx="216" cy="249" r="3" fill="#56B4E9"/>
<circle cx="216" cy="195" r="3" fill="#E69F00"/>
<circle cx="216" cy="340" r="3" fill="#C44E52"/>
<circle cx="216" cy="46" r="3" fill="#000000"/>
<circle cx="290" cy="85" r="3" fill="#0072B2"/>
<circle cx="290" cy="41" r="3" fill="#CC79A7"/>
<circle cx="290" cy="340" r="3" fill="#D55E00"/>
<circle cx="290" cy="256" r="3" fill="#009E73"/>
<circle cx="290" cy="249" r="3" fill="#56B4E9"/>
<circle cx="290" cy="190" r="3" fill="#E69F00"/>
<circle cx="290" cy="340" r="3" fill="#C44E52"/>
<circle cx="290" cy="41" r="3" fill="#000000"/>
<circle cx="363" cy="282" r="3" fill="#0072B2"/>
<circle cx="363" cy="275" r="3" fill="#CC79A7"/>
<circle cx="363" cy="340" r="3" fill="#D55E00"/>
<circle cx="363" cy="284" r="3" fill="#009E73"/>
<circle cx="363" cy="251" r="3" fill="#56B4E9"/>
<circle cx="363" cy="207" r="3" fill="#E69F00"/>
<circle cx="363" cy="340" r="3" fill="#C44E52"/>
<circle cx="363" cy="67" r="3" fill="#000000"/>
<circle cx="436" cy="275" r="3" fill="#0072B2"/>
<circle cx="436" cy="268" r="3" fill="#CC79A7"/>
<circle cx="436" cy="340" r="3" fill="#D55E00"/>
<circle cx="436" cy="275" r="3" fill="#009E73"/>
<circle cx="436" cy="249" r="3" fill="#56B4E9"/>
<circle cx="436" cy="202" r="3" fill="#E69F00"/>
<circle cx="436" cy="340" r="3" fill="#C44E52"/>
<circle cx="436" cy="61" r="3" fill="#000000"/>
<circle cx="510" cy="256" r="3" fill="#0072B2"/>
<circle cx="510" cy="247" r="3" fill="#CC79A7"/>
<circle cx="510" cy="340" r="3" fill="#D55E00"/>
<circle cx="510" cy="258" r="3" fill="#009E73"/>
<circle cx="510" cy="249" r="3" fill="#56B4E9"/>
<circle cx="510" cy="205" r="3" fill="#E69F00"/>
<circle cx="510" cy="340" r="3" fill="#C44E52"/>
<circle cx="510" cy="64" r="3" fill="#000000"/>
<circle cx="583" cy="283" r="3" fill="#0072B2"/>
<circle cx="583" cy="279" r="3" fill="#CC79A7"/>
<circle cx="583" cy="340" r="3" fill="#D55E00"/>
<circle cx="583" cy="287" r="3" fill="#009E73"/>
<circle cx="583" cy="249" r="3" fill="#56B4E9"/>
<circle cx="583" cy="205" r="3" fill="#E69F00"/>
<circle cx="583" cy="340" r="3" fill="#C44E52"/>
<circle cx="583" cy="65" r="3" fill="#000000"/>
<circle cx="656" cy="284" r="3" fill="#0072B2"/>
<circle cx="656" cy="277" r="3" fill="#CC79A7"/>
<circle cx="656" cy="340" r="3" fill="#D55E00"/>
<circle cx="656" cy="285" r="3" fill="#009E73"/>
<circle cx="656" cy="249" r="3" fill="#56B4E9"/>
<circle cx="656" cy="203" r="3" fill="#E69F00"/>
<circle cx="656" cy="340" r="3" fill="#C44E52"/>
<circle cx="656" cy="64" r="3" fill="#000000"/>
<circle cx="730" cy="282" r="3" fill="#0072B2"/>
<circle cx="730" cy="276" r="3" fill="#CC79A7"/>
<circle cx="730" cy="340" r="3" fill="#D55E00"/>
<circle cx="730" cy="284" r="3" fill="#009E73"/>
<circle cx="730" cy="249" r="3" fill="#56B4E9"/>
<circle cx="730" cy="203" r="3" fill="#E69F00"/>
<circle cx="730" cy="340" r="3" fill="#C44E52"/>
<circle cx="730" cy="64" r="3" fill="#000000"/>
<circle cx="90" cy="20" r="4" fill="#0072B2"/>
<text x="98" y="24" text-anchor="start" font-size="12" fill="#0072B2">inte</text>
<circle cx="150" cy="20" r="4" fill="#CC79A7"/>
<text x="158" y="24" text-anchor="start" font-size="12" fill="#CC79A7">comp</text>
<circle cx="215" cy="20" r="4" fill="#D55E00"/>
<text x="223" y="24" text-anchor="start" font-size="12" fill="#D55E00">run</text>
<circle cx="270" cy="20" r="4" fill="#009E73"/>
<text x="278" y="24" text-anchor="start" font-size="12" fill="#009E73">wall</text>
<circle cx="335" cy="20" r="4" fill="#56B4E9"/>
<text x="343" y="24" text-anchor="start" font-size="12" fill="#56B4E9">mem-inte</text>
<circle cx="425" cy="20" r="4" fill="#E69F00"/>
<text x="433" y="24" text-anchor="start" font-size="12" fill="#E69F00">mem-comp</text>
<circle cx="520" cy="20" r="4" fill="#C44E52"/>
<text x="528" y="24" text-anchor="start" font-size="12" fill="#C44E52">mem-run</text>
<circle cx="605" cy="20" r="4" fill="#000000"/>
<text x="613" y="24" text-anchor="start" font-size="12" fill="#000000">mem-total</text>
</svg>
