<svg width="800" height="400" xmlns="http://www.w3.org/2000/svg">
<rect width="800" height="400" fill="white"/>
<line x1="70" y1="40" x2="70" y2="340" stroke="#333" stroke-width="1"/>
<line x1="70" y1="340" x2="780" y2="340" stroke="#333" stroke-width="1"/>
<text x="65" y="344" text-anchor="end" font-size="11" fill="#333">0</text>
<text x="65" y="194" text-anchor="end" font-size="11" fill="#333">88000</text>
<text x="65" y="44" text-anchor="end" font-size="11" fill="#333">176000</text>
<text x="15" y="190" text-anchor="middle" font-size="12" fill="#333" transform="rotate(-90 15 190)">ms</text>
<polyline points="70,51 148,51 227,47 306,52 385,44 464,42 543,63 622,65 701,66 780,64" fill="none" stroke="#0072B2" stroke-width="2"/>
<polyline points="70,68 148,72 227,69 306,75 385,60 464,62 543,79 622,79 701,78 780,78" fill="none" stroke="#CC79A7" stroke-width="2"/>
<polyline points="70,338 148,338 227,338 306,338 385,338 464,338 543,338 622,338 701,338 780,338" fill="none" stroke="#D55E00" stroke-width="2"/>
<polyline points="70,304 148,304 227,304 306,304 385,303 464,303 543,305 622,306 701,305 780,305" fill="none" stroke="#009E73" stroke-width="2"/>
<circle cx="70" cy="51" r="3" fill="#0072B2"/>
<circle cx="70" cy="68" r="3" fill="#CC79A7"/>
<circle cx="70" cy="338" r="3" fill="#D55E00"/>
<circle cx="70" cy="304" r="3" fill="#009E73"/>
<circle cx="148" cy="51" r="3" fill="#0072B2"/>
<circle cx="148" cy="72" r="3" fill="#CC79A7"/>
<circle cx="148" cy="338" r="3" fill="#D55E00"/>
<circle cx="148" cy="304" r="3" fill="#009E73"/>
<circle cx="227" cy="47" r="3" fill="#0072B2"/>
<circle cx="227" cy="69" r="3" fill="#CC79A7"/>
<circle cx="227" cy="338" r="3" fill="#D55E00"/>
<circle cx="227" cy="304" r="3" fill="#009E73"/>
<circle cx="306" cy="52" r="3" fill="#0072B2"/>
<circle cx="306" cy="75" r="3" fill="#CC79A7"/>
<circle cx="306" cy="338" r="3" fill="#D55E00"/>
<circle cx="306" cy="304" r="3" fill="#009E73"/>
<circle cx="385" cy="44" r="3" fill="#0072B2"/>
<circle cx="385" cy="60" r="3" fill="#CC79A7"/>
<circle cx="385" cy="338" r="3" fill="#D55E00"/>
<circle cx="385" cy="303" r="3" fill="#009E73"/>
<circle cx="464" cy="42" r="3" fill="#0072B2"/>
<circle cx="464" cy="62" r="3" fill="#CC79A7"/>
<circle cx="464" cy="338" r="3" fill="#D55E00"/>
<circle cx="464" cy="303" r="3" fill="#009E73"/>
<circle cx="543" cy="63" r="3" fill="#0072B2"/>
<circle cx="543" cy="79" r="3" fill="#CC79A7"/>
<circle cx="543" cy="338" r="3" fill="#D55E00"/>
<circle cx="543" cy="305" r="3" fill="#009E73"/>
<circle cx="622" cy="65" r="3" fill="#0072B2"/>
<circle cx="622" cy="79" r="3" fill="#CC79A7"/>
<circle cx="622" cy="338" r="3" fill="#D55E00"/>
<circle cx="622" cy="306" r="3" fill="#009E73"/>
<circle cx="701" cy="66" r="3" fill="#0072B2"/>
<circle cx="701" cy="78" r="3" fill="#CC79A7"/>
<circle cx="701" cy="338" r="3" fill="#D55E00"/>
<circle cx="701" cy="305" r="3" fill="#009E73"/>
<circle cx="780" cy="64" r="3" fill="#0072B2"/>
<circle cx="780" cy="78" r="3" fill="#CC79A7"/>
<circle cx="780" cy="338" r="3" fill="#D55E00"/>
<circle cx="780" cy="305" r="3" fill="#009E73"/>
<circle cx="90" cy="20" r="4" fill="#0072B2"/>
<text x="98" y="24" text-anchor="start" font-size="12" fill="#0072B2">interpreted</text>
<circle cx="190" cy="20" r="4" fill="#CC79A7"/>
<text x="198" y="24" text-anchor="start" font-size="12" fill="#CC79A7">compiled</text>
<circle cx="275" cy="20" r="4" fill="#D55E00"/>
<text x="283" y="24" text-anchor="start" font-size="12" fill="#D55E00">executed</text>
<circle cx="355" cy="20" r="4" fill="#009E73"/>
<text x="363" y="24" text-anchor="start" font-size="12" fill="#009E73">wall</text>
</svg>
