<svg width="800" height="400" xmlns="http://www.w3.org/2000/svg">
<rect width="800" height="400" fill="white"/>
<line x1="70" y1="40" x2="70" y2="340" stroke="#333" stroke-width="1"/>
<line x1="70" y1="340" x2="780" y2="340" stroke="#333" stroke-width="1"/>
<text x="65" y="344" text-anchor="end" font-size="11" fill="#333">0</text>
<text x="65" y="194" text-anchor="end" font-size="11" fill="#333">195500</text>
<text x="65" y="44" text-anchor="end" font-size="11" fill="#333">391000</text>
<text x="15" y="190" text-anchor="middle" font-size="12" fill="#333" transform="rotate(-90 15 190)">ms</text>
<polyline points="70,231 107,230 144,230 182,229 219,231 256,230 294,227 331,230 368,226 406,229 443,297 481,297 518,300 555,300 593,301 630,301 667,300 705,300 742,301 780,297" fill="none" stroke="#2196F3" stroke-width="2"/>
<polyline points="70,301 107,300 144,300 182,300 219,301 256,300 294,299 331,300 368,299 406,300 443,323 481,323 518,326 555,326 593,326 630,326 667,326 705,326 742,326 780,326" fill="none" stroke="#F44336" stroke-width="2"/>
<polyline points="70,54 107,50 144,51 182,50 219,52 256,50 294,41 331,51 368,42 406,45 443,227 481,226 518,226 555,228 593,228 630,229 667,226 705,228 742,227 780,225" fill="none" stroke="#4CAF50" stroke-width="2"/>
<circle cx="70" cy="231" r="3" fill="#2196F3"/>
<circle cx="70" cy="301" r="3" fill="#F44336"/>
<circle cx="70" cy="54" r="3" fill="#4CAF50"/>
<circle cx="107" cy="230" r="3" fill="#2196F3"/>
<circle cx="107" cy="300" r="3" fill="#F44336"/>
<circle cx="107" cy="50" r="3" fill="#4CAF50"/>
<circle cx="144" cy="230" r="3" fill="#2196F3"/>
<circle cx="144" cy="300" r="3" fill="#F44336"/>
<circle cx="144" cy="51" r="3" fill="#4CAF50"/>
<circle cx="182" cy="229" r="3" fill="#2196F3"/>
<circle cx="182" cy="300" r="3" fill="#F44336"/>
<circle cx="182" cy="50" r="3" fill="#4CAF50"/>
<circle cx="219" cy="231" r="3" fill="#2196F3"/>
<circle cx="219" cy="301" r="3" fill="#F44336"/>
<circle cx="219" cy="52" r="3" fill="#4CAF50"/>
<circle cx="256" cy="230" r="3" fill="#2196F3"/>
<circle cx="256" cy="300" r="3" fill="#F44336"/>
<circle cx="256" cy="50" r="3" fill="#4CAF50"/>
<circle cx="294" cy="227" r="3" fill="#2196F3"/>
<circle cx="294" cy="299" r="3" fill="#F44336"/>
<circle cx="294" cy="41" r="3" fill="#4CAF50"/>
<circle cx="331" cy="230" r="3" fill="#2196F3"/>
<circle cx="331" cy="300" r="3" fill="#F44336"/>
<circle cx="331" cy="51" r="3" fill="#4CAF50"/>
<circle cx="368" cy="226" r="3" fill="#2196F3"/>
<circle cx="368" cy="299" r="3" fill="#F44336"/>
<circle cx="368" cy="42" r="3" fill="#4CAF50"/>
<circle cx="406" cy="229" r="3" fill="#2196F3"/>
<circle cx="406" cy="300" r="3" fill="#F44336"/>
<circle cx="406" cy="45" r="3" fill="#4CAF50"/>
<circle cx="443" cy="297" r="3" fill="#2196F3"/>
<circle cx="443" cy="323" r="3" fill="#F44336"/>
<circle cx="443" cy="227" r="3" fill="#4CAF50"/>
<circle cx="481" cy="297" r="3" fill="#2196F3"/>
<circle cx="481" cy="323" r="3" fill="#F44336"/>
<circle cx="481" cy="226" r="3" fill="#4CAF50"/>
<circle cx="518" cy="300" r="3" fill="#2196F3"/>
<circle cx="518" cy="326" r="3" fill="#F44336"/>
<circle cx="518" cy="226" r="3" fill="#4CAF50"/>
<circle cx="555" cy="300" r="3" fill="#2196F3"/>
<circle cx="555" cy="326" r="3" fill="#F44336"/>
<circle cx="555" cy="228" r="3" fill="#4CAF50"/>
<circle cx="593" cy="301" r="3" fill="#2196F3"/>
<circle cx="593" cy="326" r="3" fill="#F44336"/>
<circle cx="593" cy="228" r="3" fill="#4CAF50"/>
<circle cx="630" cy="301" r="3" fill="#2196F3"/>
<circle cx="630" cy="326" r="3" fill="#F44336"/>
<circle cx="630" cy="229" r="3" fill="#4CAF50"/>
<circle cx="667" cy="300" r="3" fill="#2196F3"/>
<circle cx="667" cy="326" r="3" fill="#F44336"/>
<circle cx="667" cy="226" r="3" fill="#4CAF50"/>
<circle cx="705" cy="300" r="3" fill="#2196F3"/>
<circle cx="705" cy="326" r="3" fill="#F44336"/>
<circle cx="705" cy="228" r="3" fill="#4CAF50"/>
<circle cx="742" cy="301" r="3" fill="#2196F3"/>
<circle cx="742" cy="326" r="3" fill="#F44336"/>
<circle cx="742" cy="227" r="3" fill="#4CAF50"/>
<circle cx="780" cy="297" r="3" fill="#2196F3"/>
<circle cx="780" cy="326" r="3" fill="#F44336"/>
<circle cx="780" cy="225" r="3" fill="#4CAF50"/>
<circle cx="90" cy="20" r="4" fill="#2196F3"/>
<text x="98" y="24" text-anchor="start" font-size="12" fill="#2196F3">Interpreted</text>
<circle cx="200" cy="20" r="4" fill="#F44336"/>
<text x="208" y="24" text-anchor="start" font-size="12" fill="#F44336">Compiled</text>
<circle cx="300" cy="20" r="4" fill="#4CAF50"/>
<text x="308" y="24" text-anchor="start" font-size="12" fill="#4CAF50">Wall-clock</text>
</svg>
