<svg width="800" height="400" xmlns="http://www.w3.org/2000/svg">
<rect width="800" height="400" fill="white"/>
<line x1="70" y1="40" x2="70" y2="340" stroke="#333" stroke-width="1"/>
<line x1="70" y1="340" x2="730" y2="340" stroke="#333" stroke-width="1"/>
<line x1="730" y1="40" x2="730" y2="340" stroke="#333" stroke-width="1"/>
<text x="65" y="344" text-anchor="end" font-size="11" fill="#333">0</text>
<text x="65" y="194" text-anchor="end" font-size="11" fill="#333">142000</text>
<text x="65" y="44" text-anchor="end" font-size="11" fill="#333">284000</text>
<text x="15" y="190" text-anchor="middle" font-size="12" fill="#333" transform="rotate(-90 15 190)">ms</text>
<text x="735" y="344" text-anchor="start" font-size="11" fill="#333">0</text>
<text x="735" y="194" text-anchor="start" font-size="11" fill="#333">74390000000</text>
<text x="735" y="44" text-anchor="start" font-size="11" fill="#333">148780000000</text>
<text x="785" y="190" text-anchor="middle" font-size="12" fill="#333" transform="rotate(90 785 190)">bytes</text>
<polyline points="70,181 143,172 216,205 290,214 363,57 436,206 510,208 583,191 656,210 730,218" fill="none" stroke="#0072B2" stroke-width="2"/>
<polyline points="70,141 143,131 216,192 290,204 363,41 436,194 510,197 583,177 656,168 730,181" fill="none" stroke="#CC79A7" stroke-width="2"/>
<polyline points="70,340 143,340 216,340 290,340 363,340 436,340 510,340 583,340 656,340 730,340" fill="none" stroke="#D55E00" stroke-width="2"/>
<polyline points="70,297 143,294 216,209 290,219 363,87 436,211 510,212 583,194 656,303 730,305" fill="none" stroke="#009E73" stroke-width="2"/>
<polyline points="70,333 143,333 216,333 290,333 363,333 436,333 510,333 583,333 656,333 730,333" fill="none" stroke="#56B4E9" stroke-width="2"/>
<polyline points="70,327 143,327 216,329 290,330 363,329 436,330 510,329 583,329 656,327 730,327" fill="none" stroke="#E69F00" stroke-width="2"/>
<polyline points="70,340 143,340 216,340 290,340 363,340 436,340 510,340 583,340 656,340 730,340" fill="none" stroke="#C44E52" stroke-width="2"/>
<polyline points="70,173 143,131 216,318 290,318 363,317 436,318 510,318 583,318 656,199 730,41" fill="none" stroke="#000000" stroke-width="2"/>
<circle cx="70" cy="181" r="3" fill="#0072B2"/>
<circle cx="70" cy="141" r="3" fill="#CC79A7"/>
<circle cx="70" cy="340" r="3" fill="#D55E00"/>
<circle cx="70" cy="297" r="3" fill="#009E73"/>
<circle cx="70" cy="333" r="3" fill="#56B4E9"/>
<circle cx="70" cy="327" r="3" fill="#E69F00"/>
<circle cx="70" cy="340" r="3" fill="#C44E52"/>
<circle cx="70" cy="173" r="3" fill="#000000"/>
<circle cx="143" cy="172" r="3" fill="#0072B2"/>
<circle cx="143" cy="131" r="3" fill="#CC79A7"/>
<circle cx="143" cy="340" r="3" fill="#D55E00"/>
<circle cx="143" cy="294" r="3" fill="#009E73"/>
<circle cx="143" cy="333" r="3" fill="#56B4E9"/>
<circle cx="143" cy="327" r="3" fill="#E69F00"/>
<circle cx="143" cy="340" r="3" fill="#C44E52"/>
<circle cx="143" cy="131" r="3" fill="#000000"/>
<circle cx="216" cy="205" r="3" fill="#0072B2"/>
<circle cx="216" cy="192" r="3" fill="#CC79A7"/>
<circle cx="216" cy="340" r="3" fill="#D55E00"/>
<circle cx="216" cy="209" r="3" fill="#009E73"/>
<circle cx="216" cy="333" r="3" fill="#56B4E9"/>
<circle cx="216" cy="329" r="3" fill="#E69F00"/>
<circle cx="216" cy="340" r="3" fill="#C44E52"/>
<circle cx="216" cy="318" r="3" fill="#000000"/>
<circle cx="290" cy="214" r="3" fill="#0072B2"/>
<circle cx="290" cy="204" r="3" fill="#CC79A7"/>
<circle cx="290" cy="340" r="3" fill="#D55E00"/>
<circle cx="290" cy="219" r="3" fill="#009E73"/>
<circle cx="290" cy="333" r="3" fill="#56B4E9"/>
<circle cx="290" cy="330" r="3" fill="#E69F00"/>
<circle cx="290" cy="340" r="3" fill="#C44E52"/>
<circle cx="290" cy="318" r="3" fill="#000000"/>
<circle cx="363" cy="57" r="3" fill="#0072B2"/>
<circle cx="363" cy="41" r="3" fill="#CC79A7"/>
<circle cx="363" cy="340" r="3" fill="#D55E00"/>
<circle cx="363" cy="87" r="3" fill="#009E73"/>
<circle cx="363" cy="333" r="3" fill="#56B4E9"/>
<circle cx="363" cy="329" r="3" fill="#E69F00"/>
<circle cx="363" cy="340" r="3" fill="#C44E52"/>
<circle cx="363" cy="317" r="3" fill="#000000"/>
<circle cx="436" cy="206" r="3" fill="#0072B2"/>
<circle cx="436" cy="194" r="3" fill="#CC79A7"/>
<circle cx="436" cy="340" r="3" fill="#D55E00"/>
<circle cx="436" cy="211" r="3" fill="#009E73"/>
<circle cx="436" cy="333" r="3" fill="#56B4E9"/>
<circle cx="436" cy="330" r="3" fill="#E69F00"/>
<circle cx="436" cy="340" r="3" fill="#C44E52"/>
<circle cx="436" cy="318" r="3" fill="#000000"/>
<circle cx="510" cy="208" r="3" fill="#0072B2"/>
<circle cx="510" cy="197" r="3" fill="#CC79A7"/>
<circle cx="510" cy="340" r="3" fill="#D55E00"/>
<circle cx="510" cy="212" r="3" fill="#009E73"/>
<circle cx="510" cy="333" r="3" fill="#56B4E9"/>
<circle cx="510" cy="329" r="3" fill="#E69F00"/>
<circle cx="510" cy="340" r="3" fill="#C44E52"/>
<circle cx="510" cy="318" r="3" fill="#000000"/>
<circle cx="583" cy="191" r="3" fill="#0072B2"/>
<circle cx="583" cy="177" r="3" fill="#CC79A7"/>
<circle cx="583" cy="340" r="3" fill="#D55E00"/>
<circle cx="583" cy="194" r="3" fill="#009E73"/>
<circle cx="583" cy="333" r="3" fill="#56B4E9"/>
<circle cx="583" cy="329" r="3" fill="#E69F00"/>
<circle cx="583" cy="340" r="3" fill="#C44E52"/>
<circle cx="583" cy="318" r="3" fill="#000000"/>
<circle cx="656" cy="210" r="3" fill="#0072B2"/>
<circle cx="656" cy="168" r="3" fill="#CC79A7"/>
<circle cx="656" cy="340" r="3" fill="#D55E00"/>
<circle cx="656" cy="303" r="3" fill="#009E73"/>
<circle cx="656" cy="333" r="3" fill="#56B4E9"/>
<circle cx="656" cy="327" r="3" fill="#E69F00"/>
<circle cx="656" cy="340" r="3" fill="#C44E52"/>
<circle cx="656" cy="199" r="3" fill="#000000"/>
<circle cx="730" cy="218" r="3" fill="#0072B2"/>
<circle cx="730" cy="181" r="3" fill="#CC79A7"/>
<circle cx="730" cy="340" r="3" fill="#D55E00"/>
<circle cx="730" cy="305" r="3" fill="#009E73"/>
<circle cx="730" cy="333" r="3" fill="#56B4E9"/>
<circle cx="730" cy="327" r="3" fill="#E69F00"/>
<circle cx="730" cy="340" r="3" fill="#C44E52"/>
<circle cx="730" cy="41" r="3" fill="#000000"/>
<circle cx="90" cy="20" r="4" fill="#0072B2"/>
<text x="98" y="24" text-anchor="start" font-size="12" fill="#0072B2">inte</text>
<circle cx="150" cy="20" r="4" fill="#CC79A7"/>
<text x="158" y="24" text-anchor="start" font-size="12" fill="#CC79A7">comp</text>
<circle cx="215" cy="20" r="4" fill="#D55E00"/>
<text x="223" y="24" text-anchor="start" font-size="12" fill="#D55E00">run</text>
<circle cx="270" cy="20" r="4" fill="#009E73"/>
<text x="278" y="24" text-anchor="start" font-size="12" fill="#009E73">wall</text>
<circle cx="335" cy="20" r="4" fill="#56B4E9"/>
<text x="343" y="24" text-anchor="start" font-size="12" fill="#56B4E9">mem-inte</text>
<circle cx="425" cy="20" r="4" fill="#E69F00"/>
<text x="433" y="24" text-anchor="start" font-size="12" fill="#E69F00">mem-comp</text>
<circle cx="520" cy="20" r="4" fill="#C44E52"/>
<text x="528" y="24" text-anchor="start" font-size="12" fill="#C44E52">mem-run</text>
<circle cx="605" cy="20" r="4" fill="#000000"/>
<text x="613" y="24" text-anchor="start" font-size="12" fill="#000000">mem-total</text>
</svg>
