<svg width="800" height="400" xmlns="http://www.w3.org/2000/svg">
<rect width="800" height="400" fill="white"/>
<line x1="70" y1="40" x2="70" y2="340" stroke="#333" stroke-width="1"/>
<line x1="70" y1="340" x2="730" y2="340" stroke="#333" stroke-width="1"/>
<line x1="730" y1="40" x2="730" y2="340" stroke="#333" stroke-width="1"/>
<text x="65" y="344" text-anchor="end" font-size="11" fill="#333">0</text>
<text x="65" y="194" text-anchor="end" font-size="11" fill="#333">352000</text>
<text x="65" y="44" text-anchor="end" font-size="11" fill="#333">704000</text>
<text x="15" y="190" text-anchor="middle" font-size="12" fill="#333" transform="rotate(-90 15 190)">ms</text>
<text x="735" y="344" text-anchor="start" font-size="11" fill="#333">0</text>
<text x="735" y="194" text-anchor="start" font-size="11" fill="#333">11147000000</text>
<text x="735" y="44" text-anchor="start" font-size="11" fill="#333">22294000000</text>
<text x="785" y="190" text-anchor="middle" font-size="12" fill="#333" transform="rotate(90 785 190)">bytes</text>
<polyline points="70,41 143,46 216,87 290,86 363,88 436,82 510,81 583,82 656,92 730,94" fill="none" stroke="#0072B2" stroke-width="2"/>
<polyline points="70,75 143,80 216,112 290,109 363,112 436,107 510,106 583,108 656,116 730,119" fill="none" stroke="#CC79A7" stroke-width="2"/>
<polyline points="70,340 143,340 216,340 290,340 363,340 436,340 510,340 583,340 656,340 730,340" fill="none" stroke="#D55E00" stroke-width="2"/>
<polyline points="70,297 143,298 216,304 290,303 363,304 436,302 510,303 583,303 656,304 730,304" fill="none" stroke="#009E73" stroke-width="2"/>
<polyline points="70,300 143,300 216,300 290,300 363,300 436,300 510,300 583,298 656,298 730,298" fill="none" stroke="#56B4E9" stroke-width="2"/>
<polyline points="70,192 143,192 216,192 290,192 363,192 436,192 510,192 583,191 656,192 730,191" fill="none" stroke="#E69F00" stroke-width="2"/>
<polyline points="70,333 143,334 216,333 290,334 363,333 436,330 510,332 583,331 656,333 730,333" fill="none" stroke="#C44E52" stroke-width="2"/>
<polyline points="70,45 143,45 216,45 290,46 363,45 436,46 510,46 583,41 656,41 730,41" fill="none" stroke="#000000" stroke-width="2"/>
<circle cx="70" cy="41" r="3" fill="#0072B2"/>
<circle cx="70" cy="75" r="3" fill="#CC79A7"/>
<circle cx="70" cy="340" r="3" fill="#D55E00"/>
<circle cx="70" cy="297" r="3" fill="#009E73"/>
<circle cx="70" cy="300" r="3" fill="#56B4E9"/>
<circle cx="70" cy="192" r="3" fill="#E69F00"/>
<circle cx="70" cy="333" r="3" fill="#C44E52"/>
<circle cx="70" cy="45" r="3" fill="#000000"/>
<circle cx="143" cy="46" r="3" fill="#0072B2"/>
<circle cx="143" cy="80" r="3" fill="#CC79A7"/>
<circle cx="143" cy="340" r="3" fill="#D55E00"/>
<circle cx="143" cy="298" r="3" fill="#009E73"/>
<circle cx="143" cy="300" r="3" fill="#56B4E9"/>
<circle cx="143" cy="192" r="3" fill="#E69F00"/>
<circle cx="143" cy="334" r="3" fill="#C44E52"/>
<circle cx="143" cy="45" r="3" fill="#000000"/>
<circle cx="216" cy="87" r="3" fill="#0072B2"/>
<circle cx="216" cy="112" r="3" fill="#CC79A7"/>
<circle cx="216" cy="340" r="3" fill="#D55E00"/>
<circle cx="216" cy="304" r="3" fill="#009E73"/>
<circle cx="216" cy="300" r="3" fill="#56B4E9"/>
<circle cx="216" cy="192" r="3" fill="#E69F00"/>
<circle cx="216" cy="333" r="3" fill="#C44E52"/>
<circle cx="216" cy="45" r="3" fill="#000000"/>
<circle cx="290" cy="86" r="3" fill="#0072B2"/>
<circle cx="290" cy="109" r="3" fill="#CC79A7"/>
<circle cx="290" cy="340" r="3" fill="#D55E00"/>
<circle cx="290" cy="303" r="3" fill="#009E73"/>
<circle cx="290" cy="300" r="3" fill="#56B4E9"/>
<circle cx="290" cy="192" r="3" fill="#E69F00"/>
<circle cx="290" cy="334" r="3" fill="#C44E52"/>
<circle cx="290" cy="46" r="3" fill="#000000"/>
<circle cx="363" cy="88" r="3" fill="#0072B2"/>
<circle cx="363" cy="112" r="3" fill="#CC79A7"/>
<circle cx="363" cy="340" r="3" fill="#D55E00"/>
<circle cx="363" cy="304" r="3" fill="#009E73"/>
<circle cx="363" cy="300" r="3" fill="#56B4E9"/>
<circle cx="363" cy="192" r="3" fill="#E69F00"/>
<circle cx="363" cy="333" r="3" fill="#C44E52"/>
<circle cx="363" cy="45" r="3" fill="#000000"/>
<circle cx="436" cy="82" r="3" fill="#0072B2"/>
<circle cx="436" cy="107" r="3" fill="#CC79A7"/>
<circle cx="436" cy="340" r="3" fill="#D55E00"/>
<circle cx="436" cy="302" r="3" fill="#009E73"/>
<circle cx="436" cy="300" r="3" fill="#56B4E9"/>
<circle cx="436" cy="192" r="3" fill="#E69F00"/>
<circle cx="436" cy="330" r="3" fill="#C44E52"/>
<circle cx="436" cy="46" r="3" fill="#000000"/>
<circle cx="510" cy="81" r="3" fill="#0072B2"/>
<circle cx="510" cy="106" r="3" fill="#CC79A7"/>
<circle cx="510" cy="340" r="3" fill="#D55E00"/>
<circle cx="510" cy="303" r="3" fill="#009E73"/>
<circle cx="510" cy="300" r="3" fill="#56B4E9"/>
<circle cx="510" cy="192" r="3" fill="#E69F00"/>
<circle cx="510" cy="332" r="3" fill="#C44E52"/>
<circle cx="510" cy="46" r="3" fill="#000000"/>
<circle cx="583" cy="82" r="3" fill="#0072B2"/>
<circle cx="583" cy="108" r="3" fill="#CC79A7"/>
<circle cx="583" cy="340" r="3" fill="#D55E00"/>
<circle cx="583" cy="303" r="3" fill="#009E73"/>
<circle cx="583" cy="298" r="3" fill="#56B4E9"/>
<circle cx="583" cy="191" r="3" fill="#E69F00"/>
<circle cx="583" cy="331" r="3" fill="#C44E52"/>
<circle cx="583" cy="41" r="3" fill="#000000"/>
<circle cx="656" cy="92" r="3" fill="#0072B2"/>
<circle cx="656" cy="116" r="3" fill="#CC79A7"/>
<circle cx="656" cy="340" r="3" fill="#D55E00"/>
<circle cx="656" cy="304" r="3" fill="#009E73"/>
<circle cx="656" cy="298" r="3" fill="#56B4E9"/>
<circle cx="656" cy="192" r="3" fill="#E69F00"/>
<circle cx="656" cy="333" r="3" fill="#C44E52"/>
<circle cx="656" cy="41" r="3" fill="#000000"/>
<circle cx="730" cy="94" r="3" fill="#0072B2"/>
<circle cx="730" cy="119" r="3" fill="#CC79A7"/>
<circle cx="730" cy="340" r="3" fill="#D55E00"/>
<circle cx="730" cy="304" r="3" fill="#009E73"/>
<circle cx="730" cy="298" r="3" fill="#56B4E9"/>
<circle cx="730" cy="191" r="3" fill="#E69F00"/>
<circle cx="730" cy="333" r="3" fill="#C44E52"/>
<circle cx="730" cy="41" r="3" fill="#000000"/>
<circle cx="90" cy="20" r="4" fill="#0072B2"/>
<text x="98" y="24" text-anchor="start" font-size="12" fill="#0072B2">inte</text>
<circle cx="150" cy="20" r="4" fill="#CC79A7"/>
<text x="158" y="24" text-anchor="start" font-size="12" fill="#CC79A7">comp</text>
<circle cx="215" cy="20" r="4" fill="#D55E00"/>
<text x="223" y="24" text-anchor="start" font-size="12" fill="#D55E00">run</text>
<circle cx="270" cy="20" r="4" fill="#009E73"/>
<text x="278" y="24" text-anchor="start" font-size="12" fill="#009E73">wall</text>
<circle cx="335" cy="20" r="4" fill="#56B4E9"/>
<text x="343" y="24" text-anchor="start" font-size="12" fill="#56B4E9">mem-inte</text>
<circle cx="425" cy="20" r="4" fill="#E69F00"/>
<text x="433" y="24" text-anchor="start" font-size="12" fill="#E69F00">mem-comp</text>
<circle cx="520" cy="20" r="4" fill="#C44E52"/>
<text x="528" y="24" text-anchor="start" font-size="12" fill="#C44E52">mem-run</text>
<circle cx="605" cy="20" r="4" fill="#000000"/>
<text x="613" y="24" text-anchor="start" font-size="12" fill="#000000">mem-total</text>
</svg>
