<svg width="800" height="400" xmlns="http://www.w3.org/2000/svg">
<rect width="800" height="400" fill="white"/>
<line x1="70" y1="40" x2="70" y2="340" stroke="#333" stroke-width="1"/>
<line x1="70" y1="340" x2="730" y2="340" stroke="#333" stroke-width="1"/>
<line x1="730" y1="40" x2="730" y2="340" stroke="#333" stroke-width="1"/>
<text x="65" y="344" text-anchor="end" font-size="11" fill="#333">0</text>
<text x="65" y="194" text-anchor="end" font-size="11" fill="#333">274000</text>
<text x="65" y="44" text-anchor="end" font-size="11" fill="#333">548000</text>
<text x="15" y="190" text-anchor="middle" font-size="12" fill="#333" transform="rotate(-90 15 190)">ms</text>
<text x="735" y="344" text-anchor="start" font-size="11" fill="#333">0</text>
<text x="735" y="194" text-anchor="start" font-size="11" fill="#333">10922000000</text>
<text x="735" y="44" text-anchor="start" font-size="11" fill="#333">21844000000</text>
<text x="785" y="190" text-anchor="middle" font-size="12" fill="#333" transform="rotate(90 785 190)">bytes</text>
<polyline points="70,63 143,57 216,156 290,151 363,154 436,153 510,150 583,151 656,149 730,150" fill="none" stroke="#0072B2" stroke-width="2"/>
<polyline points="70,50 143,41 216,133 290,130 363,128 436,128 510,126 583,129 656,126 730,127" fill="none" stroke="#CC79A7" stroke-width="2"/>
<polyline points="70,340 143,340 216,340 290,340 363,340 436,340 510,340 583,340 656,340 730,340" fill="none" stroke="#D55E00" stroke-width="2"/>
<polyline points="70,295 143,294 216,309 290,308 363,309 436,308 510,307 583,307 656,308 730,307" fill="none" stroke="#009E73" stroke-width="2"/>
<polyline points="70,300 143,300 216,301 290,301 363,301 436,301 510,301 583,301 656,301 730,301" fill="none" stroke="#56B4E9" stroke-width="2"/>
<polyline points="70,190 143,190 216,193 290,193 363,193 436,193 510,193 583,193 656,193 730,192" fill="none" stroke="#E69F00" stroke-width="2"/>
<polyline points="70,334 143,334 216,338 290,336 363,338 436,338 510,334 583,336 656,337 730,336" fill="none" stroke="#C44E52" stroke-width="2"/>
<polyline points="70,41 143,41 216,56 290,52 363,55 436,55 510,51 583,52 656,53 730,52" fill="none" stroke="#000000" stroke-width="2"/>
<circle cx="70" cy="63" r="3" fill="#0072B2"/>
<circle cx="70" cy="50" r="3" fill="#CC79A7"/>
<circle cx="70" cy="340" r="3" fill="#D55E00"/>
<circle cx="70" cy="295" r="3" fill="#009E73"/>
<circle cx="70" cy="300" r="3" fill="#56B4E9"/>
<circle cx="70" cy="190" r="3" fill="#E69F00"/>
<circle cx="70" cy="334" r="3" fill="#C44E52"/>
<circle cx="70" cy="41" r="3" fill="#000000"/>
<circle cx="143" cy="57" r="3" fill="#0072B2"/>
<circle cx="143" cy="41" r="3" fill="#CC79A7"/>
<circle cx="143" cy="340" r="3" fill="#D55E00"/>
<circle cx="143" cy="294" r="3" fill="#009E73"/>
<circle cx="143" cy="300" r="3" fill="#56B4E9"/>
<circle cx="143" cy="190" r="3" fill="#E69F00"/>
<circle cx="143" cy="334" r="3" fill="#C44E52"/>
<circle cx="143" cy="41" r="3" fill="#000000"/>
<circle cx="216" cy="156" r="3" fill="#0072B2"/>
<circle cx="216" cy="133" r="3" fill="#CC79A7"/>
<circle cx="216" cy="340" r="3" fill="#D55E00"/>
<circle cx="216" cy="309" r="3" fill="#009E73"/>
<circle cx="216" cy="301" r="3" fill="#56B4E9"/>
<circle cx="216" cy="193" r="3" fill="#E69F00"/>
<circle cx="216" cy="338" r="3" fill="#C44E52"/>
<circle cx="216" cy="56" r="3" fill="#000000"/>
<circle cx="290" cy="151" r="3" fill="#0072B2"/>
<circle cx="290" cy="130" r="3" fill="#CC79A7"/>
<circle cx="290" cy="340" r="3" fill="#D55E00"/>
<circle cx="290" cy="308" r="3" fill="#009E73"/>
<circle cx="290" cy="301" r="3" fill="#56B4E9"/>
<circle cx="290" cy="193" r="3" fill="#E69F00"/>
<circle cx="290" cy="336" r="3" fill="#C44E52"/>
<circle cx="290" cy="52" r="3" fill="#000000"/>
<circle cx="363" cy="154" r="3" fill="#0072B2"/>
<circle cx="363" cy="128" r="3" fill="#CC79A7"/>
<circle cx="363" cy="340" r="3" fill="#D55E00"/>
<circle cx="363" cy="309" r="3" fill="#009E73"/>
<circle cx="363" cy="301" r="3" fill="#56B4E9"/>
<circle cx="363" cy="193" r="3" fill="#E69F00"/>
<circle cx="363" cy="338" r="3" fill="#C44E52"/>
<circle cx="363" cy="55" r="3" fill="#000000"/>
<circle cx="436" cy="153" r="3" fill="#0072B2"/>
<circle cx="436" cy="128" r="3" fill="#CC79A7"/>
<circle cx="436" cy="340" r="3" fill="#D55E00"/>
<circle cx="436" cy="308" r="3" fill="#009E73"/>
<circle cx="436" cy="301" r="3" fill="#56B4E9"/>
<circle cx="436" cy="193" r="3" fill="#E69F00"/>
<circle cx="436" cy="338" r="3" fill="#C44E52"/>
<circle cx="436" cy="55" r="3" fill="#000000"/>
<circle cx="510" cy="150" r="3" fill="#0072B2"/>
<circle cx="510" cy="126" r="3" fill="#CC79A7"/>
<circle cx="510" cy="340" r="3" fill="#D55E00"/>
<circle cx="510" cy="307" r="3" fill="#009E73"/>
<circle cx="510" cy="301" r="3" fill="#56B4E9"/>
<circle cx="510" cy="193" r="3" fill="#E69F00"/>
<circle cx="510" cy="334" r="3" fill="#C44E52"/>
<circle cx="510" cy="51" r="3" fill="#000000"/>
<circle cx="583" cy="151" r="3" fill="#0072B2"/>
<circle cx="583" cy="129" r="3" fill="#CC79A7"/>
<circle cx="583" cy="340" r="3" fill="#D55E00"/>
<circle cx="583" cy="307" r="3" fill="#009E73"/>
<circle cx="583" cy="301" r="3" fill="#56B4E9"/>
<circle cx="583" cy="193" r="3" fill="#E69F00"/>
<circle cx="583" cy="336" r="3" fill="#C44E52"/>
<circle cx="583" cy="52" r="3" fill="#000000"/>
<circle cx="656" cy="149" r="3" fill="#0072B2"/>
<circle cx="656" cy="126" r="3" fill="#CC79A7"/>
<circle cx="656" cy="340" r="3" fill="#D55E00"/>
<circle cx="656" cy="308" r="3" fill="#009E73"/>
<circle cx="656" cy="301" r="3" fill="#56B4E9"/>
<circle cx="656" cy="193" r="3" fill="#E69F00"/>
<circle cx="656" cy="337" r="3" fill="#C44E52"/>
<circle cx="656" cy="53" r="3" fill="#000000"/>
<circle cx="730" cy="150" r="3" fill="#0072B2"/>
<circle cx="730" cy="127" r="3" fill="#CC79A7"/>
<circle cx="730" cy="340" r="3" fill="#D55E00"/>
<circle cx="730" cy="307" r="3" fill="#009E73"/>
<circle cx="730" cy="301" r="3" fill="#56B4E9"/>
<circle cx="730" cy="192" r="3" fill="#E69F00"/>
<circle cx="730" cy="336" r="3" fill="#C44E52"/>
<circle cx="730" cy="52" r="3" fill="#000000"/>
<circle cx="90" cy="20" r="4" fill="#0072B2"/>
<text x="98" y="24" text-anchor="start" font-size="12" fill="#0072B2">inte</text>
<circle cx="150" cy="20" r="4" fill="#CC79A7"/>
<text x="158" y="24" text-anchor="start" font-size="12" fill="#CC79A7">comp</text>
<circle cx="215" cy="20" r="4" fill="#D55E00"/>
<text x="223" y="24" text-anchor="start" font-size="12" fill="#D55E00">run</text>
<circle cx="270" cy="20" r="4" fill="#009E73"/>
<text x="278" y="24" text-anchor="start" font-size="12" fill="#009E73">wall</text>
<circle cx="335" cy="20" r="4" fill="#56B4E9"/>
<text x="343" y="24" text-anchor="start" font-size="12" fill="#56B4E9">mem-inte</text>
<circle cx="425" cy="20" r="4" fill="#E69F00"/>
<text x="433" y="24" text-anchor="start" font-size="12" fill="#E69F00">mem-comp</text>
<circle cx="520" cy="20" r="4" fill="#C44E52"/>
<text x="528" y="24" text-anchor="start" font-size="12" fill="#C44E52">mem-run</text>
<circle cx="605" cy="20" r="4" fill="#000000"/>
<text x="613" y="24" text-anchor="start" font-size="12" fill="#000000">mem-total</text>
</svg>
