<svg width="800" height="400" xmlns="http://www.w3.org/2000/svg">
<rect width="800" height="400" fill="white"/>
<line x1="70" y1="40" x2="70" y2="340" stroke="#333" stroke-width="1"/>
<line x1="70" y1="340" x2="730" y2="340" stroke="#333" stroke-width="1"/>
<line x1="730" y1="40" x2="730" y2="340" stroke="#333" stroke-width="1"/>
<text x="65" y="344" text-anchor="end" font-size="11" fill="#333">0</text>
<text x="65" y="194" text-anchor="end" font-size="11" fill="#333">340500</text>
<text x="65" y="44" text-anchor="end" font-size="11" fill="#333">681000</text>
<text x="15" y="190" text-anchor="middle" font-size="12" fill="#333" transform="rotate(-90 15 190)">ms</text>
<text x="735" y="344" text-anchor="start" font-size="11" fill="#333">0</text>
<text x="735" y="194" text-anchor="start" font-size="11" fill="#333">1000000</text>
<text x="735" y="44" text-anchor="start" font-size="11" fill="#333">2000000</text>
<text x="785" y="190" text-anchor="middle" font-size="12" fill="#333" transform="rotate(90 785 190)">bytes</text>
<polyline points="70,287 143,287 216,84 290,93 363,132 436,150 510,111 583,129 656,137 730,156" fill="none" stroke="#0072B2" stroke-width="2"/>
<polyline points="70,284 143,284 216,56 290,41 363,126 436,119 510,94 583,96 656,132 730,127" fill="none" stroke="#CC79A7" stroke-width="2"/>
<polyline points="70,340 143,340 216,340 290,340 363,340 436,340 510,340 583,340 656,340 730,340" fill="none" stroke="#D55E00" stroke-width="2"/>
<polyline points="70,333 143,333 216,260 290,258 363,274 436,277 510,267 583,272 656,277 730,279" fill="none" stroke="#009E73" stroke-width="2"/>
<polyline points="70,63 143,63 216,46 290,46 363,46 436,46 510,46 583,46 656,46 730,46" fill="none" stroke="#56B4E9" stroke-width="2"/>
<circle cx="70" cy="287" r="3" fill="#0072B2"/>
<circle cx="70" cy="284" r="3" fill="#CC79A7"/>
<circle cx="70" cy="340" r="3" fill="#D55E00"/>
<circle cx="70" cy="333" r="3" fill="#009E73"/>
<circle cx="70" cy="63" r="3" fill="#56B4E9"/>
<circle cx="143" cy="287" r="3" fill="#0072B2"/>
<circle cx="143" cy="284" r="3" fill="#CC79A7"/>
<circle cx="143" cy="340" r="3" fill="#D55E00"/>
<circle cx="143" cy="333" r="3" fill="#009E73"/>
<circle cx="143" cy="63" r="3" fill="#56B4E9"/>
<circle cx="216" cy="84" r="3" fill="#0072B2"/>
<circle cx="216" cy="56" r="3" fill="#CC79A7"/>
<circle cx="216" cy="340" r="3" fill="#D55E00"/>
<circle cx="216" cy="260" r="3" fill="#009E73"/>
<circle cx="216" cy="46" r="3" fill="#56B4E9"/>
<circle cx="290" cy="93" r="3" fill="#0072B2"/>
<circle cx="290" cy="41" r="3" fill="#CC79A7"/>
<circle cx="290" cy="340" r="3" fill="#D55E00"/>
<circle cx="290" cy="258" r="3" fill="#009E73"/>
<circle cx="290" cy="46" r="3" fill="#56B4E9"/>
<circle cx="363" cy="132" r="3" fill="#0072B2"/>
<circle cx="363" cy="126" r="3" fill="#CC79A7"/>
<circle cx="363" cy="340" r="3" fill="#D55E00"/>
<circle cx="363" cy="274" r="3" fill="#009E73"/>
<circle cx="363" cy="46" r="3" fill="#56B4E9"/>
<circle cx="436" cy="150" r="3" fill="#0072B2"/>
<circle cx="436" cy="119" r="3" fill="#CC79A7"/>
<circle cx="436" cy="340" r="3" fill="#D55E00"/>
<circle cx="436" cy="277" r="3" fill="#009E73"/>
<circle cx="436" cy="46" r="3" fill="#56B4E9"/>
<circle cx="510" cy="111" r="3" fill="#0072B2"/>
<circle cx="510" cy="94" r="3" fill="#CC79A7"/>
<circle cx="510" cy="340" r="3" fill="#D55E00"/>
<circle cx="510" cy="267" r="3" fill="#009E73"/>
<circle cx="510" cy="46" r="3" fill="#56B4E9"/>
<circle cx="583" cy="129" r="3" fill="#0072B2"/>
<circle cx="583" cy="96" r="3" fill="#CC79A7"/>
<circle cx="583" cy="340" r="3" fill="#D55E00"/>
<circle cx="583" cy="272" r="3" fill="#009E73"/>
<circle cx="583" cy="46" r="3" fill="#56B4E9"/>
<circle cx="656" cy="137" r="3" fill="#0072B2"/>
<circle cx="656" cy="132" r="3" fill="#CC79A7"/>
<circle cx="656" cy="340" r="3" fill="#D55E00"/>
<circle cx="656" cy="277" r="3" fill="#009E73"/>
<circle cx="656" cy="46" r="3" fill="#56B4E9"/>
<circle cx="730" cy="156" r="3" fill="#0072B2"/>
<circle cx="730" cy="127" r="3" fill="#CC79A7"/>
<circle cx="730" cy="340" r="3" fill="#D55E00"/>
<circle cx="730" cy="279" r="3" fill="#009E73"/>
<circle cx="730" cy="46" r="3" fill="#56B4E9"/>
<circle cx="90" cy="20" r="4" fill="#0072B2"/>
<text x="98" y="24" text-anchor="start" font-size="12" fill="#0072B2">interpreted</text>
<circle cx="190" cy="20" r="4" fill="#CC79A7"/>
<text x="198" y="24" text-anchor="start" font-size="12" fill="#CC79A7">compiled</text>
<circle cx="275" cy="20" r="4" fill="#D55E00"/>
<text x="283" y="24" text-anchor="start" font-size="12" fill="#D55E00">executed</text>
<circle cx="355" cy="20" r="4" fill="#009E73"/>
<text x="363" y="24" text-anchor="start" font-size="12" fill="#009E73">wall</text>
<circle cx="420" cy="20" r="4" fill="#56B4E9"/>
<text x="428" y="24" text-anchor="start" font-size="12" fill="#56B4E9">memory</text>
</svg>
