<svg width="800" height="400" xmlns="http://www.w3.org/2000/svg">
<rect width="800" height="400" fill="white"/>
<line x1="70" y1="40" x2="70" y2="340" stroke="#333" stroke-width="1"/>
<line x1="70" y1="340" x2="730" y2="340" stroke="#333" stroke-width="1"/>
<line x1="730" y1="40" x2="730" y2="340" stroke="#333" stroke-width="1"/>
<text x="65" y="344" text-anchor="end" font-size="11" fill="#333">0</text>
<text x="65" y="194" text-anchor="end" font-size="11" fill="#333">78000</text>
<text x="65" y="44" text-anchor="end" font-size="11" fill="#333">156000</text>
<text x="15" y="190" text-anchor="middle" font-size="12" fill="#333" transform="rotate(-90 15 190)">ms</text>
<text x="735" y="344" text-anchor="start" font-size="11" fill="#333">0</text>
<text x="735" y="194" text-anchor="start" font-size="11" fill="#333">1000000</text>
<text x="735" y="44" text-anchor="start" font-size="11" fill="#333">2000000</text>
<text x="785" y="190" text-anchor="middle" font-size="12" fill="#333" transform="rotate(90 785 190)">bytes</text>
<polyline points="70,59 143,61 216,57 290,59 363,51 436,87 510,86 583,85 656,86 730,91" fill="none" stroke="#0072B2" stroke-width="2"/>
<polyline points="70,44 143,46 216,47 290,48 363,42 436,75 510,71 583,73 656,75 730,77" fill="none" stroke="#CC79A7" stroke-width="2"/>
<polyline points="70,337 143,337 216,337 290,337 363,337 436,337 510,337 583,337 656,337 730,337" fill="none" stroke="#D55E00" stroke-width="2"/>
<polyline points="70,302 143,302 216,303 290,303 363,301 436,306 510,306 583,305 656,306 730,307" fill="none" stroke="#009E73" stroke-width="2"/>
<polyline points="70,63 143,63 216,63 290,64 363,63 436,63 510,63 583,63 656,63 730,64" fill="none" stroke="#56B4E9" stroke-width="2"/>
<circle cx="70" cy="59" r="3" fill="#0072B2"/>
<circle cx="70" cy="44" r="3" fill="#CC79A7"/>
<circle cx="70" cy="337" r="3" fill="#D55E00"/>
<circle cx="70" cy="302" r="3" fill="#009E73"/>
<circle cx="70" cy="63" r="3" fill="#56B4E9"/>
<circle cx="143" cy="61" r="3" fill="#0072B2"/>
<circle cx="143" cy="46" r="3" fill="#CC79A7"/>
<circle cx="143" cy="337" r="3" fill="#D55E00"/>
<circle cx="143" cy="302" r="3" fill="#009E73"/>
<circle cx="143" cy="63" r="3" fill="#56B4E9"/>
<circle cx="216" cy="57" r="3" fill="#0072B2"/>
<circle cx="216" cy="47" r="3" fill="#CC79A7"/>
<circle cx="216" cy="337" r="3" fill="#D55E00"/>
<circle cx="216" cy="303" r="3" fill="#009E73"/>
<circle cx="216" cy="63" r="3" fill="#56B4E9"/>
<circle cx="290" cy="59" r="3" fill="#0072B2"/>
<circle cx="290" cy="48" r="3" fill="#CC79A7"/>
<circle cx="290" cy="337" r="3" fill="#D55E00"/>
<circle cx="290" cy="303" r="3" fill="#009E73"/>
<circle cx="290" cy="64" r="3" fill="#56B4E9"/>
<circle cx="363" cy="51" r="3" fill="#0072B2"/>
<circle cx="363" cy="42" r="3" fill="#CC79A7"/>
<circle cx="363" cy="337" r="3" fill="#D55E00"/>
<circle cx="363" cy="301" r="3" fill="#009E73"/>
<circle cx="363" cy="63" r="3" fill="#56B4E9"/>
<circle cx="436" cy="87" r="3" fill="#0072B2"/>
<circle cx="436" cy="75" r="3" fill="#CC79A7"/>
<circle cx="436" cy="337" r="3" fill="#D55E00"/>
<circle cx="436" cy="306" r="3" fill="#009E73"/>
<circle cx="436" cy="63" r="3" fill="#56B4E9"/>
<circle cx="510" cy="86" r="3" fill="#0072B2"/>
<circle cx="510" cy="71" r="3" fill="#CC79A7"/>
<circle cx="510" cy="337" r="3" fill="#D55E00"/>
<circle cx="510" cy="306" r="3" fill="#009E73"/>
<circle cx="510" cy="63" r="3" fill="#56B4E9"/>
<circle cx="583" cy="85" r="3" fill="#0072B2"/>
<circle cx="583" cy="73" r="3" fill="#CC79A7"/>
<circle cx="583" cy="337" r="3" fill="#D55E00"/>
<circle cx="583" cy="305" r="3" fill="#009E73"/>
<circle cx="583" cy="63" r="3" fill="#56B4E9"/>
<circle cx="656" cy="86" r="3" fill="#0072B2"/>
<circle cx="656" cy="75" r="3" fill="#CC79A7"/>
<circle cx="656" cy="337" r="3" fill="#D55E00"/>
<circle cx="656" cy="306" r="3" fill="#009E73"/>
<circle cx="656" cy="63" r="3" fill="#56B4E9"/>
<circle cx="730" cy="91" r="3" fill="#0072B2"/>
<circle cx="730" cy="77" r="3" fill="#CC79A7"/>
<circle cx="730" cy="337" r="3" fill="#D55E00"/>
<circle cx="730" cy="307" r="3" fill="#009E73"/>
<circle cx="730" cy="64" r="3" fill="#56B4E9"/>
<circle cx="90" cy="20" r="4" fill="#0072B2"/>
<text x="98" y="24" text-anchor="start" font-size="12" fill="#0072B2">interpreted</text>
<circle cx="190" cy="20" r="4" fill="#CC79A7"/>
<text x="198" y="24" text-anchor="start" font-size="12" fill="#CC79A7">compiled</text>
<circle cx="275" cy="20" r="4" fill="#D55E00"/>
<text x="283" y="24" text-anchor="start" font-size="12" fill="#D55E00">executed</text>
<circle cx="355" cy="20" r="4" fill="#009E73"/>
<text x="363" y="24" text-anchor="start" font-size="12" fill="#009E73">wall</text>
<circle cx="420" cy="20" r="4" fill="#56B4E9"/>
<text x="428" y="24" text-anchor="start" font-size="12" fill="#56B4E9">memory</text>
</svg>
