<svg width="800" height="400" xmlns="http://www.w3.org/2000/svg">
<rect width="800" height="400" fill="white"/>
<line x1="70" y1="40" x2="70" y2="340" stroke="#333" stroke-width="1"/>
<line x1="70" y1="340" x2="730" y2="340" stroke="#333" stroke-width="1"/>
<line x1="730" y1="40" x2="730" y2="340" stroke="#333" stroke-width="1"/>
<text x="65" y="344" text-anchor="end" font-size="11" fill="#333">0</text>
<text x="65" y="194" text-anchor="end" font-size="11" fill="#333">200500</text>
<text x="65" y="44" text-anchor="end" font-size="11" fill="#333">401000</text>
<text x="15" y="190" text-anchor="middle" font-size="12" fill="#333" transform="rotate(-90 15 190)">ms</text>
<text x="735" y="344" text-anchor="start" font-size="11" fill="#333">0</text>
<text x="735" y="194" text-anchor="start" font-size="11" fill="#333">10479000000</text>
<text x="735" y="44" text-anchor="start" font-size="11" fill="#333">20958000000</text>
<text x="785" y="190" text-anchor="middle" font-size="12" fill="#333" transform="rotate(90 785 190)">bytes</text>
<polyline points="70,74 143,170 216,164 290,165 363,164 436,164 510,164 583,163 656,163 730,188" fill="none" stroke="#0072B2" stroke-width="2"/>
<polyline points="70,41 143,124 216,119 290,119 363,116 436,119 510,116 583,117 656,119 730,142" fill="none" stroke="#CC79A7" stroke-width="2"/>
<polyline points="70,340 143,340 216,340 290,340 363,340 436,340 510,340 583,340 656,340 730,340" fill="none" stroke="#D55E00" stroke-width="2"/>
<polyline points="70,300 143,315 216,313 290,314 363,314 436,313 510,314 583,313 656,313 730,316" fill="none" stroke="#009E73" stroke-width="2"/>
<polyline points="70,299 143,299 216,299 290,299 363,299 436,299 510,299 583,299 656,298 730,298" fill="none" stroke="#56B4E9" stroke-width="2"/>
<polyline points="70,186 143,186 216,186 290,186 363,186 436,186 510,186 583,186 656,185 730,187" fill="none" stroke="#E69F00" stroke-width="2"/>
<polyline points="70,336 143,338 216,337 290,338 363,338 436,337 510,338 583,338 656,338 730,339" fill="none" stroke="#C44E52" stroke-width="2"/>
<polyline points="70,41 143,42 216,41 290,43 363,42 436,41 510,43 583,42 656,41 730,44" fill="none" stroke="#000000" stroke-width="2"/>
<circle cx="70" cy="74" r="3" fill="#0072B2"/>
<circle cx="70" cy="41" r="3" fill="#CC79A7"/>
<circle cx="70" cy="340" r="3" fill="#D55E00"/>
<circle cx="70" cy="300" r="3" fill="#009E73"/>
<circle cx="70" cy="299" r="3" fill="#56B4E9"/>
<circle cx="70" cy="186" r="3" fill="#E69F00"/>
<circle cx="70" cy="336" r="3" fill="#C44E52"/>
<circle cx="70" cy="41" r="3" fill="#000000"/>
<circle cx="143" cy="170" r="3" fill="#0072B2"/>
<circle cx="143" cy="124" r="3" fill="#CC79A7"/>
<circle cx="143" cy="340" r="3" fill="#D55E00"/>
<circle cx="143" cy="315" r="3" fill="#009E73"/>
<circle cx="143" cy="299" r="3" fill="#56B4E9"/>
<circle cx="143" cy="186" r="3" fill="#E69F00"/>
<circle cx="143" cy="338" r="3" fill="#C44E52"/>
<circle cx="143" cy="42" r="3" fill="#000000"/>
<circle cx="216" cy="164" r="3" fill="#0072B2"/>
<circle cx="216" cy="119" r="3" fill="#CC79A7"/>
<circle cx="216" cy="340" r="3" fill="#D55E00"/>
<circle cx="216" cy="313" r="3" fill="#009E73"/>
<circle cx="216" cy="299" r="3" fill="#56B4E9"/>
<circle cx="216" cy="186" r="3" fill="#E69F00"/>
<circle cx="216" cy="337" r="3" fill="#C44E52"/>
<circle cx="216" cy="41" r="3" fill="#000000"/>
<circle cx="290" cy="165" r="3" fill="#0072B2"/>
<circle cx="290" cy="119" r="3" fill="#CC79A7"/>
<circle cx="290" cy="340" r="3" fill="#D55E00"/>
<circle cx="290" cy="314" r="3" fill="#009E73"/>
<circle cx="290" cy="299" r="3" fill="#56B4E9"/>
<circle cx="290" cy="186" r="3" fill="#E69F00"/>
<circle cx="290" cy="338" r="3" fill="#C44E52"/>
<circle cx="290" cy="43" r="3" fill="#000000"/>
<circle cx="363" cy="164" r="3" fill="#0072B2"/>
<circle cx="363" cy="116" r="3" fill="#CC79A7"/>
<circle cx="363" cy="340" r="3" fill="#D55E00"/>
<circle cx="363" cy="314" r="3" fill="#009E73"/>
<circle cx="363" cy="299" r="3" fill="#56B4E9"/>
<circle cx="363" cy="186" r="3" fill="#E69F00"/>
<circle cx="363" cy="338" r="3" fill="#C44E52"/>
<circle cx="363" cy="42" r="3" fill="#000000"/>
<circle cx="436" cy="164" r="3" fill="#0072B2"/>
<circle cx="436" cy="119" r="3" fill="#CC79A7"/>
<circle cx="436" cy="340" r="3" fill="#D55E00"/>
<circle cx="436" cy="313" r="3" fill="#009E73"/>
<circle cx="436" cy="299" r="3" fill="#56B4E9"/>
<circle cx="436" cy="186" r="3" fill="#E69F00"/>
<circle cx="436" cy="337" r="3" fill="#C44E52"/>
<circle cx="436" cy="41" r="3" fill="#000000"/>
<circle cx="510" cy="164" r="3" fill="#0072B2"/>
<circle cx="510" cy="116" r="3" fill="#CC79A7"/>
<circle cx="510" cy="340" r="3" fill="#D55E00"/>
<circle cx="510" cy="314" r="3" fill="#009E73"/>
<circle cx="510" cy="299" r="3" fill="#56B4E9"/>
<circle cx="510" cy="186" r="3" fill="#E69F00"/>
<circle cx="510" cy="338" r="3" fill="#C44E52"/>
<circle cx="510" cy="43" r="3" fill="#000000"/>
<circle cx="583" cy="163" r="3" fill="#0072B2"/>
<circle cx="583" cy="117" r="3" fill="#CC79A7"/>
<circle cx="583" cy="340" r="3" fill="#D55E00"/>
<circle cx="583" cy="313" r="3" fill="#009E73"/>
<circle cx="583" cy="299" r="3" fill="#56B4E9"/>
<circle cx="583" cy="186" r="3" fill="#E69F00"/>
<circle cx="583" cy="338" r="3" fill="#C44E52"/>
<circle cx="583" cy="42" r="3" fill="#000000"/>
<circle cx="656" cy="163" r="3" fill="#0072B2"/>
<circle cx="656" cy="119" r="3" fill="#CC79A7"/>
<circle cx="656" cy="340" r="3" fill="#D55E00"/>
<circle cx="656" cy="313" r="3" fill="#009E73"/>
<circle cx="656" cy="298" r="3" fill="#56B4E9"/>
<circle cx="656" cy="185" r="3" fill="#E69F00"/>
<circle cx="656" cy="338" r="3" fill="#C44E52"/>
<circle cx="656" cy="41" r="3" fill="#000000"/>
<circle cx="730" cy="188" r="3" fill="#0072B2"/>
<circle cx="730" cy="142" r="3" fill="#CC79A7"/>
<circle cx="730" cy="340" r="3" fill="#D55E00"/>
<circle cx="730" cy="316" r="3" fill="#009E73"/>
<circle cx="730" cy="298" r="3" fill="#56B4E9"/>
<circle cx="730" cy="187" r="3" fill="#E69F00"/>
<circle cx="730" cy="339" r="3" fill="#C44E52"/>
<circle cx="730" cy="44" r="3" fill="#000000"/>
<circle cx="90" cy="20" r="4" fill="#0072B2"/>
<text x="98" y="24" text-anchor="start" font-size="12" fill="#0072B2">inte</text>
<circle cx="150" cy="20" r="4" fill="#CC79A7"/>
<text x="158" y="24" text-anchor="start" font-size="12" fill="#CC79A7">comp</text>
<circle cx="215" cy="20" r="4" fill="#D55E00"/>
<text x="223" y="24" text-anchor="start" font-size="12" fill="#D55E00">run</text>
<circle cx="270" cy="20" r="4" fill="#009E73"/>
<text x="278" y="24" text-anchor="start" font-size="12" fill="#009E73">wall</text>
<circle cx="335" cy="20" r="4" fill="#56B4E9"/>
<text x="343" y="24" text-anchor="start" font-size="12" fill="#56B4E9">mem-inte</text>
<circle cx="425" cy="20" r="4" fill="#E69F00"/>
<text x="433" y="24" text-anchor="start" font-size="12" fill="#E69F00">mem-comp</text>
<circle cx="520" cy="20" r="4" fill="#C44E52"/>
<text x="528" y="24" text-anchor="start" font-size="12" fill="#C44E52">mem-run</text>
<circle cx="605" cy="20" r="4" fill="#000000"/>
<text x="613" y="24" text-anchor="start" font-size="12" fill="#000000">mem-total</text>
</svg>
