<svg width="800" height="400" xmlns="http://www.w3.org/2000/svg">
<rect width="800" height="400" fill="white"/>
<line x1="70" y1="40" x2="70" y2="340" stroke="#333" stroke-width="1"/>
<line x1="70" y1="340" x2="780" y2="340" stroke="#333" stroke-width="1"/>
<text x="65" y="344" text-anchor="end" font-size="11" fill="#333">0</text>
<text x="65" y="194" text-anchor="end" font-size="11" fill="#333">79500</text>
<text x="65" y="44" text-anchor="end" font-size="11" fill="#333">159000</text>
<text x="15" y="190" text-anchor="middle" font-size="12" fill="#333" transform="rotate(-90 15 190)">ms</text>
<polyline points="70,57 148,60 227,57 306,57 385,47 464,47 543,45 622,47 701,45 780,41" fill="none" stroke="#0072B2" stroke-width="2"/>
<polyline points="70,60 148,61 227,59 306,60 385,52 464,50 543,47 622,48 701,47 780,47" fill="none" stroke="#CC79A7" stroke-width="2"/>
<polyline points="70,337 148,337 227,337 306,337 385,337 464,337 543,337 622,337 701,337 780,337" fill="none" stroke="#D55E00" stroke-width="2"/>
<polyline points="70,304 148,304 227,304 306,304 385,303 464,303 543,302 622,302 701,302 780,302" fill="none" stroke="#009E73" stroke-width="2"/>
<circle cx="70" cy="57" r="3" fill="#0072B2"/>
<circle cx="70" cy="60" r="3" fill="#CC79A7"/>
<circle cx="70" cy="337" r="3" fill="#D55E00"/>
<circle cx="70" cy="304" r="3" fill="#009E73"/>
<circle cx="148" cy="60" r="3" fill="#0072B2"/>
<circle cx="148" cy="61" r="3" fill="#CC79A7"/>
<circle cx="148" cy="337" r="3" fill="#D55E00"/>
<circle cx="148" cy="304" r="3" fill="#009E73"/>
<circle cx="227" cy="57" r="3" fill="#0072B2"/>
<circle cx="227" cy="59" r="3" fill="#CC79A7"/>
<circle cx="227" cy="337" r="3" fill="#D55E00"/>
<circle cx="227" cy="304" r="3" fill="#009E73"/>
<circle cx="306" cy="57" r="3" fill="#0072B2"/>
<circle cx="306" cy="60" r="3" fill="#CC79A7"/>
<circle cx="306" cy="337" r="3" fill="#D55E00"/>
<circle cx="306" cy="304" r="3" fill="#009E73"/>
<circle cx="385" cy="47" r="3" fill="#0072B2"/>
<circle cx="385" cy="52" r="3" fill="#CC79A7"/>
<circle cx="385" cy="337" r="3" fill="#D55E00"/>
<circle cx="385" cy="303" r="3" fill="#009E73"/>
<circle cx="464" cy="47" r="3" fill="#0072B2"/>
<circle cx="464" cy="50" r="3" fill="#CC79A7"/>
<circle cx="464" cy="337" r="3" fill="#D55E00"/>
<circle cx="464" cy="303" r="3" fill="#009E73"/>
<circle cx="543" cy="45" r="3" fill="#0072B2"/>
<circle cx="543" cy="47" r="3" fill="#CC79A7"/>
<circle cx="543" cy="337" r="3" fill="#D55E00"/>
<circle cx="543" cy="302" r="3" fill="#009E73"/>
<circle cx="622" cy="47" r="3" fill="#0072B2"/>
<circle cx="622" cy="48" r="3" fill="#CC79A7"/>
<circle cx="622" cy="337" r="3" fill="#D55E00"/>
<circle cx="622" cy="302" r="3" fill="#009E73"/>
<circle cx="701" cy="45" r="3" fill="#0072B2"/>
<circle cx="701" cy="47" r="3" fill="#CC79A7"/>
<circle cx="701" cy="337" r="3" fill="#D55E00"/>
<circle cx="701" cy="302" r="3" fill="#009E73"/>
<circle cx="780" cy="41" r="3" fill="#0072B2"/>
<circle cx="780" cy="47" r="3" fill="#CC79A7"/>
<circle cx="780" cy="337" r="3" fill="#D55E00"/>
<circle cx="780" cy="302" r="3" fill="#009E73"/>
<circle cx="90" cy="20" r="4" fill="#0072B2"/>
<text x="98" y="24" text-anchor="start" font-size="12" fill="#0072B2">interpreted</text>
<circle cx="190" cy="20" r="4" fill="#CC79A7"/>
<text x="198" y="24" text-anchor="start" font-size="12" fill="#CC79A7">compiled</text>
<circle cx="275" cy="20" r="4" fill="#D55E00"/>
<text x="283" y="24" text-anchor="start" font-size="12" fill="#D55E00">executed</text>
<circle cx="355" cy="20" r="4" fill="#009E73"/>
<text x="363" y="24" text-anchor="start" font-size="12" fill="#009E73">wall</text>
</svg>
