<svg width="800" height="400" xmlns="http://www.w3.org/2000/svg">
<rect width="800" height="400" fill="white"/>
<line x1="70" y1="40" x2="70" y2="340" stroke="#333" stroke-width="1"/>
<line x1="70" y1="340" x2="730" y2="340" stroke="#333" stroke-width="1"/>
<line x1="730" y1="40" x2="730" y2="340" stroke="#333" stroke-width="1"/>
<text x="65" y="344" text-anchor="end" font-size="11" fill="#333">0</text>
<text x="65" y="194" text-anchor="end" font-size="11" fill="#333">393000</text>
<text x="65" y="44" text-anchor="end" font-size="11" fill="#333">786000</text>
<text x="15" y="190" text-anchor="middle" font-size="12" fill="#333" transform="rotate(-90 15 190)">ms</text>
<text x="735" y="344" text-anchor="start" font-size="11" fill="#333">0</text>
<text x="735" y="194" text-anchor="start" font-size="11" fill="#333">6973000000</text>
<text x="735" y="44" text-anchor="start" font-size="11" fill="#333">13946000000</text>
<text x="785" y="190" text-anchor="middle" font-size="12" fill="#333" transform="rotate(90 785 190)">bytes</text>
<polyline points="70,162 143,130 216,174 290,179 363,153 436,188 510,191 583,187 656,184 730,173" fill="none" stroke="#0072B2" stroke-width="2"/>
<polyline points="70,137 143,105 216,71 290,86 363,41 436,86 510,158 583,159 656,160 730,160" fill="none" stroke="#CC79A7" stroke-width="2"/>
<polyline points="70,340 143,340 216,340 290,340 363,340 436,340 510,340 583,340 656,340 730,340" fill="none" stroke="#D55E00" stroke-width="2"/>
<polyline points="70,282 143,272 216,274 290,277 363,268 436,277 510,288 583,288 656,289 730,287" fill="none" stroke="#009E73" stroke-width="2"/>
<polyline points="70,256 143,256 216,260 290,260 363,260 436,260 510,260 583,259 656,259 730,259" fill="none" stroke="#56B4E9" stroke-width="2"/>
<polyline points="70,207 143,202 216,178 290,178 363,178 436,178 510,216 583,213 656,214 730,216" fill="none" stroke="#E69F00" stroke-width="2"/>
<polyline points="70,340 143,340 216,340 290,340 363,340 436,340 510,340 583,340 656,340 730,340" fill="none" stroke="#C44E52" stroke-width="2"/>
<polyline points="70,70 143,65 216,41 290,41 363,41 436,41 510,82 583,80 656,81 730,84" fill="none" stroke="#000000" stroke-width="2"/>
<circle cx="70" cy="162" r="3" fill="#0072B2"/>
<circle cx="70" cy="137" r="3" fill="#CC79A7"/>
<circle cx="70" cy="340" r="3" fill="#D55E00"/>
<circle cx="70" cy="282" r="3" fill="#009E73"/>
<circle cx="70" cy="256" r="3" fill="#56B4E9"/>
<circle cx="70" cy="207" r="3" fill="#E69F00"/>
<circle cx="70" cy="340" r="3" fill="#C44E52"/>
<circle cx="70" cy="70" r="3" fill="#000000"/>
<circle cx="143" cy="130" r="3" fill="#0072B2"/>
<circle cx="143" cy="105" r="3" fill="#CC79A7"/>
<circle cx="143" cy="340" r="3" fill="#D55E00"/>
<circle cx="143" cy="272" r="3" fill="#009E73"/>
<circle cx="143" cy="256" r="3" fill="#56B4E9"/>
<circle cx="143" cy="202" r="3" fill="#E69F00"/>
<circle cx="143" cy="340" r="3" fill="#C44E52"/>
<circle cx="143" cy="65" r="3" fill="#000000"/>
<circle cx="216" cy="174" r="3" fill="#0072B2"/>
<circle cx="216" cy="71" r="3" fill="#CC79A7"/>
<circle cx="216" cy="340" r="3" fill="#D55E00"/>
<circle cx="216" cy="274" r="3" fill="#009E73"/>
<circle cx="216" cy="260" r="3" fill="#56B4E9"/>
<circle cx="216" cy="178" r="3" fill="#E69F00"/>
<circle cx="216" cy="340" r="3" fill="#C44E52"/>
<circle cx="216" cy="41" r="3" fill="#000000"/>
<circle cx="290" cy="179" r="3" fill="#0072B2"/>
<circle cx="290" cy="86" r="3" fill="#CC79A7"/>
<circle cx="290" cy="340" r="3" fill="#D55E00"/>
<circle cx="290" cy="277" r="3" fill="#009E73"/>
<circle cx="290" cy="260" r="3" fill="#56B4E9"/>
<circle cx="290" cy="178" r="3" fill="#E69F00"/>
<circle cx="290" cy="340" r="3" fill="#C44E52"/>
<circle cx="290" cy="41" r="3" fill="#000000"/>
<circle cx="363" cy="153" r="3" fill="#0072B2"/>
<circle cx="363" cy="41" r="3" fill="#CC79A7"/>
<circle cx="363" cy="340" r="3" fill="#D55E00"/>
<circle cx="363" cy="268" r="3" fill="#009E73"/>
<circle cx="363" cy="260" r="3" fill="#56B4E9"/>
<circle cx="363" cy="178" r="3" fill="#E69F00"/>
<circle cx="363" cy="340" r="3" fill="#C44E52"/>
<circle cx="363" cy="41" r="3" fill="#000000"/>
<circle cx="436" cy="188" r="3" fill="#0072B2"/>
<circle cx="436" cy="86" r="3" fill="#CC79A7"/>
<circle cx="436" cy="340" r="3" fill="#D55E00"/>
<circle cx="436" cy="277" r="3" fill="#009E73"/>
<circle cx="436" cy="260" r="3" fill="#56B4E9"/>
<circle cx="436" cy="178" r="3" fill="#E69F00"/>
<circle cx="436" cy="340" r="3" fill="#C44E52"/>
<circle cx="436" cy="41" r="3" fill="#000000"/>
<circle cx="510" cy="191" r="3" fill="#0072B2"/>
<circle cx="510" cy="158" r="3" fill="#CC79A7"/>
<circle cx="510" cy="340" r="3" fill="#D55E00"/>
<circle cx="510" cy="288" r="3" fill="#009E73"/>
<circle cx="510" cy="260" r="3" fill="#56B4E9"/>
<circle cx="510" cy="216" r="3" fill="#E69F00"/>
<circle cx="510" cy="340" r="3" fill="#C44E52"/>
<circle cx="510" cy="82" r="3" fill="#000000"/>
<circle cx="583" cy="187" r="3" fill="#0072B2"/>
<circle cx="583" cy="159" r="3" fill="#CC79A7"/>
<circle cx="583" cy="340" r="3" fill="#D55E00"/>
<circle cx="583" cy="288" r="3" fill="#009E73"/>
<circle cx="583" cy="259" r="3" fill="#56B4E9"/>
<circle cx="583" cy="213" r="3" fill="#E69F00"/>
<circle cx="583" cy="340" r="3" fill="#C44E52"/>
<circle cx="583" cy="80" r="3" fill="#000000"/>
<circle cx="656" cy="184" r="3" fill="#0072B2"/>
<circle cx="656" cy="160" r="3" fill="#CC79A7"/>
<circle cx="656" cy="340" r="3" fill="#D55E00"/>
<circle cx="656" cy="289" r="3" fill="#009E73"/>
<circle cx="656" cy="259" r="3" fill="#56B4E9"/>
<circle cx="656" cy="214" r="3" fill="#E69F00"/>
<circle cx="656" cy="340" r="3" fill="#C44E52"/>
<circle cx="656" cy="81" r="3" fill="#000000"/>
<circle cx="730" cy="173" r="3" fill="#0072B2"/>
<circle cx="730" cy="160" r="3" fill="#CC79A7"/>
<circle cx="730" cy="340" r="3" fill="#D55E00"/>
<circle cx="730" cy="287" r="3" fill="#009E73"/>
<circle cx="730" cy="259" r="3" fill="#56B4E9"/>
<circle cx="730" cy="216" r="3" fill="#E69F00"/>
<circle cx="730" cy="340" r="3" fill="#C44E52"/>
<circle cx="730" cy="84" r="3" fill="#000000"/>
<circle cx="90" cy="20" r="4" fill="#0072B2"/>
<text x="98" y="24" text-anchor="start" font-size="12" fill="#0072B2">inte</text>
<circle cx="150" cy="20" r="4" fill="#CC79A7"/>
<text x="158" y="24" text-anchor="start" font-size="12" fill="#CC79A7">comp</text>
<circle cx="215" cy="20" r="4" fill="#D55E00"/>
<text x="223" y="24" text-anchor="start" font-size="12" fill="#D55E00">run</text>
<circle cx="270" cy="20" r="4" fill="#009E73"/>
<text x="278" y="24" text-anchor="start" font-size="12" fill="#009E73">wall</text>
<circle cx="335" cy="20" r="4" fill="#56B4E9"/>
<text x="343" y="24" text-anchor="start" font-size="12" fill="#56B4E9">mem-inte</text>
<circle cx="425" cy="20" r="4" fill="#E69F00"/>
<text x="433" y="24" text-anchor="start" font-size="12" fill="#E69F00">mem-comp</text>
<circle cx="520" cy="20" r="4" fill="#C44E52"/>
<text x="528" y="24" text-anchor="start" font-size="12" fill="#C44E52">mem-run</text>
<circle cx="605" cy="20" r="4" fill="#000000"/>
<text x="613" y="24" text-anchor="start" font-size="12" fill="#000000">mem-total</text>
</svg>
