<svg width="800" height="400" xmlns="http://www.w3.org/2000/svg">
<rect width="800" height="400" fill="white"/>
<line x1="70" y1="40" x2="70" y2="340" stroke="#333" stroke-width="1"/>
<line x1="70" y1="340" x2="730" y2="340" stroke="#333" stroke-width="1"/>
<line x1="730" y1="40" x2="730" y2="340" stroke="#333" stroke-width="1"/>
<text x="65" y="344" text-anchor="end" font-size="11" fill="#333">0</text>
<text x="65" y="194" text-anchor="end" font-size="11" fill="#333">127000</text>
<text x="65" y="44" text-anchor="end" font-size="11" fill="#333">254000</text>
<text x="15" y="190" text-anchor="middle" font-size="12" fill="#333" transform="rotate(-90 15 190)">ms</text>
<text x="735" y="344" text-anchor="start" font-size="11" fill="#333">0</text>
<text x="735" y="194" text-anchor="start" font-size="11" fill="#333">8598000000</text>
<text x="735" y="44" text-anchor="start" font-size="11" fill="#333">17196000000</text>
<text x="785" y="190" text-anchor="middle" font-size="12" fill="#333" transform="rotate(90 785 190)">bytes</text>
<polyline points="70,44 143,41 216,50 290,49 363,43 436,47 510,51 583,48 656,47 730,44" fill="none" stroke="#0072B2" stroke-width="2"/>
<polyline points="70,77 143,76 216,80 290,79 363,79 436,76 510,79 583,79 656,79 730,78" fill="none" stroke="#CC79A7" stroke-width="2"/>
<polyline points="70,340 143,340 216,340 290,340 363,340 436,340 510,340 583,340 656,340 730,340" fill="none" stroke="#D55E00" stroke-width="2"/>
<polyline points="70,284 143,284 216,286 290,285 363,285 436,284 510,286 583,286 656,285 730,284" fill="none" stroke="#009E73" stroke-width="2"/>
<polyline points="70,286 143,286 216,286 290,286 363,303 436,303 510,303 583,303 656,303 730,303" fill="none" stroke="#56B4E9" stroke-width="2"/>
<polyline points="70,219 143,219 216,219 290,218 363,235 436,235 510,235 583,235 656,235 730,235" fill="none" stroke="#E69F00" stroke-width="2"/>
<polyline points="70,340 143,338 216,339 290,339 363,339 436,339 510,339 583,340 656,340 730,339" fill="none" stroke="#C44E52" stroke-width="2"/>
<polyline points="70,41 143,41 216,42 290,41 363,85 436,87 510,83 583,85 656,84 730,86" fill="none" stroke="#000000" stroke-width="2"/>
<circle cx="70" cy="44" r="3" fill="#0072B2"/>
<circle cx="70" cy="77" r="3" fill="#CC79A7"/>
<circle cx="70" cy="340" r="3" fill="#D55E00"/>
<circle cx="70" cy="284" r="3" fill="#009E73"/>
<circle cx="70" cy="286" r="3" fill="#56B4E9"/>
<circle cx="70" cy="219" r="3" fill="#E69F00"/>
<circle cx="70" cy="340" r="3" fill="#C44E52"/>
<circle cx="70" cy="41" r="3" fill="#000000"/>
<circle cx="143" cy="41" r="3" fill="#0072B2"/>
<circle cx="143" cy="76" r="3" fill="#CC79A7"/>
<circle cx="143" cy="340" r="3" fill="#D55E00"/>
<circle cx="143" cy="284" r="3" fill="#009E73"/>
<circle cx="143" cy="286" r="3" fill="#56B4E9"/>
<circle cx="143" cy="219" r="3" fill="#E69F00"/>
<circle cx="143" cy="338" r="3" fill="#C44E52"/>
<circle cx="143" cy="41" r="3" fill="#000000"/>
<circle cx="216" cy="50" r="3" fill="#0072B2"/>
<circle cx="216" cy="80" r="3" fill="#CC79A7"/>
<circle cx="216" cy="340" r="3" fill="#D55E00"/>
<circle cx="216" cy="286" r="3" fill="#009E73"/>
<circle cx="216" cy="286" r="3" fill="#56B4E9"/>
<circle cx="216" cy="219" r="3" fill="#E69F00"/>
<circle cx="216" cy="339" r="3" fill="#C44E52"/>
<circle cx="216" cy="42" r="3" fill="#000000"/>
<circle cx="290" cy="49" r="3" fill="#0072B2"/>
<circle cx="290" cy="79" r="3" fill="#CC79A7"/>
<circle cx="290" cy="340" r="3" fill="#D55E00"/>
<circle cx="290" cy="285" r="3" fill="#009E73"/>
<circle cx="290" cy="286" r="3" fill="#56B4E9"/>
<circle cx="290" cy="218" r="3" fill="#E69F00"/>
<circle cx="290" cy="339" r="3" fill="#C44E52"/>
<circle cx="290" cy="41" r="3" fill="#000000"/>
<circle cx="363" cy="43" r="3" fill="#0072B2"/>
<circle cx="363" cy="79" r="3" fill="#CC79A7"/>
<circle cx="363" cy="340" r="3" fill="#D55E00"/>
<circle cx="363" cy="285" r="3" fill="#009E73"/>
<circle cx="363" cy="303" r="3" fill="#56B4E9"/>
<circle cx="363" cy="235" r="3" fill="#E69F00"/>
<circle cx="363" cy="339" r="3" fill="#C44E52"/>
<circle cx="363" cy="85" r="3" fill="#000000"/>
<circle cx="436" cy="47" r="3" fill="#0072B2"/>
<circle cx="436" cy="76" r="3" fill="#CC79A7"/>
<circle cx="436" cy="340" r="3" fill="#D55E00"/>
<circle cx="436" cy="284" r="3" fill="#009E73"/>
<circle cx="436" cy="303" r="3" fill="#56B4E9"/>
<circle cx="436" cy="235" r="3" fill="#E69F00"/>
<circle cx="436" cy="339" r="3" fill="#C44E52"/>
<circle cx="436" cy="87" r="3" fill="#000000"/>
<circle cx="510" cy="51" r="3" fill="#0072B2"/>
<circle cx="510" cy="79" r="3" fill="#CC79A7"/>
<circle cx="510" cy="340" r="3" fill="#D55E00"/>
<circle cx="510" cy="286" r="3" fill="#009E73"/>
<circle cx="510" cy="303" r="3" fill="#56B4E9"/>
<circle cx="510" cy="235" r="3" fill="#E69F00"/>
<circle cx="510" cy="339" r="3" fill="#C44E52"/>
<circle cx="510" cy="83" r="3" fill="#000000"/>
<circle cx="583" cy="48" r="3" fill="#0072B2"/>
<circle cx="583" cy="79" r="3" fill="#CC79A7"/>
<circle cx="583" cy="340" r="3" fill="#D55E00"/>
<circle cx="583" cy="286" r="3" fill="#009E73"/>
<circle cx="583" cy="303" r="3" fill="#56B4E9"/>
<circle cx="583" cy="235" r="3" fill="#E69F00"/>
<circle cx="583" cy="340" r="3" fill="#C44E52"/>
<circle cx="583" cy="85" r="3" fill="#000000"/>
<circle cx="656" cy="47" r="3" fill="#0072B2"/>
<circle cx="656" cy="79" r="3" fill="#CC79A7"/>
<circle cx="656" cy="340" r="3" fill="#D55E00"/>
<circle cx="656" cy="285" r="3" fill="#009E73"/>
<circle cx="656" cy="303" r="3" fill="#56B4E9"/>
<circle cx="656" cy="235" r="3" fill="#E69F00"/>
<circle cx="656" cy="340" r="3" fill="#C44E52"/>
<circle cx="656" cy="84" r="3" fill="#000000"/>
<circle cx="730" cy="44" r="3" fill="#0072B2"/>
<circle cx="730" cy="78" r="3" fill="#CC79A7"/>
<circle cx="730" cy="340" r="3" fill="#D55E00"/>
<circle cx="730" cy="284" r="3" fill="#009E73"/>
<circle cx="730" cy="303" r="3" fill="#56B4E9"/>
<circle cx="730" cy="235" r="3" fill="#E69F00"/>
<circle cx="730" cy="339" r="3" fill="#C44E52"/>
<circle cx="730" cy="86" r="3" fill="#000000"/>
<circle cx="90" cy="20" r="4" fill="#0072B2"/>
<text x="98" y="24" text-anchor="start" font-size="12" fill="#0072B2">inte</text>
<circle cx="150" cy="20" r="4" fill="#CC79A7"/>
<text x="158" y="24" text-anchor="start" font-size="12" fill="#CC79A7">comp</text>
<circle cx="215" cy="20" r="4" fill="#D55E00"/>
<text x="223" y="24" text-anchor="start" font-size="12" fill="#D55E00">run</text>
<circle cx="270" cy="20" r="4" fill="#009E73"/>
<text x="278" y="24" text-anchor="start" font-size="12" fill="#009E73">wall</text>
<circle cx="335" cy="20" r="4" fill="#56B4E9"/>
<text x="343" y="24" text-anchor="start" font-size="12" fill="#56B4E9">mem-inte</text>
<circle cx="425" cy="20" r="4" fill="#E69F00"/>
<text x="433" y="24" text-anchor="start" font-size="12" fill="#E69F00">mem-comp</text>
<circle cx="520" cy="20" r="4" fill="#C44E52"/>
<text x="528" y="24" text-anchor="start" font-size="12" fill="#C44E52">mem-run</text>
<circle cx="605" cy="20" r="4" fill="#000000"/>
<text x="613" y="24" text-anchor="start" font-size="12" fill="#000000">mem-total</text>
</svg>
