<svg width="800" height="400" xmlns="http://www.w3.org/2000/svg">
<rect width="800" height="400" fill="white"/>
<line x1="70" y1="40" x2="70" y2="340" stroke="#333" stroke-width="1"/>
<line x1="70" y1="340" x2="730" y2="340" stroke="#333" stroke-width="1"/>
<line x1="730" y1="40" x2="730" y2="340" stroke="#333" stroke-width="1"/>
<text x="65" y="344" text-anchor="end" font-size="11" fill="#333">0</text>
<text x="65" y="194" text-anchor="end" font-size="11" fill="#333">63500</text>
<text x="65" y="44" text-anchor="end" font-size="11" fill="#333">127000</text>
<text x="15" y="190" text-anchor="middle" font-size="12" fill="#333" transform="rotate(-90 15 190)">ms</text>
<text x="735" y="344" text-anchor="start" font-size="11" fill="#333">0</text>
<text x="735" y="194" text-anchor="start" font-size="11" fill="#333">7501000000</text>
<text x="735" y="44" text-anchor="start" font-size="11" fill="#333">15002000000</text>
<text x="785" y="190" text-anchor="middle" font-size="12" fill="#333" transform="rotate(90 785 190)">bytes</text>
<polyline points="70,56 143,59 216,55 290,56 363,58 436,58 510,62 583,58 656,49 730,51" fill="none" stroke="#0072B2" stroke-width="2"/>
<polyline points="70,51 143,48 216,49 290,48 363,51 436,48 510,55 583,50 656,41 730,45" fill="none" stroke="#CC79A7" stroke-width="2"/>
<polyline points="70,340 143,340 216,340 290,340 363,340 436,340 510,340 583,340 656,340 730,340" fill="none" stroke="#D55E00" stroke-width="2"/>
<polyline points="70,302 143,302 216,301 290,301 363,301 436,301 510,302 583,302 656,300 730,301" fill="none" stroke="#009E73" stroke-width="2"/>
<polyline points="70,248 143,251 216,243 290,248 363,246 436,248 510,248 583,248 656,234 730,237" fill="none" stroke="#56B4E9" stroke-width="2"/>
<polyline points="70,208 143,212 216,208 290,214 363,214 436,213 510,215 583,211 656,198 730,202" fill="none" stroke="#E69F00" stroke-width="2"/>
<polyline points="70,340 143,340 216,340 290,340 363,340 436,340 510,340 583,340 656,340 730,340" fill="none" stroke="#C44E52" stroke-width="2"/>
<polyline points="70,65 143,72 216,61 290,72 363,69 436,70 510,73 583,69 656,41 730,47" fill="none" stroke="#000000" stroke-width="2"/>
<circle cx="70" cy="56" r="3" fill="#0072B2"/>
<circle cx="70" cy="51" r="3" fill="#CC79A7"/>
<circle cx="70" cy="340" r="3" fill="#D55E00"/>
<circle cx="70" cy="302" r="3" fill="#009E73"/>
<circle cx="70" cy="248" r="3" fill="#56B4E9"/>
<circle cx="70" cy="208" r="3" fill="#E69F00"/>
<circle cx="70" cy="340" r="3" fill="#C44E52"/>
<circle cx="70" cy="65" r="3" fill="#000000"/>
<circle cx="143" cy="59" r="3" fill="#0072B2"/>
<circle cx="143" cy="48" r="3" fill="#CC79A7"/>
<circle cx="143" cy="340" r="3" fill="#D55E00"/>
<circle cx="143" cy="302" r="3" fill="#009E73"/>
<circle cx="143" cy="251" r="3" fill="#56B4E9"/>
<circle cx="143" cy="212" r="3" fill="#E69F00"/>
<circle cx="143" cy="340" r="3" fill="#C44E52"/>
<circle cx="143" cy="72" r="3" fill="#000000"/>
<circle cx="216" cy="55" r="3" fill="#0072B2"/>
<circle cx="216" cy="49" r="3" fill="#CC79A7"/>
<circle cx="216" cy="340" r="3" fill="#D55E00"/>
<circle cx="216" cy="301" r="3" fill="#009E73"/>
<circle cx="216" cy="243" r="3" fill="#56B4E9"/>
<circle cx="216" cy="208" r="3" fill="#E69F00"/>
<circle cx="216" cy="340" r="3" fill="#C44E52"/>
<circle cx="216" cy="61" r="3" fill="#000000"/>
<circle cx="290" cy="56" r="3" fill="#0072B2"/>
<circle cx="290" cy="48" r="3" fill="#CC79A7"/>
<circle cx="290" cy="340" r="3" fill="#D55E00"/>
<circle cx="290" cy="301" r="3" fill="#009E73"/>
<circle cx="290" cy="248" r="3" fill="#56B4E9"/>
<circle cx="290" cy="214" r="3" fill="#E69F00"/>
<circle cx="290" cy="340" r="3" fill="#C44E52"/>
<circle cx="290" cy="72" r="3" fill="#000000"/>
<circle cx="363" cy="58" r="3" fill="#0072B2"/>
<circle cx="363" cy="51" r="3" fill="#CC79A7"/>
<circle cx="363" cy="340" r="3" fill="#D55E00"/>
<circle cx="363" cy="301" r="3" fill="#009E73"/>
<circle cx="363" cy="246" r="3" fill="#56B4E9"/>
<circle cx="363" cy="214" r="3" fill="#E69F00"/>
<circle cx="363" cy="340" r="3" fill="#C44E52"/>
<circle cx="363" cy="69" r="3" fill="#000000"/>
<circle cx="436" cy="58" r="3" fill="#0072B2"/>
<circle cx="436" cy="48" r="3" fill="#CC79A7"/>
<circle cx="436" cy="340" r="3" fill="#D55E00"/>
<circle cx="436" cy="301" r="3" fill="#009E73"/>
<circle cx="436" cy="248" r="3" fill="#56B4E9"/>
<circle cx="436" cy="213" r="3" fill="#E69F00"/>
<circle cx="436" cy="340" r="3" fill="#C44E52"/>
<circle cx="436" cy="70" r="3" fill="#000000"/>
<circle cx="510" cy="62" r="3" fill="#0072B2"/>
<circle cx="510" cy="55" r="3" fill="#CC79A7"/>
<circle cx="510" cy="340" r="3" fill="#D55E00"/>
<circle cx="510" cy="302" r="3" fill="#009E73"/>
<circle cx="510" cy="248" r="3" fill="#56B4E9"/>
<circle cx="510" cy="215" r="3" fill="#E69F00"/>
<circle cx="510" cy="340" r="3" fill="#C44E52"/>
<circle cx="510" cy="73" r="3" fill="#000000"/>
<circle cx="583" cy="58" r="3" fill="#0072B2"/>
<circle cx="583" cy="50" r="3" fill="#CC79A7"/>
<circle cx="583" cy="340" r="3" fill="#D55E00"/>
<circle cx="583" cy="302" r="3" fill="#009E73"/>
<circle cx="583" cy="248" r="3" fill="#56B4E9"/>
<circle cx="583" cy="211" r="3" fill="#E69F00"/>
<circle cx="583" cy="340" r="3" fill="#C44E52"/>
<circle cx="583" cy="69" r="3" fill="#000000"/>
<circle cx="656" cy="49" r="3" fill="#0072B2"/>
<circle cx="656" cy="41" r="3" fill="#CC79A7"/>
<circle cx="656" cy="340" r="3" fill="#D55E00"/>
<circle cx="656" cy="300" r="3" fill="#009E73"/>
<circle cx="656" cy="234" r="3" fill="#56B4E9"/>
<circle cx="656" cy="198" r="3" fill="#E69F00"/>
<circle cx="656" cy="340" r="3" fill="#C44E52"/>
<circle cx="656" cy="41" r="3" fill="#000000"/>
<circle cx="730" cy="51" r="3" fill="#0072B2"/>
<circle cx="730" cy="45" r="3" fill="#CC79A7"/>
<circle cx="730" cy="340" r="3" fill="#D55E00"/>
<circle cx="730" cy="301" r="3" fill="#009E73"/>
<circle cx="730" cy="237" r="3" fill="#56B4E9"/>
<circle cx="730" cy="202" r="3" fill="#E69F00"/>
<circle cx="730" cy="340" r="3" fill="#C44E52"/>
<circle cx="730" cy="47" r="3" fill="#000000"/>
<circle cx="90" cy="20" r="4" fill="#0072B2"/>
<text x="98" y="24" text-anchor="start" font-size="12" fill="#0072B2">inte</text>
<circle cx="150" cy="20" r="4" fill="#CC79A7"/>
<text x="158" y="24" text-anchor="start" font-size="12" fill="#CC79A7">comp</text>
<circle cx="215" cy="20" r="4" fill="#D55E00"/>
<text x="223" y="24" text-anchor="start" font-size="12" fill="#D55E00">run</text>
<circle cx="270" cy="20" r="4" fill="#009E73"/>
<text x="278" y="24" text-anchor="start" font-size="12" fill="#009E73">wall</text>
<circle cx="335" cy="20" r="4" fill="#56B4E9"/>
<text x="343" y="24" text-anchor="start" font-size="12" fill="#56B4E9">mem-inte</text>
<circle cx="425" cy="20" r="4" fill="#E69F00"/>
<text x="433" y="24" text-anchor="start" font-size="12" fill="#E69F00">mem-comp</text>
<circle cx="520" cy="20" r="4" fill="#C44E52"/>
<text x="528" y="24" text-anchor="start" font-size="12" fill="#C44E52">mem-run</text>
<circle cx="605" cy="20" r="4" fill="#000000"/>
<text x="613" y="24" text-anchor="start" font-size="12" fill="#000000">mem-total</text>
</svg>
