<svg width="800" height="400" xmlns="http://www.w3.org/2000/svg">
<rect width="800" height="400" fill="white"/>
<line x1="70" y1="40" x2="70" y2="340" stroke="#333" stroke-width="1"/>
<line x1="70" y1="340" x2="780" y2="340" stroke="#333" stroke-width="1"/>
<text x="65" y="344" text-anchor="end" font-size="11" fill="#333">0</text>
<text x="65" y="194" text-anchor="end" font-size="11" fill="#333">4000</text>
<text x="65" y="44" text-anchor="end" font-size="11" fill="#333">8000</text>
<text x="15" y="190" text-anchor="middle" font-size="12" fill="#333" transform="rotate(-90 15 190)">ms</text>
<polyline points="70,268 93,266 117,269 141,265 164,269 188,267 212,263 235,265 259,260 283,260 306,265 330,261 354,261 377,265 401,259 425,261 448,262 472,266 496,265 519,262 543,263 567,265 590,265 614,265 638,263 661,262 685,264 709,265 732,264 756,262 780,264" fill="none" stroke="#2196F3" stroke-width="2"/>
<polyline points="70,131 93,132 117,133 141,128 164,130 188,135 212,127 235,127 259,127 283,128 306,128 330,123 354,122 377,128 401,127 425,136 448,130 472,126 496,125 519,128 543,128 567,133 590,128 614,135 638,96 661,103 685,101 709,105 732,103 756,104 780,105" fill="none" stroke="#F44336" stroke-width="2"/>
<polyline points="70,79 93,80 117,80 141,78 164,84 188,71 212,69 235,69 259,66 283,63 306,64 330,65 354,65 377,66 401,66 425,63 448,61 472,61 496,67 519,61 543,65 567,68 590,65 614,66 638,57 661,63 685,57 709,58 732,63 756,65 780,56" fill="none" stroke="#4CAF50" stroke-width="2"/>
<circle cx="70" cy="268" r="3" fill="#2196F3"/>
<circle cx="70" cy="131" r="3" fill="#F44336"/>
<circle cx="70" cy="79" r="3" fill="#4CAF50"/>
<circle cx="93" cy="266" r="3" fill="#2196F3"/>
<circle cx="93" cy="132" r="3" fill="#F44336"/>
<circle cx="93" cy="80" r="3" fill="#4CAF50"/>
<circle cx="117" cy="269" r="3" fill="#2196F3"/>
<circle cx="117" cy="133" r="3" fill="#F44336"/>
<circle cx="117" cy="80" r="3" fill="#4CAF50"/>
<circle cx="141" cy="265" r="3" fill="#2196F3"/>
<circle cx="141" cy="128" r="3" fill="#F44336"/>
<circle cx="141" cy="78" r="3" fill="#4CAF50"/>
<circle cx="164" cy="269" r="3" fill="#2196F3"/>
<circle cx="164" cy="130" r="3" fill="#F44336"/>
<circle cx="164" cy="84" r="3" fill="#4CAF50"/>
<circle cx="188" cy="267" r="3" fill="#2196F3"/>
<circle cx="188" cy="135" r="3" fill="#F44336"/>
<circle cx="188" cy="71" r="3" fill="#4CAF50"/>
<circle cx="212" cy="263" r="3" fill="#2196F3"/>
<circle cx="212" cy="127" r="3" fill="#F44336"/>
<circle cx="212" cy="69" r="3" fill="#4CAF50"/>
<circle cx="235" cy="265" r="3" fill="#2196F3"/>
<circle cx="235" cy="127" r="3" fill="#F44336"/>
<circle cx="235" cy="69" r="3" fill="#4CAF50"/>
<circle cx="259" cy="260" r="3" fill="#2196F3"/>
<circle cx="259" cy="127" r="3" fill="#F44336"/>
<circle cx="259" cy="66" r="3" fill="#4CAF50"/>
<circle cx="283" cy="260" r="3" fill="#2196F3"/>
<circle cx="283" cy="128" r="3" fill="#F44336"/>
<circle cx="283" cy="63" r="3" fill="#4CAF50"/>
<circle cx="306" cy="265" r="3" fill="#2196F3"/>
<circle cx="306" cy="128" r="3" fill="#F44336"/>
<circle cx="306" cy="64" r="3" fill="#4CAF50"/>
<circle cx="330" cy="261" r="3" fill="#2196F3"/>
<circle cx="330" cy="123" r="3" fill="#F44336"/>
<circle cx="330" cy="65" r="3" fill="#4CAF50"/>
<circle cx="354" cy="261" r="3" fill="#2196F3"/>
<circle cx="354" cy="122" r="3" fill="#F44336"/>
<circle cx="354" cy="65" r="3" fill="#4CAF50"/>
<circle cx="377" cy="265" r="3" fill="#2196F3"/>
<circle cx="377" cy="128" r="3" fill="#F44336"/>
<circle cx="377" cy="66" r="3" fill="#4CAF50"/>
<circle cx="401" cy="259" r="3" fill="#2196F3"/>
<circle cx="401" cy="127" r="3" fill="#F44336"/>
<circle cx="401" cy="66" r="3" fill="#4CAF50"/>
<circle cx="425" cy="261" r="3" fill="#2196F3"/>
<circle cx="425" cy="136" r="3" fill="#F44336"/>
<circle cx="425" cy="63" r="3" fill="#4CAF50"/>
<circle cx="448" cy="262" r="3" fill="#2196F3"/>
<circle cx="448" cy="130" r="3" fill="#F44336"/>
<circle cx="448" cy="61" r="3" fill="#4CAF50"/>
<circle cx="472" cy="266" r="3" fill="#2196F3"/>
<circle cx="472" cy="126" r="3" fill="#F44336"/>
<circle cx="472" cy="61" r="3" fill="#4CAF50"/>
<circle cx="496" cy="265" r="3" fill="#2196F3"/>
<circle cx="496" cy="125" r="3" fill="#F44336"/>
<circle cx="496" cy="67" r="3" fill="#4CAF50"/>
<circle cx="519" cy="262" r="3" fill="#2196F3"/>
<circle cx="519" cy="128" r="3" fill="#F44336"/>
<circle cx="519" cy="61" r="3" fill="#4CAF50"/>
<circle cx="543" cy="263" r="3" fill="#2196F3"/>
<circle cx="543" cy="128" r="3" fill="#F44336"/>
<circle cx="543" cy="65" r="3" fill="#4CAF50"/>
<circle cx="567" cy="265" r="3" fill="#2196F3"/>
<circle cx="567" cy="133" r="3" fill="#F44336"/>
<circle cx="567" cy="68" r="3" fill="#4CAF50"/>
<circle cx="590" cy="265" r="3" fill="#2196F3"/>
<circle cx="590" cy="128" r="3" fill="#F44336"/>
<circle cx="590" cy="65" r="3" fill="#4CAF50"/>
<circle cx="614" cy="265" r="3" fill="#2196F3"/>
<circle cx="614" cy="135" r="3" fill="#F44336"/>
<circle cx="614" cy="66" r="3" fill="#4CAF50"/>
<circle cx="638" cy="263" r="3" fill="#2196F3"/>
<circle cx="638" cy="96" r="3" fill="#F44336"/>
<circle cx="638" cy="57" r="3" fill="#4CAF50"/>
<circle cx="661" cy="262" r="3" fill="#2196F3"/>
<circle cx="661" cy="103" r="3" fill="#F44336"/>
<circle cx="661" cy="63" r="3" fill="#4CAF50"/>
<circle cx="685" cy="264" r="3" fill="#2196F3"/>
<circle cx="685" cy="101" r="3" fill="#F44336"/>
<circle cx="685" cy="57" r="3" fill="#4CAF50"/>
<circle cx="709" cy="265" r="3" fill="#2196F3"/>
<circle cx="709" cy="105" r="3" fill="#F44336"/>
<circle cx="709" cy="58" r="3" fill="#4CAF50"/>
<circle cx="732" cy="264" r="3" fill="#2196F3"/>
<circle cx="732" cy="103" r="3" fill="#F44336"/>
<circle cx="732" cy="63" r="3" fill="#4CAF50"/>
<circle cx="756" cy="262" r="3" fill="#2196F3"/>
<circle cx="756" cy="104" r="3" fill="#F44336"/>
<circle cx="756" cy="65" r="3" fill="#4CAF50"/>
<circle cx="780" cy="264" r="3" fill="#2196F3"/>
<circle cx="780" cy="105" r="3" fill="#F44336"/>
<circle cx="780" cy="56" r="3" fill="#4CAF50"/>
<text x="70" y="355" text-anchor="middle" font-size="10" fill="#666">d31c3d3</text>
<text x="93" y="355" text-anchor="middle" font-size="10" fill="#666">577b0f6</text>
<text x="117" y="355" text-anchor="middle" font-size="10" fill="#666">a0e3a8f</text>
<text x="141" y="355" text-anchor="middle" font-size="10" fill="#666">32b7787</text>
<text x="164" y="355" text-anchor="middle" font-size="10" fill="#666">940e369</text>
<text x="188" y="355" text-anchor="middle" font-size="10" fill="#666">78956c1</text>
<text x="212" y="355" text-anchor="middle" font-size="10" fill="#666">1a288e9</text>
<text x="235" y="355" text-anchor="middle" font-size="10" fill="#666">f1c0746</text>
<text x="259" y="355" text-anchor="middle" font-size="10" fill="#666">efad3b5</text>
<text x="283" y="355" text-anchor="middle" font-size="10" fill="#666">d3839be</text>
<text x="306" y="355" text-anchor="middle" font-size="10" fill="#666">a0c21b2</text>
<text x="330" y="355" text-anchor="middle" font-size="10" fill="#666">c3d3d81</text>
<text x="354" y="355" text-anchor="middle" font-size="10" fill="#666">e40d897</text>
<text x="377" y="355" text-anchor="middle" font-size="10" fill="#666">0b1ed97</text>
<text x="401" y="355" text-anchor="middle" font-size="10" fill="#666">6a5ae3f</text>
<text x="425" y="355" text-anchor="middle" font-size="10" fill="#666">59cf448</text>
<text x="448" y="355" text-anchor="middle" font-size="10" fill="#666">42b3e04</text>
<text x="472" y="355" text-anchor="middle" font-size="10" fill="#666">bd9421a</text>
<text x="496" y="355" text-anchor="middle" font-size="10" fill="#666">f80812f</text>
<text x="519" y="355" text-anchor="middle" font-size="10" fill="#666">448a5fe</text>
<text x="543" y="355" text-anchor="middle" font-size="10" fill="#666">b16c1cc</text>
<text x="567" y="355" text-anchor="middle" font-size="10" fill="#666">44c334c</text>
<text x="590" y="355" text-anchor="middle" font-size="10" fill="#666">aa51d1a</text>
<text x="614" y="355" text-anchor="middle" font-size="10" fill="#666">9bee79a</text>
<text x="638" y="355" text-anchor="middle" font-size="10" fill="#666">4380346</text>
<text x="661" y="355" text-anchor="middle" font-size="10" fill="#666">2a587a9</text>
<text x="685" y="355" text-anchor="middle" font-size="10" fill="#666">efb005a</text>
<text x="709" y="355" text-anchor="middle" font-size="10" fill="#666">1c3b72e</text>
<text x="732" y="355" text-anchor="middle" font-size="10" fill="#666">ff7c733</text>
<text x="756" y="355" text-anchor="middle" font-size="10" fill="#666">962897f</text>
<text x="780" y="355" text-anchor="middle" font-size="10" fill="#666">dfec04b</text>
<circle cx="90" cy="20" r="4" fill="#2196F3"/>
<text x="98" y="24" text-anchor="start" font-size="12" fill="#2196F3">Interpreted</text>
<circle cx="200" cy="20" r="4" fill="#F44336"/>
<text x="208" y="24" text-anchor="start" font-size="12" fill="#F44336">Compiled</text>
<circle cx="300" cy="20" r="4" fill="#4CAF50"/>
<text x="308" y="24" text-anchor="start" font-size="12" fill="#4CAF50">Wall-clock</text>
</svg>
