<svg width="800" height="400" xmlns="http://www.w3.org/2000/svg">
<rect width="800" height="400" fill="white"/>
<line x1="70" y1="40" x2="70" y2="340" stroke="#333" stroke-width="1"/>
<line x1="70" y1="340" x2="780" y2="340" stroke="#333" stroke-width="1"/>
<text x="65" y="344" text-anchor="end" font-size="11" fill="#333">0</text>
<text x="65" y="194" text-anchor="end" font-size="11" fill="#333">4000</text>
<text x="65" y="44" text-anchor="end" font-size="11" fill="#333">8000</text>
<text x="15" y="190" text-anchor="middle" font-size="12" fill="#333" transform="rotate(-90 15 190)">ms</text>
<polyline points="70,268 95,266 120,269 146,265 171,269 196,267 222,263 247,265 272,260 298,260 323,265 348,261 374,261 399,265 425,259 450,261 475,262 501,266 526,265 551,262 577,263 602,265 627,265 653,265 678,263 703,262 729,264 754,265 780,264" fill="none" stroke="#2196F3" stroke-width="2"/>
<polyline points="70,131 95,132 120,133 146,128 171,130 196,135 222,127 247,127 272,127 298,128 323,128 348,123 374,122 399,128 425,127 450,136 475,130 501,126 526,125 551,128 577,128 602,133 627,128 653,135 678,96 703,103 729,101 754,105 780,103" fill="none" stroke="#F44336" stroke-width="2"/>
<polyline points="70,79 95,80 120,80 146,78 171,84 196,71 222,69 247,69 272,66 298,63 323,64 348,65 374,65 399,66 425,66 450,63 475,61 501,61 526,67 551,61 577,65 602,68 627,65 653,66 678,57 703,63 729,57 754,58 780,63" fill="none" stroke="#4CAF50" stroke-width="2"/>
<circle cx="70" cy="268" r="3" fill="#2196F3"/>
<circle cx="70" cy="131" r="3" fill="#F44336"/>
<circle cx="70" cy="79" r="3" fill="#4CAF50"/>
<circle cx="95" cy="266" r="3" fill="#2196F3"/>
<circle cx="95" cy="132" r="3" fill="#F44336"/>
<circle cx="95" cy="80" r="3" fill="#4CAF50"/>
<circle cx="120" cy="269" r="3" fill="#2196F3"/>
<circle cx="120" cy="133" r="3" fill="#F44336"/>
<circle cx="120" cy="80" r="3" fill="#4CAF50"/>
<circle cx="146" cy="265" r="3" fill="#2196F3"/>
<circle cx="146" cy="128" r="3" fill="#F44336"/>
<circle cx="146" cy="78" r="3" fill="#4CAF50"/>
<circle cx="171" cy="269" r="3" fill="#2196F3"/>
<circle cx="171" cy="130" r="3" fill="#F44336"/>
<circle cx="171" cy="84" r="3" fill="#4CAF50"/>
<circle cx="196" cy="267" r="3" fill="#2196F3"/>
<circle cx="196" cy="135" r="3" fill="#F44336"/>
<circle cx="196" cy="71" r="3" fill="#4CAF50"/>
<circle cx="222" cy="263" r="3" fill="#2196F3"/>
<circle cx="222" cy="127" r="3" fill="#F44336"/>
<circle cx="222" cy="69" r="3" fill="#4CAF50"/>
<circle cx="247" cy="265" r="3" fill="#2196F3"/>
<circle cx="247" cy="127" r="3" fill="#F44336"/>
<circle cx="247" cy="69" r="3" fill="#4CAF50"/>
<circle cx="272" cy="260" r="3" fill="#2196F3"/>
<circle cx="272" cy="127" r="3" fill="#F44336"/>
<circle cx="272" cy="66" r="3" fill="#4CAF50"/>
<circle cx="298" cy="260" r="3" fill="#2196F3"/>
<circle cx="298" cy="128" r="3" fill="#F44336"/>
<circle cx="298" cy="63" r="3" fill="#4CAF50"/>
<circle cx="323" cy="265" r="3" fill="#2196F3"/>
<circle cx="323" cy="128" r="3" fill="#F44336"/>
<circle cx="323" cy="64" r="3" fill="#4CAF50"/>
<circle cx="348" cy="261" r="3" fill="#2196F3"/>
<circle cx="348" cy="123" r="3" fill="#F44336"/>
<circle cx="348" cy="65" r="3" fill="#4CAF50"/>
<circle cx="374" cy="261" r="3" fill="#2196F3"/>
<circle cx="374" cy="122" r="3" fill="#F44336"/>
<circle cx="374" cy="65" r="3" fill="#4CAF50"/>
<circle cx="399" cy="265" r="3" fill="#2196F3"/>
<circle cx="399" cy="128" r="3" fill="#F44336"/>
<circle cx="399" cy="66" r="3" fill="#4CAF50"/>
<circle cx="425" cy="259" r="3" fill="#2196F3"/>
<circle cx="425" cy="127" r="3" fill="#F44336"/>
<circle cx="425" cy="66" r="3" fill="#4CAF50"/>
<circle cx="450" cy="261" r="3" fill="#2196F3"/>
<circle cx="450" cy="136" r="3" fill="#F44336"/>
<circle cx="450" cy="63" r="3" fill="#4CAF50"/>
<circle cx="475" cy="262" r="3" fill="#2196F3"/>
<circle cx="475" cy="130" r="3" fill="#F44336"/>
<circle cx="475" cy="61" r="3" fill="#4CAF50"/>
<circle cx="501" cy="266" r="3" fill="#2196F3"/>
<circle cx="501" cy="126" r="3" fill="#F44336"/>
<circle cx="501" cy="61" r="3" fill="#4CAF50"/>
<circle cx="526" cy="265" r="3" fill="#2196F3"/>
<circle cx="526" cy="125" r="3" fill="#F44336"/>
<circle cx="526" cy="67" r="3" fill="#4CAF50"/>
<circle cx="551" cy="262" r="3" fill="#2196F3"/>
<circle cx="551" cy="128" r="3" fill="#F44336"/>
<circle cx="551" cy="61" r="3" fill="#4CAF50"/>
<circle cx="577" cy="263" r="3" fill="#2196F3"/>
<circle cx="577" cy="128" r="3" fill="#F44336"/>
<circle cx="577" cy="65" r="3" fill="#4CAF50"/>
<circle cx="602" cy="265" r="3" fill="#2196F3"/>
<circle cx="602" cy="133" r="3" fill="#F44336"/>
<circle cx="602" cy="68" r="3" fill="#4CAF50"/>
<circle cx="627" cy="265" r="3" fill="#2196F3"/>
<circle cx="627" cy="128" r="3" fill="#F44336"/>
<circle cx="627" cy="65" r="3" fill="#4CAF50"/>
<circle cx="653" cy="265" r="3" fill="#2196F3"/>
<circle cx="653" cy="135" r="3" fill="#F44336"/>
<circle cx="653" cy="66" r="3" fill="#4CAF50"/>
<circle cx="678" cy="263" r="3" fill="#2196F3"/>
<circle cx="678" cy="96" r="3" fill="#F44336"/>
<circle cx="678" cy="57" r="3" fill="#4CAF50"/>
<circle cx="703" cy="262" r="3" fill="#2196F3"/>
<circle cx="703" cy="103" r="3" fill="#F44336"/>
<circle cx="703" cy="63" r="3" fill="#4CAF50"/>
<circle cx="729" cy="264" r="3" fill="#2196F3"/>
<circle cx="729" cy="101" r="3" fill="#F44336"/>
<circle cx="729" cy="57" r="3" fill="#4CAF50"/>
<circle cx="754" cy="265" r="3" fill="#2196F3"/>
<circle cx="754" cy="105" r="3" fill="#F44336"/>
<circle cx="754" cy="58" r="3" fill="#4CAF50"/>
<circle cx="780" cy="264" r="3" fill="#2196F3"/>
<circle cx="780" cy="103" r="3" fill="#F44336"/>
<circle cx="780" cy="63" r="3" fill="#4CAF50"/>
<text x="70" y="355" text-anchor="middle" font-size="10" fill="#666">d31c3d3</text>
<text x="95" y="355" text-anchor="middle" font-size="10" fill="#666">577b0f6</text>
<text x="120" y="355" text-anchor="middle" font-size="10" fill="#666">a0e3a8f</text>
<text x="146" y="355" text-anchor="middle" font-size="10" fill="#666">32b7787</text>
<text x="171" y="355" text-anchor="middle" font-size="10" fill="#666">940e369</text>
<text x="196" y="355" text-anchor="middle" font-size="10" fill="#666">78956c1</text>
<text x="222" y="355" text-anchor="middle" font-size="10" fill="#666">1a288e9</text>
<text x="247" y="355" text-anchor="middle" font-size="10" fill="#666">f1c0746</text>
<text x="272" y="355" text-anchor="middle" font-size="10" fill="#666">efad3b5</text>
<text x="298" y="355" text-anchor="middle" font-size="10" fill="#666">d3839be</text>
<text x="323" y="355" text-anchor="middle" font-size="10" fill="#666">a0c21b2</text>
<text x="348" y="355" text-anchor="middle" font-size="10" fill="#666">c3d3d81</text>
<text x="374" y="355" text-anchor="middle" font-size="10" fill="#666">e40d897</text>
<text x="399" y="355" text-anchor="middle" font-size="10" fill="#666">0b1ed97</text>
<text x="425" y="355" text-anchor="middle" font-size="10" fill="#666">6a5ae3f</text>
<text x="450" y="355" text-anchor="middle" font-size="10" fill="#666">59cf448</text>
<text x="475" y="355" text-anchor="middle" font-size="10" fill="#666">42b3e04</text>
<text x="501" y="355" text-anchor="middle" font-size="10" fill="#666">bd9421a</text>
<text x="526" y="355" text-anchor="middle" font-size="10" fill="#666">f80812f</text>
<text x="551" y="355" text-anchor="middle" font-size="10" fill="#666">448a5fe</text>
<text x="577" y="355" text-anchor="middle" font-size="10" fill="#666">b16c1cc</text>
<text x="602" y="355" text-anchor="middle" font-size="10" fill="#666">44c334c</text>
<text x="627" y="355" text-anchor="middle" font-size="10" fill="#666">aa51d1a</text>
<text x="653" y="355" text-anchor="middle" font-size="10" fill="#666">9bee79a</text>
<text x="678" y="355" text-anchor="middle" font-size="10" fill="#666">4380346</text>
<text x="703" y="355" text-anchor="middle" font-size="10" fill="#666">2a587a9</text>
<text x="729" y="355" text-anchor="middle" font-size="10" fill="#666">efb005a</text>
<text x="754" y="355" text-anchor="middle" font-size="10" fill="#666">1c3b72e</text>
<text x="780" y="355" text-anchor="middle" font-size="10" fill="#666">ff7c733</text>
<circle cx="90" cy="20" r="4" fill="#2196F3"/>
<text x="98" y="24" text-anchor="start" font-size="12" fill="#2196F3">Interpreted</text>
<circle cx="200" cy="20" r="4" fill="#F44336"/>
<text x="208" y="24" text-anchor="start" font-size="12" fill="#F44336">Compiled</text>
<circle cx="300" cy="20" r="4" fill="#4CAF50"/>
<text x="308" y="24" text-anchor="start" font-size="12" fill="#4CAF50">Wall-clock</text>
</svg>
