<svg width="800" height="400" xmlns="http://www.w3.org/2000/svg">
<rect width="800" height="400" fill="white"/>
<line x1="70" y1="40" x2="70" y2="340" stroke="#333" stroke-width="1"/>
<line x1="70" y1="340" x2="730" y2="340" stroke="#333" stroke-width="1"/>
<line x1="730" y1="40" x2="730" y2="340" stroke="#333" stroke-width="1"/>
<text x="65" y="344" text-anchor="end" font-size="11" fill="#333">0</text>
<text x="65" y="194" text-anchor="end" font-size="11" fill="#333">599000</text>
<text x="65" y="44" text-anchor="end" font-size="11" fill="#333">1198000</text>
<text x="15" y="190" text-anchor="middle" font-size="12" fill="#333" transform="rotate(-90 15 190)">ms</text>
<text x="735" y="344" text-anchor="start" font-size="11" fill="#333">0</text>
<text x="735" y="194" text-anchor="start" font-size="11" fill="#333">64917500000</text>
<text x="735" y="44" text-anchor="start" font-size="11" fill="#333">129835000000</text>
<text x="785" y="190" text-anchor="middle" font-size="12" fill="#333" transform="rotate(90 785 190)">bytes</text>
<polyline points="70,307 143,49 216,52 290,60 363,45 436,54 510,41 583,55 656,48 730,53" fill="none" stroke="#0072B2" stroke-width="2"/>
<polyline points="70,291 143,49 216,51 290,59 363,48 436,57 510,44 583,59 656,58 730,57" fill="none" stroke="#CC79A7" stroke-width="2"/>
<polyline points="70,340 143,340 216,340 290,340 363,340 436,340 510,340 583,340 656,340 730,340" fill="none" stroke="#D55E00" stroke-width="2"/>
<polyline points="70,335 143,302 216,302 290,303 363,302 436,303 510,302 583,303 656,302 730,303" fill="none" stroke="#009E73" stroke-width="2"/>
<polyline points="70,317 143,119 216,118 290,120 363,115 436,121 510,116 583,126 656,120 730,122" fill="none" stroke="#984EA3" stroke-width="2"/>
<polyline points="70,331 143,43 216,41 290,41 363,41 436,42 510,42 583,41 656,41 730,41" fill="none" stroke="#56B4E9" stroke-width="2"/>
<polyline points="70,314 143,43 216,43 290,43 363,44 436,43 510,45 583,43 656,43 730,42" fill="none" stroke="#E69F00" stroke-width="2"/>
<polyline points="70,340 143,339 216,339 290,339 363,339 436,340 510,339 583,340 656,340 730,340" fill="none" stroke="#C44E52" stroke-width="2"/>
<polyline points="70,339 143,302 216,303 290,302 363,302 436,302 510,302 583,301 656,302 730,302" fill="none" stroke="#8C564B" stroke-width="2"/>
<circle cx="70" cy="307" r="3" fill="#0072B2"/>
<circle cx="70" cy="291" r="3" fill="#CC79A7"/>
<circle cx="70" cy="340" r="3" fill="#D55E00"/>
<circle cx="70" cy="335" r="3" fill="#009E73"/>
<circle cx="70" cy="317" r="3" fill="#984EA3"/>
<circle cx="70" cy="331" r="3" fill="#56B4E9"/>
<circle cx="70" cy="314" r="3" fill="#E69F00"/>
<circle cx="70" cy="340" r="3" fill="#C44E52"/>
<circle cx="70" cy="339" r="3" fill="#8C564B"/>
<circle cx="143" cy="49" r="3" fill="#0072B2"/>
<circle cx="143" cy="49" r="3" fill="#CC79A7"/>
<circle cx="143" cy="340" r="3" fill="#D55E00"/>
<circle cx="143" cy="302" r="3" fill="#009E73"/>
<circle cx="143" cy="119" r="3" fill="#984EA3"/>
<circle cx="143" cy="43" r="3" fill="#56B4E9"/>
<circle cx="143" cy="43" r="3" fill="#E69F00"/>
<circle cx="143" cy="339" r="3" fill="#C44E52"/>
<circle cx="143" cy="302" r="3" fill="#8C564B"/>
<circle cx="216" cy="52" r="3" fill="#0072B2"/>
<circle cx="216" cy="51" r="3" fill="#CC79A7"/>
<circle cx="216" cy="340" r="3" fill="#D55E00"/>
<circle cx="216" cy="302" r="3" fill="#009E73"/>
<circle cx="216" cy="118" r="3" fill="#984EA3"/>
<circle cx="216" cy="41" r="3" fill="#56B4E9"/>
<circle cx="216" cy="43" r="3" fill="#E69F00"/>
<circle cx="216" cy="339" r="3" fill="#C44E52"/>
<circle cx="216" cy="303" r="3" fill="#8C564B"/>
<circle cx="290" cy="60" r="3" fill="#0072B2"/>
<circle cx="290" cy="59" r="3" fill="#CC79A7"/>
<circle cx="290" cy="340" r="3" fill="#D55E00"/>
<circle cx="290" cy="303" r="3" fill="#009E73"/>
<circle cx="290" cy="120" r="3" fill="#984EA3"/>
<circle cx="290" cy="41" r="3" fill="#56B4E9"/>
<circle cx="290" cy="43" r="3" fill="#E69F00"/>
<circle cx="290" cy="339" r="3" fill="#C44E52"/>
<circle cx="290" cy="302" r="3" fill="#8C564B"/>
<circle cx="363" cy="45" r="3" fill="#0072B2"/>
<circle cx="363" cy="48" r="3" fill="#CC79A7"/>
<circle cx="363" cy="340" r="3" fill="#D55E00"/>
<circle cx="363" cy="302" r="3" fill="#009E73"/>
<circle cx="363" cy="115" r="3" fill="#984EA3"/>
<circle cx="363" cy="41" r="3" fill="#56B4E9"/>
<circle cx="363" cy="44" r="3" fill="#E69F00"/>
<circle cx="363" cy="339" r="3" fill="#C44E52"/>
<circle cx="363" cy="302" r="3" fill="#8C564B"/>
<circle cx="436" cy="54" r="3" fill="#0072B2"/>
<circle cx="436" cy="57" r="3" fill="#CC79A7"/>
<circle cx="436" cy="340" r="3" fill="#D55E00"/>
<circle cx="436" cy="303" r="3" fill="#009E73"/>
<circle cx="436" cy="121" r="3" fill="#984EA3"/>
<circle cx="436" cy="42" r="3" fill="#56B4E9"/>
<circle cx="436" cy="43" r="3" fill="#E69F00"/>
<circle cx="436" cy="340" r="3" fill="#C44E52"/>
<circle cx="436" cy="302" r="3" fill="#8C564B"/>
<circle cx="510" cy="41" r="3" fill="#0072B2"/>
<circle cx="510" cy="44" r="3" fill="#CC79A7"/>
<circle cx="510" cy="340" r="3" fill="#D55E00"/>
<circle cx="510" cy="302" r="3" fill="#009E73"/>
<circle cx="510" cy="116" r="3" fill="#984EA3"/>
<circle cx="510" cy="42" r="3" fill="#56B4E9"/>
<circle cx="510" cy="45" r="3" fill="#E69F00"/>
<circle cx="510" cy="339" r="3" fill="#C44E52"/>
<circle cx="510" cy="302" r="3" fill="#8C564B"/>
<circle cx="583" cy="55" r="3" fill="#0072B2"/>
<circle cx="583" cy="59" r="3" fill="#CC79A7"/>
<circle cx="583" cy="340" r="3" fill="#D55E00"/>
<circle cx="583" cy="303" r="3" fill="#009E73"/>
<circle cx="583" cy="126" r="3" fill="#984EA3"/>
<circle cx="583" cy="41" r="3" fill="#56B4E9"/>
<circle cx="583" cy="43" r="3" fill="#E69F00"/>
<circle cx="583" cy="340" r="3" fill="#C44E52"/>
<circle cx="583" cy="301" r="3" fill="#8C564B"/>
<circle cx="656" cy="48" r="3" fill="#0072B2"/>
<circle cx="656" cy="58" r="3" fill="#CC79A7"/>
<circle cx="656" cy="340" r="3" fill="#D55E00"/>
<circle cx="656" cy="302" r="3" fill="#009E73"/>
<circle cx="656" cy="120" r="3" fill="#984EA3"/>
<circle cx="656" cy="41" r="3" fill="#56B4E9"/>
<circle cx="656" cy="43" r="3" fill="#E69F00"/>
<circle cx="656" cy="340" r="3" fill="#C44E52"/>
<circle cx="656" cy="302" r="3" fill="#8C564B"/>
<circle cx="730" cy="53" r="3" fill="#0072B2"/>
<circle cx="730" cy="57" r="3" fill="#CC79A7"/>
<circle cx="730" cy="340" r="3" fill="#D55E00"/>
<circle cx="730" cy="303" r="3" fill="#009E73"/>
<circle cx="730" cy="122" r="3" fill="#984EA3"/>
<circle cx="730" cy="41" r="3" fill="#56B4E9"/>
<circle cx="730" cy="42" r="3" fill="#E69F00"/>
<circle cx="730" cy="340" r="3" fill="#C44E52"/>
<circle cx="730" cy="302" r="3" fill="#8C564B"/>
<circle cx="70" cy="20" r="4" fill="#0072B2"/>
<text x="78" y="24" text-anchor="start" font-size="12" fill="#0072B2">inte</text>
<circle cx="130" cy="20" r="4" fill="#CC79A7"/>
<text x="138" y="24" text-anchor="start" font-size="12" fill="#CC79A7">comp</text>
<circle cx="195" cy="20" r="4" fill="#D55E00"/>
<text x="203" y="24" text-anchor="start" font-size="12" fill="#D55E00">run</text>
<circle cx="250" cy="20" r="4" fill="#009E73"/>
<text x="258" y="24" text-anchor="start" font-size="12" fill="#009E73">wall</text>
<circle cx="315" cy="20" r="4" fill="#984EA3"/>
<text x="323" y="24" text-anchor="start" font-size="12" fill="#984EA3">self</text>
<circle cx="380" cy="20" r="4" fill="#56B4E9"/>
<text x="388" y="24" text-anchor="start" font-size="12" fill="#56B4E9">mem-inte</text>
<circle cx="470" cy="20" r="4" fill="#E69F00"/>
<text x="478" y="24" text-anchor="start" font-size="12" fill="#E69F00">mem-comp</text>
<circle cx="565" cy="20" r="4" fill="#C44E52"/>
<text x="573" y="24" text-anchor="start" font-size="12" fill="#C44E52">mem-run</text>
<circle cx="650" cy="20" r="4" fill="#8C564B"/>
<text x="658" y="24" text-anchor="start" font-size="12" fill="#8C564B">self-mem</text>
</svg>
