<svg width="800" height="400" xmlns="http://www.w3.org/2000/svg">
<rect width="800" height="400" fill="white"/>
<line x1="70" y1="40" x2="70" y2="340" stroke="#333" stroke-width="1"/>
<line x1="70" y1="340" x2="730" y2="340" stroke="#333" stroke-width="1"/>
<line x1="730" y1="40" x2="730" y2="340" stroke="#333" stroke-width="1"/>
<text x="65" y="344" text-anchor="end" font-size="11" fill="#333">0</text>
<text x="65" y="194" text-anchor="end" font-size="11" fill="#333">305500</text>
<text x="65" y="44" text-anchor="end" font-size="11" fill="#333">611000</text>
<text x="15" y="190" text-anchor="middle" font-size="12" fill="#333" transform="rotate(-90 15 190)">ms</text>
<text x="735" y="344" text-anchor="start" font-size="11" fill="#333">0</text>
<text x="735" y="194" text-anchor="start" font-size="11" fill="#333">11115000000</text>
<text x="735" y="44" text-anchor="start" font-size="11" fill="#333">22230000000</text>
<text x="785" y="190" text-anchor="middle" font-size="12" fill="#333" transform="rotate(90 785 190)">bytes</text>
<polyline points="70,54 143,57 216,49 290,54 363,55 436,41 510,92 583,86 656,175 730,171" fill="none" stroke="#0072B2" stroke-width="2"/>
<polyline points="70,82 143,85 216,81 290,81 363,82 436,71 510,80 583,72 656,154 730,151" fill="none" stroke="#CC79A7" stroke-width="2"/>
<polyline points="70,340 143,340 216,340 290,340 363,340 436,340 510,340 583,340 656,340 730,340" fill="none" stroke="#D55E00" stroke-width="2"/>
<polyline points="70,298 143,299 216,298 290,298 363,299 436,296 510,299 583,299 656,312 730,311" fill="none" stroke="#009E73" stroke-width="2"/>
<polyline points="70,298 143,298 216,300 290,300 363,300 436,300 510,301 583,301 656,302 730,302" fill="none" stroke="#56B4E9" stroke-width="2"/>
<polyline points="70,191 143,191 216,192 290,192 363,192 436,192 510,192 583,192 656,196 730,196" fill="none" stroke="#E69F00" stroke-width="2"/>
<polyline points="70,333 143,333 216,335 290,335 363,335 436,332 510,334 583,334 656,338 730,336" fill="none" stroke="#C44E52" stroke-width="2"/>
<polyline points="70,41 143,41 216,46 290,47 363,46 436,44 510,46 583,46 656,60 730,57" fill="none" stroke="#000000" stroke-width="2"/>
<circle cx="70" cy="54" r="3" fill="#0072B2"/>
<circle cx="70" cy="82" r="3" fill="#CC79A7"/>
<circle cx="70" cy="340" r="3" fill="#D55E00"/>
<circle cx="70" cy="298" r="3" fill="#009E73"/>
<circle cx="70" cy="298" r="3" fill="#56B4E9"/>
<circle cx="70" cy="191" r="3" fill="#E69F00"/>
<circle cx="70" cy="333" r="3" fill="#C44E52"/>
<circle cx="70" cy="41" r="3" fill="#000000"/>
<circle cx="143" cy="57" r="3" fill="#0072B2"/>
<circle cx="143" cy="85" r="3" fill="#CC79A7"/>
<circle cx="143" cy="340" r="3" fill="#D55E00"/>
<circle cx="143" cy="299" r="3" fill="#009E73"/>
<circle cx="143" cy="298" r="3" fill="#56B4E9"/>
<circle cx="143" cy="191" r="3" fill="#E69F00"/>
<circle cx="143" cy="333" r="3" fill="#C44E52"/>
<circle cx="143" cy="41" r="3" fill="#000000"/>
<circle cx="216" cy="49" r="3" fill="#0072B2"/>
<circle cx="216" cy="81" r="3" fill="#CC79A7"/>
<circle cx="216" cy="340" r="3" fill="#D55E00"/>
<circle cx="216" cy="298" r="3" fill="#009E73"/>
<circle cx="216" cy="300" r="3" fill="#56B4E9"/>
<circle cx="216" cy="192" r="3" fill="#E69F00"/>
<circle cx="216" cy="335" r="3" fill="#C44E52"/>
<circle cx="216" cy="46" r="3" fill="#000000"/>
<circle cx="290" cy="54" r="3" fill="#0072B2"/>
<circle cx="290" cy="81" r="3" fill="#CC79A7"/>
<circle cx="290" cy="340" r="3" fill="#D55E00"/>
<circle cx="290" cy="298" r="3" fill="#009E73"/>
<circle cx="290" cy="300" r="3" fill="#56B4E9"/>
<circle cx="290" cy="192" r="3" fill="#E69F00"/>
<circle cx="290" cy="335" r="3" fill="#C44E52"/>
<circle cx="290" cy="47" r="3" fill="#000000"/>
<circle cx="363" cy="55" r="3" fill="#0072B2"/>
<circle cx="363" cy="82" r="3" fill="#CC79A7"/>
<circle cx="363" cy="340" r="3" fill="#D55E00"/>
<circle cx="363" cy="299" r="3" fill="#009E73"/>
<circle cx="363" cy="300" r="3" fill="#56B4E9"/>
<circle cx="363" cy="192" r="3" fill="#E69F00"/>
<circle cx="363" cy="335" r="3" fill="#C44E52"/>
<circle cx="363" cy="46" r="3" fill="#000000"/>
<circle cx="436" cy="41" r="3" fill="#0072B2"/>
<circle cx="436" cy="71" r="3" fill="#CC79A7"/>
<circle cx="436" cy="340" r="3" fill="#D55E00"/>
<circle cx="436" cy="296" r="3" fill="#009E73"/>
<circle cx="436" cy="300" r="3" fill="#56B4E9"/>
<circle cx="436" cy="192" r="3" fill="#E69F00"/>
<circle cx="436" cy="332" r="3" fill="#C44E52"/>
<circle cx="436" cy="44" r="3" fill="#000000"/>
<circle cx="510" cy="92" r="3" fill="#0072B2"/>
<circle cx="510" cy="80" r="3" fill="#CC79A7"/>
<circle cx="510" cy="340" r="3" fill="#D55E00"/>
<circle cx="510" cy="299" r="3" fill="#009E73"/>
<circle cx="510" cy="301" r="3" fill="#56B4E9"/>
<circle cx="510" cy="192" r="3" fill="#E69F00"/>
<circle cx="510" cy="334" r="3" fill="#C44E52"/>
<circle cx="510" cy="46" r="3" fill="#000000"/>
<circle cx="583" cy="86" r="3" fill="#0072B2"/>
<circle cx="583" cy="72" r="3" fill="#CC79A7"/>
<circle cx="583" cy="340" r="3" fill="#D55E00"/>
<circle cx="583" cy="299" r="3" fill="#009E73"/>
<circle cx="583" cy="301" r="3" fill="#56B4E9"/>
<circle cx="583" cy="192" r="3" fill="#E69F00"/>
<circle cx="583" cy="334" r="3" fill="#C44E52"/>
<circle cx="583" cy="46" r="3" fill="#000000"/>
<circle cx="656" cy="175" r="3" fill="#0072B2"/>
<circle cx="656" cy="154" r="3" fill="#CC79A7"/>
<circle cx="656" cy="340" r="3" fill="#D55E00"/>
<circle cx="656" cy="312" r="3" fill="#009E73"/>
<circle cx="656" cy="302" r="3" fill="#56B4E9"/>
<circle cx="656" cy="196" r="3" fill="#E69F00"/>
<circle cx="656" cy="338" r="3" fill="#C44E52"/>
<circle cx="656" cy="60" r="3" fill="#000000"/>
<circle cx="730" cy="171" r="3" fill="#0072B2"/>
<circle cx="730" cy="151" r="3" fill="#CC79A7"/>
<circle cx="730" cy="340" r="3" fill="#D55E00"/>
<circle cx="730" cy="311" r="3" fill="#009E73"/>
<circle cx="730" cy="302" r="3" fill="#56B4E9"/>
<circle cx="730" cy="196" r="3" fill="#E69F00"/>
<circle cx="730" cy="336" r="3" fill="#C44E52"/>
<circle cx="730" cy="57" r="3" fill="#000000"/>
<circle cx="90" cy="20" r="4" fill="#0072B2"/>
<text x="98" y="24" text-anchor="start" font-size="12" fill="#0072B2">inte</text>
<circle cx="150" cy="20" r="4" fill="#CC79A7"/>
<text x="158" y="24" text-anchor="start" font-size="12" fill="#CC79A7">comp</text>
<circle cx="215" cy="20" r="4" fill="#D55E00"/>
<text x="223" y="24" text-anchor="start" font-size="12" fill="#D55E00">run</text>
<circle cx="270" cy="20" r="4" fill="#009E73"/>
<text x="278" y="24" text-anchor="start" font-size="12" fill="#009E73">wall</text>
<circle cx="335" cy="20" r="4" fill="#56B4E9"/>
<text x="343" y="24" text-anchor="start" font-size="12" fill="#56B4E9">mem-inte</text>
<circle cx="425" cy="20" r="4" fill="#E69F00"/>
<text x="433" y="24" text-anchor="start" font-size="12" fill="#E69F00">mem-comp</text>
<circle cx="520" cy="20" r="4" fill="#C44E52"/>
<text x="528" y="24" text-anchor="start" font-size="12" fill="#C44E52">mem-run</text>
<circle cx="605" cy="20" r="4" fill="#000000"/>
<text x="613" y="24" text-anchor="start" font-size="12" fill="#000000">mem-total</text>
</svg>
