<svg width="800" height="400" xmlns="http://www.w3.org/2000/svg">
<rect width="800" height="400" fill="white"/>
<line x1="70" y1="40" x2="70" y2="340" stroke="#333" stroke-width="1"/>
<line x1="70" y1="340" x2="730" y2="340" stroke="#333" stroke-width="1"/>
<line x1="730" y1="40" x2="730" y2="340" stroke="#333" stroke-width="1"/>
<text x="65" y="344" text-anchor="end" font-size="11" fill="#333">0</text>
<text x="65" y="194" text-anchor="end" font-size="11" fill="#333">283500</text>
<text x="65" y="44" text-anchor="end" font-size="11" fill="#333">567000</text>
<text x="15" y="190" text-anchor="middle" font-size="12" fill="#333" transform="rotate(-90 15 190)">ms</text>
<text x="735" y="344" text-anchor="start" font-size="11" fill="#333">0</text>
<text x="735" y="194" text-anchor="start" font-size="11" fill="#333">10077500000</text>
<text x="735" y="44" text-anchor="start" font-size="11" fill="#333">20155000000</text>
<text x="785" y="190" text-anchor="middle" font-size="12" fill="#333" transform="rotate(90 785 190)">bytes</text>
<polyline points="70,52 143,52 216,53 290,44 363,41 436,58 510,57 583,59 656,56 730,61" fill="none" stroke="#0072B2" stroke-width="2"/>
<polyline points="70,98 143,97 216,98 290,90 363,87 436,103 510,99 583,100 656,102 730,105" fill="none" stroke="#CC79A7" stroke-width="2"/>
<polyline points="70,340 143,340 216,340 290,340 363,340 436,340 510,340 583,340 656,340 730,340" fill="none" stroke="#D55E00" stroke-width="2"/>
<polyline points="70,296 143,295 216,295 290,294 363,294 436,296 510,295 583,295 656,296 730,296" fill="none" stroke="#009E73" stroke-width="2"/>
<polyline points="70,304 143,304 216,304 290,304 363,304 436,304 510,304 583,304 656,304 730,304" fill="none" stroke="#56B4E9" stroke-width="2"/>
<polyline points="70,184 143,184 216,184 290,183 363,183 436,182 510,183 583,182 656,183 730,183" fill="none" stroke="#E69F00" stroke-width="2"/>
<polyline points="70,339 143,336 216,338 290,336 363,333 436,336 510,336 583,337 656,335 730,336" fill="none" stroke="#C44E52" stroke-width="2"/>
<polyline points="70,47 143,44 216,45 290,44 363,41 436,43 510,43 583,43 656,42 730,43" fill="none" stroke="#000000" stroke-width="2"/>
<circle cx="70" cy="52" r="3" fill="#0072B2"/>
<circle cx="70" cy="98" r="3" fill="#CC79A7"/>
<circle cx="70" cy="340" r="3" fill="#D55E00"/>
<circle cx="70" cy="296" r="3" fill="#009E73"/>
<circle cx="70" cy="304" r="3" fill="#56B4E9"/>
<circle cx="70" cy="184" r="3" fill="#E69F00"/>
<circle cx="70" cy="339" r="3" fill="#C44E52"/>
<circle cx="70" cy="47" r="3" fill="#000000"/>
<circle cx="143" cy="52" r="3" fill="#0072B2"/>
<circle cx="143" cy="97" r="3" fill="#CC79A7"/>
<circle cx="143" cy="340" r="3" fill="#D55E00"/>
<circle cx="143" cy="295" r="3" fill="#009E73"/>
<circle cx="143" cy="304" r="3" fill="#56B4E9"/>
<circle cx="143" cy="184" r="3" fill="#E69F00"/>
<circle cx="143" cy="336" r="3" fill="#C44E52"/>
<circle cx="143" cy="44" r="3" fill="#000000"/>
<circle cx="216" cy="53" r="3" fill="#0072B2"/>
<circle cx="216" cy="98" r="3" fill="#CC79A7"/>
<circle cx="216" cy="340" r="3" fill="#D55E00"/>
<circle cx="216" cy="295" r="3" fill="#009E73"/>
<circle cx="216" cy="304" r="3" fill="#56B4E9"/>
<circle cx="216" cy="184" r="3" fill="#E69F00"/>
<circle cx="216" cy="338" r="3" fill="#C44E52"/>
<circle cx="216" cy="45" r="3" fill="#000000"/>
<circle cx="290" cy="44" r="3" fill="#0072B2"/>
<circle cx="290" cy="90" r="3" fill="#CC79A7"/>
<circle cx="290" cy="340" r="3" fill="#D55E00"/>
<circle cx="290" cy="294" r="3" fill="#009E73"/>
<circle cx="290" cy="304" r="3" fill="#56B4E9"/>
<circle cx="290" cy="183" r="3" fill="#E69F00"/>
<circle cx="290" cy="336" r="3" fill="#C44E52"/>
<circle cx="290" cy="44" r="3" fill="#000000"/>
<circle cx="363" cy="41" r="3" fill="#0072B2"/>
<circle cx="363" cy="87" r="3" fill="#CC79A7"/>
<circle cx="363" cy="340" r="3" fill="#D55E00"/>
<circle cx="363" cy="294" r="3" fill="#009E73"/>
<circle cx="363" cy="304" r="3" fill="#56B4E9"/>
<circle cx="363" cy="183" r="3" fill="#E69F00"/>
<circle cx="363" cy="333" r="3" fill="#C44E52"/>
<circle cx="363" cy="41" r="3" fill="#000000"/>
<circle cx="436" cy="58" r="3" fill="#0072B2"/>
<circle cx="436" cy="103" r="3" fill="#CC79A7"/>
<circle cx="436" cy="340" r="3" fill="#D55E00"/>
<circle cx="436" cy="296" r="3" fill="#009E73"/>
<circle cx="436" cy="304" r="3" fill="#56B4E9"/>
<circle cx="436" cy="182" r="3" fill="#E69F00"/>
<circle cx="436" cy="336" r="3" fill="#C44E52"/>
<circle cx="436" cy="43" r="3" fill="#000000"/>
<circle cx="510" cy="57" r="3" fill="#0072B2"/>
<circle cx="510" cy="99" r="3" fill="#CC79A7"/>
<circle cx="510" cy="340" r="3" fill="#D55E00"/>
<circle cx="510" cy="295" r="3" fill="#009E73"/>
<circle cx="510" cy="304" r="3" fill="#56B4E9"/>
<circle cx="510" cy="183" r="3" fill="#E69F00"/>
<circle cx="510" cy="336" r="3" fill="#C44E52"/>
<circle cx="510" cy="43" r="3" fill="#000000"/>
<circle cx="583" cy="59" r="3" fill="#0072B2"/>
<circle cx="583" cy="100" r="3" fill="#CC79A7"/>
<circle cx="583" cy="340" r="3" fill="#D55E00"/>
<circle cx="583" cy="295" r="3" fill="#009E73"/>
<circle cx="583" cy="304" r="3" fill="#56B4E9"/>
<circle cx="583" cy="182" r="3" fill="#E69F00"/>
<circle cx="583" cy="337" r="3" fill="#C44E52"/>
<circle cx="583" cy="43" r="3" fill="#000000"/>
<circle cx="656" cy="56" r="3" fill="#0072B2"/>
<circle cx="656" cy="102" r="3" fill="#CC79A7"/>
<circle cx="656" cy="340" r="3" fill="#D55E00"/>
<circle cx="656" cy="296" r="3" fill="#009E73"/>
<circle cx="656" cy="304" r="3" fill="#56B4E9"/>
<circle cx="656" cy="183" r="3" fill="#E69F00"/>
<circle cx="656" cy="335" r="3" fill="#C44E52"/>
<circle cx="656" cy="42" r="3" fill="#000000"/>
<circle cx="730" cy="61" r="3" fill="#0072B2"/>
<circle cx="730" cy="105" r="3" fill="#CC79A7"/>
<circle cx="730" cy="340" r="3" fill="#D55E00"/>
<circle cx="730" cy="296" r="3" fill="#009E73"/>
<circle cx="730" cy="304" r="3" fill="#56B4E9"/>
<circle cx="730" cy="183" r="3" fill="#E69F00"/>
<circle cx="730" cy="336" r="3" fill="#C44E52"/>
<circle cx="730" cy="43" r="3" fill="#000000"/>
<circle cx="90" cy="20" r="4" fill="#0072B2"/>
<text x="98" y="24" text-anchor="start" font-size="12" fill="#0072B2">inte</text>
<circle cx="150" cy="20" r="4" fill="#CC79A7"/>
<text x="158" y="24" text-anchor="start" font-size="12" fill="#CC79A7">comp</text>
<circle cx="215" cy="20" r="4" fill="#D55E00"/>
<text x="223" y="24" text-anchor="start" font-size="12" fill="#D55E00">run</text>
<circle cx="270" cy="20" r="4" fill="#009E73"/>
<text x="278" y="24" text-anchor="start" font-size="12" fill="#009E73">wall</text>
<circle cx="335" cy="20" r="4" fill="#56B4E9"/>
<text x="343" y="24" text-anchor="start" font-size="12" fill="#56B4E9">mem-inte</text>
<circle cx="425" cy="20" r="4" fill="#E69F00"/>
<text x="433" y="24" text-anchor="start" font-size="12" fill="#E69F00">mem-comp</text>
<circle cx="520" cy="20" r="4" fill="#C44E52"/>
<text x="528" y="24" text-anchor="start" font-size="12" fill="#C44E52">mem-run</text>
<circle cx="605" cy="20" r="4" fill="#000000"/>
<text x="613" y="24" text-anchor="start" font-size="12" fill="#000000">mem-total</text>
</svg>
