<svg width="800" height="400" xmlns="http://www.w3.org/2000/svg">
<rect width="800" height="400" fill="white"/>
<line x1="70" y1="40" x2="70" y2="340" stroke="#333" stroke-width="1"/>
<line x1="70" y1="340" x2="730" y2="340" stroke="#333" stroke-width="1"/>
<line x1="730" y1="40" x2="730" y2="340" stroke="#333" stroke-width="1"/>
<text x="65" y="344" text-anchor="end" font-size="11" fill="#333">0</text>
<text x="65" y="194" text-anchor="end" font-size="11" fill="#333">481000</text>
<text x="65" y="44" text-anchor="end" font-size="11" fill="#333">962000</text>
<text x="15" y="190" text-anchor="middle" font-size="12" fill="#333" transform="rotate(-90 15 190)">ms</text>
<text x="735" y="344" text-anchor="start" font-size="11" fill="#333">0</text>
<text x="735" y="194" text-anchor="start" font-size="11" fill="#333">61154000000</text>
<text x="735" y="44" text-anchor="start" font-size="11" fill="#333">122308000000</text>
<text x="785" y="190" text-anchor="middle" font-size="12" fill="#333" transform="rotate(90 785 190)">bytes</text>
<polyline points="70,83 143,82 216,74 290,83 363,76 436,79 510,172 583,176 656,171 730,175" fill="none" stroke="#0072B2" stroke-width="2"/>
<polyline points="70,49 143,46 216,42 290,44 363,41 436,41 510,142 583,144 656,141 730,139" fill="none" stroke="#CC79A7" stroke-width="2"/>
<polyline points="70,340 143,340 216,340 290,340 363,340 436,340 510,340 583,340 656,340 730,340" fill="none" stroke="#D55E00" stroke-width="2"/>
<polyline points="70,304 143,305 216,304 290,305 363,304 436,304 510,317 583,317 656,317 730,317" fill="none" stroke="#009E73" stroke-width="2"/>
<polyline points="70,171 143,171 216,169 290,171 363,169 436,169 510,252 583,252 656,250 730,251" fill="none" stroke="#984EA3" stroke-width="2"/>
<polyline points="70,53 143,53 216,50 290,48 363,49 436,49 510,86 583,86 656,85 730,85" fill="none" stroke="#56B4E9" stroke-width="2"/>
<polyline points="70,46 143,45 216,41 290,41 363,43 436,41 510,79 583,78 656,78 730,78" fill="none" stroke="#E69F00" stroke-width="2"/>
<polyline points="70,339 143,339 216,338 290,339 363,339 436,339 510,339 583,339 656,339 730,338" fill="none" stroke="#C44E52" stroke-width="2"/>
<polyline points="70,294 143,294 216,293 290,293 363,293 436,293 510,305 583,305 656,305 730,305" fill="none" stroke="#8C564B" stroke-width="2"/>
<circle cx="70" cy="83" r="3" fill="#0072B2"/>
<circle cx="70" cy="49" r="3" fill="#CC79A7"/>
<circle cx="70" cy="340" r="3" fill="#D55E00"/>
<circle cx="70" cy="304" r="3" fill="#009E73"/>
<circle cx="70" cy="171" r="3" fill="#984EA3"/>
<circle cx="70" cy="53" r="3" fill="#56B4E9"/>
<circle cx="70" cy="46" r="3" fill="#E69F00"/>
<circle cx="70" cy="339" r="3" fill="#C44E52"/>
<circle cx="70" cy="294" r="3" fill="#8C564B"/>
<circle cx="143" cy="82" r="3" fill="#0072B2"/>
<circle cx="143" cy="46" r="3" fill="#CC79A7"/>
<circle cx="143" cy="340" r="3" fill="#D55E00"/>
<circle cx="143" cy="305" r="3" fill="#009E73"/>
<circle cx="143" cy="171" r="3" fill="#984EA3"/>
<circle cx="143" cy="53" r="3" fill="#56B4E9"/>
<circle cx="143" cy="45" r="3" fill="#E69F00"/>
<circle cx="143" cy="339" r="3" fill="#C44E52"/>
<circle cx="143" cy="294" r="3" fill="#8C564B"/>
<circle cx="216" cy="74" r="3" fill="#0072B2"/>
<circle cx="216" cy="42" r="3" fill="#CC79A7"/>
<circle cx="216" cy="340" r="3" fill="#D55E00"/>
<circle cx="216" cy="304" r="3" fill="#009E73"/>
<circle cx="216" cy="169" r="3" fill="#984EA3"/>
<circle cx="216" cy="50" r="3" fill="#56B4E9"/>
<circle cx="216" cy="41" r="3" fill="#E69F00"/>
<circle cx="216" cy="338" r="3" fill="#C44E52"/>
<circle cx="216" cy="293" r="3" fill="#8C564B"/>
<circle cx="290" cy="83" r="3" fill="#0072B2"/>
<circle cx="290" cy="44" r="3" fill="#CC79A7"/>
<circle cx="290" cy="340" r="3" fill="#D55E00"/>
<circle cx="290" cy="305" r="3" fill="#009E73"/>
<circle cx="290" cy="171" r="3" fill="#984EA3"/>
<circle cx="290" cy="48" r="3" fill="#56B4E9"/>
<circle cx="290" cy="41" r="3" fill="#E69F00"/>
<circle cx="290" cy="339" r="3" fill="#C44E52"/>
<circle cx="290" cy="293" r="3" fill="#8C564B"/>
<circle cx="363" cy="76" r="3" fill="#0072B2"/>
<circle cx="363" cy="41" r="3" fill="#CC79A7"/>
<circle cx="363" cy="340" r="3" fill="#D55E00"/>
<circle cx="363" cy="304" r="3" fill="#009E73"/>
<circle cx="363" cy="169" r="3" fill="#984EA3"/>
<circle cx="363" cy="49" r="3" fill="#56B4E9"/>
<circle cx="363" cy="43" r="3" fill="#E69F00"/>
<circle cx="363" cy="339" r="3" fill="#C44E52"/>
<circle cx="363" cy="293" r="3" fill="#8C564B"/>
<circle cx="436" cy="79" r="3" fill="#0072B2"/>
<circle cx="436" cy="41" r="3" fill="#CC79A7"/>
<circle cx="436" cy="340" r="3" fill="#D55E00"/>
<circle cx="436" cy="304" r="3" fill="#009E73"/>
<circle cx="436" cy="169" r="3" fill="#984EA3"/>
<circle cx="436" cy="49" r="3" fill="#56B4E9"/>
<circle cx="436" cy="41" r="3" fill="#E69F00"/>
<circle cx="436" cy="339" r="3" fill="#C44E52"/>
<circle cx="436" cy="293" r="3" fill="#8C564B"/>
<circle cx="510" cy="172" r="3" fill="#0072B2"/>
<circle cx="510" cy="142" r="3" fill="#CC79A7"/>
<circle cx="510" cy="340" r="3" fill="#D55E00"/>
<circle cx="510" cy="317" r="3" fill="#009E73"/>
<circle cx="510" cy="252" r="3" fill="#984EA3"/>
<circle cx="510" cy="86" r="3" fill="#56B4E9"/>
<circle cx="510" cy="79" r="3" fill="#E69F00"/>
<circle cx="510" cy="339" r="3" fill="#C44E52"/>
<circle cx="510" cy="305" r="3" fill="#8C564B"/>
<circle cx="583" cy="176" r="3" fill="#0072B2"/>
<circle cx="583" cy="144" r="3" fill="#CC79A7"/>
<circle cx="583" cy="340" r="3" fill="#D55E00"/>
<circle cx="583" cy="317" r="3" fill="#009E73"/>
<circle cx="583" cy="252" r="3" fill="#984EA3"/>
<circle cx="583" cy="86" r="3" fill="#56B4E9"/>
<circle cx="583" cy="78" r="3" fill="#E69F00"/>
<circle cx="583" cy="339" r="3" fill="#C44E52"/>
<circle cx="583" cy="305" r="3" fill="#8C564B"/>
<circle cx="656" cy="171" r="3" fill="#0072B2"/>
<circle cx="656" cy="141" r="3" fill="#CC79A7"/>
<circle cx="656" cy="340" r="3" fill="#D55E00"/>
<circle cx="656" cy="317" r="3" fill="#009E73"/>
<circle cx="656" cy="250" r="3" fill="#984EA3"/>
<circle cx="656" cy="85" r="3" fill="#56B4E9"/>
<circle cx="656" cy="78" r="3" fill="#E69F00"/>
<circle cx="656" cy="339" r="3" fill="#C44E52"/>
<circle cx="656" cy="305" r="3" fill="#8C564B"/>
<circle cx="730" cy="175" r="3" fill="#0072B2"/>
<circle cx="730" cy="139" r="3" fill="#CC79A7"/>
<circle cx="730" cy="340" r="3" fill="#D55E00"/>
<circle cx="730" cy="317" r="3" fill="#009E73"/>
<circle cx="730" cy="251" r="3" fill="#984EA3"/>
<circle cx="730" cy="85" r="3" fill="#56B4E9"/>
<circle cx="730" cy="78" r="3" fill="#E69F00"/>
<circle cx="730" cy="338" r="3" fill="#C44E52"/>
<circle cx="730" cy="305" r="3" fill="#8C564B"/>
<circle cx="70" cy="20" r="4" fill="#0072B2"/>
<text x="78" y="24" text-anchor="start" font-size="12" fill="#0072B2">inte</text>
<circle cx="130" cy="20" r="4" fill="#CC79A7"/>
<text x="138" y="24" text-anchor="start" font-size="12" fill="#CC79A7">comp</text>
<circle cx="195" cy="20" r="4" fill="#D55E00"/>
<text x="203" y="24" text-anchor="start" font-size="12" fill="#D55E00">run</text>
<circle cx="250" cy="20" r="4" fill="#009E73"/>
<text x="258" y="24" text-anchor="start" font-size="12" fill="#009E73">wall</text>
<circle cx="315" cy="20" r="4" fill="#984EA3"/>
<text x="323" y="24" text-anchor="start" font-size="12" fill="#984EA3">self</text>
<circle cx="380" cy="20" r="4" fill="#56B4E9"/>
<text x="388" y="24" text-anchor="start" font-size="12" fill="#56B4E9">mem-inte</text>
<circle cx="470" cy="20" r="4" fill="#E69F00"/>
<text x="478" y="24" text-anchor="start" font-size="12" fill="#E69F00">mem-comp</text>
<circle cx="565" cy="20" r="4" fill="#C44E52"/>
<text x="573" y="24" text-anchor="start" font-size="12" fill="#C44E52">mem-run</text>
<circle cx="650" cy="20" r="4" fill="#8C564B"/>
<text x="658" y="24" text-anchor="start" font-size="12" fill="#8C564B">self-mem</text>
</svg>
