<svg width="800" height="400" xmlns="http://www.w3.org/2000/svg">
<rect width="800" height="400" fill="white"/>
<line x1="70" y1="40" x2="70" y2="340" stroke="#333" stroke-width="1"/>
<line x1="70" y1="340" x2="780" y2="340" stroke="#333" stroke-width="1"/>
<text x="65" y="344" text-anchor="end" font-size="11" fill="#333">0</text>
<text x="65" y="194" text-anchor="end" font-size="11" fill="#333">86000</text>
<text x="65" y="44" text-anchor="end" font-size="11" fill="#333">172000</text>
<text x="15" y="190" text-anchor="middle" font-size="12" fill="#333" transform="rotate(-90 15 190)">ms</text>
<polyline points="70,176 148,173 227,174 306,173 385,171 464,175 543,175 622,173 701,41 780,44" fill="none" stroke="#0072B2" stroke-width="2"/>
<polyline points="70,199 148,195 227,196 306,196 385,192 464,195 543,195 622,196 701,59 780,62" fill="none" stroke="#CC79A7" stroke-width="2"/>
<polyline points="70,338 148,338 227,338 306,338 385,338 464,338 543,338 622,338 701,338 780,338" fill="none" stroke="#D55E00" stroke-width="2"/>
<polyline points="70,260 148,257 227,258 306,258 385,259 464,259 543,260 622,258 701,303 780,303" fill="none" stroke="#009E73" stroke-width="2"/>
<circle cx="70" cy="176" r="3" fill="#0072B2"/>
<circle cx="70" cy="199" r="3" fill="#CC79A7"/>
<circle cx="70" cy="338" r="3" fill="#D55E00"/>
<circle cx="70" cy="260" r="3" fill="#009E73"/>
<circle cx="148" cy="173" r="3" fill="#0072B2"/>
<circle cx="148" cy="195" r="3" fill="#CC79A7"/>
<circle cx="148" cy="338" r="3" fill="#D55E00"/>
<circle cx="148" cy="257" r="3" fill="#009E73"/>
<circle cx="227" cy="174" r="3" fill="#0072B2"/>
<circle cx="227" cy="196" r="3" fill="#CC79A7"/>
<circle cx="227" cy="338" r="3" fill="#D55E00"/>
<circle cx="227" cy="258" r="3" fill="#009E73"/>
<circle cx="306" cy="173" r="3" fill="#0072B2"/>
<circle cx="306" cy="196" r="3" fill="#CC79A7"/>
<circle cx="306" cy="338" r="3" fill="#D55E00"/>
<circle cx="306" cy="258" r="3" fill="#009E73"/>
<circle cx="385" cy="171" r="3" fill="#0072B2"/>
<circle cx="385" cy="192" r="3" fill="#CC79A7"/>
<circle cx="385" cy="338" r="3" fill="#D55E00"/>
<circle cx="385" cy="259" r="3" fill="#009E73"/>
<circle cx="464" cy="175" r="3" fill="#0072B2"/>
<circle cx="464" cy="195" r="3" fill="#CC79A7"/>
<circle cx="464" cy="338" r="3" fill="#D55E00"/>
<circle cx="464" cy="259" r="3" fill="#009E73"/>
<circle cx="543" cy="175" r="3" fill="#0072B2"/>
<circle cx="543" cy="195" r="3" fill="#CC79A7"/>
<circle cx="543" cy="338" r="3" fill="#D55E00"/>
<circle cx="543" cy="260" r="3" fill="#009E73"/>
<circle cx="622" cy="173" r="3" fill="#0072B2"/>
<circle cx="622" cy="196" r="3" fill="#CC79A7"/>
<circle cx="622" cy="338" r="3" fill="#D55E00"/>
<circle cx="622" cy="258" r="3" fill="#009E73"/>
<circle cx="701" cy="41" r="3" fill="#0072B2"/>
<circle cx="701" cy="59" r="3" fill="#CC79A7"/>
<circle cx="701" cy="338" r="3" fill="#D55E00"/>
<circle cx="701" cy="303" r="3" fill="#009E73"/>
<circle cx="780" cy="44" r="3" fill="#0072B2"/>
<circle cx="780" cy="62" r="3" fill="#CC79A7"/>
<circle cx="780" cy="338" r="3" fill="#D55E00"/>
<circle cx="780" cy="303" r="3" fill="#009E73"/>
<circle cx="90" cy="20" r="4" fill="#0072B2"/>
<text x="98" y="24" text-anchor="start" font-size="12" fill="#0072B2">interpreted</text>
<circle cx="190" cy="20" r="4" fill="#CC79A7"/>
<text x="198" y="24" text-anchor="start" font-size="12" fill="#CC79A7">compiled</text>
<circle cx="275" cy="20" r="4" fill="#D55E00"/>
<text x="283" y="24" text-anchor="start" font-size="12" fill="#D55E00">executed</text>
<circle cx="355" cy="20" r="4" fill="#009E73"/>
<text x="363" y="24" text-anchor="start" font-size="12" fill="#009E73">wall</text>
</svg>
