<svg width="800" height="400" xmlns="http://www.w3.org/2000/svg">
<rect width="800" height="400" fill="white"/>
<line x1="70" y1="40" x2="70" y2="340" stroke="#333" stroke-width="1"/>
<line x1="70" y1="340" x2="730" y2="340" stroke="#333" stroke-width="1"/>
<line x1="730" y1="40" x2="730" y2="340" stroke="#333" stroke-width="1"/>
<text x="65" y="344" text-anchor="end" font-size="11" fill="#333">0</text>
<text x="65" y="194" text-anchor="end" font-size="11" fill="#333">137500</text>
<text x="65" y="44" text-anchor="end" font-size="11" fill="#333">275000</text>
<text x="15" y="190" text-anchor="middle" font-size="12" fill="#333" transform="rotate(-90 15 190)">ms</text>
<text x="735" y="344" text-anchor="start" font-size="11" fill="#333">0</text>
<text x="735" y="194" text-anchor="start" font-size="11" fill="#333">7691500000</text>
<text x="735" y="44" text-anchor="start" font-size="11" fill="#333">15383000000</text>
<text x="785" y="190" text-anchor="middle" font-size="12" fill="#333" transform="rotate(90 785 190)">bytes</text>
<polyline points="70,69 143,66 216,67 290,62 363,65 436,61 510,60 583,49 656,42 730,41" fill="none" stroke="#0072B2" stroke-width="2"/>
<polyline points="70,99 143,98 216,97 290,94 363,94 436,92 510,91 583,79 656,70 730,69" fill="none" stroke="#CC79A7" stroke-width="2"/>
<polyline points="70,340 143,340 216,340 290,340 363,340 436,340 510,340 583,340 656,340 730,340" fill="none" stroke="#D55E00" stroke-width="2"/>
<polyline points="70,289 143,289 216,289 290,287 363,287 436,289 510,289 583,287 656,287 730,287" fill="none" stroke="#009E73" stroke-width="2"/>
<polyline points="70,298 143,298 216,298 290,298 363,298 436,296 510,296 583,295 656,293 730,293" fill="none" stroke="#56B4E9" stroke-width="2"/>
<polyline points="70,223 143,223 216,223 290,222 363,222 436,220 510,220 583,217 656,212 730,213" fill="none" stroke="#E69F00" stroke-width="2"/>
<polyline points="70,339 143,339 216,339 290,340 363,340 436,340 510,339 583,339 656,338 730,340" fill="none" stroke="#C44E52" stroke-width="2"/>
<polyline points="70,54 143,56 216,54 290,56 363,54 436,53 510,48 583,47 656,41 730,43" fill="none" stroke="#000000" stroke-width="2"/>
<circle cx="70" cy="69" r="3" fill="#0072B2"/>
<circle cx="70" cy="99" r="3" fill="#CC79A7"/>
<circle cx="70" cy="340" r="3" fill="#D55E00"/>
<circle cx="70" cy="289" r="3" fill="#009E73"/>
<circle cx="70" cy="298" r="3" fill="#56B4E9"/>
<circle cx="70" cy="223" r="3" fill="#E69F00"/>
<circle cx="70" cy="339" r="3" fill="#C44E52"/>
<circle cx="70" cy="54" r="3" fill="#000000"/>
<circle cx="143" cy="66" r="3" fill="#0072B2"/>
<circle cx="143" cy="98" r="3" fill="#CC79A7"/>
<circle cx="143" cy="340" r="3" fill="#D55E00"/>
<circle cx="143" cy="289" r="3" fill="#009E73"/>
<circle cx="143" cy="298" r="3" fill="#56B4E9"/>
<circle cx="143" cy="223" r="3" fill="#E69F00"/>
<circle cx="143" cy="339" r="3" fill="#C44E52"/>
<circle cx="143" cy="56" r="3" fill="#000000"/>
<circle cx="216" cy="67" r="3" fill="#0072B2"/>
<circle cx="216" cy="97" r="3" fill="#CC79A7"/>
<circle cx="216" cy="340" r="3" fill="#D55E00"/>
<circle cx="216" cy="289" r="3" fill="#009E73"/>
<circle cx="216" cy="298" r="3" fill="#56B4E9"/>
<circle cx="216" cy="223" r="3" fill="#E69F00"/>
<circle cx="216" cy="339" r="3" fill="#C44E52"/>
<circle cx="216" cy="54" r="3" fill="#000000"/>
<circle cx="290" cy="62" r="3" fill="#0072B2"/>
<circle cx="290" cy="94" r="3" fill="#CC79A7"/>
<circle cx="290" cy="340" r="3" fill="#D55E00"/>
<circle cx="290" cy="287" r="3" fill="#009E73"/>
<circle cx="290" cy="298" r="3" fill="#56B4E9"/>
<circle cx="290" cy="222" r="3" fill="#E69F00"/>
<circle cx="290" cy="340" r="3" fill="#C44E52"/>
<circle cx="290" cy="56" r="3" fill="#000000"/>
<circle cx="363" cy="65" r="3" fill="#0072B2"/>
<circle cx="363" cy="94" r="3" fill="#CC79A7"/>
<circle cx="363" cy="340" r="3" fill="#D55E00"/>
<circle cx="363" cy="287" r="3" fill="#009E73"/>
<circle cx="363" cy="298" r="3" fill="#56B4E9"/>
<circle cx="363" cy="222" r="3" fill="#E69F00"/>
<circle cx="363" cy="340" r="3" fill="#C44E52"/>
<circle cx="363" cy="54" r="3" fill="#000000"/>
<circle cx="436" cy="61" r="3" fill="#0072B2"/>
<circle cx="436" cy="92" r="3" fill="#CC79A7"/>
<circle cx="436" cy="340" r="3" fill="#D55E00"/>
<circle cx="436" cy="289" r="3" fill="#009E73"/>
<circle cx="436" cy="296" r="3" fill="#56B4E9"/>
<circle cx="436" cy="220" r="3" fill="#E69F00"/>
<circle cx="436" cy="340" r="3" fill="#C44E52"/>
<circle cx="436" cy="53" r="3" fill="#000000"/>
<circle cx="510" cy="60" r="3" fill="#0072B2"/>
<circle cx="510" cy="91" r="3" fill="#CC79A7"/>
<circle cx="510" cy="340" r="3" fill="#D55E00"/>
<circle cx="510" cy="289" r="3" fill="#009E73"/>
<circle cx="510" cy="296" r="3" fill="#56B4E9"/>
<circle cx="510" cy="220" r="3" fill="#E69F00"/>
<circle cx="510" cy="339" r="3" fill="#C44E52"/>
<circle cx="510" cy="48" r="3" fill="#000000"/>
<circle cx="583" cy="49" r="3" fill="#0072B2"/>
<circle cx="583" cy="79" r="3" fill="#CC79A7"/>
<circle cx="583" cy="340" r="3" fill="#D55E00"/>
<circle cx="583" cy="287" r="3" fill="#009E73"/>
<circle cx="583" cy="295" r="3" fill="#56B4E9"/>
<circle cx="583" cy="217" r="3" fill="#E69F00"/>
<circle cx="583" cy="339" r="3" fill="#C44E52"/>
<circle cx="583" cy="47" r="3" fill="#000000"/>
<circle cx="656" cy="42" r="3" fill="#0072B2"/>
<circle cx="656" cy="70" r="3" fill="#CC79A7"/>
<circle cx="656" cy="340" r="3" fill="#D55E00"/>
<circle cx="656" cy="287" r="3" fill="#009E73"/>
<circle cx="656" cy="293" r="3" fill="#56B4E9"/>
<circle cx="656" cy="212" r="3" fill="#E69F00"/>
<circle cx="656" cy="338" r="3" fill="#C44E52"/>
<circle cx="656" cy="41" r="3" fill="#000000"/>
<circle cx="730" cy="41" r="3" fill="#0072B2"/>
<circle cx="730" cy="69" r="3" fill="#CC79A7"/>
<circle cx="730" cy="340" r="3" fill="#D55E00"/>
<circle cx="730" cy="287" r="3" fill="#009E73"/>
<circle cx="730" cy="293" r="3" fill="#56B4E9"/>
<circle cx="730" cy="213" r="3" fill="#E69F00"/>
<circle cx="730" cy="340" r="3" fill="#C44E52"/>
<circle cx="730" cy="43" r="3" fill="#000000"/>
<circle cx="90" cy="20" r="4" fill="#0072B2"/>
<text x="98" y="24" text-anchor="start" font-size="12" fill="#0072B2">inte</text>
<circle cx="150" cy="20" r="4" fill="#CC79A7"/>
<text x="158" y="24" text-anchor="start" font-size="12" fill="#CC79A7">comp</text>
<circle cx="215" cy="20" r="4" fill="#D55E00"/>
<text x="223" y="24" text-anchor="start" font-size="12" fill="#D55E00">run</text>
<circle cx="270" cy="20" r="4" fill="#009E73"/>
<text x="278" y="24" text-anchor="start" font-size="12" fill="#009E73">wall</text>
<circle cx="335" cy="20" r="4" fill="#56B4E9"/>
<text x="343" y="24" text-anchor="start" font-size="12" fill="#56B4E9">mem-inte</text>
<circle cx="425" cy="20" r="4" fill="#E69F00"/>
<text x="433" y="24" text-anchor="start" font-size="12" fill="#E69F00">mem-comp</text>
<circle cx="520" cy="20" r="4" fill="#C44E52"/>
<text x="528" y="24" text-anchor="start" font-size="12" fill="#C44E52">mem-run</text>
<circle cx="605" cy="20" r="4" fill="#000000"/>
<text x="613" y="24" text-anchor="start" font-size="12" fill="#000000">mem-total</text>
</svg>
