<svg width="800" height="400" xmlns="http://www.w3.org/2000/svg">
<rect width="800" height="400" fill="white"/>
<line x1="70" y1="40" x2="70" y2="340" stroke="#333" stroke-width="1"/>
<line x1="70" y1="340" x2="730" y2="340" stroke="#333" stroke-width="1"/>
<line x1="730" y1="40" x2="730" y2="340" stroke="#333" stroke-width="1"/>
<text x="65" y="344" text-anchor="end" font-size="11" fill="#333">0</text>
<text x="65" y="194" text-anchor="end" font-size="11" fill="#333">447000</text>
<text x="65" y="44" text-anchor="end" font-size="11" fill="#333">894000</text>
<text x="15" y="190" text-anchor="middle" font-size="12" fill="#333" transform="rotate(-90 15 190)">ms</text>
<text x="735" y="344" text-anchor="start" font-size="11" fill="#333">0</text>
<text x="735" y="194" text-anchor="start" font-size="11" fill="#333">63627500000</text>
<text x="735" y="44" text-anchor="start" font-size="11" fill="#333">127255000000</text>
<text x="785" y="190" text-anchor="middle" font-size="12" fill="#333" transform="rotate(90 785 190)">bytes</text>
<polyline points="70,47 143,79 216,78 290,79 363,84 436,84 510,78 583,82 656,73 730,83" fill="none" stroke="#0072B2" stroke-width="2"/>
<polyline points="70,50 143,43 216,45 290,41 363,45 436,47 510,47 583,44 656,46 730,42" fill="none" stroke="#CC79A7" stroke-width="2"/>
<polyline points="70,340 143,340 216,340 290,340 363,340 436,340 510,340 583,340 656,340 730,340" fill="none" stroke="#D55E00" stroke-width="2"/>
<polyline points="70,297 143,303 216,304 290,304 363,304 436,302 510,303 583,304 656,304 730,304" fill="none" stroke="#009E73" stroke-width="2"/>
<polyline points="70,152 143,153 216,153 290,152 363,156 436,156 510,153 583,153 656,155 730,154" fill="none" stroke="#984EA3" stroke-width="2"/>
<polyline points="70,45 143,53 216,52 290,55 363,55 436,53 510,54 583,54 656,50 730,47" fill="none" stroke="#56B4E9" stroke-width="2"/>
<polyline points="70,47 143,46 216,48 290,47 363,49 436,47 510,47 583,48 656,43 730,41" fill="none" stroke="#E69F00" stroke-width="2"/>
<polyline points="70,340 143,340 216,340 290,340 363,340 436,340 510,340 583,339 656,340 730,340" fill="none" stroke="#C44E52" stroke-width="2"/>
<polyline points="70,294 143,294 216,294 290,294 363,294 436,294 510,294 583,294 656,294 730,294" fill="none" stroke="#8C564B" stroke-width="2"/>
<circle cx="70" cy="47" r="3" fill="#0072B2"/>
<circle cx="70" cy="50" r="3" fill="#CC79A7"/>
<circle cx="70" cy="340" r="3" fill="#D55E00"/>
<circle cx="70" cy="297" r="3" fill="#009E73"/>
<circle cx="70" cy="152" r="3" fill="#984EA3"/>
<circle cx="70" cy="45" r="3" fill="#56B4E9"/>
<circle cx="70" cy="47" r="3" fill="#E69F00"/>
<circle cx="70" cy="340" r="3" fill="#C44E52"/>
<circle cx="70" cy="294" r="3" fill="#8C564B"/>
<circle cx="143" cy="79" r="3" fill="#0072B2"/>
<circle cx="143" cy="43" r="3" fill="#CC79A7"/>
<circle cx="143" cy="340" r="3" fill="#D55E00"/>
<circle cx="143" cy="303" r="3" fill="#009E73"/>
<circle cx="143" cy="153" r="3" fill="#984EA3"/>
<circle cx="143" cy="53" r="3" fill="#56B4E9"/>
<circle cx="143" cy="46" r="3" fill="#E69F00"/>
<circle cx="143" cy="340" r="3" fill="#C44E52"/>
<circle cx="143" cy="294" r="3" fill="#8C564B"/>
<circle cx="216" cy="78" r="3" fill="#0072B2"/>
<circle cx="216" cy="45" r="3" fill="#CC79A7"/>
<circle cx="216" cy="340" r="3" fill="#D55E00"/>
<circle cx="216" cy="304" r="3" fill="#009E73"/>
<circle cx="216" cy="153" r="3" fill="#984EA3"/>
<circle cx="216" cy="52" r="3" fill="#56B4E9"/>
<circle cx="216" cy="48" r="3" fill="#E69F00"/>
<circle cx="216" cy="340" r="3" fill="#C44E52"/>
<circle cx="216" cy="294" r="3" fill="#8C564B"/>
<circle cx="290" cy="79" r="3" fill="#0072B2"/>
<circle cx="290" cy="41" r="3" fill="#CC79A7"/>
<circle cx="290" cy="340" r="3" fill="#D55E00"/>
<circle cx="290" cy="304" r="3" fill="#009E73"/>
<circle cx="290" cy="152" r="3" fill="#984EA3"/>
<circle cx="290" cy="55" r="3" fill="#56B4E9"/>
<circle cx="290" cy="47" r="3" fill="#E69F00"/>
<circle cx="290" cy="340" r="3" fill="#C44E52"/>
<circle cx="290" cy="294" r="3" fill="#8C564B"/>
<circle cx="363" cy="84" r="3" fill="#0072B2"/>
<circle cx="363" cy="45" r="3" fill="#CC79A7"/>
<circle cx="363" cy="340" r="3" fill="#D55E00"/>
<circle cx="363" cy="304" r="3" fill="#009E73"/>
<circle cx="363" cy="156" r="3" fill="#984EA3"/>
<circle cx="363" cy="55" r="3" fill="#56B4E9"/>
<circle cx="363" cy="49" r="3" fill="#E69F00"/>
<circle cx="363" cy="340" r="3" fill="#C44E52"/>
<circle cx="363" cy="294" r="3" fill="#8C564B"/>
<circle cx="436" cy="84" r="3" fill="#0072B2"/>
<circle cx="436" cy="47" r="3" fill="#CC79A7"/>
<circle cx="436" cy="340" r="3" fill="#D55E00"/>
<circle cx="436" cy="302" r="3" fill="#009E73"/>
<circle cx="436" cy="156" r="3" fill="#984EA3"/>
<circle cx="436" cy="53" r="3" fill="#56B4E9"/>
<circle cx="436" cy="47" r="3" fill="#E69F00"/>
<circle cx="436" cy="340" r="3" fill="#C44E52"/>
<circle cx="436" cy="294" r="3" fill="#8C564B"/>
<circle cx="510" cy="78" r="3" fill="#0072B2"/>
<circle cx="510" cy="47" r="3" fill="#CC79A7"/>
<circle cx="510" cy="340" r="3" fill="#D55E00"/>
<circle cx="510" cy="303" r="3" fill="#009E73"/>
<circle cx="510" cy="153" r="3" fill="#984EA3"/>
<circle cx="510" cy="54" r="3" fill="#56B4E9"/>
<circle cx="510" cy="47" r="3" fill="#E69F00"/>
<circle cx="510" cy="340" r="3" fill="#C44E52"/>
<circle cx="510" cy="294" r="3" fill="#8C564B"/>
<circle cx="583" cy="82" r="3" fill="#0072B2"/>
<circle cx="583" cy="44" r="3" fill="#CC79A7"/>
<circle cx="583" cy="340" r="3" fill="#D55E00"/>
<circle cx="583" cy="304" r="3" fill="#009E73"/>
<circle cx="583" cy="153" r="3" fill="#984EA3"/>
<circle cx="583" cy="54" r="3" fill="#56B4E9"/>
<circle cx="583" cy="48" r="3" fill="#E69F00"/>
<circle cx="583" cy="339" r="3" fill="#C44E52"/>
<circle cx="583" cy="294" r="3" fill="#8C564B"/>
<circle cx="656" cy="73" r="3" fill="#0072B2"/>
<circle cx="656" cy="46" r="3" fill="#CC79A7"/>
<circle cx="656" cy="340" r="3" fill="#D55E00"/>
<circle cx="656" cy="304" r="3" fill="#009E73"/>
<circle cx="656" cy="155" r="3" fill="#984EA3"/>
<circle cx="656" cy="50" r="3" fill="#56B4E9"/>
<circle cx="656" cy="43" r="3" fill="#E69F00"/>
<circle cx="656" cy="340" r="3" fill="#C44E52"/>
<circle cx="656" cy="294" r="3" fill="#8C564B"/>
<circle cx="730" cy="83" r="3" fill="#0072B2"/>
<circle cx="730" cy="42" r="3" fill="#CC79A7"/>
<circle cx="730" cy="340" r="3" fill="#D55E00"/>
<circle cx="730" cy="304" r="3" fill="#009E73"/>
<circle cx="730" cy="154" r="3" fill="#984EA3"/>
<circle cx="730" cy="47" r="3" fill="#56B4E9"/>
<circle cx="730" cy="41" r="3" fill="#E69F00"/>
<circle cx="730" cy="340" r="3" fill="#C44E52"/>
<circle cx="730" cy="294" r="3" fill="#8C564B"/>
<circle cx="70" cy="20" r="4" fill="#0072B2"/>
<text x="78" y="24" text-anchor="start" font-size="12" fill="#0072B2">inte</text>
<circle cx="130" cy="20" r="4" fill="#CC79A7"/>
<text x="138" y="24" text-anchor="start" font-size="12" fill="#CC79A7">comp</text>
<circle cx="195" cy="20" r="4" fill="#D55E00"/>
<text x="203" y="24" text-anchor="start" font-size="12" fill="#D55E00">run</text>
<circle cx="250" cy="20" r="4" fill="#009E73"/>
<text x="258" y="24" text-anchor="start" font-size="12" fill="#009E73">wall</text>
<circle cx="315" cy="20" r="4" fill="#984EA3"/>
<text x="323" y="24" text-anchor="start" font-size="12" fill="#984EA3">self</text>
<circle cx="380" cy="20" r="4" fill="#56B4E9"/>
<text x="388" y="24" text-anchor="start" font-size="12" fill="#56B4E9">mem-inte</text>
<circle cx="470" cy="20" r="4" fill="#E69F00"/>
<text x="478" y="24" text-anchor="start" font-size="12" fill="#E69F00">mem-comp</text>
<circle cx="565" cy="20" r="4" fill="#C44E52"/>
<text x="573" y="24" text-anchor="start" font-size="12" fill="#C44E52">mem-run</text>
<circle cx="650" cy="20" r="4" fill="#8C564B"/>
<text x="658" y="24" text-anchor="start" font-size="12" fill="#8C564B">self-mem</text>
</svg>
