<svg width="800" height="400" xmlns="http://www.w3.org/2000/svg">
<rect width="800" height="400" fill="white"/>
<line x1="70" y1="40" x2="70" y2="340" stroke="#333" stroke-width="1"/>
<line x1="70" y1="340" x2="730" y2="340" stroke="#333" stroke-width="1"/>
<line x1="730" y1="40" x2="730" y2="340" stroke="#333" stroke-width="1"/>
<text x="65" y="344" text-anchor="end" font-size="11" fill="#333">0</text>
<text x="65" y="194" text-anchor="end" font-size="11" fill="#333">102500</text>
<text x="65" y="44" text-anchor="end" font-size="11" fill="#333">205000</text>
<text x="15" y="190" text-anchor="middle" font-size="12" fill="#333" transform="rotate(-90 15 190)">ms</text>
<text x="735" y="344" text-anchor="start" font-size="11" fill="#333">0</text>
<text x="735" y="194" text-anchor="start" font-size="11" fill="#333">11597000000</text>
<text x="735" y="44" text-anchor="start" font-size="11" fill="#333">23194000000</text>
<text x="785" y="190" text-anchor="middle" font-size="12" fill="#333" transform="rotate(90 785 190)">bytes</text>
<polyline points="70,155 143,150 216,150 290,154 363,151 436,153 510,143 583,142 656,145 730,148" fill="none" stroke="#0072B2" stroke-width="2"/>
<polyline points="70,54 143,46 216,42 290,47 363,41 436,48 510,42 583,45 656,53 730,54" fill="none" stroke="#CC79A7" stroke-width="2"/>
<polyline points="70,339 143,339 216,339 290,340 363,339 436,339 510,339 583,340 656,340 730,340" fill="none" stroke="#D55E00" stroke-width="2"/>
<polyline points="70,309 143,308 216,308 290,308 363,308 436,308 510,307 583,307 656,307 730,308" fill="none" stroke="#009E73" stroke-width="2"/>
<polyline points="70,227 143,222 216,223 290,225 363,224 436,228 510,197 583,195 656,212 730,209" fill="none" stroke="#984EA3" stroke-width="2"/>
<polyline points="70,300 143,300 216,300 290,300 363,300 436,300 510,300 583,288 656,288 730,288" fill="none" stroke="#56B4E9" stroke-width="2"/>
<polyline points="70,200 143,200 216,199 290,199 363,199 436,199 510,200 583,190 656,190 730,190" fill="none" stroke="#E69F00" stroke-width="2"/>
<polyline points="70,340 143,339 216,339 290,340 363,339 436,339 510,339 583,339 656,340 730,340" fill="none" stroke="#C44E52" stroke-width="2"/>
<polyline points="70,64 143,65 216,65 290,65 363,64 436,64 510,65 583,41 656,41 730,41" fill="none" stroke="#000000" stroke-width="2"/>
<polyline points="70,333 143,333 216,333 290,333 363,333 436,333 510,333 583,331 656,331 730,331" fill="none" stroke="#8C564B" stroke-width="2"/>
<circle cx="70" cy="155" r="3" fill="#0072B2"/>
<circle cx="70" cy="54" r="3" fill="#CC79A7"/>
<circle cx="70" cy="339" r="3" fill="#D55E00"/>
<circle cx="70" cy="309" r="3" fill="#009E73"/>
<circle cx="70" cy="227" r="3" fill="#984EA3"/>
<circle cx="70" cy="300" r="3" fill="#56B4E9"/>
<circle cx="70" cy="200" r="3" fill="#E69F00"/>
<circle cx="70" cy="340" r="3" fill="#C44E52"/>
<circle cx="70" cy="64" r="3" fill="#000000"/>
<circle cx="70" cy="333" r="3" fill="#8C564B"/>
<circle cx="143" cy="150" r="3" fill="#0072B2"/>
<circle cx="143" cy="46" r="3" fill="#CC79A7"/>
<circle cx="143" cy="339" r="3" fill="#D55E00"/>
<circle cx="143" cy="308" r="3" fill="#009E73"/>
<circle cx="143" cy="222" r="3" fill="#984EA3"/>
<circle cx="143" cy="300" r="3" fill="#56B4E9"/>
<circle cx="143" cy="200" r="3" fill="#E69F00"/>
<circle cx="143" cy="339" r="3" fill="#C44E52"/>
<circle cx="143" cy="65" r="3" fill="#000000"/>
<circle cx="143" cy="333" r="3" fill="#8C564B"/>
<circle cx="216" cy="150" r="3" fill="#0072B2"/>
<circle cx="216" cy="42" r="3" fill="#CC79A7"/>
<circle cx="216" cy="339" r="3" fill="#D55E00"/>
<circle cx="216" cy="308" r="3" fill="#009E73"/>
<circle cx="216" cy="223" r="3" fill="#984EA3"/>
<circle cx="216" cy="300" r="3" fill="#56B4E9"/>
<circle cx="216" cy="199" r="3" fill="#E69F00"/>
<circle cx="216" cy="339" r="3" fill="#C44E52"/>
<circle cx="216" cy="65" r="3" fill="#000000"/>
<circle cx="216" cy="333" r="3" fill="#8C564B"/>
<circle cx="290" cy="154" r="3" fill="#0072B2"/>
<circle cx="290" cy="47" r="3" fill="#CC79A7"/>
<circle cx="290" cy="340" r="3" fill="#D55E00"/>
<circle cx="290" cy="308" r="3" fill="#009E73"/>
<circle cx="290" cy="225" r="3" fill="#984EA3"/>
<circle cx="290" cy="300" r="3" fill="#56B4E9"/>
<circle cx="290" cy="199" r="3" fill="#E69F00"/>
<circle cx="290" cy="340" r="3" fill="#C44E52"/>
<circle cx="290" cy="65" r="3" fill="#000000"/>
<circle cx="290" cy="333" r="3" fill="#8C564B"/>
<circle cx="363" cy="151" r="3" fill="#0072B2"/>
<circle cx="363" cy="41" r="3" fill="#CC79A7"/>
<circle cx="363" cy="339" r="3" fill="#D55E00"/>
<circle cx="363" cy="308" r="3" fill="#009E73"/>
<circle cx="363" cy="224" r="3" fill="#984EA3"/>
<circle cx="363" cy="300" r="3" fill="#56B4E9"/>
<circle cx="363" cy="199" r="3" fill="#E69F00"/>
<circle cx="363" cy="339" r="3" fill="#C44E52"/>
<circle cx="363" cy="64" r="3" fill="#000000"/>
<circle cx="363" cy="333" r="3" fill="#8C564B"/>
<circle cx="436" cy="153" r="3" fill="#0072B2"/>
<circle cx="436" cy="48" r="3" fill="#CC79A7"/>
<circle cx="436" cy="339" r="3" fill="#D55E00"/>
<circle cx="436" cy="308" r="3" fill="#009E73"/>
<circle cx="436" cy="228" r="3" fill="#984EA3"/>
<circle cx="436" cy="300" r="3" fill="#56B4E9"/>
<circle cx="436" cy="199" r="3" fill="#E69F00"/>
<circle cx="436" cy="339" r="3" fill="#C44E52"/>
<circle cx="436" cy="64" r="3" fill="#000000"/>
<circle cx="436" cy="333" r="3" fill="#8C564B"/>
<circle cx="510" cy="143" r="3" fill="#0072B2"/>
<circle cx="510" cy="42" r="3" fill="#CC79A7"/>
<circle cx="510" cy="339" r="3" fill="#D55E00"/>
<circle cx="510" cy="307" r="3" fill="#009E73"/>
<circle cx="510" cy="197" r="3" fill="#984EA3"/>
<circle cx="510" cy="300" r="3" fill="#56B4E9"/>
<circle cx="510" cy="200" r="3" fill="#E69F00"/>
<circle cx="510" cy="339" r="3" fill="#C44E52"/>
<circle cx="510" cy="65" r="3" fill="#000000"/>
<circle cx="510" cy="333" r="3" fill="#8C564B"/>
<circle cx="583" cy="142" r="3" fill="#0072B2"/>
<circle cx="583" cy="45" r="3" fill="#CC79A7"/>
<circle cx="583" cy="340" r="3" fill="#D55E00"/>
<circle cx="583" cy="307" r="3" fill="#009E73"/>
<circle cx="583" cy="195" r="3" fill="#984EA3"/>
<circle cx="583" cy="288" r="3" fill="#56B4E9"/>
<circle cx="583" cy="190" r="3" fill="#E69F00"/>
<circle cx="583" cy="339" r="3" fill="#C44E52"/>
<circle cx="583" cy="41" r="3" fill="#000000"/>
<circle cx="583" cy="331" r="3" fill="#8C564B"/>
<circle cx="656" cy="145" r="3" fill="#0072B2"/>
<circle cx="656" cy="53" r="3" fill="#CC79A7"/>
<circle cx="656" cy="340" r="3" fill="#D55E00"/>
<circle cx="656" cy="307" r="3" fill="#009E73"/>
<circle cx="656" cy="212" r="3" fill="#984EA3"/>
<circle cx="656" cy="288" r="3" fill="#56B4E9"/>
<circle cx="656" cy="190" r="3" fill="#E69F00"/>
<circle cx="656" cy="340" r="3" fill="#C44E52"/>
<circle cx="656" cy="41" r="3" fill="#000000"/>
<circle cx="656" cy="331" r="3" fill="#8C564B"/>
<circle cx="730" cy="148" r="3" fill="#0072B2"/>
<circle cx="730" cy="54" r="3" fill="#CC79A7"/>
<circle cx="730" cy="340" r="3" fill="#D55E00"/>
<circle cx="730" cy="308" r="3" fill="#009E73"/>
<circle cx="730" cy="209" r="3" fill="#984EA3"/>
<circle cx="730" cy="288" r="3" fill="#56B4E9"/>
<circle cx="730" cy="190" r="3" fill="#E69F00"/>
<circle cx="730" cy="340" r="3" fill="#C44E52"/>
<circle cx="730" cy="41" r="3" fill="#000000"/>
<circle cx="730" cy="331" r="3" fill="#8C564B"/>
<circle cx="70" cy="20" r="4" fill="#0072B2"/>
<text x="78" y="24" text-anchor="start" font-size="12" fill="#0072B2">inte</text>
<circle cx="130" cy="20" r="4" fill="#CC79A7"/>
<text x="138" y="24" text-anchor="start" font-size="12" fill="#CC79A7">comp</text>
<circle cx="195" cy="20" r="4" fill="#D55E00"/>
<text x="203" y="24" text-anchor="start" font-size="12" fill="#D55E00">run</text>
<circle cx="250" cy="20" r="4" fill="#009E73"/>
<text x="258" y="24" text-anchor="start" font-size="12" fill="#009E73">wall</text>
<circle cx="315" cy="20" r="4" fill="#984EA3"/>
<text x="323" y="24" text-anchor="start" font-size="12" fill="#984EA3">self</text>
<circle cx="380" cy="20" r="4" fill="#56B4E9"/>
<text x="388" y="24" text-anchor="start" font-size="12" fill="#56B4E9">mem-inte</text>
<circle cx="470" cy="20" r="4" fill="#E69F00"/>
<text x="478" y="24" text-anchor="start" font-size="12" fill="#E69F00">mem-comp</text>
<circle cx="565" cy="20" r="4" fill="#C44E52"/>
<text x="573" y="24" text-anchor="start" font-size="12" fill="#C44E52">mem-run</text>
<circle cx="650" cy="20" r="4" fill="#000000"/>
<text x="658" y="24" text-anchor="start" font-size="12" fill="#000000">mem-total</text>
<circle cx="745" cy="20" r="4" fill="#8C564B"/>
<text x="753" y="24" text-anchor="start" font-size="12" fill="#8C564B">self-mem</text>
</svg>
