<svg width="800" height="400" xmlns="http://www.w3.org/2000/svg">
<rect width="800" height="400" fill="white"/>
<line x1="70" y1="40" x2="70" y2="340" stroke="#333" stroke-width="1"/>
<line x1="70" y1="340" x2="780" y2="340" stroke="#333" stroke-width="1"/>
<text x="65" y="344" text-anchor="end" font-size="11" fill="#333">0</text>
<text x="65" y="194" text-anchor="end" font-size="11" fill="#333">95000</text>
<text x="65" y="44" text-anchor="end" font-size="11" fill="#333">190000</text>
<text x="15" y="190" text-anchor="middle" font-size="12" fill="#333" transform="rotate(-90 15 190)">ms</text>
<polyline points="70,44 148,47 227,41 306,86 385,90 464,85 543,86 622,89 701,108 780,108" fill="none" stroke="#0072B2" stroke-width="2"/>
<polyline points="70,48 148,54 227,50 306,89 385,93 464,85 543,92 622,93 701,113 780,113" fill="none" stroke="#CC79A7" stroke-width="2"/>
<polyline points="70,338 148,338 227,338 306,338 385,338 464,338 543,338 622,338 701,338 780,338" fill="none" stroke="#D55E00" stroke-width="2"/>
<polyline points="70,301 148,302 227,302 306,307 385,308 464,307 543,308 622,308 701,310 780,310" fill="none" stroke="#009E73" stroke-width="2"/>
<circle cx="70" cy="44" r="3" fill="#0072B2"/>
<circle cx="70" cy="48" r="3" fill="#CC79A7"/>
<circle cx="70" cy="338" r="3" fill="#D55E00"/>
<circle cx="70" cy="301" r="3" fill="#009E73"/>
<circle cx="148" cy="47" r="3" fill="#0072B2"/>
<circle cx="148" cy="54" r="3" fill="#CC79A7"/>
<circle cx="148" cy="338" r="3" fill="#D55E00"/>
<circle cx="148" cy="302" r="3" fill="#009E73"/>
<circle cx="227" cy="41" r="3" fill="#0072B2"/>
<circle cx="227" cy="50" r="3" fill="#CC79A7"/>
<circle cx="227" cy="338" r="3" fill="#D55E00"/>
<circle cx="227" cy="302" r="3" fill="#009E73"/>
<circle cx="306" cy="86" r="3" fill="#0072B2"/>
<circle cx="306" cy="89" r="3" fill="#CC79A7"/>
<circle cx="306" cy="338" r="3" fill="#D55E00"/>
<circle cx="306" cy="307" r="3" fill="#009E73"/>
<circle cx="385" cy="90" r="3" fill="#0072B2"/>
<circle cx="385" cy="93" r="3" fill="#CC79A7"/>
<circle cx="385" cy="338" r="3" fill="#D55E00"/>
<circle cx="385" cy="308" r="3" fill="#009E73"/>
<circle cx="464" cy="85" r="3" fill="#0072B2"/>
<circle cx="464" cy="85" r="3" fill="#CC79A7"/>
<circle cx="464" cy="338" r="3" fill="#D55E00"/>
<circle cx="464" cy="307" r="3" fill="#009E73"/>
<circle cx="543" cy="86" r="3" fill="#0072B2"/>
<circle cx="543" cy="92" r="3" fill="#CC79A7"/>
<circle cx="543" cy="338" r="3" fill="#D55E00"/>
<circle cx="543" cy="308" r="3" fill="#009E73"/>
<circle cx="622" cy="89" r="3" fill="#0072B2"/>
<circle cx="622" cy="93" r="3" fill="#CC79A7"/>
<circle cx="622" cy="338" r="3" fill="#D55E00"/>
<circle cx="622" cy="308" r="3" fill="#009E73"/>
<circle cx="701" cy="108" r="3" fill="#0072B2"/>
<circle cx="701" cy="113" r="3" fill="#CC79A7"/>
<circle cx="701" cy="338" r="3" fill="#D55E00"/>
<circle cx="701" cy="310" r="3" fill="#009E73"/>
<circle cx="780" cy="108" r="3" fill="#0072B2"/>
<circle cx="780" cy="113" r="3" fill="#CC79A7"/>
<circle cx="780" cy="338" r="3" fill="#D55E00"/>
<circle cx="780" cy="310" r="3" fill="#009E73"/>
<circle cx="90" cy="20" r="4" fill="#0072B2"/>
<text x="98" y="24" text-anchor="start" font-size="12" fill="#0072B2">interpreted</text>
<circle cx="190" cy="20" r="4" fill="#CC79A7"/>
<text x="198" y="24" text-anchor="start" font-size="12" fill="#CC79A7">compiled</text>
<circle cx="275" cy="20" r="4" fill="#D55E00"/>
<text x="283" y="24" text-anchor="start" font-size="12" fill="#D55E00">executed</text>
<circle cx="355" cy="20" r="4" fill="#009E73"/>
<text x="363" y="24" text-anchor="start" font-size="12" fill="#009E73">wall</text>
</svg>
