<svg width="800" height="400" xmlns="http://www.w3.org/2000/svg">
<rect width="800" height="400" fill="white"/>
<line x1="70" y1="40" x2="70" y2="340" stroke="#333" stroke-width="1"/>
<line x1="70" y1="340" x2="730" y2="340" stroke="#333" stroke-width="1"/>
<line x1="730" y1="40" x2="730" y2="340" stroke="#333" stroke-width="1"/>
<text x="65" y="344" text-anchor="end" font-size="11" fill="#333">0</text>
<text x="65" y="194" text-anchor="end" font-size="11" fill="#333">443500</text>
<text x="65" y="44" text-anchor="end" font-size="11" fill="#333">887000</text>
<text x="15" y="190" text-anchor="middle" font-size="12" fill="#333" transform="rotate(-90 15 190)">ms</text>
<text x="735" y="344" text-anchor="start" font-size="11" fill="#333">0</text>
<text x="735" y="194" text-anchor="start" font-size="11" fill="#333">5454500000</text>
<text x="735" y="44" text-anchor="start" font-size="11" fill="#333">10909000000</text>
<text x="785" y="190" text-anchor="middle" font-size="12" fill="#333" transform="rotate(90 785 190)">bytes</text>
<polyline points="70,188 143,198 216,186 290,200 363,210 436,182 510,121 583,135 656,72 730,133" fill="none" stroke="#0072B2" stroke-width="2"/>
<polyline points="70,158 143,160 216,150 290,186 363,199 436,172 510,98 583,95 656,41 730,117" fill="none" stroke="#CC79A7" stroke-width="2"/>
<polyline points="70,340 143,340 216,340 290,340 363,340 436,340 510,340 583,340 656,340 730,340" fill="none" stroke="#D55E00" stroke-width="2"/>
<polyline points="70,287 143,288 216,285 290,291 363,297 436,286 510,270 583,268 656,253 730,273" fill="none" stroke="#009E73" stroke-width="2"/>
<polyline points="70,275 143,275 216,275 290,276 363,276 436,276 510,265 583,265 656,265 730,270" fill="none" stroke="#56B4E9" stroke-width="2"/>
<polyline points="70,192 143,192 216,192 290,220 363,219 436,220 510,207 583,206 656,206 730,214" fill="none" stroke="#E69F00" stroke-width="2"/>
<polyline points="70,340 143,340 216,340 290,340 363,340 436,340 510,340 583,340 656,340 730,340" fill="none" stroke="#C44E52" stroke-width="2"/>
<polyline points="70,41 143,41 216,41 290,71 363,71 436,71 510,46 583,45 656,44 730,58" fill="none" stroke="#000000" stroke-width="2"/>
<circle cx="70" cy="188" r="3" fill="#0072B2"/>
<circle cx="70" cy="158" r="3" fill="#CC79A7"/>
<circle cx="70" cy="340" r="3" fill="#D55E00"/>
<circle cx="70" cy="287" r="3" fill="#009E73"/>
<circle cx="70" cy="275" r="3" fill="#56B4E9"/>
<circle cx="70" cy="192" r="3" fill="#E69F00"/>
<circle cx="70" cy="340" r="3" fill="#C44E52"/>
<circle cx="70" cy="41" r="3" fill="#000000"/>
<circle cx="143" cy="198" r="3" fill="#0072B2"/>
<circle cx="143" cy="160" r="3" fill="#CC79A7"/>
<circle cx="143" cy="340" r="3" fill="#D55E00"/>
<circle cx="143" cy="288" r="3" fill="#009E73"/>
<circle cx="143" cy="275" r="3" fill="#56B4E9"/>
<circle cx="143" cy="192" r="3" fill="#E69F00"/>
<circle cx="143" cy="340" r="3" fill="#C44E52"/>
<circle cx="143" cy="41" r="3" fill="#000000"/>
<circle cx="216" cy="186" r="3" fill="#0072B2"/>
<circle cx="216" cy="150" r="3" fill="#CC79A7"/>
<circle cx="216" cy="340" r="3" fill="#D55E00"/>
<circle cx="216" cy="285" r="3" fill="#009E73"/>
<circle cx="216" cy="275" r="3" fill="#56B4E9"/>
<circle cx="216" cy="192" r="3" fill="#E69F00"/>
<circle cx="216" cy="340" r="3" fill="#C44E52"/>
<circle cx="216" cy="41" r="3" fill="#000000"/>
<circle cx="290" cy="200" r="3" fill="#0072B2"/>
<circle cx="290" cy="186" r="3" fill="#CC79A7"/>
<circle cx="290" cy="340" r="3" fill="#D55E00"/>
<circle cx="290" cy="291" r="3" fill="#009E73"/>
<circle cx="290" cy="276" r="3" fill="#56B4E9"/>
<circle cx="290" cy="220" r="3" fill="#E69F00"/>
<circle cx="290" cy="340" r="3" fill="#C44E52"/>
<circle cx="290" cy="71" r="3" fill="#000000"/>
<circle cx="363" cy="210" r="3" fill="#0072B2"/>
<circle cx="363" cy="199" r="3" fill="#CC79A7"/>
<circle cx="363" cy="340" r="3" fill="#D55E00"/>
<circle cx="363" cy="297" r="3" fill="#009E73"/>
<circle cx="363" cy="276" r="3" fill="#56B4E9"/>
<circle cx="363" cy="219" r="3" fill="#E69F00"/>
<circle cx="363" cy="340" r="3" fill="#C44E52"/>
<circle cx="363" cy="71" r="3" fill="#000000"/>
<circle cx="436" cy="182" r="3" fill="#0072B2"/>
<circle cx="436" cy="172" r="3" fill="#CC79A7"/>
<circle cx="436" cy="340" r="3" fill="#D55E00"/>
<circle cx="436" cy="286" r="3" fill="#009E73"/>
<circle cx="436" cy="276" r="3" fill="#56B4E9"/>
<circle cx="436" cy="220" r="3" fill="#E69F00"/>
<circle cx="436" cy="340" r="3" fill="#C44E52"/>
<circle cx="436" cy="71" r="3" fill="#000000"/>
<circle cx="510" cy="121" r="3" fill="#0072B2"/>
<circle cx="510" cy="98" r="3" fill="#CC79A7"/>
<circle cx="510" cy="340" r="3" fill="#D55E00"/>
<circle cx="510" cy="270" r="3" fill="#009E73"/>
<circle cx="510" cy="265" r="3" fill="#56B4E9"/>
<circle cx="510" cy="207" r="3" fill="#E69F00"/>
<circle cx="510" cy="340" r="3" fill="#C44E52"/>
<circle cx="510" cy="46" r="3" fill="#000000"/>
<circle cx="583" cy="135" r="3" fill="#0072B2"/>
<circle cx="583" cy="95" r="3" fill="#CC79A7"/>
<circle cx="583" cy="340" r="3" fill="#D55E00"/>
<circle cx="583" cy="268" r="3" fill="#009E73"/>
<circle cx="583" cy="265" r="3" fill="#56B4E9"/>
<circle cx="583" cy="206" r="3" fill="#E69F00"/>
<circle cx="583" cy="340" r="3" fill="#C44E52"/>
<circle cx="583" cy="45" r="3" fill="#000000"/>
<circle cx="656" cy="72" r="3" fill="#0072B2"/>
<circle cx="656" cy="41" r="3" fill="#CC79A7"/>
<circle cx="656" cy="340" r="3" fill="#D55E00"/>
<circle cx="656" cy="253" r="3" fill="#009E73"/>
<circle cx="656" cy="265" r="3" fill="#56B4E9"/>
<circle cx="656" cy="206" r="3" fill="#E69F00"/>
<circle cx="656" cy="340" r="3" fill="#C44E52"/>
<circle cx="656" cy="44" r="3" fill="#000000"/>
<circle cx="730" cy="133" r="3" fill="#0072B2"/>
<circle cx="730" cy="117" r="3" fill="#CC79A7"/>
<circle cx="730" cy="340" r="3" fill="#D55E00"/>
<circle cx="730" cy="273" r="3" fill="#009E73"/>
<circle cx="730" cy="270" r="3" fill="#56B4E9"/>
<circle cx="730" cy="214" r="3" fill="#E69F00"/>
<circle cx="730" cy="340" r="3" fill="#C44E52"/>
<circle cx="730" cy="58" r="3" fill="#000000"/>
<circle cx="90" cy="20" r="4" fill="#0072B2"/>
<text x="98" y="24" text-anchor="start" font-size="12" fill="#0072B2">inte</text>
<circle cx="150" cy="20" r="4" fill="#CC79A7"/>
<text x="158" y="24" text-anchor="start" font-size="12" fill="#CC79A7">comp</text>
<circle cx="215" cy="20" r="4" fill="#D55E00"/>
<text x="223" y="24" text-anchor="start" font-size="12" fill="#D55E00">run</text>
<circle cx="270" cy="20" r="4" fill="#009E73"/>
<text x="278" y="24" text-anchor="start" font-size="12" fill="#009E73">wall</text>
<circle cx="335" cy="20" r="4" fill="#56B4E9"/>
<text x="343" y="24" text-anchor="start" font-size="12" fill="#56B4E9">mem-inte</text>
<circle cx="425" cy="20" r="4" fill="#E69F00"/>
<text x="433" y="24" text-anchor="start" font-size="12" fill="#E69F00">mem-comp</text>
<circle cx="520" cy="20" r="4" fill="#C44E52"/>
<text x="528" y="24" text-anchor="start" font-size="12" fill="#C44E52">mem-run</text>
<circle cx="605" cy="20" r="4" fill="#000000"/>
<text x="613" y="24" text-anchor="start" font-size="12" fill="#000000">mem-total</text>
</svg>
