<svg width="800" height="400" xmlns="http://www.w3.org/2000/svg">
<rect width="800" height="400" fill="white"/>
<line x1="70" y1="40" x2="70" y2="340" stroke="#333" stroke-width="1"/>
<line x1="70" y1="340" x2="730" y2="340" stroke="#333" stroke-width="1"/>
<line x1="730" y1="40" x2="730" y2="340" stroke="#333" stroke-width="1"/>
<text x="65" y="344" text-anchor="end" font-size="11" fill="#333">0</text>
<text x="65" y="194" text-anchor="end" font-size="11" fill="#333">44500</text>
<text x="65" y="44" text-anchor="end" font-size="11" fill="#333">89000</text>
<text x="15" y="190" text-anchor="middle" font-size="12" fill="#333" transform="rotate(-90 15 190)">ms</text>
<text x="735" y="344" text-anchor="start" font-size="11" fill="#333">0</text>
<text x="735" y="194" text-anchor="start" font-size="11" fill="#333">1000000</text>
<text x="735" y="44" text-anchor="start" font-size="11" fill="#333">2000000</text>
<text x="785" y="190" text-anchor="middle" font-size="12" fill="#333" transform="rotate(90 785 190)">bytes</text>
<polyline points="70,70 143,71 216,74 290,55 363,68 436,71 510,72 583,70 656,70 730,67" fill="none" stroke="#0072B2" stroke-width="2"/>
<polyline points="70,60 143,57 216,63 290,43 363,62 436,57 510,62 583,58 656,59 730,60" fill="none" stroke="#CC79A7" stroke-width="2"/>
<polyline points="70,335 143,335 216,335 290,335 363,335 436,335 510,335 583,335 656,335 730,335" fill="none" stroke="#D55E00" stroke-width="2"/>
<polyline points="70,301 143,301 216,302 290,299 363,301 436,301 510,302 583,301 656,301 730,301" fill="none" stroke="#009E73" stroke-width="2"/>
<polyline points="70,63 143,63 216,63 290,63 363,64 436,63 510,63 583,63 656,63 730,63" fill="none" stroke="#56B4E9" stroke-width="2"/>
<circle cx="70" cy="70" r="3" fill="#0072B2"/>
<circle cx="70" cy="60" r="3" fill="#CC79A7"/>
<circle cx="70" cy="335" r="3" fill="#D55E00"/>
<circle cx="70" cy="301" r="3" fill="#009E73"/>
<circle cx="70" cy="63" r="3" fill="#56B4E9"/>
<circle cx="143" cy="71" r="3" fill="#0072B2"/>
<circle cx="143" cy="57" r="3" fill="#CC79A7"/>
<circle cx="143" cy="335" r="3" fill="#D55E00"/>
<circle cx="143" cy="301" r="3" fill="#009E73"/>
<circle cx="143" cy="63" r="3" fill="#56B4E9"/>
<circle cx="216" cy="74" r="3" fill="#0072B2"/>
<circle cx="216" cy="63" r="3" fill="#CC79A7"/>
<circle cx="216" cy="335" r="3" fill="#D55E00"/>
<circle cx="216" cy="302" r="3" fill="#009E73"/>
<circle cx="216" cy="63" r="3" fill="#56B4E9"/>
<circle cx="290" cy="55" r="3" fill="#0072B2"/>
<circle cx="290" cy="43" r="3" fill="#CC79A7"/>
<circle cx="290" cy="335" r="3" fill="#D55E00"/>
<circle cx="290" cy="299" r="3" fill="#009E73"/>
<circle cx="290" cy="63" r="3" fill="#56B4E9"/>
<circle cx="363" cy="68" r="3" fill="#0072B2"/>
<circle cx="363" cy="62" r="3" fill="#CC79A7"/>
<circle cx="363" cy="335" r="3" fill="#D55E00"/>
<circle cx="363" cy="301" r="3" fill="#009E73"/>
<circle cx="363" cy="64" r="3" fill="#56B4E9"/>
<circle cx="436" cy="71" r="3" fill="#0072B2"/>
<circle cx="436" cy="57" r="3" fill="#CC79A7"/>
<circle cx="436" cy="335" r="3" fill="#D55E00"/>
<circle cx="436" cy="301" r="3" fill="#009E73"/>
<circle cx="436" cy="63" r="3" fill="#56B4E9"/>
<circle cx="510" cy="72" r="3" fill="#0072B2"/>
<circle cx="510" cy="62" r="3" fill="#CC79A7"/>
<circle cx="510" cy="335" r="3" fill="#D55E00"/>
<circle cx="510" cy="302" r="3" fill="#009E73"/>
<circle cx="510" cy="63" r="3" fill="#56B4E9"/>
<circle cx="583" cy="70" r="3" fill="#0072B2"/>
<circle cx="583" cy="58" r="3" fill="#CC79A7"/>
<circle cx="583" cy="335" r="3" fill="#D55E00"/>
<circle cx="583" cy="301" r="3" fill="#009E73"/>
<circle cx="583" cy="63" r="3" fill="#56B4E9"/>
<circle cx="656" cy="70" r="3" fill="#0072B2"/>
<circle cx="656" cy="59" r="3" fill="#CC79A7"/>
<circle cx="656" cy="335" r="3" fill="#D55E00"/>
<circle cx="656" cy="301" r="3" fill="#009E73"/>
<circle cx="656" cy="63" r="3" fill="#56B4E9"/>
<circle cx="730" cy="67" r="3" fill="#0072B2"/>
<circle cx="730" cy="60" r="3" fill="#CC79A7"/>
<circle cx="730" cy="335" r="3" fill="#D55E00"/>
<circle cx="730" cy="301" r="3" fill="#009E73"/>
<circle cx="730" cy="63" r="3" fill="#56B4E9"/>
<circle cx="90" cy="20" r="4" fill="#0072B2"/>
<text x="98" y="24" text-anchor="start" font-size="12" fill="#0072B2">interpreted</text>
<circle cx="190" cy="20" r="4" fill="#CC79A7"/>
<text x="198" y="24" text-anchor="start" font-size="12" fill="#CC79A7">compiled</text>
<circle cx="275" cy="20" r="4" fill="#D55E00"/>
<text x="283" y="24" text-anchor="start" font-size="12" fill="#D55E00">executed</text>
<circle cx="355" cy="20" r="4" fill="#009E73"/>
<text x="363" y="24" text-anchor="start" font-size="12" fill="#009E73">wall</text>
<circle cx="420" cy="20" r="4" fill="#56B4E9"/>
<text x="428" y="24" text-anchor="start" font-size="12" fill="#56B4E9">memory</text>
</svg>
