<svg width="800" height="400" xmlns="http://www.w3.org/2000/svg">
<rect width="800" height="400" fill="white"/>
<line x1="70" y1="40" x2="70" y2="340" stroke="#333" stroke-width="1"/>
<line x1="70" y1="340" x2="730" y2="340" stroke="#333" stroke-width="1"/>
<line x1="730" y1="40" x2="730" y2="340" stroke="#333" stroke-width="1"/>
<text x="65" y="344" text-anchor="end" font-size="11" fill="#333">0</text>
<text x="65" y="194" text-anchor="end" font-size="11" fill="#333">621500</text>
<text x="65" y="44" text-anchor="end" font-size="11" fill="#333">1243000</text>
<text x="15" y="190" text-anchor="middle" font-size="12" fill="#333" transform="rotate(-90 15 190)">ms</text>
<text x="735" y="344" text-anchor="start" font-size="11" fill="#333">0</text>
<text x="735" y="194" text-anchor="start" font-size="11" fill="#333">69305500000</text>
<text x="735" y="44" text-anchor="start" font-size="11" fill="#333">138611000000</text>
<text x="785" y="190" text-anchor="middle" font-size="12" fill="#333" transform="rotate(90 785 190)">bytes</text>
<polyline points="70,55 143,53 216,66 290,61 363,51 436,48 510,46 583,45 656,52 730,53" fill="none" stroke="#0072B2" stroke-width="2"/>
<polyline points="70,57 143,58 216,64 290,58 363,52 436,46 510,47 583,41 656,48 730,55" fill="none" stroke="#CC79A7" stroke-width="2"/>
<polyline points="70,340 143,340 216,340 290,340 363,340 436,340 510,340 583,340 656,340 730,340" fill="none" stroke="#D55E00" stroke-width="2"/>
<polyline points="70,303 143,303 216,304 290,304 363,302 436,302 510,302 583,302 656,303 730,303" fill="none" stroke="#009E73" stroke-width="2"/>
<polyline points="70,122 143,127 216,196 290,193 363,188 436,188 510,187 583,185 656,197 730,198" fill="none" stroke="#984EA3" stroke-width="2"/>
<polyline points="70,41 143,42 216,41 290,42 363,43 436,42 510,41 583,41 656,43 730,43" fill="none" stroke="#56B4E9" stroke-width="2"/>
<polyline points="70,44 143,45 216,44 290,41 363,43 436,43 510,42 583,42 656,43 730,43" fill="none" stroke="#E69F00" stroke-width="2"/>
<polyline points="70,340 143,340 216,340 290,340 363,340 436,339 510,340 583,340 656,340 730,340" fill="none" stroke="#C44E52" stroke-width="2"/>
<polyline points="70,298 143,298 216,299 290,298 363,298 436,298 510,297 583,298 656,298 730,297" fill="none" stroke="#8C564B" stroke-width="2"/>
<circle cx="70" cy="55" r="3" fill="#0072B2"/>
<circle cx="70" cy="57" r="3" fill="#CC79A7"/>
<circle cx="70" cy="340" r="3" fill="#D55E00"/>
<circle cx="70" cy="303" r="3" fill="#009E73"/>
<circle cx="70" cy="122" r="3" fill="#984EA3"/>
<circle cx="70" cy="41" r="3" fill="#56B4E9"/>
<circle cx="70" cy="44" r="3" fill="#E69F00"/>
<circle cx="70" cy="340" r="3" fill="#C44E52"/>
<circle cx="70" cy="298" r="3" fill="#8C564B"/>
<circle cx="143" cy="53" r="3" fill="#0072B2"/>
<circle cx="143" cy="58" r="3" fill="#CC79A7"/>
<circle cx="143" cy="340" r="3" fill="#D55E00"/>
<circle cx="143" cy="303" r="3" fill="#009E73"/>
<circle cx="143" cy="127" r="3" fill="#984EA3"/>
<circle cx="143" cy="42" r="3" fill="#56B4E9"/>
<circle cx="143" cy="45" r="3" fill="#E69F00"/>
<circle cx="143" cy="340" r="3" fill="#C44E52"/>
<circle cx="143" cy="298" r="3" fill="#8C564B"/>
<circle cx="216" cy="66" r="3" fill="#0072B2"/>
<circle cx="216" cy="64" r="3" fill="#CC79A7"/>
<circle cx="216" cy="340" r="3" fill="#D55E00"/>
<circle cx="216" cy="304" r="3" fill="#009E73"/>
<circle cx="216" cy="196" r="3" fill="#984EA3"/>
<circle cx="216" cy="41" r="3" fill="#56B4E9"/>
<circle cx="216" cy="44" r="3" fill="#E69F00"/>
<circle cx="216" cy="340" r="3" fill="#C44E52"/>
<circle cx="216" cy="299" r="3" fill="#8C564B"/>
<circle cx="290" cy="61" r="3" fill="#0072B2"/>
<circle cx="290" cy="58" r="3" fill="#CC79A7"/>
<circle cx="290" cy="340" r="3" fill="#D55E00"/>
<circle cx="290" cy="304" r="3" fill="#009E73"/>
<circle cx="290" cy="193" r="3" fill="#984EA3"/>
<circle cx="290" cy="42" r="3" fill="#56B4E9"/>
<circle cx="290" cy="41" r="3" fill="#E69F00"/>
<circle cx="290" cy="340" r="3" fill="#C44E52"/>
<circle cx="290" cy="298" r="3" fill="#8C564B"/>
<circle cx="363" cy="51" r="3" fill="#0072B2"/>
<circle cx="363" cy="52" r="3" fill="#CC79A7"/>
<circle cx="363" cy="340" r="3" fill="#D55E00"/>
<circle cx="363" cy="302" r="3" fill="#009E73"/>
<circle cx="363" cy="188" r="3" fill="#984EA3"/>
<circle cx="363" cy="43" r="3" fill="#56B4E9"/>
<circle cx="363" cy="43" r="3" fill="#E69F00"/>
<circle cx="363" cy="340" r="3" fill="#C44E52"/>
<circle cx="363" cy="298" r="3" fill="#8C564B"/>
<circle cx="436" cy="48" r="3" fill="#0072B2"/>
<circle cx="436" cy="46" r="3" fill="#CC79A7"/>
<circle cx="436" cy="340" r="3" fill="#D55E00"/>
<circle cx="436" cy="302" r="3" fill="#009E73"/>
<circle cx="436" cy="188" r="3" fill="#984EA3"/>
<circle cx="436" cy="42" r="3" fill="#56B4E9"/>
<circle cx="436" cy="43" r="3" fill="#E69F00"/>
<circle cx="436" cy="339" r="3" fill="#C44E52"/>
<circle cx="436" cy="298" r="3" fill="#8C564B"/>
<circle cx="510" cy="46" r="3" fill="#0072B2"/>
<circle cx="510" cy="47" r="3" fill="#CC79A7"/>
<circle cx="510" cy="340" r="3" fill="#D55E00"/>
<circle cx="510" cy="302" r="3" fill="#009E73"/>
<circle cx="510" cy="187" r="3" fill="#984EA3"/>
<circle cx="510" cy="41" r="3" fill="#56B4E9"/>
<circle cx="510" cy="42" r="3" fill="#E69F00"/>
<circle cx="510" cy="340" r="3" fill="#C44E52"/>
<circle cx="510" cy="297" r="3" fill="#8C564B"/>
<circle cx="583" cy="45" r="3" fill="#0072B2"/>
<circle cx="583" cy="41" r="3" fill="#CC79A7"/>
<circle cx="583" cy="340" r="3" fill="#D55E00"/>
<circle cx="583" cy="302" r="3" fill="#009E73"/>
<circle cx="583" cy="185" r="3" fill="#984EA3"/>
<circle cx="583" cy="41" r="3" fill="#56B4E9"/>
<circle cx="583" cy="42" r="3" fill="#E69F00"/>
<circle cx="583" cy="340" r="3" fill="#C44E52"/>
<circle cx="583" cy="298" r="3" fill="#8C564B"/>
<circle cx="656" cy="52" r="3" fill="#0072B2"/>
<circle cx="656" cy="48" r="3" fill="#CC79A7"/>
<circle cx="656" cy="340" r="3" fill="#D55E00"/>
<circle cx="656" cy="303" r="3" fill="#009E73"/>
<circle cx="656" cy="197" r="3" fill="#984EA3"/>
<circle cx="656" cy="43" r="3" fill="#56B4E9"/>
<circle cx="656" cy="43" r="3" fill="#E69F00"/>
<circle cx="656" cy="340" r="3" fill="#C44E52"/>
<circle cx="656" cy="298" r="3" fill="#8C564B"/>
<circle cx="730" cy="53" r="3" fill="#0072B2"/>
<circle cx="730" cy="55" r="3" fill="#CC79A7"/>
<circle cx="730" cy="340" r="3" fill="#D55E00"/>
<circle cx="730" cy="303" r="3" fill="#009E73"/>
<circle cx="730" cy="198" r="3" fill="#984EA3"/>
<circle cx="730" cy="43" r="3" fill="#56B4E9"/>
<circle cx="730" cy="43" r="3" fill="#E69F00"/>
<circle cx="730" cy="340" r="3" fill="#C44E52"/>
<circle cx="730" cy="297" r="3" fill="#8C564B"/>
<circle cx="70" cy="20" r="4" fill="#0072B2"/>
<text x="78" y="24" text-anchor="start" font-size="12" fill="#0072B2">inte</text>
<circle cx="130" cy="20" r="4" fill="#CC79A7"/>
<text x="138" y="24" text-anchor="start" font-size="12" fill="#CC79A7">comp</text>
<circle cx="195" cy="20" r="4" fill="#D55E00"/>
<text x="203" y="24" text-anchor="start" font-size="12" fill="#D55E00">run</text>
<circle cx="250" cy="20" r="4" fill="#009E73"/>
<text x="258" y="24" text-anchor="start" font-size="12" fill="#009E73">wall</text>
<circle cx="315" cy="20" r="4" fill="#984EA3"/>
<text x="323" y="24" text-anchor="start" font-size="12" fill="#984EA3">self</text>
<circle cx="380" cy="20" r="4" fill="#56B4E9"/>
<text x="388" y="24" text-anchor="start" font-size="12" fill="#56B4E9">mem-inte</text>
<circle cx="470" cy="20" r="4" fill="#E69F00"/>
<text x="478" y="24" text-anchor="start" font-size="12" fill="#E69F00">mem-comp</text>
<circle cx="565" cy="20" r="4" fill="#C44E52"/>
<text x="573" y="24" text-anchor="start" font-size="12" fill="#C44E52">mem-run</text>
<circle cx="650" cy="20" r="4" fill="#8C564B"/>
<text x="658" y="24" text-anchor="start" font-size="12" fill="#8C564B">self-mem</text>
</svg>
