<svg width="800" height="400" xmlns="http://www.w3.org/2000/svg">
<rect width="800" height="400" fill="white"/>
<line x1="70" y1="40" x2="70" y2="340" stroke="#333" stroke-width="1"/>
<line x1="70" y1="340" x2="730" y2="340" stroke="#333" stroke-width="1"/>
<line x1="730" y1="40" x2="730" y2="340" stroke="#333" stroke-width="1"/>
<text x="65" y="344" text-anchor="end" font-size="11" fill="#333">0</text>
<text x="65" y="194" text-anchor="end" font-size="11" fill="#333">334000</text>
<text x="65" y="44" text-anchor="end" font-size="11" fill="#333">668000</text>
<text x="15" y="190" text-anchor="middle" font-size="12" fill="#333" transform="rotate(-90 15 190)">ms</text>
<text x="735" y="344" text-anchor="start" font-size="11" fill="#333">0</text>
<text x="735" y="194" text-anchor="start" font-size="11" fill="#333">6967000000</text>
<text x="735" y="44" text-anchor="start" font-size="11" fill="#333">13934000000</text>
<text x="785" y="190" text-anchor="middle" font-size="12" fill="#333" transform="rotate(90 785 190)">bytes</text>
<polyline points="70,161 143,165 216,160 290,157 363,144 436,130 510,123 583,291 656,285 730,269" fill="none" stroke="#0072B2" stroke-width="2"/>
<polyline points="70,41 143,126 216,127 290,128 363,128 436,108 510,86 583,285 656,279 730,261" fill="none" stroke="#CC79A7" stroke-width="2"/>
<polyline points="70,340 143,340 216,340 290,340 363,340 436,340 510,340 583,340 656,340 730,340" fill="none" stroke="#D55E00" stroke-width="2"/>
<polyline points="70,266 143,279 216,279 290,280 363,278 436,272 510,269 583,293 656,285 730,271" fill="none" stroke="#009E73" stroke-width="2"/>
<polyline points="70,260 143,260 216,259 290,259 363,259 436,259 510,259 583,260 656,259 730,259" fill="none" stroke="#56B4E9" stroke-width="2"/>
<polyline points="70,178 143,216 216,213 290,214 363,216 436,210 510,206 583,221 656,217 730,219" fill="none" stroke="#E69F00" stroke-width="2"/>
<polyline points="70,340 143,340 216,340 290,340 363,340 436,340 510,340 583,340 656,340 730,340" fill="none" stroke="#C44E52" stroke-width="2"/>
<polyline points="70,41 143,81 216,80 290,81 363,84 436,77 510,72 583,96 656,90 730,93" fill="none" stroke="#000000" stroke-width="2"/>
<circle cx="70" cy="161" r="3" fill="#0072B2"/>
<circle cx="70" cy="41" r="3" fill="#CC79A7"/>
<circle cx="70" cy="340" r="3" fill="#D55E00"/>
<circle cx="70" cy="266" r="3" fill="#009E73"/>
<circle cx="70" cy="260" r="3" fill="#56B4E9"/>
<circle cx="70" cy="178" r="3" fill="#E69F00"/>
<circle cx="70" cy="340" r="3" fill="#C44E52"/>
<circle cx="70" cy="41" r="3" fill="#000000"/>
<circle cx="143" cy="165" r="3" fill="#0072B2"/>
<circle cx="143" cy="126" r="3" fill="#CC79A7"/>
<circle cx="143" cy="340" r="3" fill="#D55E00"/>
<circle cx="143" cy="279" r="3" fill="#009E73"/>
<circle cx="143" cy="260" r="3" fill="#56B4E9"/>
<circle cx="143" cy="216" r="3" fill="#E69F00"/>
<circle cx="143" cy="340" r="3" fill="#C44E52"/>
<circle cx="143" cy="81" r="3" fill="#000000"/>
<circle cx="216" cy="160" r="3" fill="#0072B2"/>
<circle cx="216" cy="127" r="3" fill="#CC79A7"/>
<circle cx="216" cy="340" r="3" fill="#D55E00"/>
<circle cx="216" cy="279" r="3" fill="#009E73"/>
<circle cx="216" cy="259" r="3" fill="#56B4E9"/>
<circle cx="216" cy="213" r="3" fill="#E69F00"/>
<circle cx="216" cy="340" r="3" fill="#C44E52"/>
<circle cx="216" cy="80" r="3" fill="#000000"/>
<circle cx="290" cy="157" r="3" fill="#0072B2"/>
<circle cx="290" cy="128" r="3" fill="#CC79A7"/>
<circle cx="290" cy="340" r="3" fill="#D55E00"/>
<circle cx="290" cy="280" r="3" fill="#009E73"/>
<circle cx="290" cy="259" r="3" fill="#56B4E9"/>
<circle cx="290" cy="214" r="3" fill="#E69F00"/>
<circle cx="290" cy="340" r="3" fill="#C44E52"/>
<circle cx="290" cy="81" r="3" fill="#000000"/>
<circle cx="363" cy="144" r="3" fill="#0072B2"/>
<circle cx="363" cy="128" r="3" fill="#CC79A7"/>
<circle cx="363" cy="340" r="3" fill="#D55E00"/>
<circle cx="363" cy="278" r="3" fill="#009E73"/>
<circle cx="363" cy="259" r="3" fill="#56B4E9"/>
<circle cx="363" cy="216" r="3" fill="#E69F00"/>
<circle cx="363" cy="340" r="3" fill="#C44E52"/>
<circle cx="363" cy="84" r="3" fill="#000000"/>
<circle cx="436" cy="130" r="3" fill="#0072B2"/>
<circle cx="436" cy="108" r="3" fill="#CC79A7"/>
<circle cx="436" cy="340" r="3" fill="#D55E00"/>
<circle cx="436" cy="272" r="3" fill="#009E73"/>
<circle cx="436" cy="259" r="3" fill="#56B4E9"/>
<circle cx="436" cy="210" r="3" fill="#E69F00"/>
<circle cx="436" cy="340" r="3" fill="#C44E52"/>
<circle cx="436" cy="77" r="3" fill="#000000"/>
<circle cx="510" cy="123" r="3" fill="#0072B2"/>
<circle cx="510" cy="86" r="3" fill="#CC79A7"/>
<circle cx="510" cy="340" r="3" fill="#D55E00"/>
<circle cx="510" cy="269" r="3" fill="#009E73"/>
<circle cx="510" cy="259" r="3" fill="#56B4E9"/>
<circle cx="510" cy="206" r="3" fill="#E69F00"/>
<circle cx="510" cy="340" r="3" fill="#C44E52"/>
<circle cx="510" cy="72" r="3" fill="#000000"/>
<circle cx="583" cy="291" r="3" fill="#0072B2"/>
<circle cx="583" cy="285" r="3" fill="#CC79A7"/>
<circle cx="583" cy="340" r="3" fill="#D55E00"/>
<circle cx="583" cy="293" r="3" fill="#009E73"/>
<circle cx="583" cy="260" r="3" fill="#56B4E9"/>
<circle cx="583" cy="221" r="3" fill="#E69F00"/>
<circle cx="583" cy="340" r="3" fill="#C44E52"/>
<circle cx="583" cy="96" r="3" fill="#000000"/>
<circle cx="656" cy="285" r="3" fill="#0072B2"/>
<circle cx="656" cy="279" r="3" fill="#CC79A7"/>
<circle cx="656" cy="340" r="3" fill="#D55E00"/>
<circle cx="656" cy="285" r="3" fill="#009E73"/>
<circle cx="656" cy="259" r="3" fill="#56B4E9"/>
<circle cx="656" cy="217" r="3" fill="#E69F00"/>
<circle cx="656" cy="340" r="3" fill="#C44E52"/>
<circle cx="656" cy="90" r="3" fill="#000000"/>
<circle cx="730" cy="269" r="3" fill="#0072B2"/>
<circle cx="730" cy="261" r="3" fill="#CC79A7"/>
<circle cx="730" cy="340" r="3" fill="#D55E00"/>
<circle cx="730" cy="271" r="3" fill="#009E73"/>
<circle cx="730" cy="259" r="3" fill="#56B4E9"/>
<circle cx="730" cy="219" r="3" fill="#E69F00"/>
<circle cx="730" cy="340" r="3" fill="#C44E52"/>
<circle cx="730" cy="93" r="3" fill="#000000"/>
<circle cx="90" cy="20" r="4" fill="#0072B2"/>
<text x="98" y="24" text-anchor="start" font-size="12" fill="#0072B2">inte</text>
<circle cx="150" cy="20" r="4" fill="#CC79A7"/>
<text x="158" y="24" text-anchor="start" font-size="12" fill="#CC79A7">comp</text>
<circle cx="215" cy="20" r="4" fill="#D55E00"/>
<text x="223" y="24" text-anchor="start" font-size="12" fill="#D55E00">run</text>
<circle cx="270" cy="20" r="4" fill="#009E73"/>
<text x="278" y="24" text-anchor="start" font-size="12" fill="#009E73">wall</text>
<circle cx="335" cy="20" r="4" fill="#56B4E9"/>
<text x="343" y="24" text-anchor="start" font-size="12" fill="#56B4E9">mem-inte</text>
<circle cx="425" cy="20" r="4" fill="#E69F00"/>
<text x="433" y="24" text-anchor="start" font-size="12" fill="#E69F00">mem-comp</text>
<circle cx="520" cy="20" r="4" fill="#C44E52"/>
<text x="528" y="24" text-anchor="start" font-size="12" fill="#C44E52">mem-run</text>
<circle cx="605" cy="20" r="4" fill="#000000"/>
<text x="613" y="24" text-anchor="start" font-size="12" fill="#000000">mem-total</text>
</svg>
