<svg width="800" height="400" xmlns="http://www.w3.org/2000/svg">
<rect width="800" height="400" fill="white"/>
<line x1="70" y1="40" x2="70" y2="340" stroke="#333" stroke-width="1"/>
<line x1="70" y1="340" x2="730" y2="340" stroke="#333" stroke-width="1"/>
<line x1="730" y1="40" x2="730" y2="340" stroke="#333" stroke-width="1"/>
<text x="65" y="344" text-anchor="end" font-size="11" fill="#333">0</text>
<text x="65" y="194" text-anchor="end" font-size="11" fill="#333">372500</text>
<text x="65" y="44" text-anchor="end" font-size="11" fill="#333">745000</text>
<text x="15" y="190" text-anchor="middle" font-size="12" fill="#333" transform="rotate(-90 15 190)">ms</text>
<text x="735" y="344" text-anchor="start" font-size="11" fill="#333">0</text>
<text x="735" y="194" text-anchor="start" font-size="11" fill="#333">4963500000</text>
<text x="735" y="44" text-anchor="start" font-size="11" fill="#333">9927000000</text>
<text x="785" y="190" text-anchor="middle" font-size="12" fill="#333" transform="rotate(90 785 190)">bytes</text>
<polyline points="70,102 143,123 216,150 290,173 363,123 436,157 510,129 583,52 656,122 730,123" fill="none" stroke="#0072B2" stroke-width="2"/>
<polyline points="70,100 143,93 216,118 290,152 363,99 436,115 510,103 583,41 656,91 730,100" fill="none" stroke="#CC79A7" stroke-width="2"/>
<polyline points="70,340 143,340 216,340 290,340 363,340 436,340 510,340 583,340 656,340 730,340" fill="none" stroke="#D55E00" stroke-width="2"/>
<polyline points="70,267 143,266 216,276 290,284 363,269 436,276 510,267 583,249 656,266 730,267" fill="none" stroke="#009E73" stroke-width="2"/>
<polyline points="70,271 143,271 216,271 290,289 363,289 436,289 510,272 583,272 656,272 730,271" fill="none" stroke="#56B4E9" stroke-width="2"/>
<polyline points="70,204 143,204 216,203 290,223 363,223 436,223 510,206 583,205 656,206 730,205" fill="none" stroke="#E69F00" stroke-width="2"/>
<polyline points="70,340 143,340 216,340 290,340 363,340 436,340 510,340 583,340 656,340 730,340" fill="none" stroke="#C44E52" stroke-width="2"/>
<polyline points="70,41 143,42 216,41 290,81 363,81 436,81 510,45 583,45 656,45 730,43" fill="none" stroke="#000000" stroke-width="2"/>
<circle cx="70" cy="102" r="3" fill="#0072B2"/>
<circle cx="70" cy="100" r="3" fill="#CC79A7"/>
<circle cx="70" cy="340" r="3" fill="#D55E00"/>
<circle cx="70" cy="267" r="3" fill="#009E73"/>
<circle cx="70" cy="271" r="3" fill="#56B4E9"/>
<circle cx="70" cy="204" r="3" fill="#E69F00"/>
<circle cx="70" cy="340" r="3" fill="#C44E52"/>
<circle cx="70" cy="41" r="3" fill="#000000"/>
<circle cx="143" cy="123" r="3" fill="#0072B2"/>
<circle cx="143" cy="93" r="3" fill="#CC79A7"/>
<circle cx="143" cy="340" r="3" fill="#D55E00"/>
<circle cx="143" cy="266" r="3" fill="#009E73"/>
<circle cx="143" cy="271" r="3" fill="#56B4E9"/>
<circle cx="143" cy="204" r="3" fill="#E69F00"/>
<circle cx="143" cy="340" r="3" fill="#C44E52"/>
<circle cx="143" cy="42" r="3" fill="#000000"/>
<circle cx="216" cy="150" r="3" fill="#0072B2"/>
<circle cx="216" cy="118" r="3" fill="#CC79A7"/>
<circle cx="216" cy="340" r="3" fill="#D55E00"/>
<circle cx="216" cy="276" r="3" fill="#009E73"/>
<circle cx="216" cy="271" r="3" fill="#56B4E9"/>
<circle cx="216" cy="203" r="3" fill="#E69F00"/>
<circle cx="216" cy="340" r="3" fill="#C44E52"/>
<circle cx="216" cy="41" r="3" fill="#000000"/>
<circle cx="290" cy="173" r="3" fill="#0072B2"/>
<circle cx="290" cy="152" r="3" fill="#CC79A7"/>
<circle cx="290" cy="340" r="3" fill="#D55E00"/>
<circle cx="290" cy="284" r="3" fill="#009E73"/>
<circle cx="290" cy="289" r="3" fill="#56B4E9"/>
<circle cx="290" cy="223" r="3" fill="#E69F00"/>
<circle cx="290" cy="340" r="3" fill="#C44E52"/>
<circle cx="290" cy="81" r="3" fill="#000000"/>
<circle cx="363" cy="123" r="3" fill="#0072B2"/>
<circle cx="363" cy="99" r="3" fill="#CC79A7"/>
<circle cx="363" cy="340" r="3" fill="#D55E00"/>
<circle cx="363" cy="269" r="3" fill="#009E73"/>
<circle cx="363" cy="289" r="3" fill="#56B4E9"/>
<circle cx="363" cy="223" r="3" fill="#E69F00"/>
<circle cx="363" cy="340" r="3" fill="#C44E52"/>
<circle cx="363" cy="81" r="3" fill="#000000"/>
<circle cx="436" cy="157" r="3" fill="#0072B2"/>
<circle cx="436" cy="115" r="3" fill="#CC79A7"/>
<circle cx="436" cy="340" r="3" fill="#D55E00"/>
<circle cx="436" cy="276" r="3" fill="#009E73"/>
<circle cx="436" cy="289" r="3" fill="#56B4E9"/>
<circle cx="436" cy="223" r="3" fill="#E69F00"/>
<circle cx="436" cy="340" r="3" fill="#C44E52"/>
<circle cx="436" cy="81" r="3" fill="#000000"/>
<circle cx="510" cy="129" r="3" fill="#0072B2"/>
<circle cx="510" cy="103" r="3" fill="#CC79A7"/>
<circle cx="510" cy="340" r="3" fill="#D55E00"/>
<circle cx="510" cy="267" r="3" fill="#009E73"/>
<circle cx="510" cy="272" r="3" fill="#56B4E9"/>
<circle cx="510" cy="206" r="3" fill="#E69F00"/>
<circle cx="510" cy="340" r="3" fill="#C44E52"/>
<circle cx="510" cy="45" r="3" fill="#000000"/>
<circle cx="583" cy="52" r="3" fill="#0072B2"/>
<circle cx="583" cy="41" r="3" fill="#CC79A7"/>
<circle cx="583" cy="340" r="3" fill="#D55E00"/>
<circle cx="583" cy="249" r="3" fill="#009E73"/>
<circle cx="583" cy="272" r="3" fill="#56B4E9"/>
<circle cx="583" cy="205" r="3" fill="#E69F00"/>
<circle cx="583" cy="340" r="3" fill="#C44E52"/>
<circle cx="583" cy="45" r="3" fill="#000000"/>
<circle cx="656" cy="122" r="3" fill="#0072B2"/>
<circle cx="656" cy="91" r="3" fill="#CC79A7"/>
<circle cx="656" cy="340" r="3" fill="#D55E00"/>
<circle cx="656" cy="266" r="3" fill="#009E73"/>
<circle cx="656" cy="272" r="3" fill="#56B4E9"/>
<circle cx="656" cy="206" r="3" fill="#E69F00"/>
<circle cx="656" cy="340" r="3" fill="#C44E52"/>
<circle cx="656" cy="45" r="3" fill="#000000"/>
<circle cx="730" cy="123" r="3" fill="#0072B2"/>
<circle cx="730" cy="100" r="3" fill="#CC79A7"/>
<circle cx="730" cy="340" r="3" fill="#D55E00"/>
<circle cx="730" cy="267" r="3" fill="#009E73"/>
<circle cx="730" cy="271" r="3" fill="#56B4E9"/>
<circle cx="730" cy="205" r="3" fill="#E69F00"/>
<circle cx="730" cy="340" r="3" fill="#C44E52"/>
<circle cx="730" cy="43" r="3" fill="#000000"/>
<circle cx="90" cy="20" r="4" fill="#0072B2"/>
<text x="98" y="24" text-anchor="start" font-size="12" fill="#0072B2">inte</text>
<circle cx="150" cy="20" r="4" fill="#CC79A7"/>
<text x="158" y="24" text-anchor="start" font-size="12" fill="#CC79A7">comp</text>
<circle cx="215" cy="20" r="4" fill="#D55E00"/>
<text x="223" y="24" text-anchor="start" font-size="12" fill="#D55E00">run</text>
<circle cx="270" cy="20" r="4" fill="#009E73"/>
<text x="278" y="24" text-anchor="start" font-size="12" fill="#009E73">wall</text>
<circle cx="335" cy="20" r="4" fill="#56B4E9"/>
<text x="343" y="24" text-anchor="start" font-size="12" fill="#56B4E9">mem-inte</text>
<circle cx="425" cy="20" r="4" fill="#E69F00"/>
<text x="433" y="24" text-anchor="start" font-size="12" fill="#E69F00">mem-comp</text>
<circle cx="520" cy="20" r="4" fill="#C44E52"/>
<text x="528" y="24" text-anchor="start" font-size="12" fill="#C44E52">mem-run</text>
<circle cx="605" cy="20" r="4" fill="#000000"/>
<text x="613" y="24" text-anchor="start" font-size="12" fill="#000000">mem-total</text>
</svg>
