<svg width="800" height="400" xmlns="http://www.w3.org/2000/svg">
<rect width="800" height="400" fill="white"/>
<line x1="70" y1="40" x2="70" y2="340" stroke="#333" stroke-width="1"/>
<line x1="70" y1="340" x2="730" y2="340" stroke="#333" stroke-width="1"/>
<line x1="730" y1="40" x2="730" y2="340" stroke="#333" stroke-width="1"/>
<text x="65" y="344" text-anchor="end" font-size="11" fill="#333">0</text>
<text x="65" y="194" text-anchor="end" font-size="11" fill="#333">393000</text>
<text x="65" y="44" text-anchor="end" font-size="11" fill="#333">786000</text>
<text x="15" y="190" text-anchor="middle" font-size="12" fill="#333" transform="rotate(-90 15 190)">ms</text>
<text x="735" y="344" text-anchor="start" font-size="11" fill="#333">0</text>
<text x="735" y="194" text-anchor="start" font-size="11" fill="#333">6973000000</text>
<text x="735" y="44" text-anchor="start" font-size="11" fill="#333">13946000000</text>
<text x="785" y="190" text-anchor="middle" font-size="12" fill="#333" transform="rotate(90 785 190)">bytes</text>
<polyline points="70,168 143,166 216,170 290,162 363,130 436,174 510,179 583,153 656,188 730,191" fill="none" stroke="#0072B2" stroke-width="2"/>
<polyline points="70,143 143,160 216,164 290,137 363,105 436,71 510,86 583,41 656,86 730,158" fill="none" stroke="#CC79A7" stroke-width="2"/>
<polyline points="70,340 143,340 216,340 290,340 363,340 436,340 510,340 583,340 656,340 730,340" fill="none" stroke="#D55E00" stroke-width="2"/>
<polyline points="70,285 143,286 216,287 290,282 363,272 436,274 510,277 583,268 656,277 730,288" fill="none" stroke="#009E73" stroke-width="2"/>
<polyline points="70,256 143,256 216,256 290,256 363,256 436,260 510,260 583,260 656,260 730,260" fill="none" stroke="#56B4E9" stroke-width="2"/>
<polyline points="70,212 143,211 216,211 290,207 363,202 436,178 510,178 583,178 656,178 730,216" fill="none" stroke="#E69F00" stroke-width="2"/>
<polyline points="70,340 143,340 216,340 290,340 363,340 436,340 510,340 583,340 656,340 730,340" fill="none" stroke="#C44E52" stroke-width="2"/>
<polyline points="70,75 143,73 216,73 290,70 363,65 436,41 510,41 583,41 656,41 730,82" fill="none" stroke="#000000" stroke-width="2"/>
<circle cx="70" cy="168" r="3" fill="#0072B2"/>
<circle cx="70" cy="143" r="3" fill="#CC79A7"/>
<circle cx="70" cy="340" r="3" fill="#D55E00"/>
<circle cx="70" cy="285" r="3" fill="#009E73"/>
<circle cx="70" cy="256" r="3" fill="#56B4E9"/>
<circle cx="70" cy="212" r="3" fill="#E69F00"/>
<circle cx="70" cy="340" r="3" fill="#C44E52"/>
<circle cx="70" cy="75" r="3" fill="#000000"/>
<circle cx="143" cy="166" r="3" fill="#0072B2"/>
<circle cx="143" cy="160" r="3" fill="#CC79A7"/>
<circle cx="143" cy="340" r="3" fill="#D55E00"/>
<circle cx="143" cy="286" r="3" fill="#009E73"/>
<circle cx="143" cy="256" r="3" fill="#56B4E9"/>
<circle cx="143" cy="211" r="3" fill="#E69F00"/>
<circle cx="143" cy="340" r="3" fill="#C44E52"/>
<circle cx="143" cy="73" r="3" fill="#000000"/>
<circle cx="216" cy="170" r="3" fill="#0072B2"/>
<circle cx="216" cy="164" r="3" fill="#CC79A7"/>
<circle cx="216" cy="340" r="3" fill="#D55E00"/>
<circle cx="216" cy="287" r="3" fill="#009E73"/>
<circle cx="216" cy="256" r="3" fill="#56B4E9"/>
<circle cx="216" cy="211" r="3" fill="#E69F00"/>
<circle cx="216" cy="340" r="3" fill="#C44E52"/>
<circle cx="216" cy="73" r="3" fill="#000000"/>
<circle cx="290" cy="162" r="3" fill="#0072B2"/>
<circle cx="290" cy="137" r="3" fill="#CC79A7"/>
<circle cx="290" cy="340" r="3" fill="#D55E00"/>
<circle cx="290" cy="282" r="3" fill="#009E73"/>
<circle cx="290" cy="256" r="3" fill="#56B4E9"/>
<circle cx="290" cy="207" r="3" fill="#E69F00"/>
<circle cx="290" cy="340" r="3" fill="#C44E52"/>
<circle cx="290" cy="70" r="3" fill="#000000"/>
<circle cx="363" cy="130" r="3" fill="#0072B2"/>
<circle cx="363" cy="105" r="3" fill="#CC79A7"/>
<circle cx="363" cy="340" r="3" fill="#D55E00"/>
<circle cx="363" cy="272" r="3" fill="#009E73"/>
<circle cx="363" cy="256" r="3" fill="#56B4E9"/>
<circle cx="363" cy="202" r="3" fill="#E69F00"/>
<circle cx="363" cy="340" r="3" fill="#C44E52"/>
<circle cx="363" cy="65" r="3" fill="#000000"/>
<circle cx="436" cy="174" r="3" fill="#0072B2"/>
<circle cx="436" cy="71" r="3" fill="#CC79A7"/>
<circle cx="436" cy="340" r="3" fill="#D55E00"/>
<circle cx="436" cy="274" r="3" fill="#009E73"/>
<circle cx="436" cy="260" r="3" fill="#56B4E9"/>
<circle cx="436" cy="178" r="3" fill="#E69F00"/>
<circle cx="436" cy="340" r="3" fill="#C44E52"/>
<circle cx="436" cy="41" r="3" fill="#000000"/>
<circle cx="510" cy="179" r="3" fill="#0072B2"/>
<circle cx="510" cy="86" r="3" fill="#CC79A7"/>
<circle cx="510" cy="340" r="3" fill="#D55E00"/>
<circle cx="510" cy="277" r="3" fill="#009E73"/>
<circle cx="510" cy="260" r="3" fill="#56B4E9"/>
<circle cx="510" cy="178" r="3" fill="#E69F00"/>
<circle cx="510" cy="340" r="3" fill="#C44E52"/>
<circle cx="510" cy="41" r="3" fill="#000000"/>
<circle cx="583" cy="153" r="3" fill="#0072B2"/>
<circle cx="583" cy="41" r="3" fill="#CC79A7"/>
<circle cx="583" cy="340" r="3" fill="#D55E00"/>
<circle cx="583" cy="268" r="3" fill="#009E73"/>
<circle cx="583" cy="260" r="3" fill="#56B4E9"/>
<circle cx="583" cy="178" r="3" fill="#E69F00"/>
<circle cx="583" cy="340" r="3" fill="#C44E52"/>
<circle cx="583" cy="41" r="3" fill="#000000"/>
<circle cx="656" cy="188" r="3" fill="#0072B2"/>
<circle cx="656" cy="86" r="3" fill="#CC79A7"/>
<circle cx="656" cy="340" r="3" fill="#D55E00"/>
<circle cx="656" cy="277" r="3" fill="#009E73"/>
<circle cx="656" cy="260" r="3" fill="#56B4E9"/>
<circle cx="656" cy="178" r="3" fill="#E69F00"/>
<circle cx="656" cy="340" r="3" fill="#C44E52"/>
<circle cx="656" cy="41" r="3" fill="#000000"/>
<circle cx="730" cy="191" r="3" fill="#0072B2"/>
<circle cx="730" cy="158" r="3" fill="#CC79A7"/>
<circle cx="730" cy="340" r="3" fill="#D55E00"/>
<circle cx="730" cy="288" r="3" fill="#009E73"/>
<circle cx="730" cy="260" r="3" fill="#56B4E9"/>
<circle cx="730" cy="216" r="3" fill="#E69F00"/>
<circle cx="730" cy="340" r="3" fill="#C44E52"/>
<circle cx="730" cy="82" r="3" fill="#000000"/>
<circle cx="90" cy="20" r="4" fill="#0072B2"/>
<text x="98" y="24" text-anchor="start" font-size="12" fill="#0072B2">inte</text>
<circle cx="150" cy="20" r="4" fill="#CC79A7"/>
<text x="158" y="24" text-anchor="start" font-size="12" fill="#CC79A7">comp</text>
<circle cx="215" cy="20" r="4" fill="#D55E00"/>
<text x="223" y="24" text-anchor="start" font-size="12" fill="#D55E00">run</text>
<circle cx="270" cy="20" r="4" fill="#009E73"/>
<text x="278" y="24" text-anchor="start" font-size="12" fill="#009E73">wall</text>
<circle cx="335" cy="20" r="4" fill="#56B4E9"/>
<text x="343" y="24" text-anchor="start" font-size="12" fill="#56B4E9">mem-inte</text>
<circle cx="425" cy="20" r="4" fill="#E69F00"/>
<text x="433" y="24" text-anchor="start" font-size="12" fill="#E69F00">mem-comp</text>
<circle cx="520" cy="20" r="4" fill="#C44E52"/>
<text x="528" y="24" text-anchor="start" font-size="12" fill="#C44E52">mem-run</text>
<circle cx="605" cy="20" r="4" fill="#000000"/>
<text x="613" y="24" text-anchor="start" font-size="12" fill="#000000">mem-total</text>
</svg>
