<svg width="800" height="400" xmlns="http://www.w3.org/2000/svg">
<rect width="800" height="400" fill="white"/>
<line x1="70" y1="40" x2="70" y2="340" stroke="#333" stroke-width="1"/>
<line x1="70" y1="340" x2="780" y2="340" stroke="#333" stroke-width="1"/>
<text x="65" y="344" text-anchor="end" font-size="11" fill="#333">0</text>
<text x="65" y="194" text-anchor="end" font-size="11" fill="#333">81000</text>
<text x="65" y="44" text-anchor="end" font-size="11" fill="#333">162000</text>
<text x="15" y="190" text-anchor="middle" font-size="12" fill="#333" transform="rotate(-90 15 190)">ms</text>
<polyline points="70,42 148,45 227,68 306,68 385,81 464,76 543,78 622,84 701,89 780,90" fill="none" stroke="#0072B2" stroke-width="2"/>
<polyline points="70,49 148,51 227,73 306,74 385,83 464,80 543,83 622,87 701,94 780,93" fill="none" stroke="#CC79A7" stroke-width="2"/>
<polyline points="70,337 148,337 227,337 306,337 385,337 464,337 543,337 622,337 701,337 780,337" fill="none" stroke="#D55E00" stroke-width="2"/>
<polyline points="70,302 148,302 227,305 306,305 385,307 464,306 543,307 622,307 701,308 780,308" fill="none" stroke="#009E73" stroke-width="2"/>
<circle cx="70" cy="42" r="3" fill="#0072B2"/>
<circle cx="70" cy="49" r="3" fill="#CC79A7"/>
<circle cx="70" cy="337" r="3" fill="#D55E00"/>
<circle cx="70" cy="302" r="3" fill="#009E73"/>
<circle cx="148" cy="45" r="3" fill="#0072B2"/>
<circle cx="148" cy="51" r="3" fill="#CC79A7"/>
<circle cx="148" cy="337" r="3" fill="#D55E00"/>
<circle cx="148" cy="302" r="3" fill="#009E73"/>
<circle cx="227" cy="68" r="3" fill="#0072B2"/>
<circle cx="227" cy="73" r="3" fill="#CC79A7"/>
<circle cx="227" cy="337" r="3" fill="#D55E00"/>
<circle cx="227" cy="305" r="3" fill="#009E73"/>
<circle cx="306" cy="68" r="3" fill="#0072B2"/>
<circle cx="306" cy="74" r="3" fill="#CC79A7"/>
<circle cx="306" cy="337" r="3" fill="#D55E00"/>
<circle cx="306" cy="305" r="3" fill="#009E73"/>
<circle cx="385" cy="81" r="3" fill="#0072B2"/>
<circle cx="385" cy="83" r="3" fill="#CC79A7"/>
<circle cx="385" cy="337" r="3" fill="#D55E00"/>
<circle cx="385" cy="307" r="3" fill="#009E73"/>
<circle cx="464" cy="76" r="3" fill="#0072B2"/>
<circle cx="464" cy="80" r="3" fill="#CC79A7"/>
<circle cx="464" cy="337" r="3" fill="#D55E00"/>
<circle cx="464" cy="306" r="3" fill="#009E73"/>
<circle cx="543" cy="78" r="3" fill="#0072B2"/>
<circle cx="543" cy="83" r="3" fill="#CC79A7"/>
<circle cx="543" cy="337" r="3" fill="#D55E00"/>
<circle cx="543" cy="307" r="3" fill="#009E73"/>
<circle cx="622" cy="84" r="3" fill="#0072B2"/>
<circle cx="622" cy="87" r="3" fill="#CC79A7"/>
<circle cx="622" cy="337" r="3" fill="#D55E00"/>
<circle cx="622" cy="307" r="3" fill="#009E73"/>
<circle cx="701" cy="89" r="3" fill="#0072B2"/>
<circle cx="701" cy="94" r="3" fill="#CC79A7"/>
<circle cx="701" cy="337" r="3" fill="#D55E00"/>
<circle cx="701" cy="308" r="3" fill="#009E73"/>
<circle cx="780" cy="90" r="3" fill="#0072B2"/>
<circle cx="780" cy="93" r="3" fill="#CC79A7"/>
<circle cx="780" cy="337" r="3" fill="#D55E00"/>
<circle cx="780" cy="308" r="3" fill="#009E73"/>
<circle cx="90" cy="20" r="4" fill="#0072B2"/>
<text x="98" y="24" text-anchor="start" font-size="12" fill="#0072B2">interpreted</text>
<circle cx="190" cy="20" r="4" fill="#CC79A7"/>
<text x="198" y="24" text-anchor="start" font-size="12" fill="#CC79A7">compiled</text>
<circle cx="275" cy="20" r="4" fill="#D55E00"/>
<text x="283" y="24" text-anchor="start" font-size="12" fill="#D55E00">executed</text>
<circle cx="355" cy="20" r="4" fill="#009E73"/>
<text x="363" y="24" text-anchor="start" font-size="12" fill="#009E73">wall</text>
</svg>
