<svg width="800" height="400" xmlns="http://www.w3.org/2000/svg">
<rect width="800" height="400" fill="white"/>
<line x1="70" y1="40" x2="70" y2="340" stroke="#333" stroke-width="1"/>
<line x1="70" y1="340" x2="730" y2="340" stroke="#333" stroke-width="1"/>
<line x1="730" y1="40" x2="730" y2="340" stroke="#333" stroke-width="1"/>
<text x="65" y="344" text-anchor="end" font-size="11" fill="#333">0</text>
<text x="65" y="194" text-anchor="end" font-size="11" fill="#333">128500</text>
<text x="65" y="44" text-anchor="end" font-size="11" fill="#333">257000</text>
<text x="15" y="190" text-anchor="middle" font-size="12" fill="#333" transform="rotate(-90 15 190)">ms</text>
<text x="735" y="344" text-anchor="start" font-size="11" fill="#333">0</text>
<text x="735" y="194" text-anchor="start" font-size="11" fill="#333">7379000000</text>
<text x="735" y="44" text-anchor="start" font-size="11" fill="#333">14758000000</text>
<text x="785" y="190" text-anchor="middle" font-size="12" fill="#333" transform="rotate(90 785 190)">bytes</text>
<polyline points="70,46 143,51 216,54 290,52 363,50 436,47 510,48 583,42 656,46 730,41" fill="none" stroke="#0072B2" stroke-width="2"/>
<polyline points="70,82 143,79 216,82 290,82 363,82 436,81 510,80 583,76 656,77 730,74" fill="none" stroke="#CC79A7" stroke-width="2"/>
<polyline points="70,340 143,340 216,340 290,340 363,340 436,340 510,340 583,340 656,340 730,340" fill="none" stroke="#D55E00" stroke-width="2"/>
<polyline points="70,286 143,285 216,286 290,286 363,286 436,285 510,285 583,283 656,284 730,285" fill="none" stroke="#009E73" stroke-width="2"/>
<polyline points="70,296 143,296 216,296 290,296 363,296 436,296 510,296 583,296 656,296 730,295" fill="none" stroke="#56B4E9" stroke-width="2"/>
<polyline points="70,218 143,218 216,218 290,218 363,218 436,218 510,218 583,217 656,217 730,215" fill="none" stroke="#E69F00" stroke-width="2"/>
<polyline points="70,338 143,339 216,339 290,339 363,339 436,339 510,339 583,340 656,340 730,340" fill="none" stroke="#C44E52" stroke-width="2"/>
<polyline points="70,43 143,45 216,41 290,43 363,42 436,44 510,41 583,44 656,42 730,41" fill="none" stroke="#000000" stroke-width="2"/>
<circle cx="70" cy="46" r="3" fill="#0072B2"/>
<circle cx="70" cy="82" r="3" fill="#CC79A7"/>
<circle cx="70" cy="340" r="3" fill="#D55E00"/>
<circle cx="70" cy="286" r="3" fill="#009E73"/>
<circle cx="70" cy="296" r="3" fill="#56B4E9"/>
<circle cx="70" cy="218" r="3" fill="#E69F00"/>
<circle cx="70" cy="338" r="3" fill="#C44E52"/>
<circle cx="70" cy="43" r="3" fill="#000000"/>
<circle cx="143" cy="51" r="3" fill="#0072B2"/>
<circle cx="143" cy="79" r="3" fill="#CC79A7"/>
<circle cx="143" cy="340" r="3" fill="#D55E00"/>
<circle cx="143" cy="285" r="3" fill="#009E73"/>
<circle cx="143" cy="296" r="3" fill="#56B4E9"/>
<circle cx="143" cy="218" r="3" fill="#E69F00"/>
<circle cx="143" cy="339" r="3" fill="#C44E52"/>
<circle cx="143" cy="45" r="3" fill="#000000"/>
<circle cx="216" cy="54" r="3" fill="#0072B2"/>
<circle cx="216" cy="82" r="3" fill="#CC79A7"/>
<circle cx="216" cy="340" r="3" fill="#D55E00"/>
<circle cx="216" cy="286" r="3" fill="#009E73"/>
<circle cx="216" cy="296" r="3" fill="#56B4E9"/>
<circle cx="216" cy="218" r="3" fill="#E69F00"/>
<circle cx="216" cy="339" r="3" fill="#C44E52"/>
<circle cx="216" cy="41" r="3" fill="#000000"/>
<circle cx="290" cy="52" r="3" fill="#0072B2"/>
<circle cx="290" cy="82" r="3" fill="#CC79A7"/>
<circle cx="290" cy="340" r="3" fill="#D55E00"/>
<circle cx="290" cy="286" r="3" fill="#009E73"/>
<circle cx="290" cy="296" r="3" fill="#56B4E9"/>
<circle cx="290" cy="218" r="3" fill="#E69F00"/>
<circle cx="290" cy="339" r="3" fill="#C44E52"/>
<circle cx="290" cy="43" r="3" fill="#000000"/>
<circle cx="363" cy="50" r="3" fill="#0072B2"/>
<circle cx="363" cy="82" r="3" fill="#CC79A7"/>
<circle cx="363" cy="340" r="3" fill="#D55E00"/>
<circle cx="363" cy="286" r="3" fill="#009E73"/>
<circle cx="363" cy="296" r="3" fill="#56B4E9"/>
<circle cx="363" cy="218" r="3" fill="#E69F00"/>
<circle cx="363" cy="339" r="3" fill="#C44E52"/>
<circle cx="363" cy="42" r="3" fill="#000000"/>
<circle cx="436" cy="47" r="3" fill="#0072B2"/>
<circle cx="436" cy="81" r="3" fill="#CC79A7"/>
<circle cx="436" cy="340" r="3" fill="#D55E00"/>
<circle cx="436" cy="285" r="3" fill="#009E73"/>
<circle cx="436" cy="296" r="3" fill="#56B4E9"/>
<circle cx="436" cy="218" r="3" fill="#E69F00"/>
<circle cx="436" cy="339" r="3" fill="#C44E52"/>
<circle cx="436" cy="44" r="3" fill="#000000"/>
<circle cx="510" cy="48" r="3" fill="#0072B2"/>
<circle cx="510" cy="80" r="3" fill="#CC79A7"/>
<circle cx="510" cy="340" r="3" fill="#D55E00"/>
<circle cx="510" cy="285" r="3" fill="#009E73"/>
<circle cx="510" cy="296" r="3" fill="#56B4E9"/>
<circle cx="510" cy="218" r="3" fill="#E69F00"/>
<circle cx="510" cy="339" r="3" fill="#C44E52"/>
<circle cx="510" cy="41" r="3" fill="#000000"/>
<circle cx="583" cy="42" r="3" fill="#0072B2"/>
<circle cx="583" cy="76" r="3" fill="#CC79A7"/>
<circle cx="583" cy="340" r="3" fill="#D55E00"/>
<circle cx="583" cy="283" r="3" fill="#009E73"/>
<circle cx="583" cy="296" r="3" fill="#56B4E9"/>
<circle cx="583" cy="217" r="3" fill="#E69F00"/>
<circle cx="583" cy="340" r="3" fill="#C44E52"/>
<circle cx="583" cy="44" r="3" fill="#000000"/>
<circle cx="656" cy="46" r="3" fill="#0072B2"/>
<circle cx="656" cy="77" r="3" fill="#CC79A7"/>
<circle cx="656" cy="340" r="3" fill="#D55E00"/>
<circle cx="656" cy="284" r="3" fill="#009E73"/>
<circle cx="656" cy="296" r="3" fill="#56B4E9"/>
<circle cx="656" cy="217" r="3" fill="#E69F00"/>
<circle cx="656" cy="340" r="3" fill="#C44E52"/>
<circle cx="656" cy="42" r="3" fill="#000000"/>
<circle cx="730" cy="41" r="3" fill="#0072B2"/>
<circle cx="730" cy="74" r="3" fill="#CC79A7"/>
<circle cx="730" cy="340" r="3" fill="#D55E00"/>
<circle cx="730" cy="285" r="3" fill="#009E73"/>
<circle cx="730" cy="295" r="3" fill="#56B4E9"/>
<circle cx="730" cy="215" r="3" fill="#E69F00"/>
<circle cx="730" cy="340" r="3" fill="#C44E52"/>
<circle cx="730" cy="41" r="3" fill="#000000"/>
<circle cx="90" cy="20" r="4" fill="#0072B2"/>
<text x="98" y="24" text-anchor="start" font-size="12" fill="#0072B2">inte</text>
<circle cx="150" cy="20" r="4" fill="#CC79A7"/>
<text x="158" y="24" text-anchor="start" font-size="12" fill="#CC79A7">comp</text>
<circle cx="215" cy="20" r="4" fill="#D55E00"/>
<text x="223" y="24" text-anchor="start" font-size="12" fill="#D55E00">run</text>
<circle cx="270" cy="20" r="4" fill="#009E73"/>
<text x="278" y="24" text-anchor="start" font-size="12" fill="#009E73">wall</text>
<circle cx="335" cy="20" r="4" fill="#56B4E9"/>
<text x="343" y="24" text-anchor="start" font-size="12" fill="#56B4E9">mem-inte</text>
<circle cx="425" cy="20" r="4" fill="#E69F00"/>
<text x="433" y="24" text-anchor="start" font-size="12" fill="#E69F00">mem-comp</text>
<circle cx="520" cy="20" r="4" fill="#C44E52"/>
<text x="528" y="24" text-anchor="start" font-size="12" fill="#C44E52">mem-run</text>
<circle cx="605" cy="20" r="4" fill="#000000"/>
<text x="613" y="24" text-anchor="start" font-size="12" fill="#000000">mem-total</text>
</svg>
