<svg width="800" height="400" xmlns="http://www.w3.org/2000/svg">
<rect width="800" height="400" fill="white"/>
<line x1="70" y1="40" x2="70" y2="340" stroke="#333" stroke-width="1"/>
<line x1="70" y1="340" x2="780" y2="340" stroke="#333" stroke-width="1"/>
<text x="65" y="344" text-anchor="end" font-size="11" fill="#333">0</text>
<text x="65" y="194" text-anchor="end" font-size="11" fill="#333">4500</text>
<text x="65" y="44" text-anchor="end" font-size="11" fill="#333">9000</text>
<text x="15" y="190" text-anchor="middle" font-size="12" fill="#333" transform="rotate(-90 15 190)">ms</text>
<polyline points="70,276 83,274 96,277 109,273 122,277 135,275 148,272 162,273 175,269 188,269 201,274 214,270 227,270 240,273 254,268 267,270 280,271 293,274 306,273 319,271 332,272 346,274 359,273 372,273 385,271 398,271 411,273 425,273 438,273 451,271 464,272 477,269 490,272 503,273 517,270 530,271 543,270 556,271 569,271 582,272 595,273 609,274 622,270 635,274 648,271 661,270 674,269 687,269 701,266 714,270 727,268 740,270 753,268 766,267 780,273" fill="none" stroke="#2196F3" stroke-width="2"/>
<polyline points="70,154 83,155 96,156 109,151 122,153 135,158 148,151 162,151 175,151 188,151 201,151 214,147 227,146 240,151 254,151 267,159 280,153 293,150 306,149 319,152 332,152 346,156 359,152 372,158 385,123 398,129 411,128 425,131 438,129 451,131 464,131 477,131 490,126 503,126 517,129 530,127 543,128 556,129 569,127 582,131 595,127 609,126 622,133 635,126 648,133 661,131 674,118 687,119 701,119 714,120 727,123 740,124 753,122 766,121 780,114" fill="none" stroke="#F44336" stroke-width="2"/>
<polyline points="70,108 83,109 96,109 109,107 122,113 135,101 148,99 162,99 175,97 188,94 201,95 214,96 227,95 240,97 254,96 267,94 280,92 293,92 306,97 319,92 332,95 346,98 359,96 372,97 385,89 398,93 411,88 425,89 438,93 451,95 464,88 477,82 490,85 503,84 517,85 530,84 543,84 556,82 569,81 582,85 595,91 609,84 622,88 635,87 648,87 661,86 674,71 687,67 701,68 714,68 727,71 740,74 753,75 766,73 780,121" fill="none" stroke="#4CAF50" stroke-width="2"/>
<circle cx="70" cy="276" r="3" fill="#2196F3"/>
<circle cx="70" cy="154" r="3" fill="#F44336"/>
<circle cx="70" cy="108" r="3" fill="#4CAF50"/>
<circle cx="83" cy="274" r="3" fill="#2196F3"/>
<circle cx="83" cy="155" r="3" fill="#F44336"/>
<circle cx="83" cy="109" r="3" fill="#4CAF50"/>
<circle cx="96" cy="277" r="3" fill="#2196F3"/>
<circle cx="96" cy="156" r="3" fill="#F44336"/>
<circle cx="96" cy="109" r="3" fill="#4CAF50"/>
<circle cx="109" cy="273" r="3" fill="#2196F3"/>
<circle cx="109" cy="151" r="3" fill="#F44336"/>
<circle cx="109" cy="107" r="3" fill="#4CAF50"/>
<circle cx="122" cy="277" r="3" fill="#2196F3"/>
<circle cx="122" cy="153" r="3" fill="#F44336"/>
<circle cx="122" cy="113" r="3" fill="#4CAF50"/>
<circle cx="135" cy="275" r="3" fill="#2196F3"/>
<circle cx="135" cy="158" r="3" fill="#F44336"/>
<circle cx="135" cy="101" r="3" fill="#4CAF50"/>
<circle cx="148" cy="272" r="3" fill="#2196F3"/>
<circle cx="148" cy="151" r="3" fill="#F44336"/>
<circle cx="148" cy="99" r="3" fill="#4CAF50"/>
<circle cx="162" cy="273" r="3" fill="#2196F3"/>
<circle cx="162" cy="151" r="3" fill="#F44336"/>
<circle cx="162" cy="99" r="3" fill="#4CAF50"/>
<circle cx="175" cy="269" r="3" fill="#2196F3"/>
<circle cx="175" cy="151" r="3" fill="#F44336"/>
<circle cx="175" cy="97" r="3" fill="#4CAF50"/>
<circle cx="188" cy="269" r="3" fill="#2196F3"/>
<circle cx="188" cy="151" r="3" fill="#F44336"/>
<circle cx="188" cy="94" r="3" fill="#4CAF50"/>
<circle cx="201" cy="274" r="3" fill="#2196F3"/>
<circle cx="201" cy="151" r="3" fill="#F44336"/>
<circle cx="201" cy="95" r="3" fill="#4CAF50"/>
<circle cx="214" cy="270" r="3" fill="#2196F3"/>
<circle cx="214" cy="147" r="3" fill="#F44336"/>
<circle cx="214" cy="96" r="3" fill="#4CAF50"/>
<circle cx="227" cy="270" r="3" fill="#2196F3"/>
<circle cx="227" cy="146" r="3" fill="#F44336"/>
<circle cx="227" cy="95" r="3" fill="#4CAF50"/>
<circle cx="240" cy="273" r="3" fill="#2196F3"/>
<circle cx="240" cy="151" r="3" fill="#F44336"/>
<circle cx="240" cy="97" r="3" fill="#4CAF50"/>
<circle cx="254" cy="268" r="3" fill="#2196F3"/>
<circle cx="254" cy="151" r="3" fill="#F44336"/>
<circle cx="254" cy="96" r="3" fill="#4CAF50"/>
<circle cx="267" cy="270" r="3" fill="#2196F3"/>
<circle cx="267" cy="159" r="3" fill="#F44336"/>
<circle cx="267" cy="94" r="3" fill="#4CAF50"/>
<circle cx="280" cy="271" r="3" fill="#2196F3"/>
<circle cx="280" cy="153" r="3" fill="#F44336"/>
<circle cx="280" cy="92" r="3" fill="#4CAF50"/>
<circle cx="293" cy="274" r="3" fill="#2196F3"/>
<circle cx="293" cy="150" r="3" fill="#F44336"/>
<circle cx="293" cy="92" r="3" fill="#4CAF50"/>
<circle cx="306" cy="273" r="3" fill="#2196F3"/>
<circle cx="306" cy="149" r="3" fill="#F44336"/>
<circle cx="306" cy="97" r="3" fill="#4CAF50"/>
<circle cx="319" cy="271" r="3" fill="#2196F3"/>
<circle cx="319" cy="152" r="3" fill="#F44336"/>
<circle cx="319" cy="92" r="3" fill="#4CAF50"/>
<circle cx="332" cy="272" r="3" fill="#2196F3"/>
<circle cx="332" cy="152" r="3" fill="#F44336"/>
<circle cx="332" cy="95" r="3" fill="#4CAF50"/>
<circle cx="346" cy="274" r="3" fill="#2196F3"/>
<circle cx="346" cy="156" r="3" fill="#F44336"/>
<circle cx="346" cy="98" r="3" fill="#4CAF50"/>
<circle cx="359" cy="273" r="3" fill="#2196F3"/>
<circle cx="359" cy="152" r="3" fill="#F44336"/>
<circle cx="359" cy="96" r="3" fill="#4CAF50"/>
<circle cx="372" cy="273" r="3" fill="#2196F3"/>
<circle cx="372" cy="158" r="3" fill="#F44336"/>
<circle cx="372" cy="97" r="3" fill="#4CAF50"/>
<circle cx="385" cy="271" r="3" fill="#2196F3"/>
<circle cx="385" cy="123" r="3" fill="#F44336"/>
<circle cx="385" cy="89" r="3" fill="#4CAF50"/>
<circle cx="398" cy="271" r="3" fill="#2196F3"/>
<circle cx="398" cy="129" r="3" fill="#F44336"/>
<circle cx="398" cy="93" r="3" fill="#4CAF50"/>
<circle cx="411" cy="273" r="3" fill="#2196F3"/>
<circle cx="411" cy="128" r="3" fill="#F44336"/>
<circle cx="411" cy="88" r="3" fill="#4CAF50"/>
<circle cx="425" cy="273" r="3" fill="#2196F3"/>
<circle cx="425" cy="131" r="3" fill="#F44336"/>
<circle cx="425" cy="89" r="3" fill="#4CAF50"/>
<circle cx="438" cy="273" r="3" fill="#2196F3"/>
<circle cx="438" cy="129" r="3" fill="#F44336"/>
<circle cx="438" cy="93" r="3" fill="#4CAF50"/>
<circle cx="451" cy="271" r="3" fill="#2196F3"/>
<circle cx="451" cy="131" r="3" fill="#F44336"/>
<circle cx="451" cy="95" r="3" fill="#4CAF50"/>
<circle cx="464" cy="272" r="3" fill="#2196F3"/>
<circle cx="464" cy="131" r="3" fill="#F44336"/>
<circle cx="464" cy="88" r="3" fill="#4CAF50"/>
<circle cx="477" cy="269" r="3" fill="#2196F3"/>
<circle cx="477" cy="131" r="3" fill="#F44336"/>
<circle cx="477" cy="82" r="3" fill="#4CAF50"/>
<circle cx="490" cy="272" r="3" fill="#2196F3"/>
<circle cx="490" cy="126" r="3" fill="#F44336"/>
<circle cx="490" cy="85" r="3" fill="#4CAF50"/>
<circle cx="503" cy="273" r="3" fill="#2196F3"/>
<circle cx="503" cy="126" r="3" fill="#F44336"/>
<circle cx="503" cy="84" r="3" fill="#4CAF50"/>
<circle cx="517" cy="270" r="3" fill="#2196F3"/>
<circle cx="517" cy="129" r="3" fill="#F44336"/>
<circle cx="517" cy="85" r="3" fill="#4CAF50"/>
<circle cx="530" cy="271" r="3" fill="#2196F3"/>
<circle cx="530" cy="127" r="3" fill="#F44336"/>
<circle cx="530" cy="84" r="3" fill="#4CAF50"/>
<circle cx="543" cy="270" r="3" fill="#2196F3"/>
<circle cx="543" cy="128" r="3" fill="#F44336"/>
<circle cx="543" cy="84" r="3" fill="#4CAF50"/>
<circle cx="556" cy="271" r="3" fill="#2196F3"/>
<circle cx="556" cy="129" r="3" fill="#F44336"/>
<circle cx="556" cy="82" r="3" fill="#4CAF50"/>
<circle cx="569" cy="271" r="3" fill="#2196F3"/>
<circle cx="569" cy="127" r="3" fill="#F44336"/>
<circle cx="569" cy="81" r="3" fill="#4CAF50"/>
<circle cx="582" cy="272" r="3" fill="#2196F3"/>
<circle cx="582" cy="131" r="3" fill="#F44336"/>
<circle cx="582" cy="85" r="3" fill="#4CAF50"/>
<circle cx="595" cy="273" r="3" fill="#2196F3"/>
<circle cx="595" cy="127" r="3" fill="#F44336"/>
<circle cx="595" cy="91" r="3" fill="#4CAF50"/>
<circle cx="609" cy="274" r="3" fill="#2196F3"/>
<circle cx="609" cy="126" r="3" fill="#F44336"/>
<circle cx="609" cy="84" r="3" fill="#4CAF50"/>
<circle cx="622" cy="270" r="3" fill="#2196F3"/>
<circle cx="622" cy="133" r="3" fill="#F44336"/>
<circle cx="622" cy="88" r="3" fill="#4CAF50"/>
<circle cx="635" cy="274" r="3" fill="#2196F3"/>
<circle cx="635" cy="126" r="3" fill="#F44336"/>
<circle cx="635" cy="87" r="3" fill="#4CAF50"/>
<circle cx="648" cy="271" r="3" fill="#2196F3"/>
<circle cx="648" cy="133" r="3" fill="#F44336"/>
<circle cx="648" cy="87" r="3" fill="#4CAF50"/>
<circle cx="661" cy="270" r="3" fill="#2196F3"/>
<circle cx="661" cy="131" r="3" fill="#F44336"/>
<circle cx="661" cy="86" r="3" fill="#4CAF50"/>
<circle cx="674" cy="269" r="3" fill="#2196F3"/>
<circle cx="674" cy="118" r="3" fill="#F44336"/>
<circle cx="674" cy="71" r="3" fill="#4CAF50"/>
<circle cx="687" cy="269" r="3" fill="#2196F3"/>
<circle cx="687" cy="119" r="3" fill="#F44336"/>
<circle cx="687" cy="67" r="3" fill="#4CAF50"/>
<circle cx="701" cy="266" r="3" fill="#2196F3"/>
<circle cx="701" cy="119" r="3" fill="#F44336"/>
<circle cx="701" cy="68" r="3" fill="#4CAF50"/>
<circle cx="714" cy="270" r="3" fill="#2196F3"/>
<circle cx="714" cy="120" r="3" fill="#F44336"/>
<circle cx="714" cy="68" r="3" fill="#4CAF50"/>
<circle cx="727" cy="268" r="3" fill="#2196F3"/>
<circle cx="727" cy="123" r="3" fill="#F44336"/>
<circle cx="727" cy="71" r="3" fill="#4CAF50"/>
<circle cx="740" cy="270" r="3" fill="#2196F3"/>
<circle cx="740" cy="124" r="3" fill="#F44336"/>
<circle cx="740" cy="74" r="3" fill="#4CAF50"/>
<circle cx="753" cy="268" r="3" fill="#2196F3"/>
<circle cx="753" cy="122" r="3" fill="#F44336"/>
<circle cx="753" cy="75" r="3" fill="#4CAF50"/>
<circle cx="766" cy="267" r="3" fill="#2196F3"/>
<circle cx="766" cy="121" r="3" fill="#F44336"/>
<circle cx="766" cy="73" r="3" fill="#4CAF50"/>
<circle cx="780" cy="273" r="3" fill="#2196F3"/>
<circle cx="780" cy="114" r="3" fill="#F44336"/>
<circle cx="780" cy="121" r="3" fill="#4CAF50"/>
<text x="70" y="355" text-anchor="middle" font-size="10" fill="#666">d31c3d3</text>
<text x="83" y="355" text-anchor="middle" font-size="10" fill="#666">577b0f6</text>
<text x="96" y="355" text-anchor="middle" font-size="10" fill="#666">a0e3a8f</text>
<text x="109" y="355" text-anchor="middle" font-size="10" fill="#666">32b7787</text>
<text x="122" y="355" text-anchor="middle" font-size="10" fill="#666">940e369</text>
<text x="135" y="355" text-anchor="middle" font-size="10" fill="#666">78956c1</text>
<text x="148" y="355" text-anchor="middle" font-size="10" fill="#666">1a288e9</text>
<text x="162" y="355" text-anchor="middle" font-size="10" fill="#666">f1c0746</text>
<text x="175" y="355" text-anchor="middle" font-size="10" fill="#666">efad3b5</text>
<text x="188" y="355" text-anchor="middle" font-size="10" fill="#666">d3839be</text>
<text x="201" y="355" text-anchor="middle" font-size="10" fill="#666">a0c21b2</text>
<text x="214" y="355" text-anchor="middle" font-size="10" fill="#666">c3d3d81</text>
<text x="227" y="355" text-anchor="middle" font-size="10" fill="#666">e40d897</text>
<text x="240" y="355" text-anchor="middle" font-size="10" fill="#666">0b1ed97</text>
<text x="254" y="355" text-anchor="middle" font-size="10" fill="#666">6a5ae3f</text>
<text x="267" y="355" text-anchor="middle" font-size="10" fill="#666">59cf448</text>
<text x="280" y="355" text-anchor="middle" font-size="10" fill="#666">42b3e04</text>
<text x="293" y="355" text-anchor="middle" font-size="10" fill="#666">bd9421a</text>
<text x="306" y="355" text-anchor="middle" font-size="10" fill="#666">f80812f</text>
<text x="319" y="355" text-anchor="middle" font-size="10" fill="#666">448a5fe</text>
<text x="332" y="355" text-anchor="middle" font-size="10" fill="#666">b16c1cc</text>
<text x="346" y="355" text-anchor="middle" font-size="10" fill="#666">44c334c</text>
<text x="359" y="355" text-anchor="middle" font-size="10" fill="#666">aa51d1a</text>
<text x="372" y="355" text-anchor="middle" font-size="10" fill="#666">9bee79a</text>
<text x="385" y="355" text-anchor="middle" font-size="10" fill="#666">4380346</text>
<text x="398" y="355" text-anchor="middle" font-size="10" fill="#666">2a587a9</text>
<text x="411" y="355" text-anchor="middle" font-size="10" fill="#666">efb005a</text>
<text x="425" y="355" text-anchor="middle" font-size="10" fill="#666">1c3b72e</text>
<text x="438" y="355" text-anchor="middle" font-size="10" fill="#666">ff7c733</text>
<text x="451" y="355" text-anchor="middle" font-size="10" fill="#666">962897f</text>
<text x="464" y="355" text-anchor="middle" font-size="10" fill="#666">dfec04b</text>
<text x="477" y="355" text-anchor="middle" font-size="10" fill="#666">60e18de</text>
<text x="490" y="355" text-anchor="middle" font-size="10" fill="#666">80a0d41</text>
<text x="503" y="355" text-anchor="middle" font-size="10" fill="#666">e200726</text>
<text x="517" y="355" text-anchor="middle" font-size="10" fill="#666">775a89f</text>
<text x="530" y="355" text-anchor="middle" font-size="10" fill="#666">18e45a5</text>
<text x="543" y="355" text-anchor="middle" font-size="10" fill="#666">9d60b61</text>
<text x="556" y="355" text-anchor="middle" font-size="10" fill="#666">479229b</text>
<text x="569" y="355" text-anchor="middle" font-size="10" fill="#666">39769db</text>
<text x="582" y="355" text-anchor="middle" font-size="10" fill="#666">2834756</text>
<text x="595" y="355" text-anchor="middle" font-size="10" fill="#666">3628e6d</text>
<text x="609" y="355" text-anchor="middle" font-size="10" fill="#666">daa3fc2</text>
<text x="622" y="355" text-anchor="middle" font-size="10" fill="#666">8fc41b8</text>
<text x="635" y="355" text-anchor="middle" font-size="10" fill="#666">7d63976</text>
<text x="648" y="355" text-anchor="middle" font-size="10" fill="#666">4f6a400</text>
<text x="661" y="355" text-anchor="middle" font-size="10" fill="#666">443d8b3</text>
<text x="674" y="355" text-anchor="middle" font-size="10" fill="#666">86f53df</text>
<text x="687" y="355" text-anchor="middle" font-size="10" fill="#666">d665d11</text>
<text x="701" y="355" text-anchor="middle" font-size="10" fill="#666">23f76d5</text>
<text x="714" y="355" text-anchor="middle" font-size="10" fill="#666">bc8afe6</text>
<text x="727" y="355" text-anchor="middle" font-size="10" fill="#666">ed1092f</text>
<text x="740" y="355" text-anchor="middle" font-size="10" fill="#666">058700a</text>
<text x="753" y="355" text-anchor="middle" font-size="10" fill="#666">c44d2f0</text>
<text x="766" y="355" text-anchor="middle" font-size="10" fill="#666">a147f05</text>
<text x="780" y="355" text-anchor="middle" font-size="10" fill="#666">8f2cd31</text>
<circle cx="90" cy="20" r="4" fill="#2196F3"/>
<text x="98" y="24" text-anchor="start" font-size="12" fill="#2196F3">Interpreted</text>
<circle cx="200" cy="20" r="4" fill="#F44336"/>
<text x="208" y="24" text-anchor="start" font-size="12" fill="#F44336">Compiled</text>
<circle cx="300" cy="20" r="4" fill="#4CAF50"/>
<text x="308" y="24" text-anchor="start" font-size="12" fill="#4CAF50">Wall-clock</text>
</svg>
