<svg width="800" height="400" xmlns="http://www.w3.org/2000/svg">
<rect width="800" height="400" fill="white"/>
<line x1="70" y1="40" x2="70" y2="340" stroke="#333" stroke-width="1"/>
<line x1="70" y1="340" x2="730" y2="340" stroke="#333" stroke-width="1"/>
<line x1="730" y1="40" x2="730" y2="340" stroke="#333" stroke-width="1"/>
<text x="65" y="344" text-anchor="end" font-size="11" fill="#333">0</text>
<text x="65" y="194" text-anchor="end" font-size="11" fill="#333">135000</text>
<text x="65" y="44" text-anchor="end" font-size="11" fill="#333">270000</text>
<text x="15" y="190" text-anchor="middle" font-size="12" fill="#333" transform="rotate(-90 15 190)">ms</text>
<text x="735" y="344" text-anchor="start" font-size="11" fill="#333">0</text>
<text x="735" y="194" text-anchor="start" font-size="11" fill="#333">6302000000</text>
<text x="735" y="44" text-anchor="start" font-size="11" fill="#333">12604000000</text>
<text x="785" y="190" text-anchor="middle" font-size="12" fill="#333" transform="rotate(90 785 190)">bytes</text>
<polyline points="70,236 143,238 216,225 290,236 363,205 436,201 510,103 583,199 656,194 730,206" fill="none" stroke="#0072B2" stroke-width="2"/>
<polyline points="70,225 143,227 216,214 290,225 363,153 436,148 510,41 583,155 656,153 730,158" fill="none" stroke="#CC79A7" stroke-width="2"/>
<polyline points="70,340 143,340 216,340 290,340 363,340 436,339 510,339 583,340 656,340 730,340" fill="none" stroke="#D55E00" stroke-width="2"/>
<polyline points="70,238 143,239 216,229 290,236 363,301 436,299 510,275 583,300 656,299 730,301" fill="none" stroke="#009E73" stroke-width="2"/>
<polyline points="70,279 143,281 216,281 290,281 363,278 436,278 510,278 583,279 656,278 730,279" fill="none" stroke="#56B4E9" stroke-width="2"/>
<polyline points="70,236 143,239 216,239 290,238 363,215 436,215 510,215 583,215 656,216 730,216" fill="none" stroke="#E69F00" stroke-width="2"/>
<polyline points="70,340 143,340 216,340 290,340 363,337 436,337 510,335 583,337 656,338 730,337" fill="none" stroke="#C44E52" stroke-width="2"/>
<polyline points="70,134 143,138 216,139 290,141 363,42 436,42 510,41 583,43 656,58 730,43" fill="none" stroke="#000000" stroke-width="2"/>
<circle cx="70" cy="236" r="3" fill="#0072B2"/>
<circle cx="70" cy="225" r="3" fill="#CC79A7"/>
<circle cx="70" cy="340" r="3" fill="#D55E00"/>
<circle cx="70" cy="238" r="3" fill="#009E73"/>
<circle cx="70" cy="279" r="3" fill="#56B4E9"/>
<circle cx="70" cy="236" r="3" fill="#E69F00"/>
<circle cx="70" cy="340" r="3" fill="#C44E52"/>
<circle cx="70" cy="134" r="3" fill="#000000"/>
<circle cx="143" cy="238" r="3" fill="#0072B2"/>
<circle cx="143" cy="227" r="3" fill="#CC79A7"/>
<circle cx="143" cy="340" r="3" fill="#D55E00"/>
<circle cx="143" cy="239" r="3" fill="#009E73"/>
<circle cx="143" cy="281" r="3" fill="#56B4E9"/>
<circle cx="143" cy="239" r="3" fill="#E69F00"/>
<circle cx="143" cy="340" r="3" fill="#C44E52"/>
<circle cx="143" cy="138" r="3" fill="#000000"/>
<circle cx="216" cy="225" r="3" fill="#0072B2"/>
<circle cx="216" cy="214" r="3" fill="#CC79A7"/>
<circle cx="216" cy="340" r="3" fill="#D55E00"/>
<circle cx="216" cy="229" r="3" fill="#009E73"/>
<circle cx="216" cy="281" r="3" fill="#56B4E9"/>
<circle cx="216" cy="239" r="3" fill="#E69F00"/>
<circle cx="216" cy="340" r="3" fill="#C44E52"/>
<circle cx="216" cy="139" r="3" fill="#000000"/>
<circle cx="290" cy="236" r="3" fill="#0072B2"/>
<circle cx="290" cy="225" r="3" fill="#CC79A7"/>
<circle cx="290" cy="340" r="3" fill="#D55E00"/>
<circle cx="290" cy="236" r="3" fill="#009E73"/>
<circle cx="290" cy="281" r="3" fill="#56B4E9"/>
<circle cx="290" cy="238" r="3" fill="#E69F00"/>
<circle cx="290" cy="340" r="3" fill="#C44E52"/>
<circle cx="290" cy="141" r="3" fill="#000000"/>
<circle cx="363" cy="205" r="3" fill="#0072B2"/>
<circle cx="363" cy="153" r="3" fill="#CC79A7"/>
<circle cx="363" cy="340" r="3" fill="#D55E00"/>
<circle cx="363" cy="301" r="3" fill="#009E73"/>
<circle cx="363" cy="278" r="3" fill="#56B4E9"/>
<circle cx="363" cy="215" r="3" fill="#E69F00"/>
<circle cx="363" cy="337" r="3" fill="#C44E52"/>
<circle cx="363" cy="42" r="3" fill="#000000"/>
<circle cx="436" cy="201" r="3" fill="#0072B2"/>
<circle cx="436" cy="148" r="3" fill="#CC79A7"/>
<circle cx="436" cy="339" r="3" fill="#D55E00"/>
<circle cx="436" cy="299" r="3" fill="#009E73"/>
<circle cx="436" cy="278" r="3" fill="#56B4E9"/>
<circle cx="436" cy="215" r="3" fill="#E69F00"/>
<circle cx="436" cy="337" r="3" fill="#C44E52"/>
<circle cx="436" cy="42" r="3" fill="#000000"/>
<circle cx="510" cy="103" r="3" fill="#0072B2"/>
<circle cx="510" cy="41" r="3" fill="#CC79A7"/>
<circle cx="510" cy="339" r="3" fill="#D55E00"/>
<circle cx="510" cy="275" r="3" fill="#009E73"/>
<circle cx="510" cy="278" r="3" fill="#56B4E9"/>
<circle cx="510" cy="215" r="3" fill="#E69F00"/>
<circle cx="510" cy="335" r="3" fill="#C44E52"/>
<circle cx="510" cy="41" r="3" fill="#000000"/>
<circle cx="583" cy="199" r="3" fill="#0072B2"/>
<circle cx="583" cy="155" r="3" fill="#CC79A7"/>
<circle cx="583" cy="340" r="3" fill="#D55E00"/>
<circle cx="583" cy="300" r="3" fill="#009E73"/>
<circle cx="583" cy="279" r="3" fill="#56B4E9"/>
<circle cx="583" cy="215" r="3" fill="#E69F00"/>
<circle cx="583" cy="337" r="3" fill="#C44E52"/>
<circle cx="583" cy="43" r="3" fill="#000000"/>
<circle cx="656" cy="194" r="3" fill="#0072B2"/>
<circle cx="656" cy="153" r="3" fill="#CC79A7"/>
<circle cx="656" cy="340" r="3" fill="#D55E00"/>
<circle cx="656" cy="299" r="3" fill="#009E73"/>
<circle cx="656" cy="278" r="3" fill="#56B4E9"/>
<circle cx="656" cy="216" r="3" fill="#E69F00"/>
<circle cx="656" cy="338" r="3" fill="#C44E52"/>
<circle cx="656" cy="58" r="3" fill="#000000"/>
<circle cx="730" cy="206" r="3" fill="#0072B2"/>
<circle cx="730" cy="158" r="3" fill="#CC79A7"/>
<circle cx="730" cy="340" r="3" fill="#D55E00"/>
<circle cx="730" cy="301" r="3" fill="#009E73"/>
<circle cx="730" cy="279" r="3" fill="#56B4E9"/>
<circle cx="730" cy="216" r="3" fill="#E69F00"/>
<circle cx="730" cy="337" r="3" fill="#C44E52"/>
<circle cx="730" cy="43" r="3" fill="#000000"/>
<circle cx="90" cy="20" r="4" fill="#0072B2"/>
<text x="98" y="24" text-anchor="start" font-size="12" fill="#0072B2">inte</text>
<circle cx="150" cy="20" r="4" fill="#CC79A7"/>
<text x="158" y="24" text-anchor="start" font-size="12" fill="#CC79A7">comp</text>
<circle cx="215" cy="20" r="4" fill="#D55E00"/>
<text x="223" y="24" text-anchor="start" font-size="12" fill="#D55E00">run</text>
<circle cx="270" cy="20" r="4" fill="#009E73"/>
<text x="278" y="24" text-anchor="start" font-size="12" fill="#009E73">wall</text>
<circle cx="335" cy="20" r="4" fill="#56B4E9"/>
<text x="343" y="24" text-anchor="start" font-size="12" fill="#56B4E9">mem-inte</text>
<circle cx="425" cy="20" r="4" fill="#E69F00"/>
<text x="433" y="24" text-anchor="start" font-size="12" fill="#E69F00">mem-comp</text>
<circle cx="520" cy="20" r="4" fill="#C44E52"/>
<text x="528" y="24" text-anchor="start" font-size="12" fill="#C44E52">mem-run</text>
<circle cx="605" cy="20" r="4" fill="#000000"/>
<text x="613" y="24" text-anchor="start" font-size="12" fill="#000000">mem-total</text>
</svg>
