<svg width="800" height="400" xmlns="http://www.w3.org/2000/svg">
<rect width="800" height="400" fill="white"/>
<line x1="70" y1="40" x2="70" y2="340" stroke="#333" stroke-width="1"/>
<line x1="70" y1="340" x2="730" y2="340" stroke="#333" stroke-width="1"/>
<line x1="730" y1="40" x2="730" y2="340" stroke="#333" stroke-width="1"/>
<text x="65" y="344" text-anchor="end" font-size="11" fill="#333">0</text>
<text x="65" y="194" text-anchor="end" font-size="11" fill="#333">69500</text>
<text x="65" y="44" text-anchor="end" font-size="11" fill="#333">139000</text>
<text x="15" y="190" text-anchor="middle" font-size="12" fill="#333" transform="rotate(-90 15 190)">ms</text>
<text x="735" y="344" text-anchor="start" font-size="11" fill="#333">0</text>
<text x="735" y="194" text-anchor="start" font-size="11" fill="#333">6702500000</text>
<text x="735" y="44" text-anchor="start" font-size="11" fill="#333">13405000000</text>
<text x="785" y="190" text-anchor="middle" font-size="12" fill="#333" transform="rotate(90 785 190)">bytes</text>
<polyline points="70,71 143,111 216,110 290,102 363,114 436,109 510,116 583,105 656,102 730,106" fill="none" stroke="#0072B2" stroke-width="2"/>
<polyline points="70,41 143,83 216,83 290,73 363,87 436,82 510,88 583,77 656,73 730,77" fill="none" stroke="#CC79A7" stroke-width="2"/>
<polyline points="70,340 143,340 216,340 290,340 363,340 436,340 510,340 583,340 656,340 730,340" fill="none" stroke="#D55E00" stroke-width="2"/>
<polyline points="70,80 143,117 216,118 290,110 363,121 436,114 510,122 583,114 656,108 730,112" fill="none" stroke="#009E73" stroke-width="2"/>
<polyline points="70,257 143,257 216,257 290,257 363,257 436,257 510,257 583,257 656,257 730,257" fill="none" stroke="#56B4E9" stroke-width="2"/>
<polyline points="70,207 143,204 216,205 290,201 363,207 436,200 510,204 583,195 656,196 730,192" fill="none" stroke="#E69F00" stroke-width="2"/>
<polyline points="70,340 143,340 216,340 290,340 363,340 436,340 510,340 583,340 656,340 730,340" fill="none" stroke="#C44E52" stroke-width="2"/>
<polyline points="70,64 143,63 216,64 290,58 363,66 436,57 510,58 583,46 656,50 730,41" fill="none" stroke="#000000" stroke-width="2"/>
<circle cx="70" cy="71" r="3" fill="#0072B2"/>
<circle cx="70" cy="41" r="3" fill="#CC79A7"/>
<circle cx="70" cy="340" r="3" fill="#D55E00"/>
<circle cx="70" cy="80" r="3" fill="#009E73"/>
<circle cx="70" cy="257" r="3" fill="#56B4E9"/>
<circle cx="70" cy="207" r="3" fill="#E69F00"/>
<circle cx="70" cy="340" r="3" fill="#C44E52"/>
<circle cx="70" cy="64" r="3" fill="#000000"/>
<circle cx="143" cy="111" r="3" fill="#0072B2"/>
<circle cx="143" cy="83" r="3" fill="#CC79A7"/>
<circle cx="143" cy="340" r="3" fill="#D55E00"/>
<circle cx="143" cy="117" r="3" fill="#009E73"/>
<circle cx="143" cy="257" r="3" fill="#56B4E9"/>
<circle cx="143" cy="204" r="3" fill="#E69F00"/>
<circle cx="143" cy="340" r="3" fill="#C44E52"/>
<circle cx="143" cy="63" r="3" fill="#000000"/>
<circle cx="216" cy="110" r="3" fill="#0072B2"/>
<circle cx="216" cy="83" r="3" fill="#CC79A7"/>
<circle cx="216" cy="340" r="3" fill="#D55E00"/>
<circle cx="216" cy="118" r="3" fill="#009E73"/>
<circle cx="216" cy="257" r="3" fill="#56B4E9"/>
<circle cx="216" cy="205" r="3" fill="#E69F00"/>
<circle cx="216" cy="340" r="3" fill="#C44E52"/>
<circle cx="216" cy="64" r="3" fill="#000000"/>
<circle cx="290" cy="102" r="3" fill="#0072B2"/>
<circle cx="290" cy="73" r="3" fill="#CC79A7"/>
<circle cx="290" cy="340" r="3" fill="#D55E00"/>
<circle cx="290" cy="110" r="3" fill="#009E73"/>
<circle cx="290" cy="257" r="3" fill="#56B4E9"/>
<circle cx="290" cy="201" r="3" fill="#E69F00"/>
<circle cx="290" cy="340" r="3" fill="#C44E52"/>
<circle cx="290" cy="58" r="3" fill="#000000"/>
<circle cx="363" cy="114" r="3" fill="#0072B2"/>
<circle cx="363" cy="87" r="3" fill="#CC79A7"/>
<circle cx="363" cy="340" r="3" fill="#D55E00"/>
<circle cx="363" cy="121" r="3" fill="#009E73"/>
<circle cx="363" cy="257" r="3" fill="#56B4E9"/>
<circle cx="363" cy="207" r="3" fill="#E69F00"/>
<circle cx="363" cy="340" r="3" fill="#C44E52"/>
<circle cx="363" cy="66" r="3" fill="#000000"/>
<circle cx="436" cy="109" r="3" fill="#0072B2"/>
<circle cx="436" cy="82" r="3" fill="#CC79A7"/>
<circle cx="436" cy="340" r="3" fill="#D55E00"/>
<circle cx="436" cy="114" r="3" fill="#009E73"/>
<circle cx="436" cy="257" r="3" fill="#56B4E9"/>
<circle cx="436" cy="200" r="3" fill="#E69F00"/>
<circle cx="436" cy="340" r="3" fill="#C44E52"/>
<circle cx="436" cy="57" r="3" fill="#000000"/>
<circle cx="510" cy="116" r="3" fill="#0072B2"/>
<circle cx="510" cy="88" r="3" fill="#CC79A7"/>
<circle cx="510" cy="340" r="3" fill="#D55E00"/>
<circle cx="510" cy="122" r="3" fill="#009E73"/>
<circle cx="510" cy="257" r="3" fill="#56B4E9"/>
<circle cx="510" cy="204" r="3" fill="#E69F00"/>
<circle cx="510" cy="340" r="3" fill="#C44E52"/>
<circle cx="510" cy="58" r="3" fill="#000000"/>
<circle cx="583" cy="105" r="3" fill="#0072B2"/>
<circle cx="583" cy="77" r="3" fill="#CC79A7"/>
<circle cx="583" cy="340" r="3" fill="#D55E00"/>
<circle cx="583" cy="114" r="3" fill="#009E73"/>
<circle cx="583" cy="257" r="3" fill="#56B4E9"/>
<circle cx="583" cy="195" r="3" fill="#E69F00"/>
<circle cx="583" cy="340" r="3" fill="#C44E52"/>
<circle cx="583" cy="46" r="3" fill="#000000"/>
<circle cx="656" cy="102" r="3" fill="#0072B2"/>
<circle cx="656" cy="73" r="3" fill="#CC79A7"/>
<circle cx="656" cy="340" r="3" fill="#D55E00"/>
<circle cx="656" cy="108" r="3" fill="#009E73"/>
<circle cx="656" cy="257" r="3" fill="#56B4E9"/>
<circle cx="656" cy="196" r="3" fill="#E69F00"/>
<circle cx="656" cy="340" r="3" fill="#C44E52"/>
<circle cx="656" cy="50" r="3" fill="#000000"/>
<circle cx="730" cy="106" r="3" fill="#0072B2"/>
<circle cx="730" cy="77" r="3" fill="#CC79A7"/>
<circle cx="730" cy="340" r="3" fill="#D55E00"/>
<circle cx="730" cy="112" r="3" fill="#009E73"/>
<circle cx="730" cy="257" r="3" fill="#56B4E9"/>
<circle cx="730" cy="192" r="3" fill="#E69F00"/>
<circle cx="730" cy="340" r="3" fill="#C44E52"/>
<circle cx="730" cy="41" r="3" fill="#000000"/>
<circle cx="90" cy="20" r="4" fill="#0072B2"/>
<text x="98" y="24" text-anchor="start" font-size="12" fill="#0072B2">inte</text>
<circle cx="150" cy="20" r="4" fill="#CC79A7"/>
<text x="158" y="24" text-anchor="start" font-size="12" fill="#CC79A7">comp</text>
<circle cx="215" cy="20" r="4" fill="#D55E00"/>
<text x="223" y="24" text-anchor="start" font-size="12" fill="#D55E00">run</text>
<circle cx="270" cy="20" r="4" fill="#009E73"/>
<text x="278" y="24" text-anchor="start" font-size="12" fill="#009E73">wall</text>
<circle cx="335" cy="20" r="4" fill="#56B4E9"/>
<text x="343" y="24" text-anchor="start" font-size="12" fill="#56B4E9">mem-inte</text>
<circle cx="425" cy="20" r="4" fill="#E69F00"/>
<text x="433" y="24" text-anchor="start" font-size="12" fill="#E69F00">mem-comp</text>
<circle cx="520" cy="20" r="4" fill="#C44E52"/>
<text x="528" y="24" text-anchor="start" font-size="12" fill="#C44E52">mem-run</text>
<circle cx="605" cy="20" r="4" fill="#000000"/>
<text x="613" y="24" text-anchor="start" font-size="12" fill="#000000">mem-total</text>
</svg>
