<svg width="800" height="400" xmlns="http://www.w3.org/2000/svg">
<rect width="800" height="400" fill="white"/>
<line x1="70" y1="40" x2="70" y2="340" stroke="#333" stroke-width="1"/>
<line x1="70" y1="340" x2="730" y2="340" stroke="#333" stroke-width="1"/>
<line x1="730" y1="40" x2="730" y2="340" stroke="#333" stroke-width="1"/>
<text x="65" y="344" text-anchor="end" font-size="11" fill="#333">0</text>
<text x="65" y="194" text-anchor="end" font-size="11" fill="#333">323000</text>
<text x="65" y="44" text-anchor="end" font-size="11" fill="#333">646000</text>
<text x="15" y="190" text-anchor="middle" font-size="12" fill="#333" transform="rotate(-90 15 190)">ms</text>
<text x="735" y="344" text-anchor="start" font-size="11" fill="#333">0</text>
<text x="735" y="194" text-anchor="start" font-size="11" fill="#333">10331500000</text>
<text x="735" y="44" text-anchor="start" font-size="11" fill="#333">20663000000</text>
<text x="785" y="190" text-anchor="middle" font-size="12" fill="#333" transform="rotate(90 785 190)">bytes</text>
<polyline points="70,83 143,77 216,59 290,53 363,56 436,47 510,47 583,42 656,46 730,41" fill="none" stroke="#0072B2" stroke-width="2"/>
<polyline points="70,120 143,119 216,98 290,95 363,97 436,87 510,87 583,85 656,87 730,81" fill="none" stroke="#CC79A7" stroke-width="2"/>
<polyline points="70,340 143,340 216,340 290,340 363,340 436,340 510,340 583,340 656,340 730,340" fill="none" stroke="#D55E00" stroke-width="2"/>
<polyline points="70,300 143,299 216,298 290,297 363,298 436,297 510,297 583,297 656,297 730,297" fill="none" stroke="#009E73" stroke-width="2"/>
<polyline points="70,304 143,304 216,304 290,304 363,304 436,302 510,302 583,302 656,302 730,302" fill="none" stroke="#56B4E9" stroke-width="2"/>
<polyline points="70,185 143,184 216,184 290,184 363,183 436,181 510,180 583,180 656,180 730,180" fill="none" stroke="#E69F00" stroke-width="2"/>
<polyline points="70,336 143,337 216,337 290,338 363,338 436,338 510,337 583,337 656,338 730,335" fill="none" stroke="#C44E52" stroke-width="2"/>
<polyline points="70,48 143,47 216,47 290,48 363,47 436,44 510,41 583,41 656,43 730,41" fill="none" stroke="#000000" stroke-width="2"/>
<circle cx="70" cy="83" r="3" fill="#0072B2"/>
<circle cx="70" cy="120" r="3" fill="#CC79A7"/>
<circle cx="70" cy="340" r="3" fill="#D55E00"/>
<circle cx="70" cy="300" r="3" fill="#009E73"/>
<circle cx="70" cy="304" r="3" fill="#56B4E9"/>
<circle cx="70" cy="185" r="3" fill="#E69F00"/>
<circle cx="70" cy="336" r="3" fill="#C44E52"/>
<circle cx="70" cy="48" r="3" fill="#000000"/>
<circle cx="143" cy="77" r="3" fill="#0072B2"/>
<circle cx="143" cy="119" r="3" fill="#CC79A7"/>
<circle cx="143" cy="340" r="3" fill="#D55E00"/>
<circle cx="143" cy="299" r="3" fill="#009E73"/>
<circle cx="143" cy="304" r="3" fill="#56B4E9"/>
<circle cx="143" cy="184" r="3" fill="#E69F00"/>
<circle cx="143" cy="337" r="3" fill="#C44E52"/>
<circle cx="143" cy="47" r="3" fill="#000000"/>
<circle cx="216" cy="59" r="3" fill="#0072B2"/>
<circle cx="216" cy="98" r="3" fill="#CC79A7"/>
<circle cx="216" cy="340" r="3" fill="#D55E00"/>
<circle cx="216" cy="298" r="3" fill="#009E73"/>
<circle cx="216" cy="304" r="3" fill="#56B4E9"/>
<circle cx="216" cy="184" r="3" fill="#E69F00"/>
<circle cx="216" cy="337" r="3" fill="#C44E52"/>
<circle cx="216" cy="47" r="3" fill="#000000"/>
<circle cx="290" cy="53" r="3" fill="#0072B2"/>
<circle cx="290" cy="95" r="3" fill="#CC79A7"/>
<circle cx="290" cy="340" r="3" fill="#D55E00"/>
<circle cx="290" cy="297" r="3" fill="#009E73"/>
<circle cx="290" cy="304" r="3" fill="#56B4E9"/>
<circle cx="290" cy="184" r="3" fill="#E69F00"/>
<circle cx="290" cy="338" r="3" fill="#C44E52"/>
<circle cx="290" cy="48" r="3" fill="#000000"/>
<circle cx="363" cy="56" r="3" fill="#0072B2"/>
<circle cx="363" cy="97" r="3" fill="#CC79A7"/>
<circle cx="363" cy="340" r="3" fill="#D55E00"/>
<circle cx="363" cy="298" r="3" fill="#009E73"/>
<circle cx="363" cy="304" r="3" fill="#56B4E9"/>
<circle cx="363" cy="183" r="3" fill="#E69F00"/>
<circle cx="363" cy="338" r="3" fill="#C44E52"/>
<circle cx="363" cy="47" r="3" fill="#000000"/>
<circle cx="436" cy="47" r="3" fill="#0072B2"/>
<circle cx="436" cy="87" r="3" fill="#CC79A7"/>
<circle cx="436" cy="340" r="3" fill="#D55E00"/>
<circle cx="436" cy="297" r="3" fill="#009E73"/>
<circle cx="436" cy="302" r="3" fill="#56B4E9"/>
<circle cx="436" cy="181" r="3" fill="#E69F00"/>
<circle cx="436" cy="338" r="3" fill="#C44E52"/>
<circle cx="436" cy="44" r="3" fill="#000000"/>
<circle cx="510" cy="47" r="3" fill="#0072B2"/>
<circle cx="510" cy="87" r="3" fill="#CC79A7"/>
<circle cx="510" cy="340" r="3" fill="#D55E00"/>
<circle cx="510" cy="297" r="3" fill="#009E73"/>
<circle cx="510" cy="302" r="3" fill="#56B4E9"/>
<circle cx="510" cy="180" r="3" fill="#E69F00"/>
<circle cx="510" cy="337" r="3" fill="#C44E52"/>
<circle cx="510" cy="41" r="3" fill="#000000"/>
<circle cx="583" cy="42" r="3" fill="#0072B2"/>
<circle cx="583" cy="85" r="3" fill="#CC79A7"/>
<circle cx="583" cy="340" r="3" fill="#D55E00"/>
<circle cx="583" cy="297" r="3" fill="#009E73"/>
<circle cx="583" cy="302" r="3" fill="#56B4E9"/>
<circle cx="583" cy="180" r="3" fill="#E69F00"/>
<circle cx="583" cy="337" r="3" fill="#C44E52"/>
<circle cx="583" cy="41" r="3" fill="#000000"/>
<circle cx="656" cy="46" r="3" fill="#0072B2"/>
<circle cx="656" cy="87" r="3" fill="#CC79A7"/>
<circle cx="656" cy="340" r="3" fill="#D55E00"/>
<circle cx="656" cy="297" r="3" fill="#009E73"/>
<circle cx="656" cy="302" r="3" fill="#56B4E9"/>
<circle cx="656" cy="180" r="3" fill="#E69F00"/>
<circle cx="656" cy="338" r="3" fill="#C44E52"/>
<circle cx="656" cy="43" r="3" fill="#000000"/>
<circle cx="730" cy="41" r="3" fill="#0072B2"/>
<circle cx="730" cy="81" r="3" fill="#CC79A7"/>
<circle cx="730" cy="340" r="3" fill="#D55E00"/>
<circle cx="730" cy="297" r="3" fill="#009E73"/>
<circle cx="730" cy="302" r="3" fill="#56B4E9"/>
<circle cx="730" cy="180" r="3" fill="#E69F00"/>
<circle cx="730" cy="335" r="3" fill="#C44E52"/>
<circle cx="730" cy="41" r="3" fill="#000000"/>
<circle cx="90" cy="20" r="4" fill="#0072B2"/>
<text x="98" y="24" text-anchor="start" font-size="12" fill="#0072B2">inte</text>
<circle cx="150" cy="20" r="4" fill="#CC79A7"/>
<text x="158" y="24" text-anchor="start" font-size="12" fill="#CC79A7">comp</text>
<circle cx="215" cy="20" r="4" fill="#D55E00"/>
<text x="223" y="24" text-anchor="start" font-size="12" fill="#D55E00">run</text>
<circle cx="270" cy="20" r="4" fill="#009E73"/>
<text x="278" y="24" text-anchor="start" font-size="12" fill="#009E73">wall</text>
<circle cx="335" cy="20" r="4" fill="#56B4E9"/>
<text x="343" y="24" text-anchor="start" font-size="12" fill="#56B4E9">mem-inte</text>
<circle cx="425" cy="20" r="4" fill="#E69F00"/>
<text x="433" y="24" text-anchor="start" font-size="12" fill="#E69F00">mem-comp</text>
<circle cx="520" cy="20" r="4" fill="#C44E52"/>
<text x="528" y="24" text-anchor="start" font-size="12" fill="#C44E52">mem-run</text>
<circle cx="605" cy="20" r="4" fill="#000000"/>
<text x="613" y="24" text-anchor="start" font-size="12" fill="#000000">mem-total</text>
</svg>
