<svg width="800" height="400" xmlns="http://www.w3.org/2000/svg">
<rect width="800" height="400" fill="white"/>
<line x1="70" y1="40" x2="70" y2="340" stroke="#333" stroke-width="1"/>
<line x1="70" y1="340" x2="730" y2="340" stroke="#333" stroke-width="1"/>
<line x1="730" y1="40" x2="730" y2="340" stroke="#333" stroke-width="1"/>
<text x="65" y="344" text-anchor="end" font-size="11" fill="#333">0</text>
<text x="65" y="194" text-anchor="end" font-size="11" fill="#333">274500</text>
<text x="65" y="44" text-anchor="end" font-size="11" fill="#333">549000</text>
<text x="15" y="190" text-anchor="middle" font-size="12" fill="#333" transform="rotate(-90 15 190)">ms</text>
<text x="735" y="344" text-anchor="start" font-size="11" fill="#333">0</text>
<text x="735" y="194" text-anchor="start" font-size="11" fill="#333">10030500000</text>
<text x="735" y="44" text-anchor="start" font-size="11" fill="#333">20061000000</text>
<text x="785" y="190" text-anchor="middle" font-size="12" fill="#333" transform="rotate(90 785 190)">bytes</text>
<polyline points="70,45 143,48 216,51 290,48 363,52 436,53 510,56 583,45 656,53 730,41" fill="none" stroke="#0072B2" stroke-width="2"/>
<polyline points="70,90 143,95 216,95 290,95 363,96 436,99 510,99 583,89 656,96 730,85" fill="none" stroke="#CC79A7" stroke-width="2"/>
<polyline points="70,340 143,340 216,340 290,340 363,340 436,340 510,340 583,340 656,340 730,340" fill="none" stroke="#D55E00" stroke-width="2"/>
<polyline points="70,293 143,293 216,294 290,294 363,294 436,294 510,295 583,293 656,294 730,292" fill="none" stroke="#009E73" stroke-width="2"/>
<polyline points="70,304 143,304 216,304 290,304 363,304 436,304 510,304 583,304 656,304 730,304" fill="none" stroke="#56B4E9" stroke-width="2"/>
<polyline points="70,182 143,182 216,182 290,182 363,182 436,182 510,182 583,182 656,183 730,182" fill="none" stroke="#E69F00" stroke-width="2"/>
<polyline points="70,334 143,337 216,336 290,337 363,339 436,339 510,339 583,335 656,337 730,338" fill="none" stroke="#C44E52" stroke-width="2"/>
<polyline points="70,41 143,43 216,43 290,43 363,43 436,43 510,43 583,41 656,43 730,44" fill="none" stroke="#000000" stroke-width="2"/>
<circle cx="70" cy="45" r="3" fill="#0072B2"/>
<circle cx="70" cy="90" r="3" fill="#CC79A7"/>
<circle cx="70" cy="340" r="3" fill="#D55E00"/>
<circle cx="70" cy="293" r="3" fill="#009E73"/>
<circle cx="70" cy="304" r="3" fill="#56B4E9"/>
<circle cx="70" cy="182" r="3" fill="#E69F00"/>
<circle cx="70" cy="334" r="3" fill="#C44E52"/>
<circle cx="70" cy="41" r="3" fill="#000000"/>
<circle cx="143" cy="48" r="3" fill="#0072B2"/>
<circle cx="143" cy="95" r="3" fill="#CC79A7"/>
<circle cx="143" cy="340" r="3" fill="#D55E00"/>
<circle cx="143" cy="293" r="3" fill="#009E73"/>
<circle cx="143" cy="304" r="3" fill="#56B4E9"/>
<circle cx="143" cy="182" r="3" fill="#E69F00"/>
<circle cx="143" cy="337" r="3" fill="#C44E52"/>
<circle cx="143" cy="43" r="3" fill="#000000"/>
<circle cx="216" cy="51" r="3" fill="#0072B2"/>
<circle cx="216" cy="95" r="3" fill="#CC79A7"/>
<circle cx="216" cy="340" r="3" fill="#D55E00"/>
<circle cx="216" cy="294" r="3" fill="#009E73"/>
<circle cx="216" cy="304" r="3" fill="#56B4E9"/>
<circle cx="216" cy="182" r="3" fill="#E69F00"/>
<circle cx="216" cy="336" r="3" fill="#C44E52"/>
<circle cx="216" cy="43" r="3" fill="#000000"/>
<circle cx="290" cy="48" r="3" fill="#0072B2"/>
<circle cx="290" cy="95" r="3" fill="#CC79A7"/>
<circle cx="290" cy="340" r="3" fill="#D55E00"/>
<circle cx="290" cy="294" r="3" fill="#009E73"/>
<circle cx="290" cy="304" r="3" fill="#56B4E9"/>
<circle cx="290" cy="182" r="3" fill="#E69F00"/>
<circle cx="290" cy="337" r="3" fill="#C44E52"/>
<circle cx="290" cy="43" r="3" fill="#000000"/>
<circle cx="363" cy="52" r="3" fill="#0072B2"/>
<circle cx="363" cy="96" r="3" fill="#CC79A7"/>
<circle cx="363" cy="340" r="3" fill="#D55E00"/>
<circle cx="363" cy="294" r="3" fill="#009E73"/>
<circle cx="363" cy="304" r="3" fill="#56B4E9"/>
<circle cx="363" cy="182" r="3" fill="#E69F00"/>
<circle cx="363" cy="339" r="3" fill="#C44E52"/>
<circle cx="363" cy="43" r="3" fill="#000000"/>
<circle cx="436" cy="53" r="3" fill="#0072B2"/>
<circle cx="436" cy="99" r="3" fill="#CC79A7"/>
<circle cx="436" cy="340" r="3" fill="#D55E00"/>
<circle cx="436" cy="294" r="3" fill="#009E73"/>
<circle cx="436" cy="304" r="3" fill="#56B4E9"/>
<circle cx="436" cy="182" r="3" fill="#E69F00"/>
<circle cx="436" cy="339" r="3" fill="#C44E52"/>
<circle cx="436" cy="43" r="3" fill="#000000"/>
<circle cx="510" cy="56" r="3" fill="#0072B2"/>
<circle cx="510" cy="99" r="3" fill="#CC79A7"/>
<circle cx="510" cy="340" r="3" fill="#D55E00"/>
<circle cx="510" cy="295" r="3" fill="#009E73"/>
<circle cx="510" cy="304" r="3" fill="#56B4E9"/>
<circle cx="510" cy="182" r="3" fill="#E69F00"/>
<circle cx="510" cy="339" r="3" fill="#C44E52"/>
<circle cx="510" cy="43" r="3" fill="#000000"/>
<circle cx="583" cy="45" r="3" fill="#0072B2"/>
<circle cx="583" cy="89" r="3" fill="#CC79A7"/>
<circle cx="583" cy="340" r="3" fill="#D55E00"/>
<circle cx="583" cy="293" r="3" fill="#009E73"/>
<circle cx="583" cy="304" r="3" fill="#56B4E9"/>
<circle cx="583" cy="182" r="3" fill="#E69F00"/>
<circle cx="583" cy="335" r="3" fill="#C44E52"/>
<circle cx="583" cy="41" r="3" fill="#000000"/>
<circle cx="656" cy="53" r="3" fill="#0072B2"/>
<circle cx="656" cy="96" r="3" fill="#CC79A7"/>
<circle cx="656" cy="340" r="3" fill="#D55E00"/>
<circle cx="656" cy="294" r="3" fill="#009E73"/>
<circle cx="656" cy="304" r="3" fill="#56B4E9"/>
<circle cx="656" cy="183" r="3" fill="#E69F00"/>
<circle cx="656" cy="337" r="3" fill="#C44E52"/>
<circle cx="656" cy="43" r="3" fill="#000000"/>
<circle cx="730" cy="41" r="3" fill="#0072B2"/>
<circle cx="730" cy="85" r="3" fill="#CC79A7"/>
<circle cx="730" cy="340" r="3" fill="#D55E00"/>
<circle cx="730" cy="292" r="3" fill="#009E73"/>
<circle cx="730" cy="304" r="3" fill="#56B4E9"/>
<circle cx="730" cy="182" r="3" fill="#E69F00"/>
<circle cx="730" cy="338" r="3" fill="#C44E52"/>
<circle cx="730" cy="44" r="3" fill="#000000"/>
<circle cx="90" cy="20" r="4" fill="#0072B2"/>
<text x="98" y="24" text-anchor="start" font-size="12" fill="#0072B2">inte</text>
<circle cx="150" cy="20" r="4" fill="#CC79A7"/>
<text x="158" y="24" text-anchor="start" font-size="12" fill="#CC79A7">comp</text>
<circle cx="215" cy="20" r="4" fill="#D55E00"/>
<text x="223" y="24" text-anchor="start" font-size="12" fill="#D55E00">run</text>
<circle cx="270" cy="20" r="4" fill="#009E73"/>
<text x="278" y="24" text-anchor="start" font-size="12" fill="#009E73">wall</text>
<circle cx="335" cy="20" r="4" fill="#56B4E9"/>
<text x="343" y="24" text-anchor="start" font-size="12" fill="#56B4E9">mem-inte</text>
<circle cx="425" cy="20" r="4" fill="#E69F00"/>
<text x="433" y="24" text-anchor="start" font-size="12" fill="#E69F00">mem-comp</text>
<circle cx="520" cy="20" r="4" fill="#C44E52"/>
<text x="528" y="24" text-anchor="start" font-size="12" fill="#C44E52">mem-run</text>
<circle cx="605" cy="20" r="4" fill="#000000"/>
<text x="613" y="24" text-anchor="start" font-size="12" fill="#000000">mem-total</text>
</svg>
