<svg width="800" height="400" xmlns="http://www.w3.org/2000/svg">
<rect width="800" height="400" fill="white"/>
<line x1="70" y1="40" x2="70" y2="340" stroke="#333" stroke-width="1"/>
<line x1="70" y1="340" x2="730" y2="340" stroke="#333" stroke-width="1"/>
<line x1="730" y1="40" x2="730" y2="340" stroke="#333" stroke-width="1"/>
<text x="65" y="344" text-anchor="end" font-size="11" fill="#333">0</text>
<text x="65" y="194" text-anchor="end" font-size="11" fill="#333">435000</text>
<text x="65" y="44" text-anchor="end" font-size="11" fill="#333">870000</text>
<text x="15" y="190" text-anchor="middle" font-size="12" fill="#333" transform="rotate(-90 15 190)">ms</text>
<text x="735" y="344" text-anchor="start" font-size="11" fill="#333">0</text>
<text x="735" y="194" text-anchor="start" font-size="11" fill="#333">6551500000</text>
<text x="735" y="44" text-anchor="start" font-size="11" fill="#333">13103000000</text>
<text x="785" y="190" text-anchor="middle" font-size="12" fill="#333" transform="rotate(90 785 190)">bytes</text>
<polyline points="70,61 143,135 216,140 290,125 363,113 436,119 510,124 583,130 656,148 730,123" fill="none" stroke="#0072B2" stroke-width="2"/>
<polyline points="70,41 143,91 216,110 290,94 363,94 436,71 510,90 583,98 656,110 730,104" fill="none" stroke="#CC79A7" stroke-width="2"/>
<polyline points="70,340 143,340 216,340 290,340 363,340 436,340 510,340 583,340 656,340 730,340" fill="none" stroke="#D55E00" stroke-width="2"/>
<polyline points="70,222 143,240 216,242 290,239 363,234 436,232 510,237 583,239 656,248 730,240" fill="none" stroke="#009E73" stroke-width="2"/>
<polyline points="70,289 143,289 216,289 290,289 363,288 436,287 510,287 583,287 656,287 730,287" fill="none" stroke="#56B4E9" stroke-width="2"/>
<polyline points="70,213 143,213 216,213 290,213 363,212 436,211 510,211 583,211 656,211 730,211" fill="none" stroke="#E69F00" stroke-width="2"/>
<polyline points="70,325 143,324 216,325 290,325 363,325 436,324 510,325 583,325 656,325 730,325" fill="none" stroke="#C44E52" stroke-width="2"/>
<polyline points="70,46 143,46 216,46 290,46 363,44 436,41 510,41 583,42 656,41 730,41" fill="none" stroke="#000000" stroke-width="2"/>
<circle cx="70" cy="61" r="3" fill="#0072B2"/>
<circle cx="70" cy="41" r="3" fill="#CC79A7"/>
<circle cx="70" cy="340" r="3" fill="#D55E00"/>
<circle cx="70" cy="222" r="3" fill="#009E73"/>
<circle cx="70" cy="289" r="3" fill="#56B4E9"/>
<circle cx="70" cy="213" r="3" fill="#E69F00"/>
<circle cx="70" cy="325" r="3" fill="#C44E52"/>
<circle cx="70" cy="46" r="3" fill="#000000"/>
<circle cx="143" cy="135" r="3" fill="#0072B2"/>
<circle cx="143" cy="91" r="3" fill="#CC79A7"/>
<circle cx="143" cy="340" r="3" fill="#D55E00"/>
<circle cx="143" cy="240" r="3" fill="#009E73"/>
<circle cx="143" cy="289" r="3" fill="#56B4E9"/>
<circle cx="143" cy="213" r="3" fill="#E69F00"/>
<circle cx="143" cy="324" r="3" fill="#C44E52"/>
<circle cx="143" cy="46" r="3" fill="#000000"/>
<circle cx="216" cy="140" r="3" fill="#0072B2"/>
<circle cx="216" cy="110" r="3" fill="#CC79A7"/>
<circle cx="216" cy="340" r="3" fill="#D55E00"/>
<circle cx="216" cy="242" r="3" fill="#009E73"/>
<circle cx="216" cy="289" r="3" fill="#56B4E9"/>
<circle cx="216" cy="213" r="3" fill="#E69F00"/>
<circle cx="216" cy="325" r="3" fill="#C44E52"/>
<circle cx="216" cy="46" r="3" fill="#000000"/>
<circle cx="290" cy="125" r="3" fill="#0072B2"/>
<circle cx="290" cy="94" r="3" fill="#CC79A7"/>
<circle cx="290" cy="340" r="3" fill="#D55E00"/>
<circle cx="290" cy="239" r="3" fill="#009E73"/>
<circle cx="290" cy="289" r="3" fill="#56B4E9"/>
<circle cx="290" cy="213" r="3" fill="#E69F00"/>
<circle cx="290" cy="325" r="3" fill="#C44E52"/>
<circle cx="290" cy="46" r="3" fill="#000000"/>
<circle cx="363" cy="113" r="3" fill="#0072B2"/>
<circle cx="363" cy="94" r="3" fill="#CC79A7"/>
<circle cx="363" cy="340" r="3" fill="#D55E00"/>
<circle cx="363" cy="234" r="3" fill="#009E73"/>
<circle cx="363" cy="288" r="3" fill="#56B4E9"/>
<circle cx="363" cy="212" r="3" fill="#E69F00"/>
<circle cx="363" cy="325" r="3" fill="#C44E52"/>
<circle cx="363" cy="44" r="3" fill="#000000"/>
<circle cx="436" cy="119" r="3" fill="#0072B2"/>
<circle cx="436" cy="71" r="3" fill="#CC79A7"/>
<circle cx="436" cy="340" r="3" fill="#D55E00"/>
<circle cx="436" cy="232" r="3" fill="#009E73"/>
<circle cx="436" cy="287" r="3" fill="#56B4E9"/>
<circle cx="436" cy="211" r="3" fill="#E69F00"/>
<circle cx="436" cy="324" r="3" fill="#C44E52"/>
<circle cx="436" cy="41" r="3" fill="#000000"/>
<circle cx="510" cy="124" r="3" fill="#0072B2"/>
<circle cx="510" cy="90" r="3" fill="#CC79A7"/>
<circle cx="510" cy="340" r="3" fill="#D55E00"/>
<circle cx="510" cy="237" r="3" fill="#009E73"/>
<circle cx="510" cy="287" r="3" fill="#56B4E9"/>
<circle cx="510" cy="211" r="3" fill="#E69F00"/>
<circle cx="510" cy="325" r="3" fill="#C44E52"/>
<circle cx="510" cy="41" r="3" fill="#000000"/>
<circle cx="583" cy="130" r="3" fill="#0072B2"/>
<circle cx="583" cy="98" r="3" fill="#CC79A7"/>
<circle cx="583" cy="340" r="3" fill="#D55E00"/>
<circle cx="583" cy="239" r="3" fill="#009E73"/>
<circle cx="583" cy="287" r="3" fill="#56B4E9"/>
<circle cx="583" cy="211" r="3" fill="#E69F00"/>
<circle cx="583" cy="325" r="3" fill="#C44E52"/>
<circle cx="583" cy="42" r="3" fill="#000000"/>
<circle cx="656" cy="148" r="3" fill="#0072B2"/>
<circle cx="656" cy="110" r="3" fill="#CC79A7"/>
<circle cx="656" cy="340" r="3" fill="#D55E00"/>
<circle cx="656" cy="248" r="3" fill="#009E73"/>
<circle cx="656" cy="287" r="3" fill="#56B4E9"/>
<circle cx="656" cy="211" r="3" fill="#E69F00"/>
<circle cx="656" cy="325" r="3" fill="#C44E52"/>
<circle cx="656" cy="41" r="3" fill="#000000"/>
<circle cx="730" cy="123" r="3" fill="#0072B2"/>
<circle cx="730" cy="104" r="3" fill="#CC79A7"/>
<circle cx="730" cy="340" r="3" fill="#D55E00"/>
<circle cx="730" cy="240" r="3" fill="#009E73"/>
<circle cx="730" cy="287" r="3" fill="#56B4E9"/>
<circle cx="730" cy="211" r="3" fill="#E69F00"/>
<circle cx="730" cy="325" r="3" fill="#C44E52"/>
<circle cx="730" cy="41" r="3" fill="#000000"/>
<circle cx="90" cy="20" r="4" fill="#0072B2"/>
<text x="98" y="24" text-anchor="start" font-size="12" fill="#0072B2">inte</text>
<circle cx="150" cy="20" r="4" fill="#CC79A7"/>
<text x="158" y="24" text-anchor="start" font-size="12" fill="#CC79A7">comp</text>
<circle cx="215" cy="20" r="4" fill="#D55E00"/>
<text x="223" y="24" text-anchor="start" font-size="12" fill="#D55E00">run</text>
<circle cx="270" cy="20" r="4" fill="#009E73"/>
<text x="278" y="24" text-anchor="start" font-size="12" fill="#009E73">wall</text>
<circle cx="335" cy="20" r="4" fill="#56B4E9"/>
<text x="343" y="24" text-anchor="start" font-size="12" fill="#56B4E9">mem-inte</text>
<circle cx="425" cy="20" r="4" fill="#E69F00"/>
<text x="433" y="24" text-anchor="start" font-size="12" fill="#E69F00">mem-comp</text>
<circle cx="520" cy="20" r="4" fill="#C44E52"/>
<text x="528" y="24" text-anchor="start" font-size="12" fill="#C44E52">mem-run</text>
<circle cx="605" cy="20" r="4" fill="#000000"/>
<text x="613" y="24" text-anchor="start" font-size="12" fill="#000000">mem-total</text>
</svg>
