<svg width="800" height="400" xmlns="http://www.w3.org/2000/svg">
<rect width="800" height="400" fill="white"/>
<line x1="70" y1="40" x2="70" y2="340" stroke="#333" stroke-width="1"/>
<line x1="70" y1="340" x2="730" y2="340" stroke="#333" stroke-width="1"/>
<line x1="730" y1="40" x2="730" y2="340" stroke="#333" stroke-width="1"/>
<text x="65" y="344" text-anchor="end" font-size="11" fill="#333">0</text>
<text x="65" y="194" text-anchor="end" font-size="11" fill="#333">131500</text>
<text x="65" y="44" text-anchor="end" font-size="11" fill="#333">263000</text>
<text x="15" y="190" text-anchor="middle" font-size="12" fill="#333" transform="rotate(-90 15 190)">ms</text>
<text x="735" y="344" text-anchor="start" font-size="11" fill="#333">0</text>
<text x="735" y="194" text-anchor="start" font-size="11" fill="#333">8736000000</text>
<text x="735" y="44" text-anchor="start" font-size="11" fill="#333">17472000000</text>
<text x="785" y="190" text-anchor="middle" font-size="12" fill="#333" transform="rotate(90 785 190)">bytes</text>
<polyline points="70,44 143,66 216,67 290,68 363,68 436,67 510,57 583,45 656,44 730,41" fill="none" stroke="#0072B2" stroke-width="2"/>
<polyline points="70,72 143,94 216,95 290,96 363,96 436,96 510,88 583,75 656,76 730,74" fill="none" stroke="#CC79A7" stroke-width="2"/>
<polyline points="70,340 143,340 216,340 290,340 363,340 436,340 510,340 583,340 656,340 730,340" fill="none" stroke="#D55E00" stroke-width="2"/>
<polyline points="70,290 143,291 216,291 290,291 363,291 436,290 510,289 583,288 656,287 730,287" fill="none" stroke="#009E73" stroke-width="2"/>
<polyline points="70,283 143,288 216,288 290,288 363,288 436,288 510,288 583,286 656,286 730,286" fill="none" stroke="#56B4E9" stroke-width="2"/>
<polyline points="70,214 143,225 216,225 290,225 363,225 436,225 510,223 583,220 656,220 730,220" fill="none" stroke="#E69F00" stroke-width="2"/>
<polyline points="70,340 143,340 216,340 290,340 363,339 436,340 510,340 583,339 656,340 730,340" fill="none" stroke="#C44E52" stroke-width="2"/>
<polyline points="70,41 143,57 216,57 290,57 363,56 436,56 510,51 583,46 656,46 730,47" fill="none" stroke="#000000" stroke-width="2"/>
<circle cx="70" cy="44" r="3" fill="#0072B2"/>
<circle cx="70" cy="72" r="3" fill="#CC79A7"/>
<circle cx="70" cy="340" r="3" fill="#D55E00"/>
<circle cx="70" cy="290" r="3" fill="#009E73"/>
<circle cx="70" cy="283" r="3" fill="#56B4E9"/>
<circle cx="70" cy="214" r="3" fill="#E69F00"/>
<circle cx="70" cy="340" r="3" fill="#C44E52"/>
<circle cx="70" cy="41" r="3" fill="#000000"/>
<circle cx="143" cy="66" r="3" fill="#0072B2"/>
<circle cx="143" cy="94" r="3" fill="#CC79A7"/>
<circle cx="143" cy="340" r="3" fill="#D55E00"/>
<circle cx="143" cy="291" r="3" fill="#009E73"/>
<circle cx="143" cy="288" r="3" fill="#56B4E9"/>
<circle cx="143" cy="225" r="3" fill="#E69F00"/>
<circle cx="143" cy="340" r="3" fill="#C44E52"/>
<circle cx="143" cy="57" r="3" fill="#000000"/>
<circle cx="216" cy="67" r="3" fill="#0072B2"/>
<circle cx="216" cy="95" r="3" fill="#CC79A7"/>
<circle cx="216" cy="340" r="3" fill="#D55E00"/>
<circle cx="216" cy="291" r="3" fill="#009E73"/>
<circle cx="216" cy="288" r="3" fill="#56B4E9"/>
<circle cx="216" cy="225" r="3" fill="#E69F00"/>
<circle cx="216" cy="340" r="3" fill="#C44E52"/>
<circle cx="216" cy="57" r="3" fill="#000000"/>
<circle cx="290" cy="68" r="3" fill="#0072B2"/>
<circle cx="290" cy="96" r="3" fill="#CC79A7"/>
<circle cx="290" cy="340" r="3" fill="#D55E00"/>
<circle cx="290" cy="291" r="3" fill="#009E73"/>
<circle cx="290" cy="288" r="3" fill="#56B4E9"/>
<circle cx="290" cy="225" r="3" fill="#E69F00"/>
<circle cx="290" cy="340" r="3" fill="#C44E52"/>
<circle cx="290" cy="57" r="3" fill="#000000"/>
<circle cx="363" cy="68" r="3" fill="#0072B2"/>
<circle cx="363" cy="96" r="3" fill="#CC79A7"/>
<circle cx="363" cy="340" r="3" fill="#D55E00"/>
<circle cx="363" cy="291" r="3" fill="#009E73"/>
<circle cx="363" cy="288" r="3" fill="#56B4E9"/>
<circle cx="363" cy="225" r="3" fill="#E69F00"/>
<circle cx="363" cy="339" r="3" fill="#C44E52"/>
<circle cx="363" cy="56" r="3" fill="#000000"/>
<circle cx="436" cy="67" r="3" fill="#0072B2"/>
<circle cx="436" cy="96" r="3" fill="#CC79A7"/>
<circle cx="436" cy="340" r="3" fill="#D55E00"/>
<circle cx="436" cy="290" r="3" fill="#009E73"/>
<circle cx="436" cy="288" r="3" fill="#56B4E9"/>
<circle cx="436" cy="225" r="3" fill="#E69F00"/>
<circle cx="436" cy="340" r="3" fill="#C44E52"/>
<circle cx="436" cy="56" r="3" fill="#000000"/>
<circle cx="510" cy="57" r="3" fill="#0072B2"/>
<circle cx="510" cy="88" r="3" fill="#CC79A7"/>
<circle cx="510" cy="340" r="3" fill="#D55E00"/>
<circle cx="510" cy="289" r="3" fill="#009E73"/>
<circle cx="510" cy="288" r="3" fill="#56B4E9"/>
<circle cx="510" cy="223" r="3" fill="#E69F00"/>
<circle cx="510" cy="340" r="3" fill="#C44E52"/>
<circle cx="510" cy="51" r="3" fill="#000000"/>
<circle cx="583" cy="45" r="3" fill="#0072B2"/>
<circle cx="583" cy="75" r="3" fill="#CC79A7"/>
<circle cx="583" cy="340" r="3" fill="#D55E00"/>
<circle cx="583" cy="288" r="3" fill="#009E73"/>
<circle cx="583" cy="286" r="3" fill="#56B4E9"/>
<circle cx="583" cy="220" r="3" fill="#E69F00"/>
<circle cx="583" cy="339" r="3" fill="#C44E52"/>
<circle cx="583" cy="46" r="3" fill="#000000"/>
<circle cx="656" cy="44" r="3" fill="#0072B2"/>
<circle cx="656" cy="76" r="3" fill="#CC79A7"/>
<circle cx="656" cy="340" r="3" fill="#D55E00"/>
<circle cx="656" cy="287" r="3" fill="#009E73"/>
<circle cx="656" cy="286" r="3" fill="#56B4E9"/>
<circle cx="656" cy="220" r="3" fill="#E69F00"/>
<circle cx="656" cy="340" r="3" fill="#C44E52"/>
<circle cx="656" cy="46" r="3" fill="#000000"/>
<circle cx="730" cy="41" r="3" fill="#0072B2"/>
<circle cx="730" cy="74" r="3" fill="#CC79A7"/>
<circle cx="730" cy="340" r="3" fill="#D55E00"/>
<circle cx="730" cy="287" r="3" fill="#009E73"/>
<circle cx="730" cy="286" r="3" fill="#56B4E9"/>
<circle cx="730" cy="220" r="3" fill="#E69F00"/>
<circle cx="730" cy="340" r="3" fill="#C44E52"/>
<circle cx="730" cy="47" r="3" fill="#000000"/>
<circle cx="90" cy="20" r="4" fill="#0072B2"/>
<text x="98" y="24" text-anchor="start" font-size="12" fill="#0072B2">inte</text>
<circle cx="150" cy="20" r="4" fill="#CC79A7"/>
<text x="158" y="24" text-anchor="start" font-size="12" fill="#CC79A7">comp</text>
<circle cx="215" cy="20" r="4" fill="#D55E00"/>
<text x="223" y="24" text-anchor="start" font-size="12" fill="#D55E00">run</text>
<circle cx="270" cy="20" r="4" fill="#009E73"/>
<text x="278" y="24" text-anchor="start" font-size="12" fill="#009E73">wall</text>
<circle cx="335" cy="20" r="4" fill="#56B4E9"/>
<text x="343" y="24" text-anchor="start" font-size="12" fill="#56B4E9">mem-inte</text>
<circle cx="425" cy="20" r="4" fill="#E69F00"/>
<text x="433" y="24" text-anchor="start" font-size="12" fill="#E69F00">mem-comp</text>
<circle cx="520" cy="20" r="4" fill="#C44E52"/>
<text x="528" y="24" text-anchor="start" font-size="12" fill="#C44E52">mem-run</text>
<circle cx="605" cy="20" r="4" fill="#000000"/>
<text x="613" y="24" text-anchor="start" font-size="12" fill="#000000">mem-total</text>
</svg>
