<svg width="800" height="400" xmlns="http://www.w3.org/2000/svg">
<rect width="800" height="400" fill="white"/>
<line x1="70" y1="40" x2="70" y2="340" stroke="#333" stroke-width="1"/>
<line x1="70" y1="340" x2="730" y2="340" stroke="#333" stroke-width="1"/>
<line x1="730" y1="40" x2="730" y2="340" stroke="#333" stroke-width="1"/>
<text x="65" y="344" text-anchor="end" font-size="11" fill="#333">0</text>
<text x="65" y="194" text-anchor="end" font-size="11" fill="#333">85000</text>
<text x="65" y="44" text-anchor="end" font-size="11" fill="#333">170000</text>
<text x="15" y="190" text-anchor="middle" font-size="12" fill="#333" transform="rotate(-90 15 190)">ms</text>
<text x="735" y="344" text-anchor="start" font-size="11" fill="#333">0</text>
<text x="735" y="194" text-anchor="start" font-size="11" fill="#333">6261000000</text>
<text x="735" y="44" text-anchor="start" font-size="11" fill="#333">12522000000</text>
<text x="785" y="190" text-anchor="middle" font-size="12" fill="#333" transform="rotate(90 785 190)">bytes</text>
<polyline points="70,120 143,91 216,92 290,159 363,159 436,175 510,177 583,158 656,174 730,125" fill="none" stroke="#0072B2" stroke-width="2"/>
<polyline points="70,100 143,68 216,68 290,140 363,139 436,158 510,160 583,139 656,157 730,42" fill="none" stroke="#CC79A7" stroke-width="2"/>
<polyline points="70,340 143,340 216,340 290,340 363,340 436,340 510,340 583,340 656,340 730,339" fill="none" stroke="#D55E00" stroke-width="2"/>
<polyline points="70,126 143,95 216,98 290,162 363,162 436,177 510,179 583,163 656,175 730,277" fill="none" stroke="#009E73" stroke-width="2"/>
<polyline points="70,254 143,254 216,256 290,256 363,256 436,279 510,280 583,281 656,280 730,278" fill="none" stroke="#56B4E9" stroke-width="2"/>
<polyline points="70,208 143,209 216,215 290,214 363,210 436,235 510,238 583,238 656,238 730,215" fill="none" stroke="#E69F00" stroke-width="2"/>
<polyline points="70,340 143,340 216,340 290,340 363,340 436,340 510,340 583,340 656,340 730,337" fill="none" stroke="#C44E52" stroke-width="2"/>
<polyline points="70,75 143,77 216,86 290,84 363,81 436,133 510,137 583,137 656,140 730,41" fill="none" stroke="#000000" stroke-width="2"/>
<circle cx="70" cy="120" r="3" fill="#0072B2"/>
<circle cx="70" cy="100" r="3" fill="#CC79A7"/>
<circle cx="70" cy="340" r="3" fill="#D55E00"/>
<circle cx="70" cy="126" r="3" fill="#009E73"/>
<circle cx="70" cy="254" r="3" fill="#56B4E9"/>
<circle cx="70" cy="208" r="3" fill="#E69F00"/>
<circle cx="70" cy="340" r="3" fill="#C44E52"/>
<circle cx="70" cy="75" r="3" fill="#000000"/>
<circle cx="143" cy="91" r="3" fill="#0072B2"/>
<circle cx="143" cy="68" r="3" fill="#CC79A7"/>
<circle cx="143" cy="340" r="3" fill="#D55E00"/>
<circle cx="143" cy="95" r="3" fill="#009E73"/>
<circle cx="143" cy="254" r="3" fill="#56B4E9"/>
<circle cx="143" cy="209" r="3" fill="#E69F00"/>
<circle cx="143" cy="340" r="3" fill="#C44E52"/>
<circle cx="143" cy="77" r="3" fill="#000000"/>
<circle cx="216" cy="92" r="3" fill="#0072B2"/>
<circle cx="216" cy="68" r="3" fill="#CC79A7"/>
<circle cx="216" cy="340" r="3" fill="#D55E00"/>
<circle cx="216" cy="98" r="3" fill="#009E73"/>
<circle cx="216" cy="256" r="3" fill="#56B4E9"/>
<circle cx="216" cy="215" r="3" fill="#E69F00"/>
<circle cx="216" cy="340" r="3" fill="#C44E52"/>
<circle cx="216" cy="86" r="3" fill="#000000"/>
<circle cx="290" cy="159" r="3" fill="#0072B2"/>
<circle cx="290" cy="140" r="3" fill="#CC79A7"/>
<circle cx="290" cy="340" r="3" fill="#D55E00"/>
<circle cx="290" cy="162" r="3" fill="#009E73"/>
<circle cx="290" cy="256" r="3" fill="#56B4E9"/>
<circle cx="290" cy="214" r="3" fill="#E69F00"/>
<circle cx="290" cy="340" r="3" fill="#C44E52"/>
<circle cx="290" cy="84" r="3" fill="#000000"/>
<circle cx="363" cy="159" r="3" fill="#0072B2"/>
<circle cx="363" cy="139" r="3" fill="#CC79A7"/>
<circle cx="363" cy="340" r="3" fill="#D55E00"/>
<circle cx="363" cy="162" r="3" fill="#009E73"/>
<circle cx="363" cy="256" r="3" fill="#56B4E9"/>
<circle cx="363" cy="210" r="3" fill="#E69F00"/>
<circle cx="363" cy="340" r="3" fill="#C44E52"/>
<circle cx="363" cy="81" r="3" fill="#000000"/>
<circle cx="436" cy="175" r="3" fill="#0072B2"/>
<circle cx="436" cy="158" r="3" fill="#CC79A7"/>
<circle cx="436" cy="340" r="3" fill="#D55E00"/>
<circle cx="436" cy="177" r="3" fill="#009E73"/>
<circle cx="436" cy="279" r="3" fill="#56B4E9"/>
<circle cx="436" cy="235" r="3" fill="#E69F00"/>
<circle cx="436" cy="340" r="3" fill="#C44E52"/>
<circle cx="436" cy="133" r="3" fill="#000000"/>
<circle cx="510" cy="177" r="3" fill="#0072B2"/>
<circle cx="510" cy="160" r="3" fill="#CC79A7"/>
<circle cx="510" cy="340" r="3" fill="#D55E00"/>
<circle cx="510" cy="179" r="3" fill="#009E73"/>
<circle cx="510" cy="280" r="3" fill="#56B4E9"/>
<circle cx="510" cy="238" r="3" fill="#E69F00"/>
<circle cx="510" cy="340" r="3" fill="#C44E52"/>
<circle cx="510" cy="137" r="3" fill="#000000"/>
<circle cx="583" cy="158" r="3" fill="#0072B2"/>
<circle cx="583" cy="139" r="3" fill="#CC79A7"/>
<circle cx="583" cy="340" r="3" fill="#D55E00"/>
<circle cx="583" cy="163" r="3" fill="#009E73"/>
<circle cx="583" cy="281" r="3" fill="#56B4E9"/>
<circle cx="583" cy="238" r="3" fill="#E69F00"/>
<circle cx="583" cy="340" r="3" fill="#C44E52"/>
<circle cx="583" cy="137" r="3" fill="#000000"/>
<circle cx="656" cy="174" r="3" fill="#0072B2"/>
<circle cx="656" cy="157" r="3" fill="#CC79A7"/>
<circle cx="656" cy="340" r="3" fill="#D55E00"/>
<circle cx="656" cy="175" r="3" fill="#009E73"/>
<circle cx="656" cy="280" r="3" fill="#56B4E9"/>
<circle cx="656" cy="238" r="3" fill="#E69F00"/>
<circle cx="656" cy="340" r="3" fill="#C44E52"/>
<circle cx="656" cy="140" r="3" fill="#000000"/>
<circle cx="730" cy="125" r="3" fill="#0072B2"/>
<circle cx="730" cy="42" r="3" fill="#CC79A7"/>
<circle cx="730" cy="339" r="3" fill="#D55E00"/>
<circle cx="730" cy="277" r="3" fill="#009E73"/>
<circle cx="730" cy="278" r="3" fill="#56B4E9"/>
<circle cx="730" cy="215" r="3" fill="#E69F00"/>
<circle cx="730" cy="337" r="3" fill="#C44E52"/>
<circle cx="730" cy="41" r="3" fill="#000000"/>
<circle cx="90" cy="20" r="4" fill="#0072B2"/>
<text x="98" y="24" text-anchor="start" font-size="12" fill="#0072B2">inte</text>
<circle cx="150" cy="20" r="4" fill="#CC79A7"/>
<text x="158" y="24" text-anchor="start" font-size="12" fill="#CC79A7">comp</text>
<circle cx="215" cy="20" r="4" fill="#D55E00"/>
<text x="223" y="24" text-anchor="start" font-size="12" fill="#D55E00">run</text>
<circle cx="270" cy="20" r="4" fill="#009E73"/>
<text x="278" y="24" text-anchor="start" font-size="12" fill="#009E73">wall</text>
<circle cx="335" cy="20" r="4" fill="#56B4E9"/>
<text x="343" y="24" text-anchor="start" font-size="12" fill="#56B4E9">mem-inte</text>
<circle cx="425" cy="20" r="4" fill="#E69F00"/>
<text x="433" y="24" text-anchor="start" font-size="12" fill="#E69F00">mem-comp</text>
<circle cx="520" cy="20" r="4" fill="#C44E52"/>
<text x="528" y="24" text-anchor="start" font-size="12" fill="#C44E52">mem-run</text>
<circle cx="605" cy="20" r="4" fill="#000000"/>
<text x="613" y="24" text-anchor="start" font-size="12" fill="#000000">mem-total</text>
</svg>
