<svg width="800" height="400" xmlns="http://www.w3.org/2000/svg">
<rect width="800" height="400" fill="white"/>
<line x1="70" y1="40" x2="70" y2="340" stroke="#333" stroke-width="1"/>
<line x1="70" y1="340" x2="730" y2="340" stroke="#333" stroke-width="1"/>
<line x1="730" y1="40" x2="730" y2="340" stroke="#333" stroke-width="1"/>
<text x="65" y="344" text-anchor="end" font-size="11" fill="#333">0</text>
<text x="65" y="194" text-anchor="end" font-size="11" fill="#333">133000</text>
<text x="65" y="44" text-anchor="end" font-size="11" fill="#333">266000</text>
<text x="15" y="190" text-anchor="middle" font-size="12" fill="#333" transform="rotate(-90 15 190)">ms</text>
<text x="735" y="344" text-anchor="start" font-size="11" fill="#333">0</text>
<text x="735" y="194" text-anchor="start" font-size="11" fill="#333">9810500000</text>
<text x="735" y="44" text-anchor="start" font-size="11" fill="#333">19621000000</text>
<text x="785" y="190" text-anchor="middle" font-size="12" fill="#333" transform="rotate(90 785 190)">bytes</text>
<polyline points="70,205 143,114 216,203 290,197 363,222 436,193 510,198 583,193 656,202 730,174" fill="none" stroke="#0072B2" stroke-width="2"/>
<polyline points="70,160 143,41 216,162 290,157 363,190 436,142 510,155 583,140 656,150 730,130" fill="none" stroke="#CC79A7" stroke-width="2"/>
<polyline points="70,340 143,339 216,340 290,340 363,340 436,340 510,340 583,339 656,340 730,340" fill="none" stroke="#D55E00" stroke-width="2"/>
<polyline points="70,301 143,276 216,301 290,300 363,307 436,298 510,301 583,299 656,301 730,294" fill="none" stroke="#009E73" stroke-width="2"/>
<polyline points="70,230 143,228 216,230 290,229 363,239 436,225 510,228 583,225 656,230 730,226" fill="none" stroke="#56B4E9" stroke-width="2"/>
<polyline points="70,226 143,225 216,227 290,225 363,230 436,222 510,222 583,222 656,222 730,223" fill="none" stroke="#E69F00" stroke-width="2"/>
<polyline points="70,339 143,337 216,339 290,339 363,339 436,338 510,339 583,338 656,339 730,339" fill="none" stroke="#C44E52" stroke-width="2"/>
<polyline points="70,60 143,51 216,61 290,42 363,71 436,52 510,51 583,51 656,41 730,53" fill="none" stroke="#000000" stroke-width="2"/>
<circle cx="70" cy="205" r="3" fill="#0072B2"/>
<circle cx="70" cy="160" r="3" fill="#CC79A7"/>
<circle cx="70" cy="340" r="3" fill="#D55E00"/>
<circle cx="70" cy="301" r="3" fill="#009E73"/>
<circle cx="70" cy="230" r="3" fill="#56B4E9"/>
<circle cx="70" cy="226" r="3" fill="#E69F00"/>
<circle cx="70" cy="339" r="3" fill="#C44E52"/>
<circle cx="70" cy="60" r="3" fill="#000000"/>
<circle cx="143" cy="114" r="3" fill="#0072B2"/>
<circle cx="143" cy="41" r="3" fill="#CC79A7"/>
<circle cx="143" cy="339" r="3" fill="#D55E00"/>
<circle cx="143" cy="276" r="3" fill="#009E73"/>
<circle cx="143" cy="228" r="3" fill="#56B4E9"/>
<circle cx="143" cy="225" r="3" fill="#E69F00"/>
<circle cx="143" cy="337" r="3" fill="#C44E52"/>
<circle cx="143" cy="51" r="3" fill="#000000"/>
<circle cx="216" cy="203" r="3" fill="#0072B2"/>
<circle cx="216" cy="162" r="3" fill="#CC79A7"/>
<circle cx="216" cy="340" r="3" fill="#D55E00"/>
<circle cx="216" cy="301" r="3" fill="#009E73"/>
<circle cx="216" cy="230" r="3" fill="#56B4E9"/>
<circle cx="216" cy="227" r="3" fill="#E69F00"/>
<circle cx="216" cy="339" r="3" fill="#C44E52"/>
<circle cx="216" cy="61" r="3" fill="#000000"/>
<circle cx="290" cy="197" r="3" fill="#0072B2"/>
<circle cx="290" cy="157" r="3" fill="#CC79A7"/>
<circle cx="290" cy="340" r="3" fill="#D55E00"/>
<circle cx="290" cy="300" r="3" fill="#009E73"/>
<circle cx="290" cy="229" r="3" fill="#56B4E9"/>
<circle cx="290" cy="225" r="3" fill="#E69F00"/>
<circle cx="290" cy="339" r="3" fill="#C44E52"/>
<circle cx="290" cy="42" r="3" fill="#000000"/>
<circle cx="363" cy="222" r="3" fill="#0072B2"/>
<circle cx="363" cy="190" r="3" fill="#CC79A7"/>
<circle cx="363" cy="340" r="3" fill="#D55E00"/>
<circle cx="363" cy="307" r="3" fill="#009E73"/>
<circle cx="363" cy="239" r="3" fill="#56B4E9"/>
<circle cx="363" cy="230" r="3" fill="#E69F00"/>
<circle cx="363" cy="339" r="3" fill="#C44E52"/>
<circle cx="363" cy="71" r="3" fill="#000000"/>
<circle cx="436" cy="193" r="3" fill="#0072B2"/>
<circle cx="436" cy="142" r="3" fill="#CC79A7"/>
<circle cx="436" cy="340" r="3" fill="#D55E00"/>
<circle cx="436" cy="298" r="3" fill="#009E73"/>
<circle cx="436" cy="225" r="3" fill="#56B4E9"/>
<circle cx="436" cy="222" r="3" fill="#E69F00"/>
<circle cx="436" cy="338" r="3" fill="#C44E52"/>
<circle cx="436" cy="52" r="3" fill="#000000"/>
<circle cx="510" cy="198" r="3" fill="#0072B2"/>
<circle cx="510" cy="155" r="3" fill="#CC79A7"/>
<circle cx="510" cy="340" r="3" fill="#D55E00"/>
<circle cx="510" cy="301" r="3" fill="#009E73"/>
<circle cx="510" cy="228" r="3" fill="#56B4E9"/>
<circle cx="510" cy="222" r="3" fill="#E69F00"/>
<circle cx="510" cy="339" r="3" fill="#C44E52"/>
<circle cx="510" cy="51" r="3" fill="#000000"/>
<circle cx="583" cy="193" r="3" fill="#0072B2"/>
<circle cx="583" cy="140" r="3" fill="#CC79A7"/>
<circle cx="583" cy="339" r="3" fill="#D55E00"/>
<circle cx="583" cy="299" r="3" fill="#009E73"/>
<circle cx="583" cy="225" r="3" fill="#56B4E9"/>
<circle cx="583" cy="222" r="3" fill="#E69F00"/>
<circle cx="583" cy="338" r="3" fill="#C44E52"/>
<circle cx="583" cy="51" r="3" fill="#000000"/>
<circle cx="656" cy="202" r="3" fill="#0072B2"/>
<circle cx="656" cy="150" r="3" fill="#CC79A7"/>
<circle cx="656" cy="340" r="3" fill="#D55E00"/>
<circle cx="656" cy="301" r="3" fill="#009E73"/>
<circle cx="656" cy="230" r="3" fill="#56B4E9"/>
<circle cx="656" cy="222" r="3" fill="#E69F00"/>
<circle cx="656" cy="339" r="3" fill="#C44E52"/>
<circle cx="656" cy="41" r="3" fill="#000000"/>
<circle cx="730" cy="174" r="3" fill="#0072B2"/>
<circle cx="730" cy="130" r="3" fill="#CC79A7"/>
<circle cx="730" cy="340" r="3" fill="#D55E00"/>
<circle cx="730" cy="294" r="3" fill="#009E73"/>
<circle cx="730" cy="226" r="3" fill="#56B4E9"/>
<circle cx="730" cy="223" r="3" fill="#E69F00"/>
<circle cx="730" cy="339" r="3" fill="#C44E52"/>
<circle cx="730" cy="53" r="3" fill="#000000"/>
<circle cx="90" cy="20" r="4" fill="#0072B2"/>
<text x="98" y="24" text-anchor="start" font-size="12" fill="#0072B2">inte</text>
<circle cx="150" cy="20" r="4" fill="#CC79A7"/>
<text x="158" y="24" text-anchor="start" font-size="12" fill="#CC79A7">comp</text>
<circle cx="215" cy="20" r="4" fill="#D55E00"/>
<text x="223" y="24" text-anchor="start" font-size="12" fill="#D55E00">run</text>
<circle cx="270" cy="20" r="4" fill="#009E73"/>
<text x="278" y="24" text-anchor="start" font-size="12" fill="#009E73">wall</text>
<circle cx="335" cy="20" r="4" fill="#56B4E9"/>
<text x="343" y="24" text-anchor="start" font-size="12" fill="#56B4E9">mem-inte</text>
<circle cx="425" cy="20" r="4" fill="#E69F00"/>
<text x="433" y="24" text-anchor="start" font-size="12" fill="#E69F00">mem-comp</text>
<circle cx="520" cy="20" r="4" fill="#C44E52"/>
<text x="528" y="24" text-anchor="start" font-size="12" fill="#C44E52">mem-run</text>
<circle cx="605" cy="20" r="4" fill="#000000"/>
<text x="613" y="24" text-anchor="start" font-size="12" fill="#000000">mem-total</text>
</svg>
