<svg width="800" height="400" xmlns="http://www.w3.org/2000/svg">
<rect width="800" height="400" fill="white"/>
<line x1="70" y1="40" x2="70" y2="340" stroke="#333" stroke-width="1"/>
<line x1="70" y1="340" x2="730" y2="340" stroke="#333" stroke-width="1"/>
<line x1="730" y1="40" x2="730" y2="340" stroke="#333" stroke-width="1"/>
<text x="65" y="344" text-anchor="end" font-size="11" fill="#333">0</text>
<text x="65" y="194" text-anchor="end" font-size="11" fill="#333">584000</text>
<text x="65" y="44" text-anchor="end" font-size="11" fill="#333">1168000</text>
<text x="15" y="190" text-anchor="middle" font-size="12" fill="#333" transform="rotate(-90 15 190)">ms</text>
<text x="735" y="344" text-anchor="start" font-size="11" fill="#333">0</text>
<text x="735" y="194" text-anchor="start" font-size="11" fill="#333">69543500000</text>
<text x="735" y="44" text-anchor="start" font-size="11" fill="#333">139087000000</text>
<text x="785" y="190" text-anchor="middle" font-size="12" fill="#333" transform="rotate(90 785 190)">bytes</text>
<polyline points="70,54 143,58 216,54 290,86 363,90 436,89 510,118 583,135 656,136 730,115" fill="none" stroke="#0072B2" stroke-width="2"/>
<polyline points="70,43 143,41 216,44 290,79 363,78 436,75 510,109 583,109 656,109 730,118" fill="none" stroke="#CC79A7" stroke-width="2"/>
<polyline points="70,340 143,340 216,340 290,340 363,340 436,340 510,340 583,340 656,340 730,340" fill="none" stroke="#D55E00" stroke-width="2"/>
<polyline points="70,303 143,303 216,303 290,306 363,307 436,307 510,311 583,312 656,312 730,307" fill="none" stroke="#009E73" stroke-width="2"/>
<polyline points="70,192 143,194 216,192 290,195 363,196 436,195 510,197 583,199 656,198 730,199" fill="none" stroke="#984EA3" stroke-width="2"/>
<polyline points="70,48 143,49 216,49 290,65 363,68 436,66 510,81 583,78 656,76 730,70" fill="none" stroke="#56B4E9" stroke-width="2"/>
<polyline points="70,41 143,41 216,41 290,58 363,59 436,59 510,74 583,69 656,70 730,70" fill="none" stroke="#E69F00" stroke-width="2"/>
<polyline points="70,340 143,340 216,340 290,340 363,340 436,339 510,340 583,340 656,340 730,340" fill="none" stroke="#C44E52" stroke-width="2"/>
<polyline points="70,298 143,298 216,297 290,298 363,298 436,299 510,299 583,299 656,298 730,298" fill="none" stroke="#8C564B" stroke-width="2"/>
<circle cx="70" cy="54" r="3" fill="#0072B2"/>
<circle cx="70" cy="43" r="3" fill="#CC79A7"/>
<circle cx="70" cy="340" r="3" fill="#D55E00"/>
<circle cx="70" cy="303" r="3" fill="#009E73"/>
<circle cx="70" cy="192" r="3" fill="#984EA3"/>
<circle cx="70" cy="48" r="3" fill="#56B4E9"/>
<circle cx="70" cy="41" r="3" fill="#E69F00"/>
<circle cx="70" cy="340" r="3" fill="#C44E52"/>
<circle cx="70" cy="298" r="3" fill="#8C564B"/>
<circle cx="143" cy="58" r="3" fill="#0072B2"/>
<circle cx="143" cy="41" r="3" fill="#CC79A7"/>
<circle cx="143" cy="340" r="3" fill="#D55E00"/>
<circle cx="143" cy="303" r="3" fill="#009E73"/>
<circle cx="143" cy="194" r="3" fill="#984EA3"/>
<circle cx="143" cy="49" r="3" fill="#56B4E9"/>
<circle cx="143" cy="41" r="3" fill="#E69F00"/>
<circle cx="143" cy="340" r="3" fill="#C44E52"/>
<circle cx="143" cy="298" r="3" fill="#8C564B"/>
<circle cx="216" cy="54" r="3" fill="#0072B2"/>
<circle cx="216" cy="44" r="3" fill="#CC79A7"/>
<circle cx="216" cy="340" r="3" fill="#D55E00"/>
<circle cx="216" cy="303" r="3" fill="#009E73"/>
<circle cx="216" cy="192" r="3" fill="#984EA3"/>
<circle cx="216" cy="49" r="3" fill="#56B4E9"/>
<circle cx="216" cy="41" r="3" fill="#E69F00"/>
<circle cx="216" cy="340" r="3" fill="#C44E52"/>
<circle cx="216" cy="297" r="3" fill="#8C564B"/>
<circle cx="290" cy="86" r="3" fill="#0072B2"/>
<circle cx="290" cy="79" r="3" fill="#CC79A7"/>
<circle cx="290" cy="340" r="3" fill="#D55E00"/>
<circle cx="290" cy="306" r="3" fill="#009E73"/>
<circle cx="290" cy="195" r="3" fill="#984EA3"/>
<circle cx="290" cy="65" r="3" fill="#56B4E9"/>
<circle cx="290" cy="58" r="3" fill="#E69F00"/>
<circle cx="290" cy="340" r="3" fill="#C44E52"/>
<circle cx="290" cy="298" r="3" fill="#8C564B"/>
<circle cx="363" cy="90" r="3" fill="#0072B2"/>
<circle cx="363" cy="78" r="3" fill="#CC79A7"/>
<circle cx="363" cy="340" r="3" fill="#D55E00"/>
<circle cx="363" cy="307" r="3" fill="#009E73"/>
<circle cx="363" cy="196" r="3" fill="#984EA3"/>
<circle cx="363" cy="68" r="3" fill="#56B4E9"/>
<circle cx="363" cy="59" r="3" fill="#E69F00"/>
<circle cx="363" cy="340" r="3" fill="#C44E52"/>
<circle cx="363" cy="298" r="3" fill="#8C564B"/>
<circle cx="436" cy="89" r="3" fill="#0072B2"/>
<circle cx="436" cy="75" r="3" fill="#CC79A7"/>
<circle cx="436" cy="340" r="3" fill="#D55E00"/>
<circle cx="436" cy="307" r="3" fill="#009E73"/>
<circle cx="436" cy="195" r="3" fill="#984EA3"/>
<circle cx="436" cy="66" r="3" fill="#56B4E9"/>
<circle cx="436" cy="59" r="3" fill="#E69F00"/>
<circle cx="436" cy="339" r="3" fill="#C44E52"/>
<circle cx="436" cy="299" r="3" fill="#8C564B"/>
<circle cx="510" cy="118" r="3" fill="#0072B2"/>
<circle cx="510" cy="109" r="3" fill="#CC79A7"/>
<circle cx="510" cy="340" r="3" fill="#D55E00"/>
<circle cx="510" cy="311" r="3" fill="#009E73"/>
<circle cx="510" cy="197" r="3" fill="#984EA3"/>
<circle cx="510" cy="81" r="3" fill="#56B4E9"/>
<circle cx="510" cy="74" r="3" fill="#E69F00"/>
<circle cx="510" cy="340" r="3" fill="#C44E52"/>
<circle cx="510" cy="299" r="3" fill="#8C564B"/>
<circle cx="583" cy="135" r="3" fill="#0072B2"/>
<circle cx="583" cy="109" r="3" fill="#CC79A7"/>
<circle cx="583" cy="340" r="3" fill="#D55E00"/>
<circle cx="583" cy="312" r="3" fill="#009E73"/>
<circle cx="583" cy="199" r="3" fill="#984EA3"/>
<circle cx="583" cy="78" r="3" fill="#56B4E9"/>
<circle cx="583" cy="69" r="3" fill="#E69F00"/>
<circle cx="583" cy="340" r="3" fill="#C44E52"/>
<circle cx="583" cy="299" r="3" fill="#8C564B"/>
<circle cx="656" cy="136" r="3" fill="#0072B2"/>
<circle cx="656" cy="109" r="3" fill="#CC79A7"/>
<circle cx="656" cy="340" r="3" fill="#D55E00"/>
<circle cx="656" cy="312" r="3" fill="#009E73"/>
<circle cx="656" cy="198" r="3" fill="#984EA3"/>
<circle cx="656" cy="76" r="3" fill="#56B4E9"/>
<circle cx="656" cy="70" r="3" fill="#E69F00"/>
<circle cx="656" cy="340" r="3" fill="#C44E52"/>
<circle cx="656" cy="298" r="3" fill="#8C564B"/>
<circle cx="730" cy="115" r="3" fill="#0072B2"/>
<circle cx="730" cy="118" r="3" fill="#CC79A7"/>
<circle cx="730" cy="340" r="3" fill="#D55E00"/>
<circle cx="730" cy="307" r="3" fill="#009E73"/>
<circle cx="730" cy="199" r="3" fill="#984EA3"/>
<circle cx="730" cy="70" r="3" fill="#56B4E9"/>
<circle cx="730" cy="70" r="3" fill="#E69F00"/>
<circle cx="730" cy="340" r="3" fill="#C44E52"/>
<circle cx="730" cy="298" r="3" fill="#8C564B"/>
<circle cx="70" cy="20" r="4" fill="#0072B2"/>
<text x="78" y="24" text-anchor="start" font-size="12" fill="#0072B2">inte</text>
<circle cx="130" cy="20" r="4" fill="#CC79A7"/>
<text x="138" y="24" text-anchor="start" font-size="12" fill="#CC79A7">comp</text>
<circle cx="195" cy="20" r="4" fill="#D55E00"/>
<text x="203" y="24" text-anchor="start" font-size="12" fill="#D55E00">run</text>
<circle cx="250" cy="20" r="4" fill="#009E73"/>
<text x="258" y="24" text-anchor="start" font-size="12" fill="#009E73">wall</text>
<circle cx="315" cy="20" r="4" fill="#984EA3"/>
<text x="323" y="24" text-anchor="start" font-size="12" fill="#984EA3">self</text>
<circle cx="380" cy="20" r="4" fill="#56B4E9"/>
<text x="388" y="24" text-anchor="start" font-size="12" fill="#56B4E9">mem-inte</text>
<circle cx="470" cy="20" r="4" fill="#E69F00"/>
<text x="478" y="24" text-anchor="start" font-size="12" fill="#E69F00">mem-comp</text>
<circle cx="565" cy="20" r="4" fill="#C44E52"/>
<text x="573" y="24" text-anchor="start" font-size="12" fill="#C44E52">mem-run</text>
<circle cx="650" cy="20" r="4" fill="#8C564B"/>
<text x="658" y="24" text-anchor="start" font-size="12" fill="#8C564B">self-mem</text>
</svg>
