<svg width="800" height="400" xmlns="http://www.w3.org/2000/svg">
<rect width="800" height="400" fill="white"/>
<line x1="70" y1="40" x2="70" y2="340" stroke="#333" stroke-width="1"/>
<line x1="70" y1="340" x2="730" y2="340" stroke="#333" stroke-width="1"/>
<line x1="730" y1="40" x2="730" y2="340" stroke="#333" stroke-width="1"/>
<text x="65" y="344" text-anchor="end" font-size="11" fill="#333">0</text>
<text x="65" y="194" text-anchor="end" font-size="11" fill="#333">435000</text>
<text x="65" y="44" text-anchor="end" font-size="11" fill="#333">870000</text>
<text x="15" y="190" text-anchor="middle" font-size="12" fill="#333" transform="rotate(-90 15 190)">ms</text>
<text x="735" y="344" text-anchor="start" font-size="11" fill="#333">0</text>
<text x="735" y="194" text-anchor="start" font-size="11" fill="#333">6426000000</text>
<text x="735" y="44" text-anchor="start" font-size="11" fill="#333">12852000000</text>
<text x="785" y="190" text-anchor="middle" font-size="12" fill="#333" transform="rotate(90 785 190)">bytes</text>
<polyline points="70,169 143,126 216,137 290,144 363,164 436,149 510,149 583,145 656,142 730,61" fill="none" stroke="#0072B2" stroke-width="2"/>
<polyline points="70,149 143,125 216,118 290,123 363,149 436,139 510,140 583,131 656,133 730,41" fill="none" stroke="#CC79A7" stroke-width="2"/>
<polyline points="70,340 143,340 216,340 290,340 363,340 436,340 510,340 583,340 656,340 730,340" fill="none" stroke="#D55E00" stroke-width="2"/>
<polyline points="70,259 143,247 216,247 290,249 363,259 436,252 510,252 583,251 656,250 730,222" fill="none" stroke="#009E73" stroke-width="2"/>
<polyline points="70,288 143,288 216,288 290,285 363,285 436,288 510,288 583,288 656,288 730,288" fill="none" stroke="#56B4E9" stroke-width="2"/>
<polyline points="70,236 143,235 216,235 290,233 363,233 436,235 510,235 583,235 656,235 730,210" fill="none" stroke="#E69F00" stroke-width="2"/>
<polyline points="70,340 143,340 216,340 290,340 363,340 436,340 510,340 583,340 656,340 730,324" fill="none" stroke="#C44E52" stroke-width="2"/>
<polyline points="70,111 143,111 216,111 290,105 363,105 436,111 510,111 583,110 656,111 730,41" fill="none" stroke="#000000" stroke-width="2"/>
<circle cx="70" cy="169" r="3" fill="#0072B2"/>
<circle cx="70" cy="149" r="3" fill="#CC79A7"/>
<circle cx="70" cy="340" r="3" fill="#D55E00"/>
<circle cx="70" cy="259" r="3" fill="#009E73"/>
<circle cx="70" cy="288" r="3" fill="#56B4E9"/>
<circle cx="70" cy="236" r="3" fill="#E69F00"/>
<circle cx="70" cy="340" r="3" fill="#C44E52"/>
<circle cx="70" cy="111" r="3" fill="#000000"/>
<circle cx="143" cy="126" r="3" fill="#0072B2"/>
<circle cx="143" cy="125" r="3" fill="#CC79A7"/>
<circle cx="143" cy="340" r="3" fill="#D55E00"/>
<circle cx="143" cy="247" r="3" fill="#009E73"/>
<circle cx="143" cy="288" r="3" fill="#56B4E9"/>
<circle cx="143" cy="235" r="3" fill="#E69F00"/>
<circle cx="143" cy="340" r="3" fill="#C44E52"/>
<circle cx="143" cy="111" r="3" fill="#000000"/>
<circle cx="216" cy="137" r="3" fill="#0072B2"/>
<circle cx="216" cy="118" r="3" fill="#CC79A7"/>
<circle cx="216" cy="340" r="3" fill="#D55E00"/>
<circle cx="216" cy="247" r="3" fill="#009E73"/>
<circle cx="216" cy="288" r="3" fill="#56B4E9"/>
<circle cx="216" cy="235" r="3" fill="#E69F00"/>
<circle cx="216" cy="340" r="3" fill="#C44E52"/>
<circle cx="216" cy="111" r="3" fill="#000000"/>
<circle cx="290" cy="144" r="3" fill="#0072B2"/>
<circle cx="290" cy="123" r="3" fill="#CC79A7"/>
<circle cx="290" cy="340" r="3" fill="#D55E00"/>
<circle cx="290" cy="249" r="3" fill="#009E73"/>
<circle cx="290" cy="285" r="3" fill="#56B4E9"/>
<circle cx="290" cy="233" r="3" fill="#E69F00"/>
<circle cx="290" cy="340" r="3" fill="#C44E52"/>
<circle cx="290" cy="105" r="3" fill="#000000"/>
<circle cx="363" cy="164" r="3" fill="#0072B2"/>
<circle cx="363" cy="149" r="3" fill="#CC79A7"/>
<circle cx="363" cy="340" r="3" fill="#D55E00"/>
<circle cx="363" cy="259" r="3" fill="#009E73"/>
<circle cx="363" cy="285" r="3" fill="#56B4E9"/>
<circle cx="363" cy="233" r="3" fill="#E69F00"/>
<circle cx="363" cy="340" r="3" fill="#C44E52"/>
<circle cx="363" cy="105" r="3" fill="#000000"/>
<circle cx="436" cy="149" r="3" fill="#0072B2"/>
<circle cx="436" cy="139" r="3" fill="#CC79A7"/>
<circle cx="436" cy="340" r="3" fill="#D55E00"/>
<circle cx="436" cy="252" r="3" fill="#009E73"/>
<circle cx="436" cy="288" r="3" fill="#56B4E9"/>
<circle cx="436" cy="235" r="3" fill="#E69F00"/>
<circle cx="436" cy="340" r="3" fill="#C44E52"/>
<circle cx="436" cy="111" r="3" fill="#000000"/>
<circle cx="510" cy="149" r="3" fill="#0072B2"/>
<circle cx="510" cy="140" r="3" fill="#CC79A7"/>
<circle cx="510" cy="340" r="3" fill="#D55E00"/>
<circle cx="510" cy="252" r="3" fill="#009E73"/>
<circle cx="510" cy="288" r="3" fill="#56B4E9"/>
<circle cx="510" cy="235" r="3" fill="#E69F00"/>
<circle cx="510" cy="340" r="3" fill="#C44E52"/>
<circle cx="510" cy="111" r="3" fill="#000000"/>
<circle cx="583" cy="145" r="3" fill="#0072B2"/>
<circle cx="583" cy="131" r="3" fill="#CC79A7"/>
<circle cx="583" cy="340" r="3" fill="#D55E00"/>
<circle cx="583" cy="251" r="3" fill="#009E73"/>
<circle cx="583" cy="288" r="3" fill="#56B4E9"/>
<circle cx="583" cy="235" r="3" fill="#E69F00"/>
<circle cx="583" cy="340" r="3" fill="#C44E52"/>
<circle cx="583" cy="110" r="3" fill="#000000"/>
<circle cx="656" cy="142" r="3" fill="#0072B2"/>
<circle cx="656" cy="133" r="3" fill="#CC79A7"/>
<circle cx="656" cy="340" r="3" fill="#D55E00"/>
<circle cx="656" cy="250" r="3" fill="#009E73"/>
<circle cx="656" cy="288" r="3" fill="#56B4E9"/>
<circle cx="656" cy="235" r="3" fill="#E69F00"/>
<circle cx="656" cy="340" r="3" fill="#C44E52"/>
<circle cx="656" cy="111" r="3" fill="#000000"/>
<circle cx="730" cy="61" r="3" fill="#0072B2"/>
<circle cx="730" cy="41" r="3" fill="#CC79A7"/>
<circle cx="730" cy="340" r="3" fill="#D55E00"/>
<circle cx="730" cy="222" r="3" fill="#009E73"/>
<circle cx="730" cy="288" r="3" fill="#56B4E9"/>
<circle cx="730" cy="210" r="3" fill="#E69F00"/>
<circle cx="730" cy="324" r="3" fill="#C44E52"/>
<circle cx="730" cy="41" r="3" fill="#000000"/>
<circle cx="90" cy="20" r="4" fill="#0072B2"/>
<text x="98" y="24" text-anchor="start" font-size="12" fill="#0072B2">inte</text>
<circle cx="150" cy="20" r="4" fill="#CC79A7"/>
<text x="158" y="24" text-anchor="start" font-size="12" fill="#CC79A7">comp</text>
<circle cx="215" cy="20" r="4" fill="#D55E00"/>
<text x="223" y="24" text-anchor="start" font-size="12" fill="#D55E00">run</text>
<circle cx="270" cy="20" r="4" fill="#009E73"/>
<text x="278" y="24" text-anchor="start" font-size="12" fill="#009E73">wall</text>
<circle cx="335" cy="20" r="4" fill="#56B4E9"/>
<text x="343" y="24" text-anchor="start" font-size="12" fill="#56B4E9">mem-inte</text>
<circle cx="425" cy="20" r="4" fill="#E69F00"/>
<text x="433" y="24" text-anchor="start" font-size="12" fill="#E69F00">mem-comp</text>
<circle cx="520" cy="20" r="4" fill="#C44E52"/>
<text x="528" y="24" text-anchor="start" font-size="12" fill="#C44E52">mem-run</text>
<circle cx="605" cy="20" r="4" fill="#000000"/>
<text x="613" y="24" text-anchor="start" font-size="12" fill="#000000">mem-total</text>
</svg>
