<svg width="800" height="400" xmlns="http://www.w3.org/2000/svg">
<rect width="800" height="400" fill="white"/>
<line x1="70" y1="40" x2="70" y2="340" stroke="#333" stroke-width="1"/>
<line x1="70" y1="340" x2="730" y2="340" stroke="#333" stroke-width="1"/>
<line x1="730" y1="40" x2="730" y2="340" stroke="#333" stroke-width="1"/>
<text x="65" y="344" text-anchor="end" font-size="11" fill="#333">0</text>
<text x="65" y="194" text-anchor="end" font-size="11" fill="#333">316000</text>
<text x="65" y="44" text-anchor="end" font-size="11" fill="#333">632000</text>
<text x="15" y="190" text-anchor="middle" font-size="12" fill="#333" transform="rotate(-90 15 190)">ms</text>
<text x="735" y="344" text-anchor="start" font-size="11" fill="#333">0</text>
<text x="735" y="194" text-anchor="start" font-size="11" fill="#333">53166000000</text>
<text x="735" y="44" text-anchor="start" font-size="11" fill="#333">106332000000</text>
<text x="785" y="190" text-anchor="middle" font-size="12" fill="#333" transform="rotate(90 785 190)">bytes</text>
<polyline points="70,97 143,102 216,106 290,111 363,110 436,112 510,109 583,110 656,103 730,104" fill="none" stroke="#0072B2" stroke-width="2"/>
<polyline points="70,41 143,61 216,56 290,59 363,67 436,67 510,48 583,59 656,57 730,58" fill="none" stroke="#CC79A7" stroke-width="2"/>
<polyline points="70,340 143,340 216,340 290,340 363,340 436,340 510,340 583,340 656,340 730,340" fill="none" stroke="#D55E00" stroke-width="2"/>
<polyline points="70,306 143,307 216,307 290,308 363,308 436,308 510,307 583,307 656,307 730,307" fill="none" stroke="#009E73" stroke-width="2"/>
<polyline points="70,205 143,216 216,219 290,218 363,218 436,216 510,211 583,213 656,212 730,211" fill="none" stroke="#984EA3" stroke-width="2"/>
<polyline points="70,51 143,57 216,58 290,60 363,59 436,59 510,57 583,57 656,56 730,56" fill="none" stroke="#56B4E9" stroke-width="2"/>
<polyline points="70,41 143,51 216,51 290,52 363,53 436,54 510,48 583,49 656,48 730,49" fill="none" stroke="#E69F00" stroke-width="2"/>
<polyline points="70,339 143,339 216,339 290,339 363,339 436,339 510,339 583,339 656,338 730,339" fill="none" stroke="#C44E52" stroke-width="2"/>
<polyline points="70,300 143,301 216,302 290,302 363,302 436,301 510,301 583,301 656,301 730,301" fill="none" stroke="#8C564B" stroke-width="2"/>
<circle cx="70" cy="97" r="3" fill="#0072B2"/>
<circle cx="70" cy="41" r="3" fill="#CC79A7"/>
<circle cx="70" cy="340" r="3" fill="#D55E00"/>
<circle cx="70" cy="306" r="3" fill="#009E73"/>
<circle cx="70" cy="205" r="3" fill="#984EA3"/>
<circle cx="70" cy="51" r="3" fill="#56B4E9"/>
<circle cx="70" cy="41" r="3" fill="#E69F00"/>
<circle cx="70" cy="339" r="3" fill="#C44E52"/>
<circle cx="70" cy="300" r="3" fill="#8C564B"/>
<circle cx="143" cy="102" r="3" fill="#0072B2"/>
<circle cx="143" cy="61" r="3" fill="#CC79A7"/>
<circle cx="143" cy="340" r="3" fill="#D55E00"/>
<circle cx="143" cy="307" r="3" fill="#009E73"/>
<circle cx="143" cy="216" r="3" fill="#984EA3"/>
<circle cx="143" cy="57" r="3" fill="#56B4E9"/>
<circle cx="143" cy="51" r="3" fill="#E69F00"/>
<circle cx="143" cy="339" r="3" fill="#C44E52"/>
<circle cx="143" cy="301" r="3" fill="#8C564B"/>
<circle cx="216" cy="106" r="3" fill="#0072B2"/>
<circle cx="216" cy="56" r="3" fill="#CC79A7"/>
<circle cx="216" cy="340" r="3" fill="#D55E00"/>
<circle cx="216" cy="307" r="3" fill="#009E73"/>
<circle cx="216" cy="219" r="3" fill="#984EA3"/>
<circle cx="216" cy="58" r="3" fill="#56B4E9"/>
<circle cx="216" cy="51" r="3" fill="#E69F00"/>
<circle cx="216" cy="339" r="3" fill="#C44E52"/>
<circle cx="216" cy="302" r="3" fill="#8C564B"/>
<circle cx="290" cy="111" r="3" fill="#0072B2"/>
<circle cx="290" cy="59" r="3" fill="#CC79A7"/>
<circle cx="290" cy="340" r="3" fill="#D55E00"/>
<circle cx="290" cy="308" r="3" fill="#009E73"/>
<circle cx="290" cy="218" r="3" fill="#984EA3"/>
<circle cx="290" cy="60" r="3" fill="#56B4E9"/>
<circle cx="290" cy="52" r="3" fill="#E69F00"/>
<circle cx="290" cy="339" r="3" fill="#C44E52"/>
<circle cx="290" cy="302" r="3" fill="#8C564B"/>
<circle cx="363" cy="110" r="3" fill="#0072B2"/>
<circle cx="363" cy="67" r="3" fill="#CC79A7"/>
<circle cx="363" cy="340" r="3" fill="#D55E00"/>
<circle cx="363" cy="308" r="3" fill="#009E73"/>
<circle cx="363" cy="218" r="3" fill="#984EA3"/>
<circle cx="363" cy="59" r="3" fill="#56B4E9"/>
<circle cx="363" cy="53" r="3" fill="#E69F00"/>
<circle cx="363" cy="339" r="3" fill="#C44E52"/>
<circle cx="363" cy="302" r="3" fill="#8C564B"/>
<circle cx="436" cy="112" r="3" fill="#0072B2"/>
<circle cx="436" cy="67" r="3" fill="#CC79A7"/>
<circle cx="436" cy="340" r="3" fill="#D55E00"/>
<circle cx="436" cy="308" r="3" fill="#009E73"/>
<circle cx="436" cy="216" r="3" fill="#984EA3"/>
<circle cx="436" cy="59" r="3" fill="#56B4E9"/>
<circle cx="436" cy="54" r="3" fill="#E69F00"/>
<circle cx="436" cy="339" r="3" fill="#C44E52"/>
<circle cx="436" cy="301" r="3" fill="#8C564B"/>
<circle cx="510" cy="109" r="3" fill="#0072B2"/>
<circle cx="510" cy="48" r="3" fill="#CC79A7"/>
<circle cx="510" cy="340" r="3" fill="#D55E00"/>
<circle cx="510" cy="307" r="3" fill="#009E73"/>
<circle cx="510" cy="211" r="3" fill="#984EA3"/>
<circle cx="510" cy="57" r="3" fill="#56B4E9"/>
<circle cx="510" cy="48" r="3" fill="#E69F00"/>
<circle cx="510" cy="339" r="3" fill="#C44E52"/>
<circle cx="510" cy="301" r="3" fill="#8C564B"/>
<circle cx="583" cy="110" r="3" fill="#0072B2"/>
<circle cx="583" cy="59" r="3" fill="#CC79A7"/>
<circle cx="583" cy="340" r="3" fill="#D55E00"/>
<circle cx="583" cy="307" r="3" fill="#009E73"/>
<circle cx="583" cy="213" r="3" fill="#984EA3"/>
<circle cx="583" cy="57" r="3" fill="#56B4E9"/>
<circle cx="583" cy="49" r="3" fill="#E69F00"/>
<circle cx="583" cy="339" r="3" fill="#C44E52"/>
<circle cx="583" cy="301" r="3" fill="#8C564B"/>
<circle cx="656" cy="103" r="3" fill="#0072B2"/>
<circle cx="656" cy="57" r="3" fill="#CC79A7"/>
<circle cx="656" cy="340" r="3" fill="#D55E00"/>
<circle cx="656" cy="307" r="3" fill="#009E73"/>
<circle cx="656" cy="212" r="3" fill="#984EA3"/>
<circle cx="656" cy="56" r="3" fill="#56B4E9"/>
<circle cx="656" cy="48" r="3" fill="#E69F00"/>
<circle cx="656" cy="338" r="3" fill="#C44E52"/>
<circle cx="656" cy="301" r="3" fill="#8C564B"/>
<circle cx="730" cy="104" r="3" fill="#0072B2"/>
<circle cx="730" cy="58" r="3" fill="#CC79A7"/>
<circle cx="730" cy="340" r="3" fill="#D55E00"/>
<circle cx="730" cy="307" r="3" fill="#009E73"/>
<circle cx="730" cy="211" r="3" fill="#984EA3"/>
<circle cx="730" cy="56" r="3" fill="#56B4E9"/>
<circle cx="730" cy="49" r="3" fill="#E69F00"/>
<circle cx="730" cy="339" r="3" fill="#C44E52"/>
<circle cx="730" cy="301" r="3" fill="#8C564B"/>
<circle cx="70" cy="20" r="4" fill="#0072B2"/>
<text x="78" y="24" text-anchor="start" font-size="12" fill="#0072B2">inte</text>
<circle cx="130" cy="20" r="4" fill="#CC79A7"/>
<text x="138" y="24" text-anchor="start" font-size="12" fill="#CC79A7">comp</text>
<circle cx="195" cy="20" r="4" fill="#D55E00"/>
<text x="203" y="24" text-anchor="start" font-size="12" fill="#D55E00">run</text>
<circle cx="250" cy="20" r="4" fill="#009E73"/>
<text x="258" y="24" text-anchor="start" font-size="12" fill="#009E73">wall</text>
<circle cx="315" cy="20" r="4" fill="#984EA3"/>
<text x="323" y="24" text-anchor="start" font-size="12" fill="#984EA3">self</text>
<circle cx="380" cy="20" r="4" fill="#56B4E9"/>
<text x="388" y="24" text-anchor="start" font-size="12" fill="#56B4E9">mem-inte</text>
<circle cx="470" cy="20" r="4" fill="#E69F00"/>
<text x="478" y="24" text-anchor="start" font-size="12" fill="#E69F00">mem-comp</text>
<circle cx="565" cy="20" r="4" fill="#C44E52"/>
<text x="573" y="24" text-anchor="start" font-size="12" fill="#C44E52">mem-run</text>
<circle cx="650" cy="20" r="4" fill="#8C564B"/>
<text x="658" y="24" text-anchor="start" font-size="12" fill="#8C564B">self-mem</text>
</svg>
