<svg width="800" height="400" xmlns="http://www.w3.org/2000/svg">
<rect width="800" height="400" fill="white"/>
<line x1="70" y1="40" x2="70" y2="340" stroke="#333" stroke-width="1"/>
<line x1="70" y1="340" x2="730" y2="340" stroke="#333" stroke-width="1"/>
<line x1="730" y1="40" x2="730" y2="340" stroke="#333" stroke-width="1"/>
<text x="65" y="344" text-anchor="end" font-size="11" fill="#333">0</text>
<text x="65" y="194" text-anchor="end" font-size="11" fill="#333">67500</text>
<text x="65" y="44" text-anchor="end" font-size="11" fill="#333">135000</text>
<text x="15" y="190" text-anchor="middle" font-size="12" fill="#333" transform="rotate(-90 15 190)">ms</text>
<text x="735" y="344" text-anchor="start" font-size="11" fill="#333">0</text>
<text x="735" y="194" text-anchor="start" font-size="11" fill="#333">6396500000</text>
<text x="735" y="44" text-anchor="start" font-size="11" fill="#333">12793000000</text>
<text x="785" y="190" text-anchor="middle" font-size="12" fill="#333" transform="rotate(90 785 190)">bytes</text>
<polyline points="70,83 143,58 216,57 290,61 363,61 436,56 510,56 583,50 656,49 730,52" fill="none" stroke="#0072B2" stroke-width="2"/>
<polyline points="70,50 143,41 216,41 290,47 363,45 436,42 510,41 583,49 656,48 730,50" fill="none" stroke="#CC79A7" stroke-width="2"/>
<polyline points="70,340 143,340 216,340 290,340 363,340 436,340 510,339 583,340 656,340 730,340" fill="none" stroke="#D55E00" stroke-width="2"/>
<polyline points="70,305 143,303 216,303 290,304 363,304 436,303 510,303 583,284 656,216 730,216" fill="none" stroke="#009E73" stroke-width="2"/>
<polyline points="70,263 143,261 216,261 290,261 363,257 436,261 510,257 583,245 656,247 730,246" fill="none" stroke="#56B4E9" stroke-width="2"/>
<polyline points="70,198 143,198 216,197 290,198 363,198 436,198 510,198 583,195 656,194 730,195" fill="none" stroke="#E69F00" stroke-width="2"/>
<polyline points="70,340 143,340 216,340 290,340 363,340 436,340 510,340 583,340 656,340 730,340" fill="none" stroke="#C44E52" stroke-width="2"/>
<polyline points="70,62 143,59 216,59 290,60 363,56 436,60 510,56 583,41 656,42 730,42" fill="none" stroke="#000000" stroke-width="2"/>
<circle cx="70" cy="83" r="3" fill="#0072B2"/>
<circle cx="70" cy="50" r="3" fill="#CC79A7"/>
<circle cx="70" cy="340" r="3" fill="#D55E00"/>
<circle cx="70" cy="305" r="3" fill="#009E73"/>
<circle cx="70" cy="263" r="3" fill="#56B4E9"/>
<circle cx="70" cy="198" r="3" fill="#E69F00"/>
<circle cx="70" cy="340" r="3" fill="#C44E52"/>
<circle cx="70" cy="62" r="3" fill="#000000"/>
<circle cx="143" cy="58" r="3" fill="#0072B2"/>
<circle cx="143" cy="41" r="3" fill="#CC79A7"/>
<circle cx="143" cy="340" r="3" fill="#D55E00"/>
<circle cx="143" cy="303" r="3" fill="#009E73"/>
<circle cx="143" cy="261" r="3" fill="#56B4E9"/>
<circle cx="143" cy="198" r="3" fill="#E69F00"/>
<circle cx="143" cy="340" r="3" fill="#C44E52"/>
<circle cx="143" cy="59" r="3" fill="#000000"/>
<circle cx="216" cy="57" r="3" fill="#0072B2"/>
<circle cx="216" cy="41" r="3" fill="#CC79A7"/>
<circle cx="216" cy="340" r="3" fill="#D55E00"/>
<circle cx="216" cy="303" r="3" fill="#009E73"/>
<circle cx="216" cy="261" r="3" fill="#56B4E9"/>
<circle cx="216" cy="197" r="3" fill="#E69F00"/>
<circle cx="216" cy="340" r="3" fill="#C44E52"/>
<circle cx="216" cy="59" r="3" fill="#000000"/>
<circle cx="290" cy="61" r="3" fill="#0072B2"/>
<circle cx="290" cy="47" r="3" fill="#CC79A7"/>
<circle cx="290" cy="340" r="3" fill="#D55E00"/>
<circle cx="290" cy="304" r="3" fill="#009E73"/>
<circle cx="290" cy="261" r="3" fill="#56B4E9"/>
<circle cx="290" cy="198" r="3" fill="#E69F00"/>
<circle cx="290" cy="340" r="3" fill="#C44E52"/>
<circle cx="290" cy="60" r="3" fill="#000000"/>
<circle cx="363" cy="61" r="3" fill="#0072B2"/>
<circle cx="363" cy="45" r="3" fill="#CC79A7"/>
<circle cx="363" cy="340" r="3" fill="#D55E00"/>
<circle cx="363" cy="304" r="3" fill="#009E73"/>
<circle cx="363" cy="257" r="3" fill="#56B4E9"/>
<circle cx="363" cy="198" r="3" fill="#E69F00"/>
<circle cx="363" cy="340" r="3" fill="#C44E52"/>
<circle cx="363" cy="56" r="3" fill="#000000"/>
<circle cx="436" cy="56" r="3" fill="#0072B2"/>
<circle cx="436" cy="42" r="3" fill="#CC79A7"/>
<circle cx="436" cy="340" r="3" fill="#D55E00"/>
<circle cx="436" cy="303" r="3" fill="#009E73"/>
<circle cx="436" cy="261" r="3" fill="#56B4E9"/>
<circle cx="436" cy="198" r="3" fill="#E69F00"/>
<circle cx="436" cy="340" r="3" fill="#C44E52"/>
<circle cx="436" cy="60" r="3" fill="#000000"/>
<circle cx="510" cy="56" r="3" fill="#0072B2"/>
<circle cx="510" cy="41" r="3" fill="#CC79A7"/>
<circle cx="510" cy="339" r="3" fill="#D55E00"/>
<circle cx="510" cy="303" r="3" fill="#009E73"/>
<circle cx="510" cy="257" r="3" fill="#56B4E9"/>
<circle cx="510" cy="198" r="3" fill="#E69F00"/>
<circle cx="510" cy="340" r="3" fill="#C44E52"/>
<circle cx="510" cy="56" r="3" fill="#000000"/>
<circle cx="583" cy="50" r="3" fill="#0072B2"/>
<circle cx="583" cy="49" r="3" fill="#CC79A7"/>
<circle cx="583" cy="340" r="3" fill="#D55E00"/>
<circle cx="583" cy="284" r="3" fill="#009E73"/>
<circle cx="583" cy="245" r="3" fill="#56B4E9"/>
<circle cx="583" cy="195" r="3" fill="#E69F00"/>
<circle cx="583" cy="340" r="3" fill="#C44E52"/>
<circle cx="583" cy="41" r="3" fill="#000000"/>
<circle cx="656" cy="49" r="3" fill="#0072B2"/>
<circle cx="656" cy="48" r="3" fill="#CC79A7"/>
<circle cx="656" cy="340" r="3" fill="#D55E00"/>
<circle cx="656" cy="216" r="3" fill="#009E73"/>
<circle cx="656" cy="247" r="3" fill="#56B4E9"/>
<circle cx="656" cy="194" r="3" fill="#E69F00"/>
<circle cx="656" cy="340" r="3" fill="#C44E52"/>
<circle cx="656" cy="42" r="3" fill="#000000"/>
<circle cx="730" cy="52" r="3" fill="#0072B2"/>
<circle cx="730" cy="50" r="3" fill="#CC79A7"/>
<circle cx="730" cy="340" r="3" fill="#D55E00"/>
<circle cx="730" cy="216" r="3" fill="#009E73"/>
<circle cx="730" cy="246" r="3" fill="#56B4E9"/>
<circle cx="730" cy="195" r="3" fill="#E69F00"/>
<circle cx="730" cy="340" r="3" fill="#C44E52"/>
<circle cx="730" cy="42" r="3" fill="#000000"/>
<circle cx="90" cy="20" r="4" fill="#0072B2"/>
<text x="98" y="24" text-anchor="start" font-size="12" fill="#0072B2">inte</text>
<circle cx="150" cy="20" r="4" fill="#CC79A7"/>
<text x="158" y="24" text-anchor="start" font-size="12" fill="#CC79A7">comp</text>
<circle cx="215" cy="20" r="4" fill="#D55E00"/>
<text x="223" y="24" text-anchor="start" font-size="12" fill="#D55E00">run</text>
<circle cx="270" cy="20" r="4" fill="#009E73"/>
<text x="278" y="24" text-anchor="start" font-size="12" fill="#009E73">wall</text>
<circle cx="335" cy="20" r="4" fill="#56B4E9"/>
<text x="343" y="24" text-anchor="start" font-size="12" fill="#56B4E9">mem-inte</text>
<circle cx="425" cy="20" r="4" fill="#E69F00"/>
<text x="433" y="24" text-anchor="start" font-size="12" fill="#E69F00">mem-comp</text>
<circle cx="520" cy="20" r="4" fill="#C44E52"/>
<text x="528" y="24" text-anchor="start" font-size="12" fill="#C44E52">mem-run</text>
<circle cx="605" cy="20" r="4" fill="#000000"/>
<text x="613" y="24" text-anchor="start" font-size="12" fill="#000000">mem-total</text>
</svg>
