<svg width="800" height="400" xmlns="http://www.w3.org/2000/svg">
<rect width="800" height="400" fill="white"/>
<line x1="70" y1="40" x2="70" y2="340" stroke="#333" stroke-width="1"/>
<line x1="70" y1="340" x2="730" y2="340" stroke="#333" stroke-width="1"/>
<line x1="730" y1="40" x2="730" y2="340" stroke="#333" stroke-width="1"/>
<text x="65" y="344" text-anchor="end" font-size="11" fill="#333">0</text>
<text x="65" y="194" text-anchor="end" font-size="11" fill="#333">84000</text>
<text x="65" y="44" text-anchor="end" font-size="11" fill="#333">168000</text>
<text x="15" y="190" text-anchor="middle" font-size="12" fill="#333" transform="rotate(-90 15 190)">ms</text>
<text x="735" y="344" text-anchor="start" font-size="11" fill="#333">0</text>
<text x="735" y="194" text-anchor="start" font-size="11" fill="#333">6318000000</text>
<text x="735" y="44" text-anchor="start" font-size="11" fill="#333">12636000000</text>
<text x="785" y="190" text-anchor="middle" font-size="12" fill="#333" transform="rotate(90 785 190)">bytes</text>
<polyline points="70,117 143,88 216,89 290,156 363,157 436,173 510,175 583,155 656,172 730,124" fill="none" stroke="#0072B2" stroke-width="2"/>
<polyline points="70,97 143,65 216,65 290,138 363,137 436,155 510,158 583,137 656,155 730,42" fill="none" stroke="#CC79A7" stroke-width="2"/>
<polyline points="70,340 143,340 216,340 290,340 363,340 436,340 510,340 583,340 656,340 730,339" fill="none" stroke="#D55E00" stroke-width="2"/>
<polyline points="70,123 143,92 216,95 290,160 363,160 436,176 510,177 583,161 656,173 730,276" fill="none" stroke="#009E73" stroke-width="2"/>
<polyline points="70,255 143,255 216,257 290,257 363,257 436,280 510,281 583,281 656,281 730,277" fill="none" stroke="#56B4E9" stroke-width="2"/>
<polyline points="70,209 143,210 216,216 290,215 363,212 436,236 510,239 583,239 656,239 730,214" fill="none" stroke="#E69F00" stroke-width="2"/>
<polyline points="70,340 143,340 216,340 290,340 363,340 436,340 510,340 583,340 656,340 730,337" fill="none" stroke="#C44E52" stroke-width="2"/>
<polyline points="70,78 143,80 216,88 290,86 363,84 436,135 510,139 583,139 656,141 730,41" fill="none" stroke="#000000" stroke-width="2"/>
<circle cx="70" cy="117" r="3" fill="#0072B2"/>
<circle cx="70" cy="97" r="3" fill="#CC79A7"/>
<circle cx="70" cy="340" r="3" fill="#D55E00"/>
<circle cx="70" cy="123" r="3" fill="#009E73"/>
<circle cx="70" cy="255" r="3" fill="#56B4E9"/>
<circle cx="70" cy="209" r="3" fill="#E69F00"/>
<circle cx="70" cy="340" r="3" fill="#C44E52"/>
<circle cx="70" cy="78" r="3" fill="#000000"/>
<circle cx="143" cy="88" r="3" fill="#0072B2"/>
<circle cx="143" cy="65" r="3" fill="#CC79A7"/>
<circle cx="143" cy="340" r="3" fill="#D55E00"/>
<circle cx="143" cy="92" r="3" fill="#009E73"/>
<circle cx="143" cy="255" r="3" fill="#56B4E9"/>
<circle cx="143" cy="210" r="3" fill="#E69F00"/>
<circle cx="143" cy="340" r="3" fill="#C44E52"/>
<circle cx="143" cy="80" r="3" fill="#000000"/>
<circle cx="216" cy="89" r="3" fill="#0072B2"/>
<circle cx="216" cy="65" r="3" fill="#CC79A7"/>
<circle cx="216" cy="340" r="3" fill="#D55E00"/>
<circle cx="216" cy="95" r="3" fill="#009E73"/>
<circle cx="216" cy="257" r="3" fill="#56B4E9"/>
<circle cx="216" cy="216" r="3" fill="#E69F00"/>
<circle cx="216" cy="340" r="3" fill="#C44E52"/>
<circle cx="216" cy="88" r="3" fill="#000000"/>
<circle cx="290" cy="156" r="3" fill="#0072B2"/>
<circle cx="290" cy="138" r="3" fill="#CC79A7"/>
<circle cx="290" cy="340" r="3" fill="#D55E00"/>
<circle cx="290" cy="160" r="3" fill="#009E73"/>
<circle cx="290" cy="257" r="3" fill="#56B4E9"/>
<circle cx="290" cy="215" r="3" fill="#E69F00"/>
<circle cx="290" cy="340" r="3" fill="#C44E52"/>
<circle cx="290" cy="86" r="3" fill="#000000"/>
<circle cx="363" cy="157" r="3" fill="#0072B2"/>
<circle cx="363" cy="137" r="3" fill="#CC79A7"/>
<circle cx="363" cy="340" r="3" fill="#D55E00"/>
<circle cx="363" cy="160" r="3" fill="#009E73"/>
<circle cx="363" cy="257" r="3" fill="#56B4E9"/>
<circle cx="363" cy="212" r="3" fill="#E69F00"/>
<circle cx="363" cy="340" r="3" fill="#C44E52"/>
<circle cx="363" cy="84" r="3" fill="#000000"/>
<circle cx="436" cy="173" r="3" fill="#0072B2"/>
<circle cx="436" cy="155" r="3" fill="#CC79A7"/>
<circle cx="436" cy="340" r="3" fill="#D55E00"/>
<circle cx="436" cy="176" r="3" fill="#009E73"/>
<circle cx="436" cy="280" r="3" fill="#56B4E9"/>
<circle cx="436" cy="236" r="3" fill="#E69F00"/>
<circle cx="436" cy="340" r="3" fill="#C44E52"/>
<circle cx="436" cy="135" r="3" fill="#000000"/>
<circle cx="510" cy="175" r="3" fill="#0072B2"/>
<circle cx="510" cy="158" r="3" fill="#CC79A7"/>
<circle cx="510" cy="340" r="3" fill="#D55E00"/>
<circle cx="510" cy="177" r="3" fill="#009E73"/>
<circle cx="510" cy="281" r="3" fill="#56B4E9"/>
<circle cx="510" cy="239" r="3" fill="#E69F00"/>
<circle cx="510" cy="340" r="3" fill="#C44E52"/>
<circle cx="510" cy="139" r="3" fill="#000000"/>
<circle cx="583" cy="155" r="3" fill="#0072B2"/>
<circle cx="583" cy="137" r="3" fill="#CC79A7"/>
<circle cx="583" cy="340" r="3" fill="#D55E00"/>
<circle cx="583" cy="161" r="3" fill="#009E73"/>
<circle cx="583" cy="281" r="3" fill="#56B4E9"/>
<circle cx="583" cy="239" r="3" fill="#E69F00"/>
<circle cx="583" cy="340" r="3" fill="#C44E52"/>
<circle cx="583" cy="139" r="3" fill="#000000"/>
<circle cx="656" cy="172" r="3" fill="#0072B2"/>
<circle cx="656" cy="155" r="3" fill="#CC79A7"/>
<circle cx="656" cy="340" r="3" fill="#D55E00"/>
<circle cx="656" cy="173" r="3" fill="#009E73"/>
<circle cx="656" cy="281" r="3" fill="#56B4E9"/>
<circle cx="656" cy="239" r="3" fill="#E69F00"/>
<circle cx="656" cy="340" r="3" fill="#C44E52"/>
<circle cx="656" cy="141" r="3" fill="#000000"/>
<circle cx="730" cy="124" r="3" fill="#0072B2"/>
<circle cx="730" cy="42" r="3" fill="#CC79A7"/>
<circle cx="730" cy="339" r="3" fill="#D55E00"/>
<circle cx="730" cy="276" r="3" fill="#009E73"/>
<circle cx="730" cy="277" r="3" fill="#56B4E9"/>
<circle cx="730" cy="214" r="3" fill="#E69F00"/>
<circle cx="730" cy="337" r="3" fill="#C44E52"/>
<circle cx="730" cy="41" r="3" fill="#000000"/>
<circle cx="90" cy="20" r="4" fill="#0072B2"/>
<text x="98" y="24" text-anchor="start" font-size="12" fill="#0072B2">inte</text>
<circle cx="150" cy="20" r="4" fill="#CC79A7"/>
<text x="158" y="24" text-anchor="start" font-size="12" fill="#CC79A7">comp</text>
<circle cx="215" cy="20" r="4" fill="#D55E00"/>
<text x="223" y="24" text-anchor="start" font-size="12" fill="#D55E00">run</text>
<circle cx="270" cy="20" r="4" fill="#009E73"/>
<text x="278" y="24" text-anchor="start" font-size="12" fill="#009E73">wall</text>
<circle cx="335" cy="20" r="4" fill="#56B4E9"/>
<text x="343" y="24" text-anchor="start" font-size="12" fill="#56B4E9">mem-inte</text>
<circle cx="425" cy="20" r="4" fill="#E69F00"/>
<text x="433" y="24" text-anchor="start" font-size="12" fill="#E69F00">mem-comp</text>
<circle cx="520" cy="20" r="4" fill="#C44E52"/>
<text x="528" y="24" text-anchor="start" font-size="12" fill="#C44E52">mem-run</text>
<circle cx="605" cy="20" r="4" fill="#000000"/>
<text x="613" y="24" text-anchor="start" font-size="12" fill="#000000">mem-total</text>
</svg>
