<svg width="800" height="400" xmlns="http://www.w3.org/2000/svg">
<rect width="800" height="400" fill="white"/>
<line x1="70" y1="40" x2="70" y2="340" stroke="#333" stroke-width="1"/>
<line x1="70" y1="340" x2="730" y2="340" stroke="#333" stroke-width="1"/>
<line x1="730" y1="40" x2="730" y2="340" stroke="#333" stroke-width="1"/>
<text x="65" y="344" text-anchor="end" font-size="11" fill="#333">0</text>
<text x="65" y="194" text-anchor="end" font-size="11" fill="#333">63500</text>
<text x="65" y="44" text-anchor="end" font-size="11" fill="#333">127000</text>
<text x="15" y="190" text-anchor="middle" font-size="12" fill="#333" transform="rotate(-90 15 190)">ms</text>
<text x="735" y="344" text-anchor="start" font-size="11" fill="#333">0</text>
<text x="735" y="194" text-anchor="start" font-size="11" fill="#333">7501000000</text>
<text x="735" y="44" text-anchor="start" font-size="11" fill="#333">15002000000</text>
<text x="785" y="190" text-anchor="middle" font-size="12" fill="#333" transform="rotate(90 785 190)">bytes</text>
<polyline points="70,56 143,56 216,59 290,55 363,56 436,58 510,58 583,62 656,58 730,49" fill="none" stroke="#0072B2" stroke-width="2"/>
<polyline points="70,47 143,51 216,48 290,49 363,48 436,51 510,48 583,55 656,50 730,41" fill="none" stroke="#CC79A7" stroke-width="2"/>
<polyline points="70,340 143,340 216,340 290,340 363,340 436,340 510,340 583,340 656,340 730,340" fill="none" stroke="#D55E00" stroke-width="2"/>
<polyline points="70,302 143,302 216,302 290,301 363,301 436,301 510,301 583,302 656,302 730,300" fill="none" stroke="#009E73" stroke-width="2"/>
<polyline points="70,251 143,248 216,251 290,243 363,248 436,246 510,248 583,248 656,248 730,234" fill="none" stroke="#56B4E9" stroke-width="2"/>
<polyline points="70,213 143,208 216,212 290,208 363,214 436,214 510,213 583,215 656,211 730,198" fill="none" stroke="#E69F00" stroke-width="2"/>
<polyline points="70,340 143,340 216,340 290,340 363,340 436,340 510,340 583,340 656,340 730,340" fill="none" stroke="#C44E52" stroke-width="2"/>
<polyline points="70,72 143,65 216,72 290,61 363,72 436,69 510,70 583,73 656,69 730,41" fill="none" stroke="#000000" stroke-width="2"/>
<circle cx="70" cy="56" r="3" fill="#0072B2"/>
<circle cx="70" cy="47" r="3" fill="#CC79A7"/>
<circle cx="70" cy="340" r="3" fill="#D55E00"/>
<circle cx="70" cy="302" r="3" fill="#009E73"/>
<circle cx="70" cy="251" r="3" fill="#56B4E9"/>
<circle cx="70" cy="213" r="3" fill="#E69F00"/>
<circle cx="70" cy="340" r="3" fill="#C44E52"/>
<circle cx="70" cy="72" r="3" fill="#000000"/>
<circle cx="143" cy="56" r="3" fill="#0072B2"/>
<circle cx="143" cy="51" r="3" fill="#CC79A7"/>
<circle cx="143" cy="340" r="3" fill="#D55E00"/>
<circle cx="143" cy="302" r="3" fill="#009E73"/>
<circle cx="143" cy="248" r="3" fill="#56B4E9"/>
<circle cx="143" cy="208" r="3" fill="#E69F00"/>
<circle cx="143" cy="340" r="3" fill="#C44E52"/>
<circle cx="143" cy="65" r="3" fill="#000000"/>
<circle cx="216" cy="59" r="3" fill="#0072B2"/>
<circle cx="216" cy="48" r="3" fill="#CC79A7"/>
<circle cx="216" cy="340" r="3" fill="#D55E00"/>
<circle cx="216" cy="302" r="3" fill="#009E73"/>
<circle cx="216" cy="251" r="3" fill="#56B4E9"/>
<circle cx="216" cy="212" r="3" fill="#E69F00"/>
<circle cx="216" cy="340" r="3" fill="#C44E52"/>
<circle cx="216" cy="72" r="3" fill="#000000"/>
<circle cx="290" cy="55" r="3" fill="#0072B2"/>
<circle cx="290" cy="49" r="3" fill="#CC79A7"/>
<circle cx="290" cy="340" r="3" fill="#D55E00"/>
<circle cx="290" cy="301" r="3" fill="#009E73"/>
<circle cx="290" cy="243" r="3" fill="#56B4E9"/>
<circle cx="290" cy="208" r="3" fill="#E69F00"/>
<circle cx="290" cy="340" r="3" fill="#C44E52"/>
<circle cx="290" cy="61" r="3" fill="#000000"/>
<circle cx="363" cy="56" r="3" fill="#0072B2"/>
<circle cx="363" cy="48" r="3" fill="#CC79A7"/>
<circle cx="363" cy="340" r="3" fill="#D55E00"/>
<circle cx="363" cy="301" r="3" fill="#009E73"/>
<circle cx="363" cy="248" r="3" fill="#56B4E9"/>
<circle cx="363" cy="214" r="3" fill="#E69F00"/>
<circle cx="363" cy="340" r="3" fill="#C44E52"/>
<circle cx="363" cy="72" r="3" fill="#000000"/>
<circle cx="436" cy="58" r="3" fill="#0072B2"/>
<circle cx="436" cy="51" r="3" fill="#CC79A7"/>
<circle cx="436" cy="340" r="3" fill="#D55E00"/>
<circle cx="436" cy="301" r="3" fill="#009E73"/>
<circle cx="436" cy="246" r="3" fill="#56B4E9"/>
<circle cx="436" cy="214" r="3" fill="#E69F00"/>
<circle cx="436" cy="340" r="3" fill="#C44E52"/>
<circle cx="436" cy="69" r="3" fill="#000000"/>
<circle cx="510" cy="58" r="3" fill="#0072B2"/>
<circle cx="510" cy="48" r="3" fill="#CC79A7"/>
<circle cx="510" cy="340" r="3" fill="#D55E00"/>
<circle cx="510" cy="301" r="3" fill="#009E73"/>
<circle cx="510" cy="248" r="3" fill="#56B4E9"/>
<circle cx="510" cy="213" r="3" fill="#E69F00"/>
<circle cx="510" cy="340" r="3" fill="#C44E52"/>
<circle cx="510" cy="70" r="3" fill="#000000"/>
<circle cx="583" cy="62" r="3" fill="#0072B2"/>
<circle cx="583" cy="55" r="3" fill="#CC79A7"/>
<circle cx="583" cy="340" r="3" fill="#D55E00"/>
<circle cx="583" cy="302" r="3" fill="#009E73"/>
<circle cx="583" cy="248" r="3" fill="#56B4E9"/>
<circle cx="583" cy="215" r="3" fill="#E69F00"/>
<circle cx="583" cy="340" r="3" fill="#C44E52"/>
<circle cx="583" cy="73" r="3" fill="#000000"/>
<circle cx="656" cy="58" r="3" fill="#0072B2"/>
<circle cx="656" cy="50" r="3" fill="#CC79A7"/>
<circle cx="656" cy="340" r="3" fill="#D55E00"/>
<circle cx="656" cy="302" r="3" fill="#009E73"/>
<circle cx="656" cy="248" r="3" fill="#56B4E9"/>
<circle cx="656" cy="211" r="3" fill="#E69F00"/>
<circle cx="656" cy="340" r="3" fill="#C44E52"/>
<circle cx="656" cy="69" r="3" fill="#000000"/>
<circle cx="730" cy="49" r="3" fill="#0072B2"/>
<circle cx="730" cy="41" r="3" fill="#CC79A7"/>
<circle cx="730" cy="340" r="3" fill="#D55E00"/>
<circle cx="730" cy="300" r="3" fill="#009E73"/>
<circle cx="730" cy="234" r="3" fill="#56B4E9"/>
<circle cx="730" cy="198" r="3" fill="#E69F00"/>
<circle cx="730" cy="340" r="3" fill="#C44E52"/>
<circle cx="730" cy="41" r="3" fill="#000000"/>
<circle cx="90" cy="20" r="4" fill="#0072B2"/>
<text x="98" y="24" text-anchor="start" font-size="12" fill="#0072B2">inte</text>
<circle cx="150" cy="20" r="4" fill="#CC79A7"/>
<text x="158" y="24" text-anchor="start" font-size="12" fill="#CC79A7">comp</text>
<circle cx="215" cy="20" r="4" fill="#D55E00"/>
<text x="223" y="24" text-anchor="start" font-size="12" fill="#D55E00">run</text>
<circle cx="270" cy="20" r="4" fill="#009E73"/>
<text x="278" y="24" text-anchor="start" font-size="12" fill="#009E73">wall</text>
<circle cx="335" cy="20" r="4" fill="#56B4E9"/>
<text x="343" y="24" text-anchor="start" font-size="12" fill="#56B4E9">mem-inte</text>
<circle cx="425" cy="20" r="4" fill="#E69F00"/>
<text x="433" y="24" text-anchor="start" font-size="12" fill="#E69F00">mem-comp</text>
<circle cx="520" cy="20" r="4" fill="#C44E52"/>
<text x="528" y="24" text-anchor="start" font-size="12" fill="#C44E52">mem-run</text>
<circle cx="605" cy="20" r="4" fill="#000000"/>
<text x="613" y="24" text-anchor="start" font-size="12" fill="#000000">mem-total</text>
</svg>
