<svg width="800" height="400" xmlns="http://www.w3.org/2000/svg">
<rect width="800" height="400" fill="white"/>
<line x1="70" y1="40" x2="70" y2="340" stroke="#333" stroke-width="1"/>
<line x1="70" y1="340" x2="730" y2="340" stroke="#333" stroke-width="1"/>
<line x1="730" y1="40" x2="730" y2="340" stroke="#333" stroke-width="1"/>
<text x="65" y="344" text-anchor="end" font-size="11" fill="#333">0</text>
<text x="65" y="194" text-anchor="end" font-size="11" fill="#333">107500</text>
<text x="65" y="44" text-anchor="end" font-size="11" fill="#333">215000</text>
<text x="15" y="190" text-anchor="middle" font-size="12" fill="#333" transform="rotate(-90 15 190)">ms</text>
<text x="735" y="344" text-anchor="start" font-size="11" fill="#333">0</text>
<text x="735" y="194" text-anchor="start" font-size="11" fill="#333">10674500000</text>
<text x="735" y="44" text-anchor="start" font-size="11" fill="#333">21349000000</text>
<text x="785" y="190" text-anchor="middle" font-size="12" fill="#333" transform="rotate(90 785 190)">bytes</text>
<polyline points="70,142 143,144 216,143 290,141 363,143 436,142 510,147 583,162 656,160 730,160" fill="none" stroke="#0072B2" stroke-width="2"/>
<polyline points="70,48 143,47 216,43 290,44 363,41 436,45 510,52 583,64 656,59 730,66" fill="none" stroke="#CC79A7" stroke-width="2"/>
<polyline points="70,340 143,340 216,340 290,340 363,339 436,340 510,340 583,340 656,340 730,340" fill="none" stroke="#D55E00" stroke-width="2"/>
<polyline points="70,308 143,307 216,308 290,307 363,306 436,307 510,307 583,309 656,309 730,310" fill="none" stroke="#009E73" stroke-width="2"/>
<polyline points="70,340 143,340 216,340 290,207 363,200 436,204 510,210 583,225 656,233 730,233" fill="none" stroke="#984EA3" stroke-width="2"/>
<polyline points="70,297 143,297 216,297 290,297 363,297 436,297 510,297 583,297 656,296 730,296" fill="none" stroke="#56B4E9" stroke-width="2"/>
<polyline points="70,190 143,190 216,190 290,190 363,190 436,190 510,190 583,190 656,187 730,187" fill="none" stroke="#E69F00" stroke-width="2"/>
<polyline points="70,340 143,340 216,340 290,339 363,339 436,339 510,340 583,339 656,339 730,340" fill="none" stroke="#C44E52" stroke-width="2"/>
<polyline points="70,45 143,44 216,44 290,44 363,44 436,45 510,44 583,44 656,41 730,41" fill="none" stroke="#000000" stroke-width="2"/>
<circle cx="70" cy="142" r="3" fill="#0072B2"/>
<circle cx="70" cy="48" r="3" fill="#CC79A7"/>
<circle cx="70" cy="340" r="3" fill="#D55E00"/>
<circle cx="70" cy="308" r="3" fill="#009E73"/>
<circle cx="70" cy="340" r="3" fill="#984EA3"/>
<circle cx="70" cy="297" r="3" fill="#56B4E9"/>
<circle cx="70" cy="190" r="3" fill="#E69F00"/>
<circle cx="70" cy="340" r="3" fill="#C44E52"/>
<circle cx="70" cy="45" r="3" fill="#000000"/>
<circle cx="143" cy="144" r="3" fill="#0072B2"/>
<circle cx="143" cy="47" r="3" fill="#CC79A7"/>
<circle cx="143" cy="340" r="3" fill="#D55E00"/>
<circle cx="143" cy="307" r="3" fill="#009E73"/>
<circle cx="143" cy="340" r="3" fill="#984EA3"/>
<circle cx="143" cy="297" r="3" fill="#56B4E9"/>
<circle cx="143" cy="190" r="3" fill="#E69F00"/>
<circle cx="143" cy="340" r="3" fill="#C44E52"/>
<circle cx="143" cy="44" r="3" fill="#000000"/>
<circle cx="216" cy="143" r="3" fill="#0072B2"/>
<circle cx="216" cy="43" r="3" fill="#CC79A7"/>
<circle cx="216" cy="340" r="3" fill="#D55E00"/>
<circle cx="216" cy="308" r="3" fill="#009E73"/>
<circle cx="216" cy="340" r="3" fill="#984EA3"/>
<circle cx="216" cy="297" r="3" fill="#56B4E9"/>
<circle cx="216" cy="190" r="3" fill="#E69F00"/>
<circle cx="216" cy="340" r="3" fill="#C44E52"/>
<circle cx="216" cy="44" r="3" fill="#000000"/>
<circle cx="290" cy="141" r="3" fill="#0072B2"/>
<circle cx="290" cy="44" r="3" fill="#CC79A7"/>
<circle cx="290" cy="340" r="3" fill="#D55E00"/>
<circle cx="290" cy="307" r="3" fill="#009E73"/>
<circle cx="290" cy="207" r="3" fill="#984EA3"/>
<circle cx="290" cy="297" r="3" fill="#56B4E9"/>
<circle cx="290" cy="190" r="3" fill="#E69F00"/>
<circle cx="290" cy="339" r="3" fill="#C44E52"/>
<circle cx="290" cy="44" r="3" fill="#000000"/>
<circle cx="363" cy="143" r="3" fill="#0072B2"/>
<circle cx="363" cy="41" r="3" fill="#CC79A7"/>
<circle cx="363" cy="339" r="3" fill="#D55E00"/>
<circle cx="363" cy="306" r="3" fill="#009E73"/>
<circle cx="363" cy="200" r="3" fill="#984EA3"/>
<circle cx="363" cy="297" r="3" fill="#56B4E9"/>
<circle cx="363" cy="190" r="3" fill="#E69F00"/>
<circle cx="363" cy="339" r="3" fill="#C44E52"/>
<circle cx="363" cy="44" r="3" fill="#000000"/>
<circle cx="436" cy="142" r="3" fill="#0072B2"/>
<circle cx="436" cy="45" r="3" fill="#CC79A7"/>
<circle cx="436" cy="340" r="3" fill="#D55E00"/>
<circle cx="436" cy="307" r="3" fill="#009E73"/>
<circle cx="436" cy="204" r="3" fill="#984EA3"/>
<circle cx="436" cy="297" r="3" fill="#56B4E9"/>
<circle cx="436" cy="190" r="3" fill="#E69F00"/>
<circle cx="436" cy="339" r="3" fill="#C44E52"/>
<circle cx="436" cy="45" r="3" fill="#000000"/>
<circle cx="510" cy="147" r="3" fill="#0072B2"/>
<circle cx="510" cy="52" r="3" fill="#CC79A7"/>
<circle cx="510" cy="340" r="3" fill="#D55E00"/>
<circle cx="510" cy="307" r="3" fill="#009E73"/>
<circle cx="510" cy="210" r="3" fill="#984EA3"/>
<circle cx="510" cy="297" r="3" fill="#56B4E9"/>
<circle cx="510" cy="190" r="3" fill="#E69F00"/>
<circle cx="510" cy="340" r="3" fill="#C44E52"/>
<circle cx="510" cy="44" r="3" fill="#000000"/>
<circle cx="583" cy="162" r="3" fill="#0072B2"/>
<circle cx="583" cy="64" r="3" fill="#CC79A7"/>
<circle cx="583" cy="340" r="3" fill="#D55E00"/>
<circle cx="583" cy="309" r="3" fill="#009E73"/>
<circle cx="583" cy="225" r="3" fill="#984EA3"/>
<circle cx="583" cy="297" r="3" fill="#56B4E9"/>
<circle cx="583" cy="190" r="3" fill="#E69F00"/>
<circle cx="583" cy="339" r="3" fill="#C44E52"/>
<circle cx="583" cy="44" r="3" fill="#000000"/>
<circle cx="656" cy="160" r="3" fill="#0072B2"/>
<circle cx="656" cy="59" r="3" fill="#CC79A7"/>
<circle cx="656" cy="340" r="3" fill="#D55E00"/>
<circle cx="656" cy="309" r="3" fill="#009E73"/>
<circle cx="656" cy="233" r="3" fill="#984EA3"/>
<circle cx="656" cy="296" r="3" fill="#56B4E9"/>
<circle cx="656" cy="187" r="3" fill="#E69F00"/>
<circle cx="656" cy="339" r="3" fill="#C44E52"/>
<circle cx="656" cy="41" r="3" fill="#000000"/>
<circle cx="730" cy="160" r="3" fill="#0072B2"/>
<circle cx="730" cy="66" r="3" fill="#CC79A7"/>
<circle cx="730" cy="340" r="3" fill="#D55E00"/>
<circle cx="730" cy="310" r="3" fill="#009E73"/>
<circle cx="730" cy="233" r="3" fill="#984EA3"/>
<circle cx="730" cy="296" r="3" fill="#56B4E9"/>
<circle cx="730" cy="187" r="3" fill="#E69F00"/>
<circle cx="730" cy="340" r="3" fill="#C44E52"/>
<circle cx="730" cy="41" r="3" fill="#000000"/>
<circle cx="90" cy="20" r="4" fill="#0072B2"/>
<text x="98" y="24" text-anchor="start" font-size="12" fill="#0072B2">inte</text>
<circle cx="150" cy="20" r="4" fill="#CC79A7"/>
<text x="158" y="24" text-anchor="start" font-size="12" fill="#CC79A7">comp</text>
<circle cx="215" cy="20" r="4" fill="#D55E00"/>
<text x="223" y="24" text-anchor="start" font-size="12" fill="#D55E00">run</text>
<circle cx="270" cy="20" r="4" fill="#009E73"/>
<text x="278" y="24" text-anchor="start" font-size="12" fill="#009E73">wall</text>
<circle cx="335" cy="20" r="4" fill="#984EA3"/>
<text x="343" y="24" text-anchor="start" font-size="12" fill="#984EA3">self</text>
<circle cx="400" cy="20" r="4" fill="#56B4E9"/>
<text x="408" y="24" text-anchor="start" font-size="12" fill="#56B4E9">mem-inte</text>
<circle cx="490" cy="20" r="4" fill="#E69F00"/>
<text x="498" y="24" text-anchor="start" font-size="12" fill="#E69F00">mem-comp</text>
<circle cx="585" cy="20" r="4" fill="#C44E52"/>
<text x="593" y="24" text-anchor="start" font-size="12" fill="#C44E52">mem-run</text>
<circle cx="670" cy="20" r="4" fill="#000000"/>
<text x="678" y="24" text-anchor="start" font-size="12" fill="#000000">mem-total</text>
</svg>
