<svg width="800" height="400" xmlns="http://www.w3.org/2000/svg">
<rect width="800" height="400" fill="white"/>
<line x1="70" y1="40" x2="70" y2="340" stroke="#333" stroke-width="1"/>
<line x1="70" y1="340" x2="730" y2="340" stroke="#333" stroke-width="1"/>
<line x1="730" y1="40" x2="730" y2="340" stroke="#333" stroke-width="1"/>
<text x="65" y="344" text-anchor="end" font-size="11" fill="#333">0</text>
<text x="65" y="194" text-anchor="end" font-size="11" fill="#333">211500</text>
<text x="65" y="44" text-anchor="end" font-size="11" fill="#333">423000</text>
<text x="15" y="190" text-anchor="middle" font-size="12" fill="#333" transform="rotate(-90 15 190)">ms</text>
<text x="735" y="344" text-anchor="start" font-size="11" fill="#333">0</text>
<text x="735" y="194" text-anchor="start" font-size="11" fill="#333">35930000000</text>
<text x="735" y="44" text-anchor="start" font-size="11" fill="#333">71860000000</text>
<text x="785" y="190" text-anchor="middle" font-size="12" fill="#333" transform="rotate(90 785 190)">bytes</text>
<polyline points="70,41 143,45 216,46 290,47 363,48 436,50 510,53 583,47 656,48 730,55" fill="none" stroke="#0072B2" stroke-width="2"/>
<polyline points="70,87 143,91 216,94 290,84 363,87 436,92 510,90 583,93 656,92 730,97" fill="none" stroke="#CC79A7" stroke-width="2"/>
<polyline points="70,340 143,340 216,340 290,340 363,340 436,340 510,340 583,340 656,340 730,340" fill="none" stroke="#D55E00" stroke-width="2"/>
<polyline points="70,294 143,294 216,295 290,295 363,295 436,296 510,297 583,296 656,296 730,296" fill="none" stroke="#009E73" stroke-width="2"/>
<polyline points="70,268 143,268 216,267 290,267 363,267 436,268 510,268 583,269 656,268 730,269" fill="none" stroke="#984EA3" stroke-width="2"/>
<polyline points="70,41 143,41 216,41 290,48 363,48 436,48 510,48 583,48 656,49 730,49" fill="none" stroke="#56B4E9" stroke-width="2"/>
<polyline points="70,48 143,48 216,48 290,55 363,55 436,55 510,55 583,55 656,55 730,55" fill="none" stroke="#E69F00" stroke-width="2"/>
<polyline points="70,339 143,339 216,339 290,338 363,338 436,339 510,339 583,338 656,339 730,339" fill="none" stroke="#C44E52" stroke-width="2"/>
<polyline points="70,301 143,301 216,301 290,302 363,302 436,302 510,302 583,302 656,302 730,302" fill="none" stroke="#8C564B" stroke-width="2"/>
<circle cx="70" cy="41" r="3" fill="#0072B2"/>
<circle cx="70" cy="87" r="3" fill="#CC79A7"/>
<circle cx="70" cy="340" r="3" fill="#D55E00"/>
<circle cx="70" cy="294" r="3" fill="#009E73"/>
<circle cx="70" cy="268" r="3" fill="#984EA3"/>
<circle cx="70" cy="41" r="3" fill="#56B4E9"/>
<circle cx="70" cy="48" r="3" fill="#E69F00"/>
<circle cx="70" cy="339" r="3" fill="#C44E52"/>
<circle cx="70" cy="301" r="3" fill="#8C564B"/>
<circle cx="143" cy="45" r="3" fill="#0072B2"/>
<circle cx="143" cy="91" r="3" fill="#CC79A7"/>
<circle cx="143" cy="340" r="3" fill="#D55E00"/>
<circle cx="143" cy="294" r="3" fill="#009E73"/>
<circle cx="143" cy="268" r="3" fill="#984EA3"/>
<circle cx="143" cy="41" r="3" fill="#56B4E9"/>
<circle cx="143" cy="48" r="3" fill="#E69F00"/>
<circle cx="143" cy="339" r="3" fill="#C44E52"/>
<circle cx="143" cy="301" r="3" fill="#8C564B"/>
<circle cx="216" cy="46" r="3" fill="#0072B2"/>
<circle cx="216" cy="94" r="3" fill="#CC79A7"/>
<circle cx="216" cy="340" r="3" fill="#D55E00"/>
<circle cx="216" cy="295" r="3" fill="#009E73"/>
<circle cx="216" cy="267" r="3" fill="#984EA3"/>
<circle cx="216" cy="41" r="3" fill="#56B4E9"/>
<circle cx="216" cy="48" r="3" fill="#E69F00"/>
<circle cx="216" cy="339" r="3" fill="#C44E52"/>
<circle cx="216" cy="301" r="3" fill="#8C564B"/>
<circle cx="290" cy="47" r="3" fill="#0072B2"/>
<circle cx="290" cy="84" r="3" fill="#CC79A7"/>
<circle cx="290" cy="340" r="3" fill="#D55E00"/>
<circle cx="290" cy="295" r="3" fill="#009E73"/>
<circle cx="290" cy="267" r="3" fill="#984EA3"/>
<circle cx="290" cy="48" r="3" fill="#56B4E9"/>
<circle cx="290" cy="55" r="3" fill="#E69F00"/>
<circle cx="290" cy="338" r="3" fill="#C44E52"/>
<circle cx="290" cy="302" r="3" fill="#8C564B"/>
<circle cx="363" cy="48" r="3" fill="#0072B2"/>
<circle cx="363" cy="87" r="3" fill="#CC79A7"/>
<circle cx="363" cy="340" r="3" fill="#D55E00"/>
<circle cx="363" cy="295" r="3" fill="#009E73"/>
<circle cx="363" cy="267" r="3" fill="#984EA3"/>
<circle cx="363" cy="48" r="3" fill="#56B4E9"/>
<circle cx="363" cy="55" r="3" fill="#E69F00"/>
<circle cx="363" cy="338" r="3" fill="#C44E52"/>
<circle cx="363" cy="302" r="3" fill="#8C564B"/>
<circle cx="436" cy="50" r="3" fill="#0072B2"/>
<circle cx="436" cy="92" r="3" fill="#CC79A7"/>
<circle cx="436" cy="340" r="3" fill="#D55E00"/>
<circle cx="436" cy="296" r="3" fill="#009E73"/>
<circle cx="436" cy="268" r="3" fill="#984EA3"/>
<circle cx="436" cy="48" r="3" fill="#56B4E9"/>
<circle cx="436" cy="55" r="3" fill="#E69F00"/>
<circle cx="436" cy="339" r="3" fill="#C44E52"/>
<circle cx="436" cy="302" r="3" fill="#8C564B"/>
<circle cx="510" cy="53" r="3" fill="#0072B2"/>
<circle cx="510" cy="90" r="3" fill="#CC79A7"/>
<circle cx="510" cy="340" r="3" fill="#D55E00"/>
<circle cx="510" cy="297" r="3" fill="#009E73"/>
<circle cx="510" cy="268" r="3" fill="#984EA3"/>
<circle cx="510" cy="48" r="3" fill="#56B4E9"/>
<circle cx="510" cy="55" r="3" fill="#E69F00"/>
<circle cx="510" cy="339" r="3" fill="#C44E52"/>
<circle cx="510" cy="302" r="3" fill="#8C564B"/>
<circle cx="583" cy="47" r="3" fill="#0072B2"/>
<circle cx="583" cy="93" r="3" fill="#CC79A7"/>
<circle cx="583" cy="340" r="3" fill="#D55E00"/>
<circle cx="583" cy="296" r="3" fill="#009E73"/>
<circle cx="583" cy="269" r="3" fill="#984EA3"/>
<circle cx="583" cy="48" r="3" fill="#56B4E9"/>
<circle cx="583" cy="55" r="3" fill="#E69F00"/>
<circle cx="583" cy="338" r="3" fill="#C44E52"/>
<circle cx="583" cy="302" r="3" fill="#8C564B"/>
<circle cx="656" cy="48" r="3" fill="#0072B2"/>
<circle cx="656" cy="92" r="3" fill="#CC79A7"/>
<circle cx="656" cy="340" r="3" fill="#D55E00"/>
<circle cx="656" cy="296" r="3" fill="#009E73"/>
<circle cx="656" cy="268" r="3" fill="#984EA3"/>
<circle cx="656" cy="49" r="3" fill="#56B4E9"/>
<circle cx="656" cy="55" r="3" fill="#E69F00"/>
<circle cx="656" cy="339" r="3" fill="#C44E52"/>
<circle cx="656" cy="302" r="3" fill="#8C564B"/>
<circle cx="730" cy="55" r="3" fill="#0072B2"/>
<circle cx="730" cy="97" r="3" fill="#CC79A7"/>
<circle cx="730" cy="340" r="3" fill="#D55E00"/>
<circle cx="730" cy="296" r="3" fill="#009E73"/>
<circle cx="730" cy="269" r="3" fill="#984EA3"/>
<circle cx="730" cy="49" r="3" fill="#56B4E9"/>
<circle cx="730" cy="55" r="3" fill="#E69F00"/>
<circle cx="730" cy="339" r="3" fill="#C44E52"/>
<circle cx="730" cy="302" r="3" fill="#8C564B"/>
<circle cx="70" cy="20" r="4" fill="#0072B2"/>
<text x="78" y="24" text-anchor="start" font-size="12" fill="#0072B2">inte</text>
<circle cx="130" cy="20" r="4" fill="#CC79A7"/>
<text x="138" y="24" text-anchor="start" font-size="12" fill="#CC79A7">comp</text>
<circle cx="195" cy="20" r="4" fill="#D55E00"/>
<text x="203" y="24" text-anchor="start" font-size="12" fill="#D55E00">run</text>
<circle cx="250" cy="20" r="4" fill="#009E73"/>
<text x="258" y="24" text-anchor="start" font-size="12" fill="#009E73">wall</text>
<circle cx="315" cy="20" r="4" fill="#984EA3"/>
<text x="323" y="24" text-anchor="start" font-size="12" fill="#984EA3">self</text>
<circle cx="380" cy="20" r="4" fill="#56B4E9"/>
<text x="388" y="24" text-anchor="start" font-size="12" fill="#56B4E9">mem-inte</text>
<circle cx="470" cy="20" r="4" fill="#E69F00"/>
<text x="478" y="24" text-anchor="start" font-size="12" fill="#E69F00">mem-comp</text>
<circle cx="565" cy="20" r="4" fill="#C44E52"/>
<text x="573" y="24" text-anchor="start" font-size="12" fill="#C44E52">mem-run</text>
<circle cx="650" cy="20" r="4" fill="#8C564B"/>
<text x="658" y="24" text-anchor="start" font-size="12" fill="#8C564B">self-mem</text>
</svg>
