<svg width="800" height="400" xmlns="http://www.w3.org/2000/svg">
<rect width="800" height="400" fill="white"/>
<line x1="70" y1="40" x2="70" y2="340" stroke="#333" stroke-width="1"/>
<line x1="70" y1="340" x2="780" y2="340" stroke="#333" stroke-width="1"/>
<text x="65" y="344" text-anchor="end" font-size="11" fill="#333">0</text>
<text x="65" y="194" text-anchor="end" font-size="11" fill="#333">86500</text>
<text x="65" y="44" text-anchor="end" font-size="11" fill="#333">173000</text>
<text x="15" y="190" text-anchor="middle" font-size="12" fill="#333" transform="rotate(-90 15 190)">ms</text>
<polyline points="70,175 148,174 227,172 306,176 385,176 464,174 543,43 622,46 701,46 780,42" fill="none" stroke="#0072B2" stroke-width="2"/>
<polyline points="70,197 148,196 227,192 306,195 385,196 464,197 543,61 622,64 701,67 780,64" fill="none" stroke="#CC79A7" stroke-width="2"/>
<polyline points="70,338 148,338 227,338 306,338 385,338 464,338 543,338 622,338 701,338 780,338" fill="none" stroke="#D55E00" stroke-width="2"/>
<polyline points="70,259 148,259 227,259 306,259 385,260 464,259 543,303 622,303 701,304 780,303" fill="none" stroke="#009E73" stroke-width="2"/>
<circle cx="70" cy="175" r="3" fill="#0072B2"/>
<circle cx="70" cy="197" r="3" fill="#CC79A7"/>
<circle cx="70" cy="338" r="3" fill="#D55E00"/>
<circle cx="70" cy="259" r="3" fill="#009E73"/>
<circle cx="148" cy="174" r="3" fill="#0072B2"/>
<circle cx="148" cy="196" r="3" fill="#CC79A7"/>
<circle cx="148" cy="338" r="3" fill="#D55E00"/>
<circle cx="148" cy="259" r="3" fill="#009E73"/>
<circle cx="227" cy="172" r="3" fill="#0072B2"/>
<circle cx="227" cy="192" r="3" fill="#CC79A7"/>
<circle cx="227" cy="338" r="3" fill="#D55E00"/>
<circle cx="227" cy="259" r="3" fill="#009E73"/>
<circle cx="306" cy="176" r="3" fill="#0072B2"/>
<circle cx="306" cy="195" r="3" fill="#CC79A7"/>
<circle cx="306" cy="338" r="3" fill="#D55E00"/>
<circle cx="306" cy="259" r="3" fill="#009E73"/>
<circle cx="385" cy="176" r="3" fill="#0072B2"/>
<circle cx="385" cy="196" r="3" fill="#CC79A7"/>
<circle cx="385" cy="338" r="3" fill="#D55E00"/>
<circle cx="385" cy="260" r="3" fill="#009E73"/>
<circle cx="464" cy="174" r="3" fill="#0072B2"/>
<circle cx="464" cy="197" r="3" fill="#CC79A7"/>
<circle cx="464" cy="338" r="3" fill="#D55E00"/>
<circle cx="464" cy="259" r="3" fill="#009E73"/>
<circle cx="543" cy="43" r="3" fill="#0072B2"/>
<circle cx="543" cy="61" r="3" fill="#CC79A7"/>
<circle cx="543" cy="338" r="3" fill="#D55E00"/>
<circle cx="543" cy="303" r="3" fill="#009E73"/>
<circle cx="622" cy="46" r="3" fill="#0072B2"/>
<circle cx="622" cy="64" r="3" fill="#CC79A7"/>
<circle cx="622" cy="338" r="3" fill="#D55E00"/>
<circle cx="622" cy="303" r="3" fill="#009E73"/>
<circle cx="701" cy="46" r="3" fill="#0072B2"/>
<circle cx="701" cy="67" r="3" fill="#CC79A7"/>
<circle cx="701" cy="338" r="3" fill="#D55E00"/>
<circle cx="701" cy="304" r="3" fill="#009E73"/>
<circle cx="780" cy="42" r="3" fill="#0072B2"/>
<circle cx="780" cy="64" r="3" fill="#CC79A7"/>
<circle cx="780" cy="338" r="3" fill="#D55E00"/>
<circle cx="780" cy="303" r="3" fill="#009E73"/>
<circle cx="90" cy="20" r="4" fill="#0072B2"/>
<text x="98" y="24" text-anchor="start" font-size="12" fill="#0072B2">interpreted</text>
<circle cx="190" cy="20" r="4" fill="#CC79A7"/>
<text x="198" y="24" text-anchor="start" font-size="12" fill="#CC79A7">compiled</text>
<circle cx="275" cy="20" r="4" fill="#D55E00"/>
<text x="283" y="24" text-anchor="start" font-size="12" fill="#D55E00">executed</text>
<circle cx="355" cy="20" r="4" fill="#009E73"/>
<text x="363" y="24" text-anchor="start" font-size="12" fill="#009E73">wall</text>
</svg>
