<svg width="800" height="400" xmlns="http://www.w3.org/2000/svg">
<rect width="800" height="400" fill="white"/>
<line x1="70" y1="40" x2="70" y2="340" stroke="#333" stroke-width="1"/>
<line x1="70" y1="340" x2="730" y2="340" stroke="#333" stroke-width="1"/>
<line x1="730" y1="40" x2="730" y2="340" stroke="#333" stroke-width="1"/>
<text x="65" y="344" text-anchor="end" font-size="11" fill="#333">0</text>
<text x="65" y="194" text-anchor="end" font-size="11" fill="#333">323500</text>
<text x="65" y="44" text-anchor="end" font-size="11" fill="#333">647000</text>
<text x="15" y="190" text-anchor="middle" font-size="12" fill="#333" transform="rotate(-90 15 190)">ms</text>
<text x="735" y="344" text-anchor="start" font-size="11" fill="#333">0</text>
<text x="735" y="194" text-anchor="start" font-size="11" fill="#333">53539500000</text>
<text x="735" y="44" text-anchor="start" font-size="11" fill="#333">107079000000</text>
<text x="785" y="190" text-anchor="middle" font-size="12" fill="#333" transform="rotate(90 785 190)">bytes</text>
<polyline points="70,94 143,96 216,94 290,91 363,103 436,107 510,111 583,116 656,116 730,117" fill="none" stroke="#0072B2" stroke-width="2"/>
<polyline points="70,41 143,41 216,42 290,45 363,48 436,67 510,62 583,66 656,73 730,73" fill="none" stroke="#CC79A7" stroke-width="2"/>
<polyline points="70,340 143,340 216,340 290,340 363,340 436,340 510,340 583,340 656,340 730,340" fill="none" stroke="#D55E00" stroke-width="2"/>
<polyline points="70,306 143,306 216,306 290,306 363,306 436,308 510,308 583,308 656,309 730,308" fill="none" stroke="#009E73" stroke-width="2"/>
<polyline points="70,207 143,206 216,207 290,205 363,208 436,219 510,222 583,221 656,221 730,218" fill="none" stroke="#984EA3" stroke-width="2"/>
<polyline points="70,48 143,49 216,50 290,50 363,53 436,59 510,60 583,62 656,61 730,61" fill="none" stroke="#56B4E9" stroke-width="2"/>
<polyline points="70,42 143,41 216,41 290,42 363,43 436,53 510,53 583,54 656,55 730,56" fill="none" stroke="#E69F00" stroke-width="2"/>
<polyline points="70,338 143,338 216,338 290,338 363,339 436,339 510,339 583,339 656,339 730,339" fill="none" stroke="#C44E52" stroke-width="2"/>
<polyline points="70,301 143,301 216,301 290,300 363,301 436,301 510,302 583,303 656,303 730,301" fill="none" stroke="#8C564B" stroke-width="2"/>
<circle cx="70" cy="94" r="3" fill="#0072B2"/>
<circle cx="70" cy="41" r="3" fill="#CC79A7"/>
<circle cx="70" cy="340" r="3" fill="#D55E00"/>
<circle cx="70" cy="306" r="3" fill="#009E73"/>
<circle cx="70" cy="207" r="3" fill="#984EA3"/>
<circle cx="70" cy="48" r="3" fill="#56B4E9"/>
<circle cx="70" cy="42" r="3" fill="#E69F00"/>
<circle cx="70" cy="338" r="3" fill="#C44E52"/>
<circle cx="70" cy="301" r="3" fill="#8C564B"/>
<circle cx="143" cy="96" r="3" fill="#0072B2"/>
<circle cx="143" cy="41" r="3" fill="#CC79A7"/>
<circle cx="143" cy="340" r="3" fill="#D55E00"/>
<circle cx="143" cy="306" r="3" fill="#009E73"/>
<circle cx="143" cy="206" r="3" fill="#984EA3"/>
<circle cx="143" cy="49" r="3" fill="#56B4E9"/>
<circle cx="143" cy="41" r="3" fill="#E69F00"/>
<circle cx="143" cy="338" r="3" fill="#C44E52"/>
<circle cx="143" cy="301" r="3" fill="#8C564B"/>
<circle cx="216" cy="94" r="3" fill="#0072B2"/>
<circle cx="216" cy="42" r="3" fill="#CC79A7"/>
<circle cx="216" cy="340" r="3" fill="#D55E00"/>
<circle cx="216" cy="306" r="3" fill="#009E73"/>
<circle cx="216" cy="207" r="3" fill="#984EA3"/>
<circle cx="216" cy="50" r="3" fill="#56B4E9"/>
<circle cx="216" cy="41" r="3" fill="#E69F00"/>
<circle cx="216" cy="338" r="3" fill="#C44E52"/>
<circle cx="216" cy="301" r="3" fill="#8C564B"/>
<circle cx="290" cy="91" r="3" fill="#0072B2"/>
<circle cx="290" cy="45" r="3" fill="#CC79A7"/>
<circle cx="290" cy="340" r="3" fill="#D55E00"/>
<circle cx="290" cy="306" r="3" fill="#009E73"/>
<circle cx="290" cy="205" r="3" fill="#984EA3"/>
<circle cx="290" cy="50" r="3" fill="#56B4E9"/>
<circle cx="290" cy="42" r="3" fill="#E69F00"/>
<circle cx="290" cy="338" r="3" fill="#C44E52"/>
<circle cx="290" cy="300" r="3" fill="#8C564B"/>
<circle cx="363" cy="103" r="3" fill="#0072B2"/>
<circle cx="363" cy="48" r="3" fill="#CC79A7"/>
<circle cx="363" cy="340" r="3" fill="#D55E00"/>
<circle cx="363" cy="306" r="3" fill="#009E73"/>
<circle cx="363" cy="208" r="3" fill="#984EA3"/>
<circle cx="363" cy="53" r="3" fill="#56B4E9"/>
<circle cx="363" cy="43" r="3" fill="#E69F00"/>
<circle cx="363" cy="339" r="3" fill="#C44E52"/>
<circle cx="363" cy="301" r="3" fill="#8C564B"/>
<circle cx="436" cy="107" r="3" fill="#0072B2"/>
<circle cx="436" cy="67" r="3" fill="#CC79A7"/>
<circle cx="436" cy="340" r="3" fill="#D55E00"/>
<circle cx="436" cy="308" r="3" fill="#009E73"/>
<circle cx="436" cy="219" r="3" fill="#984EA3"/>
<circle cx="436" cy="59" r="3" fill="#56B4E9"/>
<circle cx="436" cy="53" r="3" fill="#E69F00"/>
<circle cx="436" cy="339" r="3" fill="#C44E52"/>
<circle cx="436" cy="301" r="3" fill="#8C564B"/>
<circle cx="510" cy="111" r="3" fill="#0072B2"/>
<circle cx="510" cy="62" r="3" fill="#CC79A7"/>
<circle cx="510" cy="340" r="3" fill="#D55E00"/>
<circle cx="510" cy="308" r="3" fill="#009E73"/>
<circle cx="510" cy="222" r="3" fill="#984EA3"/>
<circle cx="510" cy="60" r="3" fill="#56B4E9"/>
<circle cx="510" cy="53" r="3" fill="#E69F00"/>
<circle cx="510" cy="339" r="3" fill="#C44E52"/>
<circle cx="510" cy="302" r="3" fill="#8C564B"/>
<circle cx="583" cy="116" r="3" fill="#0072B2"/>
<circle cx="583" cy="66" r="3" fill="#CC79A7"/>
<circle cx="583" cy="340" r="3" fill="#D55E00"/>
<circle cx="583" cy="308" r="3" fill="#009E73"/>
<circle cx="583" cy="221" r="3" fill="#984EA3"/>
<circle cx="583" cy="62" r="3" fill="#56B4E9"/>
<circle cx="583" cy="54" r="3" fill="#E69F00"/>
<circle cx="583" cy="339" r="3" fill="#C44E52"/>
<circle cx="583" cy="303" r="3" fill="#8C564B"/>
<circle cx="656" cy="116" r="3" fill="#0072B2"/>
<circle cx="656" cy="73" r="3" fill="#CC79A7"/>
<circle cx="656" cy="340" r="3" fill="#D55E00"/>
<circle cx="656" cy="309" r="3" fill="#009E73"/>
<circle cx="656" cy="221" r="3" fill="#984EA3"/>
<circle cx="656" cy="61" r="3" fill="#56B4E9"/>
<circle cx="656" cy="55" r="3" fill="#E69F00"/>
<circle cx="656" cy="339" r="3" fill="#C44E52"/>
<circle cx="656" cy="303" r="3" fill="#8C564B"/>
<circle cx="730" cy="117" r="3" fill="#0072B2"/>
<circle cx="730" cy="73" r="3" fill="#CC79A7"/>
<circle cx="730" cy="340" r="3" fill="#D55E00"/>
<circle cx="730" cy="308" r="3" fill="#009E73"/>
<circle cx="730" cy="218" r="3" fill="#984EA3"/>
<circle cx="730" cy="61" r="3" fill="#56B4E9"/>
<circle cx="730" cy="56" r="3" fill="#E69F00"/>
<circle cx="730" cy="339" r="3" fill="#C44E52"/>
<circle cx="730" cy="301" r="3" fill="#8C564B"/>
<circle cx="70" cy="20" r="4" fill="#0072B2"/>
<text x="78" y="24" text-anchor="start" font-size="12" fill="#0072B2">inte</text>
<circle cx="130" cy="20" r="4" fill="#CC79A7"/>
<text x="138" y="24" text-anchor="start" font-size="12" fill="#CC79A7">comp</text>
<circle cx="195" cy="20" r="4" fill="#D55E00"/>
<text x="203" y="24" text-anchor="start" font-size="12" fill="#D55E00">run</text>
<circle cx="250" cy="20" r="4" fill="#009E73"/>
<text x="258" y="24" text-anchor="start" font-size="12" fill="#009E73">wall</text>
<circle cx="315" cy="20" r="4" fill="#984EA3"/>
<text x="323" y="24" text-anchor="start" font-size="12" fill="#984EA3">self</text>
<circle cx="380" cy="20" r="4" fill="#56B4E9"/>
<text x="388" y="24" text-anchor="start" font-size="12" fill="#56B4E9">mem-inte</text>
<circle cx="470" cy="20" r="4" fill="#E69F00"/>
<text x="478" y="24" text-anchor="start" font-size="12" fill="#E69F00">mem-comp</text>
<circle cx="565" cy="20" r="4" fill="#C44E52"/>
<text x="573" y="24" text-anchor="start" font-size="12" fill="#C44E52">mem-run</text>
<circle cx="650" cy="20" r="4" fill="#8C564B"/>
<text x="658" y="24" text-anchor="start" font-size="12" fill="#8C564B">self-mem</text>
</svg>
