<svg width="800" height="400" xmlns="http://www.w3.org/2000/svg">
<rect width="800" height="400" fill="white"/>
<line x1="70" y1="40" x2="70" y2="340" stroke="#333" stroke-width="1"/>
<line x1="70" y1="340" x2="730" y2="340" stroke="#333" stroke-width="1"/>
<line x1="730" y1="40" x2="730" y2="340" stroke="#333" stroke-width="1"/>
<text x="65" y="344" text-anchor="end" font-size="11" fill="#333">0</text>
<text x="65" y="194" text-anchor="end" font-size="11" fill="#333">280500</text>
<text x="65" y="44" text-anchor="end" font-size="11" fill="#333">561000</text>
<text x="15" y="190" text-anchor="middle" font-size="12" fill="#333" transform="rotate(-90 15 190)">ms</text>
<text x="735" y="344" text-anchor="start" font-size="11" fill="#333">0</text>
<text x="735" y="194" text-anchor="start" font-size="11" fill="#333">1000000</text>
<text x="735" y="44" text-anchor="start" font-size="11" fill="#333">2000000</text>
<text x="785" y="190" text-anchor="middle" font-size="12" fill="#333" transform="rotate(90 785 190)">bytes</text>
<polyline points="70,62 143,83 216,94 290,117 363,121 436,128 510,132 583,142 656,140 730,142" fill="none" stroke="#0072B2" stroke-width="2"/>
<polyline points="70,41 143,44 216,88 290,81 363,96 436,98 510,106 583,117 656,97 730,99" fill="none" stroke="#CC79A7" stroke-width="2"/>
<polyline points="70,340 143,340 216,339 290,340 363,340 436,339 510,340 583,340 656,340 730,340" fill="none" stroke="#D55E00" stroke-width="2"/>
<polyline points="70,252 143,257 216,263 290,266 363,270 436,271 510,271 583,271 656,271 730,273" fill="none" stroke="#009E73" stroke-width="2"/>
<polyline points="70,46 143,46 216,46 290,46 363,46 436,46 510,46 583,46 656,46 730,46" fill="none" stroke="#56B4E9" stroke-width="2"/>
<circle cx="70" cy="62" r="3" fill="#0072B2"/>
<circle cx="70" cy="41" r="3" fill="#CC79A7"/>
<circle cx="70" cy="340" r="3" fill="#D55E00"/>
<circle cx="70" cy="252" r="3" fill="#009E73"/>
<circle cx="70" cy="46" r="3" fill="#56B4E9"/>
<circle cx="143" cy="83" r="3" fill="#0072B2"/>
<circle cx="143" cy="44" r="3" fill="#CC79A7"/>
<circle cx="143" cy="340" r="3" fill="#D55E00"/>
<circle cx="143" cy="257" r="3" fill="#009E73"/>
<circle cx="143" cy="46" r="3" fill="#56B4E9"/>
<circle cx="216" cy="94" r="3" fill="#0072B2"/>
<circle cx="216" cy="88" r="3" fill="#CC79A7"/>
<circle cx="216" cy="339" r="3" fill="#D55E00"/>
<circle cx="216" cy="263" r="3" fill="#009E73"/>
<circle cx="216" cy="46" r="3" fill="#56B4E9"/>
<circle cx="290" cy="117" r="3" fill="#0072B2"/>
<circle cx="290" cy="81" r="3" fill="#CC79A7"/>
<circle cx="290" cy="340" r="3" fill="#D55E00"/>
<circle cx="290" cy="266" r="3" fill="#009E73"/>
<circle cx="290" cy="46" r="3" fill="#56B4E9"/>
<circle cx="363" cy="121" r="3" fill="#0072B2"/>
<circle cx="363" cy="96" r="3" fill="#CC79A7"/>
<circle cx="363" cy="340" r="3" fill="#D55E00"/>
<circle cx="363" cy="270" r="3" fill="#009E73"/>
<circle cx="363" cy="46" r="3" fill="#56B4E9"/>
<circle cx="436" cy="128" r="3" fill="#0072B2"/>
<circle cx="436" cy="98" r="3" fill="#CC79A7"/>
<circle cx="436" cy="339" r="3" fill="#D55E00"/>
<circle cx="436" cy="271" r="3" fill="#009E73"/>
<circle cx="436" cy="46" r="3" fill="#56B4E9"/>
<circle cx="510" cy="132" r="3" fill="#0072B2"/>
<circle cx="510" cy="106" r="3" fill="#CC79A7"/>
<circle cx="510" cy="340" r="3" fill="#D55E00"/>
<circle cx="510" cy="271" r="3" fill="#009E73"/>
<circle cx="510" cy="46" r="3" fill="#56B4E9"/>
<circle cx="583" cy="142" r="3" fill="#0072B2"/>
<circle cx="583" cy="117" r="3" fill="#CC79A7"/>
<circle cx="583" cy="340" r="3" fill="#D55E00"/>
<circle cx="583" cy="271" r="3" fill="#009E73"/>
<circle cx="583" cy="46" r="3" fill="#56B4E9"/>
<circle cx="656" cy="140" r="3" fill="#0072B2"/>
<circle cx="656" cy="97" r="3" fill="#CC79A7"/>
<circle cx="656" cy="340" r="3" fill="#D55E00"/>
<circle cx="656" cy="271" r="3" fill="#009E73"/>
<circle cx="656" cy="46" r="3" fill="#56B4E9"/>
<circle cx="730" cy="142" r="3" fill="#0072B2"/>
<circle cx="730" cy="99" r="3" fill="#CC79A7"/>
<circle cx="730" cy="340" r="3" fill="#D55E00"/>
<circle cx="730" cy="273" r="3" fill="#009E73"/>
<circle cx="730" cy="46" r="3" fill="#56B4E9"/>
<circle cx="90" cy="20" r="4" fill="#0072B2"/>
<text x="98" y="24" text-anchor="start" font-size="12" fill="#0072B2">interpreted</text>
<circle cx="190" cy="20" r="4" fill="#CC79A7"/>
<text x="198" y="24" text-anchor="start" font-size="12" fill="#CC79A7">compiled</text>
<circle cx="275" cy="20" r="4" fill="#D55E00"/>
<text x="283" y="24" text-anchor="start" font-size="12" fill="#D55E00">executed</text>
<circle cx="355" cy="20" r="4" fill="#009E73"/>
<text x="363" y="24" text-anchor="start" font-size="12" fill="#009E73">wall</text>
<circle cx="420" cy="20" r="4" fill="#56B4E9"/>
<text x="428" y="24" text-anchor="start" font-size="12" fill="#56B4E9">memory</text>
</svg>
