<svg width="800" height="400" xmlns="http://www.w3.org/2000/svg">
<rect width="800" height="400" fill="white"/>
<line x1="70" y1="40" x2="70" y2="340" stroke="#333" stroke-width="1"/>
<line x1="70" y1="340" x2="730" y2="340" stroke="#333" stroke-width="1"/>
<line x1="730" y1="40" x2="730" y2="340" stroke="#333" stroke-width="1"/>
<text x="65" y="344" text-anchor="end" font-size="11" fill="#333">0</text>
<text x="65" y="194" text-anchor="end" font-size="11" fill="#333">293000</text>
<text x="65" y="44" text-anchor="end" font-size="11" fill="#333">586000</text>
<text x="15" y="190" text-anchor="middle" font-size="12" fill="#333" transform="rotate(-90 15 190)">ms</text>
<text x="735" y="344" text-anchor="start" font-size="11" fill="#333">0</text>
<text x="735" y="194" text-anchor="start" font-size="11" fill="#333">5514500000</text>
<text x="735" y="44" text-anchor="start" font-size="11" fill="#333">11029000000</text>
<text x="785" y="190" text-anchor="middle" font-size="12" fill="#333" transform="rotate(90 785 190)">bytes</text>
<polyline points="70,140 143,155 216,151 290,100 363,147 436,153 510,105 583,135 656,125 730,113" fill="none" stroke="#0072B2" stroke-width="2"/>
<polyline points="70,103 143,105 216,114 290,59 363,117 436,122 510,41 583,100 656,77 730,53" fill="none" stroke="#CC79A7" stroke-width="2"/>
<polyline points="70,340 143,340 216,340 290,340 363,340 436,340 510,340 583,340 656,340 730,340" fill="none" stroke="#D55E00" stroke-width="2"/>
<polyline points="70,271 143,272 216,271 290,258 363,271 436,275 510,254 583,268 656,265 730,257" fill="none" stroke="#009E73" stroke-width="2"/>
<polyline points="70,275 143,275 216,275 290,275 363,275 436,275 510,275 583,275 656,275 730,275" fill="none" stroke="#56B4E9" stroke-width="2"/>
<polyline points="70,192 143,192 216,192 290,192 363,192 436,193 510,192 583,192 656,192 730,193" fill="none" stroke="#E69F00" stroke-width="2"/>
<polyline points="70,340 143,340 216,340 290,340 363,340 436,340 510,340 583,340 656,340 730,340" fill="none" stroke="#C44E52" stroke-width="2"/>
<polyline points="70,41 143,41 216,41 290,42 363,41 436,42 510,41 583,41 656,41 730,43" fill="none" stroke="#000000" stroke-width="2"/>
<circle cx="70" cy="140" r="3" fill="#0072B2"/>
<circle cx="70" cy="103" r="3" fill="#CC79A7"/>
<circle cx="70" cy="340" r="3" fill="#D55E00"/>
<circle cx="70" cy="271" r="3" fill="#009E73"/>
<circle cx="70" cy="275" r="3" fill="#56B4E9"/>
<circle cx="70" cy="192" r="3" fill="#E69F00"/>
<circle cx="70" cy="340" r="3" fill="#C44E52"/>
<circle cx="70" cy="41" r="3" fill="#000000"/>
<circle cx="143" cy="155" r="3" fill="#0072B2"/>
<circle cx="143" cy="105" r="3" fill="#CC79A7"/>
<circle cx="143" cy="340" r="3" fill="#D55E00"/>
<circle cx="143" cy="272" r="3" fill="#009E73"/>
<circle cx="143" cy="275" r="3" fill="#56B4E9"/>
<circle cx="143" cy="192" r="3" fill="#E69F00"/>
<circle cx="143" cy="340" r="3" fill="#C44E52"/>
<circle cx="143" cy="41" r="3" fill="#000000"/>
<circle cx="216" cy="151" r="3" fill="#0072B2"/>
<circle cx="216" cy="114" r="3" fill="#CC79A7"/>
<circle cx="216" cy="340" r="3" fill="#D55E00"/>
<circle cx="216" cy="271" r="3" fill="#009E73"/>
<circle cx="216" cy="275" r="3" fill="#56B4E9"/>
<circle cx="216" cy="192" r="3" fill="#E69F00"/>
<circle cx="216" cy="340" r="3" fill="#C44E52"/>
<circle cx="216" cy="41" r="3" fill="#000000"/>
<circle cx="290" cy="100" r="3" fill="#0072B2"/>
<circle cx="290" cy="59" r="3" fill="#CC79A7"/>
<circle cx="290" cy="340" r="3" fill="#D55E00"/>
<circle cx="290" cy="258" r="3" fill="#009E73"/>
<circle cx="290" cy="275" r="3" fill="#56B4E9"/>
<circle cx="290" cy="192" r="3" fill="#E69F00"/>
<circle cx="290" cy="340" r="3" fill="#C44E52"/>
<circle cx="290" cy="42" r="3" fill="#000000"/>
<circle cx="363" cy="147" r="3" fill="#0072B2"/>
<circle cx="363" cy="117" r="3" fill="#CC79A7"/>
<circle cx="363" cy="340" r="3" fill="#D55E00"/>
<circle cx="363" cy="271" r="3" fill="#009E73"/>
<circle cx="363" cy="275" r="3" fill="#56B4E9"/>
<circle cx="363" cy="192" r="3" fill="#E69F00"/>
<circle cx="363" cy="340" r="3" fill="#C44E52"/>
<circle cx="363" cy="41" r="3" fill="#000000"/>
<circle cx="436" cy="153" r="3" fill="#0072B2"/>
<circle cx="436" cy="122" r="3" fill="#CC79A7"/>
<circle cx="436" cy="340" r="3" fill="#D55E00"/>
<circle cx="436" cy="275" r="3" fill="#009E73"/>
<circle cx="436" cy="275" r="3" fill="#56B4E9"/>
<circle cx="436" cy="193" r="3" fill="#E69F00"/>
<circle cx="436" cy="340" r="3" fill="#C44E52"/>
<circle cx="436" cy="42" r="3" fill="#000000"/>
<circle cx="510" cy="105" r="3" fill="#0072B2"/>
<circle cx="510" cy="41" r="3" fill="#CC79A7"/>
<circle cx="510" cy="340" r="3" fill="#D55E00"/>
<circle cx="510" cy="254" r="3" fill="#009E73"/>
<circle cx="510" cy="275" r="3" fill="#56B4E9"/>
<circle cx="510" cy="192" r="3" fill="#E69F00"/>
<circle cx="510" cy="340" r="3" fill="#C44E52"/>
<circle cx="510" cy="41" r="3" fill="#000000"/>
<circle cx="583" cy="135" r="3" fill="#0072B2"/>
<circle cx="583" cy="100" r="3" fill="#CC79A7"/>
<circle cx="583" cy="340" r="3" fill="#D55E00"/>
<circle cx="583" cy="268" r="3" fill="#009E73"/>
<circle cx="583" cy="275" r="3" fill="#56B4E9"/>
<circle cx="583" cy="192" r="3" fill="#E69F00"/>
<circle cx="583" cy="340" r="3" fill="#C44E52"/>
<circle cx="583" cy="41" r="3" fill="#000000"/>
<circle cx="656" cy="125" r="3" fill="#0072B2"/>
<circle cx="656" cy="77" r="3" fill="#CC79A7"/>
<circle cx="656" cy="340" r="3" fill="#D55E00"/>
<circle cx="656" cy="265" r="3" fill="#009E73"/>
<circle cx="656" cy="275" r="3" fill="#56B4E9"/>
<circle cx="656" cy="192" r="3" fill="#E69F00"/>
<circle cx="656" cy="340" r="3" fill="#C44E52"/>
<circle cx="656" cy="41" r="3" fill="#000000"/>
<circle cx="730" cy="113" r="3" fill="#0072B2"/>
<circle cx="730" cy="53" r="3" fill="#CC79A7"/>
<circle cx="730" cy="340" r="3" fill="#D55E00"/>
<circle cx="730" cy="257" r="3" fill="#009E73"/>
<circle cx="730" cy="275" r="3" fill="#56B4E9"/>
<circle cx="730" cy="193" r="3" fill="#E69F00"/>
<circle cx="730" cy="340" r="3" fill="#C44E52"/>
<circle cx="730" cy="43" r="3" fill="#000000"/>
<circle cx="90" cy="20" r="4" fill="#0072B2"/>
<text x="98" y="24" text-anchor="start" font-size="12" fill="#0072B2">inte</text>
<circle cx="150" cy="20" r="4" fill="#CC79A7"/>
<text x="158" y="24" text-anchor="start" font-size="12" fill="#CC79A7">comp</text>
<circle cx="215" cy="20" r="4" fill="#D55E00"/>
<text x="223" y="24" text-anchor="start" font-size="12" fill="#D55E00">run</text>
<circle cx="270" cy="20" r="4" fill="#009E73"/>
<text x="278" y="24" text-anchor="start" font-size="12" fill="#009E73">wall</text>
<circle cx="335" cy="20" r="4" fill="#56B4E9"/>
<text x="343" y="24" text-anchor="start" font-size="12" fill="#56B4E9">mem-inte</text>
<circle cx="425" cy="20" r="4" fill="#E69F00"/>
<text x="433" y="24" text-anchor="start" font-size="12" fill="#E69F00">mem-comp</text>
<circle cx="520" cy="20" r="4" fill="#C44E52"/>
<text x="528" y="24" text-anchor="start" font-size="12" fill="#C44E52">mem-run</text>
<circle cx="605" cy="20" r="4" fill="#000000"/>
<text x="613" y="24" text-anchor="start" font-size="12" fill="#000000">mem-total</text>
</svg>
