<svg width="800" height="400" xmlns="http://www.w3.org/2000/svg">
<rect width="800" height="400" fill="white"/>
<line x1="70" y1="40" x2="70" y2="340" stroke="#333" stroke-width="1"/>
<line x1="70" y1="340" x2="730" y2="340" stroke="#333" stroke-width="1"/>
<line x1="730" y1="40" x2="730" y2="340" stroke="#333" stroke-width="1"/>
<line x1="66" y1="340" x2="70" y2="340" stroke="#333" stroke-width="1"/>
<text x="65" y="344" text-anchor="end" font-size="11" fill="#333">0 s</text>
<line x1="66" y1="266" x2="70" y2="266" stroke="#333" stroke-width="1"/>
<text x="65" y="270" text-anchor="end" font-size="11" fill="#333">69.94 s</text>
<line x1="66" y1="191" x2="70" y2="191" stroke="#333" stroke-width="1"/>
<text x="65" y="195" text-anchor="end" font-size="11" fill="#333">139.88 s</text>
<line x1="66" y1="116" x2="70" y2="116" stroke="#333" stroke-width="1"/>
<text x="65" y="120" text-anchor="end" font-size="11" fill="#333">209.82 s</text>
<line x1="66" y1="40" x2="70" y2="40" stroke="#333" stroke-width="1"/>
<text x="65" y="44" text-anchor="end" font-size="11" fill="#333">279.76 s</text>
<line x1="730" y1="340" x2="734" y2="340" stroke="#333" stroke-width="1"/>
<text x="735" y="344" text-anchor="start" font-size="11" fill="#333">0 gb</text>
<line x1="730" y1="265" x2="734" y2="265" stroke="#333" stroke-width="1"/>
<text x="735" y="269" text-anchor="start" font-size="11" fill="#333">10.14 gb</text>
<line x1="730" y1="190" x2="734" y2="190" stroke="#333" stroke-width="1"/>
<text x="735" y="194" text-anchor="start" font-size="11" fill="#333">20.27 gb</text>
<line x1="730" y1="115" x2="734" y2="115" stroke="#333" stroke-width="1"/>
<text x="735" y="119" text-anchor="start" font-size="11" fill="#333">30.41 gb</text>
<line x1="730" y1="40" x2="734" y2="40" stroke="#333" stroke-width="1"/>
<text x="735" y="44" text-anchor="start" font-size="11" fill="#333">40.55 gb</text>
<polyline points="70,64 143,70 216,55 290,62 363,59 436,53 510,49 583,60 656,52 730,57" fill="none" stroke="#0072B2" stroke-width="2"/>
<polyline points="70,55 143,59 216,49 290,58 363,50 436,47 510,46 583,43 656,40 730,44" fill="none" stroke="#CC79A7" stroke-width="2"/>
<polyline points="70,339 143,339 216,339 290,339 363,339 436,339 510,339 583,339 656,339 730,339" fill="none" stroke="#D55E00" stroke-width="2"/>
<polyline points="70,282 143,283 216,281 290,283 363,282 436,281 510,280 583,281 656,281 730,281" fill="none" stroke="#009E73" stroke-width="2"/>
<polyline points="70,267 143,268 216,266 290,265 363,263 436,263 510,262 583,260 656,260 730,260" fill="none" stroke="#984EA3" stroke-width="2"/>
<polyline points="70,45 143,45 216,45 290,45 363,45 436,45 510,45 583,41 656,41 730,40" fill="none" stroke="#56B4E9" stroke-width="2" stroke-dasharray="6 4"/>
<polyline points="70,64 143,64 216,64 290,64 363,64 436,64 510,64 583,59 656,59 730,59" fill="none" stroke="#E69F00" stroke-width="2" stroke-dasharray="6 4"/>
<polyline points="70,337 143,338 216,336 290,338 363,338 436,337 510,337 583,335 656,336 730,337" fill="none" stroke="#C44E52" stroke-width="2" stroke-dasharray="6 4"/>
<polyline points="70,310 143,310 216,310 290,310 363,311 436,310 510,310 583,309 656,309 730,309" fill="none" stroke="#8C564B" stroke-width="2" stroke-dasharray="6 4"/>
<polyline points="70,256 143,257 216,256 290,257 363,253 436,255 510,258 583,250 656,253 730,258" fill="none" stroke="#000000" stroke-width="2" stroke-dasharray="6 4"/>
<circle cx="70" cy="64" r="3" fill="#0072B2"/>
<circle cx="70" cy="55" r="3" fill="#CC79A7"/>
<circle cx="70" cy="339" r="3" fill="#D55E00"/>
<circle cx="70" cy="282" r="3" fill="#009E73"/>
<circle cx="70" cy="267" r="3" fill="#984EA3"/>
<circle cx="70" cy="45" r="3" fill="#56B4E9"/>
<circle cx="70" cy="64" r="3" fill="#E69F00"/>
<circle cx="70" cy="337" r="3" fill="#C44E52"/>
<circle cx="70" cy="310" r="3" fill="#8C564B"/>
<circle cx="70" cy="256" r="3" fill="#000000"/>
<circle cx="143" cy="70" r="3" fill="#0072B2"/>
<circle cx="143" cy="59" r="3" fill="#CC79A7"/>
<circle cx="143" cy="339" r="3" fill="#D55E00"/>
<circle cx="143" cy="283" r="3" fill="#009E73"/>
<circle cx="143" cy="268" r="3" fill="#984EA3"/>
<circle cx="143" cy="45" r="3" fill="#56B4E9"/>
<circle cx="143" cy="64" r="3" fill="#E69F00"/>
<circle cx="143" cy="338" r="3" fill="#C44E52"/>
<circle cx="143" cy="310" r="3" fill="#8C564B"/>
<circle cx="143" cy="257" r="3" fill="#000000"/>
<circle cx="216" cy="55" r="3" fill="#0072B2"/>
<circle cx="216" cy="49" r="3" fill="#CC79A7"/>
<circle cx="216" cy="339" r="3" fill="#D55E00"/>
<circle cx="216" cy="281" r="3" fill="#009E73"/>
<circle cx="216" cy="266" r="3" fill="#984EA3"/>
<circle cx="216" cy="45" r="3" fill="#56B4E9"/>
<circle cx="216" cy="64" r="3" fill="#E69F00"/>
<circle cx="216" cy="336" r="3" fill="#C44E52"/>
<circle cx="216" cy="310" r="3" fill="#8C564B"/>
<circle cx="216" cy="256" r="3" fill="#000000"/>
<circle cx="290" cy="62" r="3" fill="#0072B2"/>
<circle cx="290" cy="58" r="3" fill="#CC79A7"/>
<circle cx="290" cy="339" r="3" fill="#D55E00"/>
<circle cx="290" cy="283" r="3" fill="#009E73"/>
<circle cx="290" cy="265" r="3" fill="#984EA3"/>
<circle cx="290" cy="45" r="3" fill="#56B4E9"/>
<circle cx="290" cy="64" r="3" fill="#E69F00"/>
<circle cx="290" cy="338" r="3" fill="#C44E52"/>
<circle cx="290" cy="310" r="3" fill="#8C564B"/>
<circle cx="290" cy="257" r="3" fill="#000000"/>
<circle cx="363" cy="59" r="3" fill="#0072B2"/>
<circle cx="363" cy="50" r="3" fill="#CC79A7"/>
<circle cx="363" cy="339" r="3" fill="#D55E00"/>
<circle cx="363" cy="282" r="3" fill="#009E73"/>
<circle cx="363" cy="263" r="3" fill="#984EA3"/>
<circle cx="363" cy="45" r="3" fill="#56B4E9"/>
<circle cx="363" cy="64" r="3" fill="#E69F00"/>
<circle cx="363" cy="338" r="3" fill="#C44E52"/>
<circle cx="363" cy="311" r="3" fill="#8C564B"/>
<circle cx="363" cy="253" r="3" fill="#000000"/>
<circle cx="436" cy="53" r="3" fill="#0072B2"/>
<circle cx="436" cy="47" r="3" fill="#CC79A7"/>
<circle cx="436" cy="339" r="3" fill="#D55E00"/>
<circle cx="436" cy="281" r="3" fill="#009E73"/>
<circle cx="436" cy="263" r="3" fill="#984EA3"/>
<circle cx="436" cy="45" r="3" fill="#56B4E9"/>
<circle cx="436" cy="64" r="3" fill="#E69F00"/>
<circle cx="436" cy="337" r="3" fill="#C44E52"/>
<circle cx="436" cy="310" r="3" fill="#8C564B"/>
<circle cx="436" cy="255" r="3" fill="#000000"/>
<circle cx="510" cy="49" r="3" fill="#0072B2"/>
<circle cx="510" cy="46" r="3" fill="#CC79A7"/>
<circle cx="510" cy="339" r="3" fill="#D55E00"/>
<circle cx="510" cy="280" r="3" fill="#009E73"/>
<circle cx="510" cy="262" r="3" fill="#984EA3"/>
<circle cx="510" cy="45" r="3" fill="#56B4E9"/>
<circle cx="510" cy="64" r="3" fill="#E69F00"/>
<circle cx="510" cy="337" r="3" fill="#C44E52"/>
<circle cx="510" cy="310" r="3" fill="#8C564B"/>
<circle cx="510" cy="258" r="3" fill="#000000"/>
<circle cx="583" cy="60" r="3" fill="#0072B2"/>
<circle cx="583" cy="43" r="3" fill="#CC79A7"/>
<circle cx="583" cy="339" r="3" fill="#D55E00"/>
<circle cx="583" cy="281" r="3" fill="#009E73"/>
<circle cx="583" cy="260" r="3" fill="#984EA3"/>
<circle cx="583" cy="41" r="3" fill="#56B4E9"/>
<circle cx="583" cy="59" r="3" fill="#E69F00"/>
<circle cx="583" cy="335" r="3" fill="#C44E52"/>
<circle cx="583" cy="309" r="3" fill="#8C564B"/>
<circle cx="583" cy="250" r="3" fill="#000000"/>
<circle cx="656" cy="52" r="3" fill="#0072B2"/>
<circle cx="656" cy="40" r="3" fill="#CC79A7"/>
<circle cx="656" cy="339" r="3" fill="#D55E00"/>
<circle cx="656" cy="281" r="3" fill="#009E73"/>
<circle cx="656" cy="260" r="3" fill="#984EA3"/>
<circle cx="656" cy="41" r="3" fill="#56B4E9"/>
<circle cx="656" cy="59" r="3" fill="#E69F00"/>
<circle cx="656" cy="336" r="3" fill="#C44E52"/>
<circle cx="656" cy="309" r="3" fill="#8C564B"/>
<circle cx="656" cy="253" r="3" fill="#000000"/>
<circle cx="730" cy="57" r="3" fill="#0072B2"/>
<circle cx="730" cy="44" r="3" fill="#CC79A7"/>
<circle cx="730" cy="339" r="3" fill="#D55E00"/>
<circle cx="730" cy="281" r="3" fill="#009E73"/>
<circle cx="730" cy="260" r="3" fill="#984EA3"/>
<circle cx="730" cy="40" r="3" fill="#56B4E9"/>
<circle cx="730" cy="59" r="3" fill="#E69F00"/>
<circle cx="730" cy="337" r="3" fill="#C44E52"/>
<circle cx="730" cy="309" r="3" fill="#8C564B"/>
<circle cx="730" cy="258" r="3" fill="#000000"/>
<circle cx="72" cy="20" r="4" fill="#0072B2"/>
<text x="80" y="24" text-anchor="start" font-size="12" fill="#0072B2">inte</text>
<circle cx="125" cy="20" r="4" fill="#CC79A7"/>
<text x="133" y="24" text-anchor="start" font-size="12" fill="#CC79A7">comp</text>
<circle cx="178" cy="20" r="4" fill="#D55E00"/>
<text x="186" y="24" text-anchor="start" font-size="12" fill="#D55E00">run</text>
<circle cx="224" cy="20" r="4" fill="#009E73"/>
<text x="232" y="24" text-anchor="start" font-size="12" fill="#009E73">wall</text>
<circle cx="277" cy="20" r="4" fill="#984EA3"/>
<text x="285" y="24" text-anchor="start" font-size="12" fill="#984EA3">self</text>
<circle cx="330" cy="20" r="4" fill="#56B4E9"/>
<text x="338" y="24" text-anchor="start" font-size="12" fill="#56B4E9">mem-inte</text>
<circle cx="411" cy="20" r="4" fill="#E69F00"/>
<text x="419" y="24" text-anchor="start" font-size="12" fill="#E69F00">mem-comp</text>
<circle cx="492" cy="20" r="4" fill="#C44E52"/>
<text x="500" y="24" text-anchor="start" font-size="12" fill="#C44E52">mem-run</text>
<circle cx="566" cy="20" r="4" fill="#8C564B"/>
<text x="574" y="24" text-anchor="start" font-size="12" fill="#8C564B">self-mem</text>
<circle cx="647" cy="20" r="4" fill="#000000"/>
<text x="655" y="24" text-anchor="start" font-size="12" fill="#000000">peak-mem</text>
</svg>
