<svg width="800" height="400" xmlns="http://www.w3.org/2000/svg">
<rect width="800" height="400" fill="white"/>
<line x1="70" y1="40" x2="70" y2="340" stroke="#333" stroke-width="1"/>
<line x1="70" y1="340" x2="730" y2="340" stroke="#333" stroke-width="1"/>
<line x1="730" y1="40" x2="730" y2="340" stroke="#333" stroke-width="1"/>
<text x="65" y="344" text-anchor="end" font-size="11" fill="#333">0</text>
<text x="65" y="194" text-anchor="end" font-size="11" fill="#333">133000</text>
<text x="65" y="44" text-anchor="end" font-size="11" fill="#333">266000</text>
<text x="15" y="190" text-anchor="middle" font-size="12" fill="#333" transform="rotate(-90 15 190)">ms</text>
<text x="735" y="344" text-anchor="start" font-size="11" fill="#333">0</text>
<text x="735" y="194" text-anchor="start" font-size="11" fill="#333">9746000000</text>
<text x="735" y="44" text-anchor="start" font-size="11" fill="#333">19492000000</text>
<text x="785" y="190" text-anchor="middle" font-size="12" fill="#333" transform="rotate(90 785 190)">bytes</text>
<polyline points="70,194 143,203 216,212 290,198 363,198 436,206 510,205 583,114 656,203 730,197" fill="none" stroke="#0072B2" stroke-width="2"/>
<polyline points="70,151 143,158 216,160 290,157 363,148 436,165 510,160 583,41 656,162 730,157" fill="none" stroke="#CC79A7" stroke-width="2"/>
<polyline points="70,340 143,340 216,339 290,340 363,339 436,340 510,340 583,339 656,340 730,340" fill="none" stroke="#D55E00" stroke-width="2"/>
<polyline points="70,298 143,301 216,302 290,300 363,300 436,302 510,301 583,276 656,301 730,300" fill="none" stroke="#009E73" stroke-width="2"/>
<polyline points="70,264 143,268 216,270 290,235 363,237 436,235 510,229 583,228 656,229 730,228" fill="none" stroke="#56B4E9" stroke-width="2"/>
<polyline points="70,258 143,258 216,258 290,229 363,229 436,230 510,225 583,224 656,226 730,224" fill="none" stroke="#E69F00" stroke-width="2"/>
<polyline points="70,339 143,338 216,338 290,339 363,338 436,339 510,339 583,337 656,339 730,339" fill="none" stroke="#C44E52" stroke-width="2"/>
<polyline points="70,124 143,129 216,116 290,53 363,70 436,66 510,58 583,49 656,59 730,41" fill="none" stroke="#000000" stroke-width="2"/>
<circle cx="70" cy="194" r="3" fill="#0072B2"/>
<circle cx="70" cy="151" r="3" fill="#CC79A7"/>
<circle cx="70" cy="340" r="3" fill="#D55E00"/>
<circle cx="70" cy="298" r="3" fill="#009E73"/>
<circle cx="70" cy="264" r="3" fill="#56B4E9"/>
<circle cx="70" cy="258" r="3" fill="#E69F00"/>
<circle cx="70" cy="339" r="3" fill="#C44E52"/>
<circle cx="70" cy="124" r="3" fill="#000000"/>
<circle cx="143" cy="203" r="3" fill="#0072B2"/>
<circle cx="143" cy="158" r="3" fill="#CC79A7"/>
<circle cx="143" cy="340" r="3" fill="#D55E00"/>
<circle cx="143" cy="301" r="3" fill="#009E73"/>
<circle cx="143" cy="268" r="3" fill="#56B4E9"/>
<circle cx="143" cy="258" r="3" fill="#E69F00"/>
<circle cx="143" cy="338" r="3" fill="#C44E52"/>
<circle cx="143" cy="129" r="3" fill="#000000"/>
<circle cx="216" cy="212" r="3" fill="#0072B2"/>
<circle cx="216" cy="160" r="3" fill="#CC79A7"/>
<circle cx="216" cy="339" r="3" fill="#D55E00"/>
<circle cx="216" cy="302" r="3" fill="#009E73"/>
<circle cx="216" cy="270" r="3" fill="#56B4E9"/>
<circle cx="216" cy="258" r="3" fill="#E69F00"/>
<circle cx="216" cy="338" r="3" fill="#C44E52"/>
<circle cx="216" cy="116" r="3" fill="#000000"/>
<circle cx="290" cy="198" r="3" fill="#0072B2"/>
<circle cx="290" cy="157" r="3" fill="#CC79A7"/>
<circle cx="290" cy="340" r="3" fill="#D55E00"/>
<circle cx="290" cy="300" r="3" fill="#009E73"/>
<circle cx="290" cy="235" r="3" fill="#56B4E9"/>
<circle cx="290" cy="229" r="3" fill="#E69F00"/>
<circle cx="290" cy="339" r="3" fill="#C44E52"/>
<circle cx="290" cy="53" r="3" fill="#000000"/>
<circle cx="363" cy="198" r="3" fill="#0072B2"/>
<circle cx="363" cy="148" r="3" fill="#CC79A7"/>
<circle cx="363" cy="339" r="3" fill="#D55E00"/>
<circle cx="363" cy="300" r="3" fill="#009E73"/>
<circle cx="363" cy="237" r="3" fill="#56B4E9"/>
<circle cx="363" cy="229" r="3" fill="#E69F00"/>
<circle cx="363" cy="338" r="3" fill="#C44E52"/>
<circle cx="363" cy="70" r="3" fill="#000000"/>
<circle cx="436" cy="206" r="3" fill="#0072B2"/>
<circle cx="436" cy="165" r="3" fill="#CC79A7"/>
<circle cx="436" cy="340" r="3" fill="#D55E00"/>
<circle cx="436" cy="302" r="3" fill="#009E73"/>
<circle cx="436" cy="235" r="3" fill="#56B4E9"/>
<circle cx="436" cy="230" r="3" fill="#E69F00"/>
<circle cx="436" cy="339" r="3" fill="#C44E52"/>
<circle cx="436" cy="66" r="3" fill="#000000"/>
<circle cx="510" cy="205" r="3" fill="#0072B2"/>
<circle cx="510" cy="160" r="3" fill="#CC79A7"/>
<circle cx="510" cy="340" r="3" fill="#D55E00"/>
<circle cx="510" cy="301" r="3" fill="#009E73"/>
<circle cx="510" cy="229" r="3" fill="#56B4E9"/>
<circle cx="510" cy="225" r="3" fill="#E69F00"/>
<circle cx="510" cy="339" r="3" fill="#C44E52"/>
<circle cx="510" cy="58" r="3" fill="#000000"/>
<circle cx="583" cy="114" r="3" fill="#0072B2"/>
<circle cx="583" cy="41" r="3" fill="#CC79A7"/>
<circle cx="583" cy="339" r="3" fill="#D55E00"/>
<circle cx="583" cy="276" r="3" fill="#009E73"/>
<circle cx="583" cy="228" r="3" fill="#56B4E9"/>
<circle cx="583" cy="224" r="3" fill="#E69F00"/>
<circle cx="583" cy="337" r="3" fill="#C44E52"/>
<circle cx="583" cy="49" r="3" fill="#000000"/>
<circle cx="656" cy="203" r="3" fill="#0072B2"/>
<circle cx="656" cy="162" r="3" fill="#CC79A7"/>
<circle cx="656" cy="340" r="3" fill="#D55E00"/>
<circle cx="656" cy="301" r="3" fill="#009E73"/>
<circle cx="656" cy="229" r="3" fill="#56B4E9"/>
<circle cx="656" cy="226" r="3" fill="#E69F00"/>
<circle cx="656" cy="339" r="3" fill="#C44E52"/>
<circle cx="656" cy="59" r="3" fill="#000000"/>
<circle cx="730" cy="197" r="3" fill="#0072B2"/>
<circle cx="730" cy="157" r="3" fill="#CC79A7"/>
<circle cx="730" cy="340" r="3" fill="#D55E00"/>
<circle cx="730" cy="300" r="3" fill="#009E73"/>
<circle cx="730" cy="228" r="3" fill="#56B4E9"/>
<circle cx="730" cy="224" r="3" fill="#E69F00"/>
<circle cx="730" cy="339" r="3" fill="#C44E52"/>
<circle cx="730" cy="41" r="3" fill="#000000"/>
<circle cx="90" cy="20" r="4" fill="#0072B2"/>
<text x="98" y="24" text-anchor="start" font-size="12" fill="#0072B2">inte</text>
<circle cx="150" cy="20" r="4" fill="#CC79A7"/>
<text x="158" y="24" text-anchor="start" font-size="12" fill="#CC79A7">comp</text>
<circle cx="215" cy="20" r="4" fill="#D55E00"/>
<text x="223" y="24" text-anchor="start" font-size="12" fill="#D55E00">run</text>
<circle cx="270" cy="20" r="4" fill="#009E73"/>
<text x="278" y="24" text-anchor="start" font-size="12" fill="#009E73">wall</text>
<circle cx="335" cy="20" r="4" fill="#56B4E9"/>
<text x="343" y="24" text-anchor="start" font-size="12" fill="#56B4E9">mem-inte</text>
<circle cx="425" cy="20" r="4" fill="#E69F00"/>
<text x="433" y="24" text-anchor="start" font-size="12" fill="#E69F00">mem-comp</text>
<circle cx="520" cy="20" r="4" fill="#C44E52"/>
<text x="528" y="24" text-anchor="start" font-size="12" fill="#C44E52">mem-run</text>
<circle cx="605" cy="20" r="4" fill="#000000"/>
<text x="613" y="24" text-anchor="start" font-size="12" fill="#000000">mem-total</text>
</svg>
