<svg width="800" height="400" xmlns="http://www.w3.org/2000/svg">
<rect width="800" height="400" fill="white"/>
<line x1="70" y1="40" x2="70" y2="340" stroke="#333" stroke-width="1"/>
<line x1="70" y1="340" x2="780" y2="340" stroke="#333" stroke-width="1"/>
<text x="65" y="344" text-anchor="end" font-size="11" fill="#333">0</text>
<text x="65" y="194" text-anchor="end" font-size="11" fill="#333">34000</text>
<text x="65" y="44" text-anchor="end" font-size="11" fill="#333">68000</text>
<text x="15" y="190" text-anchor="middle" font-size="12" fill="#333" transform="rotate(-90 15 190)">ms</text>
<polyline points="70,52 148,56 227,51 306,49 385,51 464,50 543,51 622,45 701,46 780,43" fill="none" stroke="#0072B2" stroke-width="2"/>
<polyline points="70,233 148,234 227,230 306,233 385,234 464,233 543,233 622,228 701,229 780,227" fill="none" stroke="#D55E00" stroke-width="2"/>
<polyline points="70,70 148,72 227,67 306,68 385,71 464,66 543,67 622,61 701,61 780,63" fill="none" stroke="#CC79A7" stroke-width="2"/>
<polyline points="70,237 148,237 227,232 306,237 385,237 464,235 543,237 622,233 701,234 780,231" fill="none" stroke="#E69F00" stroke-width="2"/>
<polyline points="70,113 148,116 227,112 306,112 385,112 464,110 543,112 622,109 701,111 780,113" fill="none" stroke="#009E73" stroke-width="2"/>
<circle cx="70" cy="52" r="3" fill="#0072B2"/>
<circle cx="70" cy="233" r="3" fill="#D55E00"/>
<circle cx="70" cy="70" r="3" fill="#CC79A7"/>
<circle cx="70" cy="237" r="3" fill="#E69F00"/>
<circle cx="70" cy="113" r="3" fill="#009E73"/>
<circle cx="148" cy="56" r="3" fill="#0072B2"/>
<circle cx="148" cy="234" r="3" fill="#D55E00"/>
<circle cx="148" cy="72" r="3" fill="#CC79A7"/>
<circle cx="148" cy="237" r="3" fill="#E69F00"/>
<circle cx="148" cy="116" r="3" fill="#009E73"/>
<circle cx="227" cy="51" r="3" fill="#0072B2"/>
<circle cx="227" cy="230" r="3" fill="#D55E00"/>
<circle cx="227" cy="67" r="3" fill="#CC79A7"/>
<circle cx="227" cy="232" r="3" fill="#E69F00"/>
<circle cx="227" cy="112" r="3" fill="#009E73"/>
<circle cx="306" cy="49" r="3" fill="#0072B2"/>
<circle cx="306" cy="233" r="3" fill="#D55E00"/>
<circle cx="306" cy="68" r="3" fill="#CC79A7"/>
<circle cx="306" cy="237" r="3" fill="#E69F00"/>
<circle cx="306" cy="112" r="3" fill="#009E73"/>
<circle cx="385" cy="51" r="3" fill="#0072B2"/>
<circle cx="385" cy="234" r="3" fill="#D55E00"/>
<circle cx="385" cy="71" r="3" fill="#CC79A7"/>
<circle cx="385" cy="237" r="3" fill="#E69F00"/>
<circle cx="385" cy="112" r="3" fill="#009E73"/>
<circle cx="464" cy="50" r="3" fill="#0072B2"/>
<circle cx="464" cy="233" r="3" fill="#D55E00"/>
<circle cx="464" cy="66" r="3" fill="#CC79A7"/>
<circle cx="464" cy="235" r="3" fill="#E69F00"/>
<circle cx="464" cy="110" r="3" fill="#009E73"/>
<circle cx="543" cy="51" r="3" fill="#0072B2"/>
<circle cx="543" cy="233" r="3" fill="#D55E00"/>
<circle cx="543" cy="67" r="3" fill="#CC79A7"/>
<circle cx="543" cy="237" r="3" fill="#E69F00"/>
<circle cx="543" cy="112" r="3" fill="#009E73"/>
<circle cx="622" cy="45" r="3" fill="#0072B2"/>
<circle cx="622" cy="228" r="3" fill="#D55E00"/>
<circle cx="622" cy="61" r="3" fill="#CC79A7"/>
<circle cx="622" cy="233" r="3" fill="#E69F00"/>
<circle cx="622" cy="109" r="3" fill="#009E73"/>
<circle cx="701" cy="46" r="3" fill="#0072B2"/>
<circle cx="701" cy="229" r="3" fill="#D55E00"/>
<circle cx="701" cy="61" r="3" fill="#CC79A7"/>
<circle cx="701" cy="234" r="3" fill="#E69F00"/>
<circle cx="701" cy="111" r="3" fill="#009E73"/>
<circle cx="780" cy="43" r="3" fill="#0072B2"/>
<circle cx="780" cy="227" r="3" fill="#D55E00"/>
<circle cx="780" cy="63" r="3" fill="#CC79A7"/>
<circle cx="780" cy="231" r="3" fill="#E69F00"/>
<circle cx="780" cy="113" r="3" fill="#009E73"/>
<circle cx="90" cy="20" r="4" fill="#0072B2"/>
<text x="98" y="24" text-anchor="start" font-size="12" fill="#0072B2">ctil-i</text>
<circle cx="160" cy="20" r="4" fill="#D55E00"/>
<text x="168" y="24" text-anchor="start" font-size="12" fill="#D55E00">ctil-r</text>
<circle cx="230" cy="20" r="4" fill="#CC79A7"/>
<text x="238" y="24" text-anchor="start" font-size="12" fill="#CC79A7">til-i</text>
<circle cx="290" cy="20" r="4" fill="#E69F00"/>
<text x="298" y="24" text-anchor="start" font-size="12" fill="#E69F00">til-r</text>
<circle cx="350" cy="20" r="4" fill="#009E73"/>
<text x="358" y="24" text-anchor="start" font-size="12" fill="#009E73">Wall</text>
</svg>
