<svg width="800" height="400" xmlns="http://www.w3.org/2000/svg">
<rect width="800" height="400" fill="white"/>
<line x1="70" y1="40" x2="70" y2="340" stroke="#333" stroke-width="1"/>
<line x1="70" y1="340" x2="730" y2="340" stroke="#333" stroke-width="1"/>
<line x1="730" y1="40" x2="730" y2="340" stroke="#333" stroke-width="1"/>
<text x="65" y="344" text-anchor="end" font-size="11" fill="#333">0</text>
<text x="65" y="194" text-anchor="end" font-size="11" fill="#333">71500</text>
<text x="65" y="44" text-anchor="end" font-size="11" fill="#333">143000</text>
<text x="15" y="190" text-anchor="middle" font-size="12" fill="#333" transform="rotate(-90 15 190)">ms</text>
<text x="735" y="344" text-anchor="start" font-size="11" fill="#333">0</text>
<text x="735" y="194" text-anchor="start" font-size="11" fill="#333">5990000000</text>
<text x="735" y="44" text-anchor="start" font-size="11" fill="#333">11980000000</text>
<text x="785" y="190" text-anchor="middle" font-size="12" fill="#333" transform="rotate(90 785 190)">bytes</text>
<polyline points="70,114 143,112 216,111 290,103 363,102 436,98 510,104 583,114 656,110 730,109" fill="none" stroke="#0072B2" stroke-width="2"/>
<polyline points="70,83 143,84 216,81 290,74 363,45 436,41 510,47 583,88 656,79 730,79" fill="none" stroke="#CC79A7" stroke-width="2"/>
<polyline points="70,340 143,340 216,340 290,340 363,340 436,340 510,340 583,340 656,340 730,340" fill="none" stroke="#D55E00" stroke-width="2"/>
<polyline points="70,304 143,308 216,308 290,307 363,304 436,304 510,305 583,308 656,307 730,308" fill="none" stroke="#009E73" stroke-width="2"/>
<polyline points="70,260 143,255 216,257 290,254 363,249 436,255 510,258 583,260 656,258 730,262" fill="none" stroke="#56B4E9" stroke-width="2"/>
<polyline points="70,198 143,193 216,194 290,194 363,196 436,198 510,196 583,199 656,198 730,199" fill="none" stroke="#E69F00" stroke-width="2"/>
<polyline points="70,340 143,340 216,340 290,340 363,340 436,340 510,340 583,340 656,340 730,340" fill="none" stroke="#C44E52" stroke-width="2"/>
<polyline points="70,54 143,45 216,48 290,44 363,41 436,49 510,51 583,56 656,53 730,58" fill="none" stroke="#000000" stroke-width="2"/>
<circle cx="70" cy="114" r="3" fill="#0072B2"/>
<circle cx="70" cy="83" r="3" fill="#CC79A7"/>
<circle cx="70" cy="340" r="3" fill="#D55E00"/>
<circle cx="70" cy="304" r="3" fill="#009E73"/>
<circle cx="70" cy="260" r="3" fill="#56B4E9"/>
<circle cx="70" cy="198" r="3" fill="#E69F00"/>
<circle cx="70" cy="340" r="3" fill="#C44E52"/>
<circle cx="70" cy="54" r="3" fill="#000000"/>
<circle cx="143" cy="112" r="3" fill="#0072B2"/>
<circle cx="143" cy="84" r="3" fill="#CC79A7"/>
<circle cx="143" cy="340" r="3" fill="#D55E00"/>
<circle cx="143" cy="308" r="3" fill="#009E73"/>
<circle cx="143" cy="255" r="3" fill="#56B4E9"/>
<circle cx="143" cy="193" r="3" fill="#E69F00"/>
<circle cx="143" cy="340" r="3" fill="#C44E52"/>
<circle cx="143" cy="45" r="3" fill="#000000"/>
<circle cx="216" cy="111" r="3" fill="#0072B2"/>
<circle cx="216" cy="81" r="3" fill="#CC79A7"/>
<circle cx="216" cy="340" r="3" fill="#D55E00"/>
<circle cx="216" cy="308" r="3" fill="#009E73"/>
<circle cx="216" cy="257" r="3" fill="#56B4E9"/>
<circle cx="216" cy="194" r="3" fill="#E69F00"/>
<circle cx="216" cy="340" r="3" fill="#C44E52"/>
<circle cx="216" cy="48" r="3" fill="#000000"/>
<circle cx="290" cy="103" r="3" fill="#0072B2"/>
<circle cx="290" cy="74" r="3" fill="#CC79A7"/>
<circle cx="290" cy="340" r="3" fill="#D55E00"/>
<circle cx="290" cy="307" r="3" fill="#009E73"/>
<circle cx="290" cy="254" r="3" fill="#56B4E9"/>
<circle cx="290" cy="194" r="3" fill="#E69F00"/>
<circle cx="290" cy="340" r="3" fill="#C44E52"/>
<circle cx="290" cy="44" r="3" fill="#000000"/>
<circle cx="363" cy="102" r="3" fill="#0072B2"/>
<circle cx="363" cy="45" r="3" fill="#CC79A7"/>
<circle cx="363" cy="340" r="3" fill="#D55E00"/>
<circle cx="363" cy="304" r="3" fill="#009E73"/>
<circle cx="363" cy="249" r="3" fill="#56B4E9"/>
<circle cx="363" cy="196" r="3" fill="#E69F00"/>
<circle cx="363" cy="340" r="3" fill="#C44E52"/>
<circle cx="363" cy="41" r="3" fill="#000000"/>
<circle cx="436" cy="98" r="3" fill="#0072B2"/>
<circle cx="436" cy="41" r="3" fill="#CC79A7"/>
<circle cx="436" cy="340" r="3" fill="#D55E00"/>
<circle cx="436" cy="304" r="3" fill="#009E73"/>
<circle cx="436" cy="255" r="3" fill="#56B4E9"/>
<circle cx="436" cy="198" r="3" fill="#E69F00"/>
<circle cx="436" cy="340" r="3" fill="#C44E52"/>
<circle cx="436" cy="49" r="3" fill="#000000"/>
<circle cx="510" cy="104" r="3" fill="#0072B2"/>
<circle cx="510" cy="47" r="3" fill="#CC79A7"/>
<circle cx="510" cy="340" r="3" fill="#D55E00"/>
<circle cx="510" cy="305" r="3" fill="#009E73"/>
<circle cx="510" cy="258" r="3" fill="#56B4E9"/>
<circle cx="510" cy="196" r="3" fill="#E69F00"/>
<circle cx="510" cy="340" r="3" fill="#C44E52"/>
<circle cx="510" cy="51" r="3" fill="#000000"/>
<circle cx="583" cy="114" r="3" fill="#0072B2"/>
<circle cx="583" cy="88" r="3" fill="#CC79A7"/>
<circle cx="583" cy="340" r="3" fill="#D55E00"/>
<circle cx="583" cy="308" r="3" fill="#009E73"/>
<circle cx="583" cy="260" r="3" fill="#56B4E9"/>
<circle cx="583" cy="199" r="3" fill="#E69F00"/>
<circle cx="583" cy="340" r="3" fill="#C44E52"/>
<circle cx="583" cy="56" r="3" fill="#000000"/>
<circle cx="656" cy="110" r="3" fill="#0072B2"/>
<circle cx="656" cy="79" r="3" fill="#CC79A7"/>
<circle cx="656" cy="340" r="3" fill="#D55E00"/>
<circle cx="656" cy="307" r="3" fill="#009E73"/>
<circle cx="656" cy="258" r="3" fill="#56B4E9"/>
<circle cx="656" cy="198" r="3" fill="#E69F00"/>
<circle cx="656" cy="340" r="3" fill="#C44E52"/>
<circle cx="656" cy="53" r="3" fill="#000000"/>
<circle cx="730" cy="109" r="3" fill="#0072B2"/>
<circle cx="730" cy="79" r="3" fill="#CC79A7"/>
<circle cx="730" cy="340" r="3" fill="#D55E00"/>
<circle cx="730" cy="308" r="3" fill="#009E73"/>
<circle cx="730" cy="262" r="3" fill="#56B4E9"/>
<circle cx="730" cy="199" r="3" fill="#E69F00"/>
<circle cx="730" cy="340" r="3" fill="#C44E52"/>
<circle cx="730" cy="58" r="3" fill="#000000"/>
<circle cx="90" cy="20" r="4" fill="#0072B2"/>
<text x="98" y="24" text-anchor="start" font-size="12" fill="#0072B2">inte</text>
<circle cx="150" cy="20" r="4" fill="#CC79A7"/>
<text x="158" y="24" text-anchor="start" font-size="12" fill="#CC79A7">comp</text>
<circle cx="215" cy="20" r="4" fill="#D55E00"/>
<text x="223" y="24" text-anchor="start" font-size="12" fill="#D55E00">run</text>
<circle cx="270" cy="20" r="4" fill="#009E73"/>
<text x="278" y="24" text-anchor="start" font-size="12" fill="#009E73">wall</text>
<circle cx="335" cy="20" r="4" fill="#56B4E9"/>
<text x="343" y="24" text-anchor="start" font-size="12" fill="#56B4E9">mem-inte</text>
<circle cx="425" cy="20" r="4" fill="#E69F00"/>
<text x="433" y="24" text-anchor="start" font-size="12" fill="#E69F00">mem-comp</text>
<circle cx="520" cy="20" r="4" fill="#C44E52"/>
<text x="528" y="24" text-anchor="start" font-size="12" fill="#C44E52">mem-run</text>
<circle cx="605" cy="20" r="4" fill="#000000"/>
<text x="613" y="24" text-anchor="start" font-size="12" fill="#000000">mem-total</text>
</svg>
