<svg width="800" height="400" xmlns="http://www.w3.org/2000/svg">
<rect width="800" height="400" fill="white"/>
<line x1="70" y1="40" x2="70" y2="340" stroke="#333" stroke-width="1"/>
<line x1="70" y1="340" x2="730" y2="340" stroke="#333" stroke-width="1"/>
<line x1="730" y1="40" x2="730" y2="340" stroke="#333" stroke-width="1"/>
<text x="65" y="344" text-anchor="end" font-size="11" fill="#333">0</text>
<text x="65" y="194" text-anchor="end" font-size="11" fill="#333">86500</text>
<text x="65" y="44" text-anchor="end" font-size="11" fill="#333">173000</text>
<text x="15" y="190" text-anchor="middle" font-size="12" fill="#333" transform="rotate(-90 15 190)">ms</text>
<text x="735" y="344" text-anchor="start" font-size="11" fill="#333">0</text>
<text x="735" y="194" text-anchor="start" font-size="11" fill="#333">6875500000</text>
<text x="735" y="44" text-anchor="start" font-size="11" fill="#333">13751000000</text>
<text x="785" y="190" text-anchor="middle" font-size="12" fill="#333" transform="rotate(90 785 190)">bytes</text>
<polyline points="70,109 143,109 216,109 290,105 363,102 436,101 510,101 583,102 656,74 730,74" fill="none" stroke="#0072B2" stroke-width="2"/>
<polyline points="70,72 143,70 216,71 290,70 363,64 436,63 510,63 583,61 656,41 730,42" fill="none" stroke="#CC79A7" stroke-width="2"/>
<polyline points="70,340 143,340 216,340 290,340 363,340 436,340 510,340 583,340 656,340 730,340" fill="none" stroke="#D55E00" stroke-width="2"/>
<polyline points="70,303 143,303 216,304 290,302 363,303 436,303 510,303 583,303 656,301 730,301" fill="none" stroke="#009E73" stroke-width="2"/>
<polyline points="70,294 143,294 216,294 290,294 363,293 436,293 510,293 583,292 656,285 730,285" fill="none" stroke="#56B4E9" stroke-width="2"/>
<polyline points="70,217 143,216 216,216 290,216 363,214 436,214 510,214 583,214 656,206 730,206" fill="none" stroke="#E69F00" stroke-width="2"/>
<polyline points="70,340 143,340 216,340 290,340 363,340 436,340 510,340 583,340 656,340 730,340" fill="none" stroke="#C44E52" stroke-width="2"/>
<polyline points="70,58 143,58 216,57 290,57 363,54 436,53 510,56 583,54 656,41 730,41" fill="none" stroke="#000000" stroke-width="2"/>
<circle cx="70" cy="109" r="3" fill="#0072B2"/>
<circle cx="70" cy="72" r="3" fill="#CC79A7"/>
<circle cx="70" cy="340" r="3" fill="#D55E00"/>
<circle cx="70" cy="303" r="3" fill="#009E73"/>
<circle cx="70" cy="294" r="3" fill="#56B4E9"/>
<circle cx="70" cy="217" r="3" fill="#E69F00"/>
<circle cx="70" cy="340" r="3" fill="#C44E52"/>
<circle cx="70" cy="58" r="3" fill="#000000"/>
<circle cx="143" cy="109" r="3" fill="#0072B2"/>
<circle cx="143" cy="70" r="3" fill="#CC79A7"/>
<circle cx="143" cy="340" r="3" fill="#D55E00"/>
<circle cx="143" cy="303" r="3" fill="#009E73"/>
<circle cx="143" cy="294" r="3" fill="#56B4E9"/>
<circle cx="143" cy="216" r="3" fill="#E69F00"/>
<circle cx="143" cy="340" r="3" fill="#C44E52"/>
<circle cx="143" cy="58" r="3" fill="#000000"/>
<circle cx="216" cy="109" r="3" fill="#0072B2"/>
<circle cx="216" cy="71" r="3" fill="#CC79A7"/>
<circle cx="216" cy="340" r="3" fill="#D55E00"/>
<circle cx="216" cy="304" r="3" fill="#009E73"/>
<circle cx="216" cy="294" r="3" fill="#56B4E9"/>
<circle cx="216" cy="216" r="3" fill="#E69F00"/>
<circle cx="216" cy="340" r="3" fill="#C44E52"/>
<circle cx="216" cy="57" r="3" fill="#000000"/>
<circle cx="290" cy="105" r="3" fill="#0072B2"/>
<circle cx="290" cy="70" r="3" fill="#CC79A7"/>
<circle cx="290" cy="340" r="3" fill="#D55E00"/>
<circle cx="290" cy="302" r="3" fill="#009E73"/>
<circle cx="290" cy="294" r="3" fill="#56B4E9"/>
<circle cx="290" cy="216" r="3" fill="#E69F00"/>
<circle cx="290" cy="340" r="3" fill="#C44E52"/>
<circle cx="290" cy="57" r="3" fill="#000000"/>
<circle cx="363" cy="102" r="3" fill="#0072B2"/>
<circle cx="363" cy="64" r="3" fill="#CC79A7"/>
<circle cx="363" cy="340" r="3" fill="#D55E00"/>
<circle cx="363" cy="303" r="3" fill="#009E73"/>
<circle cx="363" cy="293" r="3" fill="#56B4E9"/>
<circle cx="363" cy="214" r="3" fill="#E69F00"/>
<circle cx="363" cy="340" r="3" fill="#C44E52"/>
<circle cx="363" cy="54" r="3" fill="#000000"/>
<circle cx="436" cy="101" r="3" fill="#0072B2"/>
<circle cx="436" cy="63" r="3" fill="#CC79A7"/>
<circle cx="436" cy="340" r="3" fill="#D55E00"/>
<circle cx="436" cy="303" r="3" fill="#009E73"/>
<circle cx="436" cy="293" r="3" fill="#56B4E9"/>
<circle cx="436" cy="214" r="3" fill="#E69F00"/>
<circle cx="436" cy="340" r="3" fill="#C44E52"/>
<circle cx="436" cy="53" r="3" fill="#000000"/>
<circle cx="510" cy="101" r="3" fill="#0072B2"/>
<circle cx="510" cy="63" r="3" fill="#CC79A7"/>
<circle cx="510" cy="340" r="3" fill="#D55E00"/>
<circle cx="510" cy="303" r="3" fill="#009E73"/>
<circle cx="510" cy="293" r="3" fill="#56B4E9"/>
<circle cx="510" cy="214" r="3" fill="#E69F00"/>
<circle cx="510" cy="340" r="3" fill="#C44E52"/>
<circle cx="510" cy="56" r="3" fill="#000000"/>
<circle cx="583" cy="102" r="3" fill="#0072B2"/>
<circle cx="583" cy="61" r="3" fill="#CC79A7"/>
<circle cx="583" cy="340" r="3" fill="#D55E00"/>
<circle cx="583" cy="303" r="3" fill="#009E73"/>
<circle cx="583" cy="292" r="3" fill="#56B4E9"/>
<circle cx="583" cy="214" r="3" fill="#E69F00"/>
<circle cx="583" cy="340" r="3" fill="#C44E52"/>
<circle cx="583" cy="54" r="3" fill="#000000"/>
<circle cx="656" cy="74" r="3" fill="#0072B2"/>
<circle cx="656" cy="41" r="3" fill="#CC79A7"/>
<circle cx="656" cy="340" r="3" fill="#D55E00"/>
<circle cx="656" cy="301" r="3" fill="#009E73"/>
<circle cx="656" cy="285" r="3" fill="#56B4E9"/>
<circle cx="656" cy="206" r="3" fill="#E69F00"/>
<circle cx="656" cy="340" r="3" fill="#C44E52"/>
<circle cx="656" cy="41" r="3" fill="#000000"/>
<circle cx="730" cy="74" r="3" fill="#0072B2"/>
<circle cx="730" cy="42" r="3" fill="#CC79A7"/>
<circle cx="730" cy="340" r="3" fill="#D55E00"/>
<circle cx="730" cy="301" r="3" fill="#009E73"/>
<circle cx="730" cy="285" r="3" fill="#56B4E9"/>
<circle cx="730" cy="206" r="3" fill="#E69F00"/>
<circle cx="730" cy="340" r="3" fill="#C44E52"/>
<circle cx="730" cy="41" r="3" fill="#000000"/>
<circle cx="90" cy="20" r="4" fill="#0072B2"/>
<text x="98" y="24" text-anchor="start" font-size="12" fill="#0072B2">inte</text>
<circle cx="150" cy="20" r="4" fill="#CC79A7"/>
<text x="158" y="24" text-anchor="start" font-size="12" fill="#CC79A7">comp</text>
<circle cx="215" cy="20" r="4" fill="#D55E00"/>
<text x="223" y="24" text-anchor="start" font-size="12" fill="#D55E00">run</text>
<circle cx="270" cy="20" r="4" fill="#009E73"/>
<text x="278" y="24" text-anchor="start" font-size="12" fill="#009E73">wall</text>
<circle cx="335" cy="20" r="4" fill="#56B4E9"/>
<text x="343" y="24" text-anchor="start" font-size="12" fill="#56B4E9">mem-inte</text>
<circle cx="425" cy="20" r="4" fill="#E69F00"/>
<text x="433" y="24" text-anchor="start" font-size="12" fill="#E69F00">mem-comp</text>
<circle cx="520" cy="20" r="4" fill="#C44E52"/>
<text x="528" y="24" text-anchor="start" font-size="12" fill="#C44E52">mem-run</text>
<circle cx="605" cy="20" r="4" fill="#000000"/>
<text x="613" y="24" text-anchor="start" font-size="12" fill="#000000">mem-total</text>
</svg>
