<svg width="800" height="400" xmlns="http://www.w3.org/2000/svg">
<rect width="800" height="400" fill="white"/>
<line x1="70" y1="40" x2="70" y2="340" stroke="#333" stroke-width="1"/>
<line x1="70" y1="340" x2="730" y2="340" stroke="#333" stroke-width="1"/>
<line x1="730" y1="40" x2="730" y2="340" stroke="#333" stroke-width="1"/>
<text x="65" y="344" text-anchor="end" font-size="11" fill="#333">0</text>
<text x="65" y="194" text-anchor="end" font-size="11" fill="#333">485500</text>
<text x="65" y="44" text-anchor="end" font-size="11" fill="#333">971000</text>
<text x="15" y="190" text-anchor="middle" font-size="12" fill="#333" transform="rotate(-90 15 190)">ms</text>
<text x="735" y="344" text-anchor="start" font-size="11" fill="#333">0</text>
<text x="735" y="194" text-anchor="start" font-size="11" fill="#333">61136000000</text>
<text x="735" y="44" text-anchor="start" font-size="11" fill="#333">122272000000</text>
<text x="785" y="190" text-anchor="middle" font-size="12" fill="#333" transform="rotate(90 785 190)">bytes</text>
<polyline points="70,84 143,101 216,100 290,87 363,88 436,86 510,91 583,85 656,85 730,76" fill="none" stroke="#0072B2" stroke-width="2"/>
<polyline points="70,41 143,65 216,65 290,51 363,55 436,52 510,53 583,52 656,49 730,45" fill="none" stroke="#CC79A7" stroke-width="2"/>
<polyline points="70,340 143,340 216,340 290,340 363,340 436,340 510,340 583,340 656,340 730,340" fill="none" stroke="#D55E00" stroke-width="2"/>
<polyline points="70,304 143,307 216,307 290,305 363,306 436,305 510,306 583,305 656,305 730,304" fill="none" stroke="#009E73" stroke-width="2"/>
<polyline points="70,166 143,176 216,175 290,173 363,174 436,172 510,172 583,172 656,172 730,171" fill="none" stroke="#984EA3" stroke-width="2"/>
<polyline points="70,58 143,54 216,56 290,53 363,51 436,52 510,53 583,53 656,53 730,50" fill="none" stroke="#56B4E9" stroke-width="2"/>
<polyline points="70,48 143,50 216,47 290,45 363,44 436,45 510,44 583,46 656,45 730,41" fill="none" stroke="#E69F00" stroke-width="2"/>
<polyline points="70,339 143,339 216,339 290,339 363,339 436,339 510,339 583,339 656,339 730,338" fill="none" stroke="#C44E52" stroke-width="2"/>
<polyline points="70,294 143,294 216,293 290,294 363,294 436,293 510,294 583,294 656,294 730,293" fill="none" stroke="#8C564B" stroke-width="2"/>
<circle cx="70" cy="84" r="3" fill="#0072B2"/>
<circle cx="70" cy="41" r="3" fill="#CC79A7"/>
<circle cx="70" cy="340" r="3" fill="#D55E00"/>
<circle cx="70" cy="304" r="3" fill="#009E73"/>
<circle cx="70" cy="166" r="3" fill="#984EA3"/>
<circle cx="70" cy="58" r="3" fill="#56B4E9"/>
<circle cx="70" cy="48" r="3" fill="#E69F00"/>
<circle cx="70" cy="339" r="3" fill="#C44E52"/>
<circle cx="70" cy="294" r="3" fill="#8C564B"/>
<circle cx="143" cy="101" r="3" fill="#0072B2"/>
<circle cx="143" cy="65" r="3" fill="#CC79A7"/>
<circle cx="143" cy="340" r="3" fill="#D55E00"/>
<circle cx="143" cy="307" r="3" fill="#009E73"/>
<circle cx="143" cy="176" r="3" fill="#984EA3"/>
<circle cx="143" cy="54" r="3" fill="#56B4E9"/>
<circle cx="143" cy="50" r="3" fill="#E69F00"/>
<circle cx="143" cy="339" r="3" fill="#C44E52"/>
<circle cx="143" cy="294" r="3" fill="#8C564B"/>
<circle cx="216" cy="100" r="3" fill="#0072B2"/>
<circle cx="216" cy="65" r="3" fill="#CC79A7"/>
<circle cx="216" cy="340" r="3" fill="#D55E00"/>
<circle cx="216" cy="307" r="3" fill="#009E73"/>
<circle cx="216" cy="175" r="3" fill="#984EA3"/>
<circle cx="216" cy="56" r="3" fill="#56B4E9"/>
<circle cx="216" cy="47" r="3" fill="#E69F00"/>
<circle cx="216" cy="339" r="3" fill="#C44E52"/>
<circle cx="216" cy="293" r="3" fill="#8C564B"/>
<circle cx="290" cy="87" r="3" fill="#0072B2"/>
<circle cx="290" cy="51" r="3" fill="#CC79A7"/>
<circle cx="290" cy="340" r="3" fill="#D55E00"/>
<circle cx="290" cy="305" r="3" fill="#009E73"/>
<circle cx="290" cy="173" r="3" fill="#984EA3"/>
<circle cx="290" cy="53" r="3" fill="#56B4E9"/>
<circle cx="290" cy="45" r="3" fill="#E69F00"/>
<circle cx="290" cy="339" r="3" fill="#C44E52"/>
<circle cx="290" cy="294" r="3" fill="#8C564B"/>
<circle cx="363" cy="88" r="3" fill="#0072B2"/>
<circle cx="363" cy="55" r="3" fill="#CC79A7"/>
<circle cx="363" cy="340" r="3" fill="#D55E00"/>
<circle cx="363" cy="306" r="3" fill="#009E73"/>
<circle cx="363" cy="174" r="3" fill="#984EA3"/>
<circle cx="363" cy="51" r="3" fill="#56B4E9"/>
<circle cx="363" cy="44" r="3" fill="#E69F00"/>
<circle cx="363" cy="339" r="3" fill="#C44E52"/>
<circle cx="363" cy="294" r="3" fill="#8C564B"/>
<circle cx="436" cy="86" r="3" fill="#0072B2"/>
<circle cx="436" cy="52" r="3" fill="#CC79A7"/>
<circle cx="436" cy="340" r="3" fill="#D55E00"/>
<circle cx="436" cy="305" r="3" fill="#009E73"/>
<circle cx="436" cy="172" r="3" fill="#984EA3"/>
<circle cx="436" cy="52" r="3" fill="#56B4E9"/>
<circle cx="436" cy="45" r="3" fill="#E69F00"/>
<circle cx="436" cy="339" r="3" fill="#C44E52"/>
<circle cx="436" cy="293" r="3" fill="#8C564B"/>
<circle cx="510" cy="91" r="3" fill="#0072B2"/>
<circle cx="510" cy="53" r="3" fill="#CC79A7"/>
<circle cx="510" cy="340" r="3" fill="#D55E00"/>
<circle cx="510" cy="306" r="3" fill="#009E73"/>
<circle cx="510" cy="172" r="3" fill="#984EA3"/>
<circle cx="510" cy="53" r="3" fill="#56B4E9"/>
<circle cx="510" cy="44" r="3" fill="#E69F00"/>
<circle cx="510" cy="339" r="3" fill="#C44E52"/>
<circle cx="510" cy="294" r="3" fill="#8C564B"/>
<circle cx="583" cy="85" r="3" fill="#0072B2"/>
<circle cx="583" cy="52" r="3" fill="#CC79A7"/>
<circle cx="583" cy="340" r="3" fill="#D55E00"/>
<circle cx="583" cy="305" r="3" fill="#009E73"/>
<circle cx="583" cy="172" r="3" fill="#984EA3"/>
<circle cx="583" cy="53" r="3" fill="#56B4E9"/>
<circle cx="583" cy="46" r="3" fill="#E69F00"/>
<circle cx="583" cy="339" r="3" fill="#C44E52"/>
<circle cx="583" cy="294" r="3" fill="#8C564B"/>
<circle cx="656" cy="85" r="3" fill="#0072B2"/>
<circle cx="656" cy="49" r="3" fill="#CC79A7"/>
<circle cx="656" cy="340" r="3" fill="#D55E00"/>
<circle cx="656" cy="305" r="3" fill="#009E73"/>
<circle cx="656" cy="172" r="3" fill="#984EA3"/>
<circle cx="656" cy="53" r="3" fill="#56B4E9"/>
<circle cx="656" cy="45" r="3" fill="#E69F00"/>
<circle cx="656" cy="339" r="3" fill="#C44E52"/>
<circle cx="656" cy="294" r="3" fill="#8C564B"/>
<circle cx="730" cy="76" r="3" fill="#0072B2"/>
<circle cx="730" cy="45" r="3" fill="#CC79A7"/>
<circle cx="730" cy="340" r="3" fill="#D55E00"/>
<circle cx="730" cy="304" r="3" fill="#009E73"/>
<circle cx="730" cy="171" r="3" fill="#984EA3"/>
<circle cx="730" cy="50" r="3" fill="#56B4E9"/>
<circle cx="730" cy="41" r="3" fill="#E69F00"/>
<circle cx="730" cy="338" r="3" fill="#C44E52"/>
<circle cx="730" cy="293" r="3" fill="#8C564B"/>
<circle cx="70" cy="20" r="4" fill="#0072B2"/>
<text x="78" y="24" text-anchor="start" font-size="12" fill="#0072B2">inte</text>
<circle cx="130" cy="20" r="4" fill="#CC79A7"/>
<text x="138" y="24" text-anchor="start" font-size="12" fill="#CC79A7">comp</text>
<circle cx="195" cy="20" r="4" fill="#D55E00"/>
<text x="203" y="24" text-anchor="start" font-size="12" fill="#D55E00">run</text>
<circle cx="250" cy="20" r="4" fill="#009E73"/>
<text x="258" y="24" text-anchor="start" font-size="12" fill="#009E73">wall</text>
<circle cx="315" cy="20" r="4" fill="#984EA3"/>
<text x="323" y="24" text-anchor="start" font-size="12" fill="#984EA3">self</text>
<circle cx="380" cy="20" r="4" fill="#56B4E9"/>
<text x="388" y="24" text-anchor="start" font-size="12" fill="#56B4E9">mem-inte</text>
<circle cx="470" cy="20" r="4" fill="#E69F00"/>
<text x="478" y="24" text-anchor="start" font-size="12" fill="#E69F00">mem-comp</text>
<circle cx="565" cy="20" r="4" fill="#C44E52"/>
<text x="573" y="24" text-anchor="start" font-size="12" fill="#C44E52">mem-run</text>
<circle cx="650" cy="20" r="4" fill="#8C564B"/>
<text x="658" y="24" text-anchor="start" font-size="12" fill="#8C564B">self-mem</text>
</svg>
