<svg width="800" height="400" xmlns="http://www.w3.org/2000/svg">
<rect width="800" height="400" fill="white"/>
<line x1="70" y1="40" x2="70" y2="340" stroke="#333" stroke-width="1"/>
<line x1="70" y1="340" x2="780" y2="340" stroke="#333" stroke-width="1"/>
<text x="65" y="344" text-anchor="end" font-size="11" fill="#333">0</text>
<text x="65" y="194" text-anchor="end" font-size="11" fill="#333">36000</text>
<text x="65" y="44" text-anchor="end" font-size="11" fill="#333">72000</text>
<text x="15" y="190" text-anchor="middle" font-size="12" fill="#333" transform="rotate(-90 15 190)">ms</text>
<polyline points="70,72 148,67 227,66 306,67 385,66 464,67 543,61 622,63 701,60 780,42" fill="none" stroke="#0072B2" stroke-width="2"/>
<polyline points="70,240 148,236 227,239 306,240 385,239 464,239 543,234 622,235 701,233 780,228" fill="none" stroke="#D55E00" stroke-width="2"/>
<polyline points="70,87 148,82 227,83 306,86 385,82 464,82 543,77 622,76 701,79 780,63" fill="none" stroke="#CC79A7" stroke-width="2"/>
<polyline points="70,243 148,238 227,242 306,243 385,241 464,243 543,239 622,240 701,237 780,233" fill="none" stroke="#E69F00" stroke-width="2"/>
<polyline points="70,128 148,125 227,124 306,124 385,123 464,125 543,122 622,123 701,125 780,113" fill="none" stroke="#009E73" stroke-width="2"/>
<circle cx="70" cy="72" r="3" fill="#0072B2"/>
<circle cx="70" cy="240" r="3" fill="#D55E00"/>
<circle cx="70" cy="87" r="3" fill="#CC79A7"/>
<circle cx="70" cy="243" r="3" fill="#E69F00"/>
<circle cx="70" cy="128" r="3" fill="#009E73"/>
<circle cx="148" cy="67" r="3" fill="#0072B2"/>
<circle cx="148" cy="236" r="3" fill="#D55E00"/>
<circle cx="148" cy="82" r="3" fill="#CC79A7"/>
<circle cx="148" cy="238" r="3" fill="#E69F00"/>
<circle cx="148" cy="125" r="3" fill="#009E73"/>
<circle cx="227" cy="66" r="3" fill="#0072B2"/>
<circle cx="227" cy="239" r="3" fill="#D55E00"/>
<circle cx="227" cy="83" r="3" fill="#CC79A7"/>
<circle cx="227" cy="242" r="3" fill="#E69F00"/>
<circle cx="227" cy="124" r="3" fill="#009E73"/>
<circle cx="306" cy="67" r="3" fill="#0072B2"/>
<circle cx="306" cy="240" r="3" fill="#D55E00"/>
<circle cx="306" cy="86" r="3" fill="#CC79A7"/>
<circle cx="306" cy="243" r="3" fill="#E69F00"/>
<circle cx="306" cy="124" r="3" fill="#009E73"/>
<circle cx="385" cy="66" r="3" fill="#0072B2"/>
<circle cx="385" cy="239" r="3" fill="#D55E00"/>
<circle cx="385" cy="82" r="3" fill="#CC79A7"/>
<circle cx="385" cy="241" r="3" fill="#E69F00"/>
<circle cx="385" cy="123" r="3" fill="#009E73"/>
<circle cx="464" cy="67" r="3" fill="#0072B2"/>
<circle cx="464" cy="239" r="3" fill="#D55E00"/>
<circle cx="464" cy="82" r="3" fill="#CC79A7"/>
<circle cx="464" cy="243" r="3" fill="#E69F00"/>
<circle cx="464" cy="125" r="3" fill="#009E73"/>
<circle cx="543" cy="61" r="3" fill="#0072B2"/>
<circle cx="543" cy="234" r="3" fill="#D55E00"/>
<circle cx="543" cy="77" r="3" fill="#CC79A7"/>
<circle cx="543" cy="239" r="3" fill="#E69F00"/>
<circle cx="543" cy="122" r="3" fill="#009E73"/>
<circle cx="622" cy="63" r="3" fill="#0072B2"/>
<circle cx="622" cy="235" r="3" fill="#D55E00"/>
<circle cx="622" cy="76" r="3" fill="#CC79A7"/>
<circle cx="622" cy="240" r="3" fill="#E69F00"/>
<circle cx="622" cy="123" r="3" fill="#009E73"/>
<circle cx="701" cy="60" r="3" fill="#0072B2"/>
<circle cx="701" cy="233" r="3" fill="#D55E00"/>
<circle cx="701" cy="79" r="3" fill="#CC79A7"/>
<circle cx="701" cy="237" r="3" fill="#E69F00"/>
<circle cx="701" cy="125" r="3" fill="#009E73"/>
<circle cx="780" cy="42" r="3" fill="#0072B2"/>
<circle cx="780" cy="228" r="3" fill="#D55E00"/>
<circle cx="780" cy="63" r="3" fill="#CC79A7"/>
<circle cx="780" cy="233" r="3" fill="#E69F00"/>
<circle cx="780" cy="113" r="3" fill="#009E73"/>
<circle cx="90" cy="20" r="4" fill="#0072B2"/>
<text x="98" y="24" text-anchor="start" font-size="12" fill="#0072B2">ctil-i</text>
<circle cx="160" cy="20" r="4" fill="#D55E00"/>
<text x="168" y="24" text-anchor="start" font-size="12" fill="#D55E00">ctil-r</text>
<circle cx="230" cy="20" r="4" fill="#CC79A7"/>
<text x="238" y="24" text-anchor="start" font-size="12" fill="#CC79A7">til-i</text>
<circle cx="290" cy="20" r="4" fill="#E69F00"/>
<text x="298" y="24" text-anchor="start" font-size="12" fill="#E69F00">til-r</text>
<circle cx="350" cy="20" r="4" fill="#009E73"/>
<text x="358" y="24" text-anchor="start" font-size="12" fill="#009E73">Wall</text>
</svg>
