<svg width="800" height="400" xmlns="http://www.w3.org/2000/svg">
<rect width="800" height="400" fill="white"/>
<line x1="70" y1="40" x2="70" y2="340" stroke="#333" stroke-width="1"/>
<line x1="70" y1="340" x2="730" y2="340" stroke="#333" stroke-width="1"/>
<line x1="730" y1="40" x2="730" y2="340" stroke="#333" stroke-width="1"/>
<text x="65" y="344" text-anchor="end" font-size="11" fill="#333">0</text>
<text x="65" y="194" text-anchor="end" font-size="11" fill="#333">48500</text>
<text x="65" y="44" text-anchor="end" font-size="11" fill="#333">97000</text>
<text x="15" y="190" text-anchor="middle" font-size="12" fill="#333" transform="rotate(-90 15 190)">ms</text>
<text x="735" y="344" text-anchor="start" font-size="11" fill="#333">0</text>
<text x="735" y="194" text-anchor="start" font-size="11" fill="#333">5354000000</text>
<text x="735" y="44" text-anchor="start" font-size="11" fill="#333">10708000000</text>
<text x="785" y="190" text-anchor="middle" font-size="12" fill="#333" transform="rotate(90 785 190)">bytes</text>
<polyline points="70,124 143,121 216,123 290,120 363,104 436,99 510,87 583,84 656,79 730,81" fill="none" stroke="#0072B2" stroke-width="2"/>
<polyline points="70,79 143,75 216,83 290,81 363,70 436,62 510,41 583,51 656,41 730,44" fill="none" stroke="#CC79A7" stroke-width="2"/>
<polyline points="70,339 143,339 216,339 290,339 363,339 436,339 510,339 583,339 656,339 730,339" fill="none" stroke="#D55E00" stroke-width="2"/>
<polyline points="70,305 143,305 216,304 290,305 363,304 436,303 510,302 583,303 656,302 730,301" fill="none" stroke="#009E73" stroke-width="2"/>
<polyline points="70,279 143,279 216,276 290,281 363,279 436,277 510,276 583,276 656,268 730,265" fill="none" stroke="#56B4E9" stroke-width="2"/>
<polyline points="70,210 143,210 216,209 290,210 363,206 436,206 510,200 583,200 656,194 730,194" fill="none" stroke="#E69F00" stroke-width="2"/>
<polyline points="70,340 143,340 216,340 290,340 363,340 436,340 510,340 583,340 656,340 730,340" fill="none" stroke="#C44E52" stroke-width="2"/>
<polyline points="70,71 143,71 216,68 290,72 363,67 436,66 510,58 583,57 656,43 730,41" fill="none" stroke="#000000" stroke-width="2"/>
<circle cx="70" cy="124" r="3" fill="#0072B2"/>
<circle cx="70" cy="79" r="3" fill="#CC79A7"/>
<circle cx="70" cy="339" r="3" fill="#D55E00"/>
<circle cx="70" cy="305" r="3" fill="#009E73"/>
<circle cx="70" cy="279" r="3" fill="#56B4E9"/>
<circle cx="70" cy="210" r="3" fill="#E69F00"/>
<circle cx="70" cy="340" r="3" fill="#C44E52"/>
<circle cx="70" cy="71" r="3" fill="#000000"/>
<circle cx="143" cy="121" r="3" fill="#0072B2"/>
<circle cx="143" cy="75" r="3" fill="#CC79A7"/>
<circle cx="143" cy="339" r="3" fill="#D55E00"/>
<circle cx="143" cy="305" r="3" fill="#009E73"/>
<circle cx="143" cy="279" r="3" fill="#56B4E9"/>
<circle cx="143" cy="210" r="3" fill="#E69F00"/>
<circle cx="143" cy="340" r="3" fill="#C44E52"/>
<circle cx="143" cy="71" r="3" fill="#000000"/>
<circle cx="216" cy="123" r="3" fill="#0072B2"/>
<circle cx="216" cy="83" r="3" fill="#CC79A7"/>
<circle cx="216" cy="339" r="3" fill="#D55E00"/>
<circle cx="216" cy="304" r="3" fill="#009E73"/>
<circle cx="216" cy="276" r="3" fill="#56B4E9"/>
<circle cx="216" cy="209" r="3" fill="#E69F00"/>
<circle cx="216" cy="340" r="3" fill="#C44E52"/>
<circle cx="216" cy="68" r="3" fill="#000000"/>
<circle cx="290" cy="120" r="3" fill="#0072B2"/>
<circle cx="290" cy="81" r="3" fill="#CC79A7"/>
<circle cx="290" cy="339" r="3" fill="#D55E00"/>
<circle cx="290" cy="305" r="3" fill="#009E73"/>
<circle cx="290" cy="281" r="3" fill="#56B4E9"/>
<circle cx="290" cy="210" r="3" fill="#E69F00"/>
<circle cx="290" cy="340" r="3" fill="#C44E52"/>
<circle cx="290" cy="72" r="3" fill="#000000"/>
<circle cx="363" cy="104" r="3" fill="#0072B2"/>
<circle cx="363" cy="70" r="3" fill="#CC79A7"/>
<circle cx="363" cy="339" r="3" fill="#D55E00"/>
<circle cx="363" cy="304" r="3" fill="#009E73"/>
<circle cx="363" cy="279" r="3" fill="#56B4E9"/>
<circle cx="363" cy="206" r="3" fill="#E69F00"/>
<circle cx="363" cy="340" r="3" fill="#C44E52"/>
<circle cx="363" cy="67" r="3" fill="#000000"/>
<circle cx="436" cy="99" r="3" fill="#0072B2"/>
<circle cx="436" cy="62" r="3" fill="#CC79A7"/>
<circle cx="436" cy="339" r="3" fill="#D55E00"/>
<circle cx="436" cy="303" r="3" fill="#009E73"/>
<circle cx="436" cy="277" r="3" fill="#56B4E9"/>
<circle cx="436" cy="206" r="3" fill="#E69F00"/>
<circle cx="436" cy="340" r="3" fill="#C44E52"/>
<circle cx="436" cy="66" r="3" fill="#000000"/>
<circle cx="510" cy="87" r="3" fill="#0072B2"/>
<circle cx="510" cy="41" r="3" fill="#CC79A7"/>
<circle cx="510" cy="339" r="3" fill="#D55E00"/>
<circle cx="510" cy="302" r="3" fill="#009E73"/>
<circle cx="510" cy="276" r="3" fill="#56B4E9"/>
<circle cx="510" cy="200" r="3" fill="#E69F00"/>
<circle cx="510" cy="340" r="3" fill="#C44E52"/>
<circle cx="510" cy="58" r="3" fill="#000000"/>
<circle cx="583" cy="84" r="3" fill="#0072B2"/>
<circle cx="583" cy="51" r="3" fill="#CC79A7"/>
<circle cx="583" cy="339" r="3" fill="#D55E00"/>
<circle cx="583" cy="303" r="3" fill="#009E73"/>
<circle cx="583" cy="276" r="3" fill="#56B4E9"/>
<circle cx="583" cy="200" r="3" fill="#E69F00"/>
<circle cx="583" cy="340" r="3" fill="#C44E52"/>
<circle cx="583" cy="57" r="3" fill="#000000"/>
<circle cx="656" cy="79" r="3" fill="#0072B2"/>
<circle cx="656" cy="41" r="3" fill="#CC79A7"/>
<circle cx="656" cy="339" r="3" fill="#D55E00"/>
<circle cx="656" cy="302" r="3" fill="#009E73"/>
<circle cx="656" cy="268" r="3" fill="#56B4E9"/>
<circle cx="656" cy="194" r="3" fill="#E69F00"/>
<circle cx="656" cy="340" r="3" fill="#C44E52"/>
<circle cx="656" cy="43" r="3" fill="#000000"/>
<circle cx="730" cy="81" r="3" fill="#0072B2"/>
<circle cx="730" cy="44" r="3" fill="#CC79A7"/>
<circle cx="730" cy="339" r="3" fill="#D55E00"/>
<circle cx="730" cy="301" r="3" fill="#009E73"/>
<circle cx="730" cy="265" r="3" fill="#56B4E9"/>
<circle cx="730" cy="194" r="3" fill="#E69F00"/>
<circle cx="730" cy="340" r="3" fill="#C44E52"/>
<circle cx="730" cy="41" r="3" fill="#000000"/>
<circle cx="90" cy="20" r="4" fill="#0072B2"/>
<text x="98" y="24" text-anchor="start" font-size="12" fill="#0072B2">inte</text>
<circle cx="150" cy="20" r="4" fill="#CC79A7"/>
<text x="158" y="24" text-anchor="start" font-size="12" fill="#CC79A7">comp</text>
<circle cx="215" cy="20" r="4" fill="#D55E00"/>
<text x="223" y="24" text-anchor="start" font-size="12" fill="#D55E00">run</text>
<circle cx="270" cy="20" r="4" fill="#009E73"/>
<text x="278" y="24" text-anchor="start" font-size="12" fill="#009E73">wall</text>
<circle cx="335" cy="20" r="4" fill="#56B4E9"/>
<text x="343" y="24" text-anchor="start" font-size="12" fill="#56B4E9">mem-inte</text>
<circle cx="425" cy="20" r="4" fill="#E69F00"/>
<text x="433" y="24" text-anchor="start" font-size="12" fill="#E69F00">mem-comp</text>
<circle cx="520" cy="20" r="4" fill="#C44E52"/>
<text x="528" y="24" text-anchor="start" font-size="12" fill="#C44E52">mem-run</text>
<circle cx="605" cy="20" r="4" fill="#000000"/>
<text x="613" y="24" text-anchor="start" font-size="12" fill="#000000">mem-total</text>
</svg>
