<svg width="800" height="400" xmlns="http://www.w3.org/2000/svg">
<rect width="800" height="400" fill="white"/>
<line x1="70" y1="40" x2="70" y2="340" stroke="#333" stroke-width="1"/>
<line x1="70" y1="340" x2="730" y2="340" stroke="#333" stroke-width="1"/>
<line x1="730" y1="40" x2="730" y2="340" stroke="#333" stroke-width="1"/>
<text x="65" y="344" text-anchor="end" font-size="11" fill="#333">0</text>
<text x="65" y="194" text-anchor="end" font-size="11" fill="#333">441000</text>
<text x="65" y="44" text-anchor="end" font-size="11" fill="#333">882000</text>
<text x="15" y="190" text-anchor="middle" font-size="12" fill="#333" transform="rotate(-90 15 190)">ms</text>
<text x="735" y="344" text-anchor="start" font-size="11" fill="#333">0</text>
<text x="735" y="194" text-anchor="start" font-size="11" fill="#333">4938000000</text>
<text x="735" y="44" text-anchor="start" font-size="11" fill="#333">9876000000</text>
<text x="785" y="190" text-anchor="middle" font-size="12" fill="#333" transform="rotate(90 785 190)">bytes</text>
<polyline points="70,89 143,71 216,139 290,133 363,84 436,109 510,128 583,139 656,116 730,128" fill="none" stroke="#0072B2" stroke-width="2"/>
<polyline points="70,41 143,69 216,130 290,97 363,78 436,75 510,95 583,95 656,91 730,107" fill="none" stroke="#CC79A7" stroke-width="2"/>
<polyline points="70,340 143,340 216,340 290,340 363,340 436,340 510,340 583,340 656,340 730,340" fill="none" stroke="#D55E00" stroke-width="2"/>
<polyline points="70,226 143,227 216,251 290,243 363,232 436,235 510,243 583,244 656,237 730,245" fill="none" stroke="#009E73" stroke-width="2"/>
<polyline points="70,271 143,271 216,272 290,272 363,272 436,272 510,272 583,272 656,272 730,272" fill="none" stroke="#56B4E9" stroke-width="2"/>
<polyline points="70,203 143,204 216,204 290,205 363,205 436,205 510,205 583,205 656,204 730,204" fill="none" stroke="#E69F00" stroke-width="2"/>
<polyline points="70,340 143,340 216,340 290,340 363,340 436,340 510,340 583,340 656,340 730,340" fill="none" stroke="#C44E52" stroke-width="2"/>
<polyline points="70,41 143,41 216,43 290,44 363,44 436,43 510,43 583,43 656,42 730,42" fill="none" stroke="#000000" stroke-width="2"/>
<circle cx="70" cy="89" r="3" fill="#0072B2"/>
<circle cx="70" cy="41" r="3" fill="#CC79A7"/>
<circle cx="70" cy="340" r="3" fill="#D55E00"/>
<circle cx="70" cy="226" r="3" fill="#009E73"/>
<circle cx="70" cy="271" r="3" fill="#56B4E9"/>
<circle cx="70" cy="203" r="3" fill="#E69F00"/>
<circle cx="70" cy="340" r="3" fill="#C44E52"/>
<circle cx="70" cy="41" r="3" fill="#000000"/>
<circle cx="143" cy="71" r="3" fill="#0072B2"/>
<circle cx="143" cy="69" r="3" fill="#CC79A7"/>
<circle cx="143" cy="340" r="3" fill="#D55E00"/>
<circle cx="143" cy="227" r="3" fill="#009E73"/>
<circle cx="143" cy="271" r="3" fill="#56B4E9"/>
<circle cx="143" cy="204" r="3" fill="#E69F00"/>
<circle cx="143" cy="340" r="3" fill="#C44E52"/>
<circle cx="143" cy="41" r="3" fill="#000000"/>
<circle cx="216" cy="139" r="3" fill="#0072B2"/>
<circle cx="216" cy="130" r="3" fill="#CC79A7"/>
<circle cx="216" cy="340" r="3" fill="#D55E00"/>
<circle cx="216" cy="251" r="3" fill="#009E73"/>
<circle cx="216" cy="272" r="3" fill="#56B4E9"/>
<circle cx="216" cy="204" r="3" fill="#E69F00"/>
<circle cx="216" cy="340" r="3" fill="#C44E52"/>
<circle cx="216" cy="43" r="3" fill="#000000"/>
<circle cx="290" cy="133" r="3" fill="#0072B2"/>
<circle cx="290" cy="97" r="3" fill="#CC79A7"/>
<circle cx="290" cy="340" r="3" fill="#D55E00"/>
<circle cx="290" cy="243" r="3" fill="#009E73"/>
<circle cx="290" cy="272" r="3" fill="#56B4E9"/>
<circle cx="290" cy="205" r="3" fill="#E69F00"/>
<circle cx="290" cy="340" r="3" fill="#C44E52"/>
<circle cx="290" cy="44" r="3" fill="#000000"/>
<circle cx="363" cy="84" r="3" fill="#0072B2"/>
<circle cx="363" cy="78" r="3" fill="#CC79A7"/>
<circle cx="363" cy="340" r="3" fill="#D55E00"/>
<circle cx="363" cy="232" r="3" fill="#009E73"/>
<circle cx="363" cy="272" r="3" fill="#56B4E9"/>
<circle cx="363" cy="205" r="3" fill="#E69F00"/>
<circle cx="363" cy="340" r="3" fill="#C44E52"/>
<circle cx="363" cy="44" r="3" fill="#000000"/>
<circle cx="436" cy="109" r="3" fill="#0072B2"/>
<circle cx="436" cy="75" r="3" fill="#CC79A7"/>
<circle cx="436" cy="340" r="3" fill="#D55E00"/>
<circle cx="436" cy="235" r="3" fill="#009E73"/>
<circle cx="436" cy="272" r="3" fill="#56B4E9"/>
<circle cx="436" cy="205" r="3" fill="#E69F00"/>
<circle cx="436" cy="340" r="3" fill="#C44E52"/>
<circle cx="436" cy="43" r="3" fill="#000000"/>
<circle cx="510" cy="128" r="3" fill="#0072B2"/>
<circle cx="510" cy="95" r="3" fill="#CC79A7"/>
<circle cx="510" cy="340" r="3" fill="#D55E00"/>
<circle cx="510" cy="243" r="3" fill="#009E73"/>
<circle cx="510" cy="272" r="3" fill="#56B4E9"/>
<circle cx="510" cy="205" r="3" fill="#E69F00"/>
<circle cx="510" cy="340" r="3" fill="#C44E52"/>
<circle cx="510" cy="43" r="3" fill="#000000"/>
<circle cx="583" cy="139" r="3" fill="#0072B2"/>
<circle cx="583" cy="95" r="3" fill="#CC79A7"/>
<circle cx="583" cy="340" r="3" fill="#D55E00"/>
<circle cx="583" cy="244" r="3" fill="#009E73"/>
<circle cx="583" cy="272" r="3" fill="#56B4E9"/>
<circle cx="583" cy="205" r="3" fill="#E69F00"/>
<circle cx="583" cy="340" r="3" fill="#C44E52"/>
<circle cx="583" cy="43" r="3" fill="#000000"/>
<circle cx="656" cy="116" r="3" fill="#0072B2"/>
<circle cx="656" cy="91" r="3" fill="#CC79A7"/>
<circle cx="656" cy="340" r="3" fill="#D55E00"/>
<circle cx="656" cy="237" r="3" fill="#009E73"/>
<circle cx="656" cy="272" r="3" fill="#56B4E9"/>
<circle cx="656" cy="204" r="3" fill="#E69F00"/>
<circle cx="656" cy="340" r="3" fill="#C44E52"/>
<circle cx="656" cy="42" r="3" fill="#000000"/>
<circle cx="730" cy="128" r="3" fill="#0072B2"/>
<circle cx="730" cy="107" r="3" fill="#CC79A7"/>
<circle cx="730" cy="340" r="3" fill="#D55E00"/>
<circle cx="730" cy="245" r="3" fill="#009E73"/>
<circle cx="730" cy="272" r="3" fill="#56B4E9"/>
<circle cx="730" cy="204" r="3" fill="#E69F00"/>
<circle cx="730" cy="340" r="3" fill="#C44E52"/>
<circle cx="730" cy="42" r="3" fill="#000000"/>
<circle cx="90" cy="20" r="4" fill="#0072B2"/>
<text x="98" y="24" text-anchor="start" font-size="12" fill="#0072B2">inte</text>
<circle cx="150" cy="20" r="4" fill="#CC79A7"/>
<text x="158" y="24" text-anchor="start" font-size="12" fill="#CC79A7">comp</text>
<circle cx="215" cy="20" r="4" fill="#D55E00"/>
<text x="223" y="24" text-anchor="start" font-size="12" fill="#D55E00">run</text>
<circle cx="270" cy="20" r="4" fill="#009E73"/>
<text x="278" y="24" text-anchor="start" font-size="12" fill="#009E73">wall</text>
<circle cx="335" cy="20" r="4" fill="#56B4E9"/>
<text x="343" y="24" text-anchor="start" font-size="12" fill="#56B4E9">mem-inte</text>
<circle cx="425" cy="20" r="4" fill="#E69F00"/>
<text x="433" y="24" text-anchor="start" font-size="12" fill="#E69F00">mem-comp</text>
<circle cx="520" cy="20" r="4" fill="#C44E52"/>
<text x="528" y="24" text-anchor="start" font-size="12" fill="#C44E52">mem-run</text>
<circle cx="605" cy="20" r="4" fill="#000000"/>
<text x="613" y="24" text-anchor="start" font-size="12" fill="#000000">mem-total</text>
</svg>
