<svg width="800" height="400" xmlns="http://www.w3.org/2000/svg">
<rect width="800" height="400" fill="white"/>
<line x1="70" y1="40" x2="70" y2="340" stroke="#333" stroke-width="1"/>
<line x1="70" y1="340" x2="780" y2="340" stroke="#333" stroke-width="1"/>
<text x="65" y="344" text-anchor="end" font-size="11" fill="#333">0</text>
<text x="65" y="194" text-anchor="end" font-size="11" fill="#333">195500</text>
<text x="65" y="44" text-anchor="end" font-size="11" fill="#333">391000</text>
<text x="15" y="190" text-anchor="middle" font-size="12" fill="#333" transform="rotate(-90 15 190)">ms</text>
<polyline points="70,230 107,230 144,229 182,231 219,230 256,227 294,230 331,226 368,229 406,297 443,297 481,300 518,300 555,301 593,301 630,300 667,300 705,301 742,297 780,297" fill="none" stroke="#2196F3" stroke-width="2"/>
<polyline points="70,300 107,300 144,300 182,301 219,300 256,299 294,300 331,299 368,300 406,323 443,323 481,326 518,326 555,326 593,326 630,326 667,326 705,326 742,326 780,326" fill="none" stroke="#F44336" stroke-width="2"/>
<polyline points="70,50 107,51 144,50 182,52 219,50 256,41 294,51 331,42 368,45 406,227 443,226 481,226 518,228 555,228 593,229 630,226 667,228 705,227 742,225 780,225" fill="none" stroke="#4CAF50" stroke-width="2"/>
<circle cx="70" cy="230" r="3" fill="#2196F3"/>
<circle cx="70" cy="300" r="3" fill="#F44336"/>
<circle cx="70" cy="50" r="3" fill="#4CAF50"/>
<circle cx="107" cy="230" r="3" fill="#2196F3"/>
<circle cx="107" cy="300" r="3" fill="#F44336"/>
<circle cx="107" cy="51" r="3" fill="#4CAF50"/>
<circle cx="144" cy="229" r="3" fill="#2196F3"/>
<circle cx="144" cy="300" r="3" fill="#F44336"/>
<circle cx="144" cy="50" r="3" fill="#4CAF50"/>
<circle cx="182" cy="231" r="3" fill="#2196F3"/>
<circle cx="182" cy="301" r="3" fill="#F44336"/>
<circle cx="182" cy="52" r="3" fill="#4CAF50"/>
<circle cx="219" cy="230" r="3" fill="#2196F3"/>
<circle cx="219" cy="300" r="3" fill="#F44336"/>
<circle cx="219" cy="50" r="3" fill="#4CAF50"/>
<circle cx="256" cy="227" r="3" fill="#2196F3"/>
<circle cx="256" cy="299" r="3" fill="#F44336"/>
<circle cx="256" cy="41" r="3" fill="#4CAF50"/>
<circle cx="294" cy="230" r="3" fill="#2196F3"/>
<circle cx="294" cy="300" r="3" fill="#F44336"/>
<circle cx="294" cy="51" r="3" fill="#4CAF50"/>
<circle cx="331" cy="226" r="3" fill="#2196F3"/>
<circle cx="331" cy="299" r="3" fill="#F44336"/>
<circle cx="331" cy="42" r="3" fill="#4CAF50"/>
<circle cx="368" cy="229" r="3" fill="#2196F3"/>
<circle cx="368" cy="300" r="3" fill="#F44336"/>
<circle cx="368" cy="45" r="3" fill="#4CAF50"/>
<circle cx="406" cy="297" r="3" fill="#2196F3"/>
<circle cx="406" cy="323" r="3" fill="#F44336"/>
<circle cx="406" cy="227" r="3" fill="#4CAF50"/>
<circle cx="443" cy="297" r="3" fill="#2196F3"/>
<circle cx="443" cy="323" r="3" fill="#F44336"/>
<circle cx="443" cy="226" r="3" fill="#4CAF50"/>
<circle cx="481" cy="300" r="3" fill="#2196F3"/>
<circle cx="481" cy="326" r="3" fill="#F44336"/>
<circle cx="481" cy="226" r="3" fill="#4CAF50"/>
<circle cx="518" cy="300" r="3" fill="#2196F3"/>
<circle cx="518" cy="326" r="3" fill="#F44336"/>
<circle cx="518" cy="228" r="3" fill="#4CAF50"/>
<circle cx="555" cy="301" r="3" fill="#2196F3"/>
<circle cx="555" cy="326" r="3" fill="#F44336"/>
<circle cx="555" cy="228" r="3" fill="#4CAF50"/>
<circle cx="593" cy="301" r="3" fill="#2196F3"/>
<circle cx="593" cy="326" r="3" fill="#F44336"/>
<circle cx="593" cy="229" r="3" fill="#4CAF50"/>
<circle cx="630" cy="300" r="3" fill="#2196F3"/>
<circle cx="630" cy="326" r="3" fill="#F44336"/>
<circle cx="630" cy="226" r="3" fill="#4CAF50"/>
<circle cx="667" cy="300" r="3" fill="#2196F3"/>
<circle cx="667" cy="326" r="3" fill="#F44336"/>
<circle cx="667" cy="228" r="3" fill="#4CAF50"/>
<circle cx="705" cy="301" r="3" fill="#2196F3"/>
<circle cx="705" cy="326" r="3" fill="#F44336"/>
<circle cx="705" cy="227" r="3" fill="#4CAF50"/>
<circle cx="742" cy="297" r="3" fill="#2196F3"/>
<circle cx="742" cy="326" r="3" fill="#F44336"/>
<circle cx="742" cy="225" r="3" fill="#4CAF50"/>
<circle cx="780" cy="297" r="3" fill="#2196F3"/>
<circle cx="780" cy="326" r="3" fill="#F44336"/>
<circle cx="780" cy="225" r="3" fill="#4CAF50"/>
<circle cx="90" cy="20" r="4" fill="#2196F3"/>
<text x="98" y="24" text-anchor="start" font-size="12" fill="#2196F3">Interpreted</text>
<circle cx="200" cy="20" r="4" fill="#F44336"/>
<text x="208" y="24" text-anchor="start" font-size="12" fill="#F44336">Compiled</text>
<circle cx="300" cy="20" r="4" fill="#4CAF50"/>
<text x="308" y="24" text-anchor="start" font-size="12" fill="#4CAF50">Wall-clock</text>
</svg>
