<svg width="800" height="400" xmlns="http://www.w3.org/2000/svg">
<rect width="800" height="400" fill="white"/>
<line x1="70" y1="40" x2="70" y2="340" stroke="#333" stroke-width="1"/>
<line x1="70" y1="340" x2="730" y2="340" stroke="#333" stroke-width="1"/>
<line x1="730" y1="40" x2="730" y2="340" stroke="#333" stroke-width="1"/>
<text x="65" y="344" text-anchor="end" font-size="11" fill="#333">0</text>
<text x="65" y="194" text-anchor="end" font-size="11" fill="#333">578500</text>
<text x="65" y="44" text-anchor="end" font-size="11" fill="#333">1157000</text>
<text x="15" y="190" text-anchor="middle" font-size="12" fill="#333" transform="rotate(-90 15 190)">ms</text>
<text x="735" y="344" text-anchor="start" font-size="11" fill="#333">0</text>
<text x="735" y="194" text-anchor="start" font-size="11" fill="#333">69434500000</text>
<text x="735" y="44" text-anchor="start" font-size="11" fill="#333">138869000000</text>
<text x="785" y="190" text-anchor="middle" font-size="12" fill="#333" transform="rotate(90 785 190)">bytes</text>
<polyline points="70,51 143,83 216,88 290,87 363,116 436,133 510,134 583,113 656,114 730,138" fill="none" stroke="#0072B2" stroke-width="2"/>
<polyline points="70,41 143,76 216,75 290,73 363,107 436,107 510,107 583,116 656,116 730,111" fill="none" stroke="#CC79A7" stroke-width="2"/>
<polyline points="70,340 143,340 216,340 290,340 363,340 436,340 510,340 583,340 656,340 730,340" fill="none" stroke="#D55E00" stroke-width="2"/>
<polyline points="70,302 143,306 216,307 290,307 363,311 436,312 510,312 583,307 656,307 730,312" fill="none" stroke="#009E73" stroke-width="2"/>
<polyline points="70,191 143,194 216,195 290,193 363,196 436,197 510,196 583,198 656,195 730,196" fill="none" stroke="#984EA3" stroke-width="2"/>
<polyline points="70,49 143,64 216,67 290,66 363,81 436,77 510,76 583,69 656,70 730,77" fill="none" stroke="#56B4E9" stroke-width="2"/>
<polyline points="70,41 143,57 216,59 290,58 363,74 436,69 510,69 583,69 656,72 730,71" fill="none" stroke="#E69F00" stroke-width="2"/>
<polyline points="70,340 143,340 216,340 290,339 363,340 436,340 510,340 583,340 656,340 730,340" fill="none" stroke="#C44E52" stroke-width="2"/>
<polyline points="70,297 143,298 216,298 290,299 363,299 436,299 510,298 583,298 656,298 730,298" fill="none" stroke="#8C564B" stroke-width="2"/>
<circle cx="70" cy="51" r="3" fill="#0072B2"/>
<circle cx="70" cy="41" r="3" fill="#CC79A7"/>
<circle cx="70" cy="340" r="3" fill="#D55E00"/>
<circle cx="70" cy="302" r="3" fill="#009E73"/>
<circle cx="70" cy="191" r="3" fill="#984EA3"/>
<circle cx="70" cy="49" r="3" fill="#56B4E9"/>
<circle cx="70" cy="41" r="3" fill="#E69F00"/>
<circle cx="70" cy="340" r="3" fill="#C44E52"/>
<circle cx="70" cy="297" r="3" fill="#8C564B"/>
<circle cx="143" cy="83" r="3" fill="#0072B2"/>
<circle cx="143" cy="76" r="3" fill="#CC79A7"/>
<circle cx="143" cy="340" r="3" fill="#D55E00"/>
<circle cx="143" cy="306" r="3" fill="#009E73"/>
<circle cx="143" cy="194" r="3" fill="#984EA3"/>
<circle cx="143" cy="64" r="3" fill="#56B4E9"/>
<circle cx="143" cy="57" r="3" fill="#E69F00"/>
<circle cx="143" cy="340" r="3" fill="#C44E52"/>
<circle cx="143" cy="298" r="3" fill="#8C564B"/>
<circle cx="216" cy="88" r="3" fill="#0072B2"/>
<circle cx="216" cy="75" r="3" fill="#CC79A7"/>
<circle cx="216" cy="340" r="3" fill="#D55E00"/>
<circle cx="216" cy="307" r="3" fill="#009E73"/>
<circle cx="216" cy="195" r="3" fill="#984EA3"/>
<circle cx="216" cy="67" r="3" fill="#56B4E9"/>
<circle cx="216" cy="59" r="3" fill="#E69F00"/>
<circle cx="216" cy="340" r="3" fill="#C44E52"/>
<circle cx="216" cy="298" r="3" fill="#8C564B"/>
<circle cx="290" cy="87" r="3" fill="#0072B2"/>
<circle cx="290" cy="73" r="3" fill="#CC79A7"/>
<circle cx="290" cy="340" r="3" fill="#D55E00"/>
<circle cx="290" cy="307" r="3" fill="#009E73"/>
<circle cx="290" cy="193" r="3" fill="#984EA3"/>
<circle cx="290" cy="66" r="3" fill="#56B4E9"/>
<circle cx="290" cy="58" r="3" fill="#E69F00"/>
<circle cx="290" cy="339" r="3" fill="#C44E52"/>
<circle cx="290" cy="299" r="3" fill="#8C564B"/>
<circle cx="363" cy="116" r="3" fill="#0072B2"/>
<circle cx="363" cy="107" r="3" fill="#CC79A7"/>
<circle cx="363" cy="340" r="3" fill="#D55E00"/>
<circle cx="363" cy="311" r="3" fill="#009E73"/>
<circle cx="363" cy="196" r="3" fill="#984EA3"/>
<circle cx="363" cy="81" r="3" fill="#56B4E9"/>
<circle cx="363" cy="74" r="3" fill="#E69F00"/>
<circle cx="363" cy="340" r="3" fill="#C44E52"/>
<circle cx="363" cy="299" r="3" fill="#8C564B"/>
<circle cx="436" cy="133" r="3" fill="#0072B2"/>
<circle cx="436" cy="107" r="3" fill="#CC79A7"/>
<circle cx="436" cy="340" r="3" fill="#D55E00"/>
<circle cx="436" cy="312" r="3" fill="#009E73"/>
<circle cx="436" cy="197" r="3" fill="#984EA3"/>
<circle cx="436" cy="77" r="3" fill="#56B4E9"/>
<circle cx="436" cy="69" r="3" fill="#E69F00"/>
<circle cx="436" cy="340" r="3" fill="#C44E52"/>
<circle cx="436" cy="299" r="3" fill="#8C564B"/>
<circle cx="510" cy="134" r="3" fill="#0072B2"/>
<circle cx="510" cy="107" r="3" fill="#CC79A7"/>
<circle cx="510" cy="340" r="3" fill="#D55E00"/>
<circle cx="510" cy="312" r="3" fill="#009E73"/>
<circle cx="510" cy="196" r="3" fill="#984EA3"/>
<circle cx="510" cy="76" r="3" fill="#56B4E9"/>
<circle cx="510" cy="69" r="3" fill="#E69F00"/>
<circle cx="510" cy="340" r="3" fill="#C44E52"/>
<circle cx="510" cy="298" r="3" fill="#8C564B"/>
<circle cx="583" cy="113" r="3" fill="#0072B2"/>
<circle cx="583" cy="116" r="3" fill="#CC79A7"/>
<circle cx="583" cy="340" r="3" fill="#D55E00"/>
<circle cx="583" cy="307" r="3" fill="#009E73"/>
<circle cx="583" cy="198" r="3" fill="#984EA3"/>
<circle cx="583" cy="69" r="3" fill="#56B4E9"/>
<circle cx="583" cy="69" r="3" fill="#E69F00"/>
<circle cx="583" cy="340" r="3" fill="#C44E52"/>
<circle cx="583" cy="298" r="3" fill="#8C564B"/>
<circle cx="656" cy="114" r="3" fill="#0072B2"/>
<circle cx="656" cy="116" r="3" fill="#CC79A7"/>
<circle cx="656" cy="340" r="3" fill="#D55E00"/>
<circle cx="656" cy="307" r="3" fill="#009E73"/>
<circle cx="656" cy="195" r="3" fill="#984EA3"/>
<circle cx="656" cy="70" r="3" fill="#56B4E9"/>
<circle cx="656" cy="72" r="3" fill="#E69F00"/>
<circle cx="656" cy="340" r="3" fill="#C44E52"/>
<circle cx="656" cy="298" r="3" fill="#8C564B"/>
<circle cx="730" cy="138" r="3" fill="#0072B2"/>
<circle cx="730" cy="111" r="3" fill="#CC79A7"/>
<circle cx="730" cy="340" r="3" fill="#D55E00"/>
<circle cx="730" cy="312" r="3" fill="#009E73"/>
<circle cx="730" cy="196" r="3" fill="#984EA3"/>
<circle cx="730" cy="77" r="3" fill="#56B4E9"/>
<circle cx="730" cy="71" r="3" fill="#E69F00"/>
<circle cx="730" cy="340" r="3" fill="#C44E52"/>
<circle cx="730" cy="298" r="3" fill="#8C564B"/>
<circle cx="70" cy="20" r="4" fill="#0072B2"/>
<text x="78" y="24" text-anchor="start" font-size="12" fill="#0072B2">inte</text>
<circle cx="130" cy="20" r="4" fill="#CC79A7"/>
<text x="138" y="24" text-anchor="start" font-size="12" fill="#CC79A7">comp</text>
<circle cx="195" cy="20" r="4" fill="#D55E00"/>
<text x="203" y="24" text-anchor="start" font-size="12" fill="#D55E00">run</text>
<circle cx="250" cy="20" r="4" fill="#009E73"/>
<text x="258" y="24" text-anchor="start" font-size="12" fill="#009E73">wall</text>
<circle cx="315" cy="20" r="4" fill="#984EA3"/>
<text x="323" y="24" text-anchor="start" font-size="12" fill="#984EA3">self</text>
<circle cx="380" cy="20" r="4" fill="#56B4E9"/>
<text x="388" y="24" text-anchor="start" font-size="12" fill="#56B4E9">mem-inte</text>
<circle cx="470" cy="20" r="4" fill="#E69F00"/>
<text x="478" y="24" text-anchor="start" font-size="12" fill="#E69F00">mem-comp</text>
<circle cx="565" cy="20" r="4" fill="#C44E52"/>
<text x="573" y="24" text-anchor="start" font-size="12" fill="#C44E52">mem-run</text>
<circle cx="650" cy="20" r="4" fill="#8C564B"/>
<text x="658" y="24" text-anchor="start" font-size="12" fill="#8C564B">self-mem</text>
</svg>
