<svg width="800" height="400" xmlns="http://www.w3.org/2000/svg">
<rect width="800" height="400" fill="white"/>
<line x1="70" y1="40" x2="70" y2="340" stroke="#333" stroke-width="1"/>
<line x1="70" y1="340" x2="780" y2="340" stroke="#333" stroke-width="1"/>
<text x="65" y="344" text-anchor="end" font-size="11" fill="#333">0</text>
<text x="65" y="194" text-anchor="end" font-size="11" fill="#333">39500</text>
<text x="65" y="44" text-anchor="end" font-size="11" fill="#333">79000</text>
<text x="15" y="190" text-anchor="middle" font-size="12" fill="#333" transform="rotate(-90 15 190)">ms</text>
<polyline points="70,60 148,56 227,59 306,54 385,59 464,61 543,60 622,60 701,54 780,56" fill="none" stroke="#0072B2" stroke-width="2"/>
<polyline points="70,52 148,50 227,48 306,43 385,49 464,49 543,48 622,47 701,51 780,46" fill="none" stroke="#CC79A7" stroke-width="2"/>
<polyline points="70,334 148,334 227,334 306,334 385,334 464,334 543,334 622,334 701,334 780,334" fill="none" stroke="#D55E00" stroke-width="2"/>
<polyline points="70,299 148,298 227,299 306,298 385,299 464,299 543,299 622,299 701,299 780,298" fill="none" stroke="#009E73" stroke-width="2"/>
<circle cx="70" cy="60" r="3" fill="#0072B2"/>
<circle cx="70" cy="52" r="3" fill="#CC79A7"/>
<circle cx="70" cy="334" r="3" fill="#D55E00"/>
<circle cx="70" cy="299" r="3" fill="#009E73"/>
<circle cx="148" cy="56" r="3" fill="#0072B2"/>
<circle cx="148" cy="50" r="3" fill="#CC79A7"/>
<circle cx="148" cy="334" r="3" fill="#D55E00"/>
<circle cx="148" cy="298" r="3" fill="#009E73"/>
<circle cx="227" cy="59" r="3" fill="#0072B2"/>
<circle cx="227" cy="48" r="3" fill="#CC79A7"/>
<circle cx="227" cy="334" r="3" fill="#D55E00"/>
<circle cx="227" cy="299" r="3" fill="#009E73"/>
<circle cx="306" cy="54" r="3" fill="#0072B2"/>
<circle cx="306" cy="43" r="3" fill="#CC79A7"/>
<circle cx="306" cy="334" r="3" fill="#D55E00"/>
<circle cx="306" cy="298" r="3" fill="#009E73"/>
<circle cx="385" cy="59" r="3" fill="#0072B2"/>
<circle cx="385" cy="49" r="3" fill="#CC79A7"/>
<circle cx="385" cy="334" r="3" fill="#D55E00"/>
<circle cx="385" cy="299" r="3" fill="#009E73"/>
<circle cx="464" cy="61" r="3" fill="#0072B2"/>
<circle cx="464" cy="49" r="3" fill="#CC79A7"/>
<circle cx="464" cy="334" r="3" fill="#D55E00"/>
<circle cx="464" cy="299" r="3" fill="#009E73"/>
<circle cx="543" cy="60" r="3" fill="#0072B2"/>
<circle cx="543" cy="48" r="3" fill="#CC79A7"/>
<circle cx="543" cy="334" r="3" fill="#D55E00"/>
<circle cx="543" cy="299" r="3" fill="#009E73"/>
<circle cx="622" cy="60" r="3" fill="#0072B2"/>
<circle cx="622" cy="47" r="3" fill="#CC79A7"/>
<circle cx="622" cy="334" r="3" fill="#D55E00"/>
<circle cx="622" cy="299" r="3" fill="#009E73"/>
<circle cx="701" cy="54" r="3" fill="#0072B2"/>
<circle cx="701" cy="51" r="3" fill="#CC79A7"/>
<circle cx="701" cy="334" r="3" fill="#D55E00"/>
<circle cx="701" cy="299" r="3" fill="#009E73"/>
<circle cx="780" cy="56" r="3" fill="#0072B2"/>
<circle cx="780" cy="46" r="3" fill="#CC79A7"/>
<circle cx="780" cy="334" r="3" fill="#D55E00"/>
<circle cx="780" cy="298" r="3" fill="#009E73"/>
<circle cx="90" cy="20" r="4" fill="#0072B2"/>
<text x="98" y="24" text-anchor="start" font-size="12" fill="#0072B2">interpreted</text>
<circle cx="190" cy="20" r="4" fill="#CC79A7"/>
<text x="198" y="24" text-anchor="start" font-size="12" fill="#CC79A7">compiled</text>
<circle cx="275" cy="20" r="4" fill="#D55E00"/>
<text x="283" y="24" text-anchor="start" font-size="12" fill="#D55E00">executed</text>
<circle cx="355" cy="20" r="4" fill="#009E73"/>
<text x="363" y="24" text-anchor="start" font-size="12" fill="#009E73">wall</text>
</svg>
