<svg width="800" height="400" xmlns="http://www.w3.org/2000/svg">
<rect width="800" height="400" fill="white"/>
<line x1="70" y1="40" x2="70" y2="340" stroke="#333" stroke-width="1"/>
<line x1="70" y1="340" x2="730" y2="340" stroke="#333" stroke-width="1"/>
<line x1="730" y1="40" x2="730" y2="340" stroke="#333" stroke-width="1"/>
<text x="65" y="344" text-anchor="end" font-size="11" fill="#333">0</text>
<text x="65" y="194" text-anchor="end" font-size="11" fill="#333">46000</text>
<text x="65" y="44" text-anchor="end" font-size="11" fill="#333">92000</text>
<text x="15" y="190" text-anchor="middle" font-size="12" fill="#333" transform="rotate(-90 15 190)">ms</text>
<text x="735" y="344" text-anchor="start" font-size="11" fill="#333">0</text>
<text x="735" y="194" text-anchor="start" font-size="11" fill="#333">8084500000</text>
<text x="735" y="44" text-anchor="start" font-size="11" fill="#333">16169000000</text>
<text x="785" y="190" text-anchor="middle" font-size="12" fill="#333" transform="rotate(90 785 190)">bytes</text>
<polyline points="70,121 143,123 216,119 290,114 363,120 436,120 510,119 583,90 656,87 730,90" fill="none" stroke="#0072B2" stroke-width="2"/>
<polyline points="70,79 143,79 216,75 290,72 363,77 436,78 510,77 583,45 656,42 730,47" fill="none" stroke="#CC79A7" stroke-width="2"/>
<polyline points="70,339 143,339 216,339 290,339 363,339 436,339 510,339 583,339 656,339 730,339" fill="none" stroke="#D55E00" stroke-width="2"/>
<polyline points="70,164 143,163 216,165 290,158 363,162 436,163 510,304 583,301 656,301 730,301" fill="none" stroke="#009E73" stroke-width="2"/>
<polyline points="70,289 143,291 216,292 290,292 363,290 436,292 510,291 583,247 656,242 730,247" fill="none" stroke="#56B4E9" stroke-width="2"/>
<polyline points="70,246 143,246 216,245 290,245 363,245 436,245 510,245 583,195 656,197 730,197" fill="none" stroke="#E69F00" stroke-width="2"/>
<polyline points="70,340 143,340 216,340 290,340 363,340 436,340 510,340 583,340 656,340 730,340" fill="none" stroke="#C44E52" stroke-width="2"/>
<polyline points="70,148 143,151 216,151 290,151 363,149 436,151 510,144 583,44 656,41 730,47" fill="none" stroke="#000000" stroke-width="2"/>
<circle cx="70" cy="121" r="3" fill="#0072B2"/>
<circle cx="70" cy="79" r="3" fill="#CC79A7"/>
<circle cx="70" cy="339" r="3" fill="#D55E00"/>
<circle cx="70" cy="164" r="3" fill="#009E73"/>
<circle cx="70" cy="289" r="3" fill="#56B4E9"/>
<circle cx="70" cy="246" r="3" fill="#E69F00"/>
<circle cx="70" cy="340" r="3" fill="#C44E52"/>
<circle cx="70" cy="148" r="3" fill="#000000"/>
<circle cx="143" cy="123" r="3" fill="#0072B2"/>
<circle cx="143" cy="79" r="3" fill="#CC79A7"/>
<circle cx="143" cy="339" r="3" fill="#D55E00"/>
<circle cx="143" cy="163" r="3" fill="#009E73"/>
<circle cx="143" cy="291" r="3" fill="#56B4E9"/>
<circle cx="143" cy="246" r="3" fill="#E69F00"/>
<circle cx="143" cy="340" r="3" fill="#C44E52"/>
<circle cx="143" cy="151" r="3" fill="#000000"/>
<circle cx="216" cy="119" r="3" fill="#0072B2"/>
<circle cx="216" cy="75" r="3" fill="#CC79A7"/>
<circle cx="216" cy="339" r="3" fill="#D55E00"/>
<circle cx="216" cy="165" r="3" fill="#009E73"/>
<circle cx="216" cy="292" r="3" fill="#56B4E9"/>
<circle cx="216" cy="245" r="3" fill="#E69F00"/>
<circle cx="216" cy="340" r="3" fill="#C44E52"/>
<circle cx="216" cy="151" r="3" fill="#000000"/>
<circle cx="290" cy="114" r="3" fill="#0072B2"/>
<circle cx="290" cy="72" r="3" fill="#CC79A7"/>
<circle cx="290" cy="339" r="3" fill="#D55E00"/>
<circle cx="290" cy="158" r="3" fill="#009E73"/>
<circle cx="290" cy="292" r="3" fill="#56B4E9"/>
<circle cx="290" cy="245" r="3" fill="#E69F00"/>
<circle cx="290" cy="340" r="3" fill="#C44E52"/>
<circle cx="290" cy="151" r="3" fill="#000000"/>
<circle cx="363" cy="120" r="3" fill="#0072B2"/>
<circle cx="363" cy="77" r="3" fill="#CC79A7"/>
<circle cx="363" cy="339" r="3" fill="#D55E00"/>
<circle cx="363" cy="162" r="3" fill="#009E73"/>
<circle cx="363" cy="290" r="3" fill="#56B4E9"/>
<circle cx="363" cy="245" r="3" fill="#E69F00"/>
<circle cx="363" cy="340" r="3" fill="#C44E52"/>
<circle cx="363" cy="149" r="3" fill="#000000"/>
<circle cx="436" cy="120" r="3" fill="#0072B2"/>
<circle cx="436" cy="78" r="3" fill="#CC79A7"/>
<circle cx="436" cy="339" r="3" fill="#D55E00"/>
<circle cx="436" cy="163" r="3" fill="#009E73"/>
<circle cx="436" cy="292" r="3" fill="#56B4E9"/>
<circle cx="436" cy="245" r="3" fill="#E69F00"/>
<circle cx="436" cy="340" r="3" fill="#C44E52"/>
<circle cx="436" cy="151" r="3" fill="#000000"/>
<circle cx="510" cy="119" r="3" fill="#0072B2"/>
<circle cx="510" cy="77" r="3" fill="#CC79A7"/>
<circle cx="510" cy="339" r="3" fill="#D55E00"/>
<circle cx="510" cy="304" r="3" fill="#009E73"/>
<circle cx="510" cy="291" r="3" fill="#56B4E9"/>
<circle cx="510" cy="245" r="3" fill="#E69F00"/>
<circle cx="510" cy="340" r="3" fill="#C44E52"/>
<circle cx="510" cy="144" r="3" fill="#000000"/>
<circle cx="583" cy="90" r="3" fill="#0072B2"/>
<circle cx="583" cy="45" r="3" fill="#CC79A7"/>
<circle cx="583" cy="339" r="3" fill="#D55E00"/>
<circle cx="583" cy="301" r="3" fill="#009E73"/>
<circle cx="583" cy="247" r="3" fill="#56B4E9"/>
<circle cx="583" cy="195" r="3" fill="#E69F00"/>
<circle cx="583" cy="340" r="3" fill="#C44E52"/>
<circle cx="583" cy="44" r="3" fill="#000000"/>
<circle cx="656" cy="87" r="3" fill="#0072B2"/>
<circle cx="656" cy="42" r="3" fill="#CC79A7"/>
<circle cx="656" cy="339" r="3" fill="#D55E00"/>
<circle cx="656" cy="301" r="3" fill="#009E73"/>
<circle cx="656" cy="242" r="3" fill="#56B4E9"/>
<circle cx="656" cy="197" r="3" fill="#E69F00"/>
<circle cx="656" cy="340" r="3" fill="#C44E52"/>
<circle cx="656" cy="41" r="3" fill="#000000"/>
<circle cx="730" cy="90" r="3" fill="#0072B2"/>
<circle cx="730" cy="47" r="3" fill="#CC79A7"/>
<circle cx="730" cy="339" r="3" fill="#D55E00"/>
<circle cx="730" cy="301" r="3" fill="#009E73"/>
<circle cx="730" cy="247" r="3" fill="#56B4E9"/>
<circle cx="730" cy="197" r="3" fill="#E69F00"/>
<circle cx="730" cy="340" r="3" fill="#C44E52"/>
<circle cx="730" cy="47" r="3" fill="#000000"/>
<circle cx="90" cy="20" r="4" fill="#0072B2"/>
<text x="98" y="24" text-anchor="start" font-size="12" fill="#0072B2">inte</text>
<circle cx="150" cy="20" r="4" fill="#CC79A7"/>
<text x="158" y="24" text-anchor="start" font-size="12" fill="#CC79A7">comp</text>
<circle cx="215" cy="20" r="4" fill="#D55E00"/>
<text x="223" y="24" text-anchor="start" font-size="12" fill="#D55E00">run</text>
<circle cx="270" cy="20" r="4" fill="#009E73"/>
<text x="278" y="24" text-anchor="start" font-size="12" fill="#009E73">wall</text>
<circle cx="335" cy="20" r="4" fill="#56B4E9"/>
<text x="343" y="24" text-anchor="start" font-size="12" fill="#56B4E9">mem-inte</text>
<circle cx="425" cy="20" r="4" fill="#E69F00"/>
<text x="433" y="24" text-anchor="start" font-size="12" fill="#E69F00">mem-comp</text>
<circle cx="520" cy="20" r="4" fill="#C44E52"/>
<text x="528" y="24" text-anchor="start" font-size="12" fill="#C44E52">mem-run</text>
<circle cx="605" cy="20" r="4" fill="#000000"/>
<text x="613" y="24" text-anchor="start" font-size="12" fill="#000000">mem-total</text>
</svg>
