<svg width="800" height="400" xmlns="http://www.w3.org/2000/svg">
<rect width="800" height="400" fill="white"/>
<line x1="70" y1="40" x2="70" y2="340" stroke="#333" stroke-width="1"/>
<line x1="70" y1="340" x2="780" y2="340" stroke="#333" stroke-width="1"/>
<text x="65" y="344" text-anchor="end" font-size="11" fill="#333">0</text>
<text x="65" y="194" text-anchor="end" font-size="11" fill="#333">4500</text>
<text x="65" y="44" text-anchor="end" font-size="11" fill="#333">9000</text>
<text x="15" y="190" text-anchor="middle" font-size="12" fill="#333" transform="rotate(-90 15 190)">ms</text>
<polyline points="70,276 83,274 96,277 110,273 123,277 136,275 150,272 163,273 177,269 190,269 203,274 217,270 230,270 244,273 257,268 270,270 284,271 297,274 311,273 324,271 337,272 351,274 364,273 378,273 391,271 404,271 418,273 431,273 445,273 458,271 471,272 485,269 498,272 512,273 525,270 538,271 552,270 565,271 579,271 592,272 605,273 619,274 632,270 646,274 659,271 672,270 686,269 699,269 713,266 726,270 739,268 753,270 766,268 780,267" fill="none" stroke="#2196F3" stroke-width="2"/>
<polyline points="70,154 83,155 96,156 110,151 123,153 136,158 150,151 163,151 177,151 190,151 203,151 217,147 230,146 244,151 257,151 270,159 284,153 297,150 311,149 324,152 337,152 351,156 364,152 378,158 391,123 404,129 418,128 431,131 445,129 458,131 471,131 485,131 498,126 512,126 525,129 538,127 552,128 565,129 579,127 592,131 605,127 619,126 632,133 646,126 659,133 672,131 686,118 699,119 713,119 726,120 739,123 753,124 766,122 780,121" fill="none" stroke="#F44336" stroke-width="2"/>
<polyline points="70,108 83,109 96,109 110,107 123,113 136,101 150,99 163,99 177,97 190,94 203,95 217,96 230,95 244,97 257,96 270,94 284,92 297,92 311,97 324,92 337,95 351,98 364,96 378,97 391,89 404,93 418,88 431,89 445,93 458,95 471,88 485,82 498,85 512,84 525,85 538,84 552,84 565,82 579,81 592,85 605,91 619,84 632,88 646,87 659,87 672,86 686,71 699,67 713,68 726,68 739,71 753,74 766,75 780,73" fill="none" stroke="#4CAF50" stroke-width="2"/>
<circle cx="70" cy="276" r="3" fill="#2196F3"/>
<circle cx="70" cy="154" r="3" fill="#F44336"/>
<circle cx="70" cy="108" r="3" fill="#4CAF50"/>
<circle cx="83" cy="274" r="3" fill="#2196F3"/>
<circle cx="83" cy="155" r="3" fill="#F44336"/>
<circle cx="83" cy="109" r="3" fill="#4CAF50"/>
<circle cx="96" cy="277" r="3" fill="#2196F3"/>
<circle cx="96" cy="156" r="3" fill="#F44336"/>
<circle cx="96" cy="109" r="3" fill="#4CAF50"/>
<circle cx="110" cy="273" r="3" fill="#2196F3"/>
<circle cx="110" cy="151" r="3" fill="#F44336"/>
<circle cx="110" cy="107" r="3" fill="#4CAF50"/>
<circle cx="123" cy="277" r="3" fill="#2196F3"/>
<circle cx="123" cy="153" r="3" fill="#F44336"/>
<circle cx="123" cy="113" r="3" fill="#4CAF50"/>
<circle cx="136" cy="275" r="3" fill="#2196F3"/>
<circle cx="136" cy="158" r="3" fill="#F44336"/>
<circle cx="136" cy="101" r="3" fill="#4CAF50"/>
<circle cx="150" cy="272" r="3" fill="#2196F3"/>
<circle cx="150" cy="151" r="3" fill="#F44336"/>
<circle cx="150" cy="99" r="3" fill="#4CAF50"/>
<circle cx="163" cy="273" r="3" fill="#2196F3"/>
<circle cx="163" cy="151" r="3" fill="#F44336"/>
<circle cx="163" cy="99" r="3" fill="#4CAF50"/>
<circle cx="177" cy="269" r="3" fill="#2196F3"/>
<circle cx="177" cy="151" r="3" fill="#F44336"/>
<circle cx="177" cy="97" r="3" fill="#4CAF50"/>
<circle cx="190" cy="269" r="3" fill="#2196F3"/>
<circle cx="190" cy="151" r="3" fill="#F44336"/>
<circle cx="190" cy="94" r="3" fill="#4CAF50"/>
<circle cx="203" cy="274" r="3" fill="#2196F3"/>
<circle cx="203" cy="151" r="3" fill="#F44336"/>
<circle cx="203" cy="95" r="3" fill="#4CAF50"/>
<circle cx="217" cy="270" r="3" fill="#2196F3"/>
<circle cx="217" cy="147" r="3" fill="#F44336"/>
<circle cx="217" cy="96" r="3" fill="#4CAF50"/>
<circle cx="230" cy="270" r="3" fill="#2196F3"/>
<circle cx="230" cy="146" r="3" fill="#F44336"/>
<circle cx="230" cy="95" r="3" fill="#4CAF50"/>
<circle cx="244" cy="273" r="3" fill="#2196F3"/>
<circle cx="244" cy="151" r="3" fill="#F44336"/>
<circle cx="244" cy="97" r="3" fill="#4CAF50"/>
<circle cx="257" cy="268" r="3" fill="#2196F3"/>
<circle cx="257" cy="151" r="3" fill="#F44336"/>
<circle cx="257" cy="96" r="3" fill="#4CAF50"/>
<circle cx="270" cy="270" r="3" fill="#2196F3"/>
<circle cx="270" cy="159" r="3" fill="#F44336"/>
<circle cx="270" cy="94" r="3" fill="#4CAF50"/>
<circle cx="284" cy="271" r="3" fill="#2196F3"/>
<circle cx="284" cy="153" r="3" fill="#F44336"/>
<circle cx="284" cy="92" r="3" fill="#4CAF50"/>
<circle cx="297" cy="274" r="3" fill="#2196F3"/>
<circle cx="297" cy="150" r="3" fill="#F44336"/>
<circle cx="297" cy="92" r="3" fill="#4CAF50"/>
<circle cx="311" cy="273" r="3" fill="#2196F3"/>
<circle cx="311" cy="149" r="3" fill="#F44336"/>
<circle cx="311" cy="97" r="3" fill="#4CAF50"/>
<circle cx="324" cy="271" r="3" fill="#2196F3"/>
<circle cx="324" cy="152" r="3" fill="#F44336"/>
<circle cx="324" cy="92" r="3" fill="#4CAF50"/>
<circle cx="337" cy="272" r="3" fill="#2196F3"/>
<circle cx="337" cy="152" r="3" fill="#F44336"/>
<circle cx="337" cy="95" r="3" fill="#4CAF50"/>
<circle cx="351" cy="274" r="3" fill="#2196F3"/>
<circle cx="351" cy="156" r="3" fill="#F44336"/>
<circle cx="351" cy="98" r="3" fill="#4CAF50"/>
<circle cx="364" cy="273" r="3" fill="#2196F3"/>
<circle cx="364" cy="152" r="3" fill="#F44336"/>
<circle cx="364" cy="96" r="3" fill="#4CAF50"/>
<circle cx="378" cy="273" r="3" fill="#2196F3"/>
<circle cx="378" cy="158" r="3" fill="#F44336"/>
<circle cx="378" cy="97" r="3" fill="#4CAF50"/>
<circle cx="391" cy="271" r="3" fill="#2196F3"/>
<circle cx="391" cy="123" r="3" fill="#F44336"/>
<circle cx="391" cy="89" r="3" fill="#4CAF50"/>
<circle cx="404" cy="271" r="3" fill="#2196F3"/>
<circle cx="404" cy="129" r="3" fill="#F44336"/>
<circle cx="404" cy="93" r="3" fill="#4CAF50"/>
<circle cx="418" cy="273" r="3" fill="#2196F3"/>
<circle cx="418" cy="128" r="3" fill="#F44336"/>
<circle cx="418" cy="88" r="3" fill="#4CAF50"/>
<circle cx="431" cy="273" r="3" fill="#2196F3"/>
<circle cx="431" cy="131" r="3" fill="#F44336"/>
<circle cx="431" cy="89" r="3" fill="#4CAF50"/>
<circle cx="445" cy="273" r="3" fill="#2196F3"/>
<circle cx="445" cy="129" r="3" fill="#F44336"/>
<circle cx="445" cy="93" r="3" fill="#4CAF50"/>
<circle cx="458" cy="271" r="3" fill="#2196F3"/>
<circle cx="458" cy="131" r="3" fill="#F44336"/>
<circle cx="458" cy="95" r="3" fill="#4CAF50"/>
<circle cx="471" cy="272" r="3" fill="#2196F3"/>
<circle cx="471" cy="131" r="3" fill="#F44336"/>
<circle cx="471" cy="88" r="3" fill="#4CAF50"/>
<circle cx="485" cy="269" r="3" fill="#2196F3"/>
<circle cx="485" cy="131" r="3" fill="#F44336"/>
<circle cx="485" cy="82" r="3" fill="#4CAF50"/>
<circle cx="498" cy="272" r="3" fill="#2196F3"/>
<circle cx="498" cy="126" r="3" fill="#F44336"/>
<circle cx="498" cy="85" r="3" fill="#4CAF50"/>
<circle cx="512" cy="273" r="3" fill="#2196F3"/>
<circle cx="512" cy="126" r="3" fill="#F44336"/>
<circle cx="512" cy="84" r="3" fill="#4CAF50"/>
<circle cx="525" cy="270" r="3" fill="#2196F3"/>
<circle cx="525" cy="129" r="3" fill="#F44336"/>
<circle cx="525" cy="85" r="3" fill="#4CAF50"/>
<circle cx="538" cy="271" r="3" fill="#2196F3"/>
<circle cx="538" cy="127" r="3" fill="#F44336"/>
<circle cx="538" cy="84" r="3" fill="#4CAF50"/>
<circle cx="552" cy="270" r="3" fill="#2196F3"/>
<circle cx="552" cy="128" r="3" fill="#F44336"/>
<circle cx="552" cy="84" r="3" fill="#4CAF50"/>
<circle cx="565" cy="271" r="3" fill="#2196F3"/>
<circle cx="565" cy="129" r="3" fill="#F44336"/>
<circle cx="565" cy="82" r="3" fill="#4CAF50"/>
<circle cx="579" cy="271" r="3" fill="#2196F3"/>
<circle cx="579" cy="127" r="3" fill="#F44336"/>
<circle cx="579" cy="81" r="3" fill="#4CAF50"/>
<circle cx="592" cy="272" r="3" fill="#2196F3"/>
<circle cx="592" cy="131" r="3" fill="#F44336"/>
<circle cx="592" cy="85" r="3" fill="#4CAF50"/>
<circle cx="605" cy="273" r="3" fill="#2196F3"/>
<circle cx="605" cy="127" r="3" fill="#F44336"/>
<circle cx="605" cy="91" r="3" fill="#4CAF50"/>
<circle cx="619" cy="274" r="3" fill="#2196F3"/>
<circle cx="619" cy="126" r="3" fill="#F44336"/>
<circle cx="619" cy="84" r="3" fill="#4CAF50"/>
<circle cx="632" cy="270" r="3" fill="#2196F3"/>
<circle cx="632" cy="133" r="3" fill="#F44336"/>
<circle cx="632" cy="88" r="3" fill="#4CAF50"/>
<circle cx="646" cy="274" r="3" fill="#2196F3"/>
<circle cx="646" cy="126" r="3" fill="#F44336"/>
<circle cx="646" cy="87" r="3" fill="#4CAF50"/>
<circle cx="659" cy="271" r="3" fill="#2196F3"/>
<circle cx="659" cy="133" r="3" fill="#F44336"/>
<circle cx="659" cy="87" r="3" fill="#4CAF50"/>
<circle cx="672" cy="270" r="3" fill="#2196F3"/>
<circle cx="672" cy="131" r="3" fill="#F44336"/>
<circle cx="672" cy="86" r="3" fill="#4CAF50"/>
<circle cx="686" cy="269" r="3" fill="#2196F3"/>
<circle cx="686" cy="118" r="3" fill="#F44336"/>
<circle cx="686" cy="71" r="3" fill="#4CAF50"/>
<circle cx="699" cy="269" r="3" fill="#2196F3"/>
<circle cx="699" cy="119" r="3" fill="#F44336"/>
<circle cx="699" cy="67" r="3" fill="#4CAF50"/>
<circle cx="713" cy="266" r="3" fill="#2196F3"/>
<circle cx="713" cy="119" r="3" fill="#F44336"/>
<circle cx="713" cy="68" r="3" fill="#4CAF50"/>
<circle cx="726" cy="270" r="3" fill="#2196F3"/>
<circle cx="726" cy="120" r="3" fill="#F44336"/>
<circle cx="726" cy="68" r="3" fill="#4CAF50"/>
<circle cx="739" cy="268" r="3" fill="#2196F3"/>
<circle cx="739" cy="123" r="3" fill="#F44336"/>
<circle cx="739" cy="71" r="3" fill="#4CAF50"/>
<circle cx="753" cy="270" r="3" fill="#2196F3"/>
<circle cx="753" cy="124" r="3" fill="#F44336"/>
<circle cx="753" cy="74" r="3" fill="#4CAF50"/>
<circle cx="766" cy="268" r="3" fill="#2196F3"/>
<circle cx="766" cy="122" r="3" fill="#F44336"/>
<circle cx="766" cy="75" r="3" fill="#4CAF50"/>
<circle cx="780" cy="267" r="3" fill="#2196F3"/>
<circle cx="780" cy="121" r="3" fill="#F44336"/>
<circle cx="780" cy="73" r="3" fill="#4CAF50"/>
<text x="70" y="355" text-anchor="middle" font-size="10" fill="#666">d31c3d3</text>
<text x="83" y="355" text-anchor="middle" font-size="10" fill="#666">577b0f6</text>
<text x="96" y="355" text-anchor="middle" font-size="10" fill="#666">a0e3a8f</text>
<text x="110" y="355" text-anchor="middle" font-size="10" fill="#666">32b7787</text>
<text x="123" y="355" text-anchor="middle" font-size="10" fill="#666">940e369</text>
<text x="136" y="355" text-anchor="middle" font-size="10" fill="#666">78956c1</text>
<text x="150" y="355" text-anchor="middle" font-size="10" fill="#666">1a288e9</text>
<text x="163" y="355" text-anchor="middle" font-size="10" fill="#666">f1c0746</text>
<text x="177" y="355" text-anchor="middle" font-size="10" fill="#666">efad3b5</text>
<text x="190" y="355" text-anchor="middle" font-size="10" fill="#666">d3839be</text>
<text x="203" y="355" text-anchor="middle" font-size="10" fill="#666">a0c21b2</text>
<text x="217" y="355" text-anchor="middle" font-size="10" fill="#666">c3d3d81</text>
<text x="230" y="355" text-anchor="middle" font-size="10" fill="#666">e40d897</text>
<text x="244" y="355" text-anchor="middle" font-size="10" fill="#666">0b1ed97</text>
<text x="257" y="355" text-anchor="middle" font-size="10" fill="#666">6a5ae3f</text>
<text x="270" y="355" text-anchor="middle" font-size="10" fill="#666">59cf448</text>
<text x="284" y="355" text-anchor="middle" font-size="10" fill="#666">42b3e04</text>
<text x="297" y="355" text-anchor="middle" font-size="10" fill="#666">bd9421a</text>
<text x="311" y="355" text-anchor="middle" font-size="10" fill="#666">f80812f</text>
<text x="324" y="355" text-anchor="middle" font-size="10" fill="#666">448a5fe</text>
<text x="337" y="355" text-anchor="middle" font-size="10" fill="#666">b16c1cc</text>
<text x="351" y="355" text-anchor="middle" font-size="10" fill="#666">44c334c</text>
<text x="364" y="355" text-anchor="middle" font-size="10" fill="#666">aa51d1a</text>
<text x="378" y="355" text-anchor="middle" font-size="10" fill="#666">9bee79a</text>
<text x="391" y="355" text-anchor="middle" font-size="10" fill="#666">4380346</text>
<text x="404" y="355" text-anchor="middle" font-size="10" fill="#666">2a587a9</text>
<text x="418" y="355" text-anchor="middle" font-size="10" fill="#666">efb005a</text>
<text x="431" y="355" text-anchor="middle" font-size="10" fill="#666">1c3b72e</text>
<text x="445" y="355" text-anchor="middle" font-size="10" fill="#666">ff7c733</text>
<text x="458" y="355" text-anchor="middle" font-size="10" fill="#666">962897f</text>
<text x="471" y="355" text-anchor="middle" font-size="10" fill="#666">dfec04b</text>
<text x="485" y="355" text-anchor="middle" font-size="10" fill="#666">60e18de</text>
<text x="498" y="355" text-anchor="middle" font-size="10" fill="#666">80a0d41</text>
<text x="512" y="355" text-anchor="middle" font-size="10" fill="#666">e200726</text>
<text x="525" y="355" text-anchor="middle" font-size="10" fill="#666">775a89f</text>
<text x="538" y="355" text-anchor="middle" font-size="10" fill="#666">18e45a5</text>
<text x="552" y="355" text-anchor="middle" font-size="10" fill="#666">9d60b61</text>
<text x="565" y="355" text-anchor="middle" font-size="10" fill="#666">479229b</text>
<text x="579" y="355" text-anchor="middle" font-size="10" fill="#666">39769db</text>
<text x="592" y="355" text-anchor="middle" font-size="10" fill="#666">2834756</text>
<text x="605" y="355" text-anchor="middle" font-size="10" fill="#666">3628e6d</text>
<text x="619" y="355" text-anchor="middle" font-size="10" fill="#666">daa3fc2</text>
<text x="632" y="355" text-anchor="middle" font-size="10" fill="#666">8fc41b8</text>
<text x="646" y="355" text-anchor="middle" font-size="10" fill="#666">7d63976</text>
<text x="659" y="355" text-anchor="middle" font-size="10" fill="#666">4f6a400</text>
<text x="672" y="355" text-anchor="middle" font-size="10" fill="#666">443d8b3</text>
<text x="686" y="355" text-anchor="middle" font-size="10" fill="#666">86f53df</text>
<text x="699" y="355" text-anchor="middle" font-size="10" fill="#666">d665d11</text>
<text x="713" y="355" text-anchor="middle" font-size="10" fill="#666">23f76d5</text>
<text x="726" y="355" text-anchor="middle" font-size="10" fill="#666">bc8afe6</text>
<text x="739" y="355" text-anchor="middle" font-size="10" fill="#666">ed1092f</text>
<text x="753" y="355" text-anchor="middle" font-size="10" fill="#666">058700a</text>
<text x="766" y="355" text-anchor="middle" font-size="10" fill="#666">c44d2f0</text>
<text x="780" y="355" text-anchor="middle" font-size="10" fill="#666">a147f05</text>
<circle cx="90" cy="20" r="4" fill="#2196F3"/>
<text x="98" y="24" text-anchor="start" font-size="12" fill="#2196F3">Interpreted</text>
<circle cx="200" cy="20" r="4" fill="#F44336"/>
<text x="208" y="24" text-anchor="start" font-size="12" fill="#F44336">Compiled</text>
<circle cx="300" cy="20" r="4" fill="#4CAF50"/>
<text x="308" y="24" text-anchor="start" font-size="12" fill="#4CAF50">Wall-clock</text>
</svg>
