<svg width="800" height="400" xmlns="http://www.w3.org/2000/svg">
<rect width="800" height="400" fill="white"/>
<line x1="70" y1="40" x2="70" y2="340" stroke="#333" stroke-width="1"/>
<line x1="70" y1="340" x2="780" y2="340" stroke="#333" stroke-width="1"/>
<text x="65" y="344" text-anchor="end" font-size="11" fill="#333">0</text>
<text x="65" y="194" text-anchor="end" font-size="11" fill="#333">4000</text>
<text x="65" y="44" text-anchor="end" font-size="11" fill="#333">8000</text>
<text x="15" y="190" text-anchor="middle" font-size="12" fill="#333" transform="rotate(-90 15 190)">ms</text>
<polyline points="70,268 141,266 212,269 283,265 354,269 425,267 496,263 567,265 638,260 709,260 780,265" fill="none" stroke="#2196F3" stroke-width="2"/>
<polyline points="70,131 141,132 212,133 283,128 354,130 425,135 496,127 567,127 638,127 709,128 780,128" fill="none" stroke="#F44336" stroke-width="2"/>
<polyline points="70,79 141,80 212,80 283,78 354,84 425,71 496,69 567,69 638,66 709,63 780,64" fill="none" stroke="#4CAF50" stroke-width="2"/>
<circle cx="70" cy="268" r="3" fill="#2196F3"/>
<circle cx="70" cy="131" r="3" fill="#F44336"/>
<circle cx="70" cy="79" r="3" fill="#4CAF50"/>
<circle cx="141" cy="266" r="3" fill="#2196F3"/>
<circle cx="141" cy="132" r="3" fill="#F44336"/>
<circle cx="141" cy="80" r="3" fill="#4CAF50"/>
<circle cx="212" cy="269" r="3" fill="#2196F3"/>
<circle cx="212" cy="133" r="3" fill="#F44336"/>
<circle cx="212" cy="80" r="3" fill="#4CAF50"/>
<circle cx="283" cy="265" r="3" fill="#2196F3"/>
<circle cx="283" cy="128" r="3" fill="#F44336"/>
<circle cx="283" cy="78" r="3" fill="#4CAF50"/>
<circle cx="354" cy="269" r="3" fill="#2196F3"/>
<circle cx="354" cy="130" r="3" fill="#F44336"/>
<circle cx="354" cy="84" r="3" fill="#4CAF50"/>
<circle cx="425" cy="267" r="3" fill="#2196F3"/>
<circle cx="425" cy="135" r="3" fill="#F44336"/>
<circle cx="425" cy="71" r="3" fill="#4CAF50"/>
<circle cx="496" cy="263" r="3" fill="#2196F3"/>
<circle cx="496" cy="127" r="3" fill="#F44336"/>
<circle cx="496" cy="69" r="3" fill="#4CAF50"/>
<circle cx="567" cy="265" r="3" fill="#2196F3"/>
<circle cx="567" cy="127" r="3" fill="#F44336"/>
<circle cx="567" cy="69" r="3" fill="#4CAF50"/>
<circle cx="638" cy="260" r="3" fill="#2196F3"/>
<circle cx="638" cy="127" r="3" fill="#F44336"/>
<circle cx="638" cy="66" r="3" fill="#4CAF50"/>
<circle cx="709" cy="260" r="3" fill="#2196F3"/>
<circle cx="709" cy="128" r="3" fill="#F44336"/>
<circle cx="709" cy="63" r="3" fill="#4CAF50"/>
<circle cx="780" cy="265" r="3" fill="#2196F3"/>
<circle cx="780" cy="128" r="3" fill="#F44336"/>
<circle cx="780" cy="64" r="3" fill="#4CAF50"/>
<text x="70" y="355" text-anchor="middle" font-size="10" fill="#666">d31c3d3</text>
<text x="141" y="355" text-anchor="middle" font-size="10" fill="#666">577b0f6</text>
<text x="212" y="355" text-anchor="middle" font-size="10" fill="#666">a0e3a8f</text>
<text x="283" y="355" text-anchor="middle" font-size="10" fill="#666">32b7787</text>
<text x="354" y="355" text-anchor="middle" font-size="10" fill="#666">940e369</text>
<text x="425" y="355" text-anchor="middle" font-size="10" fill="#666">78956c1</text>
<text x="496" y="355" text-anchor="middle" font-size="10" fill="#666">1a288e9</text>
<text x="567" y="355" text-anchor="middle" font-size="10" fill="#666">f1c0746</text>
<text x="638" y="355" text-anchor="middle" font-size="10" fill="#666">efad3b5</text>
<text x="709" y="355" text-anchor="middle" font-size="10" fill="#666">d3839be</text>
<text x="780" y="355" text-anchor="middle" font-size="10" fill="#666">a0c21b2</text>
<circle cx="90" cy="20" r="4" fill="#2196F3"/>
<text x="98" y="24" text-anchor="start" font-size="12" fill="#2196F3">Interpreted</text>
<circle cx="200" cy="20" r="4" fill="#F44336"/>
<text x="208" y="24" text-anchor="start" font-size="12" fill="#F44336">Compiled</text>
<circle cx="300" cy="20" r="4" fill="#4CAF50"/>
<text x="308" y="24" text-anchor="start" font-size="12" fill="#4CAF50">Wall-clock</text>
</svg>
