<svg width="800" height="400" xmlns="http://www.w3.org/2000/svg">
<rect width="800" height="400" fill="white"/>
<line x1="70" y1="40" x2="70" y2="340" stroke="#333" stroke-width="1"/>
<line x1="70" y1="340" x2="730" y2="340" stroke="#333" stroke-width="1"/>
<line x1="730" y1="40" x2="730" y2="340" stroke="#333" stroke-width="1"/>
<text x="65" y="344" text-anchor="end" font-size="11" fill="#333">0</text>
<text x="65" y="194" text-anchor="end" font-size="11" fill="#333">79000</text>
<text x="65" y="44" text-anchor="end" font-size="11" fill="#333">158000</text>
<text x="15" y="190" text-anchor="middle" font-size="12" fill="#333" transform="rotate(-90 15 190)">ms</text>
<text x="735" y="344" text-anchor="start" font-size="11" fill="#333">0</text>
<text x="735" y="194" text-anchor="start" font-size="11" fill="#333">5749000000</text>
<text x="735" y="44" text-anchor="start" font-size="11" fill="#333">11498000000</text>
<text x="785" y="190" text-anchor="middle" font-size="12" fill="#333" transform="rotate(90 785 190)">bytes</text>
<polyline points="70,71 143,118 216,124 290,124 363,128 436,141 510,102 583,106 656,128 730,102" fill="none" stroke="#0072B2" stroke-width="2"/>
<polyline points="70,42 143,97 216,100 290,102 363,105 436,121 510,78 583,82 656,106 730,79" fill="none" stroke="#CC79A7" stroke-width="2"/>
<polyline points="70,340 143,340 216,340 290,340 363,340 436,340 510,340 583,340 656,340 730,340" fill="none" stroke="#D55E00" stroke-width="2"/>
<polyline points="70,80 143,128 216,132 290,134 363,136 436,148 510,110 583,118 656,137 730,110" fill="none" stroke="#009E73" stroke-width="2"/>
<polyline points="70,244 143,244 216,244 290,244 363,244 436,244 510,244 583,244 656,244 730,244" fill="none" stroke="#56B4E9" stroke-width="2"/>
<polyline points="70,196 143,193 216,198 290,191 363,191 436,196 510,194 583,194 656,195 730,192" fill="none" stroke="#E69F00" stroke-width="2"/>
<polyline points="70,340 143,340 216,340 290,340 363,340 436,340 510,340 583,340 656,340 730,340" fill="none" stroke="#C44E52" stroke-width="2"/>
<polyline points="70,48 143,46 216,47 290,41 363,41 436,48 510,45 583,46 656,45 730,41" fill="none" stroke="#000000" stroke-width="2"/>
<circle cx="70" cy="71" r="3" fill="#0072B2"/>
<circle cx="70" cy="42" r="3" fill="#CC79A7"/>
<circle cx="70" cy="340" r="3" fill="#D55E00"/>
<circle cx="70" cy="80" r="3" fill="#009E73"/>
<circle cx="70" cy="244" r="3" fill="#56B4E9"/>
<circle cx="70" cy="196" r="3" fill="#E69F00"/>
<circle cx="70" cy="340" r="3" fill="#C44E52"/>
<circle cx="70" cy="48" r="3" fill="#000000"/>
<circle cx="143" cy="118" r="3" fill="#0072B2"/>
<circle cx="143" cy="97" r="3" fill="#CC79A7"/>
<circle cx="143" cy="340" r="3" fill="#D55E00"/>
<circle cx="143" cy="128" r="3" fill="#009E73"/>
<circle cx="143" cy="244" r="3" fill="#56B4E9"/>
<circle cx="143" cy="193" r="3" fill="#E69F00"/>
<circle cx="143" cy="340" r="3" fill="#C44E52"/>
<circle cx="143" cy="46" r="3" fill="#000000"/>
<circle cx="216" cy="124" r="3" fill="#0072B2"/>
<circle cx="216" cy="100" r="3" fill="#CC79A7"/>
<circle cx="216" cy="340" r="3" fill="#D55E00"/>
<circle cx="216" cy="132" r="3" fill="#009E73"/>
<circle cx="216" cy="244" r="3" fill="#56B4E9"/>
<circle cx="216" cy="198" r="3" fill="#E69F00"/>
<circle cx="216" cy="340" r="3" fill="#C44E52"/>
<circle cx="216" cy="47" r="3" fill="#000000"/>
<circle cx="290" cy="124" r="3" fill="#0072B2"/>
<circle cx="290" cy="102" r="3" fill="#CC79A7"/>
<circle cx="290" cy="340" r="3" fill="#D55E00"/>
<circle cx="290" cy="134" r="3" fill="#009E73"/>
<circle cx="290" cy="244" r="3" fill="#56B4E9"/>
<circle cx="290" cy="191" r="3" fill="#E69F00"/>
<circle cx="290" cy="340" r="3" fill="#C44E52"/>
<circle cx="290" cy="41" r="3" fill="#000000"/>
<circle cx="363" cy="128" r="3" fill="#0072B2"/>
<circle cx="363" cy="105" r="3" fill="#CC79A7"/>
<circle cx="363" cy="340" r="3" fill="#D55E00"/>
<circle cx="363" cy="136" r="3" fill="#009E73"/>
<circle cx="363" cy="244" r="3" fill="#56B4E9"/>
<circle cx="363" cy="191" r="3" fill="#E69F00"/>
<circle cx="363" cy="340" r="3" fill="#C44E52"/>
<circle cx="363" cy="41" r="3" fill="#000000"/>
<circle cx="436" cy="141" r="3" fill="#0072B2"/>
<circle cx="436" cy="121" r="3" fill="#CC79A7"/>
<circle cx="436" cy="340" r="3" fill="#D55E00"/>
<circle cx="436" cy="148" r="3" fill="#009E73"/>
<circle cx="436" cy="244" r="3" fill="#56B4E9"/>
<circle cx="436" cy="196" r="3" fill="#E69F00"/>
<circle cx="436" cy="340" r="3" fill="#C44E52"/>
<circle cx="436" cy="48" r="3" fill="#000000"/>
<circle cx="510" cy="102" r="3" fill="#0072B2"/>
<circle cx="510" cy="78" r="3" fill="#CC79A7"/>
<circle cx="510" cy="340" r="3" fill="#D55E00"/>
<circle cx="510" cy="110" r="3" fill="#009E73"/>
<circle cx="510" cy="244" r="3" fill="#56B4E9"/>
<circle cx="510" cy="194" r="3" fill="#E69F00"/>
<circle cx="510" cy="340" r="3" fill="#C44E52"/>
<circle cx="510" cy="45" r="3" fill="#000000"/>
<circle cx="583" cy="106" r="3" fill="#0072B2"/>
<circle cx="583" cy="82" r="3" fill="#CC79A7"/>
<circle cx="583" cy="340" r="3" fill="#D55E00"/>
<circle cx="583" cy="118" r="3" fill="#009E73"/>
<circle cx="583" cy="244" r="3" fill="#56B4E9"/>
<circle cx="583" cy="194" r="3" fill="#E69F00"/>
<circle cx="583" cy="340" r="3" fill="#C44E52"/>
<circle cx="583" cy="46" r="3" fill="#000000"/>
<circle cx="656" cy="128" r="3" fill="#0072B2"/>
<circle cx="656" cy="106" r="3" fill="#CC79A7"/>
<circle cx="656" cy="340" r="3" fill="#D55E00"/>
<circle cx="656" cy="137" r="3" fill="#009E73"/>
<circle cx="656" cy="244" r="3" fill="#56B4E9"/>
<circle cx="656" cy="195" r="3" fill="#E69F00"/>
<circle cx="656" cy="340" r="3" fill="#C44E52"/>
<circle cx="656" cy="45" r="3" fill="#000000"/>
<circle cx="730" cy="102" r="3" fill="#0072B2"/>
<circle cx="730" cy="79" r="3" fill="#CC79A7"/>
<circle cx="730" cy="340" r="3" fill="#D55E00"/>
<circle cx="730" cy="110" r="3" fill="#009E73"/>
<circle cx="730" cy="244" r="3" fill="#56B4E9"/>
<circle cx="730" cy="192" r="3" fill="#E69F00"/>
<circle cx="730" cy="340" r="3" fill="#C44E52"/>
<circle cx="730" cy="41" r="3" fill="#000000"/>
<circle cx="90" cy="20" r="4" fill="#0072B2"/>
<text x="98" y="24" text-anchor="start" font-size="12" fill="#0072B2">inte</text>
<circle cx="150" cy="20" r="4" fill="#CC79A7"/>
<text x="158" y="24" text-anchor="start" font-size="12" fill="#CC79A7">comp</text>
<circle cx="215" cy="20" r="4" fill="#D55E00"/>
<text x="223" y="24" text-anchor="start" font-size="12" fill="#D55E00">run</text>
<circle cx="270" cy="20" r="4" fill="#009E73"/>
<text x="278" y="24" text-anchor="start" font-size="12" fill="#009E73">wall</text>
<circle cx="335" cy="20" r="4" fill="#56B4E9"/>
<text x="343" y="24" text-anchor="start" font-size="12" fill="#56B4E9">mem-inte</text>
<circle cx="425" cy="20" r="4" fill="#E69F00"/>
<text x="433" y="24" text-anchor="start" font-size="12" fill="#E69F00">mem-comp</text>
<circle cx="520" cy="20" r="4" fill="#C44E52"/>
<text x="528" y="24" text-anchor="start" font-size="12" fill="#C44E52">mem-run</text>
<circle cx="605" cy="20" r="4" fill="#000000"/>
<text x="613" y="24" text-anchor="start" font-size="12" fill="#000000">mem-total</text>
</svg>
