<svg width="800" height="400" xmlns="http://www.w3.org/2000/svg">
<rect width="800" height="400" fill="white"/>
<line x1="70" y1="40" x2="70" y2="340" stroke="#333" stroke-width="1"/>
<line x1="70" y1="340" x2="780" y2="340" stroke="#333" stroke-width="1"/>
<text x="65" y="344" text-anchor="end" font-size="11" fill="#333">0</text>
<text x="65" y="194" text-anchor="end" font-size="11" fill="#333">4000</text>
<text x="65" y="44" text-anchor="end" font-size="11" fill="#333">8000</text>
<text x="15" y="190" text-anchor="middle" font-size="12" fill="#333" transform="rotate(-90 15 190)">ms</text>
<polyline points="70,268 105,266 141,269 176,265 212,269 247,267 283,263 318,265 354,260 389,260 425,265 460,261 496,261 531,265 567,259 602,261 638,262 673,266 709,265 744,262 780,263" fill="none" stroke="#2196F3" stroke-width="2"/>
<polyline points="70,131 105,132 141,133 176,128 212,130 247,135 283,127 318,127 354,127 389,128 425,128 460,123 496,122 531,128 567,127 602,136 638,130 673,126 709,125 744,128 780,128" fill="none" stroke="#F44336" stroke-width="2"/>
<polyline points="70,79 105,80 141,80 176,78 212,84 247,71 283,69 318,69 354,66 389,63 425,64 460,65 496,65 531,66 567,66 602,63 638,61 673,61 709,67 744,61 780,65" fill="none" stroke="#4CAF50" stroke-width="2"/>
<circle cx="70" cy="268" r="3" fill="#2196F3"/>
<circle cx="70" cy="131" r="3" fill="#F44336"/>
<circle cx="70" cy="79" r="3" fill="#4CAF50"/>
<circle cx="105" cy="266" r="3" fill="#2196F3"/>
<circle cx="105" cy="132" r="3" fill="#F44336"/>
<circle cx="105" cy="80" r="3" fill="#4CAF50"/>
<circle cx="141" cy="269" r="3" fill="#2196F3"/>
<circle cx="141" cy="133" r="3" fill="#F44336"/>
<circle cx="141" cy="80" r="3" fill="#4CAF50"/>
<circle cx="176" cy="265" r="3" fill="#2196F3"/>
<circle cx="176" cy="128" r="3" fill="#F44336"/>
<circle cx="176" cy="78" r="3" fill="#4CAF50"/>
<circle cx="212" cy="269" r="3" fill="#2196F3"/>
<circle cx="212" cy="130" r="3" fill="#F44336"/>
<circle cx="212" cy="84" r="3" fill="#4CAF50"/>
<circle cx="247" cy="267" r="3" fill="#2196F3"/>
<circle cx="247" cy="135" r="3" fill="#F44336"/>
<circle cx="247" cy="71" r="3" fill="#4CAF50"/>
<circle cx="283" cy="263" r="3" fill="#2196F3"/>
<circle cx="283" cy="127" r="3" fill="#F44336"/>
<circle cx="283" cy="69" r="3" fill="#4CAF50"/>
<circle cx="318" cy="265" r="3" fill="#2196F3"/>
<circle cx="318" cy="127" r="3" fill="#F44336"/>
<circle cx="318" cy="69" r="3" fill="#4CAF50"/>
<circle cx="354" cy="260" r="3" fill="#2196F3"/>
<circle cx="354" cy="127" r="3" fill="#F44336"/>
<circle cx="354" cy="66" r="3" fill="#4CAF50"/>
<circle cx="389" cy="260" r="3" fill="#2196F3"/>
<circle cx="389" cy="128" r="3" fill="#F44336"/>
<circle cx="389" cy="63" r="3" fill="#4CAF50"/>
<circle cx="425" cy="265" r="3" fill="#2196F3"/>
<circle cx="425" cy="128" r="3" fill="#F44336"/>
<circle cx="425" cy="64" r="3" fill="#4CAF50"/>
<circle cx="460" cy="261" r="3" fill="#2196F3"/>
<circle cx="460" cy="123" r="3" fill="#F44336"/>
<circle cx="460" cy="65" r="3" fill="#4CAF50"/>
<circle cx="496" cy="261" r="3" fill="#2196F3"/>
<circle cx="496" cy="122" r="3" fill="#F44336"/>
<circle cx="496" cy="65" r="3" fill="#4CAF50"/>
<circle cx="531" cy="265" r="3" fill="#2196F3"/>
<circle cx="531" cy="128" r="3" fill="#F44336"/>
<circle cx="531" cy="66" r="3" fill="#4CAF50"/>
<circle cx="567" cy="259" r="3" fill="#2196F3"/>
<circle cx="567" cy="127" r="3" fill="#F44336"/>
<circle cx="567" cy="66" r="3" fill="#4CAF50"/>
<circle cx="602" cy="261" r="3" fill="#2196F3"/>
<circle cx="602" cy="136" r="3" fill="#F44336"/>
<circle cx="602" cy="63" r="3" fill="#4CAF50"/>
<circle cx="638" cy="262" r="3" fill="#2196F3"/>
<circle cx="638" cy="130" r="3" fill="#F44336"/>
<circle cx="638" cy="61" r="3" fill="#4CAF50"/>
<circle cx="673" cy="266" r="3" fill="#2196F3"/>
<circle cx="673" cy="126" r="3" fill="#F44336"/>
<circle cx="673" cy="61" r="3" fill="#4CAF50"/>
<circle cx="709" cy="265" r="3" fill="#2196F3"/>
<circle cx="709" cy="125" r="3" fill="#F44336"/>
<circle cx="709" cy="67" r="3" fill="#4CAF50"/>
<circle cx="744" cy="262" r="3" fill="#2196F3"/>
<circle cx="744" cy="128" r="3" fill="#F44336"/>
<circle cx="744" cy="61" r="3" fill="#4CAF50"/>
<circle cx="780" cy="263" r="3" fill="#2196F3"/>
<circle cx="780" cy="128" r="3" fill="#F44336"/>
<circle cx="780" cy="65" r="3" fill="#4CAF50"/>
<text x="70" y="355" text-anchor="middle" font-size="10" fill="#666">d31c3d3</text>
<text x="105" y="355" text-anchor="middle" font-size="10" fill="#666">577b0f6</text>
<text x="141" y="355" text-anchor="middle" font-size="10" fill="#666">a0e3a8f</text>
<text x="176" y="355" text-anchor="middle" font-size="10" fill="#666">32b7787</text>
<text x="212" y="355" text-anchor="middle" font-size="10" fill="#666">940e369</text>
<text x="247" y="355" text-anchor="middle" font-size="10" fill="#666">78956c1</text>
<text x="283" y="355" text-anchor="middle" font-size="10" fill="#666">1a288e9</text>
<text x="318" y="355" text-anchor="middle" font-size="10" fill="#666">f1c0746</text>
<text x="354" y="355" text-anchor="middle" font-size="10" fill="#666">efad3b5</text>
<text x="389" y="355" text-anchor="middle" font-size="10" fill="#666">d3839be</text>
<text x="425" y="355" text-anchor="middle" font-size="10" fill="#666">a0c21b2</text>
<text x="460" y="355" text-anchor="middle" font-size="10" fill="#666">c3d3d81</text>
<text x="496" y="355" text-anchor="middle" font-size="10" fill="#666">e40d897</text>
<text x="531" y="355" text-anchor="middle" font-size="10" fill="#666">0b1ed97</text>
<text x="567" y="355" text-anchor="middle" font-size="10" fill="#666">6a5ae3f</text>
<text x="602" y="355" text-anchor="middle" font-size="10" fill="#666">59cf448</text>
<text x="638" y="355" text-anchor="middle" font-size="10" fill="#666">42b3e04</text>
<text x="673" y="355" text-anchor="middle" font-size="10" fill="#666">bd9421a</text>
<text x="709" y="355" text-anchor="middle" font-size="10" fill="#666">f80812f</text>
<text x="744" y="355" text-anchor="middle" font-size="10" fill="#666">448a5fe</text>
<text x="780" y="355" text-anchor="middle" font-size="10" fill="#666">b16c1cc</text>
<circle cx="90" cy="20" r="4" fill="#2196F3"/>
<text x="98" y="24" text-anchor="start" font-size="12" fill="#2196F3">Interpreted</text>
<circle cx="200" cy="20" r="4" fill="#F44336"/>
<text x="208" y="24" text-anchor="start" font-size="12" fill="#F44336">Compiled</text>
<circle cx="300" cy="20" r="4" fill="#4CAF50"/>
<text x="308" y="24" text-anchor="start" font-size="12" fill="#4CAF50">Wall-clock</text>
</svg>
