<svg width="800" height="400" xmlns="http://www.w3.org/2000/svg">
<rect width="800" height="400" fill="white"/>
<line x1="70" y1="40" x2="70" y2="340" stroke="#333" stroke-width="1"/>
<line x1="70" y1="340" x2="730" y2="340" stroke="#333" stroke-width="1"/>
<line x1="730" y1="40" x2="730" y2="340" stroke="#333" stroke-width="1"/>
<text x="65" y="344" text-anchor="end" font-size="11" fill="#333">0</text>
<text x="65" y="194" text-anchor="end" font-size="11" fill="#333">93500</text>
<text x="65" y="44" text-anchor="end" font-size="11" fill="#333">187000</text>
<text x="15" y="190" text-anchor="middle" font-size="12" fill="#333" transform="rotate(-90 15 190)">ms</text>
<text x="735" y="344" text-anchor="start" font-size="11" fill="#333">0</text>
<text x="735" y="194" text-anchor="start" font-size="11" fill="#333">9810500000</text>
<text x="735" y="44" text-anchor="start" font-size="11" fill="#333">19621000000</text>
<text x="785" y="190" text-anchor="middle" font-size="12" fill="#333" transform="rotate(90 785 190)">bytes</text>
<polyline points="70,171 143,131 216,138 290,131 363,144 436,104 510,143 583,134 656,136 730,138" fill="none" stroke="#0072B2" stroke-width="2"/>
<polyline points="70,127 143,58 216,76 290,56 363,69 436,41 510,85 583,63 656,64 730,79" fill="none" stroke="#CC79A7" stroke-width="2"/>
<polyline points="70,340 143,339 216,339 290,339 363,339 436,339 510,339 583,339 656,339 730,339" fill="none" stroke="#D55E00" stroke-width="2"/>
<polyline points="70,292 143,280 216,284 290,282 363,284 436,275 510,285 583,283 656,283 730,284" fill="none" stroke="#009E73" stroke-width="2"/>
<polyline points="70,239 143,225 216,228 290,225 363,230 436,226 510,233 583,230 656,233 730,231" fill="none" stroke="#56B4E9" stroke-width="2"/>
<polyline points="70,230 143,222 216,222 290,222 363,222 436,223 510,224 583,224 656,225 730,226" fill="none" stroke="#E69F00" stroke-width="2"/>
<polyline points="70,339 143,338 216,339 290,338 363,339 436,339 510,339 583,339 656,339 730,339" fill="none" stroke="#C44E52" stroke-width="2"/>
<polyline points="70,71 143,52 216,51 290,51 363,41 436,53 510,60 583,42 656,62 730,45" fill="none" stroke="#000000" stroke-width="2"/>
<circle cx="70" cy="171" r="3" fill="#0072B2"/>
<circle cx="70" cy="127" r="3" fill="#CC79A7"/>
<circle cx="70" cy="340" r="3" fill="#D55E00"/>
<circle cx="70" cy="292" r="3" fill="#009E73"/>
<circle cx="70" cy="239" r="3" fill="#56B4E9"/>
<circle cx="70" cy="230" r="3" fill="#E69F00"/>
<circle cx="70" cy="339" r="3" fill="#C44E52"/>
<circle cx="70" cy="71" r="3" fill="#000000"/>
<circle cx="143" cy="131" r="3" fill="#0072B2"/>
<circle cx="143" cy="58" r="3" fill="#CC79A7"/>
<circle cx="143" cy="339" r="3" fill="#D55E00"/>
<circle cx="143" cy="280" r="3" fill="#009E73"/>
<circle cx="143" cy="225" r="3" fill="#56B4E9"/>
<circle cx="143" cy="222" r="3" fill="#E69F00"/>
<circle cx="143" cy="338" r="3" fill="#C44E52"/>
<circle cx="143" cy="52" r="3" fill="#000000"/>
<circle cx="216" cy="138" r="3" fill="#0072B2"/>
<circle cx="216" cy="76" r="3" fill="#CC79A7"/>
<circle cx="216" cy="339" r="3" fill="#D55E00"/>
<circle cx="216" cy="284" r="3" fill="#009E73"/>
<circle cx="216" cy="228" r="3" fill="#56B4E9"/>
<circle cx="216" cy="222" r="3" fill="#E69F00"/>
<circle cx="216" cy="339" r="3" fill="#C44E52"/>
<circle cx="216" cy="51" r="3" fill="#000000"/>
<circle cx="290" cy="131" r="3" fill="#0072B2"/>
<circle cx="290" cy="56" r="3" fill="#CC79A7"/>
<circle cx="290" cy="339" r="3" fill="#D55E00"/>
<circle cx="290" cy="282" r="3" fill="#009E73"/>
<circle cx="290" cy="225" r="3" fill="#56B4E9"/>
<circle cx="290" cy="222" r="3" fill="#E69F00"/>
<circle cx="290" cy="338" r="3" fill="#C44E52"/>
<circle cx="290" cy="51" r="3" fill="#000000"/>
<circle cx="363" cy="144" r="3" fill="#0072B2"/>
<circle cx="363" cy="69" r="3" fill="#CC79A7"/>
<circle cx="363" cy="339" r="3" fill="#D55E00"/>
<circle cx="363" cy="284" r="3" fill="#009E73"/>
<circle cx="363" cy="230" r="3" fill="#56B4E9"/>
<circle cx="363" cy="222" r="3" fill="#E69F00"/>
<circle cx="363" cy="339" r="3" fill="#C44E52"/>
<circle cx="363" cy="41" r="3" fill="#000000"/>
<circle cx="436" cy="104" r="3" fill="#0072B2"/>
<circle cx="436" cy="41" r="3" fill="#CC79A7"/>
<circle cx="436" cy="339" r="3" fill="#D55E00"/>
<circle cx="436" cy="275" r="3" fill="#009E73"/>
<circle cx="436" cy="226" r="3" fill="#56B4E9"/>
<circle cx="436" cy="223" r="3" fill="#E69F00"/>
<circle cx="436" cy="339" r="3" fill="#C44E52"/>
<circle cx="436" cy="53" r="3" fill="#000000"/>
<circle cx="510" cy="143" r="3" fill="#0072B2"/>
<circle cx="510" cy="85" r="3" fill="#CC79A7"/>
<circle cx="510" cy="339" r="3" fill="#D55E00"/>
<circle cx="510" cy="285" r="3" fill="#009E73"/>
<circle cx="510" cy="233" r="3" fill="#56B4E9"/>
<circle cx="510" cy="224" r="3" fill="#E69F00"/>
<circle cx="510" cy="339" r="3" fill="#C44E52"/>
<circle cx="510" cy="60" r="3" fill="#000000"/>
<circle cx="583" cy="134" r="3" fill="#0072B2"/>
<circle cx="583" cy="63" r="3" fill="#CC79A7"/>
<circle cx="583" cy="339" r="3" fill="#D55E00"/>
<circle cx="583" cy="283" r="3" fill="#009E73"/>
<circle cx="583" cy="230" r="3" fill="#56B4E9"/>
<circle cx="583" cy="224" r="3" fill="#E69F00"/>
<circle cx="583" cy="339" r="3" fill="#C44E52"/>
<circle cx="583" cy="42" r="3" fill="#000000"/>
<circle cx="656" cy="136" r="3" fill="#0072B2"/>
<circle cx="656" cy="64" r="3" fill="#CC79A7"/>
<circle cx="656" cy="339" r="3" fill="#D55E00"/>
<circle cx="656" cy="283" r="3" fill="#009E73"/>
<circle cx="656" cy="233" r="3" fill="#56B4E9"/>
<circle cx="656" cy="225" r="3" fill="#E69F00"/>
<circle cx="656" cy="339" r="3" fill="#C44E52"/>
<circle cx="656" cy="62" r="3" fill="#000000"/>
<circle cx="730" cy="138" r="3" fill="#0072B2"/>
<circle cx="730" cy="79" r="3" fill="#CC79A7"/>
<circle cx="730" cy="339" r="3" fill="#D55E00"/>
<circle cx="730" cy="284" r="3" fill="#009E73"/>
<circle cx="730" cy="231" r="3" fill="#56B4E9"/>
<circle cx="730" cy="226" r="3" fill="#E69F00"/>
<circle cx="730" cy="339" r="3" fill="#C44E52"/>
<circle cx="730" cy="45" r="3" fill="#000000"/>
<circle cx="90" cy="20" r="4" fill="#0072B2"/>
<text x="98" y="24" text-anchor="start" font-size="12" fill="#0072B2">inte</text>
<circle cx="150" cy="20" r="4" fill="#CC79A7"/>
<text x="158" y="24" text-anchor="start" font-size="12" fill="#CC79A7">comp</text>
<circle cx="215" cy="20" r="4" fill="#D55E00"/>
<text x="223" y="24" text-anchor="start" font-size="12" fill="#D55E00">run</text>
<circle cx="270" cy="20" r="4" fill="#009E73"/>
<text x="278" y="24" text-anchor="start" font-size="12" fill="#009E73">wall</text>
<circle cx="335" cy="20" r="4" fill="#56B4E9"/>
<text x="343" y="24" text-anchor="start" font-size="12" fill="#56B4E9">mem-inte</text>
<circle cx="425" cy="20" r="4" fill="#E69F00"/>
<text x="433" y="24" text-anchor="start" font-size="12" fill="#E69F00">mem-comp</text>
<circle cx="520" cy="20" r="4" fill="#C44E52"/>
<text x="528" y="24" text-anchor="start" font-size="12" fill="#C44E52">mem-run</text>
<circle cx="605" cy="20" r="4" fill="#000000"/>
<text x="613" y="24" text-anchor="start" font-size="12" fill="#000000">mem-total</text>
</svg>
