<svg width="800" height="400" xmlns="http://www.w3.org/2000/svg">
<rect width="800" height="400" fill="white"/>
<line x1="70" y1="40" x2="70" y2="340" stroke="#333" stroke-width="1"/>
<line x1="70" y1="340" x2="780" y2="340" stroke="#333" stroke-width="1"/>
<text x="65" y="344" text-anchor="end" font-size="11" fill="#333">0</text>
<text x="65" y="194" text-anchor="end" font-size="11" fill="#333">4500</text>
<text x="65" y="44" text-anchor="end" font-size="11" fill="#333">9000</text>
<text x="15" y="190" text-anchor="middle" font-size="12" fill="#333" transform="rotate(-90 15 190)">ms</text>
<polyline points="70,276 83,274 97,277 110,273 124,277 138,275 151,272 165,273 179,269 192,269 206,274 220,270 233,270 247,273 261,268 274,270 288,271 302,274 315,273 329,271 343,272 356,274 370,273 384,273 397,271 411,271 425,273 438,273 452,273 465,271 479,272 493,269 506,272 520,273 534,270 547,271 561,270 575,271 588,271 602,272 616,273 629,274 643,270 657,274 670,271 684,270 698,269 711,269 725,266 739,270 752,268 766,270 780,268" fill="none" stroke="#2196F3" stroke-width="2"/>
<polyline points="70,154 83,155 97,156 110,151 124,153 138,158 151,151 165,151 179,151 192,151 206,151 220,147 233,146 247,151 261,151 274,159 288,153 302,150 315,149 329,152 343,152 356,156 370,152 384,158 397,123 411,129 425,128 438,131 452,129 465,131 479,131 493,131 506,126 520,126 534,129 547,127 561,128 575,129 588,127 602,131 616,127 629,126 643,133 657,126 670,133 684,131 698,118 711,119 725,119 739,120 752,123 766,124 780,122" fill="none" stroke="#F44336" stroke-width="2"/>
<polyline points="70,108 83,109 97,109 110,107 124,113 138,101 151,99 165,99 179,97 192,94 206,95 220,96 233,95 247,97 261,96 274,94 288,92 302,92 315,97 329,92 343,95 356,98 370,96 384,97 397,89 411,93 425,88 438,89 452,93 465,95 479,88 493,82 506,85 520,84 534,85 547,84 561,84 575,82 588,81 602,85 616,91 629,84 643,88 657,87 670,87 684,86 698,71 711,67 725,68 739,68 752,71 766,74 780,75" fill="none" stroke="#4CAF50" stroke-width="2"/>
<circle cx="70" cy="276" r="3" fill="#2196F3"/>
<circle cx="70" cy="154" r="3" fill="#F44336"/>
<circle cx="70" cy="108" r="3" fill="#4CAF50"/>
<circle cx="83" cy="274" r="3" fill="#2196F3"/>
<circle cx="83" cy="155" r="3" fill="#F44336"/>
<circle cx="83" cy="109" r="3" fill="#4CAF50"/>
<circle cx="97" cy="277" r="3" fill="#2196F3"/>
<circle cx="97" cy="156" r="3" fill="#F44336"/>
<circle cx="97" cy="109" r="3" fill="#4CAF50"/>
<circle cx="110" cy="273" r="3" fill="#2196F3"/>
<circle cx="110" cy="151" r="3" fill="#F44336"/>
<circle cx="110" cy="107" r="3" fill="#4CAF50"/>
<circle cx="124" cy="277" r="3" fill="#2196F3"/>
<circle cx="124" cy="153" r="3" fill="#F44336"/>
<circle cx="124" cy="113" r="3" fill="#4CAF50"/>
<circle cx="138" cy="275" r="3" fill="#2196F3"/>
<circle cx="138" cy="158" r="3" fill="#F44336"/>
<circle cx="138" cy="101" r="3" fill="#4CAF50"/>
<circle cx="151" cy="272" r="3" fill="#2196F3"/>
<circle cx="151" cy="151" r="3" fill="#F44336"/>
<circle cx="151" cy="99" r="3" fill="#4CAF50"/>
<circle cx="165" cy="273" r="3" fill="#2196F3"/>
<circle cx="165" cy="151" r="3" fill="#F44336"/>
<circle cx="165" cy="99" r="3" fill="#4CAF50"/>
<circle cx="179" cy="269" r="3" fill="#2196F3"/>
<circle cx="179" cy="151" r="3" fill="#F44336"/>
<circle cx="179" cy="97" r="3" fill="#4CAF50"/>
<circle cx="192" cy="269" r="3" fill="#2196F3"/>
<circle cx="192" cy="151" r="3" fill="#F44336"/>
<circle cx="192" cy="94" r="3" fill="#4CAF50"/>
<circle cx="206" cy="274" r="3" fill="#2196F3"/>
<circle cx="206" cy="151" r="3" fill="#F44336"/>
<circle cx="206" cy="95" r="3" fill="#4CAF50"/>
<circle cx="220" cy="270" r="3" fill="#2196F3"/>
<circle cx="220" cy="147" r="3" fill="#F44336"/>
<circle cx="220" cy="96" r="3" fill="#4CAF50"/>
<circle cx="233" cy="270" r="3" fill="#2196F3"/>
<circle cx="233" cy="146" r="3" fill="#F44336"/>
<circle cx="233" cy="95" r="3" fill="#4CAF50"/>
<circle cx="247" cy="273" r="3" fill="#2196F3"/>
<circle cx="247" cy="151" r="3" fill="#F44336"/>
<circle cx="247" cy="97" r="3" fill="#4CAF50"/>
<circle cx="261" cy="268" r="3" fill="#2196F3"/>
<circle cx="261" cy="151" r="3" fill="#F44336"/>
<circle cx="261" cy="96" r="3" fill="#4CAF50"/>
<circle cx="274" cy="270" r="3" fill="#2196F3"/>
<circle cx="274" cy="159" r="3" fill="#F44336"/>
<circle cx="274" cy="94" r="3" fill="#4CAF50"/>
<circle cx="288" cy="271" r="3" fill="#2196F3"/>
<circle cx="288" cy="153" r="3" fill="#F44336"/>
<circle cx="288" cy="92" r="3" fill="#4CAF50"/>
<circle cx="302" cy="274" r="3" fill="#2196F3"/>
<circle cx="302" cy="150" r="3" fill="#F44336"/>
<circle cx="302" cy="92" r="3" fill="#4CAF50"/>
<circle cx="315" cy="273" r="3" fill="#2196F3"/>
<circle cx="315" cy="149" r="3" fill="#F44336"/>
<circle cx="315" cy="97" r="3" fill="#4CAF50"/>
<circle cx="329" cy="271" r="3" fill="#2196F3"/>
<circle cx="329" cy="152" r="3" fill="#F44336"/>
<circle cx="329" cy="92" r="3" fill="#4CAF50"/>
<circle cx="343" cy="272" r="3" fill="#2196F3"/>
<circle cx="343" cy="152" r="3" fill="#F44336"/>
<circle cx="343" cy="95" r="3" fill="#4CAF50"/>
<circle cx="356" cy="274" r="3" fill="#2196F3"/>
<circle cx="356" cy="156" r="3" fill="#F44336"/>
<circle cx="356" cy="98" r="3" fill="#4CAF50"/>
<circle cx="370" cy="273" r="3" fill="#2196F3"/>
<circle cx="370" cy="152" r="3" fill="#F44336"/>
<circle cx="370" cy="96" r="3" fill="#4CAF50"/>
<circle cx="384" cy="273" r="3" fill="#2196F3"/>
<circle cx="384" cy="158" r="3" fill="#F44336"/>
<circle cx="384" cy="97" r="3" fill="#4CAF50"/>
<circle cx="397" cy="271" r="3" fill="#2196F3"/>
<circle cx="397" cy="123" r="3" fill="#F44336"/>
<circle cx="397" cy="89" r="3" fill="#4CAF50"/>
<circle cx="411" cy="271" r="3" fill="#2196F3"/>
<circle cx="411" cy="129" r="3" fill="#F44336"/>
<circle cx="411" cy="93" r="3" fill="#4CAF50"/>
<circle cx="425" cy="273" r="3" fill="#2196F3"/>
<circle cx="425" cy="128" r="3" fill="#F44336"/>
<circle cx="425" cy="88" r="3" fill="#4CAF50"/>
<circle cx="438" cy="273" r="3" fill="#2196F3"/>
<circle cx="438" cy="131" r="3" fill="#F44336"/>
<circle cx="438" cy="89" r="3" fill="#4CAF50"/>
<circle cx="452" cy="273" r="3" fill="#2196F3"/>
<circle cx="452" cy="129" r="3" fill="#F44336"/>
<circle cx="452" cy="93" r="3" fill="#4CAF50"/>
<circle cx="465" cy="271" r="3" fill="#2196F3"/>
<circle cx="465" cy="131" r="3" fill="#F44336"/>
<circle cx="465" cy="95" r="3" fill="#4CAF50"/>
<circle cx="479" cy="272" r="3" fill="#2196F3"/>
<circle cx="479" cy="131" r="3" fill="#F44336"/>
<circle cx="479" cy="88" r="3" fill="#4CAF50"/>
<circle cx="493" cy="269" r="3" fill="#2196F3"/>
<circle cx="493" cy="131" r="3" fill="#F44336"/>
<circle cx="493" cy="82" r="3" fill="#4CAF50"/>
<circle cx="506" cy="272" r="3" fill="#2196F3"/>
<circle cx="506" cy="126" r="3" fill="#F44336"/>
<circle cx="506" cy="85" r="3" fill="#4CAF50"/>
<circle cx="520" cy="273" r="3" fill="#2196F3"/>
<circle cx="520" cy="126" r="3" fill="#F44336"/>
<circle cx="520" cy="84" r="3" fill="#4CAF50"/>
<circle cx="534" cy="270" r="3" fill="#2196F3"/>
<circle cx="534" cy="129" r="3" fill="#F44336"/>
<circle cx="534" cy="85" r="3" fill="#4CAF50"/>
<circle cx="547" cy="271" r="3" fill="#2196F3"/>
<circle cx="547" cy="127" r="3" fill="#F44336"/>
<circle cx="547" cy="84" r="3" fill="#4CAF50"/>
<circle cx="561" cy="270" r="3" fill="#2196F3"/>
<circle cx="561" cy="128" r="3" fill="#F44336"/>
<circle cx="561" cy="84" r="3" fill="#4CAF50"/>
<circle cx="575" cy="271" r="3" fill="#2196F3"/>
<circle cx="575" cy="129" r="3" fill="#F44336"/>
<circle cx="575" cy="82" r="3" fill="#4CAF50"/>
<circle cx="588" cy="271" r="3" fill="#2196F3"/>
<circle cx="588" cy="127" r="3" fill="#F44336"/>
<circle cx="588" cy="81" r="3" fill="#4CAF50"/>
<circle cx="602" cy="272" r="3" fill="#2196F3"/>
<circle cx="602" cy="131" r="3" fill="#F44336"/>
<circle cx="602" cy="85" r="3" fill="#4CAF50"/>
<circle cx="616" cy="273" r="3" fill="#2196F3"/>
<circle cx="616" cy="127" r="3" fill="#F44336"/>
<circle cx="616" cy="91" r="3" fill="#4CAF50"/>
<circle cx="629" cy="274" r="3" fill="#2196F3"/>
<circle cx="629" cy="126" r="3" fill="#F44336"/>
<circle cx="629" cy="84" r="3" fill="#4CAF50"/>
<circle cx="643" cy="270" r="3" fill="#2196F3"/>
<circle cx="643" cy="133" r="3" fill="#F44336"/>
<circle cx="643" cy="88" r="3" fill="#4CAF50"/>
<circle cx="657" cy="274" r="3" fill="#2196F3"/>
<circle cx="657" cy="126" r="3" fill="#F44336"/>
<circle cx="657" cy="87" r="3" fill="#4CAF50"/>
<circle cx="670" cy="271" r="3" fill="#2196F3"/>
<circle cx="670" cy="133" r="3" fill="#F44336"/>
<circle cx="670" cy="87" r="3" fill="#4CAF50"/>
<circle cx="684" cy="270" r="3" fill="#2196F3"/>
<circle cx="684" cy="131" r="3" fill="#F44336"/>
<circle cx="684" cy="86" r="3" fill="#4CAF50"/>
<circle cx="698" cy="269" r="3" fill="#2196F3"/>
<circle cx="698" cy="118" r="3" fill="#F44336"/>
<circle cx="698" cy="71" r="3" fill="#4CAF50"/>
<circle cx="711" cy="269" r="3" fill="#2196F3"/>
<circle cx="711" cy="119" r="3" fill="#F44336"/>
<circle cx="711" cy="67" r="3" fill="#4CAF50"/>
<circle cx="725" cy="266" r="3" fill="#2196F3"/>
<circle cx="725" cy="119" r="3" fill="#F44336"/>
<circle cx="725" cy="68" r="3" fill="#4CAF50"/>
<circle cx="739" cy="270" r="3" fill="#2196F3"/>
<circle cx="739" cy="120" r="3" fill="#F44336"/>
<circle cx="739" cy="68" r="3" fill="#4CAF50"/>
<circle cx="752" cy="268" r="3" fill="#2196F3"/>
<circle cx="752" cy="123" r="3" fill="#F44336"/>
<circle cx="752" cy="71" r="3" fill="#4CAF50"/>
<circle cx="766" cy="270" r="3" fill="#2196F3"/>
<circle cx="766" cy="124" r="3" fill="#F44336"/>
<circle cx="766" cy="74" r="3" fill="#4CAF50"/>
<circle cx="780" cy="268" r="3" fill="#2196F3"/>
<circle cx="780" cy="122" r="3" fill="#F44336"/>
<circle cx="780" cy="75" r="3" fill="#4CAF50"/>
<text x="70" y="355" text-anchor="middle" font-size="10" fill="#666">d31c3d3</text>
<text x="83" y="355" text-anchor="middle" font-size="10" fill="#666">577b0f6</text>
<text x="97" y="355" text-anchor="middle" font-size="10" fill="#666">a0e3a8f</text>
<text x="110" y="355" text-anchor="middle" font-size="10" fill="#666">32b7787</text>
<text x="124" y="355" text-anchor="middle" font-size="10" fill="#666">940e369</text>
<text x="138" y="355" text-anchor="middle" font-size="10" fill="#666">78956c1</text>
<text x="151" y="355" text-anchor="middle" font-size="10" fill="#666">1a288e9</text>
<text x="165" y="355" text-anchor="middle" font-size="10" fill="#666">f1c0746</text>
<text x="179" y="355" text-anchor="middle" font-size="10" fill="#666">efad3b5</text>
<text x="192" y="355" text-anchor="middle" font-size="10" fill="#666">d3839be</text>
<text x="206" y="355" text-anchor="middle" font-size="10" fill="#666">a0c21b2</text>
<text x="220" y="355" text-anchor="middle" font-size="10" fill="#666">c3d3d81</text>
<text x="233" y="355" text-anchor="middle" font-size="10" fill="#666">e40d897</text>
<text x="247" y="355" text-anchor="middle" font-size="10" fill="#666">0b1ed97</text>
<text x="261" y="355" text-anchor="middle" font-size="10" fill="#666">6a5ae3f</text>
<text x="274" y="355" text-anchor="middle" font-size="10" fill="#666">59cf448</text>
<text x="288" y="355" text-anchor="middle" font-size="10" fill="#666">42b3e04</text>
<text x="302" y="355" text-anchor="middle" font-size="10" fill="#666">bd9421a</text>
<text x="315" y="355" text-anchor="middle" font-size="10" fill="#666">f80812f</text>
<text x="329" y="355" text-anchor="middle" font-size="10" fill="#666">448a5fe</text>
<text x="343" y="355" text-anchor="middle" font-size="10" fill="#666">b16c1cc</text>
<text x="356" y="355" text-anchor="middle" font-size="10" fill="#666">44c334c</text>
<text x="370" y="355" text-anchor="middle" font-size="10" fill="#666">aa51d1a</text>
<text x="384" y="355" text-anchor="middle" font-size="10" fill="#666">9bee79a</text>
<text x="397" y="355" text-anchor="middle" font-size="10" fill="#666">4380346</text>
<text x="411" y="355" text-anchor="middle" font-size="10" fill="#666">2a587a9</text>
<text x="425" y="355" text-anchor="middle" font-size="10" fill="#666">efb005a</text>
<text x="438" y="355" text-anchor="middle" font-size="10" fill="#666">1c3b72e</text>
<text x="452" y="355" text-anchor="middle" font-size="10" fill="#666">ff7c733</text>
<text x="465" y="355" text-anchor="middle" font-size="10" fill="#666">962897f</text>
<text x="479" y="355" text-anchor="middle" font-size="10" fill="#666">dfec04b</text>
<text x="493" y="355" text-anchor="middle" font-size="10" fill="#666">60e18de</text>
<text x="506" y="355" text-anchor="middle" font-size="10" fill="#666">80a0d41</text>
<text x="520" y="355" text-anchor="middle" font-size="10" fill="#666">e200726</text>
<text x="534" y="355" text-anchor="middle" font-size="10" fill="#666">775a89f</text>
<text x="547" y="355" text-anchor="middle" font-size="10" fill="#666">18e45a5</text>
<text x="561" y="355" text-anchor="middle" font-size="10" fill="#666">9d60b61</text>
<text x="575" y="355" text-anchor="middle" font-size="10" fill="#666">479229b</text>
<text x="588" y="355" text-anchor="middle" font-size="10" fill="#666">39769db</text>
<text x="602" y="355" text-anchor="middle" font-size="10" fill="#666">2834756</text>
<text x="616" y="355" text-anchor="middle" font-size="10" fill="#666">3628e6d</text>
<text x="629" y="355" text-anchor="middle" font-size="10" fill="#666">daa3fc2</text>
<text x="643" y="355" text-anchor="middle" font-size="10" fill="#666">8fc41b8</text>
<text x="657" y="355" text-anchor="middle" font-size="10" fill="#666">7d63976</text>
<text x="670" y="355" text-anchor="middle" font-size="10" fill="#666">4f6a400</text>
<text x="684" y="355" text-anchor="middle" font-size="10" fill="#666">443d8b3</text>
<text x="698" y="355" text-anchor="middle" font-size="10" fill="#666">86f53df</text>
<text x="711" y="355" text-anchor="middle" font-size="10" fill="#666">d665d11</text>
<text x="725" y="355" text-anchor="middle" font-size="10" fill="#666">23f76d5</text>
<text x="739" y="355" text-anchor="middle" font-size="10" fill="#666">bc8afe6</text>
<text x="752" y="355" text-anchor="middle" font-size="10" fill="#666">ed1092f</text>
<text x="766" y="355" text-anchor="middle" font-size="10" fill="#666">058700a</text>
<text x="780" y="355" text-anchor="middle" font-size="10" fill="#666">c44d2f0</text>
<circle cx="90" cy="20" r="4" fill="#2196F3"/>
<text x="98" y="24" text-anchor="start" font-size="12" fill="#2196F3">Interpreted</text>
<circle cx="200" cy="20" r="4" fill="#F44336"/>
<text x="208" y="24" text-anchor="start" font-size="12" fill="#F44336">Compiled</text>
<circle cx="300" cy="20" r="4" fill="#4CAF50"/>
<text x="308" y="24" text-anchor="start" font-size="12" fill="#4CAF50">Wall-clock</text>
</svg>
