<svg width="800" height="400" xmlns="http://www.w3.org/2000/svg">
<rect width="800" height="400" fill="white"/>
<line x1="70" y1="40" x2="70" y2="340" stroke="#333" stroke-width="1"/>
<line x1="70" y1="340" x2="780" y2="340" stroke="#333" stroke-width="1"/>
<text x="65" y="344" text-anchor="end" font-size="11" fill="#333">0</text>
<text x="65" y="194" text-anchor="end" font-size="11" fill="#333">80000</text>
<text x="65" y="44" text-anchor="end" font-size="11" fill="#333">160000</text>
<text x="15" y="190" text-anchor="middle" font-size="12" fill="#333" transform="rotate(-90 15 190)">ms</text>
<polyline points="70,107 148,44 227,45 306,42 385,44 464,148 543,147 622,147 701,150 780,140" fill="none" stroke="#0072B2" stroke-width="2"/>
<polyline points="70,262 148,206 227,205 306,202 385,204 464,265 543,264 622,264 701,264 780,263" fill="none" stroke="#D55E00" stroke-width="2"/>
<polyline points="70,127 148,71 227,70 306,65 385,64 464,164 543,162 622,166 701,164 780,162" fill="none" stroke="#CC79A7" stroke-width="2"/>
<polyline points="70,263 148,209 227,208 306,206 385,206 464,267 543,268 622,267 701,267 780,267" fill="none" stroke="#E69F00" stroke-width="2"/>
<polyline points="70,173 148,123 227,122 306,121 385,122 464,124 543,121 622,125 701,125 780,116" fill="none" stroke="#009E73" stroke-width="2"/>
<circle cx="70" cy="107" r="3" fill="#0072B2"/>
<circle cx="70" cy="262" r="3" fill="#D55E00"/>
<circle cx="70" cy="127" r="3" fill="#CC79A7"/>
<circle cx="70" cy="263" r="3" fill="#E69F00"/>
<circle cx="70" cy="173" r="3" fill="#009E73"/>
<circle cx="148" cy="44" r="3" fill="#0072B2"/>
<circle cx="148" cy="206" r="3" fill="#D55E00"/>
<circle cx="148" cy="71" r="3" fill="#CC79A7"/>
<circle cx="148" cy="209" r="3" fill="#E69F00"/>
<circle cx="148" cy="123" r="3" fill="#009E73"/>
<circle cx="227" cy="45" r="3" fill="#0072B2"/>
<circle cx="227" cy="205" r="3" fill="#D55E00"/>
<circle cx="227" cy="70" r="3" fill="#CC79A7"/>
<circle cx="227" cy="208" r="3" fill="#E69F00"/>
<circle cx="227" cy="122" r="3" fill="#009E73"/>
<circle cx="306" cy="42" r="3" fill="#0072B2"/>
<circle cx="306" cy="202" r="3" fill="#D55E00"/>
<circle cx="306" cy="65" r="3" fill="#CC79A7"/>
<circle cx="306" cy="206" r="3" fill="#E69F00"/>
<circle cx="306" cy="121" r="3" fill="#009E73"/>
<circle cx="385" cy="44" r="3" fill="#0072B2"/>
<circle cx="385" cy="204" r="3" fill="#D55E00"/>
<circle cx="385" cy="64" r="3" fill="#CC79A7"/>
<circle cx="385" cy="206" r="3" fill="#E69F00"/>
<circle cx="385" cy="122" r="3" fill="#009E73"/>
<circle cx="464" cy="148" r="3" fill="#0072B2"/>
<circle cx="464" cy="265" r="3" fill="#D55E00"/>
<circle cx="464" cy="164" r="3" fill="#CC79A7"/>
<circle cx="464" cy="267" r="3" fill="#E69F00"/>
<circle cx="464" cy="124" r="3" fill="#009E73"/>
<circle cx="543" cy="147" r="3" fill="#0072B2"/>
<circle cx="543" cy="264" r="3" fill="#D55E00"/>
<circle cx="543" cy="162" r="3" fill="#CC79A7"/>
<circle cx="543" cy="268" r="3" fill="#E69F00"/>
<circle cx="543" cy="121" r="3" fill="#009E73"/>
<circle cx="622" cy="147" r="3" fill="#0072B2"/>
<circle cx="622" cy="264" r="3" fill="#D55E00"/>
<circle cx="622" cy="166" r="3" fill="#CC79A7"/>
<circle cx="622" cy="267" r="3" fill="#E69F00"/>
<circle cx="622" cy="125" r="3" fill="#009E73"/>
<circle cx="701" cy="150" r="3" fill="#0072B2"/>
<circle cx="701" cy="264" r="3" fill="#D55E00"/>
<circle cx="701" cy="164" r="3" fill="#CC79A7"/>
<circle cx="701" cy="267" r="3" fill="#E69F00"/>
<circle cx="701" cy="125" r="3" fill="#009E73"/>
<circle cx="780" cy="140" r="3" fill="#0072B2"/>
<circle cx="780" cy="263" r="3" fill="#D55E00"/>
<circle cx="780" cy="162" r="3" fill="#CC79A7"/>
<circle cx="780" cy="267" r="3" fill="#E69F00"/>
<circle cx="780" cy="116" r="3" fill="#009E73"/>
<circle cx="90" cy="20" r="4" fill="#0072B2"/>
<text x="98" y="24" text-anchor="start" font-size="12" fill="#0072B2">ctil-i</text>
<circle cx="160" cy="20" r="4" fill="#D55E00"/>
<text x="168" y="24" text-anchor="start" font-size="12" fill="#D55E00">ctil-r</text>
<circle cx="230" cy="20" r="4" fill="#CC79A7"/>
<text x="238" y="24" text-anchor="start" font-size="12" fill="#CC79A7">til-i</text>
<circle cx="290" cy="20" r="4" fill="#E69F00"/>
<text x="298" y="24" text-anchor="start" font-size="12" fill="#E69F00">til-r</text>
<circle cx="350" cy="20" r="4" fill="#009E73"/>
<text x="358" y="24" text-anchor="start" font-size="12" fill="#009E73">Wall</text>
</svg>
