<svg width="800" height="400" xmlns="http://www.w3.org/2000/svg">
<rect width="800" height="400" fill="white"/>
<line x1="70" y1="40" x2="70" y2="340" stroke="#333" stroke-width="1"/>
<line x1="70" y1="340" x2="730" y2="340" stroke="#333" stroke-width="1"/>
<line x1="730" y1="40" x2="730" y2="340" stroke="#333" stroke-width="1"/>
<text x="65" y="344" text-anchor="end" font-size="11" fill="#333">0</text>
<text x="65" y="194" text-anchor="end" font-size="11" fill="#333">350500</text>
<text x="65" y="44" text-anchor="end" font-size="11" fill="#333">701000</text>
<text x="15" y="190" text-anchor="middle" font-size="12" fill="#333" transform="rotate(-90 15 190)">ms</text>
<text x="735" y="344" text-anchor="start" font-size="11" fill="#333">0</text>
<text x="735" y="194" text-anchor="start" font-size="11" fill="#333">5164000000</text>
<text x="735" y="44" text-anchor="start" font-size="11" fill="#333">10328000000</text>
<text x="785" y="190" text-anchor="middle" font-size="12" fill="#333" transform="rotate(90 785 190)">bytes</text>
<polyline points="70,167 143,141 216,144 290,135 363,110 436,132 510,99 583,105 656,103 730,91" fill="none" stroke="#0072B2" stroke-width="2"/>
<polyline points="70,150 143,110 216,129 290,116 363,96 436,126 510,41 583,59 656,96 730,67" fill="none" stroke="#CC79A7" stroke-width="2"/>
<polyline points="70,340 143,340 216,340 290,340 363,340 436,340 510,340 583,340 656,340 730,340" fill="none" stroke="#D55E00" stroke-width="2"/>
<polyline points="70,282 143,271 216,275 290,273 363,267 436,273 510,257 583,261 656,263 730,258" fill="none" stroke="#009E73" stroke-width="2"/>
<polyline points="70,270 143,270 216,270 290,268 363,268 436,268 510,268 583,268 656,268 730,268" fill="none" stroke="#56B4E9" stroke-width="2"/>
<polyline points="70,207 143,207 216,207 290,204 363,203 436,204 510,203 583,203 656,203 730,203" fill="none" stroke="#E69F00" stroke-width="2"/>
<polyline points="70,340 143,340 216,340 290,340 363,340 436,340 510,340 583,340 656,340 730,340" fill="none" stroke="#C44E52" stroke-width="2"/>
<polyline points="70,47 143,47 216,47 290,43 363,42 436,42 510,42 583,42 656,41 730,41" fill="none" stroke="#000000" stroke-width="2"/>
<circle cx="70" cy="167" r="3" fill="#0072B2"/>
<circle cx="70" cy="150" r="3" fill="#CC79A7"/>
<circle cx="70" cy="340" r="3" fill="#D55E00"/>
<circle cx="70" cy="282" r="3" fill="#009E73"/>
<circle cx="70" cy="270" r="3" fill="#56B4E9"/>
<circle cx="70" cy="207" r="3" fill="#E69F00"/>
<circle cx="70" cy="340" r="3" fill="#C44E52"/>
<circle cx="70" cy="47" r="3" fill="#000000"/>
<circle cx="143" cy="141" r="3" fill="#0072B2"/>
<circle cx="143" cy="110" r="3" fill="#CC79A7"/>
<circle cx="143" cy="340" r="3" fill="#D55E00"/>
<circle cx="143" cy="271" r="3" fill="#009E73"/>
<circle cx="143" cy="270" r="3" fill="#56B4E9"/>
<circle cx="143" cy="207" r="3" fill="#E69F00"/>
<circle cx="143" cy="340" r="3" fill="#C44E52"/>
<circle cx="143" cy="47" r="3" fill="#000000"/>
<circle cx="216" cy="144" r="3" fill="#0072B2"/>
<circle cx="216" cy="129" r="3" fill="#CC79A7"/>
<circle cx="216" cy="340" r="3" fill="#D55E00"/>
<circle cx="216" cy="275" r="3" fill="#009E73"/>
<circle cx="216" cy="270" r="3" fill="#56B4E9"/>
<circle cx="216" cy="207" r="3" fill="#E69F00"/>
<circle cx="216" cy="340" r="3" fill="#C44E52"/>
<circle cx="216" cy="47" r="3" fill="#000000"/>
<circle cx="290" cy="135" r="3" fill="#0072B2"/>
<circle cx="290" cy="116" r="3" fill="#CC79A7"/>
<circle cx="290" cy="340" r="3" fill="#D55E00"/>
<circle cx="290" cy="273" r="3" fill="#009E73"/>
<circle cx="290" cy="268" r="3" fill="#56B4E9"/>
<circle cx="290" cy="204" r="3" fill="#E69F00"/>
<circle cx="290" cy="340" r="3" fill="#C44E52"/>
<circle cx="290" cy="43" r="3" fill="#000000"/>
<circle cx="363" cy="110" r="3" fill="#0072B2"/>
<circle cx="363" cy="96" r="3" fill="#CC79A7"/>
<circle cx="363" cy="340" r="3" fill="#D55E00"/>
<circle cx="363" cy="267" r="3" fill="#009E73"/>
<circle cx="363" cy="268" r="3" fill="#56B4E9"/>
<circle cx="363" cy="203" r="3" fill="#E69F00"/>
<circle cx="363" cy="340" r="3" fill="#C44E52"/>
<circle cx="363" cy="42" r="3" fill="#000000"/>
<circle cx="436" cy="132" r="3" fill="#0072B2"/>
<circle cx="436" cy="126" r="3" fill="#CC79A7"/>
<circle cx="436" cy="340" r="3" fill="#D55E00"/>
<circle cx="436" cy="273" r="3" fill="#009E73"/>
<circle cx="436" cy="268" r="3" fill="#56B4E9"/>
<circle cx="436" cy="204" r="3" fill="#E69F00"/>
<circle cx="436" cy="340" r="3" fill="#C44E52"/>
<circle cx="436" cy="42" r="3" fill="#000000"/>
<circle cx="510" cy="99" r="3" fill="#0072B2"/>
<circle cx="510" cy="41" r="3" fill="#CC79A7"/>
<circle cx="510" cy="340" r="3" fill="#D55E00"/>
<circle cx="510" cy="257" r="3" fill="#009E73"/>
<circle cx="510" cy="268" r="3" fill="#56B4E9"/>
<circle cx="510" cy="203" r="3" fill="#E69F00"/>
<circle cx="510" cy="340" r="3" fill="#C44E52"/>
<circle cx="510" cy="42" r="3" fill="#000000"/>
<circle cx="583" cy="105" r="3" fill="#0072B2"/>
<circle cx="583" cy="59" r="3" fill="#CC79A7"/>
<circle cx="583" cy="340" r="3" fill="#D55E00"/>
<circle cx="583" cy="261" r="3" fill="#009E73"/>
<circle cx="583" cy="268" r="3" fill="#56B4E9"/>
<circle cx="583" cy="203" r="3" fill="#E69F00"/>
<circle cx="583" cy="340" r="3" fill="#C44E52"/>
<circle cx="583" cy="42" r="3" fill="#000000"/>
<circle cx="656" cy="103" r="3" fill="#0072B2"/>
<circle cx="656" cy="96" r="3" fill="#CC79A7"/>
<circle cx="656" cy="340" r="3" fill="#D55E00"/>
<circle cx="656" cy="263" r="3" fill="#009E73"/>
<circle cx="656" cy="268" r="3" fill="#56B4E9"/>
<circle cx="656" cy="203" r="3" fill="#E69F00"/>
<circle cx="656" cy="340" r="3" fill="#C44E52"/>
<circle cx="656" cy="41" r="3" fill="#000000"/>
<circle cx="730" cy="91" r="3" fill="#0072B2"/>
<circle cx="730" cy="67" r="3" fill="#CC79A7"/>
<circle cx="730" cy="340" r="3" fill="#D55E00"/>
<circle cx="730" cy="258" r="3" fill="#009E73"/>
<circle cx="730" cy="268" r="3" fill="#56B4E9"/>
<circle cx="730" cy="203" r="3" fill="#E69F00"/>
<circle cx="730" cy="340" r="3" fill="#C44E52"/>
<circle cx="730" cy="41" r="3" fill="#000000"/>
<circle cx="90" cy="20" r="4" fill="#0072B2"/>
<text x="98" y="24" text-anchor="start" font-size="12" fill="#0072B2">inte</text>
<circle cx="150" cy="20" r="4" fill="#CC79A7"/>
<text x="158" y="24" text-anchor="start" font-size="12" fill="#CC79A7">comp</text>
<circle cx="215" cy="20" r="4" fill="#D55E00"/>
<text x="223" y="24" text-anchor="start" font-size="12" fill="#D55E00">run</text>
<circle cx="270" cy="20" r="4" fill="#009E73"/>
<text x="278" y="24" text-anchor="start" font-size="12" fill="#009E73">wall</text>
<circle cx="335" cy="20" r="4" fill="#56B4E9"/>
<text x="343" y="24" text-anchor="start" font-size="12" fill="#56B4E9">mem-inte</text>
<circle cx="425" cy="20" r="4" fill="#E69F00"/>
<text x="433" y="24" text-anchor="start" font-size="12" fill="#E69F00">mem-comp</text>
<circle cx="520" cy="20" r="4" fill="#C44E52"/>
<text x="528" y="24" text-anchor="start" font-size="12" fill="#C44E52">mem-run</text>
<circle cx="605" cy="20" r="4" fill="#000000"/>
<text x="613" y="24" text-anchor="start" font-size="12" fill="#000000">mem-total</text>
</svg>
