<svg width="800" height="400" xmlns="http://www.w3.org/2000/svg">
<rect width="800" height="400" fill="white"/>
<line x1="70" y1="40" x2="70" y2="340" stroke="#333" stroke-width="1"/>
<line x1="70" y1="340" x2="730" y2="340" stroke="#333" stroke-width="1"/>
<line x1="730" y1="40" x2="730" y2="340" stroke="#333" stroke-width="1"/>
<text x="65" y="344" text-anchor="end" font-size="11" fill="#333">0</text>
<text x="65" y="194" text-anchor="end" font-size="11" fill="#333">96000</text>
<text x="65" y="44" text-anchor="end" font-size="11" fill="#333">192000</text>
<text x="15" y="190" text-anchor="middle" font-size="12" fill="#333" transform="rotate(-90 15 190)">ms</text>
<text x="735" y="344" text-anchor="start" font-size="11" fill="#333">0</text>
<text x="735" y="194" text-anchor="start" font-size="11" fill="#333">9820000000</text>
<text x="735" y="44" text-anchor="start" font-size="11" fill="#333">19640000000</text>
<text x="785" y="190" text-anchor="middle" font-size="12" fill="#333" transform="rotate(90 785 190)">bytes</text>
<polyline points="70,110 143,148 216,140 290,142 363,143 436,108 510,117 583,136 656,104 730,128" fill="none" stroke="#0072B2" stroke-width="2"/>
<polyline points="70,49 143,92 216,70 290,71 363,85 436,47 510,43 583,70 656,42 730,61" fill="none" stroke="#CC79A7" stroke-width="2"/>
<polyline points="70,339 143,339 216,339 290,339 363,339 436,339 510,339 583,339 656,340 730,339" fill="none" stroke="#D55E00" stroke-width="2"/>
<polyline points="70,277 143,287 216,284 290,284 363,285 436,275 510,279 583,283 656,275 730,281" fill="none" stroke="#009E73" stroke-width="2"/>
<polyline points="70,226 143,233 216,230 290,233 363,231 436,229 510,228 583,227 656,229 730,230" fill="none" stroke="#56B4E9" stroke-width="2"/>
<polyline points="70,223 143,224 216,224 290,225 363,226 436,225 510,224 583,225 656,224 730,225" fill="none" stroke="#E69F00" stroke-width="2"/>
<polyline points="70,339 143,339 216,339 290,339 363,339 436,339 510,338 583,339 656,339 730,338" fill="none" stroke="#C44E52" stroke-width="2"/>
<polyline points="70,53 143,61 216,43 290,62 363,45 436,58 510,57 583,41 656,60 730,60" fill="none" stroke="#000000" stroke-width="2"/>
<circle cx="70" cy="110" r="3" fill="#0072B2"/>
<circle cx="70" cy="49" r="3" fill="#CC79A7"/>
<circle cx="70" cy="339" r="3" fill="#D55E00"/>
<circle cx="70" cy="277" r="3" fill="#009E73"/>
<circle cx="70" cy="226" r="3" fill="#56B4E9"/>
<circle cx="70" cy="223" r="3" fill="#E69F00"/>
<circle cx="70" cy="339" r="3" fill="#C44E52"/>
<circle cx="70" cy="53" r="3" fill="#000000"/>
<circle cx="143" cy="148" r="3" fill="#0072B2"/>
<circle cx="143" cy="92" r="3" fill="#CC79A7"/>
<circle cx="143" cy="339" r="3" fill="#D55E00"/>
<circle cx="143" cy="287" r="3" fill="#009E73"/>
<circle cx="143" cy="233" r="3" fill="#56B4E9"/>
<circle cx="143" cy="224" r="3" fill="#E69F00"/>
<circle cx="143" cy="339" r="3" fill="#C44E52"/>
<circle cx="143" cy="61" r="3" fill="#000000"/>
<circle cx="216" cy="140" r="3" fill="#0072B2"/>
<circle cx="216" cy="70" r="3" fill="#CC79A7"/>
<circle cx="216" cy="339" r="3" fill="#D55E00"/>
<circle cx="216" cy="284" r="3" fill="#009E73"/>
<circle cx="216" cy="230" r="3" fill="#56B4E9"/>
<circle cx="216" cy="224" r="3" fill="#E69F00"/>
<circle cx="216" cy="339" r="3" fill="#C44E52"/>
<circle cx="216" cy="43" r="3" fill="#000000"/>
<circle cx="290" cy="142" r="3" fill="#0072B2"/>
<circle cx="290" cy="71" r="3" fill="#CC79A7"/>
<circle cx="290" cy="339" r="3" fill="#D55E00"/>
<circle cx="290" cy="284" r="3" fill="#009E73"/>
<circle cx="290" cy="233" r="3" fill="#56B4E9"/>
<circle cx="290" cy="225" r="3" fill="#E69F00"/>
<circle cx="290" cy="339" r="3" fill="#C44E52"/>
<circle cx="290" cy="62" r="3" fill="#000000"/>
<circle cx="363" cy="143" r="3" fill="#0072B2"/>
<circle cx="363" cy="85" r="3" fill="#CC79A7"/>
<circle cx="363" cy="339" r="3" fill="#D55E00"/>
<circle cx="363" cy="285" r="3" fill="#009E73"/>
<circle cx="363" cy="231" r="3" fill="#56B4E9"/>
<circle cx="363" cy="226" r="3" fill="#E69F00"/>
<circle cx="363" cy="339" r="3" fill="#C44E52"/>
<circle cx="363" cy="45" r="3" fill="#000000"/>
<circle cx="436" cy="108" r="3" fill="#0072B2"/>
<circle cx="436" cy="47" r="3" fill="#CC79A7"/>
<circle cx="436" cy="339" r="3" fill="#D55E00"/>
<circle cx="436" cy="275" r="3" fill="#009E73"/>
<circle cx="436" cy="229" r="3" fill="#56B4E9"/>
<circle cx="436" cy="225" r="3" fill="#E69F00"/>
<circle cx="436" cy="339" r="3" fill="#C44E52"/>
<circle cx="436" cy="58" r="3" fill="#000000"/>
<circle cx="510" cy="117" r="3" fill="#0072B2"/>
<circle cx="510" cy="43" r="3" fill="#CC79A7"/>
<circle cx="510" cy="339" r="3" fill="#D55E00"/>
<circle cx="510" cy="279" r="3" fill="#009E73"/>
<circle cx="510" cy="228" r="3" fill="#56B4E9"/>
<circle cx="510" cy="224" r="3" fill="#E69F00"/>
<circle cx="510" cy="338" r="3" fill="#C44E52"/>
<circle cx="510" cy="57" r="3" fill="#000000"/>
<circle cx="583" cy="136" r="3" fill="#0072B2"/>
<circle cx="583" cy="70" r="3" fill="#CC79A7"/>
<circle cx="583" cy="339" r="3" fill="#D55E00"/>
<circle cx="583" cy="283" r="3" fill="#009E73"/>
<circle cx="583" cy="227" r="3" fill="#56B4E9"/>
<circle cx="583" cy="225" r="3" fill="#E69F00"/>
<circle cx="583" cy="339" r="3" fill="#C44E52"/>
<circle cx="583" cy="41" r="3" fill="#000000"/>
<circle cx="656" cy="104" r="3" fill="#0072B2"/>
<circle cx="656" cy="42" r="3" fill="#CC79A7"/>
<circle cx="656" cy="340" r="3" fill="#D55E00"/>
<circle cx="656" cy="275" r="3" fill="#009E73"/>
<circle cx="656" cy="229" r="3" fill="#56B4E9"/>
<circle cx="656" cy="224" r="3" fill="#E69F00"/>
<circle cx="656" cy="339" r="3" fill="#C44E52"/>
<circle cx="656" cy="60" r="3" fill="#000000"/>
<circle cx="730" cy="128" r="3" fill="#0072B2"/>
<circle cx="730" cy="61" r="3" fill="#CC79A7"/>
<circle cx="730" cy="339" r="3" fill="#D55E00"/>
<circle cx="730" cy="281" r="3" fill="#009E73"/>
<circle cx="730" cy="230" r="3" fill="#56B4E9"/>
<circle cx="730" cy="225" r="3" fill="#E69F00"/>
<circle cx="730" cy="338" r="3" fill="#C44E52"/>
<circle cx="730" cy="60" r="3" fill="#000000"/>
<circle cx="90" cy="20" r="4" fill="#0072B2"/>
<text x="98" y="24" text-anchor="start" font-size="12" fill="#0072B2">inte</text>
<circle cx="150" cy="20" r="4" fill="#CC79A7"/>
<text x="158" y="24" text-anchor="start" font-size="12" fill="#CC79A7">comp</text>
<circle cx="215" cy="20" r="4" fill="#D55E00"/>
<text x="223" y="24" text-anchor="start" font-size="12" fill="#D55E00">run</text>
<circle cx="270" cy="20" r="4" fill="#009E73"/>
<text x="278" y="24" text-anchor="start" font-size="12" fill="#009E73">wall</text>
<circle cx="335" cy="20" r="4" fill="#56B4E9"/>
<text x="343" y="24" text-anchor="start" font-size="12" fill="#56B4E9">mem-inte</text>
<circle cx="425" cy="20" r="4" fill="#E69F00"/>
<text x="433" y="24" text-anchor="start" font-size="12" fill="#E69F00">mem-comp</text>
<circle cx="520" cy="20" r="4" fill="#C44E52"/>
<text x="528" y="24" text-anchor="start" font-size="12" fill="#C44E52">mem-run</text>
<circle cx="605" cy="20" r="4" fill="#000000"/>
<text x="613" y="24" text-anchor="start" font-size="12" fill="#000000">mem-total</text>
</svg>
