<svg width="800" height="400" xmlns="http://www.w3.org/2000/svg">
<rect width="800" height="400" fill="white"/>
<line x1="70" y1="40" x2="70" y2="340" stroke="#333" stroke-width="1"/>
<line x1="70" y1="340" x2="780" y2="340" stroke="#333" stroke-width="1"/>
<text x="65" y="344" text-anchor="end" font-size="11" fill="#333">0</text>
<text x="65" y="194" text-anchor="end" font-size="11" fill="#333">33000</text>
<text x="65" y="44" text-anchor="end" font-size="11" fill="#333">66000</text>
<text x="15" y="190" text-anchor="middle" font-size="12" fill="#333" transform="rotate(-90 15 190)">ms</text>
<polyline points="70,53 148,57 227,50 306,53 385,57 464,54 543,49 622,44 701,48 780,45" fill="none" stroke="#0072B2" stroke-width="2"/>
<polyline points="70,233 148,237 227,233 306,235 385,236 464,236 543,230 622,230 701,231 780,230" fill="none" stroke="#D55E00" stroke-width="2"/>
<polyline points="70,75 148,76 227,72 306,70 385,72 464,72 543,65 622,65 701,65 780,63" fill="none" stroke="#CC79A7" stroke-width="2"/>
<polyline points="70,241 148,242 227,239 306,239 385,238 464,240 543,236 622,236 701,234 780,233" fill="none" stroke="#E69F00" stroke-width="2"/>
<polyline points="70,117 148,119 227,113 306,113 385,113 464,113 543,107 622,108 701,109 780,108" fill="none" stroke="#009E73" stroke-width="2"/>
<circle cx="70" cy="53" r="3" fill="#0072B2"/>
<circle cx="70" cy="233" r="3" fill="#D55E00"/>
<circle cx="70" cy="75" r="3" fill="#CC79A7"/>
<circle cx="70" cy="241" r="3" fill="#E69F00"/>
<circle cx="70" cy="117" r="3" fill="#009E73"/>
<circle cx="148" cy="57" r="3" fill="#0072B2"/>
<circle cx="148" cy="237" r="3" fill="#D55E00"/>
<circle cx="148" cy="76" r="3" fill="#CC79A7"/>
<circle cx="148" cy="242" r="3" fill="#E69F00"/>
<circle cx="148" cy="119" r="3" fill="#009E73"/>
<circle cx="227" cy="50" r="3" fill="#0072B2"/>
<circle cx="227" cy="233" r="3" fill="#D55E00"/>
<circle cx="227" cy="72" r="3" fill="#CC79A7"/>
<circle cx="227" cy="239" r="3" fill="#E69F00"/>
<circle cx="227" cy="113" r="3" fill="#009E73"/>
<circle cx="306" cy="53" r="3" fill="#0072B2"/>
<circle cx="306" cy="235" r="3" fill="#D55E00"/>
<circle cx="306" cy="70" r="3" fill="#CC79A7"/>
<circle cx="306" cy="239" r="3" fill="#E69F00"/>
<circle cx="306" cy="113" r="3" fill="#009E73"/>
<circle cx="385" cy="57" r="3" fill="#0072B2"/>
<circle cx="385" cy="236" r="3" fill="#D55E00"/>
<circle cx="385" cy="72" r="3" fill="#CC79A7"/>
<circle cx="385" cy="238" r="3" fill="#E69F00"/>
<circle cx="385" cy="113" r="3" fill="#009E73"/>
<circle cx="464" cy="54" r="3" fill="#0072B2"/>
<circle cx="464" cy="236" r="3" fill="#D55E00"/>
<circle cx="464" cy="72" r="3" fill="#CC79A7"/>
<circle cx="464" cy="240" r="3" fill="#E69F00"/>
<circle cx="464" cy="113" r="3" fill="#009E73"/>
<circle cx="543" cy="49" r="3" fill="#0072B2"/>
<circle cx="543" cy="230" r="3" fill="#D55E00"/>
<circle cx="543" cy="65" r="3" fill="#CC79A7"/>
<circle cx="543" cy="236" r="3" fill="#E69F00"/>
<circle cx="543" cy="107" r="3" fill="#009E73"/>
<circle cx="622" cy="44" r="3" fill="#0072B2"/>
<circle cx="622" cy="230" r="3" fill="#D55E00"/>
<circle cx="622" cy="65" r="3" fill="#CC79A7"/>
<circle cx="622" cy="236" r="3" fill="#E69F00"/>
<circle cx="622" cy="108" r="3" fill="#009E73"/>
<circle cx="701" cy="48" r="3" fill="#0072B2"/>
<circle cx="701" cy="231" r="3" fill="#D55E00"/>
<circle cx="701" cy="65" r="3" fill="#CC79A7"/>
<circle cx="701" cy="234" r="3" fill="#E69F00"/>
<circle cx="701" cy="109" r="3" fill="#009E73"/>
<circle cx="780" cy="45" r="3" fill="#0072B2"/>
<circle cx="780" cy="230" r="3" fill="#D55E00"/>
<circle cx="780" cy="63" r="3" fill="#CC79A7"/>
<circle cx="780" cy="233" r="3" fill="#E69F00"/>
<circle cx="780" cy="108" r="3" fill="#009E73"/>
<circle cx="90" cy="20" r="4" fill="#0072B2"/>
<text x="98" y="24" text-anchor="start" font-size="12" fill="#0072B2">ctil-i</text>
<circle cx="160" cy="20" r="4" fill="#D55E00"/>
<text x="168" y="24" text-anchor="start" font-size="12" fill="#D55E00">ctil-r</text>
<circle cx="230" cy="20" r="4" fill="#CC79A7"/>
<text x="238" y="24" text-anchor="start" font-size="12" fill="#CC79A7">til-i</text>
<circle cx="290" cy="20" r="4" fill="#E69F00"/>
<text x="298" y="24" text-anchor="start" font-size="12" fill="#E69F00">til-r</text>
<circle cx="350" cy="20" r="4" fill="#009E73"/>
<text x="358" y="24" text-anchor="start" font-size="12" fill="#009E73">Wall</text>
</svg>
