<svg width="800" height="400" xmlns="http://www.w3.org/2000/svg">
<rect width="800" height="400" fill="white"/>
<line x1="70" y1="40" x2="70" y2="340" stroke="#333" stroke-width="1"/>
<line x1="70" y1="340" x2="780" y2="340" stroke="#333" stroke-width="1"/>
<text x="65" y="344" text-anchor="end" font-size="11" fill="#333">0</text>
<text x="65" y="194" text-anchor="end" font-size="11" fill="#333">4000</text>
<text x="65" y="44" text-anchor="end" font-size="11" fill="#333">8000</text>
<text x="15" y="190" text-anchor="middle" font-size="12" fill="#333" transform="rotate(-90 15 190)">ms</text>
<polyline points="70,268 85,266 101,269 117,265 133,269 148,267 164,263 180,265 196,260 212,260 227,265 243,261 259,261 275,265 290,259 306,261 322,262 338,266 354,265 369,262 385,263 401,265 417,265 432,265 448,263 464,262 480,264 496,265 511,264 527,262 543,264 559,260 574,263 590,264 606,261 622,262 638,261 653,262 669,262 685,263 701,265 716,266 732,261 748,266 764,262 780,262" fill="none" stroke="#2196F3" stroke-width="2"/>
<polyline points="70,131 85,132 101,133 117,128 133,130 148,135 164,127 180,127 196,127 212,128 227,128 243,123 259,122 275,128 290,127 306,136 322,130 338,126 354,125 369,128 385,128 401,133 417,128 432,135 448,96 464,103 480,101 496,105 511,103 527,104 543,105 559,105 574,99 590,99 606,103 622,100 638,102 653,102 669,101 685,104 701,101 716,100 732,107 748,100 764,107 780,105" fill="none" stroke="#F44336" stroke-width="2"/>
<polyline points="70,79 85,80 101,80 117,78 133,84 148,71 164,69 180,69 196,66 212,63 227,64 243,65 259,65 275,66 290,66 306,63 322,61 338,61 354,67 369,61 385,65 401,68 417,65 432,66 448,57 464,63 480,57 496,58 511,63 527,65 543,56 559,49 574,53 590,52 606,53 622,52 638,52 653,50 669,49 685,53 701,60 716,52 732,57 748,55 764,55 780,54" fill="none" stroke="#4CAF50" stroke-width="2"/>
<circle cx="70" cy="268" r="3" fill="#2196F3"/>
<circle cx="70" cy="131" r="3" fill="#F44336"/>
<circle cx="70" cy="79" r="3" fill="#4CAF50"/>
<circle cx="85" cy="266" r="3" fill="#2196F3"/>
<circle cx="85" cy="132" r="3" fill="#F44336"/>
<circle cx="85" cy="80" r="3" fill="#4CAF50"/>
<circle cx="101" cy="269" r="3" fill="#2196F3"/>
<circle cx="101" cy="133" r="3" fill="#F44336"/>
<circle cx="101" cy="80" r="3" fill="#4CAF50"/>
<circle cx="117" cy="265" r="3" fill="#2196F3"/>
<circle cx="117" cy="128" r="3" fill="#F44336"/>
<circle cx="117" cy="78" r="3" fill="#4CAF50"/>
<circle cx="133" cy="269" r="3" fill="#2196F3"/>
<circle cx="133" cy="130" r="3" fill="#F44336"/>
<circle cx="133" cy="84" r="3" fill="#4CAF50"/>
<circle cx="148" cy="267" r="3" fill="#2196F3"/>
<circle cx="148" cy="135" r="3" fill="#F44336"/>
<circle cx="148" cy="71" r="3" fill="#4CAF50"/>
<circle cx="164" cy="263" r="3" fill="#2196F3"/>
<circle cx="164" cy="127" r="3" fill="#F44336"/>
<circle cx="164" cy="69" r="3" fill="#4CAF50"/>
<circle cx="180" cy="265" r="3" fill="#2196F3"/>
<circle cx="180" cy="127" r="3" fill="#F44336"/>
<circle cx="180" cy="69" r="3" fill="#4CAF50"/>
<circle cx="196" cy="260" r="3" fill="#2196F3"/>
<circle cx="196" cy="127" r="3" fill="#F44336"/>
<circle cx="196" cy="66" r="3" fill="#4CAF50"/>
<circle cx="212" cy="260" r="3" fill="#2196F3"/>
<circle cx="212" cy="128" r="3" fill="#F44336"/>
<circle cx="212" cy="63" r="3" fill="#4CAF50"/>
<circle cx="227" cy="265" r="3" fill="#2196F3"/>
<circle cx="227" cy="128" r="3" fill="#F44336"/>
<circle cx="227" cy="64" r="3" fill="#4CAF50"/>
<circle cx="243" cy="261" r="3" fill="#2196F3"/>
<circle cx="243" cy="123" r="3" fill="#F44336"/>
<circle cx="243" cy="65" r="3" fill="#4CAF50"/>
<circle cx="259" cy="261" r="3" fill="#2196F3"/>
<circle cx="259" cy="122" r="3" fill="#F44336"/>
<circle cx="259" cy="65" r="3" fill="#4CAF50"/>
<circle cx="275" cy="265" r="3" fill="#2196F3"/>
<circle cx="275" cy="128" r="3" fill="#F44336"/>
<circle cx="275" cy="66" r="3" fill="#4CAF50"/>
<circle cx="290" cy="259" r="3" fill="#2196F3"/>
<circle cx="290" cy="127" r="3" fill="#F44336"/>
<circle cx="290" cy="66" r="3" fill="#4CAF50"/>
<circle cx="306" cy="261" r="3" fill="#2196F3"/>
<circle cx="306" cy="136" r="3" fill="#F44336"/>
<circle cx="306" cy="63" r="3" fill="#4CAF50"/>
<circle cx="322" cy="262" r="3" fill="#2196F3"/>
<circle cx="322" cy="130" r="3" fill="#F44336"/>
<circle cx="322" cy="61" r="3" fill="#4CAF50"/>
<circle cx="338" cy="266" r="3" fill="#2196F3"/>
<circle cx="338" cy="126" r="3" fill="#F44336"/>
<circle cx="338" cy="61" r="3" fill="#4CAF50"/>
<circle cx="354" cy="265" r="3" fill="#2196F3"/>
<circle cx="354" cy="125" r="3" fill="#F44336"/>
<circle cx="354" cy="67" r="3" fill="#4CAF50"/>
<circle cx="369" cy="262" r="3" fill="#2196F3"/>
<circle cx="369" cy="128" r="3" fill="#F44336"/>
<circle cx="369" cy="61" r="3" fill="#4CAF50"/>
<circle cx="385" cy="263" r="3" fill="#2196F3"/>
<circle cx="385" cy="128" r="3" fill="#F44336"/>
<circle cx="385" cy="65" r="3" fill="#4CAF50"/>
<circle cx="401" cy="265" r="3" fill="#2196F3"/>
<circle cx="401" cy="133" r="3" fill="#F44336"/>
<circle cx="401" cy="68" r="3" fill="#4CAF50"/>
<circle cx="417" cy="265" r="3" fill="#2196F3"/>
<circle cx="417" cy="128" r="3" fill="#F44336"/>
<circle cx="417" cy="65" r="3" fill="#4CAF50"/>
<circle cx="432" cy="265" r="3" fill="#2196F3"/>
<circle cx="432" cy="135" r="3" fill="#F44336"/>
<circle cx="432" cy="66" r="3" fill="#4CAF50"/>
<circle cx="448" cy="263" r="3" fill="#2196F3"/>
<circle cx="448" cy="96" r="3" fill="#F44336"/>
<circle cx="448" cy="57" r="3" fill="#4CAF50"/>
<circle cx="464" cy="262" r="3" fill="#2196F3"/>
<circle cx="464" cy="103" r="3" fill="#F44336"/>
<circle cx="464" cy="63" r="3" fill="#4CAF50"/>
<circle cx="480" cy="264" r="3" fill="#2196F3"/>
<circle cx="480" cy="101" r="3" fill="#F44336"/>
<circle cx="480" cy="57" r="3" fill="#4CAF50"/>
<circle cx="496" cy="265" r="3" fill="#2196F3"/>
<circle cx="496" cy="105" r="3" fill="#F44336"/>
<circle cx="496" cy="58" r="3" fill="#4CAF50"/>
<circle cx="511" cy="264" r="3" fill="#2196F3"/>
<circle cx="511" cy="103" r="3" fill="#F44336"/>
<circle cx="511" cy="63" r="3" fill="#4CAF50"/>
<circle cx="527" cy="262" r="3" fill="#2196F3"/>
<circle cx="527" cy="104" r="3" fill="#F44336"/>
<circle cx="527" cy="65" r="3" fill="#4CAF50"/>
<circle cx="543" cy="264" r="3" fill="#2196F3"/>
<circle cx="543" cy="105" r="3" fill="#F44336"/>
<circle cx="543" cy="56" r="3" fill="#4CAF50"/>
<circle cx="559" cy="260" r="3" fill="#2196F3"/>
<circle cx="559" cy="105" r="3" fill="#F44336"/>
<circle cx="559" cy="49" r="3" fill="#4CAF50"/>
<circle cx="574" cy="263" r="3" fill="#2196F3"/>
<circle cx="574" cy="99" r="3" fill="#F44336"/>
<circle cx="574" cy="53" r="3" fill="#4CAF50"/>
<circle cx="590" cy="264" r="3" fill="#2196F3"/>
<circle cx="590" cy="99" r="3" fill="#F44336"/>
<circle cx="590" cy="52" r="3" fill="#4CAF50"/>
<circle cx="606" cy="261" r="3" fill="#2196F3"/>
<circle cx="606" cy="103" r="3" fill="#F44336"/>
<circle cx="606" cy="53" r="3" fill="#4CAF50"/>
<circle cx="622" cy="262" r="3" fill="#2196F3"/>
<circle cx="622" cy="100" r="3" fill="#F44336"/>
<circle cx="622" cy="52" r="3" fill="#4CAF50"/>
<circle cx="638" cy="261" r="3" fill="#2196F3"/>
<circle cx="638" cy="102" r="3" fill="#F44336"/>
<circle cx="638" cy="52" r="3" fill="#4CAF50"/>
<circle cx="653" cy="262" r="3" fill="#2196F3"/>
<circle cx="653" cy="102" r="3" fill="#F44336"/>
<circle cx="653" cy="50" r="3" fill="#4CAF50"/>
<circle cx="669" cy="262" r="3" fill="#2196F3"/>
<circle cx="669" cy="101" r="3" fill="#F44336"/>
<circle cx="669" cy="49" r="3" fill="#4CAF50"/>
<circle cx="685" cy="263" r="3" fill="#2196F3"/>
<circle cx="685" cy="104" r="3" fill="#F44336"/>
<circle cx="685" cy="53" r="3" fill="#4CAF50"/>
<circle cx="701" cy="265" r="3" fill="#2196F3"/>
<circle cx="701" cy="101" r="3" fill="#F44336"/>
<circle cx="701" cy="60" r="3" fill="#4CAF50"/>
<circle cx="716" cy="266" r="3" fill="#2196F3"/>
<circle cx="716" cy="100" r="3" fill="#F44336"/>
<circle cx="716" cy="52" r="3" fill="#4CAF50"/>
<circle cx="732" cy="261" r="3" fill="#2196F3"/>
<circle cx="732" cy="107" r="3" fill="#F44336"/>
<circle cx="732" cy="57" r="3" fill="#4CAF50"/>
<circle cx="748" cy="266" r="3" fill="#2196F3"/>
<circle cx="748" cy="100" r="3" fill="#F44336"/>
<circle cx="748" cy="55" r="3" fill="#4CAF50"/>
<circle cx="764" cy="262" r="3" fill="#2196F3"/>
<circle cx="764" cy="107" r="3" fill="#F44336"/>
<circle cx="764" cy="55" r="3" fill="#4CAF50"/>
<circle cx="780" cy="262" r="3" fill="#2196F3"/>
<circle cx="780" cy="105" r="3" fill="#F44336"/>
<circle cx="780" cy="54" r="3" fill="#4CAF50"/>
<text x="70" y="355" text-anchor="middle" font-size="10" fill="#666">d31c3d3</text>
<text x="85" y="355" text-anchor="middle" font-size="10" fill="#666">577b0f6</text>
<text x="101" y="355" text-anchor="middle" font-size="10" fill="#666">a0e3a8f</text>
<text x="117" y="355" text-anchor="middle" font-size="10" fill="#666">32b7787</text>
<text x="133" y="355" text-anchor="middle" font-size="10" fill="#666">940e369</text>
<text x="148" y="355" text-anchor="middle" font-size="10" fill="#666">78956c1</text>
<text x="164" y="355" text-anchor="middle" font-size="10" fill="#666">1a288e9</text>
<text x="180" y="355" text-anchor="middle" font-size="10" fill="#666">f1c0746</text>
<text x="196" y="355" text-anchor="middle" font-size="10" fill="#666">efad3b5</text>
<text x="212" y="355" text-anchor="middle" font-size="10" fill="#666">d3839be</text>
<text x="227" y="355" text-anchor="middle" font-size="10" fill="#666">a0c21b2</text>
<text x="243" y="355" text-anchor="middle" font-size="10" fill="#666">c3d3d81</text>
<text x="259" y="355" text-anchor="middle" font-size="10" fill="#666">e40d897</text>
<text x="275" y="355" text-anchor="middle" font-size="10" fill="#666">0b1ed97</text>
<text x="290" y="355" text-anchor="middle" font-size="10" fill="#666">6a5ae3f</text>
<text x="306" y="355" text-anchor="middle" font-size="10" fill="#666">59cf448</text>
<text x="322" y="355" text-anchor="middle" font-size="10" fill="#666">42b3e04</text>
<text x="338" y="355" text-anchor="middle" font-size="10" fill="#666">bd9421a</text>
<text x="354" y="355" text-anchor="middle" font-size="10" fill="#666">f80812f</text>
<text x="369" y="355" text-anchor="middle" font-size="10" fill="#666">448a5fe</text>
<text x="385" y="355" text-anchor="middle" font-size="10" fill="#666">b16c1cc</text>
<text x="401" y="355" text-anchor="middle" font-size="10" fill="#666">44c334c</text>
<text x="417" y="355" text-anchor="middle" font-size="10" fill="#666">aa51d1a</text>
<text x="432" y="355" text-anchor="middle" font-size="10" fill="#666">9bee79a</text>
<text x="448" y="355" text-anchor="middle" font-size="10" fill="#666">4380346</text>
<text x="464" y="355" text-anchor="middle" font-size="10" fill="#666">2a587a9</text>
<text x="480" y="355" text-anchor="middle" font-size="10" fill="#666">efb005a</text>
<text x="496" y="355" text-anchor="middle" font-size="10" fill="#666">1c3b72e</text>
<text x="511" y="355" text-anchor="middle" font-size="10" fill="#666">ff7c733</text>
<text x="527" y="355" text-anchor="middle" font-size="10" fill="#666">962897f</text>
<text x="543" y="355" text-anchor="middle" font-size="10" fill="#666">dfec04b</text>
<text x="559" y="355" text-anchor="middle" font-size="10" fill="#666">60e18de</text>
<text x="574" y="355" text-anchor="middle" font-size="10" fill="#666">80a0d41</text>
<text x="590" y="355" text-anchor="middle" font-size="10" fill="#666">e200726</text>
<text x="606" y="355" text-anchor="middle" font-size="10" fill="#666">775a89f</text>
<text x="622" y="355" text-anchor="middle" font-size="10" fill="#666">18e45a5</text>
<text x="638" y="355" text-anchor="middle" font-size="10" fill="#666">9d60b61</text>
<text x="653" y="355" text-anchor="middle" font-size="10" fill="#666">479229b</text>
<text x="669" y="355" text-anchor="middle" font-size="10" fill="#666">39769db</text>
<text x="685" y="355" text-anchor="middle" font-size="10" fill="#666">2834756</text>
<text x="701" y="355" text-anchor="middle" font-size="10" fill="#666">3628e6d</text>
<text x="716" y="355" text-anchor="middle" font-size="10" fill="#666">daa3fc2</text>
<text x="732" y="355" text-anchor="middle" font-size="10" fill="#666">8fc41b8</text>
<text x="748" y="355" text-anchor="middle" font-size="10" fill="#666">7d63976</text>
<text x="764" y="355" text-anchor="middle" font-size="10" fill="#666">4f6a400</text>
<text x="780" y="355" text-anchor="middle" font-size="10" fill="#666">443d8b3</text>
<circle cx="90" cy="20" r="4" fill="#2196F3"/>
<text x="98" y="24" text-anchor="start" font-size="12" fill="#2196F3">Interpreted</text>
<circle cx="200" cy="20" r="4" fill="#F44336"/>
<text x="208" y="24" text-anchor="start" font-size="12" fill="#F44336">Compiled</text>
<circle cx="300" cy="20" r="4" fill="#4CAF50"/>
<text x="308" y="24" text-anchor="start" font-size="12" fill="#4CAF50">Wall-clock</text>
</svg>
