<svg width="800" height="400" xmlns="http://www.w3.org/2000/svg">
<rect width="800" height="400" fill="white"/>
<line x1="70" y1="40" x2="70" y2="340" stroke="#333" stroke-width="1"/>
<line x1="70" y1="340" x2="730" y2="340" stroke="#333" stroke-width="1"/>
<line x1="730" y1="40" x2="730" y2="340" stroke="#333" stroke-width="1"/>
<text x="65" y="344" text-anchor="end" font-size="11" fill="#333">0</text>
<text x="65" y="194" text-anchor="end" font-size="11" fill="#333">200500</text>
<text x="65" y="44" text-anchor="end" font-size="11" fill="#333">401000</text>
<text x="15" y="190" text-anchor="middle" font-size="12" fill="#333" transform="rotate(-90 15 190)">ms</text>
<text x="735" y="344" text-anchor="start" font-size="11" fill="#333">0</text>
<text x="735" y="194" text-anchor="start" font-size="11" fill="#333">10542500000</text>
<text x="735" y="44" text-anchor="start" font-size="11" fill="#333">21085000000</text>
<text x="785" y="190" text-anchor="middle" font-size="12" fill="#333" transform="rotate(90 785 190)">bytes</text>
<polyline points="70,75 143,79 216,78 290,74 363,170 436,164 510,165 583,164 656,164 730,164" fill="none" stroke="#0072B2" stroke-width="2"/>
<polyline points="70,44 143,47 216,47 290,41 363,124 436,119 510,119 583,116 656,119 730,116" fill="none" stroke="#CC79A7" stroke-width="2"/>
<polyline points="70,340 143,340 216,340 290,340 363,340 436,340 510,340 583,340 656,340 730,340" fill="none" stroke="#D55E00" stroke-width="2"/>
<polyline points="70,296 143,300 216,301 290,300 363,315 436,313 510,314 583,314 656,313 730,314" fill="none" stroke="#009E73" stroke-width="2"/>
<polyline points="70,299 143,299 216,299 290,299 363,299 436,299 510,299 583,299 656,299 730,299" fill="none" stroke="#56B4E9" stroke-width="2"/>
<polyline points="70,187 143,187 216,187 290,187 363,187 436,187 510,187 583,187 656,187 730,187" fill="none" stroke="#E69F00" stroke-width="2"/>
<polyline points="70,336 143,338 216,337 290,336 363,338 436,337 510,338 583,338 656,337 730,338" fill="none" stroke="#C44E52" stroke-width="2"/>
<polyline points="70,41 143,44 216,42 290,42 363,44 436,43 510,44 583,44 656,43 730,44" fill="none" stroke="#000000" stroke-width="2"/>
<circle cx="70" cy="75" r="3" fill="#0072B2"/>
<circle cx="70" cy="44" r="3" fill="#CC79A7"/>
<circle cx="70" cy="340" r="3" fill="#D55E00"/>
<circle cx="70" cy="296" r="3" fill="#009E73"/>
<circle cx="70" cy="299" r="3" fill="#56B4E9"/>
<circle cx="70" cy="187" r="3" fill="#E69F00"/>
<circle cx="70" cy="336" r="3" fill="#C44E52"/>
<circle cx="70" cy="41" r="3" fill="#000000"/>
<circle cx="143" cy="79" r="3" fill="#0072B2"/>
<circle cx="143" cy="47" r="3" fill="#CC79A7"/>
<circle cx="143" cy="340" r="3" fill="#D55E00"/>
<circle cx="143" cy="300" r="3" fill="#009E73"/>
<circle cx="143" cy="299" r="3" fill="#56B4E9"/>
<circle cx="143" cy="187" r="3" fill="#E69F00"/>
<circle cx="143" cy="338" r="3" fill="#C44E52"/>
<circle cx="143" cy="44" r="3" fill="#000000"/>
<circle cx="216" cy="78" r="3" fill="#0072B2"/>
<circle cx="216" cy="47" r="3" fill="#CC79A7"/>
<circle cx="216" cy="340" r="3" fill="#D55E00"/>
<circle cx="216" cy="301" r="3" fill="#009E73"/>
<circle cx="216" cy="299" r="3" fill="#56B4E9"/>
<circle cx="216" cy="187" r="3" fill="#E69F00"/>
<circle cx="216" cy="337" r="3" fill="#C44E52"/>
<circle cx="216" cy="42" r="3" fill="#000000"/>
<circle cx="290" cy="74" r="3" fill="#0072B2"/>
<circle cx="290" cy="41" r="3" fill="#CC79A7"/>
<circle cx="290" cy="340" r="3" fill="#D55E00"/>
<circle cx="290" cy="300" r="3" fill="#009E73"/>
<circle cx="290" cy="299" r="3" fill="#56B4E9"/>
<circle cx="290" cy="187" r="3" fill="#E69F00"/>
<circle cx="290" cy="336" r="3" fill="#C44E52"/>
<circle cx="290" cy="42" r="3" fill="#000000"/>
<circle cx="363" cy="170" r="3" fill="#0072B2"/>
<circle cx="363" cy="124" r="3" fill="#CC79A7"/>
<circle cx="363" cy="340" r="3" fill="#D55E00"/>
<circle cx="363" cy="315" r="3" fill="#009E73"/>
<circle cx="363" cy="299" r="3" fill="#56B4E9"/>
<circle cx="363" cy="187" r="3" fill="#E69F00"/>
<circle cx="363" cy="338" r="3" fill="#C44E52"/>
<circle cx="363" cy="44" r="3" fill="#000000"/>
<circle cx="436" cy="164" r="3" fill="#0072B2"/>
<circle cx="436" cy="119" r="3" fill="#CC79A7"/>
<circle cx="436" cy="340" r="3" fill="#D55E00"/>
<circle cx="436" cy="313" r="3" fill="#009E73"/>
<circle cx="436" cy="299" r="3" fill="#56B4E9"/>
<circle cx="436" cy="187" r="3" fill="#E69F00"/>
<circle cx="436" cy="337" r="3" fill="#C44E52"/>
<circle cx="436" cy="43" r="3" fill="#000000"/>
<circle cx="510" cy="165" r="3" fill="#0072B2"/>
<circle cx="510" cy="119" r="3" fill="#CC79A7"/>
<circle cx="510" cy="340" r="3" fill="#D55E00"/>
<circle cx="510" cy="314" r="3" fill="#009E73"/>
<circle cx="510" cy="299" r="3" fill="#56B4E9"/>
<circle cx="510" cy="187" r="3" fill="#E69F00"/>
<circle cx="510" cy="338" r="3" fill="#C44E52"/>
<circle cx="510" cy="44" r="3" fill="#000000"/>
<circle cx="583" cy="164" r="3" fill="#0072B2"/>
<circle cx="583" cy="116" r="3" fill="#CC79A7"/>
<circle cx="583" cy="340" r="3" fill="#D55E00"/>
<circle cx="583" cy="314" r="3" fill="#009E73"/>
<circle cx="583" cy="299" r="3" fill="#56B4E9"/>
<circle cx="583" cy="187" r="3" fill="#E69F00"/>
<circle cx="583" cy="338" r="3" fill="#C44E52"/>
<circle cx="583" cy="44" r="3" fill="#000000"/>
<circle cx="656" cy="164" r="3" fill="#0072B2"/>
<circle cx="656" cy="119" r="3" fill="#CC79A7"/>
<circle cx="656" cy="340" r="3" fill="#D55E00"/>
<circle cx="656" cy="313" r="3" fill="#009E73"/>
<circle cx="656" cy="299" r="3" fill="#56B4E9"/>
<circle cx="656" cy="187" r="3" fill="#E69F00"/>
<circle cx="656" cy="337" r="3" fill="#C44E52"/>
<circle cx="656" cy="43" r="3" fill="#000000"/>
<circle cx="730" cy="164" r="3" fill="#0072B2"/>
<circle cx="730" cy="116" r="3" fill="#CC79A7"/>
<circle cx="730" cy="340" r="3" fill="#D55E00"/>
<circle cx="730" cy="314" r="3" fill="#009E73"/>
<circle cx="730" cy="299" r="3" fill="#56B4E9"/>
<circle cx="730" cy="187" r="3" fill="#E69F00"/>
<circle cx="730" cy="338" r="3" fill="#C44E52"/>
<circle cx="730" cy="44" r="3" fill="#000000"/>
<circle cx="90" cy="20" r="4" fill="#0072B2"/>
<text x="98" y="24" text-anchor="start" font-size="12" fill="#0072B2">inte</text>
<circle cx="150" cy="20" r="4" fill="#CC79A7"/>
<text x="158" y="24" text-anchor="start" font-size="12" fill="#CC79A7">comp</text>
<circle cx="215" cy="20" r="4" fill="#D55E00"/>
<text x="223" y="24" text-anchor="start" font-size="12" fill="#D55E00">run</text>
<circle cx="270" cy="20" r="4" fill="#009E73"/>
<text x="278" y="24" text-anchor="start" font-size="12" fill="#009E73">wall</text>
<circle cx="335" cy="20" r="4" fill="#56B4E9"/>
<text x="343" y="24" text-anchor="start" font-size="12" fill="#56B4E9">mem-inte</text>
<circle cx="425" cy="20" r="4" fill="#E69F00"/>
<text x="433" y="24" text-anchor="start" font-size="12" fill="#E69F00">mem-comp</text>
<circle cx="520" cy="20" r="4" fill="#C44E52"/>
<text x="528" y="24" text-anchor="start" font-size="12" fill="#C44E52">mem-run</text>
<circle cx="605" cy="20" r="4" fill="#000000"/>
<text x="613" y="24" text-anchor="start" font-size="12" fill="#000000">mem-total</text>
</svg>
