<svg width="800" height="400" xmlns="http://www.w3.org/2000/svg">
<rect width="800" height="400" fill="white"/>
<line x1="70" y1="40" x2="70" y2="340" stroke="#333" stroke-width="1"/>
<line x1="70" y1="340" x2="780" y2="340" stroke="#333" stroke-width="1"/>
<text x="65" y="344" text-anchor="end" font-size="11" fill="#333">0</text>
<text x="65" y="194" text-anchor="end" font-size="11" fill="#333">33000</text>
<text x="65" y="44" text-anchor="end" font-size="11" fill="#333">66000</text>
<text x="15" y="190" text-anchor="middle" font-size="12" fill="#333" transform="rotate(-90 15 190)">ms</text>
<polyline points="70,49 148,44 227,48 306,45 385,47 464,43 543,47 622,42 701,41 780,43" fill="none" stroke="#0072B2" stroke-width="2"/>
<polyline points="70,230 148,230 227,231 306,230 385,231 464,230 543,231 622,227 701,229 780,230" fill="none" stroke="#D55E00" stroke-width="2"/>
<polyline points="70,65 148,65 227,65 306,63 385,65 464,62 543,64 622,58 701,59 780,63" fill="none" stroke="#CC79A7" stroke-width="2"/>
<polyline points="70,236 148,236 227,234 306,233 385,235 464,234 543,234 622,229 701,233 780,234" fill="none" stroke="#E69F00" stroke-width="2"/>
<polyline points="70,107 148,108 227,109 306,108 385,109 464,106 543,109 622,106 701,105 780,105" fill="none" stroke="#009E73" stroke-width="2"/>
<circle cx="70" cy="49" r="3" fill="#0072B2"/>
<circle cx="70" cy="230" r="3" fill="#D55E00"/>
<circle cx="70" cy="65" r="3" fill="#CC79A7"/>
<circle cx="70" cy="236" r="3" fill="#E69F00"/>
<circle cx="70" cy="107" r="3" fill="#009E73"/>
<circle cx="148" cy="44" r="3" fill="#0072B2"/>
<circle cx="148" cy="230" r="3" fill="#D55E00"/>
<circle cx="148" cy="65" r="3" fill="#CC79A7"/>
<circle cx="148" cy="236" r="3" fill="#E69F00"/>
<circle cx="148" cy="108" r="3" fill="#009E73"/>
<circle cx="227" cy="48" r="3" fill="#0072B2"/>
<circle cx="227" cy="231" r="3" fill="#D55E00"/>
<circle cx="227" cy="65" r="3" fill="#CC79A7"/>
<circle cx="227" cy="234" r="3" fill="#E69F00"/>
<circle cx="227" cy="109" r="3" fill="#009E73"/>
<circle cx="306" cy="45" r="3" fill="#0072B2"/>
<circle cx="306" cy="230" r="3" fill="#D55E00"/>
<circle cx="306" cy="63" r="3" fill="#CC79A7"/>
<circle cx="306" cy="233" r="3" fill="#E69F00"/>
<circle cx="306" cy="108" r="3" fill="#009E73"/>
<circle cx="385" cy="47" r="3" fill="#0072B2"/>
<circle cx="385" cy="231" r="3" fill="#D55E00"/>
<circle cx="385" cy="65" r="3" fill="#CC79A7"/>
<circle cx="385" cy="235" r="3" fill="#E69F00"/>
<circle cx="385" cy="109" r="3" fill="#009E73"/>
<circle cx="464" cy="43" r="3" fill="#0072B2"/>
<circle cx="464" cy="230" r="3" fill="#D55E00"/>
<circle cx="464" cy="62" r="3" fill="#CC79A7"/>
<circle cx="464" cy="234" r="3" fill="#E69F00"/>
<circle cx="464" cy="106" r="3" fill="#009E73"/>
<circle cx="543" cy="47" r="3" fill="#0072B2"/>
<circle cx="543" cy="231" r="3" fill="#D55E00"/>
<circle cx="543" cy="64" r="3" fill="#CC79A7"/>
<circle cx="543" cy="234" r="3" fill="#E69F00"/>
<circle cx="543" cy="109" r="3" fill="#009E73"/>
<circle cx="622" cy="42" r="3" fill="#0072B2"/>
<circle cx="622" cy="227" r="3" fill="#D55E00"/>
<circle cx="622" cy="58" r="3" fill="#CC79A7"/>
<circle cx="622" cy="229" r="3" fill="#E69F00"/>
<circle cx="622" cy="106" r="3" fill="#009E73"/>
<circle cx="701" cy="41" r="3" fill="#0072B2"/>
<circle cx="701" cy="229" r="3" fill="#D55E00"/>
<circle cx="701" cy="59" r="3" fill="#CC79A7"/>
<circle cx="701" cy="233" r="3" fill="#E69F00"/>
<circle cx="701" cy="105" r="3" fill="#009E73"/>
<circle cx="780" cy="43" r="3" fill="#0072B2"/>
<circle cx="780" cy="230" r="3" fill="#D55E00"/>
<circle cx="780" cy="63" r="3" fill="#CC79A7"/>
<circle cx="780" cy="234" r="3" fill="#E69F00"/>
<circle cx="780" cy="105" r="3" fill="#009E73"/>
<circle cx="90" cy="20" r="4" fill="#0072B2"/>
<text x="98" y="24" text-anchor="start" font-size="12" fill="#0072B2">ctil-i</text>
<circle cx="160" cy="20" r="4" fill="#D55E00"/>
<text x="168" y="24" text-anchor="start" font-size="12" fill="#D55E00">ctil-r</text>
<circle cx="230" cy="20" r="4" fill="#CC79A7"/>
<text x="238" y="24" text-anchor="start" font-size="12" fill="#CC79A7">til-i</text>
<circle cx="290" cy="20" r="4" fill="#E69F00"/>
<text x="298" y="24" text-anchor="start" font-size="12" fill="#E69F00">til-r</text>
<circle cx="350" cy="20" r="4" fill="#009E73"/>
<text x="358" y="24" text-anchor="start" font-size="12" fill="#009E73">Wall</text>
</svg>
