<svg width="800" height="400" xmlns="http://www.w3.org/2000/svg">
<rect width="800" height="400" fill="white"/>
<line x1="70" y1="40" x2="70" y2="340" stroke="#333" stroke-width="1"/>
<line x1="70" y1="340" x2="730" y2="340" stroke="#333" stroke-width="1"/>
<line x1="730" y1="40" x2="730" y2="340" stroke="#333" stroke-width="1"/>
<text x="65" y="344" text-anchor="end" font-size="11" fill="#333">0</text>
<text x="65" y="194" text-anchor="end" font-size="11" fill="#333">274000</text>
<text x="65" y="44" text-anchor="end" font-size="11" fill="#333">548000</text>
<text x="15" y="190" text-anchor="middle" font-size="12" fill="#333" transform="rotate(-90 15 190)">ms</text>
<text x="735" y="344" text-anchor="start" font-size="11" fill="#333">0</text>
<text x="735" y="194" text-anchor="start" font-size="11" fill="#333">9865500000</text>
<text x="735" y="44" text-anchor="start" font-size="11" fill="#333">19731000000</text>
<text x="785" y="190" text-anchor="middle" font-size="12" fill="#333" transform="rotate(90 785 190)">bytes</text>
<polyline points="70,59 143,56 216,56 290,52 363,57 436,55 510,54 583,50 656,46 730,41" fill="none" stroke="#0072B2" stroke-width="2"/>
<polyline points="70,105 143,100 216,103 290,98 363,101 436,99 510,99 583,94 656,91 730,88" fill="none" stroke="#CC79A7" stroke-width="2"/>
<polyline points="70,340 143,340 216,340 290,340 363,340 436,340 510,340 583,340 656,340 730,340" fill="none" stroke="#D55E00" stroke-width="2"/>
<polyline points="70,296 143,296 216,296 290,295 363,296 436,296 510,295 583,295 656,294 730,294" fill="none" stroke="#009E73" stroke-width="2"/>
<polyline points="70,305 143,305 216,305 290,305 363,305 436,305 510,305 583,304 656,304 730,303" fill="none" stroke="#56B4E9" stroke-width="2"/>
<polyline points="70,185 143,182 216,182 290,182 363,182 436,183 510,182 583,181 656,182 730,181" fill="none" stroke="#E69F00" stroke-width="2"/>
<polyline points="70,339 143,339 216,339 290,338 363,339 436,338 510,339 583,338 656,338 730,338" fill="none" stroke="#C44E52" stroke-width="2"/>
<polyline points="70,46 143,43 216,42 290,42 363,42 436,43 510,43 583,41 656,41 730,41" fill="none" stroke="#000000" stroke-width="2"/>
<circle cx="70" cy="59" r="3" fill="#0072B2"/>
<circle cx="70" cy="105" r="3" fill="#CC79A7"/>
<circle cx="70" cy="340" r="3" fill="#D55E00"/>
<circle cx="70" cy="296" r="3" fill="#009E73"/>
<circle cx="70" cy="305" r="3" fill="#56B4E9"/>
<circle cx="70" cy="185" r="3" fill="#E69F00"/>
<circle cx="70" cy="339" r="3" fill="#C44E52"/>
<circle cx="70" cy="46" r="3" fill="#000000"/>
<circle cx="143" cy="56" r="3" fill="#0072B2"/>
<circle cx="143" cy="100" r="3" fill="#CC79A7"/>
<circle cx="143" cy="340" r="3" fill="#D55E00"/>
<circle cx="143" cy="296" r="3" fill="#009E73"/>
<circle cx="143" cy="305" r="3" fill="#56B4E9"/>
<circle cx="143" cy="182" r="3" fill="#E69F00"/>
<circle cx="143" cy="339" r="3" fill="#C44E52"/>
<circle cx="143" cy="43" r="3" fill="#000000"/>
<circle cx="216" cy="56" r="3" fill="#0072B2"/>
<circle cx="216" cy="103" r="3" fill="#CC79A7"/>
<circle cx="216" cy="340" r="3" fill="#D55E00"/>
<circle cx="216" cy="296" r="3" fill="#009E73"/>
<circle cx="216" cy="305" r="3" fill="#56B4E9"/>
<circle cx="216" cy="182" r="3" fill="#E69F00"/>
<circle cx="216" cy="339" r="3" fill="#C44E52"/>
<circle cx="216" cy="42" r="3" fill="#000000"/>
<circle cx="290" cy="52" r="3" fill="#0072B2"/>
<circle cx="290" cy="98" r="3" fill="#CC79A7"/>
<circle cx="290" cy="340" r="3" fill="#D55E00"/>
<circle cx="290" cy="295" r="3" fill="#009E73"/>
<circle cx="290" cy="305" r="3" fill="#56B4E9"/>
<circle cx="290" cy="182" r="3" fill="#E69F00"/>
<circle cx="290" cy="338" r="3" fill="#C44E52"/>
<circle cx="290" cy="42" r="3" fill="#000000"/>
<circle cx="363" cy="57" r="3" fill="#0072B2"/>
<circle cx="363" cy="101" r="3" fill="#CC79A7"/>
<circle cx="363" cy="340" r="3" fill="#D55E00"/>
<circle cx="363" cy="296" r="3" fill="#009E73"/>
<circle cx="363" cy="305" r="3" fill="#56B4E9"/>
<circle cx="363" cy="182" r="3" fill="#E69F00"/>
<circle cx="363" cy="339" r="3" fill="#C44E52"/>
<circle cx="363" cy="42" r="3" fill="#000000"/>
<circle cx="436" cy="55" r="3" fill="#0072B2"/>
<circle cx="436" cy="99" r="3" fill="#CC79A7"/>
<circle cx="436" cy="340" r="3" fill="#D55E00"/>
<circle cx="436" cy="296" r="3" fill="#009E73"/>
<circle cx="436" cy="305" r="3" fill="#56B4E9"/>
<circle cx="436" cy="183" r="3" fill="#E69F00"/>
<circle cx="436" cy="338" r="3" fill="#C44E52"/>
<circle cx="436" cy="43" r="3" fill="#000000"/>
<circle cx="510" cy="54" r="3" fill="#0072B2"/>
<circle cx="510" cy="99" r="3" fill="#CC79A7"/>
<circle cx="510" cy="340" r="3" fill="#D55E00"/>
<circle cx="510" cy="295" r="3" fill="#009E73"/>
<circle cx="510" cy="305" r="3" fill="#56B4E9"/>
<circle cx="510" cy="182" r="3" fill="#E69F00"/>
<circle cx="510" cy="339" r="3" fill="#C44E52"/>
<circle cx="510" cy="43" r="3" fill="#000000"/>
<circle cx="583" cy="50" r="3" fill="#0072B2"/>
<circle cx="583" cy="94" r="3" fill="#CC79A7"/>
<circle cx="583" cy="340" r="3" fill="#D55E00"/>
<circle cx="583" cy="295" r="3" fill="#009E73"/>
<circle cx="583" cy="304" r="3" fill="#56B4E9"/>
<circle cx="583" cy="181" r="3" fill="#E69F00"/>
<circle cx="583" cy="338" r="3" fill="#C44E52"/>
<circle cx="583" cy="41" r="3" fill="#000000"/>
<circle cx="656" cy="46" r="3" fill="#0072B2"/>
<circle cx="656" cy="91" r="3" fill="#CC79A7"/>
<circle cx="656" cy="340" r="3" fill="#D55E00"/>
<circle cx="656" cy="294" r="3" fill="#009E73"/>
<circle cx="656" cy="304" r="3" fill="#56B4E9"/>
<circle cx="656" cy="182" r="3" fill="#E69F00"/>
<circle cx="656" cy="338" r="3" fill="#C44E52"/>
<circle cx="656" cy="41" r="3" fill="#000000"/>
<circle cx="730" cy="41" r="3" fill="#0072B2"/>
<circle cx="730" cy="88" r="3" fill="#CC79A7"/>
<circle cx="730" cy="340" r="3" fill="#D55E00"/>
<circle cx="730" cy="294" r="3" fill="#009E73"/>
<circle cx="730" cy="303" r="3" fill="#56B4E9"/>
<circle cx="730" cy="181" r="3" fill="#E69F00"/>
<circle cx="730" cy="338" r="3" fill="#C44E52"/>
<circle cx="730" cy="41" r="3" fill="#000000"/>
<circle cx="90" cy="20" r="4" fill="#0072B2"/>
<text x="98" y="24" text-anchor="start" font-size="12" fill="#0072B2">inte</text>
<circle cx="150" cy="20" r="4" fill="#CC79A7"/>
<text x="158" y="24" text-anchor="start" font-size="12" fill="#CC79A7">comp</text>
<circle cx="215" cy="20" r="4" fill="#D55E00"/>
<text x="223" y="24" text-anchor="start" font-size="12" fill="#D55E00">run</text>
<circle cx="270" cy="20" r="4" fill="#009E73"/>
<text x="278" y="24" text-anchor="start" font-size="12" fill="#009E73">wall</text>
<circle cx="335" cy="20" r="4" fill="#56B4E9"/>
<text x="343" y="24" text-anchor="start" font-size="12" fill="#56B4E9">mem-inte</text>
<circle cx="425" cy="20" r="4" fill="#E69F00"/>
<text x="433" y="24" text-anchor="start" font-size="12" fill="#E69F00">mem-comp</text>
<circle cx="520" cy="20" r="4" fill="#C44E52"/>
<text x="528" y="24" text-anchor="start" font-size="12" fill="#C44E52">mem-run</text>
<circle cx="605" cy="20" r="4" fill="#000000"/>
<text x="613" y="24" text-anchor="start" font-size="12" fill="#000000">mem-total</text>
</svg>
