<svg width="800" height="400" xmlns="http://www.w3.org/2000/svg">
<rect width="800" height="400" fill="white"/>
<line x1="70" y1="40" x2="70" y2="340" stroke="#333" stroke-width="1"/>
<line x1="70" y1="340" x2="780" y2="340" stroke="#333" stroke-width="1"/>
<text x="65" y="344" text-anchor="end" font-size="11" fill="#333">0</text>
<text x="65" y="194" text-anchor="end" font-size="11" fill="#333">4000</text>
<text x="65" y="44" text-anchor="end" font-size="11" fill="#333">8000</text>
<text x="15" y="190" text-anchor="middle" font-size="12" fill="#333" transform="rotate(-90 15 190)">ms</text>
<polyline points="70,268 117,266 164,269 212,265 259,269 306,267 354,263 401,265 448,260 496,260 543,265 590,261 638,261 685,265 732,259 780,261" fill="none" stroke="#2196F3" stroke-width="2"/>
<polyline points="70,131 117,132 164,133 212,128 259,130 306,135 354,127 401,127 448,127 496,128 543,128 590,123 638,122 685,128 732,127 780,136" fill="none" stroke="#F44336" stroke-width="2"/>
<polyline points="70,79 117,80 164,80 212,78 259,84 306,71 354,69 401,69 448,66 496,63 543,64 590,65 638,65 685,66 732,66 780,63" fill="none" stroke="#4CAF50" stroke-width="2"/>
<circle cx="70" cy="268" r="3" fill="#2196F3"/>
<circle cx="70" cy="131" r="3" fill="#F44336"/>
<circle cx="70" cy="79" r="3" fill="#4CAF50"/>
<circle cx="117" cy="266" r="3" fill="#2196F3"/>
<circle cx="117" cy="132" r="3" fill="#F44336"/>
<circle cx="117" cy="80" r="3" fill="#4CAF50"/>
<circle cx="164" cy="269" r="3" fill="#2196F3"/>
<circle cx="164" cy="133" r="3" fill="#F44336"/>
<circle cx="164" cy="80" r="3" fill="#4CAF50"/>
<circle cx="212" cy="265" r="3" fill="#2196F3"/>
<circle cx="212" cy="128" r="3" fill="#F44336"/>
<circle cx="212" cy="78" r="3" fill="#4CAF50"/>
<circle cx="259" cy="269" r="3" fill="#2196F3"/>
<circle cx="259" cy="130" r="3" fill="#F44336"/>
<circle cx="259" cy="84" r="3" fill="#4CAF50"/>
<circle cx="306" cy="267" r="3" fill="#2196F3"/>
<circle cx="306" cy="135" r="3" fill="#F44336"/>
<circle cx="306" cy="71" r="3" fill="#4CAF50"/>
<circle cx="354" cy="263" r="3" fill="#2196F3"/>
<circle cx="354" cy="127" r="3" fill="#F44336"/>
<circle cx="354" cy="69" r="3" fill="#4CAF50"/>
<circle cx="401" cy="265" r="3" fill="#2196F3"/>
<circle cx="401" cy="127" r="3" fill="#F44336"/>
<circle cx="401" cy="69" r="3" fill="#4CAF50"/>
<circle cx="448" cy="260" r="3" fill="#2196F3"/>
<circle cx="448" cy="127" r="3" fill="#F44336"/>
<circle cx="448" cy="66" r="3" fill="#4CAF50"/>
<circle cx="496" cy="260" r="3" fill="#2196F3"/>
<circle cx="496" cy="128" r="3" fill="#F44336"/>
<circle cx="496" cy="63" r="3" fill="#4CAF50"/>
<circle cx="543" cy="265" r="3" fill="#2196F3"/>
<circle cx="543" cy="128" r="3" fill="#F44336"/>
<circle cx="543" cy="64" r="3" fill="#4CAF50"/>
<circle cx="590" cy="261" r="3" fill="#2196F3"/>
<circle cx="590" cy="123" r="3" fill="#F44336"/>
<circle cx="590" cy="65" r="3" fill="#4CAF50"/>
<circle cx="638" cy="261" r="3" fill="#2196F3"/>
<circle cx="638" cy="122" r="3" fill="#F44336"/>
<circle cx="638" cy="65" r="3" fill="#4CAF50"/>
<circle cx="685" cy="265" r="3" fill="#2196F3"/>
<circle cx="685" cy="128" r="3" fill="#F44336"/>
<circle cx="685" cy="66" r="3" fill="#4CAF50"/>
<circle cx="732" cy="259" r="3" fill="#2196F3"/>
<circle cx="732" cy="127" r="3" fill="#F44336"/>
<circle cx="732" cy="66" r="3" fill="#4CAF50"/>
<circle cx="780" cy="261" r="3" fill="#2196F3"/>
<circle cx="780" cy="136" r="3" fill="#F44336"/>
<circle cx="780" cy="63" r="3" fill="#4CAF50"/>
<text x="70" y="355" text-anchor="middle" font-size="10" fill="#666">d31c3d3</text>
<text x="117" y="355" text-anchor="middle" font-size="10" fill="#666">577b0f6</text>
<text x="164" y="355" text-anchor="middle" font-size="10" fill="#666">a0e3a8f</text>
<text x="212" y="355" text-anchor="middle" font-size="10" fill="#666">32b7787</text>
<text x="259" y="355" text-anchor="middle" font-size="10" fill="#666">940e369</text>
<text x="306" y="355" text-anchor="middle" font-size="10" fill="#666">78956c1</text>
<text x="354" y="355" text-anchor="middle" font-size="10" fill="#666">1a288e9</text>
<text x="401" y="355" text-anchor="middle" font-size="10" fill="#666">f1c0746</text>
<text x="448" y="355" text-anchor="middle" font-size="10" fill="#666">efad3b5</text>
<text x="496" y="355" text-anchor="middle" font-size="10" fill="#666">d3839be</text>
<text x="543" y="355" text-anchor="middle" font-size="10" fill="#666">a0c21b2</text>
<text x="590" y="355" text-anchor="middle" font-size="10" fill="#666">c3d3d81</text>
<text x="638" y="355" text-anchor="middle" font-size="10" fill="#666">e40d897</text>
<text x="685" y="355" text-anchor="middle" font-size="10" fill="#666">0b1ed97</text>
<text x="732" y="355" text-anchor="middle" font-size="10" fill="#666">6a5ae3f</text>
<text x="780" y="355" text-anchor="middle" font-size="10" fill="#666">59cf448</text>
<circle cx="90" cy="20" r="4" fill="#2196F3"/>
<text x="98" y="24" text-anchor="start" font-size="12" fill="#2196F3">Interpreted</text>
<circle cx="200" cy="20" r="4" fill="#F44336"/>
<text x="208" y="24" text-anchor="start" font-size="12" fill="#F44336">Compiled</text>
<circle cx="300" cy="20" r="4" fill="#4CAF50"/>
<text x="308" y="24" text-anchor="start" font-size="12" fill="#4CAF50">Wall-clock</text>
</svg>
