<svg width="800" height="400" xmlns="http://www.w3.org/2000/svg">
<rect width="800" height="400" fill="white"/>
<line x1="70" y1="40" x2="70" y2="340" stroke="#333" stroke-width="1"/>
<line x1="70" y1="340" x2="730" y2="340" stroke="#333" stroke-width="1"/>
<line x1="730" y1="40" x2="730" y2="340" stroke="#333" stroke-width="1"/>
<text x="65" y="344" text-anchor="end" font-size="11" fill="#333">0</text>
<text x="65" y="194" text-anchor="end" font-size="11" fill="#333">86500</text>
<text x="65" y="44" text-anchor="end" font-size="11" fill="#333">173000</text>
<text x="15" y="190" text-anchor="middle" font-size="12" fill="#333" transform="rotate(-90 15 190)">ms</text>
<text x="735" y="344" text-anchor="start" font-size="11" fill="#333">0</text>
<text x="735" y="194" text-anchor="start" font-size="11" fill="#333">6311000000</text>
<text x="735" y="44" text-anchor="start" font-size="11" fill="#333">12622000000</text>
<text x="785" y="190" text-anchor="middle" font-size="12" fill="#333" transform="rotate(90 785 190)">bytes</text>
<polyline points="70,120 143,112 216,130 290,124 363,133 436,120 510,114 583,119 656,144 730,178" fill="none" stroke="#0072B2" stroke-width="2"/>
<polyline points="70,51 143,47 216,56 290,55 363,70 436,53 510,41 583,52 656,63 730,106" fill="none" stroke="#CC79A7" stroke-width="2"/>
<polyline points="70,339 143,339 216,339 290,340 363,339 436,340 510,339 583,339 656,339 730,339" fill="none" stroke="#D55E00" stroke-width="2"/>
<polyline points="70,277 143,276 216,279 290,278 363,281 436,278 510,275 583,277 656,281 730,289" fill="none" stroke="#009E73" stroke-width="2"/>
<polyline points="70,279 143,279 216,279 290,279 363,276 436,275 510,278 583,278 656,277 730,277" fill="none" stroke="#56B4E9" stroke-width="2"/>
<polyline points="70,215 143,216 216,216 290,216 363,212 436,212 510,216 583,215 656,214 730,214" fill="none" stroke="#E69F00" stroke-width="2"/>
<polyline points="70,337 143,338 216,338 290,338 363,338 436,338 510,338 583,338 656,337 730,337" fill="none" stroke="#C44E52" stroke-width="2"/>
<polyline points="70,43 143,58 216,44 290,65 363,64 436,52 510,43 583,43 656,41 730,64" fill="none" stroke="#000000" stroke-width="2"/>
<circle cx="70" cy="120" r="3" fill="#0072B2"/>
<circle cx="70" cy="51" r="3" fill="#CC79A7"/>
<circle cx="70" cy="339" r="3" fill="#D55E00"/>
<circle cx="70" cy="277" r="3" fill="#009E73"/>
<circle cx="70" cy="279" r="3" fill="#56B4E9"/>
<circle cx="70" cy="215" r="3" fill="#E69F00"/>
<circle cx="70" cy="337" r="3" fill="#C44E52"/>
<circle cx="70" cy="43" r="3" fill="#000000"/>
<circle cx="143" cy="112" r="3" fill="#0072B2"/>
<circle cx="143" cy="47" r="3" fill="#CC79A7"/>
<circle cx="143" cy="339" r="3" fill="#D55E00"/>
<circle cx="143" cy="276" r="3" fill="#009E73"/>
<circle cx="143" cy="279" r="3" fill="#56B4E9"/>
<circle cx="143" cy="216" r="3" fill="#E69F00"/>
<circle cx="143" cy="338" r="3" fill="#C44E52"/>
<circle cx="143" cy="58" r="3" fill="#000000"/>
<circle cx="216" cy="130" r="3" fill="#0072B2"/>
<circle cx="216" cy="56" r="3" fill="#CC79A7"/>
<circle cx="216" cy="339" r="3" fill="#D55E00"/>
<circle cx="216" cy="279" r="3" fill="#009E73"/>
<circle cx="216" cy="279" r="3" fill="#56B4E9"/>
<circle cx="216" cy="216" r="3" fill="#E69F00"/>
<circle cx="216" cy="338" r="3" fill="#C44E52"/>
<circle cx="216" cy="44" r="3" fill="#000000"/>
<circle cx="290" cy="124" r="3" fill="#0072B2"/>
<circle cx="290" cy="55" r="3" fill="#CC79A7"/>
<circle cx="290" cy="340" r="3" fill="#D55E00"/>
<circle cx="290" cy="278" r="3" fill="#009E73"/>
<circle cx="290" cy="279" r="3" fill="#56B4E9"/>
<circle cx="290" cy="216" r="3" fill="#E69F00"/>
<circle cx="290" cy="338" r="3" fill="#C44E52"/>
<circle cx="290" cy="65" r="3" fill="#000000"/>
<circle cx="363" cy="133" r="3" fill="#0072B2"/>
<circle cx="363" cy="70" r="3" fill="#CC79A7"/>
<circle cx="363" cy="339" r="3" fill="#D55E00"/>
<circle cx="363" cy="281" r="3" fill="#009E73"/>
<circle cx="363" cy="276" r="3" fill="#56B4E9"/>
<circle cx="363" cy="212" r="3" fill="#E69F00"/>
<circle cx="363" cy="338" r="3" fill="#C44E52"/>
<circle cx="363" cy="64" r="3" fill="#000000"/>
<circle cx="436" cy="120" r="3" fill="#0072B2"/>
<circle cx="436" cy="53" r="3" fill="#CC79A7"/>
<circle cx="436" cy="340" r="3" fill="#D55E00"/>
<circle cx="436" cy="278" r="3" fill="#009E73"/>
<circle cx="436" cy="275" r="3" fill="#56B4E9"/>
<circle cx="436" cy="212" r="3" fill="#E69F00"/>
<circle cx="436" cy="338" r="3" fill="#C44E52"/>
<circle cx="436" cy="52" r="3" fill="#000000"/>
<circle cx="510" cy="114" r="3" fill="#0072B2"/>
<circle cx="510" cy="41" r="3" fill="#CC79A7"/>
<circle cx="510" cy="339" r="3" fill="#D55E00"/>
<circle cx="510" cy="275" r="3" fill="#009E73"/>
<circle cx="510" cy="278" r="3" fill="#56B4E9"/>
<circle cx="510" cy="216" r="3" fill="#E69F00"/>
<circle cx="510" cy="338" r="3" fill="#C44E52"/>
<circle cx="510" cy="43" r="3" fill="#000000"/>
<circle cx="583" cy="119" r="3" fill="#0072B2"/>
<circle cx="583" cy="52" r="3" fill="#CC79A7"/>
<circle cx="583" cy="339" r="3" fill="#D55E00"/>
<circle cx="583" cy="277" r="3" fill="#009E73"/>
<circle cx="583" cy="278" r="3" fill="#56B4E9"/>
<circle cx="583" cy="215" r="3" fill="#E69F00"/>
<circle cx="583" cy="338" r="3" fill="#C44E52"/>
<circle cx="583" cy="43" r="3" fill="#000000"/>
<circle cx="656" cy="144" r="3" fill="#0072B2"/>
<circle cx="656" cy="63" r="3" fill="#CC79A7"/>
<circle cx="656" cy="339" r="3" fill="#D55E00"/>
<circle cx="656" cy="281" r="3" fill="#009E73"/>
<circle cx="656" cy="277" r="3" fill="#56B4E9"/>
<circle cx="656" cy="214" r="3" fill="#E69F00"/>
<circle cx="656" cy="337" r="3" fill="#C44E52"/>
<circle cx="656" cy="41" r="3" fill="#000000"/>
<circle cx="730" cy="178" r="3" fill="#0072B2"/>
<circle cx="730" cy="106" r="3" fill="#CC79A7"/>
<circle cx="730" cy="339" r="3" fill="#D55E00"/>
<circle cx="730" cy="289" r="3" fill="#009E73"/>
<circle cx="730" cy="277" r="3" fill="#56B4E9"/>
<circle cx="730" cy="214" r="3" fill="#E69F00"/>
<circle cx="730" cy="337" r="3" fill="#C44E52"/>
<circle cx="730" cy="64" r="3" fill="#000000"/>
<circle cx="90" cy="20" r="4" fill="#0072B2"/>
<text x="98" y="24" text-anchor="start" font-size="12" fill="#0072B2">inte</text>
<circle cx="150" cy="20" r="4" fill="#CC79A7"/>
<text x="158" y="24" text-anchor="start" font-size="12" fill="#CC79A7">comp</text>
<circle cx="215" cy="20" r="4" fill="#D55E00"/>
<text x="223" y="24" text-anchor="start" font-size="12" fill="#D55E00">run</text>
<circle cx="270" cy="20" r="4" fill="#009E73"/>
<text x="278" y="24" text-anchor="start" font-size="12" fill="#009E73">wall</text>
<circle cx="335" cy="20" r="4" fill="#56B4E9"/>
<text x="343" y="24" text-anchor="start" font-size="12" fill="#56B4E9">mem-inte</text>
<circle cx="425" cy="20" r="4" fill="#E69F00"/>
<text x="433" y="24" text-anchor="start" font-size="12" fill="#E69F00">mem-comp</text>
<circle cx="520" cy="20" r="4" fill="#C44E52"/>
<text x="528" y="24" text-anchor="start" font-size="12" fill="#C44E52">mem-run</text>
<circle cx="605" cy="20" r="4" fill="#000000"/>
<text x="613" y="24" text-anchor="start" font-size="12" fill="#000000">mem-total</text>
</svg>
