<svg width="800" height="400" xmlns="http://www.w3.org/2000/svg">
<rect width="800" height="400" fill="white"/>
<line x1="70" y1="40" x2="70" y2="340" stroke="#333" stroke-width="1"/>
<line x1="70" y1="340" x2="780" y2="340" stroke="#333" stroke-width="1"/>
<text x="65" y="344" text-anchor="end" font-size="11" fill="#333">0</text>
<text x="65" y="194" text-anchor="end" font-size="11" fill="#333">62500</text>
<text x="65" y="44" text-anchor="end" font-size="11" fill="#333">125000</text>
<text x="15" y="190" text-anchor="middle" font-size="12" fill="#333" transform="rotate(-90 15 190)">ms</text>
<polyline points="70,48 148,43 227,50 306,47 385,47 464,54 543,49 622,45 701,41 780,42" fill="none" stroke="#0072B2" stroke-width="2"/>
<polyline points="70,247 148,246 227,246 306,245 385,245 464,248 543,245 622,240 701,239 780,239" fill="none" stroke="#D55E00" stroke-width="2"/>
<polyline points="70,71 148,70 227,69 306,69 385,65 464,71 543,70 622,66 701,64 780,66" fill="none" stroke="#CC79A7" stroke-width="2"/>
<polyline points="70,251 148,250 227,251 306,249 385,251 464,252 543,250 622,243 701,243 780,243" fill="none" stroke="#E69F00" stroke-width="2"/>
<polyline points="70,125 148,121 227,126 306,125 385,121 464,128 543,125 622,127 701,124 780,125" fill="none" stroke="#009E73" stroke-width="2"/>
<circle cx="70" cy="48" r="3" fill="#0072B2"/>
<circle cx="70" cy="247" r="3" fill="#D55E00"/>
<circle cx="70" cy="71" r="3" fill="#CC79A7"/>
<circle cx="70" cy="251" r="3" fill="#E69F00"/>
<circle cx="70" cy="125" r="3" fill="#009E73"/>
<circle cx="148" cy="43" r="3" fill="#0072B2"/>
<circle cx="148" cy="246" r="3" fill="#D55E00"/>
<circle cx="148" cy="70" r="3" fill="#CC79A7"/>
<circle cx="148" cy="250" r="3" fill="#E69F00"/>
<circle cx="148" cy="121" r="3" fill="#009E73"/>
<circle cx="227" cy="50" r="3" fill="#0072B2"/>
<circle cx="227" cy="246" r="3" fill="#D55E00"/>
<circle cx="227" cy="69" r="3" fill="#CC79A7"/>
<circle cx="227" cy="251" r="3" fill="#E69F00"/>
<circle cx="227" cy="126" r="3" fill="#009E73"/>
<circle cx="306" cy="47" r="3" fill="#0072B2"/>
<circle cx="306" cy="245" r="3" fill="#D55E00"/>
<circle cx="306" cy="69" r="3" fill="#CC79A7"/>
<circle cx="306" cy="249" r="3" fill="#E69F00"/>
<circle cx="306" cy="125" r="3" fill="#009E73"/>
<circle cx="385" cy="47" r="3" fill="#0072B2"/>
<circle cx="385" cy="245" r="3" fill="#D55E00"/>
<circle cx="385" cy="65" r="3" fill="#CC79A7"/>
<circle cx="385" cy="251" r="3" fill="#E69F00"/>
<circle cx="385" cy="121" r="3" fill="#009E73"/>
<circle cx="464" cy="54" r="3" fill="#0072B2"/>
<circle cx="464" cy="248" r="3" fill="#D55E00"/>
<circle cx="464" cy="71" r="3" fill="#CC79A7"/>
<circle cx="464" cy="252" r="3" fill="#E69F00"/>
<circle cx="464" cy="128" r="3" fill="#009E73"/>
<circle cx="543" cy="49" r="3" fill="#0072B2"/>
<circle cx="543" cy="245" r="3" fill="#D55E00"/>
<circle cx="543" cy="70" r="3" fill="#CC79A7"/>
<circle cx="543" cy="250" r="3" fill="#E69F00"/>
<circle cx="543" cy="125" r="3" fill="#009E73"/>
<circle cx="622" cy="45" r="3" fill="#0072B2"/>
<circle cx="622" cy="240" r="3" fill="#D55E00"/>
<circle cx="622" cy="66" r="3" fill="#CC79A7"/>
<circle cx="622" cy="243" r="3" fill="#E69F00"/>
<circle cx="622" cy="127" r="3" fill="#009E73"/>
<circle cx="701" cy="41" r="3" fill="#0072B2"/>
<circle cx="701" cy="239" r="3" fill="#D55E00"/>
<circle cx="701" cy="64" r="3" fill="#CC79A7"/>
<circle cx="701" cy="243" r="3" fill="#E69F00"/>
<circle cx="701" cy="124" r="3" fill="#009E73"/>
<circle cx="780" cy="42" r="3" fill="#0072B2"/>
<circle cx="780" cy="239" r="3" fill="#D55E00"/>
<circle cx="780" cy="66" r="3" fill="#CC79A7"/>
<circle cx="780" cy="243" r="3" fill="#E69F00"/>
<circle cx="780" cy="125" r="3" fill="#009E73"/>
<circle cx="90" cy="20" r="4" fill="#0072B2"/>
<text x="98" y="24" text-anchor="start" font-size="12" fill="#0072B2">ctil-i</text>
<circle cx="160" cy="20" r="4" fill="#D55E00"/>
<text x="168" y="24" text-anchor="start" font-size="12" fill="#D55E00">ctil-r</text>
<circle cx="230" cy="20" r="4" fill="#CC79A7"/>
<text x="238" y="24" text-anchor="start" font-size="12" fill="#CC79A7">til-i</text>
<circle cx="290" cy="20" r="4" fill="#E69F00"/>
<text x="298" y="24" text-anchor="start" font-size="12" fill="#E69F00">til-r</text>
<circle cx="350" cy="20" r="4" fill="#009E73"/>
<text x="358" y="24" text-anchor="start" font-size="12" fill="#009E73">Wall</text>
</svg>
