<svg width="800" height="400" xmlns="http://www.w3.org/2000/svg">
<rect width="800" height="400" fill="white"/>
<line x1="70" y1="40" x2="70" y2="340" stroke="#333" stroke-width="1"/>
<line x1="70" y1="340" x2="780" y2="340" stroke="#333" stroke-width="1"/>
<text x="65" y="344" text-anchor="end" font-size="11" fill="#333">0</text>
<text x="65" y="194" text-anchor="end" font-size="11" fill="#333">49000</text>
<text x="65" y="44" text-anchor="end" font-size="11" fill="#333">98000</text>
<text x="15" y="190" text-anchor="middle" font-size="12" fill="#333" transform="rotate(-90 15 190)">ms</text>
<polyline points="70,56 148,61 227,50 306,49 385,51 464,50 543,47 622,50 701,43 780,46" fill="none" stroke="#0072B2" stroke-width="2"/>
<polyline points="70,340 148,340 227,94 306,93 385,94 464,89 543,89 622,91 701,88 780,93" fill="none" stroke="#CC79A7" stroke-width="2"/>
<polyline points="70,84 148,88 227,335 306,335 385,335 464,335 543,335 622,335 701,335 780,335" fill="none" stroke="#D55E00" stroke-width="2"/>
<polyline points="70,51 148,52 227,201 306,200 385,202 464,200 543,200 622,201 701,200 780,202" fill="none" stroke="#009E73" stroke-width="2"/>
<circle cx="70" cy="56" r="3" fill="#0072B2"/>
<circle cx="70" cy="340" r="3" fill="#CC79A7"/>
<circle cx="70" cy="84" r="3" fill="#D55E00"/>
<circle cx="70" cy="51" r="3" fill="#009E73"/>
<circle cx="148" cy="61" r="3" fill="#0072B2"/>
<circle cx="148" cy="340" r="3" fill="#CC79A7"/>
<circle cx="148" cy="88" r="3" fill="#D55E00"/>
<circle cx="148" cy="52" r="3" fill="#009E73"/>
<circle cx="227" cy="50" r="3" fill="#0072B2"/>
<circle cx="227" cy="94" r="3" fill="#CC79A7"/>
<circle cx="227" cy="335" r="3" fill="#D55E00"/>
<circle cx="227" cy="201" r="3" fill="#009E73"/>
<circle cx="306" cy="49" r="3" fill="#0072B2"/>
<circle cx="306" cy="93" r="3" fill="#CC79A7"/>
<circle cx="306" cy="335" r="3" fill="#D55E00"/>
<circle cx="306" cy="200" r="3" fill="#009E73"/>
<circle cx="385" cy="51" r="3" fill="#0072B2"/>
<circle cx="385" cy="94" r="3" fill="#CC79A7"/>
<circle cx="385" cy="335" r="3" fill="#D55E00"/>
<circle cx="385" cy="202" r="3" fill="#009E73"/>
<circle cx="464" cy="50" r="3" fill="#0072B2"/>
<circle cx="464" cy="89" r="3" fill="#CC79A7"/>
<circle cx="464" cy="335" r="3" fill="#D55E00"/>
<circle cx="464" cy="200" r="3" fill="#009E73"/>
<circle cx="543" cy="47" r="3" fill="#0072B2"/>
<circle cx="543" cy="89" r="3" fill="#CC79A7"/>
<circle cx="543" cy="335" r="3" fill="#D55E00"/>
<circle cx="543" cy="200" r="3" fill="#009E73"/>
<circle cx="622" cy="50" r="3" fill="#0072B2"/>
<circle cx="622" cy="91" r="3" fill="#CC79A7"/>
<circle cx="622" cy="335" r="3" fill="#D55E00"/>
<circle cx="622" cy="201" r="3" fill="#009E73"/>
<circle cx="701" cy="43" r="3" fill="#0072B2"/>
<circle cx="701" cy="88" r="3" fill="#CC79A7"/>
<circle cx="701" cy="335" r="3" fill="#D55E00"/>
<circle cx="701" cy="200" r="3" fill="#009E73"/>
<circle cx="780" cy="46" r="3" fill="#0072B2"/>
<circle cx="780" cy="93" r="3" fill="#CC79A7"/>
<circle cx="780" cy="335" r="3" fill="#D55E00"/>
<circle cx="780" cy="202" r="3" fill="#009E73"/>
<circle cx="90" cy="20" r="4" fill="#0072B2"/>
<text x="98" y="24" text-anchor="start" font-size="12" fill="#0072B2">interpreted</text>
<circle cx="190" cy="20" r="4" fill="#CC79A7"/>
<text x="198" y="24" text-anchor="start" font-size="12" fill="#CC79A7">compiled</text>
<circle cx="275" cy="20" r="4" fill="#D55E00"/>
<text x="283" y="24" text-anchor="start" font-size="12" fill="#D55E00">executed</text>
<circle cx="355" cy="20" r="4" fill="#009E73"/>
<text x="363" y="24" text-anchor="start" font-size="12" fill="#009E73">wall</text>
</svg>
