<svg width="800" height="400" xmlns="http://www.w3.org/2000/svg">
<rect width="800" height="400" fill="white"/>
<line x1="70" y1="40" x2="70" y2="340" stroke="#333" stroke-width="1"/>
<line x1="70" y1="340" x2="730" y2="340" stroke="#333" stroke-width="1"/>
<line x1="730" y1="40" x2="730" y2="340" stroke="#333" stroke-width="1"/>
<text x="65" y="344" text-anchor="end" font-size="11" fill="#333">0</text>
<text x="65" y="194" text-anchor="end" font-size="11" fill="#333">347500</text>
<text x="65" y="44" text-anchor="end" font-size="11" fill="#333">695000</text>
<text x="15" y="190" text-anchor="middle" font-size="12" fill="#333" transform="rotate(-90 15 190)">ms</text>
<text x="735" y="344" text-anchor="start" font-size="11" fill="#333">0</text>
<text x="735" y="194" text-anchor="start" font-size="11" fill="#333">5039500000</text>
<text x="735" y="44" text-anchor="start" font-size="11" fill="#333">10079000000</text>
<text x="785" y="190" text-anchor="middle" font-size="12" fill="#333" transform="rotate(90 785 190)">bytes</text>
<polyline points="70,54 143,113 216,126 290,73 363,86 436,94 510,120 583,101 656,101 730,96" fill="none" stroke="#0072B2" stroke-width="2"/>
<polyline points="70,41 143,97 216,100 290,70 363,62 436,68 510,101 583,88 656,90 730,78" fill="none" stroke="#CC79A7" stroke-width="2"/>
<polyline points="70,340 143,340 216,340 290,340 363,340 436,340 510,340 583,340 656,340 730,340" fill="none" stroke="#D55E00" stroke-width="2"/>
<polyline points="70,212 143,231 216,239 290,223 363,224 436,225 510,238 583,230 656,230 730,229" fill="none" stroke="#009E73" stroke-width="2"/>
<polyline points="70,274 143,274 216,274 290,274 363,273 436,270 510,270 583,273 656,273 730,273" fill="none" stroke="#56B4E9" stroke-width="2"/>
<polyline points="70,207 143,207 216,207 290,207 363,207 436,203 510,203 583,206 656,206 730,206" fill="none" stroke="#E69F00" stroke-width="2"/>
<polyline points="70,340 143,340 216,340 290,340 363,340 436,340 510,340 583,340 656,340 730,340" fill="none" stroke="#C44E52" stroke-width="2"/>
<polyline points="70,49 143,49 216,48 290,48 363,48 436,41 510,41 583,48 656,48 730,47" fill="none" stroke="#000000" stroke-width="2"/>
<circle cx="70" cy="54" r="3" fill="#0072B2"/>
<circle cx="70" cy="41" r="3" fill="#CC79A7"/>
<circle cx="70" cy="340" r="3" fill="#D55E00"/>
<circle cx="70" cy="212" r="3" fill="#009E73"/>
<circle cx="70" cy="274" r="3" fill="#56B4E9"/>
<circle cx="70" cy="207" r="3" fill="#E69F00"/>
<circle cx="70" cy="340" r="3" fill="#C44E52"/>
<circle cx="70" cy="49" r="3" fill="#000000"/>
<circle cx="143" cy="113" r="3" fill="#0072B2"/>
<circle cx="143" cy="97" r="3" fill="#CC79A7"/>
<circle cx="143" cy="340" r="3" fill="#D55E00"/>
<circle cx="143" cy="231" r="3" fill="#009E73"/>
<circle cx="143" cy="274" r="3" fill="#56B4E9"/>
<circle cx="143" cy="207" r="3" fill="#E69F00"/>
<circle cx="143" cy="340" r="3" fill="#C44E52"/>
<circle cx="143" cy="49" r="3" fill="#000000"/>
<circle cx="216" cy="126" r="3" fill="#0072B2"/>
<circle cx="216" cy="100" r="3" fill="#CC79A7"/>
<circle cx="216" cy="340" r="3" fill="#D55E00"/>
<circle cx="216" cy="239" r="3" fill="#009E73"/>
<circle cx="216" cy="274" r="3" fill="#56B4E9"/>
<circle cx="216" cy="207" r="3" fill="#E69F00"/>
<circle cx="216" cy="340" r="3" fill="#C44E52"/>
<circle cx="216" cy="48" r="3" fill="#000000"/>
<circle cx="290" cy="73" r="3" fill="#0072B2"/>
<circle cx="290" cy="70" r="3" fill="#CC79A7"/>
<circle cx="290" cy="340" r="3" fill="#D55E00"/>
<circle cx="290" cy="223" r="3" fill="#009E73"/>
<circle cx="290" cy="274" r="3" fill="#56B4E9"/>
<circle cx="290" cy="207" r="3" fill="#E69F00"/>
<circle cx="290" cy="340" r="3" fill="#C44E52"/>
<circle cx="290" cy="48" r="3" fill="#000000"/>
<circle cx="363" cy="86" r="3" fill="#0072B2"/>
<circle cx="363" cy="62" r="3" fill="#CC79A7"/>
<circle cx="363" cy="340" r="3" fill="#D55E00"/>
<circle cx="363" cy="224" r="3" fill="#009E73"/>
<circle cx="363" cy="273" r="3" fill="#56B4E9"/>
<circle cx="363" cy="207" r="3" fill="#E69F00"/>
<circle cx="363" cy="340" r="3" fill="#C44E52"/>
<circle cx="363" cy="48" r="3" fill="#000000"/>
<circle cx="436" cy="94" r="3" fill="#0072B2"/>
<circle cx="436" cy="68" r="3" fill="#CC79A7"/>
<circle cx="436" cy="340" r="3" fill="#D55E00"/>
<circle cx="436" cy="225" r="3" fill="#009E73"/>
<circle cx="436" cy="270" r="3" fill="#56B4E9"/>
<circle cx="436" cy="203" r="3" fill="#E69F00"/>
<circle cx="436" cy="340" r="3" fill="#C44E52"/>
<circle cx="436" cy="41" r="3" fill="#000000"/>
<circle cx="510" cy="120" r="3" fill="#0072B2"/>
<circle cx="510" cy="101" r="3" fill="#CC79A7"/>
<circle cx="510" cy="340" r="3" fill="#D55E00"/>
<circle cx="510" cy="238" r="3" fill="#009E73"/>
<circle cx="510" cy="270" r="3" fill="#56B4E9"/>
<circle cx="510" cy="203" r="3" fill="#E69F00"/>
<circle cx="510" cy="340" r="3" fill="#C44E52"/>
<circle cx="510" cy="41" r="3" fill="#000000"/>
<circle cx="583" cy="101" r="3" fill="#0072B2"/>
<circle cx="583" cy="88" r="3" fill="#CC79A7"/>
<circle cx="583" cy="340" r="3" fill="#D55E00"/>
<circle cx="583" cy="230" r="3" fill="#009E73"/>
<circle cx="583" cy="273" r="3" fill="#56B4E9"/>
<circle cx="583" cy="206" r="3" fill="#E69F00"/>
<circle cx="583" cy="340" r="3" fill="#C44E52"/>
<circle cx="583" cy="48" r="3" fill="#000000"/>
<circle cx="656" cy="101" r="3" fill="#0072B2"/>
<circle cx="656" cy="90" r="3" fill="#CC79A7"/>
<circle cx="656" cy="340" r="3" fill="#D55E00"/>
<circle cx="656" cy="230" r="3" fill="#009E73"/>
<circle cx="656" cy="273" r="3" fill="#56B4E9"/>
<circle cx="656" cy="206" r="3" fill="#E69F00"/>
<circle cx="656" cy="340" r="3" fill="#C44E52"/>
<circle cx="656" cy="48" r="3" fill="#000000"/>
<circle cx="730" cy="96" r="3" fill="#0072B2"/>
<circle cx="730" cy="78" r="3" fill="#CC79A7"/>
<circle cx="730" cy="340" r="3" fill="#D55E00"/>
<circle cx="730" cy="229" r="3" fill="#009E73"/>
<circle cx="730" cy="273" r="3" fill="#56B4E9"/>
<circle cx="730" cy="206" r="3" fill="#E69F00"/>
<circle cx="730" cy="340" r="3" fill="#C44E52"/>
<circle cx="730" cy="47" r="3" fill="#000000"/>
<circle cx="90" cy="20" r="4" fill="#0072B2"/>
<text x="98" y="24" text-anchor="start" font-size="12" fill="#0072B2">inte</text>
<circle cx="150" cy="20" r="4" fill="#CC79A7"/>
<text x="158" y="24" text-anchor="start" font-size="12" fill="#CC79A7">comp</text>
<circle cx="215" cy="20" r="4" fill="#D55E00"/>
<text x="223" y="24" text-anchor="start" font-size="12" fill="#D55E00">run</text>
<circle cx="270" cy="20" r="4" fill="#009E73"/>
<text x="278" y="24" text-anchor="start" font-size="12" fill="#009E73">wall</text>
<circle cx="335" cy="20" r="4" fill="#56B4E9"/>
<text x="343" y="24" text-anchor="start" font-size="12" fill="#56B4E9">mem-inte</text>
<circle cx="425" cy="20" r="4" fill="#E69F00"/>
<text x="433" y="24" text-anchor="start" font-size="12" fill="#E69F00">mem-comp</text>
<circle cx="520" cy="20" r="4" fill="#C44E52"/>
<text x="528" y="24" text-anchor="start" font-size="12" fill="#C44E52">mem-run</text>
<circle cx="605" cy="20" r="4" fill="#000000"/>
<text x="613" y="24" text-anchor="start" font-size="12" fill="#000000">mem-total</text>
</svg>
