<svg width="800" height="400" xmlns="http://www.w3.org/2000/svg">
<rect width="800" height="400" fill="white"/>
<line x1="70" y1="40" x2="70" y2="340" stroke="#333" stroke-width="1"/>
<line x1="70" y1="340" x2="730" y2="340" stroke="#333" stroke-width="1"/>
<line x1="730" y1="40" x2="730" y2="340" stroke="#333" stroke-width="1"/>
<text x="65" y="344" text-anchor="end" font-size="11" fill="#333">0</text>
<text x="65" y="194" text-anchor="end" font-size="11" fill="#333">135000</text>
<text x="65" y="44" text-anchor="end" font-size="11" fill="#333">270000</text>
<text x="15" y="190" text-anchor="middle" font-size="12" fill="#333" transform="rotate(-90 15 190)">ms</text>
<text x="735" y="344" text-anchor="start" font-size="11" fill="#333">0</text>
<text x="735" y="194" text-anchor="start" font-size="11" fill="#333">6311000000</text>
<text x="735" y="44" text-anchor="start" font-size="11" fill="#333">12622000000</text>
<text x="785" y="190" text-anchor="middle" font-size="12" fill="#333" transform="rotate(90 785 190)">bytes</text>
<polyline points="70,103 143,199 216,194 290,206 363,202 436,208 510,199 583,195 656,199 730,215" fill="none" stroke="#0072B2" stroke-width="2"/>
<polyline points="70,41 143,155 216,153 290,158 363,158 436,167 510,156 583,148 656,155 730,163" fill="none" stroke="#CC79A7" stroke-width="2"/>
<polyline points="70,339 143,340 216,340 290,340 363,340 436,340 510,340 583,340 656,340 730,340" fill="none" stroke="#D55E00" stroke-width="2"/>
<polyline points="70,275 143,300 216,299 290,301 363,300 436,302 510,300 583,299 656,300 730,302" fill="none" stroke="#009E73" stroke-width="2"/>
<polyline points="70,279 143,279 216,279 290,279 363,279 436,276 510,275 583,278 656,278 730,277" fill="none" stroke="#56B4E9" stroke-width="2"/>
<polyline points="70,215 143,215 216,216 290,216 363,216 436,212 510,212 583,216 656,215 730,214" fill="none" stroke="#E69F00" stroke-width="2"/>
<polyline points="70,335 143,337 216,338 290,338 363,338 436,338 510,338 583,338 656,338 730,337" fill="none" stroke="#C44E52" stroke-width="2"/>
<polyline points="70,41 143,43 216,58 290,44 363,65 436,64 510,52 583,43 656,43 730,41" fill="none" stroke="#000000" stroke-width="2"/>
<circle cx="70" cy="103" r="3" fill="#0072B2"/>
<circle cx="70" cy="41" r="3" fill="#CC79A7"/>
<circle cx="70" cy="339" r="3" fill="#D55E00"/>
<circle cx="70" cy="275" r="3" fill="#009E73"/>
<circle cx="70" cy="279" r="3" fill="#56B4E9"/>
<circle cx="70" cy="215" r="3" fill="#E69F00"/>
<circle cx="70" cy="335" r="3" fill="#C44E52"/>
<circle cx="70" cy="41" r="3" fill="#000000"/>
<circle cx="143" cy="199" r="3" fill="#0072B2"/>
<circle cx="143" cy="155" r="3" fill="#CC79A7"/>
<circle cx="143" cy="340" r="3" fill="#D55E00"/>
<circle cx="143" cy="300" r="3" fill="#009E73"/>
<circle cx="143" cy="279" r="3" fill="#56B4E9"/>
<circle cx="143" cy="215" r="3" fill="#E69F00"/>
<circle cx="143" cy="337" r="3" fill="#C44E52"/>
<circle cx="143" cy="43" r="3" fill="#000000"/>
<circle cx="216" cy="194" r="3" fill="#0072B2"/>
<circle cx="216" cy="153" r="3" fill="#CC79A7"/>
<circle cx="216" cy="340" r="3" fill="#D55E00"/>
<circle cx="216" cy="299" r="3" fill="#009E73"/>
<circle cx="216" cy="279" r="3" fill="#56B4E9"/>
<circle cx="216" cy="216" r="3" fill="#E69F00"/>
<circle cx="216" cy="338" r="3" fill="#C44E52"/>
<circle cx="216" cy="58" r="3" fill="#000000"/>
<circle cx="290" cy="206" r="3" fill="#0072B2"/>
<circle cx="290" cy="158" r="3" fill="#CC79A7"/>
<circle cx="290" cy="340" r="3" fill="#D55E00"/>
<circle cx="290" cy="301" r="3" fill="#009E73"/>
<circle cx="290" cy="279" r="3" fill="#56B4E9"/>
<circle cx="290" cy="216" r="3" fill="#E69F00"/>
<circle cx="290" cy="338" r="3" fill="#C44E52"/>
<circle cx="290" cy="44" r="3" fill="#000000"/>
<circle cx="363" cy="202" r="3" fill="#0072B2"/>
<circle cx="363" cy="158" r="3" fill="#CC79A7"/>
<circle cx="363" cy="340" r="3" fill="#D55E00"/>
<circle cx="363" cy="300" r="3" fill="#009E73"/>
<circle cx="363" cy="279" r="3" fill="#56B4E9"/>
<circle cx="363" cy="216" r="3" fill="#E69F00"/>
<circle cx="363" cy="338" r="3" fill="#C44E52"/>
<circle cx="363" cy="65" r="3" fill="#000000"/>
<circle cx="436" cy="208" r="3" fill="#0072B2"/>
<circle cx="436" cy="167" r="3" fill="#CC79A7"/>
<circle cx="436" cy="340" r="3" fill="#D55E00"/>
<circle cx="436" cy="302" r="3" fill="#009E73"/>
<circle cx="436" cy="276" r="3" fill="#56B4E9"/>
<circle cx="436" cy="212" r="3" fill="#E69F00"/>
<circle cx="436" cy="338" r="3" fill="#C44E52"/>
<circle cx="436" cy="64" r="3" fill="#000000"/>
<circle cx="510" cy="199" r="3" fill="#0072B2"/>
<circle cx="510" cy="156" r="3" fill="#CC79A7"/>
<circle cx="510" cy="340" r="3" fill="#D55E00"/>
<circle cx="510" cy="300" r="3" fill="#009E73"/>
<circle cx="510" cy="275" r="3" fill="#56B4E9"/>
<circle cx="510" cy="212" r="3" fill="#E69F00"/>
<circle cx="510" cy="338" r="3" fill="#C44E52"/>
<circle cx="510" cy="52" r="3" fill="#000000"/>
<circle cx="583" cy="195" r="3" fill="#0072B2"/>
<circle cx="583" cy="148" r="3" fill="#CC79A7"/>
<circle cx="583" cy="340" r="3" fill="#D55E00"/>
<circle cx="583" cy="299" r="3" fill="#009E73"/>
<circle cx="583" cy="278" r="3" fill="#56B4E9"/>
<circle cx="583" cy="216" r="3" fill="#E69F00"/>
<circle cx="583" cy="338" r="3" fill="#C44E52"/>
<circle cx="583" cy="43" r="3" fill="#000000"/>
<circle cx="656" cy="199" r="3" fill="#0072B2"/>
<circle cx="656" cy="155" r="3" fill="#CC79A7"/>
<circle cx="656" cy="340" r="3" fill="#D55E00"/>
<circle cx="656" cy="300" r="3" fill="#009E73"/>
<circle cx="656" cy="278" r="3" fill="#56B4E9"/>
<circle cx="656" cy="215" r="3" fill="#E69F00"/>
<circle cx="656" cy="338" r="3" fill="#C44E52"/>
<circle cx="656" cy="43" r="3" fill="#000000"/>
<circle cx="730" cy="215" r="3" fill="#0072B2"/>
<circle cx="730" cy="163" r="3" fill="#CC79A7"/>
<circle cx="730" cy="340" r="3" fill="#D55E00"/>
<circle cx="730" cy="302" r="3" fill="#009E73"/>
<circle cx="730" cy="277" r="3" fill="#56B4E9"/>
<circle cx="730" cy="214" r="3" fill="#E69F00"/>
<circle cx="730" cy="337" r="3" fill="#C44E52"/>
<circle cx="730" cy="41" r="3" fill="#000000"/>
<circle cx="90" cy="20" r="4" fill="#0072B2"/>
<text x="98" y="24" text-anchor="start" font-size="12" fill="#0072B2">inte</text>
<circle cx="150" cy="20" r="4" fill="#CC79A7"/>
<text x="158" y="24" text-anchor="start" font-size="12" fill="#CC79A7">comp</text>
<circle cx="215" cy="20" r="4" fill="#D55E00"/>
<text x="223" y="24" text-anchor="start" font-size="12" fill="#D55E00">run</text>
<circle cx="270" cy="20" r="4" fill="#009E73"/>
<text x="278" y="24" text-anchor="start" font-size="12" fill="#009E73">wall</text>
<circle cx="335" cy="20" r="4" fill="#56B4E9"/>
<text x="343" y="24" text-anchor="start" font-size="12" fill="#56B4E9">mem-inte</text>
<circle cx="425" cy="20" r="4" fill="#E69F00"/>
<text x="433" y="24" text-anchor="start" font-size="12" fill="#E69F00">mem-comp</text>
<circle cx="520" cy="20" r="4" fill="#C44E52"/>
<text x="528" y="24" text-anchor="start" font-size="12" fill="#C44E52">mem-run</text>
<circle cx="605" cy="20" r="4" fill="#000000"/>
<text x="613" y="24" text-anchor="start" font-size="12" fill="#000000">mem-total</text>
</svg>
