<svg width="800" height="400" xmlns="http://www.w3.org/2000/svg">
<rect width="800" height="400" fill="white"/>
<line x1="70" y1="40" x2="70" y2="340" stroke="#333" stroke-width="1"/>
<line x1="70" y1="340" x2="730" y2="340" stroke="#333" stroke-width="1"/>
<line x1="730" y1="40" x2="730" y2="340" stroke="#333" stroke-width="1"/>
<text x="65" y="344" text-anchor="end" font-size="11" fill="#333">0</text>
<text x="65" y="194" text-anchor="end" font-size="11" fill="#333">94000</text>
<text x="65" y="44" text-anchor="end" font-size="11" fill="#333">188000</text>
<text x="15" y="190" text-anchor="middle" font-size="12" fill="#333" transform="rotate(-90 15 190)">ms</text>
<text x="735" y="344" text-anchor="start" font-size="11" fill="#333">0</text>
<text x="735" y="194" text-anchor="start" font-size="11" fill="#333">6130500000</text>
<text x="735" y="44" text-anchor="start" font-size="11" fill="#333">12261000000</text>
<text x="785" y="190" text-anchor="middle" font-size="12" fill="#333" transform="rotate(90 785 190)">bytes</text>
<polyline points="70,172 143,140 216,144 290,162 363,140 436,141 510,143 583,109 656,138 730,74" fill="none" stroke="#0072B2" stroke-width="2"/>
<polyline points="70,156 143,120 216,124 290,143 363,121 436,121 510,124 583,83 656,117 730,41" fill="none" stroke="#CC79A7" stroke-width="2"/>
<polyline points="70,340 143,340 216,340 290,340 363,340 436,340 510,340 583,340 656,340 730,340" fill="none" stroke="#D55E00" stroke-width="2"/>
<polyline points="70,179 143,147 216,153 290,170 363,147 436,152 510,154 583,115 656,146 730,83" fill="none" stroke="#009E73" stroke-width="2"/>
<polyline points="70,250 143,250 216,250 290,250 363,250 436,250 510,250 583,250 656,250 730,250" fill="none" stroke="#56B4E9" stroke-width="2"/>
<polyline points="70,205 143,203 216,203 290,204 363,201 436,206 510,203 583,197 656,195 730,195" fill="none" stroke="#E69F00" stroke-width="2"/>
<polyline points="70,340 143,340 216,340 290,340 363,340 436,340 510,340 583,340 656,340 730,340" fill="none" stroke="#C44E52" stroke-width="2"/>
<polyline points="70,66 143,63 216,65 290,64 363,60 436,62 510,61 583,45 656,41 730,43" fill="none" stroke="#000000" stroke-width="2"/>
<circle cx="70" cy="172" r="3" fill="#0072B2"/>
<circle cx="70" cy="156" r="3" fill="#CC79A7"/>
<circle cx="70" cy="340" r="3" fill="#D55E00"/>
<circle cx="70" cy="179" r="3" fill="#009E73"/>
<circle cx="70" cy="250" r="3" fill="#56B4E9"/>
<circle cx="70" cy="205" r="3" fill="#E69F00"/>
<circle cx="70" cy="340" r="3" fill="#C44E52"/>
<circle cx="70" cy="66" r="3" fill="#000000"/>
<circle cx="143" cy="140" r="3" fill="#0072B2"/>
<circle cx="143" cy="120" r="3" fill="#CC79A7"/>
<circle cx="143" cy="340" r="3" fill="#D55E00"/>
<circle cx="143" cy="147" r="3" fill="#009E73"/>
<circle cx="143" cy="250" r="3" fill="#56B4E9"/>
<circle cx="143" cy="203" r="3" fill="#E69F00"/>
<circle cx="143" cy="340" r="3" fill="#C44E52"/>
<circle cx="143" cy="63" r="3" fill="#000000"/>
<circle cx="216" cy="144" r="3" fill="#0072B2"/>
<circle cx="216" cy="124" r="3" fill="#CC79A7"/>
<circle cx="216" cy="340" r="3" fill="#D55E00"/>
<circle cx="216" cy="153" r="3" fill="#009E73"/>
<circle cx="216" cy="250" r="3" fill="#56B4E9"/>
<circle cx="216" cy="203" r="3" fill="#E69F00"/>
<circle cx="216" cy="340" r="3" fill="#C44E52"/>
<circle cx="216" cy="65" r="3" fill="#000000"/>
<circle cx="290" cy="162" r="3" fill="#0072B2"/>
<circle cx="290" cy="143" r="3" fill="#CC79A7"/>
<circle cx="290" cy="340" r="3" fill="#D55E00"/>
<circle cx="290" cy="170" r="3" fill="#009E73"/>
<circle cx="290" cy="250" r="3" fill="#56B4E9"/>
<circle cx="290" cy="204" r="3" fill="#E69F00"/>
<circle cx="290" cy="340" r="3" fill="#C44E52"/>
<circle cx="290" cy="64" r="3" fill="#000000"/>
<circle cx="363" cy="140" r="3" fill="#0072B2"/>
<circle cx="363" cy="121" r="3" fill="#CC79A7"/>
<circle cx="363" cy="340" r="3" fill="#D55E00"/>
<circle cx="363" cy="147" r="3" fill="#009E73"/>
<circle cx="363" cy="250" r="3" fill="#56B4E9"/>
<circle cx="363" cy="201" r="3" fill="#E69F00"/>
<circle cx="363" cy="340" r="3" fill="#C44E52"/>
<circle cx="363" cy="60" r="3" fill="#000000"/>
<circle cx="436" cy="141" r="3" fill="#0072B2"/>
<circle cx="436" cy="121" r="3" fill="#CC79A7"/>
<circle cx="436" cy="340" r="3" fill="#D55E00"/>
<circle cx="436" cy="152" r="3" fill="#009E73"/>
<circle cx="436" cy="250" r="3" fill="#56B4E9"/>
<circle cx="436" cy="206" r="3" fill="#E69F00"/>
<circle cx="436" cy="340" r="3" fill="#C44E52"/>
<circle cx="436" cy="62" r="3" fill="#000000"/>
<circle cx="510" cy="143" r="3" fill="#0072B2"/>
<circle cx="510" cy="124" r="3" fill="#CC79A7"/>
<circle cx="510" cy="340" r="3" fill="#D55E00"/>
<circle cx="510" cy="154" r="3" fill="#009E73"/>
<circle cx="510" cy="250" r="3" fill="#56B4E9"/>
<circle cx="510" cy="203" r="3" fill="#E69F00"/>
<circle cx="510" cy="340" r="3" fill="#C44E52"/>
<circle cx="510" cy="61" r="3" fill="#000000"/>
<circle cx="583" cy="109" r="3" fill="#0072B2"/>
<circle cx="583" cy="83" r="3" fill="#CC79A7"/>
<circle cx="583" cy="340" r="3" fill="#D55E00"/>
<circle cx="583" cy="115" r="3" fill="#009E73"/>
<circle cx="583" cy="250" r="3" fill="#56B4E9"/>
<circle cx="583" cy="197" r="3" fill="#E69F00"/>
<circle cx="583" cy="340" r="3" fill="#C44E52"/>
<circle cx="583" cy="45" r="3" fill="#000000"/>
<circle cx="656" cy="138" r="3" fill="#0072B2"/>
<circle cx="656" cy="117" r="3" fill="#CC79A7"/>
<circle cx="656" cy="340" r="3" fill="#D55E00"/>
<circle cx="656" cy="146" r="3" fill="#009E73"/>
<circle cx="656" cy="250" r="3" fill="#56B4E9"/>
<circle cx="656" cy="195" r="3" fill="#E69F00"/>
<circle cx="656" cy="340" r="3" fill="#C44E52"/>
<circle cx="656" cy="41" r="3" fill="#000000"/>
<circle cx="730" cy="74" r="3" fill="#0072B2"/>
<circle cx="730" cy="41" r="3" fill="#CC79A7"/>
<circle cx="730" cy="340" r="3" fill="#D55E00"/>
<circle cx="730" cy="83" r="3" fill="#009E73"/>
<circle cx="730" cy="250" r="3" fill="#56B4E9"/>
<circle cx="730" cy="195" r="3" fill="#E69F00"/>
<circle cx="730" cy="340" r="3" fill="#C44E52"/>
<circle cx="730" cy="43" r="3" fill="#000000"/>
<circle cx="90" cy="20" r="4" fill="#0072B2"/>
<text x="98" y="24" text-anchor="start" font-size="12" fill="#0072B2">inte</text>
<circle cx="150" cy="20" r="4" fill="#CC79A7"/>
<text x="158" y="24" text-anchor="start" font-size="12" fill="#CC79A7">comp</text>
<circle cx="215" cy="20" r="4" fill="#D55E00"/>
<text x="223" y="24" text-anchor="start" font-size="12" fill="#D55E00">run</text>
<circle cx="270" cy="20" r="4" fill="#009E73"/>
<text x="278" y="24" text-anchor="start" font-size="12" fill="#009E73">wall</text>
<circle cx="335" cy="20" r="4" fill="#56B4E9"/>
<text x="343" y="24" text-anchor="start" font-size="12" fill="#56B4E9">mem-inte</text>
<circle cx="425" cy="20" r="4" fill="#E69F00"/>
<text x="433" y="24" text-anchor="start" font-size="12" fill="#E69F00">mem-comp</text>
<circle cx="520" cy="20" r="4" fill="#C44E52"/>
<text x="528" y="24" text-anchor="start" font-size="12" fill="#C44E52">mem-run</text>
<circle cx="605" cy="20" r="4" fill="#000000"/>
<text x="613" y="24" text-anchor="start" font-size="12" fill="#000000">mem-total</text>
</svg>
