<svg width="800" height="400" xmlns="http://www.w3.org/2000/svg">
<rect width="800" height="400" fill="white"/>
<line x1="70" y1="40" x2="70" y2="340" stroke="#333" stroke-width="1"/>
<line x1="70" y1="340" x2="730" y2="340" stroke="#333" stroke-width="1"/>
<line x1="730" y1="40" x2="730" y2="340" stroke="#333" stroke-width="1"/>
<text x="65" y="344" text-anchor="end" font-size="11" fill="#333">0</text>
<text x="65" y="194" text-anchor="end" font-size="11" fill="#333">481000</text>
<text x="65" y="44" text-anchor="end" font-size="11" fill="#333">962000</text>
<text x="15" y="190" text-anchor="middle" font-size="12" fill="#333" transform="rotate(-90 15 190)">ms</text>
<text x="735" y="344" text-anchor="start" font-size="11" fill="#333">0</text>
<text x="735" y="194" text-anchor="start" font-size="11" fill="#333">61154000000</text>
<text x="735" y="44" text-anchor="start" font-size="11" fill="#333">122308000000</text>
<text x="785" y="190" text-anchor="middle" font-size="12" fill="#333" transform="rotate(90 785 190)">bytes</text>
<polyline points="70,89 143,83 216,82 290,74 363,83 436,76 510,79 583,172 656,176 730,171" fill="none" stroke="#0072B2" stroke-width="2"/>
<polyline points="70,50 143,49 216,46 290,42 363,44 436,41 510,41 583,142 656,144 730,141" fill="none" stroke="#CC79A7" stroke-width="2"/>
<polyline points="70,340 143,340 216,340 290,340 363,340 436,340 510,340 583,340 656,340 730,340" fill="none" stroke="#D55E00" stroke-width="2"/>
<polyline points="70,305 143,304 216,305 290,304 363,305 436,304 510,304 583,317 656,317 730,317" fill="none" stroke="#009E73" stroke-width="2"/>
<polyline points="70,171 143,171 216,171 290,169 363,171 436,169 510,169 583,252 656,252 730,250" fill="none" stroke="#984EA3" stroke-width="2"/>
<polyline points="70,53 143,53 216,53 290,50 363,48 436,49 510,49 583,86 656,86 730,85" fill="none" stroke="#56B4E9" stroke-width="2"/>
<polyline points="70,45 143,46 216,45 290,41 363,41 436,43 510,41 583,79 656,78 730,78" fill="none" stroke="#E69F00" stroke-width="2"/>
<polyline points="70,339 143,339 216,339 290,338 363,339 436,339 510,339 583,339 656,339 730,339" fill="none" stroke="#C44E52" stroke-width="2"/>
<polyline points="70,294 143,294 216,294 290,293 363,293 436,293 510,293 583,305 656,305 730,305" fill="none" stroke="#8C564B" stroke-width="2"/>
<circle cx="70" cy="89" r="3" fill="#0072B2"/>
<circle cx="70" cy="50" r="3" fill="#CC79A7"/>
<circle cx="70" cy="340" r="3" fill="#D55E00"/>
<circle cx="70" cy="305" r="3" fill="#009E73"/>
<circle cx="70" cy="171" r="3" fill="#984EA3"/>
<circle cx="70" cy="53" r="3" fill="#56B4E9"/>
<circle cx="70" cy="45" r="3" fill="#E69F00"/>
<circle cx="70" cy="339" r="3" fill="#C44E52"/>
<circle cx="70" cy="294" r="3" fill="#8C564B"/>
<circle cx="143" cy="83" r="3" fill="#0072B2"/>
<circle cx="143" cy="49" r="3" fill="#CC79A7"/>
<circle cx="143" cy="340" r="3" fill="#D55E00"/>
<circle cx="143" cy="304" r="3" fill="#009E73"/>
<circle cx="143" cy="171" r="3" fill="#984EA3"/>
<circle cx="143" cy="53" r="3" fill="#56B4E9"/>
<circle cx="143" cy="46" r="3" fill="#E69F00"/>
<circle cx="143" cy="339" r="3" fill="#C44E52"/>
<circle cx="143" cy="294" r="3" fill="#8C564B"/>
<circle cx="216" cy="82" r="3" fill="#0072B2"/>
<circle cx="216" cy="46" r="3" fill="#CC79A7"/>
<circle cx="216" cy="340" r="3" fill="#D55E00"/>
<circle cx="216" cy="305" r="3" fill="#009E73"/>
<circle cx="216" cy="171" r="3" fill="#984EA3"/>
<circle cx="216" cy="53" r="3" fill="#56B4E9"/>
<circle cx="216" cy="45" r="3" fill="#E69F00"/>
<circle cx="216" cy="339" r="3" fill="#C44E52"/>
<circle cx="216" cy="294" r="3" fill="#8C564B"/>
<circle cx="290" cy="74" r="3" fill="#0072B2"/>
<circle cx="290" cy="42" r="3" fill="#CC79A7"/>
<circle cx="290" cy="340" r="3" fill="#D55E00"/>
<circle cx="290" cy="304" r="3" fill="#009E73"/>
<circle cx="290" cy="169" r="3" fill="#984EA3"/>
<circle cx="290" cy="50" r="3" fill="#56B4E9"/>
<circle cx="290" cy="41" r="3" fill="#E69F00"/>
<circle cx="290" cy="338" r="3" fill="#C44E52"/>
<circle cx="290" cy="293" r="3" fill="#8C564B"/>
<circle cx="363" cy="83" r="3" fill="#0072B2"/>
<circle cx="363" cy="44" r="3" fill="#CC79A7"/>
<circle cx="363" cy="340" r="3" fill="#D55E00"/>
<circle cx="363" cy="305" r="3" fill="#009E73"/>
<circle cx="363" cy="171" r="3" fill="#984EA3"/>
<circle cx="363" cy="48" r="3" fill="#56B4E9"/>
<circle cx="363" cy="41" r="3" fill="#E69F00"/>
<circle cx="363" cy="339" r="3" fill="#C44E52"/>
<circle cx="363" cy="293" r="3" fill="#8C564B"/>
<circle cx="436" cy="76" r="3" fill="#0072B2"/>
<circle cx="436" cy="41" r="3" fill="#CC79A7"/>
<circle cx="436" cy="340" r="3" fill="#D55E00"/>
<circle cx="436" cy="304" r="3" fill="#009E73"/>
<circle cx="436" cy="169" r="3" fill="#984EA3"/>
<circle cx="436" cy="49" r="3" fill="#56B4E9"/>
<circle cx="436" cy="43" r="3" fill="#E69F00"/>
<circle cx="436" cy="339" r="3" fill="#C44E52"/>
<circle cx="436" cy="293" r="3" fill="#8C564B"/>
<circle cx="510" cy="79" r="3" fill="#0072B2"/>
<circle cx="510" cy="41" r="3" fill="#CC79A7"/>
<circle cx="510" cy="340" r="3" fill="#D55E00"/>
<circle cx="510" cy="304" r="3" fill="#009E73"/>
<circle cx="510" cy="169" r="3" fill="#984EA3"/>
<circle cx="510" cy="49" r="3" fill="#56B4E9"/>
<circle cx="510" cy="41" r="3" fill="#E69F00"/>
<circle cx="510" cy="339" r="3" fill="#C44E52"/>
<circle cx="510" cy="293" r="3" fill="#8C564B"/>
<circle cx="583" cy="172" r="3" fill="#0072B2"/>
<circle cx="583" cy="142" r="3" fill="#CC79A7"/>
<circle cx="583" cy="340" r="3" fill="#D55E00"/>
<circle cx="583" cy="317" r="3" fill="#009E73"/>
<circle cx="583" cy="252" r="3" fill="#984EA3"/>
<circle cx="583" cy="86" r="3" fill="#56B4E9"/>
<circle cx="583" cy="79" r="3" fill="#E69F00"/>
<circle cx="583" cy="339" r="3" fill="#C44E52"/>
<circle cx="583" cy="305" r="3" fill="#8C564B"/>
<circle cx="656" cy="176" r="3" fill="#0072B2"/>
<circle cx="656" cy="144" r="3" fill="#CC79A7"/>
<circle cx="656" cy="340" r="3" fill="#D55E00"/>
<circle cx="656" cy="317" r="3" fill="#009E73"/>
<circle cx="656" cy="252" r="3" fill="#984EA3"/>
<circle cx="656" cy="86" r="3" fill="#56B4E9"/>
<circle cx="656" cy="78" r="3" fill="#E69F00"/>
<circle cx="656" cy="339" r="3" fill="#C44E52"/>
<circle cx="656" cy="305" r="3" fill="#8C564B"/>
<circle cx="730" cy="171" r="3" fill="#0072B2"/>
<circle cx="730" cy="141" r="3" fill="#CC79A7"/>
<circle cx="730" cy="340" r="3" fill="#D55E00"/>
<circle cx="730" cy="317" r="3" fill="#009E73"/>
<circle cx="730" cy="250" r="3" fill="#984EA3"/>
<circle cx="730" cy="85" r="3" fill="#56B4E9"/>
<circle cx="730" cy="78" r="3" fill="#E69F00"/>
<circle cx="730" cy="339" r="3" fill="#C44E52"/>
<circle cx="730" cy="305" r="3" fill="#8C564B"/>
<circle cx="70" cy="20" r="4" fill="#0072B2"/>
<text x="78" y="24" text-anchor="start" font-size="12" fill="#0072B2">inte</text>
<circle cx="130" cy="20" r="4" fill="#CC79A7"/>
<text x="138" y="24" text-anchor="start" font-size="12" fill="#CC79A7">comp</text>
<circle cx="195" cy="20" r="4" fill="#D55E00"/>
<text x="203" y="24" text-anchor="start" font-size="12" fill="#D55E00">run</text>
<circle cx="250" cy="20" r="4" fill="#009E73"/>
<text x="258" y="24" text-anchor="start" font-size="12" fill="#009E73">wall</text>
<circle cx="315" cy="20" r="4" fill="#984EA3"/>
<text x="323" y="24" text-anchor="start" font-size="12" fill="#984EA3">self</text>
<circle cx="380" cy="20" r="4" fill="#56B4E9"/>
<text x="388" y="24" text-anchor="start" font-size="12" fill="#56B4E9">mem-inte</text>
<circle cx="470" cy="20" r="4" fill="#E69F00"/>
<text x="478" y="24" text-anchor="start" font-size="12" fill="#E69F00">mem-comp</text>
<circle cx="565" cy="20" r="4" fill="#C44E52"/>
<text x="573" y="24" text-anchor="start" font-size="12" fill="#C44E52">mem-run</text>
<circle cx="650" cy="20" r="4" fill="#8C564B"/>
<text x="658" y="24" text-anchor="start" font-size="12" fill="#8C564B">self-mem</text>
</svg>
