<svg width="800" height="400" xmlns="http://www.w3.org/2000/svg">
<rect width="800" height="400" fill="white"/>
<line x1="70" y1="40" x2="70" y2="340" stroke="#333" stroke-width="1"/>
<line x1="70" y1="340" x2="730" y2="340" stroke="#333" stroke-width="1"/>
<line x1="730" y1="40" x2="730" y2="340" stroke="#333" stroke-width="1"/>
<text x="65" y="344" text-anchor="end" font-size="11" fill="#333">0</text>
<text x="65" y="194" text-anchor="end" font-size="11" fill="#333">112000</text>
<text x="65" y="44" text-anchor="end" font-size="11" fill="#333">224000</text>
<text x="15" y="190" text-anchor="middle" font-size="12" fill="#333" transform="rotate(-90 15 190)">ms</text>
<text x="735" y="344" text-anchor="start" font-size="11" fill="#333">0</text>
<text x="735" y="194" text-anchor="start" font-size="11" fill="#333">7491500000</text>
<text x="735" y="44" text-anchor="start" font-size="11" fill="#333">14983000000</text>
<text x="785" y="190" text-anchor="middle" font-size="12" fill="#333" transform="rotate(90 785 190)">bytes</text>
<polyline points="70,255 143,254 216,254 290,250 363,250 436,250 510,251 583,249 656,248 730,152" fill="none" stroke="#0072B2" stroke-width="2"/>
<polyline points="70,235 143,235 216,234 290,233 363,233 436,233 510,233 583,231 656,230 730,42" fill="none" stroke="#CC79A7" stroke-width="2"/>
<polyline points="70,340 143,340 216,340 290,340 363,340 436,340 510,340 583,340 656,340 730,339" fill="none" stroke="#D55E00" stroke-width="2"/>
<polyline points="70,274 143,274 216,274 290,268 363,268 436,268 510,268 583,269 656,266 730,124" fill="none" stroke="#009E73" stroke-width="2"/>
<polyline points="70,288 143,287 216,287 290,289 363,289 436,285 510,288 583,288 656,288 730,242" fill="none" stroke="#56B4E9" stroke-width="2"/>
<polyline points="70,239 143,239 216,238 290,238 363,238 436,238 510,238 583,238 656,238 730,215" fill="none" stroke="#E69F00" stroke-width="2"/>
<polyline points="70,340 143,340 216,340 290,340 363,340 436,340 510,340 583,340 656,340 730,336" fill="none" stroke="#C44E52" stroke-width="2"/>
<polyline points="70,136 143,135 216,134 290,137 363,137 436,133 510,135 583,135 656,136 730,41" fill="none" stroke="#000000" stroke-width="2"/>
<circle cx="70" cy="255" r="3" fill="#0072B2"/>
<circle cx="70" cy="235" r="3" fill="#CC79A7"/>
<circle cx="70" cy="340" r="3" fill="#D55E00"/>
<circle cx="70" cy="274" r="3" fill="#009E73"/>
<circle cx="70" cy="288" r="3" fill="#56B4E9"/>
<circle cx="70" cy="239" r="3" fill="#E69F00"/>
<circle cx="70" cy="340" r="3" fill="#C44E52"/>
<circle cx="70" cy="136" r="3" fill="#000000"/>
<circle cx="143" cy="254" r="3" fill="#0072B2"/>
<circle cx="143" cy="235" r="3" fill="#CC79A7"/>
<circle cx="143" cy="340" r="3" fill="#D55E00"/>
<circle cx="143" cy="274" r="3" fill="#009E73"/>
<circle cx="143" cy="287" r="3" fill="#56B4E9"/>
<circle cx="143" cy="239" r="3" fill="#E69F00"/>
<circle cx="143" cy="340" r="3" fill="#C44E52"/>
<circle cx="143" cy="135" r="3" fill="#000000"/>
<circle cx="216" cy="254" r="3" fill="#0072B2"/>
<circle cx="216" cy="234" r="3" fill="#CC79A7"/>
<circle cx="216" cy="340" r="3" fill="#D55E00"/>
<circle cx="216" cy="274" r="3" fill="#009E73"/>
<circle cx="216" cy="287" r="3" fill="#56B4E9"/>
<circle cx="216" cy="238" r="3" fill="#E69F00"/>
<circle cx="216" cy="340" r="3" fill="#C44E52"/>
<circle cx="216" cy="134" r="3" fill="#000000"/>
<circle cx="290" cy="250" r="3" fill="#0072B2"/>
<circle cx="290" cy="233" r="3" fill="#CC79A7"/>
<circle cx="290" cy="340" r="3" fill="#D55E00"/>
<circle cx="290" cy="268" r="3" fill="#009E73"/>
<circle cx="290" cy="289" r="3" fill="#56B4E9"/>
<circle cx="290" cy="238" r="3" fill="#E69F00"/>
<circle cx="290" cy="340" r="3" fill="#C44E52"/>
<circle cx="290" cy="137" r="3" fill="#000000"/>
<circle cx="363" cy="250" r="3" fill="#0072B2"/>
<circle cx="363" cy="233" r="3" fill="#CC79A7"/>
<circle cx="363" cy="340" r="3" fill="#D55E00"/>
<circle cx="363" cy="268" r="3" fill="#009E73"/>
<circle cx="363" cy="289" r="3" fill="#56B4E9"/>
<circle cx="363" cy="238" r="3" fill="#E69F00"/>
<circle cx="363" cy="340" r="3" fill="#C44E52"/>
<circle cx="363" cy="137" r="3" fill="#000000"/>
<circle cx="436" cy="250" r="3" fill="#0072B2"/>
<circle cx="436" cy="233" r="3" fill="#CC79A7"/>
<circle cx="436" cy="340" r="3" fill="#D55E00"/>
<circle cx="436" cy="268" r="3" fill="#009E73"/>
<circle cx="436" cy="285" r="3" fill="#56B4E9"/>
<circle cx="436" cy="238" r="3" fill="#E69F00"/>
<circle cx="436" cy="340" r="3" fill="#C44E52"/>
<circle cx="436" cy="133" r="3" fill="#000000"/>
<circle cx="510" cy="251" r="3" fill="#0072B2"/>
<circle cx="510" cy="233" r="3" fill="#CC79A7"/>
<circle cx="510" cy="340" r="3" fill="#D55E00"/>
<circle cx="510" cy="268" r="3" fill="#009E73"/>
<circle cx="510" cy="288" r="3" fill="#56B4E9"/>
<circle cx="510" cy="238" r="3" fill="#E69F00"/>
<circle cx="510" cy="340" r="3" fill="#C44E52"/>
<circle cx="510" cy="135" r="3" fill="#000000"/>
<circle cx="583" cy="249" r="3" fill="#0072B2"/>
<circle cx="583" cy="231" r="3" fill="#CC79A7"/>
<circle cx="583" cy="340" r="3" fill="#D55E00"/>
<circle cx="583" cy="269" r="3" fill="#009E73"/>
<circle cx="583" cy="288" r="3" fill="#56B4E9"/>
<circle cx="583" cy="238" r="3" fill="#E69F00"/>
<circle cx="583" cy="340" r="3" fill="#C44E52"/>
<circle cx="583" cy="135" r="3" fill="#000000"/>
<circle cx="656" cy="248" r="3" fill="#0072B2"/>
<circle cx="656" cy="230" r="3" fill="#CC79A7"/>
<circle cx="656" cy="340" r="3" fill="#D55E00"/>
<circle cx="656" cy="266" r="3" fill="#009E73"/>
<circle cx="656" cy="288" r="3" fill="#56B4E9"/>
<circle cx="656" cy="238" r="3" fill="#E69F00"/>
<circle cx="656" cy="340" r="3" fill="#C44E52"/>
<circle cx="656" cy="136" r="3" fill="#000000"/>
<circle cx="730" cy="152" r="3" fill="#0072B2"/>
<circle cx="730" cy="42" r="3" fill="#CC79A7"/>
<circle cx="730" cy="339" r="3" fill="#D55E00"/>
<circle cx="730" cy="124" r="3" fill="#009E73"/>
<circle cx="730" cy="242" r="3" fill="#56B4E9"/>
<circle cx="730" cy="215" r="3" fill="#E69F00"/>
<circle cx="730" cy="336" r="3" fill="#C44E52"/>
<circle cx="730" cy="41" r="3" fill="#000000"/>
<circle cx="90" cy="20" r="4" fill="#0072B2"/>
<text x="98" y="24" text-anchor="start" font-size="12" fill="#0072B2">inte</text>
<circle cx="150" cy="20" r="4" fill="#CC79A7"/>
<text x="158" y="24" text-anchor="start" font-size="12" fill="#CC79A7">comp</text>
<circle cx="215" cy="20" r="4" fill="#D55E00"/>
<text x="223" y="24" text-anchor="start" font-size="12" fill="#D55E00">run</text>
<circle cx="270" cy="20" r="4" fill="#009E73"/>
<text x="278" y="24" text-anchor="start" font-size="12" fill="#009E73">wall</text>
<circle cx="335" cy="20" r="4" fill="#56B4E9"/>
<text x="343" y="24" text-anchor="start" font-size="12" fill="#56B4E9">mem-inte</text>
<circle cx="425" cy="20" r="4" fill="#E69F00"/>
<text x="433" y="24" text-anchor="start" font-size="12" fill="#E69F00">mem-comp</text>
<circle cx="520" cy="20" r="4" fill="#C44E52"/>
<text x="528" y="24" text-anchor="start" font-size="12" fill="#C44E52">mem-run</text>
<circle cx="605" cy="20" r="4" fill="#000000"/>
<text x="613" y="24" text-anchor="start" font-size="12" fill="#000000">mem-total</text>
</svg>
