<svg width="800" height="400" xmlns="http://www.w3.org/2000/svg">
<rect width="800" height="400" fill="white"/>
<line x1="70" y1="40" x2="70" y2="340" stroke="#333" stroke-width="1"/>
<line x1="70" y1="340" x2="780" y2="340" stroke="#333" stroke-width="1"/>
<text x="65" y="344" text-anchor="end" font-size="11" fill="#333">0</text>
<text x="65" y="194" text-anchor="end" font-size="11" fill="#333">47500</text>
<text x="65" y="44" text-anchor="end" font-size="11" fill="#333">95000</text>
<text x="15" y="190" text-anchor="middle" font-size="12" fill="#333" transform="rotate(-90 15 190)">ms</text>
<polyline points="70,45 148,43 227,41 306,41 385,45 464,43 543,41 622,42 701,45 780,43" fill="none" stroke="#0072B2" stroke-width="2"/>
<polyline points="70,82 148,83 227,78 306,80 385,84 464,82 543,82 622,81 701,83 780,82" fill="none" stroke="#CC79A7" stroke-width="2"/>
<polyline points="70,335 148,335 227,335 306,335 385,335 464,335 543,335 622,335 701,335 780,335" fill="none" stroke="#D55E00" stroke-width="2"/>
<polyline points="70,197 148,197 227,194 306,195 385,198 464,197 543,195 622,197 701,196 780,196" fill="none" stroke="#009E73" stroke-width="2"/>
<circle cx="70" cy="45" r="3" fill="#0072B2"/>
<circle cx="70" cy="82" r="3" fill="#CC79A7"/>
<circle cx="70" cy="335" r="3" fill="#D55E00"/>
<circle cx="70" cy="197" r="3" fill="#009E73"/>
<circle cx="148" cy="43" r="3" fill="#0072B2"/>
<circle cx="148" cy="83" r="3" fill="#CC79A7"/>
<circle cx="148" cy="335" r="3" fill="#D55E00"/>
<circle cx="148" cy="197" r="3" fill="#009E73"/>
<circle cx="227" cy="41" r="3" fill="#0072B2"/>
<circle cx="227" cy="78" r="3" fill="#CC79A7"/>
<circle cx="227" cy="335" r="3" fill="#D55E00"/>
<circle cx="227" cy="194" r="3" fill="#009E73"/>
<circle cx="306" cy="41" r="3" fill="#0072B2"/>
<circle cx="306" cy="80" r="3" fill="#CC79A7"/>
<circle cx="306" cy="335" r="3" fill="#D55E00"/>
<circle cx="306" cy="195" r="3" fill="#009E73"/>
<circle cx="385" cy="45" r="3" fill="#0072B2"/>
<circle cx="385" cy="84" r="3" fill="#CC79A7"/>
<circle cx="385" cy="335" r="3" fill="#D55E00"/>
<circle cx="385" cy="198" r="3" fill="#009E73"/>
<circle cx="464" cy="43" r="3" fill="#0072B2"/>
<circle cx="464" cy="82" r="3" fill="#CC79A7"/>
<circle cx="464" cy="335" r="3" fill="#D55E00"/>
<circle cx="464" cy="197" r="3" fill="#009E73"/>
<circle cx="543" cy="41" r="3" fill="#0072B2"/>
<circle cx="543" cy="82" r="3" fill="#CC79A7"/>
<circle cx="543" cy="335" r="3" fill="#D55E00"/>
<circle cx="543" cy="195" r="3" fill="#009E73"/>
<circle cx="622" cy="42" r="3" fill="#0072B2"/>
<circle cx="622" cy="81" r="3" fill="#CC79A7"/>
<circle cx="622" cy="335" r="3" fill="#D55E00"/>
<circle cx="622" cy="197" r="3" fill="#009E73"/>
<circle cx="701" cy="45" r="3" fill="#0072B2"/>
<circle cx="701" cy="83" r="3" fill="#CC79A7"/>
<circle cx="701" cy="335" r="3" fill="#D55E00"/>
<circle cx="701" cy="196" r="3" fill="#009E73"/>
<circle cx="780" cy="43" r="3" fill="#0072B2"/>
<circle cx="780" cy="82" r="3" fill="#CC79A7"/>
<circle cx="780" cy="335" r="3" fill="#D55E00"/>
<circle cx="780" cy="196" r="3" fill="#009E73"/>
<circle cx="90" cy="20" r="4" fill="#0072B2"/>
<text x="98" y="24" text-anchor="start" font-size="12" fill="#0072B2">interpreted</text>
<circle cx="190" cy="20" r="4" fill="#CC79A7"/>
<text x="198" y="24" text-anchor="start" font-size="12" fill="#CC79A7">compiled</text>
<circle cx="275" cy="20" r="4" fill="#D55E00"/>
<text x="283" y="24" text-anchor="start" font-size="12" fill="#D55E00">executed</text>
<circle cx="355" cy="20" r="4" fill="#009E73"/>
<text x="363" y="24" text-anchor="start" font-size="12" fill="#009E73">wall</text>
</svg>
