<svg width="800" height="400" xmlns="http://www.w3.org/2000/svg">
<rect width="800" height="400" fill="white"/>
<line x1="70" y1="40" x2="70" y2="340" stroke="#333" stroke-width="1"/>
<line x1="70" y1="340" x2="730" y2="340" stroke="#333" stroke-width="1"/>
<line x1="730" y1="40" x2="730" y2="340" stroke="#333" stroke-width="1"/>
<text x="65" y="344" text-anchor="end" font-size="11" fill="#333">0</text>
<text x="65" y="194" text-anchor="end" font-size="11" fill="#333">497500</text>
<text x="65" y="44" text-anchor="end" font-size="11" fill="#333">995000</text>
<text x="15" y="190" text-anchor="middle" font-size="12" fill="#333" transform="rotate(-90 15 190)">ms</text>
<text x="735" y="344" text-anchor="start" font-size="11" fill="#333">0</text>
<text x="735" y="194" text-anchor="start" font-size="11" fill="#333">63661000000</text>
<text x="735" y="44" text-anchor="start" font-size="11" fill="#333">127322000000</text>
<text x="785" y="190" text-anchor="middle" font-size="12" fill="#333" transform="rotate(90 785 190)">bytes</text>
<polyline points="70,110 143,105 216,96 290,104 363,100 436,100 510,79 583,82 656,86 730,79" fill="none" stroke="#0072B2" stroke-width="2"/>
<polyline points="70,72 143,75 216,65 290,70 363,66 436,66 510,43 583,42 656,48 730,41" fill="none" stroke="#CC79A7" stroke-width="2"/>
<polyline points="70,340 143,340 216,340 290,340 363,340 436,340 510,340 583,340 656,340 730,340" fill="none" stroke="#D55E00" stroke-width="2"/>
<polyline points="70,308 143,306 216,306 290,306 363,307 436,307 510,304 583,304 656,304 730,304" fill="none" stroke="#009E73" stroke-width="2"/>
<polyline points="70,173 143,172 216,169 290,173 363,171 436,170 510,158 583,158 656,161 730,160" fill="none" stroke="#984EA3" stroke-width="2"/>
<polyline points="70,48 143,48 216,49 290,51 363,50 436,50 510,50 583,51 656,51 730,49" fill="none" stroke="#56B4E9" stroke-width="2"/>
<polyline points="70,41 143,42 216,43 290,41 363,42 436,42 510,41 583,41 656,43 730,42" fill="none" stroke="#E69F00" stroke-width="2"/>
<polyline points="70,340 143,340 216,339 290,339 363,339 436,339 510,339 583,339 656,339 730,339" fill="none" stroke="#C44E52" stroke-width="2"/>
<polyline points="70,294 143,294 216,294 290,294 363,294 436,294 510,294 583,294 656,294 730,294" fill="none" stroke="#8C564B" stroke-width="2"/>
<circle cx="70" cy="110" r="3" fill="#0072B2"/>
<circle cx="70" cy="72" r="3" fill="#CC79A7"/>
<circle cx="70" cy="340" r="3" fill="#D55E00"/>
<circle cx="70" cy="308" r="3" fill="#009E73"/>
<circle cx="70" cy="173" r="3" fill="#984EA3"/>
<circle cx="70" cy="48" r="3" fill="#56B4E9"/>
<circle cx="70" cy="41" r="3" fill="#E69F00"/>
<circle cx="70" cy="340" r="3" fill="#C44E52"/>
<circle cx="70" cy="294" r="3" fill="#8C564B"/>
<circle cx="143" cy="105" r="3" fill="#0072B2"/>
<circle cx="143" cy="75" r="3" fill="#CC79A7"/>
<circle cx="143" cy="340" r="3" fill="#D55E00"/>
<circle cx="143" cy="306" r="3" fill="#009E73"/>
<circle cx="143" cy="172" r="3" fill="#984EA3"/>
<circle cx="143" cy="48" r="3" fill="#56B4E9"/>
<circle cx="143" cy="42" r="3" fill="#E69F00"/>
<circle cx="143" cy="340" r="3" fill="#C44E52"/>
<circle cx="143" cy="294" r="3" fill="#8C564B"/>
<circle cx="216" cy="96" r="3" fill="#0072B2"/>
<circle cx="216" cy="65" r="3" fill="#CC79A7"/>
<circle cx="216" cy="340" r="3" fill="#D55E00"/>
<circle cx="216" cy="306" r="3" fill="#009E73"/>
<circle cx="216" cy="169" r="3" fill="#984EA3"/>
<circle cx="216" cy="49" r="3" fill="#56B4E9"/>
<circle cx="216" cy="43" r="3" fill="#E69F00"/>
<circle cx="216" cy="339" r="3" fill="#C44E52"/>
<circle cx="216" cy="294" r="3" fill="#8C564B"/>
<circle cx="290" cy="104" r="3" fill="#0072B2"/>
<circle cx="290" cy="70" r="3" fill="#CC79A7"/>
<circle cx="290" cy="340" r="3" fill="#D55E00"/>
<circle cx="290" cy="306" r="3" fill="#009E73"/>
<circle cx="290" cy="173" r="3" fill="#984EA3"/>
<circle cx="290" cy="51" r="3" fill="#56B4E9"/>
<circle cx="290" cy="41" r="3" fill="#E69F00"/>
<circle cx="290" cy="339" r="3" fill="#C44E52"/>
<circle cx="290" cy="294" r="3" fill="#8C564B"/>
<circle cx="363" cy="100" r="3" fill="#0072B2"/>
<circle cx="363" cy="66" r="3" fill="#CC79A7"/>
<circle cx="363" cy="340" r="3" fill="#D55E00"/>
<circle cx="363" cy="307" r="3" fill="#009E73"/>
<circle cx="363" cy="171" r="3" fill="#984EA3"/>
<circle cx="363" cy="50" r="3" fill="#56B4E9"/>
<circle cx="363" cy="42" r="3" fill="#E69F00"/>
<circle cx="363" cy="339" r="3" fill="#C44E52"/>
<circle cx="363" cy="294" r="3" fill="#8C564B"/>
<circle cx="436" cy="100" r="3" fill="#0072B2"/>
<circle cx="436" cy="66" r="3" fill="#CC79A7"/>
<circle cx="436" cy="340" r="3" fill="#D55E00"/>
<circle cx="436" cy="307" r="3" fill="#009E73"/>
<circle cx="436" cy="170" r="3" fill="#984EA3"/>
<circle cx="436" cy="50" r="3" fill="#56B4E9"/>
<circle cx="436" cy="42" r="3" fill="#E69F00"/>
<circle cx="436" cy="339" r="3" fill="#C44E52"/>
<circle cx="436" cy="294" r="3" fill="#8C564B"/>
<circle cx="510" cy="79" r="3" fill="#0072B2"/>
<circle cx="510" cy="43" r="3" fill="#CC79A7"/>
<circle cx="510" cy="340" r="3" fill="#D55E00"/>
<circle cx="510" cy="304" r="3" fill="#009E73"/>
<circle cx="510" cy="158" r="3" fill="#984EA3"/>
<circle cx="510" cy="50" r="3" fill="#56B4E9"/>
<circle cx="510" cy="41" r="3" fill="#E69F00"/>
<circle cx="510" cy="339" r="3" fill="#C44E52"/>
<circle cx="510" cy="294" r="3" fill="#8C564B"/>
<circle cx="583" cy="82" r="3" fill="#0072B2"/>
<circle cx="583" cy="42" r="3" fill="#CC79A7"/>
<circle cx="583" cy="340" r="3" fill="#D55E00"/>
<circle cx="583" cy="304" r="3" fill="#009E73"/>
<circle cx="583" cy="158" r="3" fill="#984EA3"/>
<circle cx="583" cy="51" r="3" fill="#56B4E9"/>
<circle cx="583" cy="41" r="3" fill="#E69F00"/>
<circle cx="583" cy="339" r="3" fill="#C44E52"/>
<circle cx="583" cy="294" r="3" fill="#8C564B"/>
<circle cx="656" cy="86" r="3" fill="#0072B2"/>
<circle cx="656" cy="48" r="3" fill="#CC79A7"/>
<circle cx="656" cy="340" r="3" fill="#D55E00"/>
<circle cx="656" cy="304" r="3" fill="#009E73"/>
<circle cx="656" cy="161" r="3" fill="#984EA3"/>
<circle cx="656" cy="51" r="3" fill="#56B4E9"/>
<circle cx="656" cy="43" r="3" fill="#E69F00"/>
<circle cx="656" cy="339" r="3" fill="#C44E52"/>
<circle cx="656" cy="294" r="3" fill="#8C564B"/>
<circle cx="730" cy="79" r="3" fill="#0072B2"/>
<circle cx="730" cy="41" r="3" fill="#CC79A7"/>
<circle cx="730" cy="340" r="3" fill="#D55E00"/>
<circle cx="730" cy="304" r="3" fill="#009E73"/>
<circle cx="730" cy="160" r="3" fill="#984EA3"/>
<circle cx="730" cy="49" r="3" fill="#56B4E9"/>
<circle cx="730" cy="42" r="3" fill="#E69F00"/>
<circle cx="730" cy="339" r="3" fill="#C44E52"/>
<circle cx="730" cy="294" r="3" fill="#8C564B"/>
<circle cx="70" cy="20" r="4" fill="#0072B2"/>
<text x="78" y="24" text-anchor="start" font-size="12" fill="#0072B2">inte</text>
<circle cx="130" cy="20" r="4" fill="#CC79A7"/>
<text x="138" y="24" text-anchor="start" font-size="12" fill="#CC79A7">comp</text>
<circle cx="195" cy="20" r="4" fill="#D55E00"/>
<text x="203" y="24" text-anchor="start" font-size="12" fill="#D55E00">run</text>
<circle cx="250" cy="20" r="4" fill="#009E73"/>
<text x="258" y="24" text-anchor="start" font-size="12" fill="#009E73">wall</text>
<circle cx="315" cy="20" r="4" fill="#984EA3"/>
<text x="323" y="24" text-anchor="start" font-size="12" fill="#984EA3">self</text>
<circle cx="380" cy="20" r="4" fill="#56B4E9"/>
<text x="388" y="24" text-anchor="start" font-size="12" fill="#56B4E9">mem-inte</text>
<circle cx="470" cy="20" r="4" fill="#E69F00"/>
<text x="478" y="24" text-anchor="start" font-size="12" fill="#E69F00">mem-comp</text>
<circle cx="565" cy="20" r="4" fill="#C44E52"/>
<text x="573" y="24" text-anchor="start" font-size="12" fill="#C44E52">mem-run</text>
<circle cx="650" cy="20" r="4" fill="#8C564B"/>
<text x="658" y="24" text-anchor="start" font-size="12" fill="#8C564B">self-mem</text>
</svg>
