<svg width="800" height="400" xmlns="http://www.w3.org/2000/svg">
<rect width="800" height="400" fill="white"/>
<line x1="70" y1="40" x2="70" y2="340" stroke="#333" stroke-width="1"/>
<line x1="70" y1="340" x2="730" y2="340" stroke="#333" stroke-width="1"/>
<line x1="730" y1="40" x2="730" y2="340" stroke="#333" stroke-width="1"/>
<text x="65" y="344" text-anchor="end" font-size="11" fill="#333">0</text>
<text x="65" y="194" text-anchor="end" font-size="11" fill="#333">601000</text>
<text x="65" y="44" text-anchor="end" font-size="11" fill="#333">1202000</text>
<text x="15" y="190" text-anchor="middle" font-size="12" fill="#333" transform="rotate(-90 15 190)">ms</text>
<text x="735" y="344" text-anchor="start" font-size="11" fill="#333">0</text>
<text x="735" y="194" text-anchor="start" font-size="11" fill="#333">68342500000</text>
<text x="735" y="44" text-anchor="start" font-size="11" fill="#333">136685000000</text>
<text x="785" y="190" text-anchor="middle" font-size="12" fill="#333" transform="rotate(90 785 190)">bytes</text>
<polyline points="70,72 143,71 216,72 290,70 363,68 436,64 510,72 583,67 656,41 730,48" fill="none" stroke="#0072B2" stroke-width="2"/>
<polyline points="70,75 143,71 216,71 290,68 363,66 436,68 510,68 583,64 656,50 730,43" fill="none" stroke="#CC79A7" stroke-width="2"/>
<polyline points="70,340 143,340 216,340 290,340 363,340 436,340 510,340 583,340 656,340 730,340" fill="none" stroke="#D55E00" stroke-width="2"/>
<polyline points="70,305 143,305 216,305 290,305 363,304 436,304 510,304 583,305 656,302 730,302" fill="none" stroke="#009E73" stroke-width="2"/>
<polyline points="70,120 143,121 216,120 290,117 363,118 436,119 510,116 583,117 656,111 730,112" fill="none" stroke="#984EA3" stroke-width="2"/>
<polyline points="70,54 143,56 216,55 290,56 363,57 436,56 510,56 583,55 656,47 730,41" fill="none" stroke="#56B4E9" stroke-width="2"/>
<polyline points="70,56 143,55 216,57 290,55 363,56 436,55 510,56 583,56 656,46 730,42" fill="none" stroke="#E69F00" stroke-width="2"/>
<polyline points="70,340 143,340 216,340 290,340 363,339 436,339 510,340 583,339 656,340 730,340" fill="none" stroke="#C44E52" stroke-width="2"/>
<polyline points="70,298 143,298 216,299 290,298 363,298 436,298 510,298 583,298 656,298 730,298" fill="none" stroke="#8C564B" stroke-width="2"/>
<circle cx="70" cy="72" r="3" fill="#0072B2"/>
<circle cx="70" cy="75" r="3" fill="#CC79A7"/>
<circle cx="70" cy="340" r="3" fill="#D55E00"/>
<circle cx="70" cy="305" r="3" fill="#009E73"/>
<circle cx="70" cy="120" r="3" fill="#984EA3"/>
<circle cx="70" cy="54" r="3" fill="#56B4E9"/>
<circle cx="70" cy="56" r="3" fill="#E69F00"/>
<circle cx="70" cy="340" r="3" fill="#C44E52"/>
<circle cx="70" cy="298" r="3" fill="#8C564B"/>
<circle cx="143" cy="71" r="3" fill="#0072B2"/>
<circle cx="143" cy="71" r="3" fill="#CC79A7"/>
<circle cx="143" cy="340" r="3" fill="#D55E00"/>
<circle cx="143" cy="305" r="3" fill="#009E73"/>
<circle cx="143" cy="121" r="3" fill="#984EA3"/>
<circle cx="143" cy="56" r="3" fill="#56B4E9"/>
<circle cx="143" cy="55" r="3" fill="#E69F00"/>
<circle cx="143" cy="340" r="3" fill="#C44E52"/>
<circle cx="143" cy="298" r="3" fill="#8C564B"/>
<circle cx="216" cy="72" r="3" fill="#0072B2"/>
<circle cx="216" cy="71" r="3" fill="#CC79A7"/>
<circle cx="216" cy="340" r="3" fill="#D55E00"/>
<circle cx="216" cy="305" r="3" fill="#009E73"/>
<circle cx="216" cy="120" r="3" fill="#984EA3"/>
<circle cx="216" cy="55" r="3" fill="#56B4E9"/>
<circle cx="216" cy="57" r="3" fill="#E69F00"/>
<circle cx="216" cy="340" r="3" fill="#C44E52"/>
<circle cx="216" cy="299" r="3" fill="#8C564B"/>
<circle cx="290" cy="70" r="3" fill="#0072B2"/>
<circle cx="290" cy="68" r="3" fill="#CC79A7"/>
<circle cx="290" cy="340" r="3" fill="#D55E00"/>
<circle cx="290" cy="305" r="3" fill="#009E73"/>
<circle cx="290" cy="117" r="3" fill="#984EA3"/>
<circle cx="290" cy="56" r="3" fill="#56B4E9"/>
<circle cx="290" cy="55" r="3" fill="#E69F00"/>
<circle cx="290" cy="340" r="3" fill="#C44E52"/>
<circle cx="290" cy="298" r="3" fill="#8C564B"/>
<circle cx="363" cy="68" r="3" fill="#0072B2"/>
<circle cx="363" cy="66" r="3" fill="#CC79A7"/>
<circle cx="363" cy="340" r="3" fill="#D55E00"/>
<circle cx="363" cy="304" r="3" fill="#009E73"/>
<circle cx="363" cy="118" r="3" fill="#984EA3"/>
<circle cx="363" cy="57" r="3" fill="#56B4E9"/>
<circle cx="363" cy="56" r="3" fill="#E69F00"/>
<circle cx="363" cy="339" r="3" fill="#C44E52"/>
<circle cx="363" cy="298" r="3" fill="#8C564B"/>
<circle cx="436" cy="64" r="3" fill="#0072B2"/>
<circle cx="436" cy="68" r="3" fill="#CC79A7"/>
<circle cx="436" cy="340" r="3" fill="#D55E00"/>
<circle cx="436" cy="304" r="3" fill="#009E73"/>
<circle cx="436" cy="119" r="3" fill="#984EA3"/>
<circle cx="436" cy="56" r="3" fill="#56B4E9"/>
<circle cx="436" cy="55" r="3" fill="#E69F00"/>
<circle cx="436" cy="339" r="3" fill="#C44E52"/>
<circle cx="436" cy="298" r="3" fill="#8C564B"/>
<circle cx="510" cy="72" r="3" fill="#0072B2"/>
<circle cx="510" cy="68" r="3" fill="#CC79A7"/>
<circle cx="510" cy="340" r="3" fill="#D55E00"/>
<circle cx="510" cy="304" r="3" fill="#009E73"/>
<circle cx="510" cy="116" r="3" fill="#984EA3"/>
<circle cx="510" cy="56" r="3" fill="#56B4E9"/>
<circle cx="510" cy="56" r="3" fill="#E69F00"/>
<circle cx="510" cy="340" r="3" fill="#C44E52"/>
<circle cx="510" cy="298" r="3" fill="#8C564B"/>
<circle cx="583" cy="67" r="3" fill="#0072B2"/>
<circle cx="583" cy="64" r="3" fill="#CC79A7"/>
<circle cx="583" cy="340" r="3" fill="#D55E00"/>
<circle cx="583" cy="305" r="3" fill="#009E73"/>
<circle cx="583" cy="117" r="3" fill="#984EA3"/>
<circle cx="583" cy="55" r="3" fill="#56B4E9"/>
<circle cx="583" cy="56" r="3" fill="#E69F00"/>
<circle cx="583" cy="339" r="3" fill="#C44E52"/>
<circle cx="583" cy="298" r="3" fill="#8C564B"/>
<circle cx="656" cy="41" r="3" fill="#0072B2"/>
<circle cx="656" cy="50" r="3" fill="#CC79A7"/>
<circle cx="656" cy="340" r="3" fill="#D55E00"/>
<circle cx="656" cy="302" r="3" fill="#009E73"/>
<circle cx="656" cy="111" r="3" fill="#984EA3"/>
<circle cx="656" cy="47" r="3" fill="#56B4E9"/>
<circle cx="656" cy="46" r="3" fill="#E69F00"/>
<circle cx="656" cy="340" r="3" fill="#C44E52"/>
<circle cx="656" cy="298" r="3" fill="#8C564B"/>
<circle cx="730" cy="48" r="3" fill="#0072B2"/>
<circle cx="730" cy="43" r="3" fill="#CC79A7"/>
<circle cx="730" cy="340" r="3" fill="#D55E00"/>
<circle cx="730" cy="302" r="3" fill="#009E73"/>
<circle cx="730" cy="112" r="3" fill="#984EA3"/>
<circle cx="730" cy="41" r="3" fill="#56B4E9"/>
<circle cx="730" cy="42" r="3" fill="#E69F00"/>
<circle cx="730" cy="340" r="3" fill="#C44E52"/>
<circle cx="730" cy="298" r="3" fill="#8C564B"/>
<circle cx="70" cy="20" r="4" fill="#0072B2"/>
<text x="78" y="24" text-anchor="start" font-size="12" fill="#0072B2">inte</text>
<circle cx="130" cy="20" r="4" fill="#CC79A7"/>
<text x="138" y="24" text-anchor="start" font-size="12" fill="#CC79A7">comp</text>
<circle cx="195" cy="20" r="4" fill="#D55E00"/>
<text x="203" y="24" text-anchor="start" font-size="12" fill="#D55E00">run</text>
<circle cx="250" cy="20" r="4" fill="#009E73"/>
<text x="258" y="24" text-anchor="start" font-size="12" fill="#009E73">wall</text>
<circle cx="315" cy="20" r="4" fill="#984EA3"/>
<text x="323" y="24" text-anchor="start" font-size="12" fill="#984EA3">self</text>
<circle cx="380" cy="20" r="4" fill="#56B4E9"/>
<text x="388" y="24" text-anchor="start" font-size="12" fill="#56B4E9">mem-inte</text>
<circle cx="470" cy="20" r="4" fill="#E69F00"/>
<text x="478" y="24" text-anchor="start" font-size="12" fill="#E69F00">mem-comp</text>
<circle cx="565" cy="20" r="4" fill="#C44E52"/>
<text x="573" y="24" text-anchor="start" font-size="12" fill="#C44E52">mem-run</text>
<circle cx="650" cy="20" r="4" fill="#8C564B"/>
<text x="658" y="24" text-anchor="start" font-size="12" fill="#8C564B">self-mem</text>
</svg>
