<svg width="800" height="400" xmlns="http://www.w3.org/2000/svg">
<rect width="800" height="400" fill="white"/>
<line x1="70" y1="40" x2="70" y2="340" stroke="#333" stroke-width="1"/>
<line x1="70" y1="340" x2="780" y2="340" stroke="#333" stroke-width="1"/>
<text x="65" y="344" text-anchor="end" font-size="11" fill="#333">0</text>
<text x="65" y="194" text-anchor="end" font-size="11" fill="#333">195500</text>
<text x="65" y="44" text-anchor="end" font-size="11" fill="#333">391000</text>
<text x="15" y="190" text-anchor="middle" font-size="12" fill="#333" transform="rotate(-90 15 190)">ms</text>
<polyline points="70,339 107,339 144,339 182,339 219,230 256,229 294,231 331,230 368,230 406,229 443,231 481,230 518,227 555,230 593,226 630,229 667,297 705,297 742,300 780,300" fill="none" stroke="#2196F3" stroke-width="2"/>
<polyline points="70,335 107,335 144,335 182,335 219,300 256,300 294,301 331,300 368,300 406,300 443,301 481,300 518,299 555,300 593,299 630,300 667,323 705,323 742,326 780,326" fill="none" stroke="#F44336" stroke-width="2"/>
<polyline points="70,335 107,335 144,335 182,335 219,48 256,48 294,54 331,50 368,51 406,50 443,52 481,50 518,41 555,51 593,42 630,45 667,227 705,226 742,226 780,228" fill="none" stroke="#4CAF50" stroke-width="2"/>
<circle cx="70" cy="339" r="3" fill="#2196F3"/>
<circle cx="70" cy="335" r="3" fill="#F44336"/>
<circle cx="70" cy="335" r="3" fill="#4CAF50"/>
<circle cx="107" cy="339" r="3" fill="#2196F3"/>
<circle cx="107" cy="335" r="3" fill="#F44336"/>
<circle cx="107" cy="335" r="3" fill="#4CAF50"/>
<circle cx="144" cy="339" r="3" fill="#2196F3"/>
<circle cx="144" cy="335" r="3" fill="#F44336"/>
<circle cx="144" cy="335" r="3" fill="#4CAF50"/>
<circle cx="182" cy="339" r="3" fill="#2196F3"/>
<circle cx="182" cy="335" r="3" fill="#F44336"/>
<circle cx="182" cy="335" r="3" fill="#4CAF50"/>
<circle cx="219" cy="230" r="3" fill="#2196F3"/>
<circle cx="219" cy="300" r="3" fill="#F44336"/>
<circle cx="219" cy="48" r="3" fill="#4CAF50"/>
<circle cx="256" cy="229" r="3" fill="#2196F3"/>
<circle cx="256" cy="300" r="3" fill="#F44336"/>
<circle cx="256" cy="48" r="3" fill="#4CAF50"/>
<circle cx="294" cy="231" r="3" fill="#2196F3"/>
<circle cx="294" cy="301" r="3" fill="#F44336"/>
<circle cx="294" cy="54" r="3" fill="#4CAF50"/>
<circle cx="331" cy="230" r="3" fill="#2196F3"/>
<circle cx="331" cy="300" r="3" fill="#F44336"/>
<circle cx="331" cy="50" r="3" fill="#4CAF50"/>
<circle cx="368" cy="230" r="3" fill="#2196F3"/>
<circle cx="368" cy="300" r="3" fill="#F44336"/>
<circle cx="368" cy="51" r="3" fill="#4CAF50"/>
<circle cx="406" cy="229" r="3" fill="#2196F3"/>
<circle cx="406" cy="300" r="3" fill="#F44336"/>
<circle cx="406" cy="50" r="3" fill="#4CAF50"/>
<circle cx="443" cy="231" r="3" fill="#2196F3"/>
<circle cx="443" cy="301" r="3" fill="#F44336"/>
<circle cx="443" cy="52" r="3" fill="#4CAF50"/>
<circle cx="481" cy="230" r="3" fill="#2196F3"/>
<circle cx="481" cy="300" r="3" fill="#F44336"/>
<circle cx="481" cy="50" r="3" fill="#4CAF50"/>
<circle cx="518" cy="227" r="3" fill="#2196F3"/>
<circle cx="518" cy="299" r="3" fill="#F44336"/>
<circle cx="518" cy="41" r="3" fill="#4CAF50"/>
<circle cx="555" cy="230" r="3" fill="#2196F3"/>
<circle cx="555" cy="300" r="3" fill="#F44336"/>
<circle cx="555" cy="51" r="3" fill="#4CAF50"/>
<circle cx="593" cy="226" r="3" fill="#2196F3"/>
<circle cx="593" cy="299" r="3" fill="#F44336"/>
<circle cx="593" cy="42" r="3" fill="#4CAF50"/>
<circle cx="630" cy="229" r="3" fill="#2196F3"/>
<circle cx="630" cy="300" r="3" fill="#F44336"/>
<circle cx="630" cy="45" r="3" fill="#4CAF50"/>
<circle cx="667" cy="297" r="3" fill="#2196F3"/>
<circle cx="667" cy="323" r="3" fill="#F44336"/>
<circle cx="667" cy="227" r="3" fill="#4CAF50"/>
<circle cx="705" cy="297" r="3" fill="#2196F3"/>
<circle cx="705" cy="323" r="3" fill="#F44336"/>
<circle cx="705" cy="226" r="3" fill="#4CAF50"/>
<circle cx="742" cy="300" r="3" fill="#2196F3"/>
<circle cx="742" cy="326" r="3" fill="#F44336"/>
<circle cx="742" cy="226" r="3" fill="#4CAF50"/>
<circle cx="780" cy="300" r="3" fill="#2196F3"/>
<circle cx="780" cy="326" r="3" fill="#F44336"/>
<circle cx="780" cy="228" r="3" fill="#4CAF50"/>
<circle cx="90" cy="20" r="4" fill="#2196F3"/>
<text x="98" y="24" text-anchor="start" font-size="12" fill="#2196F3">Interpreted</text>
<circle cx="200" cy="20" r="4" fill="#F44336"/>
<text x="208" y="24" text-anchor="start" font-size="12" fill="#F44336">Compiled</text>
<circle cx="300" cy="20" r="4" fill="#4CAF50"/>
<text x="308" y="24" text-anchor="start" font-size="12" fill="#4CAF50">Wall-clock</text>
</svg>
