<svg width="800" height="400" xmlns="http://www.w3.org/2000/svg">
<rect width="800" height="400" fill="white"/>
<line x1="70" y1="40" x2="70" y2="340" stroke="#333" stroke-width="1"/>
<line x1="70" y1="340" x2="730" y2="340" stroke="#333" stroke-width="1"/>
<line x1="730" y1="40" x2="730" y2="340" stroke="#333" stroke-width="1"/>
<text x="65" y="344" text-anchor="end" font-size="11" fill="#333">0</text>
<text x="65" y="194" text-anchor="end" font-size="11" fill="#333">121500</text>
<text x="65" y="44" text-anchor="end" font-size="11" fill="#333">243000</text>
<text x="15" y="190" text-anchor="middle" font-size="12" fill="#333" transform="rotate(-90 15 190)">ms</text>
<text x="735" y="344" text-anchor="start" font-size="11" fill="#333">0</text>
<text x="735" y="194" text-anchor="start" font-size="11" fill="#333">10557500000</text>
<text x="735" y="44" text-anchor="start" font-size="11" fill="#333">21115000000</text>
<text x="785" y="190" text-anchor="middle" font-size="12" fill="#333" transform="rotate(90 785 190)">bytes</text>
<polyline points="70,140 143,129 216,134 290,138 363,133 436,143 510,143 583,140 656,141 730,142" fill="none" stroke="#0072B2" stroke-width="2"/>
<polyline points="70,55 143,41 216,49 290,55 363,52 436,62 510,63 583,61 656,57 730,63" fill="none" stroke="#CC79A7" stroke-width="2"/>
<polyline points="70,340 143,340 216,340 290,340 363,340 436,340 510,340 583,340 656,340 730,340" fill="none" stroke="#D55E00" stroke-width="2"/>
<polyline points="70,308 143,306 216,307 290,308 363,306 436,309 510,307 583,308 656,308 730,308" fill="none" stroke="#009E73" stroke-width="2"/>
<polyline points="70,297 143,297 216,297 290,297 363,297 436,297 510,297 583,297 656,297 730,297" fill="none" stroke="#56B4E9" stroke-width="2"/>
<polyline points="70,190 143,189 216,189 290,189 363,189 436,189 510,189 583,189 656,189 730,189" fill="none" stroke="#E69F00" stroke-width="2"/>
<polyline points="70,340 143,337 216,340 290,340 363,339 436,340 510,339 583,340 656,339 730,340" fill="none" stroke="#C44E52" stroke-width="2"/>
<polyline points="70,43 143,41 216,43 290,43 363,42 436,43 510,42 583,43 656,43 730,43" fill="none" stroke="#000000" stroke-width="2"/>
<circle cx="70" cy="140" r="3" fill="#0072B2"/>
<circle cx="70" cy="55" r="3" fill="#CC79A7"/>
<circle cx="70" cy="340" r="3" fill="#D55E00"/>
<circle cx="70" cy="308" r="3" fill="#009E73"/>
<circle cx="70" cy="297" r="3" fill="#56B4E9"/>
<circle cx="70" cy="190" r="3" fill="#E69F00"/>
<circle cx="70" cy="340" r="3" fill="#C44E52"/>
<circle cx="70" cy="43" r="3" fill="#000000"/>
<circle cx="143" cy="129" r="3" fill="#0072B2"/>
<circle cx="143" cy="41" r="3" fill="#CC79A7"/>
<circle cx="143" cy="340" r="3" fill="#D55E00"/>
<circle cx="143" cy="306" r="3" fill="#009E73"/>
<circle cx="143" cy="297" r="3" fill="#56B4E9"/>
<circle cx="143" cy="189" r="3" fill="#E69F00"/>
<circle cx="143" cy="337" r="3" fill="#C44E52"/>
<circle cx="143" cy="41" r="3" fill="#000000"/>
<circle cx="216" cy="134" r="3" fill="#0072B2"/>
<circle cx="216" cy="49" r="3" fill="#CC79A7"/>
<circle cx="216" cy="340" r="3" fill="#D55E00"/>
<circle cx="216" cy="307" r="3" fill="#009E73"/>
<circle cx="216" cy="297" r="3" fill="#56B4E9"/>
<circle cx="216" cy="189" r="3" fill="#E69F00"/>
<circle cx="216" cy="340" r="3" fill="#C44E52"/>
<circle cx="216" cy="43" r="3" fill="#000000"/>
<circle cx="290" cy="138" r="3" fill="#0072B2"/>
<circle cx="290" cy="55" r="3" fill="#CC79A7"/>
<circle cx="290" cy="340" r="3" fill="#D55E00"/>
<circle cx="290" cy="308" r="3" fill="#009E73"/>
<circle cx="290" cy="297" r="3" fill="#56B4E9"/>
<circle cx="290" cy="189" r="3" fill="#E69F00"/>
<circle cx="290" cy="340" r="3" fill="#C44E52"/>
<circle cx="290" cy="43" r="3" fill="#000000"/>
<circle cx="363" cy="133" r="3" fill="#0072B2"/>
<circle cx="363" cy="52" r="3" fill="#CC79A7"/>
<circle cx="363" cy="340" r="3" fill="#D55E00"/>
<circle cx="363" cy="306" r="3" fill="#009E73"/>
<circle cx="363" cy="297" r="3" fill="#56B4E9"/>
<circle cx="363" cy="189" r="3" fill="#E69F00"/>
<circle cx="363" cy="339" r="3" fill="#C44E52"/>
<circle cx="363" cy="42" r="3" fill="#000000"/>
<circle cx="436" cy="143" r="3" fill="#0072B2"/>
<circle cx="436" cy="62" r="3" fill="#CC79A7"/>
<circle cx="436" cy="340" r="3" fill="#D55E00"/>
<circle cx="436" cy="309" r="3" fill="#009E73"/>
<circle cx="436" cy="297" r="3" fill="#56B4E9"/>
<circle cx="436" cy="189" r="3" fill="#E69F00"/>
<circle cx="436" cy="340" r="3" fill="#C44E52"/>
<circle cx="436" cy="43" r="3" fill="#000000"/>
<circle cx="510" cy="143" r="3" fill="#0072B2"/>
<circle cx="510" cy="63" r="3" fill="#CC79A7"/>
<circle cx="510" cy="340" r="3" fill="#D55E00"/>
<circle cx="510" cy="307" r="3" fill="#009E73"/>
<circle cx="510" cy="297" r="3" fill="#56B4E9"/>
<circle cx="510" cy="189" r="3" fill="#E69F00"/>
<circle cx="510" cy="339" r="3" fill="#C44E52"/>
<circle cx="510" cy="42" r="3" fill="#000000"/>
<circle cx="583" cy="140" r="3" fill="#0072B2"/>
<circle cx="583" cy="61" r="3" fill="#CC79A7"/>
<circle cx="583" cy="340" r="3" fill="#D55E00"/>
<circle cx="583" cy="308" r="3" fill="#009E73"/>
<circle cx="583" cy="297" r="3" fill="#56B4E9"/>
<circle cx="583" cy="189" r="3" fill="#E69F00"/>
<circle cx="583" cy="340" r="3" fill="#C44E52"/>
<circle cx="583" cy="43" r="3" fill="#000000"/>
<circle cx="656" cy="141" r="3" fill="#0072B2"/>
<circle cx="656" cy="57" r="3" fill="#CC79A7"/>
<circle cx="656" cy="340" r="3" fill="#D55E00"/>
<circle cx="656" cy="308" r="3" fill="#009E73"/>
<circle cx="656" cy="297" r="3" fill="#56B4E9"/>
<circle cx="656" cy="189" r="3" fill="#E69F00"/>
<circle cx="656" cy="339" r="3" fill="#C44E52"/>
<circle cx="656" cy="43" r="3" fill="#000000"/>
<circle cx="730" cy="142" r="3" fill="#0072B2"/>
<circle cx="730" cy="63" r="3" fill="#CC79A7"/>
<circle cx="730" cy="340" r="3" fill="#D55E00"/>
<circle cx="730" cy="308" r="3" fill="#009E73"/>
<circle cx="730" cy="297" r="3" fill="#56B4E9"/>
<circle cx="730" cy="189" r="3" fill="#E69F00"/>
<circle cx="730" cy="340" r="3" fill="#C44E52"/>
<circle cx="730" cy="43" r="3" fill="#000000"/>
<circle cx="90" cy="20" r="4" fill="#0072B2"/>
<text x="98" y="24" text-anchor="start" font-size="12" fill="#0072B2">inte</text>
<circle cx="150" cy="20" r="4" fill="#CC79A7"/>
<text x="158" y="24" text-anchor="start" font-size="12" fill="#CC79A7">comp</text>
<circle cx="215" cy="20" r="4" fill="#D55E00"/>
<text x="223" y="24" text-anchor="start" font-size="12" fill="#D55E00">run</text>
<circle cx="270" cy="20" r="4" fill="#009E73"/>
<text x="278" y="24" text-anchor="start" font-size="12" fill="#009E73">wall</text>
<circle cx="335" cy="20" r="4" fill="#56B4E9"/>
<text x="343" y="24" text-anchor="start" font-size="12" fill="#56B4E9">mem-inte</text>
<circle cx="425" cy="20" r="4" fill="#E69F00"/>
<text x="433" y="24" text-anchor="start" font-size="12" fill="#E69F00">mem-comp</text>
<circle cx="520" cy="20" r="4" fill="#C44E52"/>
<text x="528" y="24" text-anchor="start" font-size="12" fill="#C44E52">mem-run</text>
<circle cx="605" cy="20" r="4" fill="#000000"/>
<text x="613" y="24" text-anchor="start" font-size="12" fill="#000000">mem-total</text>
</svg>
