<svg width="800" height="400" xmlns="http://www.w3.org/2000/svg">
<rect width="800" height="400" fill="white"/>
<line x1="70" y1="40" x2="70" y2="340" stroke="#333" stroke-width="1"/>
<line x1="70" y1="340" x2="780" y2="340" stroke="#333" stroke-width="1"/>
<text x="65" y="344" text-anchor="end" font-size="11" fill="#333">0</text>
<text x="65" y="194" text-anchor="end" font-size="11" fill="#333">116000</text>
<text x="65" y="44" text-anchor="end" font-size="11" fill="#333">232000</text>
<text x="15" y="190" text-anchor="middle" font-size="12" fill="#333" transform="rotate(-90 15 190)">ms</text>
<polyline points="70,218 148,42 227,44 306,42 385,221 464,222 543,218 622,217 701,218 780,218" fill="none" stroke="#0072B2" stroke-width="2"/>
<polyline points="70,340 148,340 227,340 306,340 385,340 464,340 543,236 622,236 701,236 780,234" fill="none" stroke="#CC79A7" stroke-width="2"/>
<polyline points="70,290 148,169 227,171 306,170 385,232 464,234 543,338 622,338 701,338 780,338" fill="none" stroke="#D55E00" stroke-width="2"/>
<polyline points="70,185 148,89 227,92 306,90 385,218 464,219 543,282 622,281 701,282 780,281" fill="none" stroke="#009E73" stroke-width="2"/>
<circle cx="70" cy="218" r="3" fill="#0072B2"/>
<circle cx="70" cy="340" r="3" fill="#CC79A7"/>
<circle cx="70" cy="290" r="3" fill="#D55E00"/>
<circle cx="70" cy="185" r="3" fill="#009E73"/>
<circle cx="148" cy="42" r="3" fill="#0072B2"/>
<circle cx="148" cy="340" r="3" fill="#CC79A7"/>
<circle cx="148" cy="169" r="3" fill="#D55E00"/>
<circle cx="148" cy="89" r="3" fill="#009E73"/>
<circle cx="227" cy="44" r="3" fill="#0072B2"/>
<circle cx="227" cy="340" r="3" fill="#CC79A7"/>
<circle cx="227" cy="171" r="3" fill="#D55E00"/>
<circle cx="227" cy="92" r="3" fill="#009E73"/>
<circle cx="306" cy="42" r="3" fill="#0072B2"/>
<circle cx="306" cy="340" r="3" fill="#CC79A7"/>
<circle cx="306" cy="170" r="3" fill="#D55E00"/>
<circle cx="306" cy="90" r="3" fill="#009E73"/>
<circle cx="385" cy="221" r="3" fill="#0072B2"/>
<circle cx="385" cy="340" r="3" fill="#CC79A7"/>
<circle cx="385" cy="232" r="3" fill="#D55E00"/>
<circle cx="385" cy="218" r="3" fill="#009E73"/>
<circle cx="464" cy="222" r="3" fill="#0072B2"/>
<circle cx="464" cy="340" r="3" fill="#CC79A7"/>
<circle cx="464" cy="234" r="3" fill="#D55E00"/>
<circle cx="464" cy="219" r="3" fill="#009E73"/>
<circle cx="543" cy="218" r="3" fill="#0072B2"/>
<circle cx="543" cy="236" r="3" fill="#CC79A7"/>
<circle cx="543" cy="338" r="3" fill="#D55E00"/>
<circle cx="543" cy="282" r="3" fill="#009E73"/>
<circle cx="622" cy="217" r="3" fill="#0072B2"/>
<circle cx="622" cy="236" r="3" fill="#CC79A7"/>
<circle cx="622" cy="338" r="3" fill="#D55E00"/>
<circle cx="622" cy="281" r="3" fill="#009E73"/>
<circle cx="701" cy="218" r="3" fill="#0072B2"/>
<circle cx="701" cy="236" r="3" fill="#CC79A7"/>
<circle cx="701" cy="338" r="3" fill="#D55E00"/>
<circle cx="701" cy="282" r="3" fill="#009E73"/>
<circle cx="780" cy="218" r="3" fill="#0072B2"/>
<circle cx="780" cy="234" r="3" fill="#CC79A7"/>
<circle cx="780" cy="338" r="3" fill="#D55E00"/>
<circle cx="780" cy="281" r="3" fill="#009E73"/>
<circle cx="90" cy="20" r="4" fill="#0072B2"/>
<text x="98" y="24" text-anchor="start" font-size="12" fill="#0072B2">interpreted</text>
<circle cx="190" cy="20" r="4" fill="#CC79A7"/>
<text x="198" y="24" text-anchor="start" font-size="12" fill="#CC79A7">compiled</text>
<circle cx="275" cy="20" r="4" fill="#D55E00"/>
<text x="283" y="24" text-anchor="start" font-size="12" fill="#D55E00">executed</text>
<circle cx="355" cy="20" r="4" fill="#009E73"/>
<text x="363" y="24" text-anchor="start" font-size="12" fill="#009E73">wall</text>
</svg>
