<svg width="800" height="400" xmlns="http://www.w3.org/2000/svg">
<rect width="800" height="400" fill="white"/>
<line x1="70" y1="40" x2="70" y2="340" stroke="#333" stroke-width="1"/>
<line x1="70" y1="340" x2="730" y2="340" stroke="#333" stroke-width="1"/>
<line x1="730" y1="40" x2="730" y2="340" stroke="#333" stroke-width="1"/>
<text x="65" y="344" text-anchor="end" font-size="11" fill="#333">0</text>
<text x="65" y="194" text-anchor="end" font-size="11" fill="#333">409000</text>
<text x="65" y="44" text-anchor="end" font-size="11" fill="#333">818000</text>
<text x="15" y="190" text-anchor="middle" font-size="12" fill="#333" transform="rotate(-90 15 190)">ms</text>
<text x="735" y="344" text-anchor="start" font-size="11" fill="#333">0</text>
<text x="735" y="194" text-anchor="start" font-size="11" fill="#333">5033500000</text>
<text x="735" y="44" text-anchor="start" font-size="11" fill="#333">10067000000</text>
<text x="785" y="190" text-anchor="middle" font-size="12" fill="#333" transform="rotate(90 785 190)">bytes</text>
<polyline points="70,141 143,140 216,138 290,139 363,76 436,95 510,98 583,109 656,93 730,171" fill="none" stroke="#0072B2" stroke-width="2"/>
<polyline points="70,123 143,118 216,115 290,90 363,93 436,65 510,63 583,77 656,41 730,153" fill="none" stroke="#CC79A7" stroke-width="2"/>
<polyline points="70,340 143,340 216,340 290,340 363,340 436,340 510,340 583,340 656,340 730,340" fill="none" stroke="#D55E00" stroke-width="2"/>
<polyline points="70,275 143,276 216,274 290,268 363,264 436,260 510,260 583,263 656,254 730,283" fill="none" stroke="#009E73" stroke-width="2"/>
<polyline points="70,270 143,270 216,269 290,269 363,269 436,269 510,269 583,269 656,269 730,269" fill="none" stroke="#56B4E9" stroke-width="2"/>
<polyline points="70,204 143,205 216,205 290,205 363,204 436,205 510,204 583,204 656,205 730,205" fill="none" stroke="#E69F00" stroke-width="2"/>
<polyline points="70,340 143,340 216,340 290,340 363,340 436,340 510,340 583,340 656,340 730,340" fill="none" stroke="#C44E52" stroke-width="2"/>
<polyline points="70,42 143,43 216,41 290,42 363,41 436,42 510,41 583,41 656,43 730,41" fill="none" stroke="#000000" stroke-width="2"/>
<circle cx="70" cy="141" r="3" fill="#0072B2"/>
<circle cx="70" cy="123" r="3" fill="#CC79A7"/>
<circle cx="70" cy="340" r="3" fill="#D55E00"/>
<circle cx="70" cy="275" r="3" fill="#009E73"/>
<circle cx="70" cy="270" r="3" fill="#56B4E9"/>
<circle cx="70" cy="204" r="3" fill="#E69F00"/>
<circle cx="70" cy="340" r="3" fill="#C44E52"/>
<circle cx="70" cy="42" r="3" fill="#000000"/>
<circle cx="143" cy="140" r="3" fill="#0072B2"/>
<circle cx="143" cy="118" r="3" fill="#CC79A7"/>
<circle cx="143" cy="340" r="3" fill="#D55E00"/>
<circle cx="143" cy="276" r="3" fill="#009E73"/>
<circle cx="143" cy="270" r="3" fill="#56B4E9"/>
<circle cx="143" cy="205" r="3" fill="#E69F00"/>
<circle cx="143" cy="340" r="3" fill="#C44E52"/>
<circle cx="143" cy="43" r="3" fill="#000000"/>
<circle cx="216" cy="138" r="3" fill="#0072B2"/>
<circle cx="216" cy="115" r="3" fill="#CC79A7"/>
<circle cx="216" cy="340" r="3" fill="#D55E00"/>
<circle cx="216" cy="274" r="3" fill="#009E73"/>
<circle cx="216" cy="269" r="3" fill="#56B4E9"/>
<circle cx="216" cy="205" r="3" fill="#E69F00"/>
<circle cx="216" cy="340" r="3" fill="#C44E52"/>
<circle cx="216" cy="41" r="3" fill="#000000"/>
<circle cx="290" cy="139" r="3" fill="#0072B2"/>
<circle cx="290" cy="90" r="3" fill="#CC79A7"/>
<circle cx="290" cy="340" r="3" fill="#D55E00"/>
<circle cx="290" cy="268" r="3" fill="#009E73"/>
<circle cx="290" cy="269" r="3" fill="#56B4E9"/>
<circle cx="290" cy="205" r="3" fill="#E69F00"/>
<circle cx="290" cy="340" r="3" fill="#C44E52"/>
<circle cx="290" cy="42" r="3" fill="#000000"/>
<circle cx="363" cy="76" r="3" fill="#0072B2"/>
<circle cx="363" cy="93" r="3" fill="#CC79A7"/>
<circle cx="363" cy="340" r="3" fill="#D55E00"/>
<circle cx="363" cy="264" r="3" fill="#009E73"/>
<circle cx="363" cy="269" r="3" fill="#56B4E9"/>
<circle cx="363" cy="204" r="3" fill="#E69F00"/>
<circle cx="363" cy="340" r="3" fill="#C44E52"/>
<circle cx="363" cy="41" r="3" fill="#000000"/>
<circle cx="436" cy="95" r="3" fill="#0072B2"/>
<circle cx="436" cy="65" r="3" fill="#CC79A7"/>
<circle cx="436" cy="340" r="3" fill="#D55E00"/>
<circle cx="436" cy="260" r="3" fill="#009E73"/>
<circle cx="436" cy="269" r="3" fill="#56B4E9"/>
<circle cx="436" cy="205" r="3" fill="#E69F00"/>
<circle cx="436" cy="340" r="3" fill="#C44E52"/>
<circle cx="436" cy="42" r="3" fill="#000000"/>
<circle cx="510" cy="98" r="3" fill="#0072B2"/>
<circle cx="510" cy="63" r="3" fill="#CC79A7"/>
<circle cx="510" cy="340" r="3" fill="#D55E00"/>
<circle cx="510" cy="260" r="3" fill="#009E73"/>
<circle cx="510" cy="269" r="3" fill="#56B4E9"/>
<circle cx="510" cy="204" r="3" fill="#E69F00"/>
<circle cx="510" cy="340" r="3" fill="#C44E52"/>
<circle cx="510" cy="41" r="3" fill="#000000"/>
<circle cx="583" cy="109" r="3" fill="#0072B2"/>
<circle cx="583" cy="77" r="3" fill="#CC79A7"/>
<circle cx="583" cy="340" r="3" fill="#D55E00"/>
<circle cx="583" cy="263" r="3" fill="#009E73"/>
<circle cx="583" cy="269" r="3" fill="#56B4E9"/>
<circle cx="583" cy="204" r="3" fill="#E69F00"/>
<circle cx="583" cy="340" r="3" fill="#C44E52"/>
<circle cx="583" cy="41" r="3" fill="#000000"/>
<circle cx="656" cy="93" r="3" fill="#0072B2"/>
<circle cx="656" cy="41" r="3" fill="#CC79A7"/>
<circle cx="656" cy="340" r="3" fill="#D55E00"/>
<circle cx="656" cy="254" r="3" fill="#009E73"/>
<circle cx="656" cy="269" r="3" fill="#56B4E9"/>
<circle cx="656" cy="205" r="3" fill="#E69F00"/>
<circle cx="656" cy="340" r="3" fill="#C44E52"/>
<circle cx="656" cy="43" r="3" fill="#000000"/>
<circle cx="730" cy="171" r="3" fill="#0072B2"/>
<circle cx="730" cy="153" r="3" fill="#CC79A7"/>
<circle cx="730" cy="340" r="3" fill="#D55E00"/>
<circle cx="730" cy="283" r="3" fill="#009E73"/>
<circle cx="730" cy="269" r="3" fill="#56B4E9"/>
<circle cx="730" cy="205" r="3" fill="#E69F00"/>
<circle cx="730" cy="340" r="3" fill="#C44E52"/>
<circle cx="730" cy="41" r="3" fill="#000000"/>
<circle cx="90" cy="20" r="4" fill="#0072B2"/>
<text x="98" y="24" text-anchor="start" font-size="12" fill="#0072B2">inte</text>
<circle cx="150" cy="20" r="4" fill="#CC79A7"/>
<text x="158" y="24" text-anchor="start" font-size="12" fill="#CC79A7">comp</text>
<circle cx="215" cy="20" r="4" fill="#D55E00"/>
<text x="223" y="24" text-anchor="start" font-size="12" fill="#D55E00">run</text>
<circle cx="270" cy="20" r="4" fill="#009E73"/>
<text x="278" y="24" text-anchor="start" font-size="12" fill="#009E73">wall</text>
<circle cx="335" cy="20" r="4" fill="#56B4E9"/>
<text x="343" y="24" text-anchor="start" font-size="12" fill="#56B4E9">mem-inte</text>
<circle cx="425" cy="20" r="4" fill="#E69F00"/>
<text x="433" y="24" text-anchor="start" font-size="12" fill="#E69F00">mem-comp</text>
<circle cx="520" cy="20" r="4" fill="#C44E52"/>
<text x="528" y="24" text-anchor="start" font-size="12" fill="#C44E52">mem-run</text>
<circle cx="605" cy="20" r="4" fill="#000000"/>
<text x="613" y="24" text-anchor="start" font-size="12" fill="#000000">mem-total</text>
</svg>
