<svg width="800" height="400" xmlns="http://www.w3.org/2000/svg">
<rect width="800" height="400" fill="white"/>
<line x1="70" y1="40" x2="70" y2="340" stroke="#333" stroke-width="1"/>
<line x1="70" y1="340" x2="730" y2="340" stroke="#333" stroke-width="1"/>
<line x1="730" y1="40" x2="730" y2="340" stroke="#333" stroke-width="1"/>
<text x="65" y="344" text-anchor="end" font-size="11" fill="#333">0</text>
<text x="65" y="194" text-anchor="end" font-size="11" fill="#333">41500</text>
<text x="65" y="44" text-anchor="end" font-size="11" fill="#333">83000</text>
<text x="15" y="190" text-anchor="middle" font-size="12" fill="#333" transform="rotate(-90 15 190)">ms</text>
<text x="735" y="344" text-anchor="start" font-size="11" fill="#333">0</text>
<text x="735" y="194" text-anchor="start" font-size="11" fill="#333">5502000000</text>
<text x="735" y="44" text-anchor="start" font-size="11" fill="#333">11004000000</text>
<text x="785" y="190" text-anchor="middle" font-size="12" fill="#333" transform="rotate(90 785 190)">bytes</text>
<polyline points="70,99 143,109 216,108 290,106 363,98 436,97 510,97 583,99 656,95 730,90" fill="none" stroke="#0072B2" stroke-width="2"/>
<polyline points="70,47 143,57 216,56 290,54 363,51 436,50 510,50 583,51 656,46 730,43" fill="none" stroke="#CC79A7" stroke-width="2"/>
<polyline points="70,339 143,339 216,339 290,339 363,339 436,339 510,339 583,339 656,339 730,339" fill="none" stroke="#D55E00" stroke-width="2"/>
<polyline points="70,161 143,161 216,162 290,161 363,145 436,145 510,145 583,144 656,146 730,139" fill="none" stroke="#009E73" stroke-width="2"/>
<polyline points="70,259 143,269 216,268 290,267 363,270 436,270 510,265 583,268 656,270 730,270" fill="none" stroke="#56B4E9" stroke-width="2"/>
<polyline points="70,190 143,202 216,202 290,202 363,201 436,201 510,201 583,201 656,200 730,201" fill="none" stroke="#E69F00" stroke-width="2"/>
<polyline points="70,340 143,340 216,340 290,340 363,340 436,340 510,340 583,340 656,340 730,340" fill="none" stroke="#C44E52" stroke-width="2"/>
<polyline points="70,41 143,63 216,61 290,60 363,63 436,63 510,58 583,61 656,61 730,62" fill="none" stroke="#000000" stroke-width="2"/>
<circle cx="70" cy="99" r="3" fill="#0072B2"/>
<circle cx="70" cy="47" r="3" fill="#CC79A7"/>
<circle cx="70" cy="339" r="3" fill="#D55E00"/>
<circle cx="70" cy="161" r="3" fill="#009E73"/>
<circle cx="70" cy="259" r="3" fill="#56B4E9"/>
<circle cx="70" cy="190" r="3" fill="#E69F00"/>
<circle cx="70" cy="340" r="3" fill="#C44E52"/>
<circle cx="70" cy="41" r="3" fill="#000000"/>
<circle cx="143" cy="109" r="3" fill="#0072B2"/>
<circle cx="143" cy="57" r="3" fill="#CC79A7"/>
<circle cx="143" cy="339" r="3" fill="#D55E00"/>
<circle cx="143" cy="161" r="3" fill="#009E73"/>
<circle cx="143" cy="269" r="3" fill="#56B4E9"/>
<circle cx="143" cy="202" r="3" fill="#E69F00"/>
<circle cx="143" cy="340" r="3" fill="#C44E52"/>
<circle cx="143" cy="63" r="3" fill="#000000"/>
<circle cx="216" cy="108" r="3" fill="#0072B2"/>
<circle cx="216" cy="56" r="3" fill="#CC79A7"/>
<circle cx="216" cy="339" r="3" fill="#D55E00"/>
<circle cx="216" cy="162" r="3" fill="#009E73"/>
<circle cx="216" cy="268" r="3" fill="#56B4E9"/>
<circle cx="216" cy="202" r="3" fill="#E69F00"/>
<circle cx="216" cy="340" r="3" fill="#C44E52"/>
<circle cx="216" cy="61" r="3" fill="#000000"/>
<circle cx="290" cy="106" r="3" fill="#0072B2"/>
<circle cx="290" cy="54" r="3" fill="#CC79A7"/>
<circle cx="290" cy="339" r="3" fill="#D55E00"/>
<circle cx="290" cy="161" r="3" fill="#009E73"/>
<circle cx="290" cy="267" r="3" fill="#56B4E9"/>
<circle cx="290" cy="202" r="3" fill="#E69F00"/>
<circle cx="290" cy="340" r="3" fill="#C44E52"/>
<circle cx="290" cy="60" r="3" fill="#000000"/>
<circle cx="363" cy="98" r="3" fill="#0072B2"/>
<circle cx="363" cy="51" r="3" fill="#CC79A7"/>
<circle cx="363" cy="339" r="3" fill="#D55E00"/>
<circle cx="363" cy="145" r="3" fill="#009E73"/>
<circle cx="363" cy="270" r="3" fill="#56B4E9"/>
<circle cx="363" cy="201" r="3" fill="#E69F00"/>
<circle cx="363" cy="340" r="3" fill="#C44E52"/>
<circle cx="363" cy="63" r="3" fill="#000000"/>
<circle cx="436" cy="97" r="3" fill="#0072B2"/>
<circle cx="436" cy="50" r="3" fill="#CC79A7"/>
<circle cx="436" cy="339" r="3" fill="#D55E00"/>
<circle cx="436" cy="145" r="3" fill="#009E73"/>
<circle cx="436" cy="270" r="3" fill="#56B4E9"/>
<circle cx="436" cy="201" r="3" fill="#E69F00"/>
<circle cx="436" cy="340" r="3" fill="#C44E52"/>
<circle cx="436" cy="63" r="3" fill="#000000"/>
<circle cx="510" cy="97" r="3" fill="#0072B2"/>
<circle cx="510" cy="50" r="3" fill="#CC79A7"/>
<circle cx="510" cy="339" r="3" fill="#D55E00"/>
<circle cx="510" cy="145" r="3" fill="#009E73"/>
<circle cx="510" cy="265" r="3" fill="#56B4E9"/>
<circle cx="510" cy="201" r="3" fill="#E69F00"/>
<circle cx="510" cy="340" r="3" fill="#C44E52"/>
<circle cx="510" cy="58" r="3" fill="#000000"/>
<circle cx="583" cy="99" r="3" fill="#0072B2"/>
<circle cx="583" cy="51" r="3" fill="#CC79A7"/>
<circle cx="583" cy="339" r="3" fill="#D55E00"/>
<circle cx="583" cy="144" r="3" fill="#009E73"/>
<circle cx="583" cy="268" r="3" fill="#56B4E9"/>
<circle cx="583" cy="201" r="3" fill="#E69F00"/>
<circle cx="583" cy="340" r="3" fill="#C44E52"/>
<circle cx="583" cy="61" r="3" fill="#000000"/>
<circle cx="656" cy="95" r="3" fill="#0072B2"/>
<circle cx="656" cy="46" r="3" fill="#CC79A7"/>
<circle cx="656" cy="339" r="3" fill="#D55E00"/>
<circle cx="656" cy="146" r="3" fill="#009E73"/>
<circle cx="656" cy="270" r="3" fill="#56B4E9"/>
<circle cx="656" cy="200" r="3" fill="#E69F00"/>
<circle cx="656" cy="340" r="3" fill="#C44E52"/>
<circle cx="656" cy="61" r="3" fill="#000000"/>
<circle cx="730" cy="90" r="3" fill="#0072B2"/>
<circle cx="730" cy="43" r="3" fill="#CC79A7"/>
<circle cx="730" cy="339" r="3" fill="#D55E00"/>
<circle cx="730" cy="139" r="3" fill="#009E73"/>
<circle cx="730" cy="270" r="3" fill="#56B4E9"/>
<circle cx="730" cy="201" r="3" fill="#E69F00"/>
<circle cx="730" cy="340" r="3" fill="#C44E52"/>
<circle cx="730" cy="62" r="3" fill="#000000"/>
<circle cx="90" cy="20" r="4" fill="#0072B2"/>
<text x="98" y="24" text-anchor="start" font-size="12" fill="#0072B2">inte</text>
<circle cx="150" cy="20" r="4" fill="#CC79A7"/>
<text x="158" y="24" text-anchor="start" font-size="12" fill="#CC79A7">comp</text>
<circle cx="215" cy="20" r="4" fill="#D55E00"/>
<text x="223" y="24" text-anchor="start" font-size="12" fill="#D55E00">run</text>
<circle cx="270" cy="20" r="4" fill="#009E73"/>
<text x="278" y="24" text-anchor="start" font-size="12" fill="#009E73">wall</text>
<circle cx="335" cy="20" r="4" fill="#56B4E9"/>
<text x="343" y="24" text-anchor="start" font-size="12" fill="#56B4E9">mem-inte</text>
<circle cx="425" cy="20" r="4" fill="#E69F00"/>
<text x="433" y="24" text-anchor="start" font-size="12" fill="#E69F00">mem-comp</text>
<circle cx="520" cy="20" r="4" fill="#C44E52"/>
<text x="528" y="24" text-anchor="start" font-size="12" fill="#C44E52">mem-run</text>
<circle cx="605" cy="20" r="4" fill="#000000"/>
<text x="613" y="24" text-anchor="start" font-size="12" fill="#000000">mem-total</text>
</svg>
