<svg width="800" height="400" xmlns="http://www.w3.org/2000/svg">
<rect width="800" height="400" fill="white"/>
<line x1="70" y1="40" x2="70" y2="340" stroke="#333" stroke-width="1"/>
<line x1="70" y1="340" x2="780" y2="340" stroke="#333" stroke-width="1"/>
<text x="65" y="344" text-anchor="end" font-size="11" fill="#333">0</text>
<text x="65" y="194" text-anchor="end" font-size="11" fill="#333">34000</text>
<text x="65" y="44" text-anchor="end" font-size="11" fill="#333">68000</text>
<text x="15" y="190" text-anchor="middle" font-size="12" fill="#333" transform="rotate(-90 15 190)">ms</text>
<polyline points="70,54 148,56 227,52 306,56 385,51 464,49 543,51 622,50 701,51 780,45" fill="none" stroke="#0072B2" stroke-width="2"/>
<polyline points="70,234 148,234 227,233 306,234 385,230 464,233 543,234 622,233 701,233 780,228" fill="none" stroke="#D55E00" stroke-width="2"/>
<polyline points="70,71 148,73 227,70 306,72 385,67 464,68 543,71 622,66 701,67 780,61" fill="none" stroke="#CC79A7" stroke-width="2"/>
<polyline points="70,237 148,238 227,237 306,237 385,232 464,237 543,237 622,235 701,237 780,233" fill="none" stroke="#E69F00" stroke-width="2"/>
<polyline points="70,115 148,116 227,113 306,116 385,112 464,112 543,112 622,110 701,112 780,109" fill="none" stroke="#009E73" stroke-width="2"/>
<circle cx="70" cy="54" r="3" fill="#0072B2"/>
<circle cx="70" cy="234" r="3" fill="#D55E00"/>
<circle cx="70" cy="71" r="3" fill="#CC79A7"/>
<circle cx="70" cy="237" r="3" fill="#E69F00"/>
<circle cx="70" cy="115" r="3" fill="#009E73"/>
<circle cx="148" cy="56" r="3" fill="#0072B2"/>
<circle cx="148" cy="234" r="3" fill="#D55E00"/>
<circle cx="148" cy="73" r="3" fill="#CC79A7"/>
<circle cx="148" cy="238" r="3" fill="#E69F00"/>
<circle cx="148" cy="116" r="3" fill="#009E73"/>
<circle cx="227" cy="52" r="3" fill="#0072B2"/>
<circle cx="227" cy="233" r="3" fill="#D55E00"/>
<circle cx="227" cy="70" r="3" fill="#CC79A7"/>
<circle cx="227" cy="237" r="3" fill="#E69F00"/>
<circle cx="227" cy="113" r="3" fill="#009E73"/>
<circle cx="306" cy="56" r="3" fill="#0072B2"/>
<circle cx="306" cy="234" r="3" fill="#D55E00"/>
<circle cx="306" cy="72" r="3" fill="#CC79A7"/>
<circle cx="306" cy="237" r="3" fill="#E69F00"/>
<circle cx="306" cy="116" r="3" fill="#009E73"/>
<circle cx="385" cy="51" r="3" fill="#0072B2"/>
<circle cx="385" cy="230" r="3" fill="#D55E00"/>
<circle cx="385" cy="67" r="3" fill="#CC79A7"/>
<circle cx="385" cy="232" r="3" fill="#E69F00"/>
<circle cx="385" cy="112" r="3" fill="#009E73"/>
<circle cx="464" cy="49" r="3" fill="#0072B2"/>
<circle cx="464" cy="233" r="3" fill="#D55E00"/>
<circle cx="464" cy="68" r="3" fill="#CC79A7"/>
<circle cx="464" cy="237" r="3" fill="#E69F00"/>
<circle cx="464" cy="112" r="3" fill="#009E73"/>
<circle cx="543" cy="51" r="3" fill="#0072B2"/>
<circle cx="543" cy="234" r="3" fill="#D55E00"/>
<circle cx="543" cy="71" r="3" fill="#CC79A7"/>
<circle cx="543" cy="237" r="3" fill="#E69F00"/>
<circle cx="543" cy="112" r="3" fill="#009E73"/>
<circle cx="622" cy="50" r="3" fill="#0072B2"/>
<circle cx="622" cy="233" r="3" fill="#D55E00"/>
<circle cx="622" cy="66" r="3" fill="#CC79A7"/>
<circle cx="622" cy="235" r="3" fill="#E69F00"/>
<circle cx="622" cy="110" r="3" fill="#009E73"/>
<circle cx="701" cy="51" r="3" fill="#0072B2"/>
<circle cx="701" cy="233" r="3" fill="#D55E00"/>
<circle cx="701" cy="67" r="3" fill="#CC79A7"/>
<circle cx="701" cy="237" r="3" fill="#E69F00"/>
<circle cx="701" cy="112" r="3" fill="#009E73"/>
<circle cx="780" cy="45" r="3" fill="#0072B2"/>
<circle cx="780" cy="228" r="3" fill="#D55E00"/>
<circle cx="780" cy="61" r="3" fill="#CC79A7"/>
<circle cx="780" cy="233" r="3" fill="#E69F00"/>
<circle cx="780" cy="109" r="3" fill="#009E73"/>
<circle cx="90" cy="20" r="4" fill="#0072B2"/>
<text x="98" y="24" text-anchor="start" font-size="12" fill="#0072B2">ctil-i</text>
<circle cx="160" cy="20" r="4" fill="#D55E00"/>
<text x="168" y="24" text-anchor="start" font-size="12" fill="#D55E00">ctil-r</text>
<circle cx="230" cy="20" r="4" fill="#CC79A7"/>
<text x="238" y="24" text-anchor="start" font-size="12" fill="#CC79A7">til-i</text>
<circle cx="290" cy="20" r="4" fill="#E69F00"/>
<text x="298" y="24" text-anchor="start" font-size="12" fill="#E69F00">til-r</text>
<circle cx="350" cy="20" r="4" fill="#009E73"/>
<text x="358" y="24" text-anchor="start" font-size="12" fill="#009E73">Wall</text>
</svg>
