<svg width="800" height="400" xmlns="http://www.w3.org/2000/svg">
<rect width="800" height="400" fill="white"/>
<line x1="70" y1="40" x2="70" y2="340" stroke="#333" stroke-width="1"/>
<line x1="70" y1="340" x2="730" y2="340" stroke="#333" stroke-width="1"/>
<line x1="730" y1="40" x2="730" y2="340" stroke="#333" stroke-width="1"/>
<text x="65" y="344" text-anchor="end" font-size="11" fill="#333">0</text>
<text x="65" y="194" text-anchor="end" font-size="11" fill="#333">103500</text>
<text x="65" y="44" text-anchor="end" font-size="11" fill="#333">207000</text>
<text x="15" y="190" text-anchor="middle" font-size="12" fill="#333" transform="rotate(-90 15 190)">ms</text>
<text x="735" y="344" text-anchor="start" font-size="11" fill="#333">0</text>
<text x="735" y="194" text-anchor="start" font-size="11" fill="#333">7046000000</text>
<text x="735" y="44" text-anchor="start" font-size="11" fill="#333">14092000000</text>
<text x="785" y="190" text-anchor="middle" font-size="12" fill="#333" transform="rotate(90 785 190)">bytes</text>
<polyline points="70,63 143,63 216,57 290,131 363,132 436,131 510,129 583,132 656,132 730,134" fill="none" stroke="#0072B2" stroke-width="2"/>
<polyline points="70,47 143,47 216,41 290,113 363,112 436,112 510,112 583,112 656,112 730,115" fill="none" stroke="#CC79A7" stroke-width="2"/>
<polyline points="70,340 143,340 216,340 290,340 363,340 436,340 510,340 583,340 656,340 730,340" fill="none" stroke="#D55E00" stroke-width="2"/>
<polyline points="70,284 143,284 216,283 290,298 363,298 436,298 510,297 583,298 656,298 730,298" fill="none" stroke="#009E73" stroke-width="2"/>
<polyline points="70,291 143,291 216,283 290,295 363,295 436,295 510,295 583,295 656,295 730,303" fill="none" stroke="#56B4E9" stroke-width="2"/>
<polyline points="70,221 143,221 216,212 290,225 363,225 436,225 510,225 583,225 656,225 730,233" fill="none" stroke="#E69F00" stroke-width="2"/>
<polyline points="70,340 143,340 216,340 290,340 363,340 436,340 510,340 583,340 656,340 730,340" fill="none" stroke="#C44E52" stroke-width="2"/>
<polyline points="70,57 143,58 216,41 290,66 363,67 436,67 510,67 583,67 656,67 730,84" fill="none" stroke="#000000" stroke-width="2"/>
<circle cx="70" cy="63" r="3" fill="#0072B2"/>
<circle cx="70" cy="47" r="3" fill="#CC79A7"/>
<circle cx="70" cy="340" r="3" fill="#D55E00"/>
<circle cx="70" cy="284" r="3" fill="#009E73"/>
<circle cx="70" cy="291" r="3" fill="#56B4E9"/>
<circle cx="70" cy="221" r="3" fill="#E69F00"/>
<circle cx="70" cy="340" r="3" fill="#C44E52"/>
<circle cx="70" cy="57" r="3" fill="#000000"/>
<circle cx="143" cy="63" r="3" fill="#0072B2"/>
<circle cx="143" cy="47" r="3" fill="#CC79A7"/>
<circle cx="143" cy="340" r="3" fill="#D55E00"/>
<circle cx="143" cy="284" r="3" fill="#009E73"/>
<circle cx="143" cy="291" r="3" fill="#56B4E9"/>
<circle cx="143" cy="221" r="3" fill="#E69F00"/>
<circle cx="143" cy="340" r="3" fill="#C44E52"/>
<circle cx="143" cy="58" r="3" fill="#000000"/>
<circle cx="216" cy="57" r="3" fill="#0072B2"/>
<circle cx="216" cy="41" r="3" fill="#CC79A7"/>
<circle cx="216" cy="340" r="3" fill="#D55E00"/>
<circle cx="216" cy="283" r="3" fill="#009E73"/>
<circle cx="216" cy="283" r="3" fill="#56B4E9"/>
<circle cx="216" cy="212" r="3" fill="#E69F00"/>
<circle cx="216" cy="340" r="3" fill="#C44E52"/>
<circle cx="216" cy="41" r="3" fill="#000000"/>
<circle cx="290" cy="131" r="3" fill="#0072B2"/>
<circle cx="290" cy="113" r="3" fill="#CC79A7"/>
<circle cx="290" cy="340" r="3" fill="#D55E00"/>
<circle cx="290" cy="298" r="3" fill="#009E73"/>
<circle cx="290" cy="295" r="3" fill="#56B4E9"/>
<circle cx="290" cy="225" r="3" fill="#E69F00"/>
<circle cx="290" cy="340" r="3" fill="#C44E52"/>
<circle cx="290" cy="66" r="3" fill="#000000"/>
<circle cx="363" cy="132" r="3" fill="#0072B2"/>
<circle cx="363" cy="112" r="3" fill="#CC79A7"/>
<circle cx="363" cy="340" r="3" fill="#D55E00"/>
<circle cx="363" cy="298" r="3" fill="#009E73"/>
<circle cx="363" cy="295" r="3" fill="#56B4E9"/>
<circle cx="363" cy="225" r="3" fill="#E69F00"/>
<circle cx="363" cy="340" r="3" fill="#C44E52"/>
<circle cx="363" cy="67" r="3" fill="#000000"/>
<circle cx="436" cy="131" r="3" fill="#0072B2"/>
<circle cx="436" cy="112" r="3" fill="#CC79A7"/>
<circle cx="436" cy="340" r="3" fill="#D55E00"/>
<circle cx="436" cy="298" r="3" fill="#009E73"/>
<circle cx="436" cy="295" r="3" fill="#56B4E9"/>
<circle cx="436" cy="225" r="3" fill="#E69F00"/>
<circle cx="436" cy="340" r="3" fill="#C44E52"/>
<circle cx="436" cy="67" r="3" fill="#000000"/>
<circle cx="510" cy="129" r="3" fill="#0072B2"/>
<circle cx="510" cy="112" r="3" fill="#CC79A7"/>
<circle cx="510" cy="340" r="3" fill="#D55E00"/>
<circle cx="510" cy="297" r="3" fill="#009E73"/>
<circle cx="510" cy="295" r="3" fill="#56B4E9"/>
<circle cx="510" cy="225" r="3" fill="#E69F00"/>
<circle cx="510" cy="340" r="3" fill="#C44E52"/>
<circle cx="510" cy="67" r="3" fill="#000000"/>
<circle cx="583" cy="132" r="3" fill="#0072B2"/>
<circle cx="583" cy="112" r="3" fill="#CC79A7"/>
<circle cx="583" cy="340" r="3" fill="#D55E00"/>
<circle cx="583" cy="298" r="3" fill="#009E73"/>
<circle cx="583" cy="295" r="3" fill="#56B4E9"/>
<circle cx="583" cy="225" r="3" fill="#E69F00"/>
<circle cx="583" cy="340" r="3" fill="#C44E52"/>
<circle cx="583" cy="67" r="3" fill="#000000"/>
<circle cx="656" cy="132" r="3" fill="#0072B2"/>
<circle cx="656" cy="112" r="3" fill="#CC79A7"/>
<circle cx="656" cy="340" r="3" fill="#D55E00"/>
<circle cx="656" cy="298" r="3" fill="#009E73"/>
<circle cx="656" cy="295" r="3" fill="#56B4E9"/>
<circle cx="656" cy="225" r="3" fill="#E69F00"/>
<circle cx="656" cy="340" r="3" fill="#C44E52"/>
<circle cx="656" cy="67" r="3" fill="#000000"/>
<circle cx="730" cy="134" r="3" fill="#0072B2"/>
<circle cx="730" cy="115" r="3" fill="#CC79A7"/>
<circle cx="730" cy="340" r="3" fill="#D55E00"/>
<circle cx="730" cy="298" r="3" fill="#009E73"/>
<circle cx="730" cy="303" r="3" fill="#56B4E9"/>
<circle cx="730" cy="233" r="3" fill="#E69F00"/>
<circle cx="730" cy="340" r="3" fill="#C44E52"/>
<circle cx="730" cy="84" r="3" fill="#000000"/>
<circle cx="90" cy="20" r="4" fill="#0072B2"/>
<text x="98" y="24" text-anchor="start" font-size="12" fill="#0072B2">inte</text>
<circle cx="150" cy="20" r="4" fill="#CC79A7"/>
<text x="158" y="24" text-anchor="start" font-size="12" fill="#CC79A7">comp</text>
<circle cx="215" cy="20" r="4" fill="#D55E00"/>
<text x="223" y="24" text-anchor="start" font-size="12" fill="#D55E00">run</text>
<circle cx="270" cy="20" r="4" fill="#009E73"/>
<text x="278" y="24" text-anchor="start" font-size="12" fill="#009E73">wall</text>
<circle cx="335" cy="20" r="4" fill="#56B4E9"/>
<text x="343" y="24" text-anchor="start" font-size="12" fill="#56B4E9">mem-inte</text>
<circle cx="425" cy="20" r="4" fill="#E69F00"/>
<text x="433" y="24" text-anchor="start" font-size="12" fill="#E69F00">mem-comp</text>
<circle cx="520" cy="20" r="4" fill="#C44E52"/>
<text x="528" y="24" text-anchor="start" font-size="12" fill="#C44E52">mem-run</text>
<circle cx="605" cy="20" r="4" fill="#000000"/>
<text x="613" y="24" text-anchor="start" font-size="12" fill="#000000">mem-total</text>
</svg>
