<svg width="800" height="400" xmlns="http://www.w3.org/2000/svg">
<rect width="800" height="400" fill="white"/>
<line x1="70" y1="40" x2="70" y2="340" stroke="#333" stroke-width="1"/>
<line x1="70" y1="340" x2="780" y2="340" stroke="#333" stroke-width="1"/>
<text x="65" y="344" text-anchor="end" font-size="11" fill="#333">0</text>
<text x="65" y="194" text-anchor="end" font-size="11" fill="#333">97500</text>
<text x="65" y="44" text-anchor="end" font-size="11" fill="#333">195000</text>
<text x="15" y="190" text-anchor="middle" font-size="12" fill="#333" transform="rotate(-90 15 190)">ms</text>
<polyline points="70,57 148,52 227,42 306,51 385,54 464,48 543,92 622,97 701,91 780,92" fill="none" stroke="#0072B2" stroke-width="2"/>
<polyline points="70,53 148,57 227,45 306,55 385,61 464,58 543,95 622,99 701,91 780,98" fill="none" stroke="#CC79A7" stroke-width="2"/>
<polyline points="70,338 148,338 227,338 306,338 385,338 464,338 543,338 622,338 701,338 780,338" fill="none" stroke="#D55E00" stroke-width="2"/>
<polyline points="70,303 148,303 227,302 306,302 385,303 464,303 543,308 622,309 701,308 780,309" fill="none" stroke="#009E73" stroke-width="2"/>
<circle cx="70" cy="57" r="3" fill="#0072B2"/>
<circle cx="70" cy="53" r="3" fill="#CC79A7"/>
<circle cx="70" cy="338" r="3" fill="#D55E00"/>
<circle cx="70" cy="303" r="3" fill="#009E73"/>
<circle cx="148" cy="52" r="3" fill="#0072B2"/>
<circle cx="148" cy="57" r="3" fill="#CC79A7"/>
<circle cx="148" cy="338" r="3" fill="#D55E00"/>
<circle cx="148" cy="303" r="3" fill="#009E73"/>
<circle cx="227" cy="42" r="3" fill="#0072B2"/>
<circle cx="227" cy="45" r="3" fill="#CC79A7"/>
<circle cx="227" cy="338" r="3" fill="#D55E00"/>
<circle cx="227" cy="302" r="3" fill="#009E73"/>
<circle cx="306" cy="51" r="3" fill="#0072B2"/>
<circle cx="306" cy="55" r="3" fill="#CC79A7"/>
<circle cx="306" cy="338" r="3" fill="#D55E00"/>
<circle cx="306" cy="302" r="3" fill="#009E73"/>
<circle cx="385" cy="54" r="3" fill="#0072B2"/>
<circle cx="385" cy="61" r="3" fill="#CC79A7"/>
<circle cx="385" cy="338" r="3" fill="#D55E00"/>
<circle cx="385" cy="303" r="3" fill="#009E73"/>
<circle cx="464" cy="48" r="3" fill="#0072B2"/>
<circle cx="464" cy="58" r="3" fill="#CC79A7"/>
<circle cx="464" cy="338" r="3" fill="#D55E00"/>
<circle cx="464" cy="303" r="3" fill="#009E73"/>
<circle cx="543" cy="92" r="3" fill="#0072B2"/>
<circle cx="543" cy="95" r="3" fill="#CC79A7"/>
<circle cx="543" cy="338" r="3" fill="#D55E00"/>
<circle cx="543" cy="308" r="3" fill="#009E73"/>
<circle cx="622" cy="97" r="3" fill="#0072B2"/>
<circle cx="622" cy="99" r="3" fill="#CC79A7"/>
<circle cx="622" cy="338" r="3" fill="#D55E00"/>
<circle cx="622" cy="309" r="3" fill="#009E73"/>
<circle cx="701" cy="91" r="3" fill="#0072B2"/>
<circle cx="701" cy="91" r="3" fill="#CC79A7"/>
<circle cx="701" cy="338" r="3" fill="#D55E00"/>
<circle cx="701" cy="308" r="3" fill="#009E73"/>
<circle cx="780" cy="92" r="3" fill="#0072B2"/>
<circle cx="780" cy="98" r="3" fill="#CC79A7"/>
<circle cx="780" cy="338" r="3" fill="#D55E00"/>
<circle cx="780" cy="309" r="3" fill="#009E73"/>
<circle cx="90" cy="20" r="4" fill="#0072B2"/>
<text x="98" y="24" text-anchor="start" font-size="12" fill="#0072B2">interpreted</text>
<circle cx="190" cy="20" r="4" fill="#CC79A7"/>
<text x="198" y="24" text-anchor="start" font-size="12" fill="#CC79A7">compiled</text>
<circle cx="275" cy="20" r="4" fill="#D55E00"/>
<text x="283" y="24" text-anchor="start" font-size="12" fill="#D55E00">executed</text>
<circle cx="355" cy="20" r="4" fill="#009E73"/>
<text x="363" y="24" text-anchor="start" font-size="12" fill="#009E73">wall</text>
</svg>
