<svg width="800" height="400" xmlns="http://www.w3.org/2000/svg">
<rect width="800" height="400" fill="white"/>
<line x1="70" y1="40" x2="70" y2="340" stroke="#333" stroke-width="1"/>
<line x1="70" y1="340" x2="730" y2="340" stroke="#333" stroke-width="1"/>
<line x1="730" y1="40" x2="730" y2="340" stroke="#333" stroke-width="1"/>
<text x="65" y="344" text-anchor="end" font-size="11" fill="#333">0</text>
<text x="65" y="194" text-anchor="end" font-size="11" fill="#333">97500</text>
<text x="65" y="44" text-anchor="end" font-size="11" fill="#333">195000</text>
<text x="15" y="190" text-anchor="middle" font-size="12" fill="#333" transform="rotate(-90 15 190)">ms</text>
<text x="735" y="344" text-anchor="start" font-size="11" fill="#333">0</text>
<text x="735" y="194" text-anchor="start" font-size="11" fill="#333">11108000000</text>
<text x="735" y="44" text-anchor="start" font-size="11" fill="#333">22216000000</text>
<text x="785" y="190" text-anchor="middle" font-size="12" fill="#333" transform="rotate(90 785 190)">bytes</text>
<polyline points="70,98 143,161 216,159 290,160 363,160 436,158 510,156 583,157 656,157 730,155" fill="none" stroke="#0072B2" stroke-width="2"/>
<polyline points="70,41 143,155 216,153 290,156 363,155 436,152 510,153 583,153 656,151 730,150" fill="none" stroke="#CC79A7" stroke-width="2"/>
<polyline points="70,340 143,340 216,340 290,340 363,340 436,340 510,340 583,340 656,340 730,340" fill="none" stroke="#D55E00" stroke-width="2"/>
<polyline points="70,276 143,315 216,316 290,316 363,316 436,315 510,315 583,315 656,315 730,315" fill="none" stroke="#009E73" stroke-width="2"/>
<polyline points="70,218 143,278 216,280 290,280 363,278 436,280 510,278 583,278 656,280 730,280" fill="none" stroke="#56B4E9" stroke-width="2"/>
<polyline points="70,214 143,255 216,253 290,254 363,254 436,251 510,255 583,253 656,252 730,255" fill="none" stroke="#E69F00" stroke-width="2"/>
<polyline points="70,339 143,340 216,340 290,340 363,340 436,340 510,340 583,340 656,340 730,340" fill="none" stroke="#C44E52" stroke-width="2"/>
<polyline points="70,41 143,158 216,157 290,159 363,157 436,156 510,159 583,157 656,158 730,160" fill="none" stroke="#000000" stroke-width="2"/>
<circle cx="70" cy="98" r="3" fill="#0072B2"/>
<circle cx="70" cy="41" r="3" fill="#CC79A7"/>
<circle cx="70" cy="340" r="3" fill="#D55E00"/>
<circle cx="70" cy="276" r="3" fill="#009E73"/>
<circle cx="70" cy="218" r="3" fill="#56B4E9"/>
<circle cx="70" cy="214" r="3" fill="#E69F00"/>
<circle cx="70" cy="339" r="3" fill="#C44E52"/>
<circle cx="70" cy="41" r="3" fill="#000000"/>
<circle cx="143" cy="161" r="3" fill="#0072B2"/>
<circle cx="143" cy="155" r="3" fill="#CC79A7"/>
<circle cx="143" cy="340" r="3" fill="#D55E00"/>
<circle cx="143" cy="315" r="3" fill="#009E73"/>
<circle cx="143" cy="278" r="3" fill="#56B4E9"/>
<circle cx="143" cy="255" r="3" fill="#E69F00"/>
<circle cx="143" cy="340" r="3" fill="#C44E52"/>
<circle cx="143" cy="158" r="3" fill="#000000"/>
<circle cx="216" cy="159" r="3" fill="#0072B2"/>
<circle cx="216" cy="153" r="3" fill="#CC79A7"/>
<circle cx="216" cy="340" r="3" fill="#D55E00"/>
<circle cx="216" cy="316" r="3" fill="#009E73"/>
<circle cx="216" cy="280" r="3" fill="#56B4E9"/>
<circle cx="216" cy="253" r="3" fill="#E69F00"/>
<circle cx="216" cy="340" r="3" fill="#C44E52"/>
<circle cx="216" cy="157" r="3" fill="#000000"/>
<circle cx="290" cy="160" r="3" fill="#0072B2"/>
<circle cx="290" cy="156" r="3" fill="#CC79A7"/>
<circle cx="290" cy="340" r="3" fill="#D55E00"/>
<circle cx="290" cy="316" r="3" fill="#009E73"/>
<circle cx="290" cy="280" r="3" fill="#56B4E9"/>
<circle cx="290" cy="254" r="3" fill="#E69F00"/>
<circle cx="290" cy="340" r="3" fill="#C44E52"/>
<circle cx="290" cy="159" r="3" fill="#000000"/>
<circle cx="363" cy="160" r="3" fill="#0072B2"/>
<circle cx="363" cy="155" r="3" fill="#CC79A7"/>
<circle cx="363" cy="340" r="3" fill="#D55E00"/>
<circle cx="363" cy="316" r="3" fill="#009E73"/>
<circle cx="363" cy="278" r="3" fill="#56B4E9"/>
<circle cx="363" cy="254" r="3" fill="#E69F00"/>
<circle cx="363" cy="340" r="3" fill="#C44E52"/>
<circle cx="363" cy="157" r="3" fill="#000000"/>
<circle cx="436" cy="158" r="3" fill="#0072B2"/>
<circle cx="436" cy="152" r="3" fill="#CC79A7"/>
<circle cx="436" cy="340" r="3" fill="#D55E00"/>
<circle cx="436" cy="315" r="3" fill="#009E73"/>
<circle cx="436" cy="280" r="3" fill="#56B4E9"/>
<circle cx="436" cy="251" r="3" fill="#E69F00"/>
<circle cx="436" cy="340" r="3" fill="#C44E52"/>
<circle cx="436" cy="156" r="3" fill="#000000"/>
<circle cx="510" cy="156" r="3" fill="#0072B2"/>
<circle cx="510" cy="153" r="3" fill="#CC79A7"/>
<circle cx="510" cy="340" r="3" fill="#D55E00"/>
<circle cx="510" cy="315" r="3" fill="#009E73"/>
<circle cx="510" cy="278" r="3" fill="#56B4E9"/>
<circle cx="510" cy="255" r="3" fill="#E69F00"/>
<circle cx="510" cy="340" r="3" fill="#C44E52"/>
<circle cx="510" cy="159" r="3" fill="#000000"/>
<circle cx="583" cy="157" r="3" fill="#0072B2"/>
<circle cx="583" cy="153" r="3" fill="#CC79A7"/>
<circle cx="583" cy="340" r="3" fill="#D55E00"/>
<circle cx="583" cy="315" r="3" fill="#009E73"/>
<circle cx="583" cy="278" r="3" fill="#56B4E9"/>
<circle cx="583" cy="253" r="3" fill="#E69F00"/>
<circle cx="583" cy="340" r="3" fill="#C44E52"/>
<circle cx="583" cy="157" r="3" fill="#000000"/>
<circle cx="656" cy="157" r="3" fill="#0072B2"/>
<circle cx="656" cy="151" r="3" fill="#CC79A7"/>
<circle cx="656" cy="340" r="3" fill="#D55E00"/>
<circle cx="656" cy="315" r="3" fill="#009E73"/>
<circle cx="656" cy="280" r="3" fill="#56B4E9"/>
<circle cx="656" cy="252" r="3" fill="#E69F00"/>
<circle cx="656" cy="340" r="3" fill="#C44E52"/>
<circle cx="656" cy="158" r="3" fill="#000000"/>
<circle cx="730" cy="155" r="3" fill="#0072B2"/>
<circle cx="730" cy="150" r="3" fill="#CC79A7"/>
<circle cx="730" cy="340" r="3" fill="#D55E00"/>
<circle cx="730" cy="315" r="3" fill="#009E73"/>
<circle cx="730" cy="280" r="3" fill="#56B4E9"/>
<circle cx="730" cy="255" r="3" fill="#E69F00"/>
<circle cx="730" cy="340" r="3" fill="#C44E52"/>
<circle cx="730" cy="160" r="3" fill="#000000"/>
<circle cx="90" cy="20" r="4" fill="#0072B2"/>
<text x="98" y="24" text-anchor="start" font-size="12" fill="#0072B2">inte</text>
<circle cx="150" cy="20" r="4" fill="#CC79A7"/>
<text x="158" y="24" text-anchor="start" font-size="12" fill="#CC79A7">comp</text>
<circle cx="215" cy="20" r="4" fill="#D55E00"/>
<text x="223" y="24" text-anchor="start" font-size="12" fill="#D55E00">run</text>
<circle cx="270" cy="20" r="4" fill="#009E73"/>
<text x="278" y="24" text-anchor="start" font-size="12" fill="#009E73">wall</text>
<circle cx="335" cy="20" r="4" fill="#56B4E9"/>
<text x="343" y="24" text-anchor="start" font-size="12" fill="#56B4E9">mem-inte</text>
<circle cx="425" cy="20" r="4" fill="#E69F00"/>
<text x="433" y="24" text-anchor="start" font-size="12" fill="#E69F00">mem-comp</text>
<circle cx="520" cy="20" r="4" fill="#C44E52"/>
<text x="528" y="24" text-anchor="start" font-size="12" fill="#C44E52">mem-run</text>
<circle cx="605" cy="20" r="4" fill="#000000"/>
<text x="613" y="24" text-anchor="start" font-size="12" fill="#000000">mem-total</text>
</svg>
