<svg width="800" height="400" xmlns="http://www.w3.org/2000/svg">
<rect width="800" height="400" fill="white"/>
<line x1="70" y1="40" x2="70" y2="340" stroke="#333" stroke-width="1"/>
<line x1="70" y1="340" x2="730" y2="340" stroke="#333" stroke-width="1"/>
<line x1="730" y1="40" x2="730" y2="340" stroke="#333" stroke-width="1"/>
<text x="65" y="344" text-anchor="end" font-size="11" fill="#333">0</text>
<text x="65" y="194" text-anchor="end" font-size="11" fill="#333">124500</text>
<text x="65" y="44" text-anchor="end" font-size="11" fill="#333">249000</text>
<text x="15" y="190" text-anchor="middle" font-size="12" fill="#333" transform="rotate(-90 15 190)">ms</text>
<text x="735" y="344" text-anchor="start" font-size="11" fill="#333">0</text>
<text x="735" y="194" text-anchor="start" font-size="11" fill="#333">9820000000</text>
<text x="735" y="44" text-anchor="start" font-size="11" fill="#333">19640000000</text>
<text x="785" y="190" text-anchor="middle" font-size="12" fill="#333" transform="rotate(90 785 190)">bytes</text>
<polyline points="70,182 143,159 216,177 290,112 363,188 436,159 510,155 583,116 656,131 730,193" fill="none" stroke="#0072B2" stroke-width="2"/>
<polyline points="70,132 143,110 216,125 290,52 363,146 436,119 510,111 583,41 656,62 730,147" fill="none" stroke="#CC79A7" stroke-width="2"/>
<polyline points="70,340 143,340 216,340 290,339 363,340 436,340 510,339 583,339 656,339 730,340" fill="none" stroke="#D55E00" stroke-width="2"/>
<polyline points="70,296 143,290 216,295 290,277 363,298 436,291 510,291 583,274 656,283 730,299" fill="none" stroke="#009E73" stroke-width="2"/>
<polyline points="70,227 143,229 216,230 290,227 363,229 436,227 510,229 583,228 656,230 730,227" fill="none" stroke="#56B4E9" stroke-width="2"/>
<polyline points="70,225 143,224 216,225 290,224 363,223 436,223 510,224 583,223 656,223 730,224" fill="none" stroke="#E69F00" stroke-width="2"/>
<polyline points="70,339 143,339 216,338 290,337 363,339 436,339 510,338 583,338 656,338 730,339" fill="none" stroke="#C44E52" stroke-width="2"/>
<polyline points="70,41 143,60 216,60 290,49 363,52 436,56 510,57 583,51 656,56 730,52" fill="none" stroke="#000000" stroke-width="2"/>
<circle cx="70" cy="182" r="3" fill="#0072B2"/>
<circle cx="70" cy="132" r="3" fill="#CC79A7"/>
<circle cx="70" cy="340" r="3" fill="#D55E00"/>
<circle cx="70" cy="296" r="3" fill="#009E73"/>
<circle cx="70" cy="227" r="3" fill="#56B4E9"/>
<circle cx="70" cy="225" r="3" fill="#E69F00"/>
<circle cx="70" cy="339" r="3" fill="#C44E52"/>
<circle cx="70" cy="41" r="3" fill="#000000"/>
<circle cx="143" cy="159" r="3" fill="#0072B2"/>
<circle cx="143" cy="110" r="3" fill="#CC79A7"/>
<circle cx="143" cy="340" r="3" fill="#D55E00"/>
<circle cx="143" cy="290" r="3" fill="#009E73"/>
<circle cx="143" cy="229" r="3" fill="#56B4E9"/>
<circle cx="143" cy="224" r="3" fill="#E69F00"/>
<circle cx="143" cy="339" r="3" fill="#C44E52"/>
<circle cx="143" cy="60" r="3" fill="#000000"/>
<circle cx="216" cy="177" r="3" fill="#0072B2"/>
<circle cx="216" cy="125" r="3" fill="#CC79A7"/>
<circle cx="216" cy="340" r="3" fill="#D55E00"/>
<circle cx="216" cy="295" r="3" fill="#009E73"/>
<circle cx="216" cy="230" r="3" fill="#56B4E9"/>
<circle cx="216" cy="225" r="3" fill="#E69F00"/>
<circle cx="216" cy="338" r="3" fill="#C44E52"/>
<circle cx="216" cy="60" r="3" fill="#000000"/>
<circle cx="290" cy="112" r="3" fill="#0072B2"/>
<circle cx="290" cy="52" r="3" fill="#CC79A7"/>
<circle cx="290" cy="339" r="3" fill="#D55E00"/>
<circle cx="290" cy="277" r="3" fill="#009E73"/>
<circle cx="290" cy="227" r="3" fill="#56B4E9"/>
<circle cx="290" cy="224" r="3" fill="#E69F00"/>
<circle cx="290" cy="337" r="3" fill="#C44E52"/>
<circle cx="290" cy="49" r="3" fill="#000000"/>
<circle cx="363" cy="188" r="3" fill="#0072B2"/>
<circle cx="363" cy="146" r="3" fill="#CC79A7"/>
<circle cx="363" cy="340" r="3" fill="#D55E00"/>
<circle cx="363" cy="298" r="3" fill="#009E73"/>
<circle cx="363" cy="229" r="3" fill="#56B4E9"/>
<circle cx="363" cy="223" r="3" fill="#E69F00"/>
<circle cx="363" cy="339" r="3" fill="#C44E52"/>
<circle cx="363" cy="52" r="3" fill="#000000"/>
<circle cx="436" cy="159" r="3" fill="#0072B2"/>
<circle cx="436" cy="119" r="3" fill="#CC79A7"/>
<circle cx="436" cy="340" r="3" fill="#D55E00"/>
<circle cx="436" cy="291" r="3" fill="#009E73"/>
<circle cx="436" cy="227" r="3" fill="#56B4E9"/>
<circle cx="436" cy="223" r="3" fill="#E69F00"/>
<circle cx="436" cy="339" r="3" fill="#C44E52"/>
<circle cx="436" cy="56" r="3" fill="#000000"/>
<circle cx="510" cy="155" r="3" fill="#0072B2"/>
<circle cx="510" cy="111" r="3" fill="#CC79A7"/>
<circle cx="510" cy="339" r="3" fill="#D55E00"/>
<circle cx="510" cy="291" r="3" fill="#009E73"/>
<circle cx="510" cy="229" r="3" fill="#56B4E9"/>
<circle cx="510" cy="224" r="3" fill="#E69F00"/>
<circle cx="510" cy="338" r="3" fill="#C44E52"/>
<circle cx="510" cy="57" r="3" fill="#000000"/>
<circle cx="583" cy="116" r="3" fill="#0072B2"/>
<circle cx="583" cy="41" r="3" fill="#CC79A7"/>
<circle cx="583" cy="339" r="3" fill="#D55E00"/>
<circle cx="583" cy="274" r="3" fill="#009E73"/>
<circle cx="583" cy="228" r="3" fill="#56B4E9"/>
<circle cx="583" cy="223" r="3" fill="#E69F00"/>
<circle cx="583" cy="338" r="3" fill="#C44E52"/>
<circle cx="583" cy="51" r="3" fill="#000000"/>
<circle cx="656" cy="131" r="3" fill="#0072B2"/>
<circle cx="656" cy="62" r="3" fill="#CC79A7"/>
<circle cx="656" cy="339" r="3" fill="#D55E00"/>
<circle cx="656" cy="283" r="3" fill="#009E73"/>
<circle cx="656" cy="230" r="3" fill="#56B4E9"/>
<circle cx="656" cy="223" r="3" fill="#E69F00"/>
<circle cx="656" cy="338" r="3" fill="#C44E52"/>
<circle cx="656" cy="56" r="3" fill="#000000"/>
<circle cx="730" cy="193" r="3" fill="#0072B2"/>
<circle cx="730" cy="147" r="3" fill="#CC79A7"/>
<circle cx="730" cy="340" r="3" fill="#D55E00"/>
<circle cx="730" cy="299" r="3" fill="#009E73"/>
<circle cx="730" cy="227" r="3" fill="#56B4E9"/>
<circle cx="730" cy="224" r="3" fill="#E69F00"/>
<circle cx="730" cy="339" r="3" fill="#C44E52"/>
<circle cx="730" cy="52" r="3" fill="#000000"/>
<circle cx="90" cy="20" r="4" fill="#0072B2"/>
<text x="98" y="24" text-anchor="start" font-size="12" fill="#0072B2">inte</text>
<circle cx="150" cy="20" r="4" fill="#CC79A7"/>
<text x="158" y="24" text-anchor="start" font-size="12" fill="#CC79A7">comp</text>
<circle cx="215" cy="20" r="4" fill="#D55E00"/>
<text x="223" y="24" text-anchor="start" font-size="12" fill="#D55E00">run</text>
<circle cx="270" cy="20" r="4" fill="#009E73"/>
<text x="278" y="24" text-anchor="start" font-size="12" fill="#009E73">wall</text>
<circle cx="335" cy="20" r="4" fill="#56B4E9"/>
<text x="343" y="24" text-anchor="start" font-size="12" fill="#56B4E9">mem-inte</text>
<circle cx="425" cy="20" r="4" fill="#E69F00"/>
<text x="433" y="24" text-anchor="start" font-size="12" fill="#E69F00">mem-comp</text>
<circle cx="520" cy="20" r="4" fill="#C44E52"/>
<text x="528" y="24" text-anchor="start" font-size="12" fill="#C44E52">mem-run</text>
<circle cx="605" cy="20" r="4" fill="#000000"/>
<text x="613" y="24" text-anchor="start" font-size="12" fill="#000000">mem-total</text>
</svg>
