<svg width="800" height="400" xmlns="http://www.w3.org/2000/svg">
<rect width="800" height="400" fill="white"/>
<line x1="70" y1="40" x2="70" y2="340" stroke="#333" stroke-width="1"/>
<line x1="70" y1="340" x2="780" y2="340" stroke="#333" stroke-width="1"/>
<text x="65" y="344" text-anchor="end" font-size="11" fill="#333">0</text>
<text x="65" y="194" text-anchor="end" font-size="11" fill="#333">4000</text>
<text x="65" y="44" text-anchor="end" font-size="11" fill="#333">8000</text>
<text x="15" y="190" text-anchor="middle" font-size="12" fill="#333" transform="rotate(-90 15 190)">ms</text>
<polyline points="70,268 94,266 118,269 143,265 167,269 192,267 216,263 241,265 265,260 290,260 314,265 339,261 363,261 388,265 412,259 437,261 461,262 486,266 510,265 535,262 559,263 584,265 608,265 633,265 657,263 682,262 706,264 731,265 755,264 780,262" fill="none" stroke="#2196F3" stroke-width="2"/>
<polyline points="70,131 94,132 118,133 143,128 167,130 192,135 216,127 241,127 265,127 290,128 314,128 339,123 363,122 388,128 412,127 437,136 461,130 486,126 510,125 535,128 559,128 584,133 608,128 633,135 657,96 682,103 706,101 731,105 755,103 780,104" fill="none" stroke="#F44336" stroke-width="2"/>
<polyline points="70,79 94,80 118,80 143,78 167,84 192,71 216,69 241,69 265,66 290,63 314,64 339,65 363,65 388,66 412,66 437,63 461,61 486,61 510,67 535,61 559,65 584,68 608,65 633,66 657,57 682,63 706,57 731,58 755,63 780,65" fill="none" stroke="#4CAF50" stroke-width="2"/>
<circle cx="70" cy="268" r="3" fill="#2196F3"/>
<circle cx="70" cy="131" r="3" fill="#F44336"/>
<circle cx="70" cy="79" r="3" fill="#4CAF50"/>
<circle cx="94" cy="266" r="3" fill="#2196F3"/>
<circle cx="94" cy="132" r="3" fill="#F44336"/>
<circle cx="94" cy="80" r="3" fill="#4CAF50"/>
<circle cx="118" cy="269" r="3" fill="#2196F3"/>
<circle cx="118" cy="133" r="3" fill="#F44336"/>
<circle cx="118" cy="80" r="3" fill="#4CAF50"/>
<circle cx="143" cy="265" r="3" fill="#2196F3"/>
<circle cx="143" cy="128" r="3" fill="#F44336"/>
<circle cx="143" cy="78" r="3" fill="#4CAF50"/>
<circle cx="167" cy="269" r="3" fill="#2196F3"/>
<circle cx="167" cy="130" r="3" fill="#F44336"/>
<circle cx="167" cy="84" r="3" fill="#4CAF50"/>
<circle cx="192" cy="267" r="3" fill="#2196F3"/>
<circle cx="192" cy="135" r="3" fill="#F44336"/>
<circle cx="192" cy="71" r="3" fill="#4CAF50"/>
<circle cx="216" cy="263" r="3" fill="#2196F3"/>
<circle cx="216" cy="127" r="3" fill="#F44336"/>
<circle cx="216" cy="69" r="3" fill="#4CAF50"/>
<circle cx="241" cy="265" r="3" fill="#2196F3"/>
<circle cx="241" cy="127" r="3" fill="#F44336"/>
<circle cx="241" cy="69" r="3" fill="#4CAF50"/>
<circle cx="265" cy="260" r="3" fill="#2196F3"/>
<circle cx="265" cy="127" r="3" fill="#F44336"/>
<circle cx="265" cy="66" r="3" fill="#4CAF50"/>
<circle cx="290" cy="260" r="3" fill="#2196F3"/>
<circle cx="290" cy="128" r="3" fill="#F44336"/>
<circle cx="290" cy="63" r="3" fill="#4CAF50"/>
<circle cx="314" cy="265" r="3" fill="#2196F3"/>
<circle cx="314" cy="128" r="3" fill="#F44336"/>
<circle cx="314" cy="64" r="3" fill="#4CAF50"/>
<circle cx="339" cy="261" r="3" fill="#2196F3"/>
<circle cx="339" cy="123" r="3" fill="#F44336"/>
<circle cx="339" cy="65" r="3" fill="#4CAF50"/>
<circle cx="363" cy="261" r="3" fill="#2196F3"/>
<circle cx="363" cy="122" r="3" fill="#F44336"/>
<circle cx="363" cy="65" r="3" fill="#4CAF50"/>
<circle cx="388" cy="265" r="3" fill="#2196F3"/>
<circle cx="388" cy="128" r="3" fill="#F44336"/>
<circle cx="388" cy="66" r="3" fill="#4CAF50"/>
<circle cx="412" cy="259" r="3" fill="#2196F3"/>
<circle cx="412" cy="127" r="3" fill="#F44336"/>
<circle cx="412" cy="66" r="3" fill="#4CAF50"/>
<circle cx="437" cy="261" r="3" fill="#2196F3"/>
<circle cx="437" cy="136" r="3" fill="#F44336"/>
<circle cx="437" cy="63" r="3" fill="#4CAF50"/>
<circle cx="461" cy="262" r="3" fill="#2196F3"/>
<circle cx="461" cy="130" r="3" fill="#F44336"/>
<circle cx="461" cy="61" r="3" fill="#4CAF50"/>
<circle cx="486" cy="266" r="3" fill="#2196F3"/>
<circle cx="486" cy="126" r="3" fill="#F44336"/>
<circle cx="486" cy="61" r="3" fill="#4CAF50"/>
<circle cx="510" cy="265" r="3" fill="#2196F3"/>
<circle cx="510" cy="125" r="3" fill="#F44336"/>
<circle cx="510" cy="67" r="3" fill="#4CAF50"/>
<circle cx="535" cy="262" r="3" fill="#2196F3"/>
<circle cx="535" cy="128" r="3" fill="#F44336"/>
<circle cx="535" cy="61" r="3" fill="#4CAF50"/>
<circle cx="559" cy="263" r="3" fill="#2196F3"/>
<circle cx="559" cy="128" r="3" fill="#F44336"/>
<circle cx="559" cy="65" r="3" fill="#4CAF50"/>
<circle cx="584" cy="265" r="3" fill="#2196F3"/>
<circle cx="584" cy="133" r="3" fill="#F44336"/>
<circle cx="584" cy="68" r="3" fill="#4CAF50"/>
<circle cx="608" cy="265" r="3" fill="#2196F3"/>
<circle cx="608" cy="128" r="3" fill="#F44336"/>
<circle cx="608" cy="65" r="3" fill="#4CAF50"/>
<circle cx="633" cy="265" r="3" fill="#2196F3"/>
<circle cx="633" cy="135" r="3" fill="#F44336"/>
<circle cx="633" cy="66" r="3" fill="#4CAF50"/>
<circle cx="657" cy="263" r="3" fill="#2196F3"/>
<circle cx="657" cy="96" r="3" fill="#F44336"/>
<circle cx="657" cy="57" r="3" fill="#4CAF50"/>
<circle cx="682" cy="262" r="3" fill="#2196F3"/>
<circle cx="682" cy="103" r="3" fill="#F44336"/>
<circle cx="682" cy="63" r="3" fill="#4CAF50"/>
<circle cx="706" cy="264" r="3" fill="#2196F3"/>
<circle cx="706" cy="101" r="3" fill="#F44336"/>
<circle cx="706" cy="57" r="3" fill="#4CAF50"/>
<circle cx="731" cy="265" r="3" fill="#2196F3"/>
<circle cx="731" cy="105" r="3" fill="#F44336"/>
<circle cx="731" cy="58" r="3" fill="#4CAF50"/>
<circle cx="755" cy="264" r="3" fill="#2196F3"/>
<circle cx="755" cy="103" r="3" fill="#F44336"/>
<circle cx="755" cy="63" r="3" fill="#4CAF50"/>
<circle cx="780" cy="262" r="3" fill="#2196F3"/>
<circle cx="780" cy="104" r="3" fill="#F44336"/>
<circle cx="780" cy="65" r="3" fill="#4CAF50"/>
<text x="70" y="355" text-anchor="middle" font-size="10" fill="#666">d31c3d3</text>
<text x="94" y="355" text-anchor="middle" font-size="10" fill="#666">577b0f6</text>
<text x="118" y="355" text-anchor="middle" font-size="10" fill="#666">a0e3a8f</text>
<text x="143" y="355" text-anchor="middle" font-size="10" fill="#666">32b7787</text>
<text x="167" y="355" text-anchor="middle" font-size="10" fill="#666">940e369</text>
<text x="192" y="355" text-anchor="middle" font-size="10" fill="#666">78956c1</text>
<text x="216" y="355" text-anchor="middle" font-size="10" fill="#666">1a288e9</text>
<text x="241" y="355" text-anchor="middle" font-size="10" fill="#666">f1c0746</text>
<text x="265" y="355" text-anchor="middle" font-size="10" fill="#666">efad3b5</text>
<text x="290" y="355" text-anchor="middle" font-size="10" fill="#666">d3839be</text>
<text x="314" y="355" text-anchor="middle" font-size="10" fill="#666">a0c21b2</text>
<text x="339" y="355" text-anchor="middle" font-size="10" fill="#666">c3d3d81</text>
<text x="363" y="355" text-anchor="middle" font-size="10" fill="#666">e40d897</text>
<text x="388" y="355" text-anchor="middle" font-size="10" fill="#666">0b1ed97</text>
<text x="412" y="355" text-anchor="middle" font-size="10" fill="#666">6a5ae3f</text>
<text x="437" y="355" text-anchor="middle" font-size="10" fill="#666">59cf448</text>
<text x="461" y="355" text-anchor="middle" font-size="10" fill="#666">42b3e04</text>
<text x="486" y="355" text-anchor="middle" font-size="10" fill="#666">bd9421a</text>
<text x="510" y="355" text-anchor="middle" font-size="10" fill="#666">f80812f</text>
<text x="535" y="355" text-anchor="middle" font-size="10" fill="#666">448a5fe</text>
<text x="559" y="355" text-anchor="middle" font-size="10" fill="#666">b16c1cc</text>
<text x="584" y="355" text-anchor="middle" font-size="10" fill="#666">44c334c</text>
<text x="608" y="355" text-anchor="middle" font-size="10" fill="#666">aa51d1a</text>
<text x="633" y="355" text-anchor="middle" font-size="10" fill="#666">9bee79a</text>
<text x="657" y="355" text-anchor="middle" font-size="10" fill="#666">4380346</text>
<text x="682" y="355" text-anchor="middle" font-size="10" fill="#666">2a587a9</text>
<text x="706" y="355" text-anchor="middle" font-size="10" fill="#666">efb005a</text>
<text x="731" y="355" text-anchor="middle" font-size="10" fill="#666">1c3b72e</text>
<text x="755" y="355" text-anchor="middle" font-size="10" fill="#666">ff7c733</text>
<text x="780" y="355" text-anchor="middle" font-size="10" fill="#666">962897f</text>
<circle cx="90" cy="20" r="4" fill="#2196F3"/>
<text x="98" y="24" text-anchor="start" font-size="12" fill="#2196F3">Interpreted</text>
<circle cx="200" cy="20" r="4" fill="#F44336"/>
<text x="208" y="24" text-anchor="start" font-size="12" fill="#F44336">Compiled</text>
<circle cx="300" cy="20" r="4" fill="#4CAF50"/>
<text x="308" y="24" text-anchor="start" font-size="12" fill="#4CAF50">Wall-clock</text>
</svg>
